<svg xmlns="http://www.w3.org/2000/svg" width="2880" height="391" viewBox="0 0 2880 391" fill="none"><g clip-path="url(#clip0_2038_5626)"><mask id="mask0_2038_5626" style="mask-type:luminance" maskUnits="userSpaceOnUse" x="0" y="0" width="2880" height="391"><path d="M0 391L2880 391V0L0 0V391Z" fill="white"></path></mask><g mask="url(#mask0_2038_5626)"><path d="M2422.37 603.48C2561.79 603.48 2674.82 490.619 2674.82 351.398C2674.82 212.176 2561.79 99.3152 2422.37 99.3152C2282.95 99.3152 2169.92 212.176 2169.92 351.398C2169.92 490.619 2282.95 603.48 2422.37 603.48Z" fill="#E8F7FC"></path><path d="M2044.33 562.52C2134.17 562.52 2207 489.796 2207 400.087C2207 310.377 2134.17 237.654 2044.33 237.654C1954.49 237.654 1881.66 310.377 1881.66 400.087C1881.66 489.796 1954.49 562.52 2044.33 562.52Z" fill="#E8F7FC"></path><path d="M772.941 373.995C772.941 464.183 699.721 537.287 609.411 537.287C519.091 537.287 445.881 464.173 445.881 373.995C445.881 283.806 519.101 210.703 609.411 210.703C699.721 210.703 772.941 283.816 772.941 373.995Z" fill="#E8F7FC"></path><path d="M241.131 578.467C400.001 578.467 528.791 449.864 528.791 291.225C528.791 132.586 400.001 3.98413 241.131 3.98413C82.2605 3.98413 -46.5293 132.586 -46.5293 291.225C-46.5293 449.864 82.2605 578.467 241.131 578.467Z" fill="#E8F7FC"></path><path d="M999.521 368.802C999.521 438.011 943.341 494.109 874.031 494.109C804.721 494.109 748.541 438.011 748.541 368.802C748.541 299.593 804.721 243.495 874.031 243.495C943.341 243.495 999.521 299.593 999.521 368.802Z" fill="#E8F7FC"></path><path d="M1309.3 432.17C1309.3 524.405 1234.42 599.186 1142.04 599.186C1049.67 599.186 974.781 524.415 974.781 432.17C974.781 339.934 1049.66 265.153 1142.04 265.153C1234.41 265.153 1309.3 339.924 1309.3 432.17Z" fill="#E8F7FC"></path><path d="M1392.51 532.474C1454.66 532.474 1505.04 482.166 1505.04 420.107C1505.04 358.049 1454.66 307.741 1392.51 307.741C1330.36 307.741 1279.98 358.049 1279.98 420.107C1279.98 482.166 1330.36 532.474 1392.51 532.474Z" fill="#E8F7FC"></path><path d="M1590.09 532.474C1652.24 532.474 1702.62 482.166 1702.62 420.107C1702.62 358.049 1652.24 307.741 1590.09 307.741C1527.94 307.741 1477.56 358.049 1477.56 420.107C1477.56 482.166 1527.94 532.474 1590.09 532.474Z" fill="#E8F7FC"></path><path d="M1786.94 532.474C1849.09 532.474 1899.47 482.166 1899.47 420.107C1899.47 358.049 1849.09 307.741 1786.94 307.741C1724.79 307.741 1674.41 358.049 1674.41 420.107C1674.41 482.166 1724.79 532.474 1786.94 532.474Z" fill="#E8F7FC"></path><path d="M2794.59 479.451C2883.24 479.451 2955.11 407.688 2955.11 319.165C2955.11 230.641 2883.24 158.878 2794.59 158.878C2705.94 158.878 2634.07 230.641 2634.07 319.165C2634.07 407.688 2705.94 479.451 2794.59 479.451Z" fill="#E8F7FC"></path><path d="M-0.409912 912.679L2880 912.679V367.065L-0.409912 367.065V912.679Z" fill="#E8F7FC"></path></g></g><defs><clipPath id="clip0_2038_5626"><rect width="2880" height="391" fill="white"></rect></clipPath></defs></svg>