<svg xmlns="http://www.w3.org/2000/svg" id="Layer_2" viewBox="0 0 2543.41 790.95"><g id="Layer_3"><path d="M599.22,336.89s0,0,0,0c-3.59-.74-7.32-.51-10.97-.45-5.94-26.02-18.78-57.62-50.66-52.32-34.27,2.71-58.46,30.37-65.05,62.99-13.45-10.44-25.11-21.93-34.87-16.05,0,0,0,.02.01.02-6.46,4.58-10.05,18.02-13.63,31.49,56.17-5.54,112.68-6.41,169.04-2.96,5.62-9.6,15.96-19.34,6.12-22.7Z" style="fill:#fff; fill-rule:evenodd;"></path><path d="M592.9,359.47c2.02-4.12,4.72-7.94,6.93-11.92,1.9-3.5,4.04-7.91-1.11-9.19,0,0-1.88-.58-1.88-.58,0,0,1.07-1.71,1.07-1.71,0-.03,1,2.35,1.01,2.34-3.35-.57-6.91-.27-10.63-.14l-1.44.05-.37-1.47c-5.38-20.28-14.46-49.75-38.81-52.4-3.32-.32-6.7-.19-10.01.38,0,0-5.96.79-5.96.79-3.93.8-7.77,1.91-11.5,3.35-20.37,8.25-35.26,26.69-42.12,47.22,0,0-1.74,5.65-1.74,5.65-.52,2.25-1.75,7.37-2.27,9.6,0,0-3.03-2.38-3.03-2.38-5.37-4.22-10.46-8.7-15.81-12.49-4.9-3.33-10.9-7.13-16.63-4,0,0,.64-2.37.64-2.37l.03.06.72,1.38s-1.27.89-1.27.89c-4.28,3.09-6.67,8.79-8.7,13.71-2.02,4.67-4.01,11.55-5.73,16.4,0,0-.45-.12-.45-.12,1.8-8.62,3.4-17.31,7.17-25.36,1.33-2.69,2.99-5.41,5.66-7.51,0,.01-.57,2.27-.54,2.28,0,0,.64-2.37.64-2.37,6.7-4.45,15.14-.59,20.96,3.32,4.98,3.29,11.58,8.61,16.34,12.3,0,0-3.94,1.46-3.94,1.46l1.45-6.07c6.09-21.88,20.91-42.19,42.14-51.26,7.46-3.33,15.94-5.25,23.76-5.87,23.64-4.11,39.26,12.1,46.93,32.79,2.42,6.48,4.26,13.11,5.63,19.82l-1.81-1.42c4.29-.09,9.17-.01,13.6,1.29,0,0-1.28,1.81-1.29,1.81,0,0-.81-2.29-.81-2.29,1.84.65,4.06,2.05,4.67,4.19,1.77,6.14-8,15-11.1,20.1,0,0-.4-.23-.4-.23h0Z" style="fill:#3abfee;"></path><path d="M2249.78,765.22s0,0,0,0c-3.59-.74-7.32-.51-10.97-.45-5.94-26.02-18.78-57.62-50.66-52.32-34.27,2.71-58.46,30.37-65.05,62.99-13.45-10.44-25.11-21.93-34.87-16.05,0,0,0,.02.01.02-6.46,4.58-10.05,18.02-13.63,31.49,56.17-5.54,112.68-6.41,169.04-2.96,5.62-9.6,15.96-19.34,6.12-22.7Z" style="fill:#fff; fill-rule:evenodd;"></path><path d="M2243.45,787.81c2.02-4.12,4.72-7.94,6.93-11.92,1.9-3.5,4.04-7.91-1.11-9.19,0,0-1.88-.58-1.88-.58l1.07-1.71s1,2.35,1.01,2.34c-3.35-.57-6.91-.27-10.63-.14l-1.44.05s-.37-1.47-.37-1.47c-5.38-20.28-14.46-49.75-38.81-52.4-3.32-.32-6.7-.19-10.01.38,0,0-5.96.79-5.96.79-3.93.8-7.77,1.91-11.5,3.35-20.37,8.25-35.26,26.69-42.12,47.22,0,0-1.74,5.65-1.74,5.65-.52,2.25-1.75,7.37-2.27,9.6,0,0-3.03-2.38-3.03-2.38-5.37-4.22-10.46-8.7-15.81-12.49-4.9-3.33-10.9-7.13-16.63-4,0,0,.64-2.37.64-2.37,0,0,.03.06.03.06l.72,1.38s-1.27.89-1.27.89c-4.28,3.09-6.67,8.79-8.7,13.71-2.02,4.67-4.01,11.55-5.73,16.4,0,0-.45-.12-.45-.12,1.8-8.62,3.4-17.31,7.17-25.36,1.33-2.69,2.99-5.41,5.66-7.51,0,.01-.57,2.27-.54,2.28,0,0,.64-2.37.64-2.37,6.7-4.45,15.14-.59,20.96,3.32,4.98,3.29,11.58,8.61,16.34,12.3,0,0-3.94,1.46-3.94,1.46,0,0,1.45-6.07,1.45-6.07,6.09-21.88,20.91-42.19,42.14-51.26,7.46-3.33,15.94-5.25,23.76-5.87,23.64-4.11,39.26,12.1,46.93,32.79,2.42,6.48,4.26,13.11,5.63,19.82,0,0-1.81-1.42-1.81-1.42,4.29-.09,9.17-.01,13.6,1.29,0,0-1.28,1.81-1.29,1.81,0,0-.81-2.29-.81-2.29,1.84.65,4.06,2.05,4.67,4.19,1.77,6.14-8,15-11.1,20.1,0,0-.4-.23-.4-.23h0Z" style="fill:#3abfee;"></path><path d="M378.54,103.55c39.3,3.52,80.04,9.84,118.33,16.23-7.23-12.81-14.53-24.45-29.21-21.88,0,0,0,0,0,0-8.01,1.12-15.61,4.14-23.16,6.93C405.71-8.88,335.31-27.39,239.53,38.98c-34.29-21.15-74.17,14.99-85.28,47.88-25.05-12.93-42.82-27.7-66.23-22.26,0,0,0,.01,0,.02-16.33,5.85-27.86,19.76-40,31.22,101.44.54,225.07-1.28,330.52,7.71Z" style="fill:#fff; fill-rule:evenodd;"></path><path d="M496.67,119.89c-6.38-10.41-14.59-23.85-28.78-20.7,0,0-1.84.35-1.84.35,0,0,.31-1.83.31-1.84,0,0,1.48,1.48,1.48,1.48-7.79,1.27-15.21,4.31-22.75,7.24,0,0-1.61.63-1.61.63l-.6-1.68c-23.9-67-65.31-125.11-144.23-96.59-21.25,7.66-40.61,19.66-59.03,32.57,0,0-1.13-.67-1.13-.67-7.59-4.57-16.53-6.67-25.33-5.5-26.12,3.75-48,28.57-56.68,52.45,0,0-.9,2.61-.9,2.61,0,0-2.42-1.27-2.42-1.27-20.41-10.13-40.57-28.04-64.81-22.92,0,0,1.11-1.14,1.11-1.14,0,0-.02.07-.02.07,0,0-.17.78-.17.78-16.61,5.35-28.35,19.01-41.1,30.25,0,0-.32-.34-.32-.34,11.94-12.09,23.24-26.22,39.66-32.44,0,0-.94,1.04-.94,1.04,0,0,0,.04,0,.04,0,0,1.11-1.14,1.11-1.14,24.84-6.4,46.62,11.34,67.64,21.59,0,0-3.32,1.34-3.32,1.34,8.94-25.87,32.4-51.7,60.65-55.32,9.67-1.16,19.74,1.27,27.91,6.52,0,0-2.17.06-2.17.06,18.56-12.44,38.32-23.44,59.61-30.44,80.55-26.38,124.94,26.24,148.11,97.34,0,0-2.22-1.05-2.22-1.05,8.23-2.92,16.6-6.06,25.42-6.84,0,0-.36,1.7-.36,1.7,0,.04-1.53-1.47-1.53-1.46,11.42-1.99,19.34,5.24,24.84,14.42,1.76,2.8,3.28,5.73,4.8,8.64,0,0-.4.23-.4.23h0Z" style="fill:#3abfee;"></path><path d="M2229.76,108.2c102.68.21,212.19,4.32,313.45,23.44-7.23-12.81-14.53-24.45-29.21-21.88,0,0,0,0,0,0-8.01,1.12-15.61,4.14-23.16,6.93-38.8-113.7-109.2-132.2-204.98-65.83-34.29-21.15-74.17,14.99-85.28,47.88-25.04-12.93-42.82-27.7-66.23-22.26,0,0,0,.01,0,.02-16.33,5.85-27.86,19.76-40,31.22,39.97,0,85.68.02,135.4.5Z" style="fill:#fff; fill-rule:evenodd;"></path><path d="M2543.01,131.76c-6.38-10.41-14.59-23.85-28.78-20.7,0,0-1.84.35-1.84.35,0,0,.31-1.83.31-1.84,0,0,1.48,1.48,1.48,1.48-7.79,1.27-15.21,4.31-22.75,7.24,0,0-1.61.63-1.61.63,0,0-.6-1.68-.6-1.68-23.9-67-65.31-125.11-144.23-96.59-21.25,7.66-40.61,19.66-59.03,32.57,0,0-1.13-.67-1.13-.67-7.59-4.57-16.53-6.67-25.33-5.5-26.12,3.75-48,28.57-56.68,52.45,0,0-.9,2.61-.9,2.61,0,0-2.42-1.27-2.42-1.27-20.41-10.13-40.57-28.04-64.81-22.92,0,0,1.11-1.14,1.11-1.14,0,0,0-.04,0-.04,0,0-.96,1.15-.96,1.15-16.24,5.52-27.78,18.93-40.34,30,0,0-.32-.34-.32-.34,11.94-12.09,23.24-26.22,39.66-32.44,0,0-.96,1.15-.96,1.15,0,0,.01-.07.01-.07,0,0,.16-.89.16-.89,0,0,.95-.24.95-.24,24.84-6.4,46.62,11.34,67.64,21.59,0,0-3.32,1.34-3.32,1.34,8.94-25.87,32.4-51.7,60.65-55.32,9.67-1.16,19.74,1.27,27.91,6.52,0,0-2.17.06-2.17.06,18.56-12.44,38.32-23.44,59.61-30.44,80.55-26.38,124.94,26.24,148.11,97.34,0,0-2.22-1.05-2.22-1.05,8.23-2.92,16.6-6.06,25.42-6.84,0,0-.36,1.7-.36,1.7,0,.04-1.53-1.47-1.53-1.46,11.42-1.99,19.34,5.24,24.84,14.42,1.76,2.8,3.28,5.73,4.8,8.64,0,0-.4.23-.4.23h0Z" style="fill:#3abfee;"></path><path d="M2105.58,447.64c84.57,5.02,167.73,12.58,257.2,20.53-14.91-15.66-33.16-24.75-51.42-13.36-4.23-36.53-12.19-70.94-47.71-83.54,0,0,0-.02,0-.02-21.12-10.06-50.46-7.43-67.23,4.75-13.49-52.7-62.98-67.82-114.51-57.49-52.57,10.7-66.05,53.86-67.83,100.61-30.23-28.03-37.64-27.61-48.84,9.38-31.07-29.61-84.74-56.91-91.7,1.24-15.63-23.98-32.47-65.43-60.78-47.69-13.33,11.65-21.66,37.31-19.25,52.93-14.77-1.7-21.53,6.38-25.75,20.34,89.26-15.17,232.65-13.94,337.82-7.68Z" style="fill:#fff; fill-rule:evenodd;"></path><path d="M2362.61,468.33c-14.46-14.51-33.43-24.67-52.24-11.42-1.14-9.07-2.45-18.14-4.45-27.01-5.41-25.17-17.21-48.05-42.96-56.71,0,0-.87-.31-.87-.31l-.33-.83s-.03-.07-.03-.07c0,0,1.02,1.11,1.02,1.11-5.1-2.41-10.61-4.01-16.21-4.94-16.63-2.63-34.95-.22-49.07,9.34,0,0-2.21,1.54-2.21,1.54-2.68-11.84-7.36-23.35-14.85-32.96-21.37-28.09-60.44-33.71-93.34-27.74-11.26,1.89-22.33,5.3-32.06,11.22-19.93,11.78-31.04,33.58-35.37,55.72-2.57,12.46-3.52,25.28-3.81,38.03,0,0-3.06-2.78-3.06-2.78-7.27-6.42-14.38-13.34-23.06-17.65-8.66-4.34-12.9,1.91-16.29,9.32-2.42,5.39-4.26,11.18-6.01,16.98l-1.07,3.53c-8.09-7.81-16.87-15.01-26.34-21.03-28.37-18.02-59.07-23.87-64.17,18.35,0,0-.86,6.25-.86,6.25,0,0-3.4-5.26-3.4-5.26-9.84-15.06-16.96-32.16-30.16-44.57-8.26-7.71-18.05-9.15-27.79-2.99-5.95,5.22-12.04,14.92-14.96,23.42-3.24,8.87-5.33,18.53-4.28,27.97,0,0,.15,1.17.15,1.17,0,0-1.13-.14-1.13-.14-14.47-2.08-21.33,6.67-25.42,19.52,0,0-.44-.13-.44-.13.83-2.93,1.82-5.84,3.16-8.61,4.4-9.61,12.58-13.7,22.91-12.55,0,0-.99,1.03-.99,1.03-1.48-9.85.49-19.79,3.61-29.12,3.3-9.38,8.06-18.43,15.52-25.27,6.4-4.36,15.04-6.28,22.45-3.25,18.45,7.34,30.47,35.1,41.28,51,0,0-4.26.99-4.26.99.68-5.17,1.67-10.36,3.48-15.38,3.71-10.67,11.87-19.31,23.56-20.69,24.3-2.75,51.69,17.58,68.54,33.45,0,0-3.77.99-3.77.99,3.34-9.58,8.27-30.49,20.91-30.67,10.57.02,23.77,13.75,31.42,20.56,0,0-3.19,1.32-3.19,1.32,1.26-33.86,10.29-73,41.94-91.03,15.1-8.94,32.68-12.01,49.93-13.04,28.62-1.79,60.02,6.01,78.6,29.31,7.42,9.11,12.47,19.98,15.53,31.26l-2.84-1.02c14.87-10.58,34.17-13.24,51.91-10.48,5.94,1,11.79,2.74,17.27,5.37,0,0,1.02,1.11,1.02,1.11,0,0-.01-.02-.01-.02,0,0-1.2-1.14-1.2-1.14,8.24,2.94,16.02,7.48,22.37,13.6,12.72,12.23,18.89,29.43,22.23,46.29,1.69,8.42,2.78,16.92,3.67,25.4l-1.89-.91c13.86-8.71,29.16-5.26,41.55,4.35,3.9,2.94,7.42,6.33,10.7,9.91l-.33.32h0Z" style="fill:#3abfee;"></path><path d="M270.02,539c-14.74-24.57-57.92-22.04-77.47-8.03-11.94-14-23.88-28-37.64-31.57-22.16-4.93-47.37,11.83-56.85,27.93-22.48-8.01-43.83-5.68-65.61,4.69-11.03-12.01-20.76-11.84-32.28-.41,102.05.61,205.14,5.99,309.36,14.87-13.15-8.28-25.62-13.46-39.51-7.49Z" style="fill:#fff; fill-rule:evenodd;"></path><path d="M309.4,546.69c-11.72-6.56-25.66-12.37-38.69-6.07,0,0-1.38.62-1.38.62,0,0-.82-1.33-.82-1.33-13.84-22.26-55.6-21.61-75.5-8.28,0,0-.62.42-.62.42l-.46-.55c-9.28-10.94-18.66-22.82-31.89-28.94-8.65-3.9-18.67-2.68-27.4.33-13.75,4.89-26.41,14.59-33.49,27.43-5.77-2.12-11.76-3.77-17.83-4.59-16.42-2.52-33.01,1.04-48.16,7.81,0,0-1.16.51-1.16.51,0,0-.79-.89-.79-.89-10.18-11.86-19.46-11.66-30.89-1.38,0,0-.33-.33-.33-.33,2.14-2.33,4.47-4.53,7.18-6.29,9.78-6.66,19.18-1.93,26.49,5.73,0,0-1.95-.38-1.95-.38,5.1-2.58,10.41-4.8,15.9-6.54,16.57-5.37,34.91-5.03,51.24,1.05,0,0-2.93,1.06-2.93,1.06,5.37-8.72,13.14-15.47,21.77-20.73,10.7-6.41,23.75-10.2,36.19-7.51,16.21,3.88,28.47,20.85,39.25,32.6,0,0-1.08-.13-1.08-.13,22.15-15.76,63.85-18.16,79.45,7.77,0,0-2.21-.71-2.21-.71,10.3-4.51,21.98-2.22,31.41,3.22,3.11,1.71,6.06,3.65,8.91,5.7l-.25.39h0Z" style="fill:#3abfee;"></path></g></svg>