<?xml version="1.0" encoding="UTF-8"?>
<svg xmlns="http://www.w3.org/2000/svg" xmlns:xlink="http://www.w3.org/1999/xlink" viewBox="0 0 215.5 249.88">
  <defs>
    <style>
      .cls-1 {
        fill: #f48322;
      }

      .cls-2, .cls-3 {
        fill: #a6d8d5;
      }

      .cls-2, .cls-4, .cls-5, .cls-6, .cls-7, .cls-8, .cls-9, .cls-10 {
        mix-blend-mode: multiply;
      }

      .cls-2, .cls-7 {
        opacity: .4;
      }

      .cls-11, .cls-12 {
        fill: #29150e;
      }

      .cls-13, .cls-7 {
        fill: #619993;
      }

      .cls-14 {
        fill: #ffd791;
      }

      .cls-15, .cls-16, .cls-17, .cls-12 {
        fill-rule: evenodd;
      }

      .cls-15, .cls-18 {
        fill: #27190f;
      }

      .cls-19, .cls-5 {
        fill: #2c2c2c;
      }

      .cls-20, .cls-9 {
        fill: #f7eede;
      }

      .cls-4 {
        opacity: .3;
      }

      .cls-5 {
        opacity: .5;
      }

      .cls-21, .cls-22 {
        mix-blend-mode: screen;
        opacity: .6;
      }

      .cls-21, .cls-23 {
        fill: #f1f1f1;
      }

      .cls-24, .cls-17 {
        fill: #fff;
      }

      .cls-25, .cls-8 {
        fill: #b1baba;
      }

      .cls-26 {
        fill: #e03026;
      }

      .cls-16 {
        fill: #231f20;
      }

      .cls-27 {
        fill: #e2a07a;
      }

      .cls-28 {
        fill: #e35e21;
      }

      .cls-29 {
        fill: url(#radial-gradient-5);
      }

      .cls-30 {
        fill: url(#radial-gradient);
      }

      .cls-31 {
        fill: url(#radial-gradient-3);
      }

      .cls-32 {
        fill: #f06b23;
      }

      .cls-33 {
        fill: #f5f6f6;
      }

      .cls-34 {
        fill: #f6931e;
      }

      .cls-35 {
        fill: #0a2949;
        opacity: .15;
      }

      .cls-6 {
        opacity: .4;
      }

      .cls-36 {
        isolation: isolate;
      }

      .cls-22 {
        fill: #f6a480;
      }

      .cls-37 {
        fill: #cacac9;
      }

      .cls-38 {
        fill: url(#radial-gradient-2);
      }

      .cls-39 {
        fill: #dae5e7;
      }

      .cls-40 {
        fill: #de5b26;
      }

      .cls-41 {
        fill: #b95423;
      }

      .cls-42 {
        fill: #ced9d9;
      }

      .cls-43 {
        fill: url(#radial-gradient-4);
      }

      .cls-44 {
        fill: #b32025;
      }

      .cls-45 {
        fill: #a9aaaa;
      }

      .cls-46 {
        fill: #e36725;
      }

      .cls-47 {
        fill: #eeba8c;
      }

      .cls-48 {
        fill: #d7d7e0;
      }

      .cls-49 {
        fill: #bebdbd;
      }

      .cls-50 {
        fill: #e4e4e3;
      }

      .cls-51 {
        fill: #e3a58c;
      }

      .cls-52 {
        fill: #d4d4d4;
      }

      .cls-53 {
        fill: #ffeecd;
      }

      .cls-54 {
        opacity: .1;
      }

      .cls-10 {
        fill: #eacd95;
        opacity: .7;
      }

      .cls-55 {
        stroke-width: .91px;
      }

      .cls-55, .cls-56 {
        fill: none;
        stroke: #27190f;
        stroke-linecap: round;
        stroke-linejoin: round;
      }

      .cls-57 {
        fill: #676767;
      }

      .cls-56 {
        stroke-width: .5px;
      }

      .cls-58 {
        fill: #ca5b1d;
      }

      .cls-59 {
        fill: #f89f1f;
      }
    </style>
    <radialGradient id="radial-gradient" cx="10098.63" cy="216.53" fx="10098.63" fy="216.53" r="6.92" gradientTransform="translate(10256.8) rotate(-180) scale(1 -1)" gradientUnits="userSpaceOnUse">
      <stop offset="0" stop-color="#ee9c77"/>
      <stop offset="1" stop-color="#dd7b59"/>
    </radialGradient>
    <radialGradient id="radial-gradient-2" cx="10124.44" cy="218.47" fx="10124.44" fy="218.47" r="5.92" xlink:href="#radial-gradient"/>
    <radialGradient id="radial-gradient-3" cx="5146.92" cy="-166.37" fx="5146.92" fy="-166.37" r="20.52" gradientTransform="translate(-4977.89 -64.51) rotate(3.07) scale(.99 1.03) skewX(.34)" gradientUnits="userSpaceOnUse">
      <stop offset="0" stop-color="#efb38d"/>
      <stop offset="1" stop-color="#eebe8c"/>
    </radialGradient>
    <radialGradient id="radial-gradient-4" cx="91.36" cy="132.63" fx="91.36" fy="132.63" r="9.86" gradientTransform="matrix(1,0,0,1,0,0)" xlink:href="#radial-gradient-3"/>
    <radialGradient id="radial-gradient-5" cx="150.25" cy="131.17" fx="150.25" fy="131.17" r="8.69" gradientTransform="matrix(1,0,0,1,0,0)" xlink:href="#radial-gradient-3"/>
  </defs>
  <g class="cls-36">
    <g id="Layer_2" data-name="Layer 2">
      <g id="Layer_3" data-name="Layer 3">
        <g>
          <path class="cls-35" d="M210.01,206.55c-4.51,5.4-14.16,4.45-16.49,5.37-2.33.92-11.42-1.33-13.98-1.14-.85.06-10.04,2.59-21.92,5.93,17.22,1.47,29.35,4.99,29.35,9.1,0,5.43-21.13,9.82-47.19,9.82-12.54,0-23.95-1.02-32.4-2.68-2.6-.51-5.27-.41-7.82.33h0s-5.52.72-11.12,5.83c-5.59,5.11-30.32,11.72-34.89,10.21-4.57-1.51-50.57-36.17-50.57-36.17l44.87-25.14,120.28-8.99,16.01,3.67s21.53,18.45,22.57,18.45c1.02-.02,7.81.02,3.29,5.42Z"/>
          <path class="cls-24" d="M94.97,3c11.05,0,20.63,4.95,24.24,13.13,3.76,8.55,3.16,20.74-1.42,30.26-3.31,6.88-1.92,10.89-.15,13.13.04.01.09.02.09.03.22.27.43.53.63.79.45.45.88.79,1.24,1.05,6.57,4.78,9.84,9.7,10.89,18.16.84,6.82,5.14,15.35,6.76,22.43.24,1.02.42,1.79.52,2.25.07.3.11.46.11.46,0,0-.02,0-.06,0-.06,0-.16,0-.32-.03-.15-.02-.37-.06-.64-.13l.14.51.27.97.62,2.24s.06.08.16.21c.4.51,1.61,1.97,4.04,4.4,14.85,1.66,39.17,5.35,54.5,10.41,5.58,1.84,9.97,3.85,12.25,6.02.66.64,1.16,1.28,1.45,1.92.6,1.32,1.06,3.29,1.41,5.77.72,5.3.89,12.93.76,21.22-.23,16.44-1.63,35.55-2.07,44.76-5.59,4.88-12.08,6.68-18,6.8,0,.19,0,.37-.02.54-3.12-2.83-7.76-3.93-11.23-6.04-.04.37-.12.75-.19,1.14-1.22.38-2.81.87-4.72,1.44-.01,1.1-.12,1.83-.36,2.08-.02.02-.04.06-.07.07-.02,0-.05.02-.07.03-.05.02-.09.05-.15.07-.06.02-.13.05-.2.08-.04.02-.08.03-.13.05-.09.03-.2.07-.3.1-.04.01-.08.03-.13.04-.12.04-.26.08-.4.12-.04.01-.08.02-.12.04-.16.05-.33.1-.51.15-.03,0-.06.02-.09.03-.2.06-.41.11-.64.17-.01,0-.03,0-.04.01-1.48.4-3.46.88-5.81,1.42-.01,0-.02,0-.03,0-.32.07-.65.15-.98.22-.11.02-.21.05-.32.07-.29.06-.58.13-.87.19-.17.04-.34.07-.51.11-.12.03-.24.05-.37.08.24.54.58,1.09.96,1.59.97-.32,1.85-.52,2.57-.52.13,0,.25,0,.36.02.29.54.63,1.01.99,1.45.03,0,.07,0,.1,0,.08.1.16.19.24.29,0,0-.02,0-.03,0-.02,0-.04,0-.06,0,0,0-.01,0-.02,0,3.61,4.02,10.11,4.2,11.46,9.97l.36.2v2.05c-1.64,1.41-5.32,2-9.15,2-4.02,0-8.2-.66-10.33-1.72-2.03-.7-11.06-3.26-11.88-3.68-1.26-.44-1.18-1.63-1.12-2.72v-.64s.01.01.01.02c0-.13,0-.26-.01-.38l.23-.13s.01-.57.3-.57c.05,0,.11.02.18.06.09.06.3.16.57.28-.18-1.08-.17-2.25-.02-3.35-.44-.52-.76-.96-.89-1.24-1.04.19-2.09.37-3.15.55-2.28.64-4.64,1.3-7.06,1.98v.54c1.4.37,1.61,1.45,1.78,2.55,0,0,0,0,0,0,0,.06.01.11.02.17.04.27.09.54.15.8.61,1.83,5.82,5.49,5.28,7.54.39.61.57,1.16.66,1.7,0,0,.02,0,.03-.01.06.14.04.47.04.72.01.51-.02,1.04-.03,1.63-2.8,1.36-8.61,1.45-11.41,1.45-.46,0-.85,0-1.12,0-.03,0-.06,0-.1,0-5.85,0-9.62-4.66-8.85-9.98l.46-.3c.01-.08.05-.16.06-.24-.1-.54-.17-1.32-.18-2.39-.02-.15-.04-.31-.05-.47-12.77,3.56-26.83,7.46-41.4,11.48-.02.33-.04.66-.06.95-.06,1.61-.12,2.96-.14,4.01-7.32,6.83-21.99,9.04-30.16,9.23-14.63-9.91-47.32-31.59-50.74-33.74l1.67-45.37.5-34.07,5.69-1.02c-1.06-3.89-3.27-10.11-4.05-12.86-1.1-3.52-2.56-6.93-3.81-10.3.64-3.74,3.43-7.08,6.47-9.8,2.67-2.17,8.29-6.78,11.67-7.49,4.34-1.53,9.74-1.76,12.6-2.17,5.2-.76,10.73-1.64,16.44-2.54.37-.84.75-1.79,1.13-2.83,1.97-5.37,8.55-15.58,10.31-19.03.65-1.28,3.27-2.37,4.26-3.22h0c1.58-1.37,3.15-2.7,3.34-2.79h.02c1.25-1.24,4.84-6.83,2.87-11.16-.87-1.92-1.99-5.31-2.54-9.72-.69-5.54-.49-12.65,2.21-20.4,4.86-13.93,20.72-15.31,21.63-15.34.52-.02,1.03-.03,1.55-.03M94.97,0h0c-.55,0-1.12.01-1.67.03-.16,0-18.66,1.09-24.34,17.35-2.44,7-3.25,14.53-2.36,21.76.7,5.56,2.18,9.26,2.78,10.59,1.15,2.52-1.18,6.54-2.11,7.62-.49.37-1.4,1.12-3.35,2.81-.02.02-.03.03-.05.05-.21.15-.69.44-1.02.64-1.45.87-3.08,1.85-3.9,3.44-.53,1.03-1.58,2.82-2.8,4.9-2.77,4.71-6.23,10.57-7.65,14.46-.14.39-.29.77-.44,1.16l-.91.14c-4.85.77-9.43,1.49-13.83,2.13-.62.09-1.41.17-2.32.27-3,.32-7.09.75-10.68,1.98-3.68.88-8.4,4.53-12.55,7.9l-.19.15s-.07.06-.11.09c-4.33,3.86-6.76,7.63-7.43,11.53-.09.52-.04,1.06.15,1.56.4,1.06.81,2.12,1.23,3.19.88,2.26,1.79,4.6,2.52,6.92.36,1.26.95,3.08,1.64,5.18.48,1.45.99,3,1.45,4.46l-2.39.43c-1.41.25-2.45,1.47-2.47,2.91l-.5,34.04L0,213.03c-.04,1.07.5,2.08,1.4,2.65,3.47,2.17,36.29,23.94,50.65,33.68.5.34,1.08.52,1.68.52.02,0,.05,0,.07,0,10.12-.24,24.61-3.01,32.14-10.04.59-.55.94-1.32.95-2.14.01-.75.05-1.65.09-2.7,12.8-3.54,24.59-6.81,35.14-9.74-.18,3.07.8,6.05,2.76,8.31,2.24,2.59,5.5,4.02,9.17,4.02h.12s.37,0,.37,0h.72c6.21,0,10.25-.56,12.72-1.75,1.02-.49,1.68-1.52,1.69-2.66,0-.2,0-.39.02-.57.01-.35.02-.7.02-1.08.02-.48.02-1.1-.21-1.75-.11-.48-.28-.95-.49-1.4-.06-.71-.3-1.39-.65-2.05.07.03.13.05.2.08.7.3,2.22.78,7.03,2.21,1.95.58,3.95,1.18,4.85,1.47,3.02,1.42,7.88,1.93,11.46,1.93s8.47-.47,11.1-2.72c.66-.57,1.05-1.4,1.05-2.28v-2.05c0-.75-.28-1.46-.77-2.01-1.41-4.03-4.79-5.82-7.55-7.28-1.44-.76-2.8-1.48-3.83-2.43.69-.17,1.31-.33,1.87-.48.27-.07.49-.13.7-.19l.07-.02c.22-.06.41-.12.58-.17l.09-.03c.2-.06.36-.11.5-.15l.13-.04c.15-.05.28-.09.39-.13l.15-.06s.07-.03.07-.03c.1-.04.19-.07.27-.1.12-.05.21-.09.29-.14.09-.04.17-.08.23-.12.34-.2.6-.42.84-.69.46-.5.74-1.09.9-1.78,1.09-.33,2.04-.62,2.84-.87.09-.03.18-.06.27-.1.75.35,1.5.68,2.24,1.01,2.29,1,4.46,1.95,6,3.35.56.51,1.28.78,2.02.78.36,0,.72-.06,1.06-.19.28-.11.54-.25.77-.43,6.86-.49,13.11-3.05,18.16-7.45.62-.54.99-1.3,1.02-2.12.12-2.44.3-5.58.52-9.22.59-9.93,1.39-23.53,1.56-35.65.15-9.39-.11-16.68-.78-21.66-.41-2.91-.95-5.07-1.66-6.61-.43-.95-1.12-1.88-2.09-2.82-2.5-2.37-6.88-4.56-13.4-6.72-14.52-4.79-37.23-8.5-54.05-10.42-1.54-1.57-2.44-2.62-2.86-3.13l-.17-.62c.4-.66.54-1.46.36-2.22,0,0-.04-.18-.12-.5l-.03-.11c-.11-.47-.27-1.19-.49-2.12-.74-3.21-1.99-6.67-3.19-10.03-1.51-4.2-3.07-8.53-3.51-12.09-1.1-8.92-4.6-14.77-12.1-20.22-.28-.2-.53-.41-.76-.63-.17-.22-.35-.44-.54-.67-.01-.01-.02-.03-.03-.04-.09-.1-.18-.2-.27-.28-1.51-2.24-1.26-5.48.74-9.64,4.96-10.31,5.55-23.48,1.46-32.77C117.96,5.86,107.37,0,94.97,0h0ZM143.35,219.33c.85-.24,1.7-.48,2.53-.71-.22.45-.32.96-.29,1.48,0,.06,0,.12,0,.18v.56c-.02.44-.06,1.21.1,2.06-.17-.18-.34-.35-.5-.52-.54-.56-1.32-1.37-1.61-1.79-.01-.07-.03-.15-.04-.24v-.03s-.02-.1-.02-.1c-.01-.09-.03-.18-.05-.27-.03-.18-.07-.38-.12-.61h0Z"/>
          <g>
            <path class="cls-28" d="M9.47,99.73c2.67-2.17,8.29-6.78,11.67-7.49-.17.06-.35.12-.5.17-2.67,1.03-4.86,2.59-5.65,5.11,3.19,3.16,5.88,7.84,8.15,13.3,2.56,6.1,4.53,13.13,6.08,20.04-.68-.16-1.32-.29-1.88-.41-1.22-.21-2.21-.31-2.89-.25l-13.59,2.48c-1.06-3.89-3.27-10.11-4.05-12.86-1.1-3.52-2.56-6.93-3.81-10.3.64-3.74,3.43-7.08,6.47-9.8Z"/>
            <path class="cls-34" d="M123.52,91.83c-22.21-4.72-70.35,15.62-83.27,42.3-1.38-.47-2.71-.91-3.97-1.3-3.14-16.9-8.73-37.85-15.64-40.42.16-.06.33-.12.5-.17,4.34-1.53,9.74-1.76,12.6-2.17,23.52-3.43,53.45-9.41,78.17-7.84,7.76.17,8.27,2.79,11.6,9.6Z"/>
            <path class="cls-34" d="M211.7,136.98c.72,5.3.89,12.93.76,21.22-2.13,14.02-10.16,29.7-19.5,38.51.79-16.65,1.9-42.32,1.07-55.41l17.68-4.32Z"/>
            <path class="cls-34" d="M212.46,158.19c-.23,16.44-1.63,35.55-2.07,44.76-5.59,4.88-12.08,6.68-18,6.8.1-2.71.33-7.36.58-13.05,9.33-8.81,17.37-24.49,19.5-38.51Z"/>
            <path class="cls-34" d="M150.27,122.05c12.39-4.69,35.47-.89,46.14,2.01l.17-.79c5.58,1.84,9.97,3.85,12.25,6.02l-16.88,3.48c-4.39-2.86-25.75-7.55-41.68-10.72Z"/>
            <path class="cls-59" d="M191.95,132.77l16.88-3.48c.66.64,1.16,1.28,1.45,1.92.6,1.32,1.06,3.29,1.41,5.77l-17.68,4.32c-.25-4.26-.72-7.2-1.47-8.05-.14-.16-.33-.31-.6-.47Z"/>
            <path class="cls-28" d="M192.36,210.29c-3.12-2.83-7.76-3.93-11.23-6.04,1.8-10.88,1.51-23.87,1.82-35.66,1.63-.93,2.58-1.78,2.77-2.56.12-3.79,1.12-12.72.04-15.28.08-.04.13-.06.21-.08-7.03-6.27-19.44-8.98-28.79-11.15-6.64-2.03-13.72-2.92-20.5-3.27-.15-5.94-1.92-11.87-3.87-17.6,2.03.37,8.98,1.67,17.46,3.39,15.93,3.17,37.29,7.86,41.68,10.72.27.16.47.31.6.47.75.85,1.22,3.79,1.47,8.05.83,13.09-.27,38.76-1.07,55.41-.25,5.69-.48,10.34-.58,13.05,0,.19,0,.37-.02.54Z"/>
            <path class="cls-1" d="M84.99,171.15c30.72-4.55,92.33-16.73,100.77-20.39,1.08,2.56.08,11.48-.04,15.28-.19.78-1.14,1.63-2.77,2.56-13.18,7.53-70.47,19.21-97.38,21.9.02-6.33-.1-12.51-.47-17.95-.04-.48-.08-.93-.12-1.39Z"/>
            <path class="cls-58" d="M143.86,193.12c8.17,2.01,13.55,10.28,17.04,18.14-18.64,5.3-46.68,13.1-76.8,21.43.19-4.55.52-10.78.83-17.81.19-4.61.39-9.54.5-14.52,1.16-.31,2.34-.62,3.5-.91,15.53-4.22,38.8-11.27,54.92-6.33Z"/>
            <path class="cls-32" d="M157.18,139.53c9.35,2.17,21.76,4.88,28.79,11.15-.08.02-.13.04-.21.08-8.44,3.66-70.04,15.84-100.77,20.39-.19-2.46-.45-4.74-.75-6.8-.7-4.67-1.74-8.17-3.21-9.95-.12-.13-.27-.29-.41-.44-1.72-1.74-4.57-3.72-8.13-5.75-1.28-.72-2.65-1.45-4.07-2.19,7.24-1.39,13.98-2.5,18.1-3.41,14.35-3.23,28.61-6,43.04-6.56h.1c2.27.02,4.63.1,7.03.21,6.78.35,13.86,1.24,20.5,3.27Z"/>
            <path class="cls-41" d="M182.95,168.59c-.31,11.79-.02,24.78-1.82,35.66-.04.37-.12.75-.19,1.14-3.7,1.16-10.69,3.21-20.04,5.87-3.48-7.86-8.87-16.13-17.04-18.14-16.13-4.94-39.4,2.11-54.92,6.33-1.16.29-2.34.6-3.5.91.04-2.02.08-4.03.12-6.06,0-1.28,0-2.54.02-3.81,26.91-2.69,84.2-14.37,97.38-21.9Z"/>
            <path class="cls-1" d="M130.41,111.89c.78,2.23,1.61,4.49,2.4,6.78,1.96,5.73,3.72,11.66,3.87,17.6-2.4-.12-4.76-.19-7.03-.21h-.1c-14.42.56-28.69,3.33-43.04,6.56-4.12.91-10.86,2.01-18.1,3.41-6.08-3.16-13.36-6.35-20.33-9.02-1.37-.52-2.75-1.05-4.1-1.53-1.28-.46-2.52-.91-3.74-1.33,12.91-26.68,61.06-47.03,83.27-42.3.08.11.14.25.19.37,2.19,4.9,3.85,11.4,5.54,16.26.37,1.14.75,2.28,1.16,3.43Z"/>
            <path class="cls-32" d="M196.58,123.27l-.17.79c-10.67-2.91-33.74-6.7-46.14-2.01-8.48-1.72-15.43-3.02-17.46-3.39-.79-2.28-1.63-4.55-2.4-6.78,7.26.08,45.17,4.45,66.17,11.38Z"/>
            <g>
              <g>
                <path class="cls-30" d="M151.35,212.3l12.59-.71c.55,1.68,2.68,3.77,2.68,3.77l-7.77,6.11-8.56-.39c-1.16-2.81-.36-7.23,1.06-8.78Z"/>
                <path class="cls-55" d="M151.35,212.3l12.59-.71c.55,1.68,2.68,3.77,2.68,3.77l-7.77,6.11-8.56-.39c-1.16-2.81-.36-7.23,1.06-8.78Z"/>
                <path class="cls-39" d="M148.58,219.92c.14,1.25-.55,3.14,1.12,3.71.82.42,9.85,2.98,11.88,3.68,4.15,2.07,16.11,2.6,19.47-.28v-2.05s-.36-.2-.36-.2c-1.53-6.5-9.61-5.9-12.69-11.71-3.74-.4-13.11,5.68-15.03,7.77,0,0-3.2-1.28-3.67-1.57-.47-.29-.48.51-.48.51l-.23.13Z"/>
                <path class="cls-55" d="M148.58,219.92c.14,1.25-.55,3.14,1.12,3.71.82.42,9.85,2.98,11.88,3.68,4.15,2.07,16.11,2.6,19.47-.28v-2.05s-.36-.2-.36-.2c-1.53-6.5-9.61-5.9-12.69-11.71-3.74-.4-13.11,5.68-15.03,7.77,0,0-3.2-1.28-3.67-1.57-.47-.29-.48.51-.48.51l-.23.13Z"/>
                <path class="cls-18" d="M155.74,221.42c3.5-2.27,9.31-6.92,13.59-6.61-.08-.1-.16-.2-.24-.29-4.1.06-10.39,3.99-13.35,6.9Z"/>
                <path class="cls-18" d="M148.58,220.28v1.23c.44.52,1.73,1.01,3.08,1.4,7.98,2.54,20.92,7.14,29.39,3.16v-.96c-8.32,4.2-21.23-.54-29.14-3.01-1.76-.48-2.66-.92-3.33-1.81Z"/>
                <path class="cls-39" d="M156.06,220.89c-.67,1.7-7.99-6.15-7.11-6.23.3-.65.95-.77,2.83,1.03,3.17,3.04,5.08,4.4,4.28,5.2Z"/>
                <path class="cls-55" d="M156.06,220.89c-.67,1.7-7.99-6.15-7.11-6.23.3-.65.95-.77,2.83,1.03,3.17,3.04,5.08,4.4,4.28,5.2Z"/>
                <path class="cls-18" d="M154.83,220.1c0,.56.87.56.86,0,0-.56-.87-.56-.86,0Z"/>
              </g>
              <g>
                <polygon class="cls-38" points="125.98 223.89 138.75 223.89 138.75 216.44 126.25 213.05 125.98 223.89"/>
                <polygon class="cls-55" points="125.98 223.89 138.75 223.89 138.75 216.44 126.25 213.05 125.98 223.89"/>
                <path class="cls-39" d="M125.21,224.61c-.78,5.35,3.03,10.03,8.94,9.98,1.9,0,9.26.13,12.53-1.45.02-1.48.23-2.6-.69-4.04.54-2.05-4.67-5.7-5.28-7.53-.39-1.59-.06-3.57-2.98-3.66-2.63-.15-11.28,1.43-12.06,6.4l-.46.3Z"/>
                <path class="cls-55" d="M125.21,224.61c-.78,5.35,3.03,10.03,8.94,9.98,1.9,0,9.26.13,12.53-1.45.02-1.48.23-2.6-.69-4.04.54-2.05-4.67-5.7-5.28-7.53-.39-1.59-.06-3.57-2.98-3.66-2.63-.15-11.28,1.43-12.06,6.4l-.46.3Z"/>
                <path class="cls-18" d="M125.21,225.81c.75,9.29,15.11,8.24,21.49,5.93,0-.19.05-.76-.03-.95-3.32,1.88-8.53,1.87-12.21,1.63-4.51-.01-7.96-2.1-9.25-6.6Z"/>
                <path class="cls-18" d="M126.25,224.91c4.41-5.04,10.93-6.35,14.33-3.92-.01-.12-.03-.25-.05-.39-2.95-2.09-10.84-1.23-14.29,4.31Z"/>
                <path class="cls-39" d="M126.22,220.69c1.01,4.68-.63,6.33-.66.99-.31-2.44.02-5.91.66-.99Z"/>
                <path class="cls-55" d="M126.22,220.69c1.01,4.68-.63,6.33-.66.99-.31-2.44.02-5.91.66-.99Z"/>
                <path class="cls-18" d="M125.98,223.89c0,.55.24.55.24,0,0-.55-.24-.55-.24,0Z"/>
              </g>
              <path class="cls-19" d="M175.79,208.98c-.94.54-7.62,2.2-16.35,3.99-4.07.83-8.58,1.69-13.17,2.48-3.31.57-6.66,1.09-9.9,1.54-17.39,2.41-23.08-1.52-23.08-1.52,0,0-.67-.01-1.68-.05-2.88-.13-8.54-.54-9.14-1.79-.81-1.68,1.04-41.58,1.04-41.58,0,0-2.24-5.13-3.53-5.77-1.28-.64-13.63-4.64-13.63-4.64l-1.16-1.3-4.85-5.44,1.93-3.77,4.08-5.28s.89-1.55,1.93-3c.48-.67.99-1.31,1.45-1.77.14-.14.27-.25.39-.35,1.53-1.21,16.91-9.86,18.41-10.9.78-.54,6.77.3,12.38,1.22-.53,1.12-.31,2.62.65,3.42.42.35.97.56,1.67.56,5.53-.02,10.83.72,16.3,1.37,2.63.31,5.26.57,7.88.91,2.42.31,5.51-.02,7.77.85.66.26,1.24.24,1.73.05.89.31,1.75.62,2.56.95,2.36.97,4.31,2.05,5.5,3.23,7.13,7.05,6.71,29.33,7.75,36.7,1.04,7.37,4.73,28.93,3.05,29.89Z"/>
              <path class="cls-5" d="M164.81,151.41s-6.42-.95-9.98-.51-14.18.98-14.87,2.42c-.67,1.38,3.88,6.62,4.22,7.02-.5-.39-8.43-6.73-9.88-7.02-1.5-.29-7.77-.97-13.17,1.3-5.4,2.27-7.78,7.63-10.44,12.02-2.67,4.4-2.52,38.93-1.18,43.48.55,1.84,1.38,3.72,2.11,5.31-2.88-.13-8.54-.54-9.14-1.79-.81-1.68,1.04-41.58,1.04-41.58,0,0-2.24-5.13-3.53-5.77-1.28-.64-13.63-4.64-13.63-4.64l-1.16-1.3c.38-1.63.95-3.74,1.57-4.6,1.05-1.48,5.48-5.44,5.48-5.44,0,0,3.07-2.66,8.88-3.16,5.8-.5,12.45,3.2,12.45,3.2-1.02-.5-10.29,3.74-12.88,6.4-2.59,2.67,5.43,8.48,5.43,8.48,0,0,.47-3.92,3.37-6.59l8.56-10.03,1.7-3.26s-3.73-3.26-4.38-2.67c-.49.45-18.65.28-27.09.17-2.57-.03-4.24-.05-4.24-.05l5.7-1.72,1.62-.49,14.76-3.88s9.62-1.77,15.45-2.23c.42.35.97.56,1.67.56,5.53-.02,10.83.72,16.3,1.37,2.63.31,5.26.57,7.88.91,2.42.31,5.51-.02,7.77.85.66.26,1.24.24,1.73.05.89.31,1.75.62,2.56.95-.07,1.09-.09,2.19.06,2.86.38,1.75,5.26,9.4,5.26,9.4Z"/>
              <path class="cls-56" d="M172.74,179.09c-1.04-7.37-.62-29.65-7.75-36.7-1.6-1.59-4.55-2.98-8.06-4.18-.49.19-1.07.21-1.73-.05-2.26-.88-5.36-.54-7.77-.85-2.62-.34-5.25-.6-7.88-.92-5.47-.65-10.78-1.39-16.3-1.37-2.32,0-3.09-2.38-2.33-3.98-5.61-.93-11.6-1.77-12.38-1.22-1.5,1.04-16.89,9.7-18.41,10.9-1.52,1.2-3.77,5.13-3.77,5.13l-4.08,5.29-1.92,3.77,6.01,6.74s12.34,3.99,13.63,4.63,3.53,5.77,3.53,5.77c0,0-1.84,39.9-1.04,41.59.8,1.68,10.82,1.84,10.82,1.84,0,0,5.69,3.93,23.08,1.52,17.39-2.4,37.74-7.05,39.42-8.01,1.68-.96-2-22.52-3.04-29.89Z"/>
              <path class="cls-27" d="M101.67,49.24c.02.52,1.1,1.54,1.98,1.53,1.02-.01,1.75-1.36,1.71-1.88-.02-.21-.83,0-1.85.11-1.02.1-1.85-.03-1.84.24Z"/>
              <path class="cls-3" d="M158.03,138.22s-28.11,4.72-48.11,6.63c-.39.04-.78.08-1.17.11-20.06,1.83-19.98,17.48-19.98,17.48,0,0-3.33-.17-11.82-3.16-8.49-3-13.57-5.16-13.48-12.4.08-7.24,3.74-27.63,2.5-36.96-.54-4.05-2.67-9.47-4.71-15.02-2.67-7.24-5.19-14.71-3.87-19.61.36-1.32.86-2.57,1.45-3.74,3.29-6.5,9.44-10.53,9.71-10.66,11.38-5.66,48.89-1.7,49.18-1.34,4.48,5.5,4.42,7.49,4.59,21.06.17,13.57-1.41,22.97-1.24,24.97.05.69-.2,2.34-.5,4.4-.33,2.23-.71,4.94-.83,7.47-.08,1.87-.02,3.64.33,5.03,1.25,4.99,4.74,7.41,8.41,9.41,3.66,2,29.55,6.33,29.55,6.33Z"/>
              <path class="cls-2" d="M120.57,109.99c-.33,2.23-.71,4.94-.83,7.47-1.1-.61-2.57-1.22-4.15-1.31-3.22-.19-9.47.98-17.14.19-7.66-.78-24.85-9.37-24.85-9.37-2.63,1.46-2.73,2.54-3.81,4.98-1.08,2.44-4.39,28-4,32.55.39,4.55,17.09,11.87,20.11,11.68,3.03-.19,4.43-14.26,4.12-14.45-.31-.19-5.58-.54-8.12-1.39-2.54-.85-13.47-3.79-13.08-5.64.39-1.85,1.66-6.67,2.93-6.56,1.27.12,4.78.47,7.23,0,2.44-.47,13.05,6.2,13.36,6.43.31.23,9.47,5.07,9.47,5.07,0,0,6.37,4.31,8.11,5.21-.39.04-.78.08-1.17.11-20.06,1.83-19.98,17.48-19.98,17.48,0,0-3.33-.17-11.82-3.16-8.49-3-13.57-5.16-13.48-12.4.08-7.24,3.74-27.63,2.5-36.96-.54-4.05-2.67-9.47-4.71-15.02.87-1.31,1.51-2.28,1.71-2.57.78-1.17,2.15-3.98,5.27-4.48,3.13-.5,8.6,2.02,12.6,2.66,4,.65,21.38,9.93,21.38,9.93,0,0,18.07,9.45,18.35,9.55Z"/>
              <path class="cls-56" d="M68.55,60.89c-.26.13-6.41,4.16-9.71,10.66-.59,1.17-1.09,2.42-1.45,3.74-2.33,8.66,7.33,25.31,8.57,34.63,1.25,9.32-2.41,29.72-2.5,36.96-.08,7.24,4.99,9.41,13.49,12.4,8.49,3,11.82,3.16,11.82,3.16,0,0-.08-15.65,19.98-17.48,20.06-1.83,49.28-6.74,49.28-6.74,0,0-25.89-4.33-29.55-6.33-3.66-2-7.16-4.41-8.41-9.41-1.25-4.99,1.17-14.9,1-16.9-.17-2,1.42-11.4,1.25-24.97-.17-13.57-.11-15.57-4.59-21.06-.3-.36-37.8-4.33-49.18,1.33Z"/>
              <g>
                <path class="cls-10" d="M127.5,152.07s-15.43-1.27-29.84,2.5c0,0-3.94.91-6.12.81l-1.82-21.72,56.46-3.28,16.04,18.75s-3.38-.38-6.02-.54c-7.91-.49-20.37.47-27.91,3.38,0,0-.18.04-.8.1Z"/>
                <path class="cls-57" d="M159.23,147.34l-14.01-15.98-1.39.06c-3.44-.37-6.74-1.44-13.56-1.5-6.81-.06-10.11,1.37-10.11,1.37h0c-2.62-1.37-11.53-1.34-16.87.31-5.96,1.85-10.92,1.91-12.63,1.86l-.05-.42-.24-.17-.36.56,1.93,21.71s0,0,0,0h0s0,0,0,0c0,0,0,0,0,0,0,0,.02,0,.04,0,0,0,0,0,0,0,0,0,.02,0,.03,0,0,0,0,0,0,0,0,0,.02,0,.03,0,0,0,0,0,.01,0,0,0,.02,0,.03,0,0,0,.01,0,.02,0,0,0,.02,0,.03,0,0,0,.01,0,.02,0,0,0,.02,0,.03,0,0,0,.02,0,.02,0,.01,0,.02,0,.03,0,0,0,.01,0,.02,0,.01,0,.02,0,.04,0,0,0,.02,0,.03,0,.01,0,.03,0,.04,0,0,0,.02,0,.03,0,.01,0,.03,0,.04,0,.01,0,.02,0,.04,0,.02,0,.03,0,.05,0,.01,0,.02,0,.03,0,.02,0,.03,0,.05,0,.01,0,.03,0,.04,0,.02,0,.03,0,.05,0,.01,0,.03,0,.04,0,.02,0,.04,0,.06,0,.01,0,.03,0,.05,0,.02,0,.04,0,.06,0,.02,0,.03,0,.05,0,.02,0,.04,0,.07,0,.02,0,.03,0,.05,0,.02,0,.05,0,.07,0,.02,0,.04,0,.05,0,.02,0,.05,0,.08,0,.02,0,.04,0,.06,0,.03,0,.05,0,.08,0,.02,0,.04,0,.06,0,.03,0,.05,0,.08-.01.02,0,.04,0,.06,0,.03,0,.06,0,.09-.01.02,0,.04,0,.07,0,.03,0,.06,0,.09-.01.02,0,.05,0,.07,0,.03,0,.07,0,.1-.01.02,0,.05,0,.07-.01.04,0,.07-.01.11-.02.02,0,.04,0,.07-.01.04,0,.08-.01.12-.02.02,0,.05,0,.07-.01.04,0,.09-.01.13-.02.02,0,.04,0,.06-.01.04,0,.09-.01.13-.02.03,0,.05,0,.08-.01.05,0,.09-.02.14-.02.03,0,.05,0,.08-.01.05,0,.1-.02.16-.03.02,0,.05,0,.07-.01.15-.03.31-.06.48-.09.02,0,.03,0,.05,0,.07-.01.14-.03.21-.04.03,0,.06-.01.09-.02.06-.01.12-.02.18-.04.03,0,.06-.01.09-.02.06-.01.12-.03.19-.04.03,0,.07-.01.1-.02.06-.01.12-.02.18-.04.04,0,.08-.02.12-.02.06-.01.12-.02.17-.04.04,0,.09-.02.14-.03.05-.01.11-.02.17-.04.05-.01.1-.02.15-.03.06-.01.11-.03.17-.04.05-.01.09-.02.14-.03.06-.01.13-.03.19-.04.05-.01.1-.02.14-.03.06-.01.12-.03.19-.04.05-.01.11-.02.16-.04.06-.01.12-.03.19-.04.05-.01.11-.03.16-.04.06-.02.13-.03.19-.05.06-.01.12-.03.18-.04.06-.02.13-.03.19-.05.06-.01.12-.03.18-.04.07-.02.14-.03.2-.05.06-.02.12-.03.18-.05.07-.02.14-.03.21-.05.06-.02.13-.03.19-.05.07-.02.15-.04.22-.06.06-.02.13-.03.19-.05.08-.02.15-.04.23-.06.07-.02.13-.03.2-.05.08-.02.15-.04.23-.06.07-.02.13-.03.2-.05.08-.02.16-.04.25-.07.07-.02.13-.04.2-.05.08-.02.17-.05.25-.07.07-.02.14-.04.21-.06.08-.02.17-.05.25-.07.07-.02.15-.04.22-.06.09-.02.17-.05.26-.07.07-.02.15-.04.22-.06.09-.03.18-.05.28-.08.07-.02.15-.04.22-.06.1-.03.19-.06.29-.08.07-.02.15-.04.22-.06.1-.03.2-.06.29-.08.08-.02.15-.04.23-.07.1-.03.2-.06.3-.09.08-.02.15-.05.23-.07.11-.03.22-.06.32-.1.08-.02.15-.04.23-.07.11-.03.22-.07.33-.1.08-.02.15-.05.23-.07.14-.04.29-.09.43-.13.05-.01.09-.03.14-.04.2-.06.39-.12.59-.18,10.76-3.28,18.95.29,19.44.54.02,0,.03.01.05.02h0c.16.03.32.01.46-.07.01,0,.02-.02.03-.03.76-.64,3.36-2.38,7.34-3.49,1.27-.35,2.58-.64,3.89-.84,5-.79,10.47-.42,15.45.39,3.44.56,5.2.56,5.2.56v-.56l-.64-.69Z"/>
                <g>
                  <path class="cls-49" d="M120.21,130.98c-2.6-1.35-11.43-1.33-16.71.31-5.9,1.83-10.82,1.89-12.51,1.84l-.05-.42-.23-.17-.35.56,1.91,21.5s3.05.32,15.89-3.6c10.89-3.32,19.37.59,19.53.7l-7.48-20.72Z"/>
                  <path class="cls-45" d="M105.55,148.85c-3.78,1.44-7.56,2.42-11.38,3.09-.95,1.35-1.62,2.3-1.89,2.66.2.02,3.45.19,15.88-3.6,10.89-3.32,19.37.59,19.53.7l-1.23-3.4c-6.94-1.05-14.28-2.11-20.92.55Z"/>
                  <path class="cls-45" d="M158.75,147.18l-13.72-16.13-1.38.06c-3.41-.37-6.68-1.42-13.43-1.48-6.75-.06-9.87,1.55-9.87,1.55l7.34,20.53c.41-.43,3.23-2.49,7.54-3.69,1.26-.35,2.55-.63,3.86-.84,4.95-.78,10.38-.42,15.3.38,3.41.56,5.15.56,5.15.56v-.56l-.8-.38Z"/>
                </g>
                <path class="cls-52" d="M120.08,131.44s3.43-2.43,10.18-2.37c6.75.06,10.02,1.11,13.43,1.48l1.38-.06,14.52,17.07s-1.74,0-5.15-.56c-1.88-.31-3.78-.44-5.67-.62-1.76-.17-3.54-.21-5.31-.12-3.54.17-7.05.83-10.34,1.96-1.04.36-4.78,2.54-5.48,3.19-.64-1.49-1.39-3.47-1.89-4.81-.91-2.44-1.82-4.87-2.73-7.31-.78-2.1-1.57-4.2-2.35-6.31-.04-.11-.67-1.48-.58-1.55Z"/>
                <path class="cls-52" d="M120.04,130.51c-2.6-1.35-10.9-1.42-16.19.22-7.33,2.28-13.14,1.81-13.14,1.81l1.91,21.5s3.05.32,15.89-3.6c10.89-3.32,18.96.86,19.12.96l-7.59-20.9Z"/>
                <path class="cls-33" d="M120.04,130.51c-2.6-1.35-10.25-2.16-15.54-.52-7.33,2.28-13.14,1.81-13.14,1.81l1.91,21.5s3.05.32,15.89-3.6c10.89-3.32,18.3,1.6,18.46,1.7l-7.59-20.9Z"/>
                <path class="cls-33" d="M120.04,130.51s3.43-2.43,10.18-2.37c2.52.02,5.01.29,7.5.56,2.44.27,4.83,1.01,7.32.88,2.04,2.38,4.07,4.77,6.1,7.16,2.03,2.39,4.07,4.78,6.1,7.17.77.9,1.54,1.81,2.31,2.71,0,0-1.74,0-5.15-.56-3.41-.56-11.83-1.17-17.57.43-6.48,1.82-9.2,4.9-9.2,4.9l-7.59-20.9Z"/>
                <path class="cls-50" d="M127.59,151.41s-.09-.03-.11-.08l-7.55-20.79c-.02-.06,0-.12.07-.15.06-.02.12,0,.15.07l7.55,20.79c.02.06,0,.12-.07.15-.01,0-.03,0-.04,0Z"/>
                <g>
                  <path class="cls-48" d="M95.48,149.25c-.06,0-.12,0-.18,0v-.17c2.69.03,4.65-.53,7.89-1.45,1.78-.51,4.01-1.14,6.97-1.85,4.35-1.04,7.62-.82,9.6-.44,2.15.41,3.26,1.05,3.3,1.08l-.09.15s-4.52-2.6-12.77-.62c-2.96.71-5.18,1.34-6.97,1.85-3.18.9-5.13,1.46-7.75,1.46Z"/>
                  <path class="cls-48" d="M95.33,147.63c-.08,0-.15,0-.23,0v-.17c2.66.03,4.6-.52,7.81-1.43,1.77-.5,3.97-1.13,6.9-1.83,4.3-1.03,7.54-.8,9.5-.42,2.13.41,3.22,1.06,3.26,1.09l-.09.15s-4.46-2.61-12.63-.65c-2.93.7-5.13,1.33-6.9,1.83-3.13.89-5.06,1.44-7.63,1.44Z"/>
                  <path class="cls-48" d="M95.18,146.01c-.09,0-.18,0-.27,0v-.17c2.63.04,4.55-.51,7.73-1.41,1.75-.5,3.93-1.12,6.83-1.81,8.16-1.96,12.58.67,12.62.7l-.09.15s-4.41-2.62-12.49-.68c-2.9.7-5.08,1.32-6.83,1.81-3.08.88-4.99,1.42-7.5,1.42Z"/>
                  <path class="cls-48" d="M95.02,144.4c-.1,0-.21,0-.31,0v-.17c2.6.04,4.5-.49,7.65-1.39,1.73-.49,3.89-1.11,6.76-1.8,8.08-1.94,12.44.71,12.48.73l-.09.15s-4.35-2.63-12.35-.71c-2.87.69-5.03,1.3-6.76,1.79-3.03.86-4.91,1.4-7.38,1.4Z"/>
                  <path class="cls-48" d="M94.87,142.78c-.12,0-.23,0-.35,0v-.17c2.57.05,4.45-.48,7.57-1.37,1.71-.49,3.85-1.1,6.69-1.78,7.99-1.92,12.3.74,12.34.76l-.09.14s-4.29-2.64-12.21-.74c-2.84.68-4.97,1.29-6.69,1.78-2.99.85-4.84,1.38-7.26,1.38Z"/>
                  <path class="cls-48" d="M94.72,141.16c-.13,0-.26,0-.39,0v-.17c2.54.06,4.4-.47,7.48-1.35,1.7-.48,3.81-1.09,6.62-1.76,7.91-1.9,12.16.77,12.2.8l-.09.14s-4.24-2.65-12.07-.77c-2.81.67-4.92,1.28-6.62,1.76-2.94.84-4.77,1.36-7.14,1.36Z"/>
                  <path class="cls-48" d="M94.56,139.55c-.14,0-.28,0-.43,0v-.17c2.52.07,4.36-.46,7.4-1.33,1.68-.48,3.77-1.08,6.56-1.74,7.83-1.87,12.02.8,12.06.83l-.09.14s-4.18-2.66-11.93-.81c-2.78.67-4.87,1.26-6.55,1.74-2.89.83-4.7,1.34-7.02,1.34Z"/>
                  <path class="cls-48" d="M94.4,137.93c-.15,0-.31,0-.46,0v-.17c2.48.07,4.31-.45,7.32-1.31,1.66-.48,3.73-1.07,6.49-1.73,7.74-1.85,11.88.83,11.92.86l-.1.14s-4.12-2.67-11.79-.84c-2.75.66-4.82,1.25-6.48,1.72-2.84.81-4.63,1.32-6.9,1.32Z"/>
                  <path class="cls-48" d="M94.24,136.31c-.16,0-.33,0-.5,0v-.17c2.46.08,4.26-.44,7.24-1.29,1.64-.47,3.69-1.06,6.42-1.71,7.66-1.83,11.74.87,11.78.9l-.1.14s-4.06-2.68-11.65-.87c-2.72.65-4.77,1.24-6.41,1.71-2.79.8-4.56,1.3-6.79,1.3Z"/>
                  <path class="cls-48" d="M94.08,134.7c-.18,0-.35,0-.53,0v-.17c2.43.09,4.21-.42,7.16-1.27,1.63-.47,3.65-1.05,6.35-1.69,7.58-1.81,11.6.9,11.64.93l-.1.14s-4.01-2.69-11.5-.9c-2.69.64-4.72,1.22-6.34,1.69-2.75.79-4.49,1.29-6.67,1.29Z"/>
                </g>
                <g>
                  <path class="cls-48" d="M128.52,146.34l-.05-.16s.07-.04.15-.1c3.79-2.5,8.36-3.7,12.87-3.36,1.58.12,2.94.22,4.12.32,4.35.34,6.33.49,8.67.49v.17c-2.34,0-4.33-.15-8.68-.49-1.18-.09-2.54-.2-4.12-.32-4.47-.34-9,.84-12.76,3.33-.14.09-.17.11-.2.12Z"/>
                  <path class="cls-48" d="M127.96,144.9l-.05-.16s.07-.04.15-.1c3.76-2.44,8.25-3.59,12.67-3.25,1.97.15,3.58.28,4.94.4,3.65.3,5.49.45,7.61.46v.17c-2.13,0-3.97-.16-7.63-.46-1.36-.11-2.97-.24-4.94-.4-4.37-.34-8.83.81-12.56,3.22-.14.09-.17.11-.19.11Z"/>
                  <path class="cls-48" d="M127.39,143.45l-.05-.16s.07-.04.15-.09c2.16-1.37,6.64-3.6,12.46-3.14,2.26.18,4.07.34,5.52.46,3.13.27,4.85.42,6.8.44v.17c-1.96-.01-3.68-.16-6.82-.44-1.45-.13-3.25-.28-5.52-.46-5.77-.46-10.22,1.75-12.36,3.11-.14.09-.16.1-.19.11Z"/>
                  <path class="cls-48" d="M126.82,142.01l-.05-.16s.07-.04.14-.09c2.14-1.33,6.57-3.5,12.26-3.03,2.49.2,4.39.38,5.92.52,2.72.25,4.36.4,6.16.42v.17c-1.81-.02-3.45-.17-6.18-.42-1.53-.14-3.43-.32-5.92-.52-5.64-.46-10.04,1.69-12.16,3.01-.13.08-.16.1-.18.11Z"/>
                  <path class="cls-48" d="M126.26,140.57l-.04-.17.02.08-.03-.08s.07-.04.14-.08c2.12-1.29,6.5-3.39,12.06-2.93,2.66.22,4.63.42,6.21.57,2.47.24,3.96.39,5.64.41v.17c-1.69-.03-3.18-.17-5.66-.41-1.58-.16-3.55-.35-6.2-.57-5.52-.46-9.86,1.62-11.96,2.9-.13.08-.15.09-.18.1Z"/>
                  <path class="cls-48" d="M125.69,139.13l-.04-.16.02.08-.03-.08s.06-.04.14-.08c2.1-1.25,6.42-3.29,11.86-2.82,2.79.24,4.79.45,6.4.62,2.19.23,3.63.38,5.21.41v.17c-1.58-.03-3.03-.18-5.22-.41-1.61-.17-3.61-.38-6.4-.62-5.39-.47-9.68,1.55-11.75,2.79-.12.07-.15.09-.17.1Z"/>
                  <path class="cls-48" d="M125.12,137.68l-.05-.16s.06-.03.13-.08c2.08-1.21,6.35-3.18,11.66-2.71,2.88.26,4.9.48,6.53.66,2.03.23,3.36.38,4.84.41v.17c-1.49-.03-2.83-.18-4.86-.41-1.62-.18-3.64-.41-6.53-.66-5.26-.47-9.5,1.48-11.55,2.69-.12.07-.15.09-.17.09Z"/>
                  <path class="cls-48" d="M124.55,136.24l-.05-.16.02.08-.03-.08s.06-.03.13-.07c2.05-1.18,6.28-3.08,11.45-2.6,2.95.27,4.98.51,6.6.71,1.89.23,3.13.37,4.53.41v.17c-1.41-.04-2.66-.19-4.55-.41-1.63-.19-3.65-.44-6.6-.71-5.13-.47-9.32,1.42-11.35,2.58-.12.07-.14.08-.16.09Z"/>
                  <path class="cls-48" d="M123.99,134.8l-.05-.16.02.08-.03-.08s.06-.03.13-.07c2.03-1.14,6.2-2.97,11.25-2.5,3,.28,5.02.54,6.64.75,1.7.22,2.94.37,4.26.42v.17c-1.34-.04-2.57-.2-4.28-.42-1.62-.21-3.64-.46-6.63-.75-5-.47-9.14,1.35-11.15,2.47-.11.06-.14.08-.16.08Z"/>
                  <path class="cls-48" d="M123.42,133.36l-.05-.16.02.08-.03-.08s.06-.03.12-.06c2.01-1.1,6.13-2.87,11.05-2.39,3.03.29,5.03.57,6.64.79,1.6.22,2.76.38,4.02.42v.17c-1.27-.05-2.43-.2-4.04-.42-1.61-.22-3.61-.49-6.64-.78-4.88-.47-8.96,1.28-10.95,2.37-.11.06-.13.07-.15.08Z"/>
                  <path class="cls-48" d="M122.85,131.91l-.05-.16s.05-.03.12-.06c1.99-1.06,6.06-2.76,10.85-2.28,3.04.31,5.03.59,6.62.82,1.51.22,2.61.38,3.8.43v.17c-1.21-.05-2.31-.21-3.83-.43-1.59-.23-3.58-.52-6.61-.82-4.75-.48-8.78,1.21-10.75,2.26-.1.06-.13.07-.15.07Z"/>
                </g>
              </g>
              <path class="cls-13" d="M86.78,134.52c-1.89,1.88-4.31,3.59-8.44,3.32-4.13-.27-30.37-9.7-35.67-13.2-5.3-3.51-.81-19.86,3.14-26.23,1.17-1.9,2.87-5.04,4.67-8.5,4.25-8.17,9.07-18.18,9.07-18.18,1.41-2.89,6.2-5.93,13.66-3.13,7.45,2.8,3.86,13.26,3.86,13.26l-15.9,31.99s19.76,8.54,24.35,10.87c.67.34,1.21.75,1.64,1.21,2.52,2.68,1.23,6.97-.38,8.58Z"/>
              <path class="cls-7" d="M86.78,134.52c-1.89,1.88-4.31,3.59-8.44,3.32-4.13-.27-30.37-9.7-35.67-13.2-5.3-3.51-.81-19.86,3.14-26.23,1.17-1.9,2.87-5.04,4.67-8.5,1.53-.31,2.65-.52,2.65-.52l3.19.53-4.59,4.8s-4.81,5.13-7.32,13.63c-2.5,8.49-2.12,13.34,1.37,15.46,3.48,2.12,32.29,12.52,32.29,12.52,0,0-.61-3.43,1.67-6.31,2.28-2.88,7.42-4.07,7.42-4.07,2.52,2.68,1.23,6.97-.38,8.58Z"/>
              <path class="cls-56" d="M59.56,71.72s-9.79,20.3-13.75,26.68-8.45,22.73-3.14,26.23,31.53,12.94,35.67,13.21,6.56-1.44,8.45-3.32c1.89-1.89,3.32-7.46-1.26-9.79-4.58-2.34-24.35-10.87-24.35-10.87l15.9-32s3.59-10.46-3.86-13.27c-7.46-2.8-12.25.24-13.66,3.13Z"/>
              <path class="cls-13" d="M151.94,123.39c-.91,5.5-7.57,7.45-12.26,6.97-4.69-.48-11.66-6.13-14.66-10.24-3.01-4.11-4.45-10.14-4.45-10.14-.62-3.33-.29-8.81,1.06-13.53,1.02-3.54,2.61-6.67,4.82-8.16,5.17-3.48,7.25,4.91,7.25,4.91l.61,2.2,2.67,9.63.89,3.21s1.93,2.64,7.7,7.94c5.77,5.29,6.49,6.49,6.37,7.21Z"/>
              <path class="cls-7" d="M151.94,123.39c-.91,5.5-7.57,7.45-12.26,6.97-4.69-.48-11.66-6.13-14.66-10.24-3.01-4.11-4.45-10.14-4.45-10.14-.62-3.33-.29-8.81,1.06-13.53,2.77-.8,6.66-1.76,6.66-1.76,0,0,4.07.68,6.03.71l2.67,9.63c-1.67-.07-7.57-.21-10.25,1.43-3.13,1.92-3.49,5.5-2.8,8.19.69,2.69,11.92,12.09,13.5,12.79,1.58.7,2.47-5.18,6.76-6.27,4.29-1.09,6.91.83,7.75,2.21Z"/>
              <path class="cls-56" d="M120.57,109.99s1.44,6.03,4.44,10.14c3.01,4.11,9.98,9.76,14.66,10.24,4.69.48,11.35-1.48,12.26-6.97.12-.72-.6-1.92-6.37-7.21-5.77-5.29-7.69-7.93-7.69-7.93l-4.17-15.04s-2.08-8.38-7.25-4.91-6.96,15.85-5.88,21.69Z"/>
              <path class="cls-51" d="M89.78,56.58l-.55,8.01c-.12,2.3,3.01,4.34,6.97,4.54,3.97.2,7.28-1.51,7.4-3.81l.55-8.01-14.37-.73Z"/>
              <g>
                <path class="cls-31" d="M117.9,39.18c-.57,11.98-10.37,18.5-21.88,17.88-11.51-.62-20.38-8.13-19.8-20.12.57-11.98,10.37-21.2,21.88-20.58,11.51.62,20.38,10.83,19.8,22.82Z"/>
                <path class="cls-27" d="M93.27,53.9s-2.73-2.98-4.28-6.46c-1.54-3.48-.8-10.81-.42-12.41.39-1.6,4.75-8.25,4.75-8.25l9.33-3.49s-9.07-6.13-10.6-5.41-8.75,3.66-9.63,4.26-5.67,9.57-6.26,10.59c-.59,1.02-.83,10.8-.32,11.56.51.76,2.85,6.8,3.78,7.01.93.21,9.43,4.63,9.43,4.63l4.27-1.47-.05-.57Z"/>
                <path class="cls-56" d="M84.85,30.54s22.14-17.24,31.96,1.4c0,0-3.17-12.08-12.15-14.14-12.41-2.85-19.81,12.74-19.81,12.74Z"/>
                <path class="cls-20" d="M137.76,104.23c-.1-.45-.28-1.23-.52-2.25-1.63-7.08-5.92-15.61-6.76-22.43-1.04-8.46-4.31-13.38-10.89-18.16-1.96-1.43-6.39-5.47-1.8-15,4.58-9.52,5.18-21.71,1.42-30.26-3.77-8.56-14.09-13.58-25.78-13.1-.91.03-16.77,1.41-21.63,15.34-2.7,7.75-2.9,14.87-2.21,20.4.55,4.41,1.67,7.8,2.54,9.72,1.97,4.32-1.63,9.92-2.87,11.15h-.02c-.19.1-1.76,1.43-3.34,2.79h0c-.99.86-3.61,1.95-4.26,3.23-1.76,3.45-8.35,13.66-10.31,19.03-1.97,5.37-3.95,8.13-3.95,8.13,0,0,13.41,5.95,30.67,12.21,17.26,6.26,17.85,8.92,27.06,9.04,9.21.11,14.38-2.43,15.1-3.13.32-.31.47-1.23.54-2.22.09-1.25.06-2.61.06-3,0-.7,9.81-3.48,13.05-2.21,2.09.82,3.16,1.07,3.65,1.14.28.04.38.03.38.03,0,0-.04-.16-.11-.46ZM115.45,40c-.91,10.99-7.86,15.21-11.65,16.25-3.78,1.03-18.28-.31-18.27-16.81,0-15.45,16.47-21.82,16.47-21.82,0,0,14.36,11.38,13.45,22.39Z"/>
                <path class="cls-9" d="M112.87,62.51c.08.21-1.14,6.26-9.12,6.68-7.98.42-19.69-8.04-19.69-8.04,0,0,11.96,6.54,19.69,6.2,7.72-.34,9.13-4.83,9.13-4.83Z"/>
                <path class="cls-9" d="M113.57,67.73c.08.33-1.14,13.59-9.12,14.24-7.98.65-19.69-16.33-19.69-16.33,0,0,11.96,14.02,19.69,13.51,7.72-.51,9.13-11.41,9.13-11.41Z"/>
                <path class="cls-9" d="M120.73,108.73c-.07.99-.22,1.91-.54,2.22-.71.69-5.89,3.24-15.1,3.13-9.21-.12-9.8-2.78-27.06-9.04-17.26-6.26-30.67-12.21-30.67-12.21,0,0,1.98-2.76,3.95-8.13,1.97-5.37,8.55-15.58,10.31-19.03.65-1.28,3.27-2.37,4.26-3.22l3.34-2.79h.02c1.25-1.24,4.84-6.83,2.87-11.16-.87-1.92-1.99-5.31-2.54-9.72.31.23,2.18,6.7,5.31,8.29,0,0-3.61-7.92-.91-19.48,0,0-1.47,22.51,15.24,28.96,16.07,6.2,21.61.3,22.02-.16-.45.7-6.03,8.74-23.74,2.33-17.71-6.42-13.37,3.46-11.8,4.58-7.18,3.7-8.86,29.84-5.8,33.35,1.08,1.25,2.97,2.55,4.99,3.73,0,.03.01.05.02.07.19.43,3.39,1.97,7.71,3.78.21.09.39.17.54.23.08.03.16.07.25.1.07.03.12.05.15.06,0,0,.02,0,.03.01,3.82,1.59,8.37,3.35,12.46,4.77,8.29,2.88,16.08,2.1,24.66-.68Z"/>
                <path class="cls-9" d="M102.83,8.55s-7.93-1.56-14.62,3.29c-6.69,4.85-6.65,8.06-6.65,8.06,0,0,5.29-9.86,21.27-11.36Z"/>
                <path class="cls-9" d="M83.86,45.2s-2.76-8.5.9-19.69c0,0-7.23,7.96-.9,19.69Z"/>
                <path class="cls-9" d="M117.62,40.89s1.43-8.79-3.9-19.36c0,0,8.37,6.86,3.9,19.36Z"/>
                <g>
                  <g>
                    <path class="cls-27" d="M103.6,40.73s-.07,1.58-.94,1.68c-.16.02-.22-.2-.4-.22s-.4.09-.44.43c-.07.58.91.97,1.72-.07.56-.71.25-1.55.05-1.83Z"/>
                    <path class="cls-18" d="M104.34,41.03c.2.91-.48,1.86-1.32,2.14-.06.02-.11.04-.17.05-.13.03-.2-.16-.08-.23.55-.32.93-.89.97-1.55.06-.59-.27-1.02-.76-1.3-.32-.18-.66-.25-1.03-.26-.11,0-.13-.17-.03-.2h0c.62-.21,2.09-.1,2.4,1.36Z"/>
                    <g>
                      <g>
                        <path class="cls-17" d="M97.17,39.11c-3.33.79-5.14.71-7.93-1.82.93-2.75,1.9-5.41,5.21-5.16,3.02.23,3.97,2.81,3.68,6.18-.05.55-.56.7-.97.8Z"/>
                        <g>
                          <path class="cls-12" d="M95.13,34.61c1.3-.04,2.38,1.02,2.42,2.37.04,1.35-.98,2.48-2.28,2.52s-2.38-1.02-2.42-2.37c-.04-1.35.98-2.48,2.28-2.52Z"/>
                          <path class="cls-17" d="M94.05,35.36c.33-.01.6.28.61.66s-.25.68-.58.69-.6-.28-.61-.66.25-.68.58-.69Z"/>
                        </g>
                      </g>
                      <path class="cls-16" d="M98.18,37.33c-.84-3.43-1.57-4.27-3.02-4.63-3.13-.76-4.96,2.17-5.66,4.82-.24.51-2.98-.68-3.03-2.64.47.7,1.9,1.69,2.32.9,3.08-5.71,9.72-5.83,9.39,1.54Z"/>
                    </g>
                    <g>
                      <path class="cls-17" d="M106.86,39.1c2.86.78,4.42.69,6.83-1.85-.79-2.75-1.61-5.4-4.47-5.13-2.6.24-3.43,2.83-3.19,6.2.04.55.48.7.83.79Z"/>
                      <g>
                        <path class="cls-12" d="M110.01,34.61c1.18-.04,2.17,1.03,2.21,2.38.04,1.35-.89,2.47-2.07,2.51s-2.17-1.03-2.21-2.38c-.04-1.35.89-2.47,2.07-2.51Z"/>
                        <path class="cls-17" d="M109.14,35.35c.33-.01.6.28.61.66s-.25.68-.58.69-.6-.28-.61-.66.25-.68.58-.69Z"/>
                      </g>
                      <path class="cls-16" d="M105.99,37.33c.74-3.43,1.37-4.28,2.62-4.64,2.7-.77,4.26,2.14,4.85,4.8.21.51,1.72-.28,1.78-2.23-.41.7-.79,1.28-1.16.5-2.63-5.69-8.35-5.78-8.09,1.58Z"/>
                    </g>
                  </g>
                  <path class="cls-15" d="M96.8,45.89c-.24-.14-.55-.04-.68.22-.13.26-.04.58.21.72.16.09.17,0,.19-.16l.81.48c3.13,2.09,7.44,2.63,9.97-.71-3.29,2.26-5.68,2.11-9.24.62-.57-.24-.89-.47-1.35-.81.14-.16.29-.26.1-.37Z"/>
                  <path class="cls-11" d="M106.36,29.29c-.95-.98,2.28-2.83,4.61-1.68,2.32,1.15,2.19,3.12,2.13,3.31s-1.22-1.6-2.79-1.85c-3.18-.5-3.07,1.13-3.95.22Z"/>
                  <path class="cls-11" d="M98.14,28.69c.4-1.13-2.3-2.42-5.82-1.64-2.99.66-4.39,3.77-4.31,3.96s2.19-1.91,4.41-2.2c3.34-.44,5.28,1.12,5.72-.11Z"/>
                  <g class="cls-4">
                    <path class="cls-47" d="M91.5,31.38c.96-1.65,3.73-2.15,4.96-.54-1.73-.48-3.33-.1-4.96.54h0Z"/>
                  </g>
                  <g class="cls-4">
                    <path class="cls-47" d="M112.34,31.38c-1.63-.64-3.24-1.02-4.96-.54,1.24-1.61,4-1.12,4.96.54h0Z"/>
                  </g>
                </g>
                <path class="cls-56" d="M137.76,104.23c-.1-.45-.28-1.23-.52-2.25-1.63-7.08-5.92-15.61-6.76-22.43-1.04-8.46-4.31-13.38-10.89-18.16-1.96-1.43-6.39-5.47-1.8-15,4.58-9.52,5.18-21.71,1.42-30.26-3.77-8.56-14.09-13.58-25.78-13.1-.91.03-16.77,1.41-21.63,15.34-2.7,7.75-2.9,14.87-2.21,20.4.55,4.41,1.67,7.8,2.54,9.72,1.97,4.32-1.63,9.92-2.87,11.15h-.02c-.19.1-1.76,1.43-3.34,2.79h0c-.99.86-3.61,1.95-4.26,3.23-1.76,3.45-8.35,13.66-10.31,19.03-1.97,5.37-3.95,8.13-3.95,8.13,0,0,13.41,5.95,30.67,12.21,17.26,6.26,17.85,8.92,27.06,9.04,9.21.11,14.38-2.43,15.1-3.13.32-.31.47-1.23.54-2.22.09-1.25.06-2.61.06-3,0-.7,9.81-3.48,13.05-2.21,2.09.82,3.16,1.07,3.65,1.14.28.04.38.03.38.03,0,0-.04-.16-.11-.46ZM115.45,40c-.91,10.99-7.86,15.21-11.65,16.25-3.78,1.03-18.28-.31-18.27-16.81,0-15.45,16.47-21.82,16.47-21.82,0,0,14.36,11.38,13.45,22.39Z"/>
              </g>
              <g>
                <g>
                  <g>
                    <path class="cls-23" d="M93.57,114.45l1.22,3.98,2.14-.66-1.22-3.97c-.06-.21-.26-.35-.48-.33-.24.02-.5.08-.75.16-.24.08-.49.17-.69.29-.19.1-.28.33-.22.54Z"/>
                    <path class="cls-24" d="M95.57,113.93s-.09,0-.19-.02c-.1-.01-.24-.01-.41,0-.33.03-.62.09-.65,0-.04-.07.23-.27.63-.31.2-.02.39.02.51.1.13.08.15.2.11.21Z"/>
                  </g>
                  <g>
                    <path class="cls-14" d="M100.7,137.71l2.28,3.67-.13-4.33c-.31-.03-.74.05-1.13.16-.39.12-.78.3-1.02.49Z"/>
                    <path class="cls-54" d="M102.94,140.08c-.11,0-.21.03-.32.06-.12.04-.22.08-.32.14l.68,1.1-.04-1.3Z"/>
                    <path class="cls-53" d="M102.76,139.86s-.1-.5-.14-1.11c-.03-.62-.02-1.12.02-1.12.04,0,.1.5.14,1.11.03.62.02,1.12-.02,1.12Z"/>
                  </g>
                  <g>
                    <g>
                      <path class="cls-40" d="M96.22,115.44l6.62,21.61s0,0,0,0c0,0,0,0,0,0,0,0,0,.02-.01.02l-2.1.64s-.02,0-.03-.02l-6.62-21.61,2.14-.66Z"/>
                      <path class="cls-40" d="M102.67,136.62s0,0,0,0c-.1-.11-.22-.17-.33-.13-.11.03-.17.14-.2.27l.19.61c.09.1.21.14.31.11.14-.04.22-.22.21-.42,0,0,0,0,0,0,0,0,0,0,0-.01l-.08-.26-.09-.16Z"/>
                    </g>
                    <g>
                      <path class="cls-44" d="M101.27,137.55l-6.63-21.63-.56.17,6.62,21.61s.01.01.02.01l.55-.17Z"/>
                      <path class="cls-44" d="M101.12,137.07c-.1-.1-.21-.15-.32-.12-.11.03-.19.15-.2.3l.02.18.09.29c.1.17.26.27.4.23.11-.03.18-.14.2-.27l-.18-.6Z"/>
                    </g>
                    <g>
                      <rect class="cls-26" x="97.92" y="115.28" width="1.06" height="22.57" transform="translate(-32.77 34.41) rotate(-17.04)"/>
                      <path class="cls-26" d="M102.15,136.79l.18.58c-.07.17-.23.32-.44.38s-.43.03-.58-.07l-.18-.58c.07-.17.23-.32.44-.39.21-.06.42-.03.58.07Z"/>
                    </g>
                  </g>
                  <polygon class="cls-22" points="95.82 116.15 96.65 118.78 97.47 121.41 99.1 126.68 100.7 131.96 101.5 134.6 102.29 137.24 101.45 134.61 100.64 131.98 99.01 126.71 97.41 121.43 96.61 118.79 95.82 116.15"/>
                  <polygon class="cls-22" points="94.8 116.46 95.64 119.09 96.45 121.72 98.08 126.99 99.68 132.27 100.48 134.91 101.27 137.55 100.44 134.92 99.62 132.29 97.99 127.02 96.39 121.74 95.59 119.1 94.8 116.46"/>
                  <g>
                    <g>
                      <g class="cls-6">
                        <path class="cls-37" d="M94.23,116.6l.1.33c.24-.19.63-.37,1.01-.49.39-.12.83-.19,1.13-.16l-.1-.33c-.31-.03-.74.04-1.13.16-.39.12-.77.3-1.01.49Z"/>
                      </g>
                      <g class="cls-6">
                        <path class="cls-37" d="M93.86,115.4l.1.33c.24-.19.63-.37,1.01-.49.39-.12.83-.19,1.13-.16l-.1-.33c-.31-.03-.74.04-1.13.16-.39.12-.77.3-1.01.49Z"/>
                      </g>
                      <path class="cls-25" d="M96.04,114.83l.39,1.28c-.31-.03-.74.04-1.13.16-.39.12-.77.3-1.01.49l-.39-1.28c.24-.19.63-.37,1.01-.49.39-.12.83-.19,1.13-.16Z"/>
                      <path class="cls-42" d="M95.43,114.87c-.17.03-.35.07-.53.12-.17.05-.33.12-.49.19l.39,1.28c.16-.07.32-.13.49-.19.17-.05.35-.09.53-.12l-.39-1.28Z"/>
                      <path class="cls-8" d="M94.27,116.74v.02c.24-.19.63-.37,1.02-.49.39-.12.83-.19,1.13-.16v-.02c-.31-.03-.75.04-1.14.16-.39.12-.77.3-1.01.49Z"/>
                      <path class="cls-23" d="M93.94,115.45c.29-.22.63-.38.98-.49.18-.05.36-.09.54-.11.18-.03.37-.02.55-.01-.18,0-.36.02-.54.05-.18.03-.36.07-.53.12-.17.05-.34.12-.51.19-.17.07-.33.16-.48.25Z"/>
                      <g>
                        <path class="cls-37" d="M94.95,115.17c-.39.12-.77.3-1.01.49l.02.06c.24-.19.63-.37,1.01-.49.39-.12.83-.19,1.13-.16l-.02-.06c-.31-.03-.74.04-1.13.16Z"/>
                        <path class="cls-57" d="M94.95,115.16c-.39.12-.77.3-1.01.49l.02.06c.24-.19.63-.37,1.01-.49.39-.12.83-.19,1.13-.16l-.02-.06c-.31-.03-.74.04-1.13.16Z"/>
                      </g>
                      <g>
                        <path class="cls-37" d="M95,115.3c-.39.12-.77.3-1.01.49l.02.06c.24-.19.63-.37,1.01-.49.39-.12.83-.19,1.13-.16l-.02-.06c-.31-.03-.74.04-1.13.16Z"/>
                        <path class="cls-57" d="M94.99,115.29c-.39.12-.77.3-1.01.49l.02.06c.24-.19.63-.37,1.01-.49.39-.12.83-.19,1.13-.16l-.02-.06c-.31-.03-.74.04-1.13.16Z"/>
                      </g>
                      <g>
                        <path class="cls-37" d="M95.22,116.04c-.39.12-.77.3-1.01.49l.02.06c.24-.19.63-.37,1.01-.49.39-.12.83-.19,1.13-.16l-.02-.06c-.31-.03-.74.04-1.13.16Z"/>
                        <path class="cls-57" d="M95.22,116.03c-.39.12-.77.3-1.01.49l.02.06c.24-.19.63-.37,1.01-.49.39-.12.83-.19,1.13-.16l-.02-.06c-.31-.03-.74.04-1.13.16Z"/>
                      </g>
                      <g>
                        <path class="cls-37" d="M95.18,115.9c-.39.12-.77.3-1.01.49l.02.06c.24-.19.63-.37,1.01-.49.39-.12.83-.19,1.13-.16l-.02-.06c-.31-.03-.74.04-1.13.16Z"/>
                        <path class="cls-57" d="M95.18,115.89c-.39.12-.77.3-1.01.49l.02.06c.24-.19.63-.37,1.01-.49.39-.12.83-.19,1.13-.16l-.02-.06c-.31-.03-.74.04-1.13.16Z"/>
                      </g>
                    </g>
                    <path class="cls-21" d="M95.45,114.94c.08.18.13.36.19.54.05.18.11.37.15.56-.08-.18-.13-.36-.19-.54-.05-.18-.11-.37-.15-.56Z"/>
                    <path class="cls-21" d="M94.44,115.26c.08.18.13.36.19.54.05.18.11.37.15.56-.08-.18-.13-.36-.19-.54-.05-.18-.11-.37-.15-.56Z"/>
                  </g>
                </g>
                <path class="cls-43" d="M84.11,129.38s3.82-2.05,5.22-3.22c1.4-1.17,3.68-.84,5.73,0,2.05.84,5.59,3.26,6.01,4.1s2.42,4.75,2.19,5.55c-.23.79-1.07.89-2.8.28,0,0,.05,2.24-3.17,1.4,0,0,.47,1.07-.33,1.31s-1.63,0-1.63,0c0,0,1.07,1.63-4.57.84s-6.33-1.34-7.55-1.72c-.25-.08-3.47-1.51-3.56-1.45s-1.54-5.23,4.45-7.08Z"/>
                <path class="cls-56" d="M84.11,129.38s3.82-2.05,5.22-3.22c1.4-1.17,3.68-.84,5.73,0,2.05.84,5.59,3.26,6.01,4.1s2.42,4.75,2.19,5.55c-.23.79-1.07.89-2.8.28,0,0,.05,2.24-3.17,1.4,0,0,.47,1.07-.33,1.31s-1.63,0-1.63,0c0,0,1.07,1.63-4.57.84s-6.33-1.34-7.55-1.72c-.25-.08-3.47-1.51-3.56-1.45s-1.54-5.23,4.45-7.08Z"/>
                <path class="cls-56" d="M100.47,136.09s-1.05-2.48-3.07-3.89c-2.03-1.41-5.06-3.41-5.06-3.41"/>
                <path class="cls-56" d="M97.3,137.49s-.67-1.56-2.08-2.41c-1.41-.85-4.03-2.64-4.03-2.64"/>
                <path class="cls-56" d="M95.34,138.79s-3-1.57-3.86-1.98-1.79-.65-2.32-.85"/>
              </g>
              <g>
                <path class="cls-29" d="M147.74,122.11c.11-.03,7.68,5.38,8.13,5.67s1.27,3.02,1.75,4.16,1.24,6.26.81,6.47-1.19-.02-1.19-.02c0,0,.17,1.75-.83,1.84s-1.45-.8-1.48-.66-.44.95-1.67.54-2.32-6.96-3.47-8.56c-1.15-1.6-3.71-2.08-3.61-2.03s1.38,2.58,1.44,3.69c.07,1.1-.16,2.47-1.22,2.72s-1.35-1.21-1.53-2.05-1.32-2.08-2.3-3.19c-.98-1.11-.52-2.02-.62-2.88,0,0,1.16-4.35,5.78-5.69Z"/>
                <path class="cls-56" d="M147.74,122.11c.11-.03,7.68,5.38,8.13,5.67s1.27,3.02,1.75,4.16,1.24,6.26.81,6.47-1.19-.02-1.19-.02c0,0,.17,1.75-.83,1.84s-1.45-.8-1.48-.66-.44.95-1.67.54-2.32-6.96-3.47-8.56c-1.15-1.6-3.71-2.08-3.61-2.03s1.38,2.58,1.44,3.69c.07,1.1-.16,2.47-1.22,2.72s-1.35-1.21-1.53-2.05-1.32-2.08-2.3-3.19c-.98-1.11-.52-2.02-.62-2.88,0,0,1.16-4.35,5.78-5.69Z"/>
                <path class="cls-18" d="M154.69,139.58c-.14-3.53-1.04-6.9-2.77-10,1.32,2.27,2.54,4.69,2.88,7.34.15.87.28,1.74.38,2.62.02.14-.08.26-.22.28-.14.02-.27-.09-.28-.23h0Z"/>
                <path class="cls-18" d="M157,138.43c-.59-3.28-.86-6.74-2.71-9.61.96,1.39,1.7,2.95,2.08,4.59.42,1.63.78,3.28,1.13,4.93.07.32-.44.42-.49.09h0Z"/>
              </g>
              <path class="cls-5" d="M159.44,212.97c-4.07.83-8.58,1.69-13.17,2.48.98-2.57,2.06-5.7,2.61-8.26,1.17-5.44,3.07-41.81,3.07-41.81,0,0,2.52,25.58,4.29,35.94,1.57,9.17,2.72,11.27,3.19,11.65Z"/>
            </g>
            <path class="cls-34" d="M85.11,172.54c.37,5.44.48,11.62.47,17.95-.02,1.28-.02,2.53-.02,3.81-.04,2.03-.08,4.05-.12,6.06-.12,4.97-.31,9.91-.5,14.52-.31,7.03-.64,13.26-.83,17.81-.02.33-.04.66-.06.95-.06,1.61-.12,2.96-.14,4.01-7.32,6.83-21.99,9.04-30.16,9.23.17-10.16,1.61-55.39-.17-76.39l30.67-6.14c.31,2.05.56,4.34.75,6.8.04.46.08.91.12,1.39Z"/>
            <path class="cls-59" d="M53.57,170.49c-.41-4.94-1.01-8.52-1.84-9.99l28.89-6.54c.13.16.29.31.41.44,1.47,1.78,2.52,5.29,3.21,9.95l-30.67,6.14Z"/>
            <path class="cls-46" d="M51.73,160.5c.83,1.47,1.43,5.05,1.84,9.99,1.78,21.01.35,66.23.17,76.39-.99-.74-3.83-3.43-7.71-7.18-1.18-10.51-7.51-23.97-11.29-32.76-7.76-17-18.37-27.35-30.09-39.16l.5-34.07s41.33,21.59,46.19,26.29c.14.12.25.29.37.5Z"/>
            <path class="cls-28" d="M4.67,167.78c11.71,11.81,22.32,22.17,30.09,39.16,3.77,8.79,17.81,29.43,18.99,39.94-14.63-9.91-47.32-31.59-50.74-33.74l1.67-45.37Z"/>
            <path class="cls-1" d="M20.64,92.41c6.91,2.57,12.51,23.52,15.64,40.42-2.69-.85-5.09-1.53-7.07-1.98-1.55-6.91-3.52-13.94-6.08-20.04-2.27-5.46-4.96-10.14-8.15-13.3.79-2.52,2.98-4.09,5.65-5.11Z"/>
            <path class="cls-34" d="M51.36,160c-4.86-4.7-46.19-26.29-46.19-26.29l5.69-1.02,13.59-2.48c.68-.06,1.67.04,2.89.25.56.12,1.2.25,1.88.41,1.97.44,4.38,1.12,7.07,1.98,1.26.39,2.59.83,3.97,1.3,1.22.43,2.46.87,3.74,1.33,1.35.48,2.73,1.01,4.1,1.53,6.97,2.67,14.25,5.86,20.33,9.02,1.41.74,2.79,1.47,4.07,2.19,3.56,2.03,6.41,4.01,8.13,5.75l-28.89,6.54c-.12-.21-.23-.39-.37-.5Z"/>
          </g>
        </g>
      </g>
    </g>
  </g>
</svg>