<svg xmlns="http://www.w3.org/2000/svg" width="2880" height="800" viewBox="0 0 2880 800" fill="none"><mask id="mask0_2029_4527" style="mask-type:luminance" maskUnits="userSpaceOnUse" x="0" y="0" width="2880" height="800"><path d="M2880 0H0V800H2880V0Z" fill="white"></path></mask><g mask="url(#mask0_2029_4527)"><path d="M2703.2 840.36H231.141L621.411 677.93C708.111 642.14 945.461 545.55 1037.11 508.28C1060.08 498.94 1073.9 493.32 1073.9 493.32L1112.27 493.97L1209.16 445.69C1209.16 445.69 1380.58 449.2 1530.63 448.69C1563.65 448.93 1599.82 448.97 1632.61 448.92C1691.18 448.84 1739 448.47 1739 448.47L1877.84 504.68V539.14L2028.2 596.97L2082.7 590.38L2703.2 840.36Z" fill="#C8AF84"></path><path opacity="0.15" d="M2703.2 840.36H231.141L621.411 677.93C708.111 642.14 945.461 545.55 1037.11 508.28L1005.29 547.23L1050.63 592.96C1050.63 592.96 1850.2 640.3 1851.44 640.39L1911.54 596.37L1812.25 500.85L1632.61 448.92C1691.18 448.84 1739 448.47 1739 448.47L1877.84 504.68V539.14L2028.2 596.97L2082.7 590.38L2703.2 840.36Z" fill="#A7865A"></path><g opacity="0.8"><path d="M187.771 -303.76L1183.93 162.5L1196.2 445.38L188.651 846.44L187.771 -303.76Z" fill="#C3EE99"></path><path d="M1745.75 445.62H1192.96L1180.69 162.5H1748.76L1745.75 445.62Z" fill="#B0E18D"></path><path d="M2904.53 -200.66H2727.99V840.75H2904.53V-200.66Z" fill="#C3EE99"></path><path d="M194.991 -200.66H-16.4395V832H194.991V-200.66Z" fill="#C3EE99"></path><path d="M1738.31 445.61L1793.97 468.1L1880.39 503.02L1884.14 504.53L1886.12 505.33L1886.35 505.43L2032.82 564.61L2033.02 564.69L2034.64 565.35L2086.2 586.17L2782.49 867.51V-201.99L2225.17 -6.38998L2120.2 30.25L2118.14 30.97L2116.07 31.7L2112.89 32.81L2106.77 34.94L2059.74 51.35L2059.48 51.45L1912.65 102.69L1908.46 104.16L1907.39 104.54L1742.02 162.26L1741.32 162.5V162.62L1741.25 168.84L1738.48 429.69L1738.44 432.86L1738.42 434.79L1738.34 442.38L1738.31 445.61Z" fill="#C3EE99"></path><path opacity="0.22" d="M1093.33 199.37L1083.73 483.23L1061.63 124.23L1086.3 131.94L1093.33 199.37Z" fill="#97BD78"></path><path opacity="0.22" d="M1098.96 135.9L1086.3 131.94L1085.96 128.69L1098.96 135.9Z" fill="#97BD78"></path><path opacity="0.3" d="M988.85 -6.38998C1073.25 35.23 1202.19 115.45 1202.19 115.45L1741.47 109.81L2596.18 -288.68H2657.84L2659.6 -158.24L1742.76 168.85L1215.99 165.7L1085.96 128.69L1078.77 130.23L185.48 -177.28V-200.35L988.85 -6.38998Z" fill="#92AE78"></path><path d="M2583.17 -288.68H335.99L1072.87 33.43L1116.46 33.17L1224.15 108.75L1742.37 103.47L1903.85 24.07L1905.18 9.36002L2064.06 -87.43L2122.45 -76.55L2583.17 -288.68Z" fill="#E6EBBE"></path><path d="M185.48 -288.68V-187.49L670.29 -17.29L1071 123.4L1071.55 123.59L1072.01 123.75L1080.16 126.61H1080.2L1086.44 128.81L1110.44 137.24L1113.15 138.19H1113.19L1116.75 139.45L1179.2 161.38L1182.38 162.49H1742.77L1907.32 105.83L1908.37 105.46L1912.56 104.02L2059.37 53.47L2059.64 53.38L2112.11 35.32L2115.94 34L2117.04 33.62L2117.63 33.41L2120.2 32.53L2233.28 -6.39999L2782.49 -202V-288.68H2582.28L2064.35 -50.21L2063.98 -50.04L2063.17 -49.67L1902.95 24.08L1741.48 103.47L1221.24 108.91L1207.7 109.06L1202.19 109.12C1202.19 109.12 1193.67 103.07 1175.83 92.84C1160.25 83.9 1139.08 71.76 1114.47 57.7C1113.85 57.35 1113.23 56.99 1112.6 56.63C1104.85 52.2 1096.77 47.59 1088.43 42.82C1083.06 39.76 1077.57 36.63 1071.99 33.45C1071.99 33.45 1071.98 33.45 1071.97 33.44C966.561 -26.67 497.72 -288.68 497.72 -288.68H185.48Z" fill="#F4FACA"></path><path opacity="0.39" d="M335.1 755.19V766.36L1074.34 488.13L1074.91 487.92L1096.47 479.8L1096.78 479.69L1115.24 472.74L1115.4 472.68L1115.54 472.63L1115.61 472.6L1192.87 443.52L1195.89 442.38H1741L1745.76 444.32L1880.67 499.08L1886.32 501.38L1886.61 501.5L1951.63 527.89L2023.91 557.23L2032.98 560.92L2033.21 561L2034.83 561.66L2086.39 582.6L2229.59 640.73L2247.57 643.93L2262.65 646.61L2344.9 661.24V633.88L2088.28 547.47L2036.37 529.99L2034.83 529.47L1888.01 480.04L1887.46 479.85L1882.14 478.06L1745.89 432.19L1738.48 429.69L1738.08 429.55L1210.7 432.62L1195.89 432.7L1195.65 432.79L1192.46 433.99L1115.64 462.76L1115.47 462.83L1115.33 462.89L1115.1 462.97L1084.02 474.61L1083.22 474.91L1074.83 478.06L335.1 755.19Z" fill="#FFDA80"></path><path d="M126.131 840.43L187.371 859.96L1062.95 499.18L1077.17 493.32L1077.27 493.28L1080 492.16L1110.73 479.5L1111.19 479.31L1115.3 477.61L1115.43 477.56L1115.57 477.5L1115.6 477.49L1117.13 476.86L1148.41 463.97L1192.96 445.61L1195.59 445.62L1205.19 445.68L1209.16 445.7L1556.37 447.52L1739 448.48L1877.84 504.68L1880.2 505.64L1885.97 507.97L1886.18 508.06L2032.7 567.37L2032.88 567.44L2034.51 568.1L2086.04 588.97L2782.49 870.91L2902.41 831.69L2088.06 552.13L2088.03 552.11L2082.36 550.18L2036.15 534.42L2034.6 533.89L1887.77 483.8L1887.26 483.63L1881.88 481.79L1779.99 447.03L1745.85 435.39L1744.13 434.81L1738.44 432.86L1738.08 432.74L1210.64 435.83L1195.79 435.92L1192.96 435.94L1192.55 436.1L1115.64 465.26L1115.49 465.32L1115.34 465.37L1115.13 465.45L1083.93 477.28L1083.38 477.49L1076.16 480.23L1076.13 480.24L1074.85 480.72L1074.34 480.92L126.131 840.43Z" fill="#F9FDE5"></path><path opacity="0.3" d="M1742.02 162.26L1737.44 164.58L1178.47 162.5C1189.38 145.89 1197.01 128.51 1206.59 111.07C1206.99 110.35 1207.38 109.63 1207.78 108.91L1741.48 103.46L1742.03 162.26H1742.02Z" fill="#9CBE81"></path><path d="M1074.94 491.9L1115.54 493.98L1112.51 42.4L1071.36 43.12L1074.94 491.9Z" fill="#B0E18D"></path><path d="M1115.66 489.02L1210.51 443.1L1213.99 124.81L1112.51 42.4L1115.66 489.02Z" fill="#C8F09C"></path><path d="M1221.33 107.67L1219.48 162.6L1115.98 118.83L1071 123.65L1071.99 31.6L1115.56 33.17L1221.33 107.67Z" fill="#F4FACA"></path><path d="M1074.34 480.27L1114.7 479.22L1210.51 435.89L1210.16 445.18L1115.54 493.98L1074.34 493.23V480.27Z" fill="#F9FDE5"></path><path opacity="0.39" d="M1114.86 479.41L1074.34 480.27V493.23L1114.86 494.55V479.41Z" fill="#FFDA80"></path><path opacity="0.12" d="M1114.64 32.28L1071.99 31.6V123.32L1114.09 118.69L1114.64 32.28Z" fill="#9CBE81"></path><path d="M1975.52 -6.39001H2062.56L2033.18 595.39L1877.85 539.14L1914.37 20.16L1975.52 -6.39001Z" fill="#C8F09C"></path><path d="M2118.12 -76.55L2085.97 590.39L2031.47 594.73L2062.46 -6.39006L2118.12 -76.55Z" fill="#B0E18D"></path><path d="M2062.56 -87.4301L2120.2 -76.55V33.7699L2061.65 26.03L1897.2 87.6199L1904.28 9.35994L2062.56 -87.4301Z" fill="#EBF0E3"></path><path opacity="0.3" d="M1904.28 85.5001L1909.54 87.6201L2060.73 31.58L2114.65 35.51L2120.2 31.14L2059.8 26.05L1904.28 85.5001Z" fill="#92AE78"></path><path opacity="0.3" d="M2120.2 -76.55V33.7699L2063.16 26.2299V-87.4301L2120.2 -76.55Z" fill="#9CBE81"></path><path opacity="0.4" d="M1908.39 85.5L1913.64 87.57L1885.05 525.4L1908.39 85.5Z" fill="#F4FACA"></path><path d="M2088.2 549.48L2033.18 556.11L1877.85 502.36V539.14L2031.47 596.97L2085.97 590.39L2088.2 549.48Z" fill="#F9FDE5"></path><path opacity="0.39" d="M2033.18 556.11L2088.2 549.48L2085.97 590.39L2031.47 596.97L2033.18 556.11Z" fill="#FFDA80"></path><path d="M1219.48 162.6L1115.98 118.83L1071 123.65L1072.04 127.87L1113.24 121.61L1215.3 165.7L1219.48 162.6Z" fill="#BCDC99"></path><path opacity="0.58" d="M1116.79 128.4L1113.25 124.23L1110.31 127.63L1115.54 493.98L1116.79 128.4Z" fill="#EBF0E3"></path><path d="M1282.6 137.33C1283.49 137.33 1284.35 136.54 1284.31 135.62C1284.27 134.7 1283.56 133.91 1282.6 133.91C1281.71 133.91 1280.85 134.7 1280.89 135.62C1280.93 136.54 1281.64 137.33 1282.6 137.33Z" fill="#FFD55F"></path></g></g><path d="M1166.93 638.03C1175.56 664.04 1290.61 687.46 1443.18 687.46C1595.75 687.46 1709.42 663.58 1719.43 638.03C1741.46 581.85 1595.75 588.6 1443.18 588.6C1290.61 588.6 1146.09 575.2 1166.93 638.03Z" fill="#EE6F5B"></path><path opacity="0.15" d="M1166.93 642.65C1175.56 668.66 1290.61 692.08 1443.18 692.08C1595.75 692.08 1709.42 668.2 1719.43 642.65C1741.46 586.47 1595.75 593.22 1443.18 593.22C1290.61 593.22 1146.09 579.82 1166.93 642.65Z" fill="#084914"></path><path d="M1443.19 581.85C1375.28 581.85 1308.96 579.2 1258.12 581.79C1240.62 586.36 1223.22 591.48 1206.54 598.34C1194.97 603.4 1183.88 609.49 1173.74 617.05C1171.32 618.85 1168.05 619.35 1164.95 619.15C1164.84 622.84 1165.49 626.87 1166.95 631.27C1175.58 657.28 1290.63 680.7 1443.2 680.7C1595.77 680.7 1709.44 663.56 1719.45 638.02C1741.48 581.84 1595.77 581.84 1443.2 581.84L1443.19 581.85Z" fill="#EC5240"></path><path d="M1443.19 680.55C1595.76 680.55 1719.44 655.317 1719.44 624.19C1719.44 593.063 1595.76 567.83 1443.19 567.83C1290.62 567.83 1166.94 593.063 1166.94 624.19C1166.94 655.317 1290.62 680.55 1443.19 680.55Z" fill="#FBD5B7"></path><path d="M1168.35 622.27C1168.35 651.03 1282.62 679 1423.58 679C1564.54 679 1707.45 656.54 1707.45 627.78C1707.45 599.02 1564.54 570.2 1423.58 570.2C1282.62 570.2 1168.35 593.51 1168.35 622.27Z" fill="#F3AA97"></path><path d="M1426.64 661.68C1540.29 661.68 1632.42 644.362 1632.42 623C1632.42 601.638 1540.29 584.32 1426.64 584.32C1312.99 584.32 1220.86 601.638 1220.86 623C1220.86 644.362 1312.99 661.68 1426.64 661.68Z" fill="#EC9A90"></path><path d="M1422.68 661.93C1534.15 661.93 1624.51 644.944 1624.51 623.99C1624.51 603.036 1534.15 586.05 1422.68 586.05C1311.21 586.05 1220.85 603.036 1220.85 623.99C1220.85 644.944 1311.21 661.93 1422.68 661.93Z" fill="#EE6F5B"></path><path d="M1726.61 202.88L1727.46 448.55H1601.02C1601.02 448.55 1602.95 206.13 1603.65 201.67L1726.61 202.88Z" fill="#685247"></path><path d="M1715.67 213.17L1716.37 448.6H1612.12C1612.12 448.6 1613.71 216.29 1614.29 212.01L1715.67 213.17Z" fill="#3F312C"></path><g style="mix-blend-mode:multiply" opacity="0.4"><path d="M1688.52 460.03C1709.96 460.03 1727.34 457.303 1727.34 453.94C1727.34 450.577 1709.96 447.85 1688.52 447.85C1667.08 447.85 1649.7 450.577 1649.7 453.94C1649.7 457.303 1667.08 460.03 1688.52 460.03Z" fill="#9B9439"></path></g><path d="M1710.71 424.64C1718.64 425.2 1715.43 433.72 1714.79 436.89C1714.38 438.94 1713.61 440.74 1712.6 441.99C1711.68 443.51 1709.83 444.31 1708.03 443.82C1706.79 443.49 1705.84 442.62 1705.36 441.53C1702.9 436.85 1704.04 424.16 1710.71 424.64Z" fill="#DC8946"></path><path d="M1710.71 424.64C1718.64 425.2 1715.43 433.72 1714.79 436.89C1714.38 438.94 1713.61 440.74 1712.6 441.99C1711.68 443.51 1709.83 444.31 1708.03 443.82C1706.79 443.49 1705.84 442.62 1705.36 441.53C1702.9 436.85 1704.04 424.16 1710.71 424.64Z" stroke="#0D1C27" stroke-width="0.93" stroke-linecap="round" stroke-linejoin="round"></path><path d="M1713.2 439.15C1713.23 439.23 1713.26 439.3 1713.29 439.38C1714.06 441.05 1714.33 443.13 1714.65 444.28C1716.09 449.51 1717.04 451.66 1717.04 451.66L1711.9 451.59C1711.9 451.59 1708.07 446.48 1706.09 442.52C1706.07 442.49 1706.05 442.43 1706.03 442.35C1706 442.28 1705.96 442.2 1705.93 442.13C1705.08 440.05 1706.02 437.7 1708.02 436.88C1710.03 436.06 1712.34 437.08 1713.19 439.16L1713.2 439.15Z" fill="#DC8946"></path><path d="M1713.17 439.08C1713.2 439.16 1713.23 439.23 1713.26 439.31C1714.03 440.99 1714.3 443.09 1714.61 444.24C1716.04 449.51 1717 451.68 1717 451.68H1711.67C1711.67 451.68 1707.77 446.55 1705.76 442.58C1705.74 442.55 1705.72 442.49 1705.7 442.41C1705.66 442.34 1705.63 442.26 1705.6 442.19" stroke="#0D1C27" stroke-width="0.93" stroke-linecap="round" stroke-linejoin="round"></path><path d="M1716.53 454.816C1719.11 454.002 1720.72 451.839 1720.13 449.985C1719.55 448.132 1716.98 447.289 1714.41 448.104C1711.83 448.918 1710.22 451.081 1710.81 452.935C1711.39 454.788 1713.96 455.631 1716.53 454.816Z" fill="#FCDCC1"></path><path d="M1713.3 452.02C1713.38 453.96 1715.25 455.46 1717.49 455.37C1718.56 455.33 1719.53 454.92 1720.23 454.3C1720.99 453.63 1721.44 452.7 1721.4 451.69C1721.32 449.75 1719.45 448.25 1717.21 448.34C1715.84 448.4 1714.66 449.03 1713.96 449.96C1713.52 450.55 1713.27 451.26 1713.3 452.01V452.02Z" fill="#FCDCC1"></path><path d="M1713.3 452.02C1713.38 453.96 1715.25 455.46 1717.49 455.37C1718.56 455.33 1719.53 454.92 1720.23 454.3C1720.67 453.71 1720.92 453 1720.89 452.25C1720.81 450.31 1718.94 448.81 1716.7 448.9C1715.63 448.94 1714.66 449.35 1713.96 449.97C1713.52 450.56 1713.27 451.27 1713.3 452.02Z" fill="#231F20"></path><path d="M1712.46 452.26C1712.54 454.2 1714.41 455.7 1716.65 455.61C1717.06 455.59 1717.45 455.53 1717.81 455.41C1719.46 454.91 1720.62 453.52 1720.55 451.93C1720.47 449.99 1718.6 448.49 1716.36 448.58C1715.39 448.62 1714.51 448.95 1713.84 449.47C1712.95 450.15 1712.41 451.16 1712.46 452.26Z" fill="#FCDCC1"></path><path d="M1712.35 452.27C1712.43 454.21 1714.3 455.71 1716.54 455.62C1716.95 455.6 1717.34 455.54 1717.7 455.42C1718.59 454.74 1719.13 453.73 1719.08 452.63C1719 450.69 1717.13 449.19 1714.89 449.28C1714.48 449.3 1714.09 449.36 1713.73 449.48C1712.84 450.16 1712.3 451.17 1712.35 452.27Z" fill="#231F20"></path><path d="M1714.77 455.951C1717 455.861 1718.75 454.213 1718.67 452.271C1718.59 450.328 1716.72 448.826 1714.48 448.917C1712.25 449.007 1710.5 450.655 1710.58 452.597C1710.66 454.539 1712.53 456.041 1714.77 455.951Z" fill="#FCDCC1"></path><path d="M1711.05 450.85C1711.63 449.73 1712.83 448.75 1714.39 448.25C1716.04 447.73 1717.68 447.89 1718.8 448.56C1720.27 449.04 1721.33 450.24 1721.39 451.69C1721.43 452.7 1720.98 453.63 1720.22 454.3C1719.67 454.79 1718.97 455.13 1718.17 455.29C1718.05 455.34 1717.93 455.38 1717.8 455.42C1717.43 455.53 1717.04 455.6 1716.64 455.62C1716.62 455.62 1716.6 455.62 1716.58 455.62C1716.57 455.62 1716.55 455.62 1716.54 455.62C1716.5 455.62 1716.46 455.62 1716.42 455.62C1715.91 455.85 1715.35 455.99 1714.74 456.01C1712.51 456.1 1710.63 454.6 1710.55 452.66C1710.52 452 1710.71 451.38 1711.04 450.84L1711.05 450.85Z" stroke="#0D1C27" stroke-width="0.93" stroke-linecap="round" stroke-linejoin="round"></path><path d="M1675.22 436.08C1675.18 434.72 1675.86 433.37 1677.1 432.6C1678.96 431.46 1681.4 432.04 1682.54 433.9C1683.09 434.79 1683.24 435.82 1683.04 436.77C1682.77 440.94 1687.3 444.78 1687.3 444.78L1682.92 448.36C1682.92 448.36 1674.9 440.79 1675.22 436.08Z" fill="#DC8946"></path><path d="M1675.22 436.08C1675.18 434.72 1675.86 433.37 1677.1 432.6C1678.96 431.46 1681.4 432.04 1682.54 433.9C1683.09 434.79 1683.24 435.82 1683.04 436.77C1682.77 440.94 1687.3 444.78 1687.3 444.78L1682.92 448.36C1682.92 448.36 1674.9 440.79 1675.22 436.08Z" stroke="#0D1C27" stroke-width="0.93" stroke-linecap="round" stroke-linejoin="round"></path><path d="M1675.98 433.63C1676.83 432.01 1677.06 430.58 1676.39 426.5C1676.06 419.02 1679.37 410.91 1679.53 410.9C1679.53 410.9 1696.3 409.39 1696.88 419.01C1697.43 428.14 1683.83 437.31 1682.3 438.37C1681.61 439.21 1680.58 439.77 1679.41 439.82C1677.23 439.92 1675.38 438.23 1675.29 436.04C1675.25 435.14 1675.51 434.3 1675.99 433.61L1675.98 433.63Z" fill="#DC8946"></path><path d="M1675.28 436.06C1675.24 435.16 1675.5 434.32 1675.98 433.63C1676.83 432.01 1677.06 430.58 1676.39 426.5C1676.06 419.02 1679.37 410.91 1679.53 410.9C1679.53 410.9 1696.3 409.39 1696.88 419.01C1697.43 428.14 1683.83 437.31 1682.3 438.37" stroke="#0D1C27" stroke-width="0.93" stroke-linecap="round" stroke-linejoin="round"></path><path d="M1655.21 375.89C1656.87 376.41 1658.12 377.15 1659.03 378.07C1661.56 380.62 1661.51 384.51 1660.59 388.67C1660.44 389.36 1660.26 390.07 1660.07 390.77C1659.57 392.59 1658.96 394.44 1658.38 396.21C1654.98 406.59 1663.98 414.36 1674.53 410.24L1675.64 406.1C1675.64 406.1 1663.08 409.35 1664.09 400.75C1664.18 399.99 1664.38 399.13 1664.7 398.18C1664.73 398.09 1664.76 398 1664.79 397.91C1666.28 393.67 1667.72 388.26 1668.07 383.06C1668.17 381.63 1668.18 380.21 1668.09 378.84C1667.68 372.76 1665.22 367.54 1658.81 365.69C1656.94 365.15 1654.73 364.9 1652.14 364.99C1644.59 365.27 1647.91 373.59 1655.22 375.88L1655.21 375.89Z" fill="#F8A55A"></path><path d="M1655.21 375.89C1656.87 376.41 1658.12 377.15 1659.03 378.07C1660.47 376.48 1661.36 374.35 1661.36 372.01C1661.36 369.54 1660.38 367.31 1658.8 365.7C1656.93 365.16 1654.72 364.91 1652.13 365C1644.58 365.28 1647.9 373.6 1655.21 375.89Z" fill="#FCDCC1"></path><path d="M1655.21 375.89C1656.87 376.41 1658.12 377.15 1659.03 378.07C1661.56 380.62 1661.51 384.51 1660.59 388.67C1660.44 389.36 1660.26 390.07 1660.07 390.77C1659.57 392.59 1658.96 394.44 1658.38 396.21C1654.98 406.59 1663.98 414.36 1674.53 410.24L1675.64 406.1C1675.64 406.1 1663.08 409.35 1664.09 400.75C1664.18 399.99 1664.38 399.13 1664.7 398.18C1664.73 398.09 1664.76 398 1664.79 397.91C1666.28 393.67 1667.72 388.26 1668.07 383.06C1668.17 381.63 1668.18 380.21 1668.09 378.84C1667.68 372.76 1665.22 367.54 1658.81 365.69C1656.94 365.15 1654.73 364.9 1652.14 364.99C1644.59 365.27 1647.91 373.59 1655.22 375.88L1655.21 375.89Z" stroke="#0D1C27" stroke-width="0.93" stroke-linecap="round" stroke-linejoin="round"></path><path d="M1663.73 432.2C1664.63 436.26 1668.15 435.73 1670.65 434.33C1686.37 421.54 1694.65 436.51 1711.32 437.39C1726.1 439.52 1729.31 418.08 1729.06 409.11C1724.18 407.94 1718.05 406.46 1713.16 405.29C1700.59 419.02 1675.5 395.66 1667.08 412.23C1664.41 417.29 1662.61 428.3 1663.74 432.22L1663.73 432.2Z" fill="#FCDCC1"></path><path d="M1718.92 406.66C1719.21 408.15 1720.71 412.01 1721.43 416.88C1723.69 417.27 1726.07 417.53 1728.46 417.63C1729.15 412.85 1729.06 409.1 1729.06 409.1L1724.53 408.01L1721.93 407.39L1718.93 406.67L1718.92 406.66Z" fill="#E8C7AE"></path><path d="M1663.73 432.2C1664.63 436.26 1668.15 435.73 1670.65 434.33C1686.37 421.54 1694.65 436.51 1711.32 437.39C1726.1 439.52 1729.31 418.08 1729.06 409.11C1724.18 407.94 1718.05 406.46 1713.16 405.29C1700.59 419.02 1675.5 395.66 1667.08 412.23C1664.41 417.29 1662.61 428.3 1663.74 432.22L1663.73 432.2Z" stroke="#0D1C27" stroke-width="0.93" stroke-linecap="round" stroke-linejoin="round"></path><path d="M1663.73 432.2C1664.21 432.1 1665.4 433.79 1666.49 435.32C1667.93 435.58 1669.56 434.9 1670.65 434.33C1684.01 422.92 1693.15 434.34 1706.81 434.33C1715.6 434.73 1722.93 428.93 1721.49 417.27C1720.87 412.58 1719.21 408.07 1718.93 406.66L1713.16 405.27C1700.59 419 1675.5 395.64 1667.08 412.21C1664.41 417.27 1662.61 428.28 1663.74 432.2H1663.73Z" fill="#F8A55A"></path><path d="M1710.87 407.7C1710.94 407.68 1711.01 407.66 1711.08 407.64C1710.49 408.22 1709.92 408.9 1709.44 409.67C1709.02 410.33 1708.69 411.01 1708.43 411.68C1708.44 411.69 1708.45 411.7 1708.47 411.71C1711.02 414.11 1715.88 415.91 1721.42 416.88C1720.71 412.01 1719.21 408.15 1718.91 406.66L1713.14 405.27C1711.47 407.29 1709.04 408.52 1706.23 409.18C1706.25 409.21 1706.28 409.24 1706.3 409.27C1707.59 408.95 1708.79 408.51 1709.86 407.92C1710.2 407.85 1710.53 407.77 1710.87 407.68V407.7Z" fill="#DC8946"></path><path d="M1707.05 410.2C1707.26 410.45 1707.47 410.69 1707.69 410.93C1707.43 411.11 1707.3 411.22 1707.28 411.26C1707.27 411.31 1707.44 411.22 1707.79 411.04C1707.8 411.05 1707.82 411.07 1707.83 411.08C1708.03 411.29 1708.23 411.49 1708.43 411.68C1708.69 411.01 1709.02 410.33 1709.44 409.67C1709.93 408.89 1710.49 408.22 1711.08 407.64C1711.01 407.66 1710.94 407.68 1710.87 407.7C1710.54 407.79 1710.2 407.87 1709.86 407.94C1708.79 408.53 1707.59 408.97 1706.3 409.29C1706.53 409.59 1706.78 409.9 1707.04 410.21L1707.05 410.2Z" fill="#DC8946"></path><path d="M1663.73 432.2C1664.21 432.1 1665.4 433.79 1666.49 435.32C1667.93 435.58 1669.56 434.9 1670.65 434.33C1684.01 422.92 1693.15 434.34 1706.81 434.33C1715.6 434.73 1722.93 428.93 1721.49 417.27C1720.87 412.58 1719.21 408.07 1718.93 406.66L1713.16 405.27C1700.59 419 1675.5 395.64 1667.08 412.21C1664.41 417.27 1662.61 428.28 1663.74 432.2H1663.73Z" stroke="#0D1C27" stroke-width="0.93" stroke-linecap="round" stroke-linejoin="round"></path><path d="M1660.73 441.03C1660.73 443.21 1662.5 444.98 1664.68 444.98C1665.85 444.98 1666.91 444.47 1667.63 443.66C1669.21 442.67 1683.2 434.11 1683.06 424.96C1682.91 415.33 1665.8 415.23 1665.8 415.23C1665.65 415.23 1661.76 424.06 1662.2 431.54C1662.2 431.59 1662.2 431.63 1662.2 431.68C1662.31 433.63 1662.38 434.96 1662.31 435.99C1662.23 437.08 1662.01 437.84 1661.54 438.64C1661.03 439.3 1660.73 440.13 1660.73 441.03Z" fill="#F8A55A"></path><path d="M1665.79 415.22C1665.64 415.22 1661.75 424.05 1662.19 431.53C1662.19 431.58 1662.19 431.62 1662.19 431.67C1662.3 433.62 1662.37 434.95 1662.3 435.98C1662.22 437.07 1662 437.83 1661.53 438.63C1661.02 439.29 1660.72 440.12 1660.72 441.02C1660.72 443.2 1662.49 444.97 1664.67 444.97C1665.84 444.97 1666.9 444.46 1667.62 443.65C1669.2 442.66 1683.19 434.1 1683.05 424.95" stroke="#0D1C27" stroke-width="0.93" stroke-linecap="round" stroke-linejoin="round"></path><path d="M1659.41 452.89L1665.06 453.03C1665.06 453.03 1664.13 447.17 1667.05 444.18C1667.82 443.59 1668.37 442.71 1668.54 441.68C1668.89 439.52 1667.42 437.5 1665.26 437.15C1663.81 436.92 1662.43 437.5 1661.56 438.56C1660.84 439.29 1660.33 440.39 1659.97 441.66C1659.71 442.57 1659.54 443.57 1659.42 444.58C1658.95 448.61 1659.4 452.89 1659.4 452.89H1659.41Z" fill="#F8A55A"></path><path d="M1661.57 438.56C1660.85 439.29 1660.34 440.39 1659.98 441.66C1659.72 442.57 1659.55 443.57 1659.43 444.58C1658.96 448.61 1659.41 452.89 1659.41 452.89L1665.06 453.03C1665.06 453.03 1664.13 447.17 1667.05 444.18" stroke="#0D1C27" stroke-width="0.93" stroke-linecap="round" stroke-linejoin="round"></path><path d="M1714.07 422.51C1721.87 420.98 1721 430.04 1721.21 433.26C1721.35 435.35 1721.08 437.28 1720.43 438.76C1719.94 440.47 1718.36 441.72 1716.5 441.72C1715.22 441.72 1714.08 441.13 1713.33 440.21C1709.73 436.33 1707.51 423.79 1714.08 422.51H1714.07Z" fill="#F8A55A"></path><path d="M1720.97 428.44C1721.2 430.29 1721.14 432.13 1721.21 433.26C1721.35 435.35 1721.08 437.28 1720.43 438.76C1719.94 440.47 1718.36 441.72 1716.5 441.72C1715.22 441.72 1714.08 441.13 1713.33 440.21C1711.45 438.19 1709.95 433.81 1709.87 429.9" stroke="#0D1C27" stroke-width="0.93" stroke-linecap="round" stroke-linejoin="round"></path><path d="M1712.54 437.53C1712.54 439.73 1714.34 441.52 1716.55 441.52C1716.63 441.52 1716.71 441.52 1716.79 441.52C1716.87 441.52 1716.93 441.53 1716.97 441.52C1721.32 441.18 1727.42 439.55 1727.42 439.55L1729.4 434.74C1729.4 434.74 1727.99 434.78 1724.87 434.49C1724.26 434.43 1723.58 434.36 1722.83 434.28C1722.66 434.26 1722.48 434.24 1722.3 434.22C1722.13 434.2 1721.95 434.18 1721.78 434.16C1721.38 434.11 1720.88 434.01 1720.32 433.91C1719.26 433.72 1718 433.5 1716.81 433.55C1716.73 433.55 1716.65 433.55 1716.57 433.55C1714.36 433.55 1712.56 435.34 1712.56 437.54L1712.54 437.53Z" fill="#F8A55A"></path><path d="M1713.45 440.35C1714.2 441.15 1715.11 441.72 1716.29 441.72C1716.37 441.72 1716.46 441.72 1716.54 441.72C1716.62 441.72 1716.69 441.73 1716.72 441.72C1721.16 441.37 1727.38 439.7 1727.38 439.7L1729.4 434.77C1729.4 434.77 1727.97 434.81 1724.78 434.51C1724.15 434.45 1723.46 434.38 1722.69 434.29C1722.51 434.27 1722.33 434.25 1722.15 434.23C1721.98 434.21 1721.8 434.19 1721.61 434.16C1721.2 434.11 1720.69 434.01 1720.12 433.91" stroke="#0D1C27" stroke-width="0.93" stroke-linecap="round" stroke-linejoin="round"></path><path d="M1729.96 439.009C1732.54 438.195 1734.15 436.032 1733.56 434.178C1732.98 432.325 1730.41 431.482 1727.84 432.297C1725.26 433.111 1723.65 435.274 1724.24 437.127C1724.82 438.981 1727.39 439.823 1729.96 439.009Z" fill="#FCDCC1"></path><path d="M1726.74 436.22C1726.82 438.16 1728.69 439.66 1730.93 439.57C1732 439.53 1732.97 439.12 1733.67 438.5C1734.43 437.83 1734.88 436.9 1734.84 435.89C1734.76 433.95 1732.89 432.45 1730.65 432.54C1729.28 432.6 1728.1 433.23 1727.4 434.16C1726.96 434.75 1726.71 435.46 1726.74 436.21V436.22Z" fill="#FCDCC1"></path><path d="M1726.74 436.22C1726.82 438.16 1728.69 439.66 1730.93 439.57C1732 439.53 1732.97 439.12 1733.67 438.5C1734.11 437.91 1734.36 437.2 1734.33 436.45C1734.25 434.51 1732.38 433.01 1730.14 433.1C1729.07 433.14 1728.1 433.55 1727.4 434.17C1726.96 434.76 1726.71 435.47 1726.74 436.22Z" fill="#231F20"></path><path d="M1725.89 436.46C1725.97 438.4 1727.84 439.9 1730.08 439.81C1730.49 439.79 1730.88 439.73 1731.24 439.61C1732.89 439.11 1734.05 437.72 1733.98 436.13C1733.9 434.19 1732.03 432.69 1729.79 432.78C1728.82 432.82 1727.94 433.15 1727.27 433.67C1726.38 434.35 1725.84 435.36 1725.89 436.46Z" fill="#FCDCC1"></path><path d="M1725.79 436.47C1725.87 438.41 1727.74 439.91 1729.98 439.82C1730.39 439.8 1730.78 439.74 1731.14 439.62C1732.03 438.94 1732.57 437.93 1732.52 436.83C1732.44 434.89 1730.57 433.39 1728.33 433.48C1727.92 433.5 1727.53 433.56 1727.17 433.68C1726.28 434.36 1725.74 435.37 1725.79 436.47Z" fill="#231F20"></path><path d="M1728.21 440.152C1730.44 440.062 1732.19 438.414 1732.11 436.472C1732.04 434.529 1730.16 433.028 1727.93 433.118C1725.69 433.208 1723.94 434.856 1724.02 436.798C1724.1 438.741 1725.97 440.242 1728.21 440.152Z" fill="#FCDCC1"></path><path d="M1724.49 435.04C1725.07 433.92 1726.27 432.94 1727.83 432.44C1729.48 431.92 1731.12 432.08 1732.24 432.75C1733.71 433.23 1734.77 434.43 1734.83 435.88C1734.87 436.89 1734.42 437.82 1733.66 438.49C1733.11 438.98 1732.41 439.32 1731.61 439.48C1731.49 439.53 1731.37 439.57 1731.24 439.61C1730.87 439.72 1730.48 439.79 1730.08 439.81C1730.06 439.81 1730.04 439.81 1730.02 439.81C1730.01 439.81 1729.99 439.81 1729.98 439.81C1729.94 439.81 1729.9 439.81 1729.86 439.81C1729.35 440.04 1728.79 440.18 1728.18 440.2C1725.95 440.29 1724.07 438.79 1723.99 436.85C1723.96 436.19 1724.15 435.57 1724.48 435.03L1724.49 435.04Z" stroke="#0D1C27" stroke-width="0.93" stroke-linecap="round" stroke-linejoin="round"></path><path d="M1687.07 449.153C1689.64 448.339 1691.25 446.176 1690.67 444.322C1690.08 442.469 1687.52 441.626 1684.94 442.441C1682.37 443.255 1680.76 445.418 1681.34 447.271C1681.93 449.125 1684.49 449.967 1687.07 449.153Z" fill="#FCDCC1"></path><path d="M1683.84 446.36C1683.92 448.3 1685.79 449.8 1688.03 449.71C1689.1 449.67 1690.07 449.26 1690.77 448.64C1691.53 447.97 1691.98 447.04 1691.94 446.03C1691.86 444.09 1689.99 442.59 1687.75 442.68C1686.38 442.74 1685.2 443.37 1684.5 444.3C1684.06 444.89 1683.81 445.6 1683.84 446.35V446.36Z" fill="#FCDCC1"></path><path d="M1683.84 446.36C1683.92 448.3 1685.79 449.8 1688.03 449.71C1689.1 449.67 1690.07 449.26 1690.77 448.64C1691.21 448.05 1691.46 447.34 1691.43 446.59C1691.35 444.65 1689.48 443.15 1687.24 443.24C1686.17 443.28 1685.2 443.69 1684.5 444.31C1684.06 444.9 1683.81 445.61 1683.84 446.36Z" fill="#231F20"></path><path d="M1683 446.6C1683.08 448.54 1684.95 450.04 1687.19 449.95C1687.6 449.93 1687.99 449.87 1688.35 449.75C1690 449.25 1691.16 447.86 1691.09 446.27C1691.01 444.33 1689.14 442.83 1686.9 442.92C1685.93 442.96 1685.05 443.29 1684.38 443.81C1683.49 444.49 1682.95 445.5 1683 446.6Z" fill="#FCDCC1"></path><path d="M1682.89 446.61C1682.97 448.55 1684.84 450.05 1687.08 449.96C1687.49 449.94 1687.88 449.88 1688.24 449.76C1689.13 449.08 1689.67 448.07 1689.62 446.97C1689.54 445.03 1687.67 443.53 1685.43 443.62C1685.02 443.64 1684.63 443.7 1684.27 443.82C1683.38 444.5 1682.84 445.51 1682.89 446.61Z" fill="#231F20"></path><path d="M1685.3 450.293C1687.54 450.203 1689.29 448.555 1689.21 446.612C1689.13 444.67 1687.25 443.168 1685.02 443.259C1682.78 443.349 1681.04 444.997 1681.11 446.939C1681.19 448.881 1683.07 450.383 1685.3 450.293Z" fill="#FCDCC1"></path><path d="M1681.59 445.19C1682.17 444.07 1683.37 443.09 1684.93 442.59C1686.58 442.07 1688.22 442.23 1689.34 442.9C1690.81 443.38 1691.87 444.58 1691.93 446.03C1691.97 447.04 1691.52 447.97 1690.76 448.64C1690.21 449.13 1689.51 449.47 1688.71 449.63C1688.59 449.68 1688.47 449.72 1688.34 449.76C1687.97 449.87 1687.58 449.94 1687.18 449.96C1687.16 449.96 1687.14 449.96 1687.12 449.96C1687.11 449.96 1687.09 449.96 1687.08 449.96C1687.04 449.96 1687 449.96 1686.96 449.96C1686.45 450.19 1685.89 450.33 1685.28 450.35C1683.05 450.44 1681.17 448.94 1681.09 447C1681.06 446.34 1681.25 445.72 1681.58 445.18L1681.59 445.19Z" stroke="#0D1C27" stroke-width="0.93" stroke-linecap="round" stroke-linejoin="round"></path><path d="M1664.24 456.658C1666.82 455.844 1668.43 453.681 1667.84 451.827C1667.26 449.974 1664.69 449.131 1662.12 449.946C1659.54 450.76 1657.93 452.923 1658.52 454.776C1659.1 456.63 1661.67 457.472 1664.24 456.658Z" fill="#FCDCC1"></path><path d="M1661.01 453.86C1661.09 455.8 1662.96 457.3 1665.2 457.21C1666.27 457.17 1667.24 456.76 1667.94 456.14C1668.7 455.47 1669.15 454.54 1669.11 453.53C1669.03 451.59 1667.16 450.09 1664.92 450.18C1663.55 450.24 1662.37 450.87 1661.67 451.8C1661.23 452.39 1660.98 453.1 1661.01 453.85V453.86Z" fill="#FCDCC1"></path><path d="M1661.01 453.86C1661.09 455.8 1662.96 457.3 1665.2 457.21C1666.27 457.17 1667.24 456.76 1667.94 456.14C1668.38 455.55 1668.63 454.84 1668.6 454.09C1668.52 452.15 1666.65 450.65 1664.41 450.74C1663.34 450.78 1662.37 451.19 1661.67 451.81C1661.23 452.4 1660.98 453.11 1661.01 453.86Z" fill="#231F20"></path><path d="M1660.17 454.11C1660.25 456.05 1662.12 457.55 1664.36 457.46C1664.77 457.44 1665.16 457.38 1665.52 457.26C1667.17 456.76 1668.33 455.37 1668.26 453.78C1668.18 451.84 1666.31 450.34 1664.07 450.43C1663.1 450.47 1662.22 450.8 1661.55 451.32C1660.66 452 1660.12 453.01 1660.17 454.11Z" fill="#FCDCC1"></path><path d="M1660.06 454.11C1660.14 456.05 1662.01 457.55 1664.25 457.46C1664.66 457.44 1665.05 457.38 1665.41 457.26C1666.3 456.58 1666.84 455.57 1666.79 454.47C1666.71 452.53 1664.84 451.03 1662.6 451.12C1662.19 451.14 1661.8 451.2 1661.44 451.32C1660.55 452 1660.01 453.01 1660.06 454.11Z" fill="#231F20"></path><path d="M1662.47 457.797C1664.71 457.707 1666.46 456.059 1666.38 454.117C1666.3 452.174 1664.42 450.673 1662.19 450.763C1659.95 450.853 1658.21 452.501 1658.28 454.443C1658.36 456.386 1660.24 457.887 1662.47 457.797Z" fill="#FCDCC1"></path><path d="M1658.76 452.69C1659.34 451.57 1660.54 450.59 1662.1 450.09C1663.75 449.57 1665.39 449.73 1666.51 450.4C1667.98 450.88 1669.04 452.08 1669.1 453.53C1669.14 454.54 1668.69 455.47 1667.93 456.14C1667.38 456.63 1666.68 456.97 1665.88 457.13C1665.76 457.18 1665.64 457.22 1665.51 457.26C1665.14 457.37 1664.75 457.44 1664.35 457.46C1664.33 457.46 1664.31 457.46 1664.29 457.46C1664.28 457.46 1664.26 457.46 1664.25 457.46C1664.21 457.46 1664.17 457.46 1664.13 457.46C1663.62 457.69 1663.06 457.83 1662.45 457.85C1660.22 457.94 1658.34 456.44 1658.26 454.5C1658.23 453.84 1658.42 453.22 1658.75 452.68L1658.76 452.69Z" stroke="#0D1C27" stroke-width="0.93" stroke-linecap="round" stroke-linejoin="round"></path><path d="M1751.44 408.58C1751.27 408.73 1750.77 409.27 1749.96 410.02C1749.93 410.05 1749.89 410.08 1749.85 410.12C1749.54 410.4 1749.19 410.7 1748.8 411.01C1748.7 411.09 1748.59 411.18 1748.48 411.26C1747.91 411.7 1747.26 412.17 1746.54 412.63C1746.45 412.69 1746.36 412.74 1746.27 412.8C1746.21 412.84 1746.14 412.88 1746.08 412.92C1741.97 415.37 1734.73 417.66 1723.74 415.05C1713.99 412.73 1707.79 407.23 1704.8 402.99C1704.75 402.92 1704.7 402.85 1704.66 402.78C1704.11 401.98 1703.68 401.23 1703.36 400.56C1703.35 400.53 1703.33 400.5 1703.32 400.47C1703.26 400.34 1703.2 400.22 1703.15 400.09C1702.95 399.64 1702.77 399.22 1702.63 398.84C1702.61 398.79 1702.59 398.73 1702.57 398.68C1702.19 397.69 1702 397 1701.92 396.8C1702.32 397.01 1702.67 397.1 1702.99 397.1C1702.21 396.62 1701.38 395.61 1701.54 393.45C1702.14 394.29 1702.82 394.65 1703.48 394.73C1703.08 394.25 1702.79 393.49 1702.88 392.28C1703.83 393.61 1705.01 393.44 1705.91 392.99C1706.63 392.51 1707.17 391.63 1707.66 390.57C1707.98 389.87 1708.27 389.1 1708.57 388.31C1708.68 388.03 1708.78 387.75 1708.89 387.47C1709.2 386.66 1709.54 385.86 1709.92 385.14C1710.06 384.88 1710.2 384.63 1710.36 384.4C1710.36 384.4 1710.36 384.39 1710.37 384.38C1710.41 384.32 1710.44 384.27 1710.48 384.21C1710.5 384.18 1710.53 384.14 1710.55 384.1C1711.08 383.33 1711.69 382.6 1712.37 381.93C1714.58 379.75 1717.53 378.15 1720.94 377.32C1722.4 376.97 1723.95 376.75 1725.57 376.7C1725.79 376.7 1726 376.69 1726.22 376.69C1727.38 376.68 1728.58 376.75 1729.8 376.91C1730.48 376.67 1731.1 376.14 1730.91 375C1731.41 375.44 1731.68 375.85 1731.81 376.22C1732.21 375.48 1733.1 374.7 1735.06 374.66C1734.27 375.33 1734.02 376.03 1734.04 376.69C1734.39 376.28 1734.98 375.91 1735.94 375.7C1735.05 376.83 1735.42 377.78 1736.01 378.45C1736.96 378.81 1737.87 379.21 1738.73 379.65C1739.12 379.85 1739.51 380.06 1739.88 380.28C1741.07 380.97 1742.17 381.75 1743.16 382.59C1745.85 384.87 1747.78 387.63 1748.77 390.59C1749.11 391.59 1749.34 392.6 1749.46 393.63C1749.46 393.64 1749.46 393.65 1749.46 393.67C1749.49 393.95 1749.51 394.25 1749.52 394.54C1749.54 395.4 1749.47 396.31 1749.38 397.22C1749.27 398.32 1749.14 399.42 1749.1 400.43C1749.06 401.44 1749.13 402.35 1749.42 403.05C1749.46 403.16 1749.51 403.26 1749.57 403.36C1750.17 404.17 1751.14 404.85 1752.6 404.09C1752.14 405.2 1751.54 405.75 1750.97 406.01C1751.6 406.24 1752.36 406.22 1753.28 405.74C1752.45 407.74 1751.26 408.28 1750.34 408.35C1750.62 408.49 1750.98 408.57 1751.43 408.56L1751.44 408.58Z" fill="#FCDCC1"></path><path d="M1751.44 408.58C1751.27 408.73 1750.77 409.27 1749.96 410.02C1749.93 410.05 1749.89 410.08 1749.85 410.12C1749.54 410.4 1749.19 410.7 1748.8 411.01C1748.7 411.09 1748.59 411.18 1748.48 411.26C1747.91 411.7 1747.26 412.17 1746.54 412.63C1746.38 412.63 1746.22 412.61 1746.06 412.6C1745.92 412.6 1745.78 412.58 1745.64 412.57C1739.56 412.03 1732.69 408.54 1730.74 404.02C1728.49 398.79 1730.38 391.24 1730.55 388.22C1730.63 386.87 1730.07 387.11 1729.56 388.76C1727.03 396.98 1724.89 399.63 1722.57 401.92C1718.52 405.91 1711.93 405.52 1706.56 402.68C1706.4 402.6 1706.25 402.51 1706.1 402.43C1705.13 401.88 1704.2 401.26 1703.35 400.56C1703.34 400.53 1703.32 400.5 1703.31 400.47C1703.25 400.34 1703.19 400.22 1703.14 400.09C1702.94 399.64 1702.76 399.22 1702.62 398.84C1702.6 398.79 1702.58 398.73 1702.56 398.68C1702.18 397.69 1701.99 397 1701.91 396.8C1702.31 397.01 1702.66 397.1 1702.98 397.1C1702.2 396.62 1701.37 395.61 1701.53 393.45C1702.13 394.29 1702.81 394.65 1703.47 394.73C1703.07 394.25 1702.78 393.49 1702.87 392.28C1703.82 393.61 1705 393.44 1705.9 392.99C1706.62 392.51 1707.16 391.63 1707.65 390.57C1707.97 389.87 1708.26 389.1 1708.56 388.31C1708.67 388.03 1708.77 387.75 1708.88 387.47C1709.19 386.66 1709.53 385.86 1709.91 385.14C1710.05 384.88 1710.19 384.63 1710.35 384.4C1710.35 384.4 1710.35 384.39 1710.36 384.38C1710.4 384.32 1710.43 384.27 1710.47 384.21C1710.49 384.18 1710.52 384.14 1710.54 384.1C1711.07 383.33 1711.68 382.6 1712.36 381.93C1714.57 379.75 1717.52 378.15 1720.93 377.32C1722.39 376.97 1723.94 376.75 1725.56 376.7C1725.78 376.7 1725.99 376.69 1726.21 376.69C1727.37 376.68 1728.57 376.75 1729.79 376.91C1730.47 376.67 1731.09 376.14 1730.9 375C1731.4 375.44 1731.67 375.85 1731.8 376.22C1732.2 375.48 1733.09 374.7 1735.05 374.66C1734.26 375.33 1734.01 376.03 1734.03 376.69C1734.38 376.28 1734.97 375.91 1735.93 375.7C1735.04 376.83 1735.41 377.78 1736 378.45C1736.95 378.81 1737.86 379.21 1738.72 379.65C1739.11 379.85 1739.5 380.06 1739.87 380.28C1741.06 380.97 1742.16 381.75 1743.15 382.59C1745.84 384.87 1747.77 387.63 1748.76 390.59C1749.1 391.59 1749.33 392.6 1749.45 393.63C1749.45 393.64 1749.45 393.65 1749.45 393.67C1749.48 393.95 1749.5 394.25 1749.51 394.54C1749.53 395.4 1749.46 396.31 1749.37 397.22C1749.26 398.32 1749.13 399.42 1749.09 400.43C1749.05 401.44 1749.12 402.35 1749.41 403.05C1749.45 403.16 1749.5 403.26 1749.56 403.36C1750.16 404.17 1751.13 404.85 1752.59 404.09C1752.13 405.2 1751.53 405.75 1750.96 406.01C1751.59 406.24 1752.35 406.22 1753.27 405.74C1752.44 407.74 1751.25 408.28 1750.33 408.35C1750.61 408.49 1750.97 408.57 1751.42 408.56L1751.44 408.58Z" fill="#F8A55A"></path><path d="M1751.44 408.58C1751.27 408.73 1750.77 409.27 1749.96 410.02C1749.93 410.05 1749.89 410.08 1749.85 410.12C1749.54 410.4 1749.19 410.7 1748.8 411.01C1748.7 411.09 1748.59 411.18 1748.48 411.26C1747.91 411.7 1747.26 412.17 1746.54 412.63C1746.45 412.69 1746.36 412.74 1746.27 412.8C1746.21 412.84 1746.14 412.88 1746.08 412.92C1741.97 415.37 1734.73 417.66 1723.74 415.05C1713.99 412.73 1707.79 407.23 1704.8 402.99C1704.75 402.92 1704.7 402.85 1704.66 402.78C1704.11 401.98 1703.68 401.23 1703.36 400.56C1703.35 400.53 1703.33 400.5 1703.32 400.47C1703.26 400.34 1703.2 400.22 1703.15 400.09C1702.95 399.64 1702.77 399.22 1702.63 398.84C1702.61 398.79 1702.59 398.73 1702.57 398.68C1702.19 397.69 1702 397 1701.92 396.8C1702.32 397.01 1702.67 397.1 1702.99 397.1C1702.21 396.62 1701.38 395.61 1701.54 393.45C1702.14 394.29 1702.82 394.65 1703.48 394.73C1703.08 394.25 1702.79 393.49 1702.88 392.28C1703.83 393.61 1705.01 393.44 1705.91 392.99C1706.63 392.51 1707.17 391.63 1707.66 390.57C1707.98 389.87 1708.27 389.1 1708.57 388.31C1708.68 388.03 1708.78 387.75 1708.89 387.47C1709.2 386.66 1709.54 385.86 1709.92 385.14C1710.06 384.88 1710.2 384.63 1710.36 384.4C1710.36 384.4 1710.36 384.39 1710.37 384.38C1710.41 384.32 1710.44 384.27 1710.48 384.21C1710.5 384.18 1710.53 384.14 1710.55 384.1C1711.08 383.33 1711.69 382.6 1712.37 381.93C1714.58 379.75 1717.53 378.15 1720.94 377.32C1722.4 376.97 1723.95 376.75 1725.57 376.7C1725.79 376.7 1726 376.69 1726.22 376.69C1727.38 376.68 1728.58 376.75 1729.8 376.91C1730.48 376.67 1731.1 376.14 1730.91 375C1731.41 375.44 1731.68 375.85 1731.81 376.22C1732.21 375.48 1733.1 374.7 1735.06 374.66C1734.27 375.33 1734.02 376.03 1734.04 376.69C1734.39 376.28 1734.98 375.91 1735.94 375.7C1735.05 376.83 1735.42 377.78 1736.01 378.45C1736.96 378.81 1737.87 379.21 1738.73 379.65C1739.12 379.85 1739.51 380.06 1739.88 380.28C1741.07 380.97 1742.17 381.75 1743.16 382.59C1745.85 384.87 1747.78 387.63 1748.77 390.59C1749.11 391.59 1749.34 392.6 1749.46 393.63C1749.46 393.64 1749.46 393.65 1749.46 393.67C1749.49 393.95 1749.51 394.25 1749.52 394.54C1749.54 395.4 1749.47 396.31 1749.38 397.22C1749.27 398.32 1749.14 399.42 1749.1 400.43C1749.06 401.44 1749.13 402.35 1749.42 403.05C1749.46 403.16 1749.51 403.26 1749.57 403.36C1750.17 404.17 1751.14 404.85 1752.6 404.09C1752.14 405.2 1751.54 405.75 1750.97 406.01C1751.6 406.24 1752.36 406.22 1753.28 405.74C1752.45 407.74 1751.26 408.28 1750.34 408.35C1750.62 408.49 1750.98 408.57 1751.43 408.56L1751.44 408.58Z" stroke="#0D1C27" stroke-width="0.93" stroke-linecap="round" stroke-linejoin="round"></path><path d="M1762.54 416.49C1762.57 416.64 1761.44 415.75 1759.03 414.31C1756.62 412.89 1752.94 410.91 1747.93 409.43C1744.76 408.52 1743.06 408.23 1742.23 408.04C1741.39 407.87 1741.43 407.8 1741.56 407.76C1741.7 407.7 1741.92 407.68 1742.88 407.78C1743.84 407.89 1745.53 408.12 1748.5 408.96C1753.99 410.62 1757.36 412.66 1759.5 414.08C1761.62 415.54 1762.5 416.36 1762.55 416.5L1762.54 416.49Z" fill="#2F2138"></path><path d="M1759.97 412.04C1760.03 412.19 1758.8 411.48 1756.28 410.43C1753.76 409.4 1749.95 408.02 1744.99 407.34C1741.86 406.94 1740.21 406.92 1739.4 406.87C1738.59 406.83 1738.61 406.76 1738.72 406.7C1738.84 406.62 1739.04 406.56 1739.96 406.5C1740.87 406.46 1742.5 406.41 1745.43 406.78C1750.87 407.55 1754.41 409.06 1756.67 410.13C1758.92 411.24 1759.9 411.93 1759.98 412.05L1759.97 412.04Z" fill="#2F2138"></path><path d="M1755.55 416.88C1755.55 417.01 1754.77 416.22 1753.05 414.91C1751.32 413.62 1748.66 411.81 1744.86 410.34C1742.46 409.43 1741.14 409.11 1740.5 408.91C1739.85 408.73 1739.89 408.67 1740 408.64C1740.12 408.6 1740.3 408.59 1741.05 408.72C1741.8 408.86 1743.12 409.13 1745.37 409.97C1749.52 411.61 1751.93 413.46 1753.44 414.73C1754.93 416.03 1755.52 416.76 1755.54 416.87L1755.55 416.88Z" fill="#2F2138"></path><path d="M1688.21 398.82C1688.11 398.94 1689.53 398.66 1692.33 398.45C1695.12 398.26 1699.3 398.16 1704.44 399.09C1707.68 399.7 1709.33 400.21 1710.16 400.42C1710.99 400.65 1710.98 400.57 1710.89 400.47C1710.79 400.36 1710.6 400.24 1709.7 399.89C1708.8 399.56 1707.18 399 1704.15 398.42C1698.5 397.43 1694.57 397.74 1692.03 398.04C1689.49 398.39 1688.33 398.73 1688.22 398.82H1688.21Z" fill="#2F2138"></path><path d="M1692.51 396C1692.39 396.11 1693.81 396.03 1696.54 396.22C1699.25 396.43 1703.28 396.92 1708.01 398.54C1710.99 399.59 1712.47 400.32 1713.21 400.63C1713.95 400.97 1713.97 400.89 1713.9 400.78C1713.83 400.66 1713.67 400.51 1712.88 400.05C1712.08 399.6 1710.65 398.83 1707.87 397.84C1702.66 396.08 1698.83 395.83 1696.33 395.77C1693.82 395.75 1692.63 395.92 1692.51 396Z" fill="#2F2138"></path><path d="M1694.27 402.31C1694.21 402.42 1695.26 402.07 1697.39 401.68C1699.51 401.3 1702.71 400.89 1706.76 401.28C1709.32 401.55 1710.64 401.86 1711.3 401.97C1711.96 402.1 1711.95 402.03 1711.86 401.96C1711.77 401.87 1711.61 401.78 1710.88 401.56C1710.15 401.35 1708.85 401 1706.46 400.73C1702.01 400.32 1699.03 400.89 1697.11 401.35C1695.19 401.84 1694.34 402.23 1694.27 402.32V402.31Z" fill="#2F2138"></path><path d="M1730.91 409.05C1730.91 409.05 1730.04 411.17 1728.32 412.57C1727.22 413.47 1725.77 414.08 1723.97 413.66C1722.39 413.28 1721.37 412.28 1720.7 411.13C1719.43 408.93 1719.48 406.17 1719.48 406.17C1722.83 409.92 1725.75 406 1725.75 406.17C1725.61 410.43 1730.91 409.05 1730.91 409.05Z" fill="#23130C"></path><path d="M1728.32 412.58C1727.22 413.48 1725.77 414.09 1723.97 413.67C1722.39 413.29 1721.37 412.29 1720.7 411.14C1721.68 410.25 1723.27 409.3 1724.58 410.93C1724.58 410.93 1726.64 409.66 1728.32 412.58Z" fill="#BA2030"></path><path d="M1729.83 404.56C1729.7 405.12 1726.91 406.44 1725.84 406.19C1724.77 405.94 1722.88 403.5 1723.01 402.94C1723.14 402.38 1724.78 402.3 1726.66 402.74C1728.54 403.19 1729.96 404 1729.83 404.56Z" fill="#E85232"></path><path d="M1729 402.75C1728.82 403.08 1727.89 402.59 1726.7 402.3C1725.51 401.98 1724.46 402.01 1724.45 401.66C1724.42 401.33 1725.61 400.68 1727.01 401.01C1728.42 401.32 1729.19 402.44 1729 402.75Z" fill="#E8C7AE"></path><path d="M1749.17 393.99C1748.08 393.61 1746.93 392.98 1745.7 392.09C1742.76 389.94 1740.13 386.73 1738.98 383.86C1738.36 382.31 1738.18 380.86 1738.62 379.74C1739.9 378.87 1741.75 377.91 1744.33 377.17C1746.85 376.45 1750.07 375.94 1754.13 375.96C1754.47 377.56 1754.39 379.77 1754 382.12C1753.25 386.64 1751.37 391.69 1749.17 393.97V393.99Z" fill="#F8A55A"></path><path d="M1738.62 379.75C1739.9 378.88 1741.75 377.92 1744.33 377.18C1746.85 376.46 1750.07 375.95 1754.13 375.97C1754.47 377.57 1754.39 379.78 1754 382.13C1753.25 386.65 1751.37 391.7 1749.17 393.98" stroke="#0D1C27" stroke-width="0.93" stroke-linecap="round" stroke-linejoin="round"></path><path d="M1750.25 391.01C1749.16 390.86 1747.91 390.35 1746.54 389.4C1744.46 387.97 1742.57 385.86 1741.71 384.01C1742.08 383.52 1743.75 381.58 1747.6 380.45C1749.07 380.02 1750.85 379.71 1753.01 379.64C1753.19 380.75 1753.07 382.32 1752.76 383.99C1752.28 386.49 1751.35 389.21 1750.25 391V391.01Z" fill="#E85232"></path><path d="M1710.46 384.79C1711.6 384.94 1712.92 384.9 1714.41 384.66C1718.01 384.07 1721.8 382.38 1724.11 380.34C1725.36 379.23 1726.18 378.02 1726.29 376.83C1725.54 375.48 1724.32 373.79 1722.35 371.97C1720.42 370.19 1717.77 368.29 1714.14 366.48C1713.12 367.76 1712.2 369.76 1711.49 372.04C1710.12 376.41 1709.53 381.77 1710.47 384.8L1710.46 384.79Z" fill="#F8A55A"></path><path d="M1726.28 376.81C1725.53 375.46 1724.31 373.77 1722.34 371.95C1720.41 370.17 1717.76 368.27 1714.13 366.46C1713.11 367.74 1712.19 369.74 1711.48 372.02C1710.11 376.39 1709.52 381.75 1710.46 384.78" stroke="#0D1C27" stroke-width="0.93" stroke-linecap="round" stroke-linejoin="round"></path><path d="M1710.83 381.63C1711.88 381.99 1713.22 382.09 1714.87 381.87C1717.37 381.53 1720.01 380.5 1721.6 379.23C1721.49 378.62 1720.87 376.14 1717.94 373.4C1716.82 372.36 1715.37 371.27 1713.48 370.24C1712.82 371.15 1712.22 372.6 1711.75 374.24C1711.05 376.68 1710.66 379.54 1710.83 381.63Z" fill="#E85232"></path><path d="M1723.14 396.94C1723.26 394.97 1721.77 392.77 1719.33 391.57C1717.92 390.87 1716.43 390.63 1715.15 390.81C1713.91 390.98 1712.86 391.53 1712.22 392.41C1712.84 392 1713.59 391.74 1714.42 391.63C1715.85 391.44 1717.51 391.7 1719.08 392.48C1721.18 393.51 1722.65 395.21 1723.14 396.94Z" fill="#262626"></path><path d="M1732.61 399.19C1733.39 397.38 1735.71 396.08 1738.43 396.11C1740.01 396.12 1741.44 396.58 1742.51 397.31C1743.54 398.02 1744.24 398.98 1744.41 400.06C1744.04 399.42 1743.48 398.85 1742.8 398.37C1741.61 397.55 1740.01 397.04 1738.26 397.03C1735.92 397.01 1733.84 397.87 1732.62 399.19H1732.61Z" fill="#262626"></path><path d="M1706.3 213.26L1706.98 465.28L1703.27 467.29L1612.95 448.6C1612.95 448.6 1614.28 216.29 1614.77 212.01L1706.31 213.26H1706.3Z" fill="#685247"></path><path d="M1702.61 213.26L1703.26 467.29L1612.94 448.6C1612.94 448.6 1614.22 216.29 1614.69 212.01L1702.61 213.26Z" fill="#775F52"></path><path d="M1622.25 220.98L1694.96 222.48V456.56L1692.99 456.17V224.83L1623.99 223.27L1621.87 444.18L1620.12 443.8L1622.24 222.1L1622.25 220.98Z" fill="#685247"></path><path d="M1690.03 425.75C1690.03 425.75 1690.3 453.86 1690.03 453.8C1689.76 453.74 1626.33 441.18 1626.33 441.18L1627.17 414.13L1690.03 425.75Z" fill="#83675A"></path><path d="M1690.03 326.01C1690.03 326.01 1690.3 354.09 1690.03 354.06C1689.76 354.03 1626.33 346.64 1626.33 346.64L1627.17 319.52L1690.03 326V326.01Z" fill="#927869"></path><path d="M1688.98 359.77C1688.98 359.77 1689.25 387.84 1688.98 387.8C1688.71 387.76 1625.39 378.63 1625.39 378.63L1626.23 351.55L1688.98 359.77Z" fill="#83675A"></path><path d="M1690.03 228.95C1690.03 228.95 1690.3 257.01 1690.03 257C1689.76 256.99 1626.33 254.65 1626.33 254.65L1627.17 227.46L1690.03 228.94V228.95Z" fill="#83675A"></path><path d="M1690.03 261.04C1690.03 261.04 1690.3 289.11 1690.03 289.09C1689.76 289.07 1626.33 285.07 1626.33 285.07L1627.17 257.9L1690.03 261.04Z" fill="#8C7663"></path><path d="M1690.03 392.82C1690.03 392.82 1690.3 420.92 1690.03 420.87C1689.76 420.82 1626.33 409.97 1626.33 409.97L1627.17 382.89L1690.03 392.82Z" fill="#8C7663"></path><path d="M1690.03 293.85C1690.03 293.85 1690.3 321.93 1690.03 321.9C1689.76 321.87 1626.33 316.16 1626.33 316.16L1627.17 289.02L1690.03 293.85Z" fill="#83675A"></path><path opacity="0.63" d="M1682.83 334.16L1673.86 333.26L1672.7 334.4L1672.28 372.48L1685.33 374.22L1684.99 335.4L1682.83 334.16Z" fill="#685247"></path><path d="M1673.86 369.58L1682.83 370.75V334.16L1673.86 333.26V369.58Z" fill="#918B74"></path><path d="M1673.86 354.3L1682.32 350.15L1680.05 346.12L1674.86 350.53L1673.86 354.3Z" fill="#807A63"></path><path d="M1665.3 361.51C1665.33 361.56 1681.29 347.99 1681.29 347.99L1678.62 343.25L1662.7 356.8C1662.7 356.8 1665.27 361.46 1665.3 361.51Z" fill="#918B74"></path><path d="M1663.29 357.86L1679.22 344.32L1678.62 343.25L1662.7 356.8L1663.28 357.86H1663.29Z" fill="#BAB393"></path><path d="M1677.16 361.03L1679.75 361.35V353.57L1677.16 353.27V361.03Z" fill="#807A63"></path><path d="M1228.87 300.57C1230.71 300.65 1232.48 300.71 1234.17 300.71C1233.71 306.99 1232.66 324.23 1231.79 345.24C1230.71 331.5 1228.82 316.03 1224.76 312.13C1224.47 306.86 1224.22 302.79 1224.04 300.27C1225.58 300.39 1227.19 300.49 1228.87 300.57Z" fill="#365A77"></path><path d="M1232.17 448.76C1242.46 449.77 1250.56 452.72 1251.67 455.85C1251.69 455.87 1251.7 455.91 1251.7 455.93C1251.8 456.19 1251.83 456.42 1251.82 456.68C1251.64 460.34 1241.48 462.64 1229.11 461.83C1217.08 461.02 1207.39 457.55 1207.01 454.03C1206.99 453.91 1206.99 453.81 1206.99 453.71C1207.16 450.42 1215.23 448.25 1225.74 448.4C1227.04 448.4 1228.37 448.46 1229.71 448.56C1230.53 448.62 1231.35 448.68 1232.15 448.76H1232.17Z" fill="#365A77"></path><path d="M1231.79 345.24C1230.3 380.51 1229.25 426.36 1232.17 448.76C1232.76 454.51 1230 454.81 1229.18 454.75C1227.83 454.65 1224.88 454.63 1225.76 448.4C1229.82 418.14 1226.58 343.81 1224.78 312.13C1228.83 316.03 1230.72 331.5 1231.81 345.24H1231.79Z" fill="#687991"></path><path d="M1229.95 250.57C1233.92 250.57 1237.65 250.47 1240.88 250.31L1240.9 250.75C1248.83 258.67 1248.29 274.51 1242.26 283.42C1235.92 293.18 1227.99 296.61 1219.19 299.79C1206.29 298.27 1199.03 295.34 1199.03 294.31C1199.03 293.82 1206.14 252.35 1207.55 248.69C1208.14 249.76 1217.96 250.57 1229.94 250.57H1229.95Z" fill="#FFF5EE"></path><path d="M1219.2 299.8C1228 296.61 1235.93 293.19 1242.27 283.43C1248.3 274.52 1248.84 258.68 1240.91 250.76L1240.89 250.32C1247.75 250 1252.4 249.35 1252.4 248.6C1253.53 251.55 1260.9 293.07 1261.71 296.3C1261.97 297.41 1252.15 300.89 1234.18 300.72C1232.49 300.72 1230.72 300.66 1228.88 300.58C1227.21 300.5 1225.6 300.4 1224.05 300.28C1222.36 300.14 1220.73 299.98 1219.2 299.8Z" fill="#E9EDED"></path><path d="M1229.95 246.61C1241.95 246.61 1251.77 247.44 1252.36 248.49C1252.38 248.51 1252.39 248.55 1252.39 248.59C1252.39 249.34 1247.74 250 1240.88 250.31C1237.64 250.47 1233.92 250.57 1229.95 250.57C1217.96 250.57 1208.15 249.76 1207.56 248.69C1207.54 248.65 1207.53 248.63 1207.53 248.59C1207.53 247.5 1217.58 246.61 1229.96 246.61H1229.95Z" fill="#A5A9AB"></path><path d="M1251.7 455.93C1252.8 458.07 1252.27 461.42 1252.23 462.62C1252.05 466.28 1241.89 468.58 1229.52 467.77C1217.14 466.94 1207.24 463.3 1207.41 459.65C1207.46 458.76 1206.79 456.03 1207.02 454.03C1207.4 457.55 1217.09 461.02 1229.12 461.83C1241.48 462.64 1251.64 460.34 1251.83 456.68C1251.85 456.42 1251.81 456.19 1251.71 455.93H1251.7Z" fill="#687991"></path><path opacity="0.15" d="M848.209 607.98C865.932 607.98 880.299 604.989 880.299 601.3C880.299 597.611 865.932 594.62 848.209 594.62C830.486 594.62 816.119 597.611 816.119 601.3C816.119 604.989 830.486 607.98 848.209 607.98Z" fill="#0A2949"></path><path opacity="0.11" d="M808.039 554.31C807.689 554.82 807.589 557.44 807.589 557.44L810.179 558.75C810.179 558.75 810.179 558.76 810.179 558.77C810.179 558.77 810.179 558.77 810.179 558.78C810.179 558.78 810.179 558.8 810.179 558.81C810.179 558.81 810.229 558.81 810.229 558.82C810.229 558.84 810.269 558.85 810.269 558.87C810.069 558.99 810.199 559.25 810.189 559.44H810.169C809.859 564.78 807.909 593.26 810.349 596.86C810.979 597.78 811.559 598.59 812.079 599.29H862.639C863.159 598.59 863.739 597.78 864.369 596.86C866.819 593.27 864.869 564.78 864.559 559.44C864.539 559.04 864.519 558.78 864.519 558.73L867.109 557.42C867.109 557.42 867.009 554.8 866.659 554.3C866.579 554.18 863.229 554.09 858.179 554.02C859.829 550.22 861.999 544.21 859.539 543.46C863.589 531.77 867.999 516.16 862.759 515.84C861.899 515.79 861.019 516.16 860.139 516.86C860.789 512.88 861.399 508.9 861.929 505.08H862.759C862.759 505.08 882.219 467.9 876.289 468.99C872.709 469.65 867.439 478.46 863.809 485.35C863.849 482.99 863.739 481.06 863.459 479.69C867.259 464.62 871.979 442.98 867.109 445.21C863.539 446.84 858.789 460.85 854.819 474.9C854.979 469.25 854.669 465.24 853.659 463.94C854.489 446.61 853.929 434.4 850.419 436.51C848.259 437.81 846.379 443.5 844.769 451.75C844.339 450.17 843.779 449.48 843.079 449.95C842.429 450.39 841.839 451.44 841.299 452.97C841.429 432.22 840.379 417.04 836.889 418.5C833.319 419.99 831.399 439.06 830.379 462.45C828.249 449.02 825.919 438.2 824.099 439.49C823.589 439.85 823.249 441.11 823.049 443.06C821.399 433.56 819.359 428.45 816.819 431.27C813.589 434.87 812.609 447.36 812.839 463.17C808.799 447.82 805.059 437.7 802.959 440.61C799.079 446.01 807.529 488.08 814.639 519.86C815.769 524.11 816.839 528.41 817.829 532.49C817.689 532.32 817.549 532.17 817.419 532.04C816.539 528.24 815.609 524.15 814.649 519.86C809.939 502.08 804.359 485.23 800.979 489.33C794.259 497.48 814.219 547.19 814.219 547.19C814.219 547.19 797.619 514.38 794.849 523.01C792.539 530.21 807.549 548.28 812.599 554.09C809.799 554.15 808.099 554.22 808.039 554.3V554.31ZM852.059 505.09H852.119C852.059 505.38 852.009 505.68 851.949 505.97C851.989 505.68 852.019 505.38 852.059 505.09ZM836.669 543.83L837.179 542.55C836.959 545.71 836.769 548.42 836.609 550.57C836.559 550.2 836.499 549.82 836.439 549.43C836.499 547.81 836.579 545.93 836.669 543.84V543.83Z" fill="#803D3E"></path><path d="M886.759 464.26C880.829 465.35 870.219 488.85 870.219 488.85C870.219 488.85 884.979 437.08 877.579 440.47C870.179 443.86 857.699 500.35 857.699 500.35H873.219C873.219 500.35 892.679 463.17 886.749 464.26H886.759Z" fill="#BFAB38"></path><path d="M856.701 537.61C855.611 545.8 854.971 551.38 854.971 551.38C854.971 551.38 855.671 546.04 856.701 537.61Z" fill="#BFAB38"></path><path d="M850.92 480.43C847.86 513.58 846.67 551.38 846.67 551.38C846.67 551.38 849.46 515.54 850.92 480.43Z" fill="#BFAB38"></path><path d="M872.009 472.63C865.949 474.13 859.649 515.43 856.689 537.6C855.669 546.03 854.959 551.37 854.959 551.37C854.959 551.37 855.599 545.79 856.689 537.6C860.639 505.09 869.369 426.67 860.889 431.76C856.379 434.46 853.149 456.2 850.909 480.42C849.449 515.53 846.659 551.37 846.659 551.37C846.659 551.37 847.849 513.57 850.909 480.42C852.359 445.65 852.509 411.6 847.359 413.75C838.449 417.48 839.769 530.93 840.009 547.37C840.029 548.65 840.039 549.35 840.039 549.35C840.039 549.35 840.029 548.66 840.009 547.37C839.729 530.75 837.429 415.23 827.279 426.52C816.349 438.68 831.229 552.59 831.229 552.59L863.249 551.37C863.249 551.37 880.299 470.58 871.989 472.63H872.009Z" fill="#BFAB38"></path><path d="M840.059 549.36C840.059 549.36 840.059 548.66 840.029 547.38C840.049 548.67 840.059 549.36 840.059 549.36Z" fill="#BFAB38"></path><path d="M853.561 445.21C847.631 449.16 846.841 503.91 846.841 503.91C846.841 503.91 839.141 431.55 834.591 434.75C830.041 437.95 839.081 511.93 839.081 511.93L846.351 541.1L854.951 519.46C854.951 519.46 859.501 441.25 853.571 445.21H853.561Z" fill="#C6B53E"></path><path d="M873.23 511.11C864.84 510.6 855.15 549.96 855.15 549.96C855.15 549.96 871.15 456.47 863.04 458.78C854.94 461.09 846.66 551.38 846.66 551.38C846.66 551.38 847.8 481.74 841.3 489.7C836.76 495.26 838.17 522.99 839.44 539.24C840.2 544.88 840.6 549.09 840.51 551.18C840.51 551.18 839.99 546.29 839.44 539.24C835.08 507.02 818.82 428.37 813.44 435.87C809.56 441.27 818.01 483.34 825.12 515.12C829.78 532.7 833.59 551.18 833.59 551.18C833.59 551.18 829.62 535.21 825.12 515.12C820.41 497.34 814.83 480.49 811.45 484.59C804.73 492.74 824.69 542.45 824.69 542.45C824.69 542.45 808.09 509.64 805.32 518.27C802.55 526.9 824.69 551.18 824.69 551.18L829.83 553.14L865.25 551.38C865.25 551.38 881.61 511.62 873.22 511.11H873.23Z" fill="#D2C650"></path><path d="M840.509 551.18C840.599 549.1 840.199 544.88 839.439 539.24C839.989 546.28 840.509 551.18 840.509 551.18Z" fill="#D2C650"></path><path d="M833.589 551.18C833.589 551.18 829.779 532.7 825.119 515.12C829.619 535.2 833.589 551.18 833.589 551.18Z" fill="#D2C650"></path><path d="M869.371 538.65C864.431 538.8 858.101 549.96 858.101 549.96C858.101 549.96 860.081 524.66 856.121 524.9C852.171 525.13 847.821 551.18 847.821 551.18C847.821 551.18 843.061 513.02 837.281 513.8C831.501 514.58 837.281 551.18 837.281 551.18C837.281 551.18 829.441 522.88 826.081 527.21C822.721 531.53 831.251 552.6 831.251 552.6L867.191 552.4C867.191 552.4 874.311 538.5 869.361 538.65H869.371Z" fill="#DAD062"></path><path d="M877.13 549.56C876.78 549.05 818.87 549.05 818.52 549.56C818.17 550.07 818.07 552.69 818.07 552.69L820.66 554C820.66 554.45 818.17 592.87 820.82 596.75C823.47 600.63 825.23 602.53 825.23 602.53C825.23 602.53 835.57 604.01 848.21 604.01C859.88 604.01 870.43 602.53 870.43 602.53C870.43 602.53 872.2 600.63 874.84 596.75C877.49 592.87 875 554.46 875 554.01L877.59 552.69C877.59 552.69 877.49 550.07 877.14 549.56H877.13Z" fill="#7D5863"></path><path d="M818.949 553.14L820.659 554.01C820.659 554.01 820.649 554.3 820.619 554.73H875.029C874.999 554.3 874.989 554.04 874.989 554.01L876.699 553.14H818.939H818.949Z" fill="#6D4B57"></path><path opacity="0.11" d="M850.651 549.96C850.181 550.02 823.821 549.96 823.821 549.96C823.821 549.96 823.411 552.31 823.821 552.37C824.231 552.43 850.891 552.37 850.891 552.37C850.891 552.37 851.131 549.9 850.651 549.96Z" fill="white"></path><path opacity="0.11" d="M824.109 556.08C824.109 556.08 822.819 588.51 823.929 592.1C825.049 595.69 827.989 600.4 827.989 600.4C827.989 600.4 845.049 603.07 847.629 601.65C848.209 601.33 847.699 556.44 847.409 556.09C847.119 555.74 824.109 556.09 824.109 556.09V556.08Z" fill="white"></path><path d="M877.461 551.01L871.201 549.32C868.481 549.27 864.991 549.24 861.101 549.22C861.531 550.02 861.771 550.95 861.511 551.83C861.351 552.36 861.041 552.79 860.641 553.11C862.741 561.79 862.161 570.02 862.751 575.1C862.751 575.1 871.211 576.11 875.971 576.39C875.721 565.47 874.991 554.26 874.991 554.01L877.581 552.69C877.581 552.69 877.551 551.84 877.451 551.01H877.461Z" fill="#6D4B57"></path><path opacity="0.22" d="M1307.66 276.83H1362.68L1360.35 206.21H1307.66V276.83Z" fill="#803D3E"></path><path d="M1304.38 273.55H1359.4L1359.42 202.92H1304.38V273.55Z" fill="#CFA46B"></path><path d="M1348.17 214.69H1315.6L1304.6 202.92H1304.38V204.51L1314.78 215.79V260.68L1304.38 271.42V273.55H1305.01L1315.6 261.5H1348.11L1357.79 273.55H1359.4V272.64L1348.99 261.14L1348.9 215.79L1359.42 203.92V202.92H1358.79L1348.17 214.69Z" fill="#B98E5B"></path><path d="M1315.6 260.68H1348.09L1348.11 215.79H1315.6V260.68Z" fill="#D9CBBC"></path><path opacity="0.44" d="M1315.6 219V240.88C1326.29 247.57 1337.13 254 1348.09 260.23V237.71C1341.86 234.08 1335.58 230.52 1329.29 226.98C1324.69 224.39 1320.15 221.68 1315.6 219Z" fill="white"></path><path opacity="0.22" d="M1379.93 234.4V276.83H1417.43L1416.33 234.4H1379.93Z" fill="#803D3E"></path><path d="M1414.96 231.94H1377.46V274.37H1414.96V231.94Z" fill="#B26667"></path><path d="M1414.96 233.12V231.94H1413.76L1407.02 239.6H1385.4L1377.75 231.94H1377.46V233.08L1384.64 240.56L1384.21 265.61L1377.46 273.61V274.37H1378.27L1384.85 266.15L1407.02 266.34L1413.59 274.37H1414.96V273.55L1407.84 265.61L1408.03 240.56L1414.96 233.12Z" fill="#9D5F60"></path><path d="M1407.02 240.7H1385.4V265.61H1407.02V240.7Z" fill="#EADCCE"></path><path opacity="0.22" d="M1367.61 288.6V326.65H1408.12L1407.02 288.6H1367.61Z" fill="#803D3E"></path><path opacity="0.44" d="M1385.4 241.36V253.56C1392.65 257.29 1399.91 261 1407.02 264.97V254.22C1399.78 249.98 1392.57 245.7 1385.4 241.36Z" fill="white"></path><path d="M1405.93 286.41H1365.42V324.46H1405.93V286.41Z" fill="#F28687"></path><path d="M1405.93 286.41H1404.46L1396.07 294.07H1374.72L1366.03 286.41H1365.42V286.86L1374.04 294.76L1373.97 315.7L1365.42 323.46V324.46H1366.89L1374.72 316.38L1396.35 316.25L1404.69 324.46H1405.93V323.48L1397.24 315.7L1397.03 294.69L1405.93 286.77V286.41Z" fill="#F07172"></path><path d="M1396.34 295.17H1374.72V315.7H1396.34V295.17Z" fill="#D9CBBC"></path><path opacity="0.44" d="M1388.43 299.86C1385.27 298.26 1382.11 296.68 1378.9 295.17H1374.72V304.06C1382.11 307.32 1389.33 310.98 1396.34 315V303.95C1393.72 302.56 1391.07 301.2 1388.42 299.86H1388.43Z" fill="white"></path></svg>