<?xml version="1.0" encoding="UTF-8"?>
<svg xmlns="http://www.w3.org/2000/svg" xmlns:xlink="http://www.w3.org/1999/xlink" viewBox="0 0 258.11 313.03">
  <defs>
    <style>
      .cls-1 {
        fill: url(#linear-gradient-4);
        opacity: .1;
      }

      .cls-1, .cls-2, .cls-3, .cls-4, .cls-5, .cls-6, .cls-7, .cls-8, .cls-9, .cls-10, .cls-11, .cls-12, .cls-13, .cls-14, .cls-15, .cls-16, .cls-17, .cls-18, .cls-19 {
        fill-rule: evenodd;
      }

      .cls-1, .cls-20, .cls-21, .cls-17 {
        mix-blend-mode: multiply;
      }

      .cls-2 {
        fill: #313131;
      }

      .cls-3, .cls-4 {
        fill: #252525;
      }

      .cls-4 {
        opacity: .3;
      }

      .cls-22 {
        fill: #712525;
      }

      .cls-23 {
        opacity: .5;
      }

      .cls-23, .cls-15, .cls-16, .cls-18 {
        mix-blend-mode: screen;
      }

      .cls-5 {
        fill: #83675a;
      }

      .cls-6 {
        fill: #927869;
      }

      .cls-20, .cls-9, .cls-17 {
        fill: #3f312c;
      }

      .cls-20, .cls-17 {
        opacity: .4;
      }

      .cls-7 {
        fill: #0a2949;
        opacity: .15;
      }

      .cls-8 {
        fill: #6d261d;
      }

      .cls-24 {
        isolation: isolate;
      }

      .cls-25 {
        fill: #602020;
      }

      .cls-10 {
        fill: url(#linear-gradient-5);
      }

      .cls-11 {
        fill: #685247;
      }

      .cls-12 {
        fill: url(#linear-gradient-2);
      }

      .cls-13 {
        fill: #524038;
      }

      .cls-26 {
        clip-rule: evenodd;
        fill: none;
      }

      .cls-14 {
        fill: url(#linear-gradient-6);
      }

      .cls-15 {
        fill: #e9ba39;
        opacity: .25;
      }

      .cls-16 {
        fill: #585858;
      }

      .cls-21 {
        fill: #b911a5;
        opacity: .6;
      }

      .cls-18 {
        fill: url(#linear-gradient-3);
        opacity: .2;
      }

      .cls-19 {
        fill: url(#linear-gradient);
      }

      .cls-27 {
        fill: #803d3e;
        opacity: .11;
      }

      .cls-28 {
        fill: #8d8d8d;
      }
    </style>
    <linearGradient id="linear-gradient" x1="1088.62" y1="172.52" x2="1191.42" y2="31.48" gradientTransform="translate(-1022.57)" gradientUnits="userSpaceOnUse">
      <stop offset="0" stop-color="#343434"/>
      <stop offset="1" stop-color="#5b5b5b"/>
    </linearGradient>
    <clipPath id="clippath">
      <polygon class="cls-26" points="81.18 175.54 76.21 15.79 215.63 7.29 213.6 123.13 81.18 175.54"/>
    </clipPath>
    <linearGradient id="linear-gradient-2" x1="1085.95" y1="196.82" x2="1085.25" y2="27.19" gradientTransform="translate(-1022.57)" gradientUnits="userSpaceOnUse">
      <stop offset="0" stop-color="#1c1c1c"/>
      <stop offset="1" stop-color="#2f2f2f"/>
    </linearGradient>
    <linearGradient id="linear-gradient-3" x1="1107.88" y1="53.48" x2="1334.87" y2="59.93" gradientTransform="translate(-1022.57)" gradientUnits="userSpaceOnUse">
      <stop offset="0" stop-color="#080808"/>
      <stop offset="1" stop-color="#858585"/>
    </linearGradient>
    <linearGradient id="linear-gradient-4" x1="1103.68" y1="126.26" x2="1236.95" y2="126.26" gradientTransform="translate(-1022.57)" gradientUnits="userSpaceOnUse">
      <stop offset="0" stop-color="#2a2a2a"/>
      <stop offset="1" stop-color="#343434"/>
    </linearGradient>
    <linearGradient id="linear-gradient-5" x1="1098.78" y1="91.41" x2="1238.2" y2="91.41" xlink:href="#linear-gradient-4"/>
    <linearGradient id="linear-gradient-6" x1="1201.81" y1="46.72" x2="1223.12" y2="6.5" xlink:href="#linear-gradient-3"/>
  </defs>
  <g class="cls-24">
    <g id="Layer_2" data-name="Layer 2">
      <g id="Layer_3" data-name="Layer 3">
        <g>
          <path class="cls-27" d="M5.74,268.75L0,184.92s42.27-15.29,41.98-16.31c-.29-1.02-7.87-140.07-7.87-140.07L199.92,11.24s-10.48,124.99-10.75,124.34-16.33,54.4-17.05,54.86S18.07,264.36,18.07,264.36l-12.34,4.39Z"/>
          <path class="cls-7" d="M251.82,213.12c.82.69,6.29,3.38,6.29,3.38l-154.28,96.53S5.53,273.95,5.74,273.95s13.71-6.48,13.71-6.48l232.37-54.35Z"/>
          <polygon class="cls-9" points="161.99 134.13 162.7 196.12 11.41 271.4 5.74 186.83 161.99 134.13"/>
          <polygon class="cls-11" points="258.11 143.79 161.99 134.13 5.74 186.83 98.16 213.12 258.11 143.79"/>
          <g>
            <polygon class="cls-3" points="58.82 31.68 43.9 46.43 51.36 167.24 62.99 179.88 58.82 31.68"/>
            <polygon class="cls-4" points="219.94 147.03 190.79 140.49 58.82 194.28 85.28 202.33 219.94 147.03"/>
            <g>
              <polygon class="cls-3" points="194.38 137.61 184.17 146.21 187.48 145.2 197.4 136.38 194.38 137.61"/>
              <polygon class="cls-2" points="199.38 135.58 203.9 149.9 202.57 150.48 196.39 136.8 199.38 135.58"/>
            </g>
            <g>
              <polygon class="cls-3" points="108.91 172.33 96.73 184.92 101.22 183.1 113.17 170.59 108.91 172.33"/>
              <polygon class="cls-2" points="115.96 169.46 122.31 186.01 120.44 186.84 111.74 171.18 115.96 169.46"/>
            </g>
            <polygon class="cls-19" points="217.43 130.73 72.46 190.44 66.35 6.22 219.51 0 217.43 130.73"/>
            <polygon class="cls-12" points="66.35 6.22 53.52 13.58 61.33 184.33 72.46 190.44 66.35 6.22"/>
            <path class="cls-18" d="M76.49,24.83c70.72,8.32,123.88,29.16,137.39,82.2l1.75-99.74L76.21,15.79l.28,9.05Z"/>
            <polygon class="cls-16" points="100.25 4.84 218.55 1.56 218.06 90.83 219.51 0 100.25 4.84"/>
            <polygon class="cls-1" points="214.38 76.98 181.02 96.41 177.84 114.24 163.57 118.24 154.59 91 118.56 85.58 117.48 109.72 81.11 111.8 82.15 136.64 81.18 175.54 213.6 123.13 214.35 80.73 214.38 76.98"/>
            <path class="cls-10" d="M76.21,15.79L215.63,7.29l-2.03,115.85-3.43-2.85s2.07-18.46,2.77-53.73c.95-47.92-.5-54.92-.5-54.92,0,0-13.73-1.59-56.8,1.66-38.17,2.88-61.18,5.7-74.45,9.03-.9,15.91.42,57.02.65,77,.23,19.97.53,54.24,3.38,70.39l-4.04,5.83-4.97-159.75Z"/>
            <g class="cls-23">
              <path class="cls-14" d="M205.44,21.16s3.19,9.07,4.53,53.8c.03-1.29.06-2.6.09-3.93.96-48.25-.51-55.28-.51-55.28,0,0-13.91-1.47-57.61,2.21-1.11.09-2.21.19-3.3.28,40.82-.82,56.8,2.93,56.8,2.93Z"/>
            </g>
            <path class="cls-28" d="M85.22,169.7c15.99-4.71,42.21-14.52,71.02-25.68,18.44-7.15,39.34-15.08,53.93-23.74.69.57,3.43,2.85,3.43,2.85l-132.42,52.4,4.04-5.83Z"/>
          </g>
          <g>
            <line class="cls-22" x1="233.79" y1="201.32" x2="224.19" y2="206.58"/>
            <line class="cls-25" x1="192.25" y1="221.75" x2="180.7" y2="228.01"/>
            <line class="cls-21" x1="192.89" y1="239.35" x2="183.81" y2="245.1"/>
            <line class="cls-22" x1="137.21" y1="253.62" x2="150.88" y2="246.28"/>
            <polygon class="cls-6" points="255.12 214.09 103.83 306.01 98.16 213.12 258.11 143.79 255.12 214.09"/>
            <polygon class="cls-8" points="194.37 177.69 107.01 216.72 108.19 242.81 193.74 200.53 194.37 177.69"/>
            <polygon class="cls-9" points="197.91 176.11 197.29 198.78 253.24 171.13 253.88 151.11 197.91 176.11"/>
            <polygon class="cls-9" points="193.68 200.57 153.5 220.42 153.81 195.81 194.37 177.69 193.68 200.57"/>
            <polygon class="cls-17" points="253.24 171.13 222.95 186.1 223.88 164.51 253.88 151.11 253.24 171.13"/>
            <polygon class="cls-9" points="108.44 248.27 166.34 219.08 167.2 260.59 110.5 293.91 108.44 248.27"/>
            <polygon class="cls-6" points="112.58 290.23 110.75 249.57 164.6 222.18 165.38 259.43 112.58 290.23"/>
            <polygon class="cls-9" points="170.33 217.06 216.66 193.71 215.3 232.32 171.16 258.26 170.33 217.06"/>
            <polygon class="cls-6" points="172.85 255.08 172.12 218.36 215.14 196.48 213.92 231.12 172.85 255.08"/>
            <polygon class="cls-9" points="219.87 192.09 253.1 175.34 251.96 210.77 218.53 230.42 219.87 192.09"/>
            <polygon class="cls-6" points="220.03 227.56 221.22 193.39 251.82 177.83 250.79 209.61 220.03 227.56"/>
            <polygon class="cls-9" points="199.92 211.69 189.17 217.33 189.17 213.27 199.92 207.73 199.92 211.69"/>
            <polygon class="cls-9" points="241.57 189.85 232.66 194.52 232.66 190.83 241.57 186.23 241.57 189.85"/>
            <polygon class="cls-9" points="145.12 240.43 131.68 247.48 131.68 242.94 145.12 236 145.12 240.43"/>
            <polygon class="cls-20" points="253.88 151.11 238.35 178.49 222.95 186.1 223.88 164.51 253.88 151.11"/>
            <polygon class="cls-20" points="194.37 177.69 172.12 211.22 153.5 220.42 153.81 195.81 194.37 177.69"/>
            <polygon class="cls-15" points="191.83 172.52 258.11 143.79 257.14 166.58 256.47 146.14 191.83 172.52"/>
            <polygon class="cls-13" points="253.24 171.13 223.78 166.91 197.84 178.76 197.29 198.78 253.24 171.13"/>
            <polygon class="cls-13" points="193.74 200.53 157.74 193.71 107.01 216.72 108.19 242.81 193.74 200.53"/>
          </g>
          <polygon class="cls-5" points="103.83 306.01 11.41 271.4 5.74 186.83 98.16 213.12 103.83 306.01"/>
        </g>
      </g>
    </g>
  </g>
</svg>