<?xml version="1.0" encoding="UTF-8"?>
<svg xmlns="http://www.w3.org/2000/svg" xmlns:xlink="http://www.w3.org/1999/xlink" viewBox="0 0 212.11 244.55">
  <defs>
    <style>
      .cls-1 {
        fill: url(#radial-gradient-10);
      }

      .cls-2 {
        fill: #f48322;
      }

      .cls-3 {
        fill: #29150e;
      }

      .cls-4 {
        fill: url(#linear-gradient-5);
      }

      .cls-4, .cls-5, .cls-6, .cls-7, .cls-8, .cls-9, .cls-10, .cls-11, .cls-12, .cls-13, .cls-14, .cls-15 {
        mix-blend-mode: multiply;
      }

      .cls-4, .cls-6, .cls-10, .cls-11 {
        opacity: .6;
      }

      .cls-16 {
        mask: url(#mask-1);
      }

      .cls-17 {
        fill: url(#radial-gradient-9);
      }

      .cls-18, .cls-7 {
        fill: #b7d5f9;
      }

      .cls-5 {
        fill: #619993;
      }

      .cls-5, .cls-7, .cls-9, .cls-13 {
        opacity: .3;
      }

      .cls-6 {
        fill: url(#linear-gradient-2);
      }

      .cls-19, .cls-20 {
        fill: #fff;
      }

      .cls-21 {
        mask: url(#mask);
      }

      .cls-20, .cls-22 {
        fill-rule: evenodd;
      }

      .cls-23 {
        fill: #e35e21;
      }

      .cls-22 {
        fill: #351a0f;
      }

      .cls-24 {
        fill: url(#radial-gradient-5);
      }

      .cls-25 {
        stroke: #221f1f;
      }

      .cls-25, .cls-26, .cls-27 {
        fill: none;
        stroke-linecap: round;
        stroke-linejoin: round;
      }

      .cls-25, .cls-27 {
        stroke-width: .5px;
      }

      .cls-28 {
        fill: url(#radial-gradient);
      }

      .cls-29 {
        fill: url(#radial-gradient-3);
      }

      .cls-30 {
        fill: #f06b23;
      }

      .cls-31 {
        fill: #f6931e;
      }

      .cls-32 {
        fill: #0a2949;
        opacity: .15;
      }

      .cls-8 {
        opacity: .3;
      }

      .cls-8, .cls-33, .cls-14 {
        fill: #e98d6a;
      }

      .cls-34 {
        fill: #231f20;
      }

      .cls-9 {
        fill: #6c7e92;
      }

      .cls-35 {
        isolation: isolate;
      }

      .cls-10 {
        fill: url(#linear-gradient-4);
      }

      .cls-36 {
        fill: url(#radial-gradient-11);
      }

      .cls-37 {
        fill: #444;
      }

      .cls-38 {
        fill: url(#radial-gradient-8);
      }

      .cls-39 {
        fill: url(#radial-gradient-2);
      }

      .cls-40 {
        fill: #dae5e7;
      }

      .cls-41 {
        fill: #b95423;
      }

      .cls-11 {
        fill: url(#linear-gradient);
      }

      .cls-42 {
        fill: #242720;
      }

      .cls-43 {
        fill: url(#radial-gradient-4);
      }

      .cls-44 {
        fill: #e36725;
      }

      .cls-12 {
        fill: url(#linear-gradient-3);
      }

      .cls-45 {
        fill: url(#radial-gradient-12);
      }

      .cls-13 {
        fill: #66778b;
      }

      .cls-46 {
        fill: #31332f;
      }

      .cls-47 {
        fill: #27190f;
      }

      .cls-48 {
        fill: url(#radial-gradient-6);
      }

      .cls-49 {
        fill: #de7d5a;
      }

      .cls-50 {
        fill: url(#radial-gradient-7);
      }

      .cls-51 {
        fill: url(#radial-gradient-13);
      }

      .cls-26 {
        stroke-width: .91px;
      }

      .cls-26, .cls-27 {
        stroke: #27190f;
      }

      .cls-14, .cls-15 {
        opacity: .5;
      }

      .cls-52 {
        fill: #ca5b1d;
      }

      .cls-53 {
        filter: url(#luminosity-noclip);
      }

      .cls-54 {
        fill: #f89f1f;
      }
    </style>
    <radialGradient id="radial-gradient" cx="75.47" cy="104.36" fx="75.47" fy="104.36" r="12.62" gradientUnits="userSpaceOnUse">
      <stop offset="0" stop-color="#ee9c77"/>
      <stop offset="1" stop-color="#dd7b59"/>
    </radialGradient>
    <radialGradient id="radial-gradient-2" cx="57.17" cy="94.57" fx="57.17" fy="94.57" r="10.09" xlink:href="#radial-gradient"/>
    <radialGradient id="radial-gradient-3" cx="57.09" cy="89.64" fx="57.09" fy="89.64" r="3" xlink:href="#radial-gradient"/>
    <radialGradient id="radial-gradient-4" cx="57.99" cy="102.86" fx="57.99" fy="102.86" r="3.55" xlink:href="#radial-gradient"/>
    <radialGradient id="radial-gradient-5" cx="54.75" cy="101.64" fx="54.75" fy="101.64" r="4.25" xlink:href="#radial-gradient"/>
    <radialGradient id="radial-gradient-6" cx="51.47" cy="99.62" fx="51.47" fy="99.62" r="4.25" xlink:href="#radial-gradient"/>
    <linearGradient id="linear-gradient" x1="69.11" y1="104.65" x2="96.29" y2="104.65" gradientUnits="userSpaceOnUse">
      <stop offset="0" stop-color="#ffe7d7"/>
      <stop offset=".99" stop-color="#c360f4"/>
    </linearGradient>
    <radialGradient id="radial-gradient-7" cx="92.84" cy="222.07" fx="92.84" fy="222.07" r="6.64" xlink:href="#radial-gradient"/>
    <radialGradient id="radial-gradient-8" cx="48.42" cy="218.62" fx="48.42" fy="218.62" r="8.94" xlink:href="#radial-gradient"/>
    <radialGradient id="radial-gradient-9" cx="-129.88" cy="1040.45" fx="-129.88" fy="1040.45" r="43.86" gradientTransform="translate(364.31 -928.13) rotate(6.08)" xlink:href="#radial-gradient"/>
    <linearGradient id="linear-gradient-2" x1="-94.8" y1="795.34" x2="-33.04" y2="811.8" gradientTransform="translate(266.49 -725.21) rotate(4.17)" xlink:href="#linear-gradient"/>
    <filter id="luminosity-noclip" x="119.95" y="60.13" width="7.36" height="6.31" color-interpolation-filters="sRGB" filterUnits="userSpaceOnUse">
      <feFlood flood-color="#fff" result="bg"/>
      <feBlend in="SourceGraphic" in2="bg"/>
    </filter>
    <filter id="luminosity-noclip-2" x="119.95" y="-11196.23" width="7.36" height="32766" color-interpolation-filters="sRGB" filterUnits="userSpaceOnUse">
      <feFlood flood-color="#fff" result="bg"/>
      <feBlend in="SourceGraphic" in2="bg"/>
    </filter>
    <mask id="mask-1" x="119.95" y="-11196.23" width="7.36" height="32766" maskUnits="userSpaceOnUse"/>
    <linearGradient id="linear-gradient-3" x1="-134.23" y1="1007.3" x2="-135.86" y2="1016.64" gradientTransform="translate(364.31 -928.13) rotate(6.08)" gradientUnits="userSpaceOnUse">
      <stop offset="0" stop-color="#000"/>
      <stop offset=".37" stop-color="#000"/>
      <stop offset="1" stop-color="#fff"/>
    </linearGradient>
    <mask id="mask" x="119.95" y="60.13" width="7.36" height="6.31" maskUnits="userSpaceOnUse">
      <g class="cls-53">
        <g class="cls-16">
          <path class="cls-12" d="M125.97,61.96c-1.55,2.15-2.64,3.61-3.64,3.45-.37-.06-.68-1.36-.83-2.65-.08-.65-.12-1.29-.11-1.78.02-1.47-1.94-1.02-1.31,1.21.63,2.23,1.47,4.18,2.07,4.24s2.14-.46,4.52-3.54c1.03-1.33.86-3.09-.69-.94Z"/>
        </g>
      </g>
    </mask>
    <linearGradient id="linear-gradient-4" x1="-134.23" y1="1007.3" x2="-135.86" y2="1016.64" gradientTransform="translate(364.31 -928.13) rotate(6.08)" gradientUnits="userSpaceOnUse">
      <stop offset="0" stop-color="#c360f4"/>
      <stop offset=".37" stop-color="#c360f4"/>
      <stop offset="1" stop-color="#ffe7d7"/>
    </linearGradient>
    <linearGradient id="linear-gradient-5" x1="-119.18" y1="988.16" x2="-141.51" y2="1010.79" gradientTransform="translate(364.31 -928.13) rotate(6.08)" gradientUnits="userSpaceOnUse">
      <stop offset="0" stop-color="#c560f6"/>
      <stop offset="1" stop-color="#ffe9d9"/>
    </linearGradient>
    <radialGradient id="radial-gradient-10" cx="-156.53" cy="989.29" fx="-156.53" fy="989.29" r="4.7" gradientTransform="translate(364.31 -928.13) rotate(6.08)" xlink:href="#radial-gradient"/>
    <radialGradient id="radial-gradient-11" cx="-138.63" cy="985.44" fx="-138.63" fy="985.44" r="21.4" gradientTransform="translate(364.31 -928.13) rotate(6.08)" xlink:href="#radial-gradient"/>
    <radialGradient id="radial-gradient-12" cx="-119.49" cy="985.81" fx="-119.49" fy="985.81" r="5.03" gradientTransform="translate(364.31 -928.13) rotate(6.08)" xlink:href="#radial-gradient"/>
    <radialGradient id="radial-gradient-13" cx="-141.23" cy="1000.27" fx="-141.23" fy="1000.27" r="6.03" gradientTransform="translate(364.31 -928.13) rotate(6.08)" xlink:href="#radial-gradient"/>
  </defs>
  <g class="cls-35">
    <g id="Layer_2" data-name="Layer 2">
      <g id="Layer_3" data-name="Layer 3">
        <g>
          <path class="cls-32" d="M5.44,201.87c4.44,5.31,13.93,4.38,16.22,5.28,2.29.9,11.24-1.31,13.75-1.12.84.06,9.88,2.55,21.57,5.83-16.94,1.44-41.34,16.6-41.34,20.65,0,5.34,20.79,9.66,46.43,9.66,12.34,0,19.51,2.1,32.35-1.8,12.62-3.83,17.18-12.94,19.68-12.21h0s5.43.71,10.94,5.74c5.5,5.03,29.83,11.53,34.33,10.05,4.5-1.48,49.75-35.59,49.75-35.59l-44.15-24.73-118.33-8.84-15.75,3.61s-21.18,18.15-22.21,18.15c-1-.02-7.68.02-3.24,5.33Z"/>
          <path class="cls-19" d="M131.29,3c1.06,0,2.07.08,3.02.27,4.81.94,9.52,4.86,9.23,9.7,0,0,3.99,3.64,2.26,12.27-.62,3.37-1.6,6.8-2.33,9.03,2.16,1.08,2.72,4.1,1.14,6.89-1.42,2.5-3.8,3.84-5.52,3.84-.35,0-.67-.05-.95-.16,0,0,0,.02-.01.03.03.01.06.03.09.04-.06.13-.13.36-.21.66-.55,5.33-.86,8.34-.45,10.45,1.88.35,3.12.62,3.32.62.01,0,.02,0,.02,0l2.21,4.33s-.12.08-.32.21c.5.12,1.02.24,1.54.38.15.04.31.08.47.12.18.05.35.09.53.14.31.08.62.17.93.26.14.04.28.08.42.12.25.07.5.15.76.23.11.03.22.07.32.1.35.11.69.23,1.03.34.1.03.2.07.29.1.31.11.62.22.93.34.06.02.11.04.17.06.36.14.71.28,1.06.43.07.03.14.06.21.09.34.15.67.3.99.45.02,0,.03.02.05.02.35.17.68.34,1.01.52.05.03.11.06.16.09.66.37,1.27.75,1.84,1.17.04.03.08.06.12.09.56.42,1.07.87,1.51,1.35.03.03.06.07.09.1.32.36.61.73.85,1.13,3.65,3.19,7.31,10.12,10.26,16.85,3.62.57,7.15,1.12,10.54,1.61,2.82.4,8.13.63,12.4,2.13,3.33.71,8.86,5.24,11.48,7.37,2.99,2.67,5.73,5.96,6.36,9.64-1.24,3.31-2.67,6.67-3.75,10.13-.76,2.7-2.93,8.82-3.98,12.65l5.6,1.01.49,33.52,1.64,44.63c-3.37,2.11-35.53,23.44-49.92,33.19-8.04-.19-22.48-2.36-29.67-9.09-.02-1.03-.08-2.36-.13-3.94-.02-.29-.04-.61-.06-.93-7.65-2.11-15.17-4.19-22.42-6.21-.85,2.83-3.07,5.78-3.07,5.78-.72-1.2-1.51-2.25-2.35-3.18,0,0,0,0,0,0,0,1.33-.1,2.3-.22,2.99.02.11.05.22.07.34l.58.39c.98,6.76-3.8,12.67-11.22,12.67-.04,0-.08,0-.12,0-.34,0-.83,0-1.42,0-3.55,0-10.92-.12-14.48-1.85-.01-.74-.06-1.41-.04-2.06-.01-.32-.03-.74.05-.92.01,0,.03.01.04.02.11-.69.34-1.39.84-2.16-.69-2.6,5.92-7.23,6.7-9.56.08-.33.14-.67.19-1.01,0-.07.02-.14.03-.21,0,0,0,0,0,0,.22-1.4.49-2.76,2.26-3.23v-.82c-.6.1-1.19.21-1.77.35l.53-4.03c-8.57-2.39-16.44-4.6-23.34-6.55-.62,1.26-1.3,2.45-2.05,3.53l2.04,1.94c.2.78.28,1.61.31,2.41.12.01.11.15,0,.38,0,2.4-.53,4.5-.53,4.5-.21.09-.45.15-.71.2.11.35.14.76.08,1.25.33-.15.58-.27.7-.34.09-.06.17-.08.24-.08.37,0,.39.74.39.74l.29.17c-.02.16-.02.32-.02.49,0,0,.02-.02.02-.03v.83c.07,1.42.18,2.96-1.45,3.52-1.06.55-12.78,3.87-15.41,4.77-2.76,1.38-8.18,2.23-13.4,2.23s-9.74-.77-11.87-2.6v-2.66l.47-.25c1.75-7.48,10.19-7.72,14.87-12.93,0,0-.02,0-.03,0-.02,0-.05,0-.07,0-.01,0-.02,0-.03,0,.1-.13.21-.25.31-.38.04,0,.09,0,.13,0,.47-.57.92-1.18,1.29-1.89.15-.02.31-.02.47-.02.93,0,2.08.25,3.33.67.13-.17.26-.35.38-.53-2.1-1.27-3.36-2.21-3.02-2.28,0-3.05,2.57-5.97,2.57-5.97v-.65s0,0,0,0v-2.97c-2.23-.66-4.05-1.21-5.41-1.64-.08-.38-.15-.76-.19-1.12-3.41,2.07-7.98,3.16-11.05,5.94-.02-.17-.02-.34-.02-.53-5.83-.12-12.21-1.89-17.71-6.69-.44-9.06-1.81-27.87-2.04-44.04-.13-8.15.04-15.66.74-20.87.34-2.44.8-4.38,1.39-5.68.29-.63.78-1.26,1.43-1.89,2.25-2.13,6.57-4.11,12.06-5.92,13.72-4.53,34.75-7.94,49.44-9.75-.38-.25-.74-.49-1.06-.71t0,0h0c-1.23-.84-1.99-1.42-1.99-1.42l-4.31-2.8c.24-.54.48-1.07.74-1.6-.02,0-.05,0-.08,0-.68.72-1.61,1.36-2.52,1.51-.33.05-.72.09-1.14.09-.92,0-1.98-.18-2.8-.76-.16,0-.32.01-.49.01-1.59,0-3.49-.45-4.44-2.11-1.72-.26-3.45-1.18-3.8-3.6-3.55-.91-10.24-2.87-11.87-4.24-1.68-1.41-1.95-5.84-1.64-7.67.31-1.82,2.39-3.29,2.45-3.36,0,0,0,0,0,0,.37-.56.88-.78,1.4-.97.02,0,.04,0,.07,0,1.06,0,10.05,3.17,17.35,5.81.26-.17.51-.34.79-.5l1.49-.98c.96-1.01,2.32-1.44,3.72-1.44,1.96,0,3.99.86,5.09,2.17,1.51,1.8,2.6,5.75,2.97,7.26.56-.29.92-.32,1.04-.32.03,0,.05,0,.05,0l.26.71c-.09-.52-.26-.71-.26-.71h9.53l2.58-3.19s7.08-11.48,12.53-17.41c4.31-4.69,7.42-7.34,9.76-8.25.14-.05.28-.07.42-.08,1.16-.66,2.46-1.25,3.92-1.74.38-.13.79-.25,1.2-.36.14-.04.27-.09.42-.13.34-.09.68-.17,1.02-.25.27-.07.54-.13.81-.2-.63-.45-1.33-1.01-2.21-1.73-2.32-1.9-4.66-6.34-5.6-9.15-.22-.67-.4-5.12-.47-8.47-.82-.82-1.57-2.03-2.04-3.55-.78-2.55-.35-5.19.93-6.26,0,0-.02-.01-.03-.02-.15-.95-2.08-7.6-2.67-12.71-.06-.48.2-1.99.51-3.41-1.08-1.28-1.99-3.19-2.68-6-.13-1.27-.03-1.67.43-1.67.75,0,2.43,1.04,5.56,1.04.11,0,.21,0,.32,0-3.67-1.54-4.56-7.07-2.02-7.07.6,0,1.39.31,2.39,1.06,1.4,1.05,3.26,1.45,5.4,1.45,6.36,0,15.24-3.47,22.16-3.47M131.29,0S131.29,0,131.29,0c-3.86,0-8.09.95-12.19,1.86-3.7.83-7.19,1.61-9.97,1.61-1.64,0-2.85-.28-3.6-.85-1.48-1.12-2.86-1.66-4.19-1.66-2.15,0-3.89,1.48-4.33,3.69-.15.74-.15,1.55-.02,2.38-.8.11-1.53.48-2.07,1.08-1.13,1.26-.97,2.89-.87,3.86.01.14.04.27.07.4.59,2.44,1.38,4.41,2.39,5.99-.4,2.11-.32,2.81-.29,3.06.46,3.95,1.66,8.71,2.3,11.27.04.14.07.29.11.44-1.18,2.05-1.42,4.95-.53,7.83.44,1.43,1.1,2.73,1.93,3.82.17,6.99.48,7.92.6,8.27.75,2.24,2.47,5.91,4.66,8.6-.81.33-1.6.7-2.37,1.12-.17.04-.33.09-.5.15-2.8,1.09-6.15,3.87-10.9,9.02-5.28,5.75-11.84,16.2-12.77,17.7l-1.56,1.93h-7c-.69-2.15-1.63-4.41-2.85-5.87-1.68-2-4.51-3.24-7.39-3.24-2.19,0-4.17.74-5.61,2.1l-.76.5c-15.22-5.49-16.23-5.49-16.97-5.49-.37,0-.74.06-1.07.18-.51.18-1.63.57-2.55,1.67-1.34,1.1-2.89,2.8-3.26,4.98-.24,1.43-.54,7.78,2.66,10.47,1.98,1.66,7.8,3.43,11.42,4.42.83,1.83,2.38,3.17,4.44,3.8,1.38,1.51,3.45,2.37,5.91,2.43,1.04.49,2.25.75,3.57.75.55,0,1.1-.04,1.63-.13.08-.01.15-.03.23-.04l.27.17c-11.16,1.59-29.33,4.6-42.14,8.83-6.43,2.12-10.74,4.28-13.18,6.6-.99.96-1.66,1.87-2.09,2.82-.7,1.52-1.23,3.65-1.63,6.5-.66,4.92-.92,12.09-.77,21.34.17,11.92.96,25.3,1.53,35.07.21,3.57.39,6.66.51,9.06.04.82.41,1.58,1.02,2.12,4.98,4.34,11.13,6.86,17.89,7.34.23.17.48.32.76.42.34.13.7.19,1.06.19.73,0,1.45-.27,2.02-.78,1.51-1.37,3.64-2.3,5.89-3.29.72-.32,1.46-.64,2.19-.98.08.03.16.06.25.09.92.29,2.03.63,3.31,1.02v.35c-.92,1.28-2.34,3.66-2.54,6.35-.01.05-.02.11-.03.17-.02.11-.03.21-.04.31-.31.25-.57.56-.77.93-.15.28-.33.57-.55.87-.21.16-.4.34-.57.55l-.13.16-.17.21c-.1.13-.19.26-.27.4-1.43,1.37-3.3,2.36-5.28,3.4-3.66,1.94-7.77,4.12-9.44,9.13-.56.56-.89,1.32-.89,2.13v2.66c0,.88.38,1.71,1.05,2.28,3.2,2.74,9.28,3.32,13.82,3.32,5.73,0,11.39-.96,14.53-2.45,1.15-.38,3.8-1.17,6.36-1.94,5.91-1.76,8.11-2.44,9.03-2.84,3.58-1.34,3.39-4.99,3.32-6.38v-.75c0-.08,0-.16,0-.23.05-.75-.17-1.48-.62-2.06-.07-.16-.15-.32-.23-.46.16-.88.35-2.21.38-3.67.15-.63.09-1.18-.03-1.61-.06-.85-.18-1.65-.36-2.38-.08-.33-.22-.64-.4-.92,5.21,1.47,11.09,3.12,17.54,4.92l-.19,1.46c-.06.45-.02.89.12,1.31-.33.79-.47,1.56-.56,2.11-.02.1-.04.21-.06.31l-.02.17c-.03.18-.06.35-.08.5-.32.54-1.46,1.72-2.23,2.52-2.22,2.31-4.5,4.69-4.65,7.28-.28.58-.49,1.17-.63,1.79-.25.66-.26,1.29-.24,1.98,0,.47,0,.92.02,1.35,0,.24.02.48.02.74.02,1.13.67,2.16,1.69,2.66,2.98,1.44,8.15,2.15,15.79,2.15h.91s.51,0,.51,0h.12c4.42,0,8.33-1.71,11.02-4.82,2.06-2.38,3.21-5.43,3.32-8.64.47-.2.89-.53,1.2-.95.18-.25,1.4-1.89,2.44-3.98,5.79,1.6,11.73,3.25,17.76,4.92.04,1.01.07,1.89.08,2.62.02.81.36,1.58.95,2.14,7.41,6.92,21.68,9.66,31.65,9.89.02,0,.05,0,.07,0,.6,0,1.19-.18,1.68-.52,14.13-9.58,46.42-31,49.83-33.13.91-.57,1.44-1.58,1.4-2.65l-1.64-44.6-.49-33.49c-.02-1.44-1.06-2.65-2.47-2.91l-2.3-.41c.45-1.42.94-2.93,1.41-4.34.68-2.07,1.27-3.85,1.62-5.09.72-2.28,1.61-4.58,2.48-6.8.41-1.05.82-2.1,1.21-3.14.19-.5.24-1.03.15-1.56-.66-3.84-3.05-7.56-7.32-11.37-.03-.03-.07-.06-.11-.09l-.18-.15c-4.09-3.32-8.74-6.92-12.37-7.78-3.54-1.22-7.56-1.64-10.51-1.95-.9-.09-1.67-.18-2.29-.26-2.89-.42-5.94-.89-8.88-1.35-3.52-7.8-6.89-13.21-10.04-16.11-.27-.4-.58-.79-.91-1.16l-.13-.14c-.54-.59-1.18-1.16-1.9-1.7l-.15-.11c-.65-.48-1.37-.94-2.15-1.37l-.05-.03-.13-.07c-.37-.2-.75-.4-1.14-.59-.02,0-.06-.03-.08-.04-.34-.16-.71-.33-1.08-.49l-.23-.1c-.38-.16-.76-.32-1.15-.47l-.14-.05c-.38-.14-.71-.26-1.04-.38l-.31-.11c-.37-.13-.73-.25-1.1-.37l-.24-.07-.11-.03c-.27-.08-.53-.16-.8-.24l-.09-.03-.36-.1c-.32-.09-.65-.18-.97-.27l-.45-.12-.11-.03-.22-.06-1.76-3.44c-.5-.97-1.46-1.57-2.48-1.63-.16-.03-.4-.08-.72-.14.01-1.41.18-3.27.43-5.72,2.5-.62,4.93-2.53,6.41-5.14,1.28-2.25,1.63-4.8.96-6.99-.27-.89-.7-1.7-1.26-2.38.56-1.89,1.3-4.63,1.83-7.48,1.51-7.54-.78-11.99-2.22-13.93-.41-5.9-6.02-10.43-11.65-11.53C133.78.11,132.6,0,131.29,0h0Z"/>
          <g>
            <path class="cls-23" d="M202.75,96.78c-2.63-2.13-8.15-6.67-11.48-7.37.17.06.34.12.49.17,2.63,1.01,4.78,2.55,5.56,5.03-3.14,3.1-5.79,7.71-8.02,13.09-2.51,6-4.46,12.91-5.98,19.71.67-.15,1.29-.28,1.85-.4,1.2-.21,2.17-.31,2.84-.25l13.37,2.44c1.05-3.83,3.22-9.94,3.98-12.65,1.09-3.47,2.51-6.82,3.75-10.13-.63-3.68-3.37-6.97-6.36-9.64Z"/>
            <path class="cls-31" d="M90.54,89.01c21.85-4.65,69.22,15.37,81.92,41.62,1.35-.46,2.67-.9,3.9-1.28,3.09-16.63,8.59-37.24,15.39-39.77-.15-.06-.32-.12-.49-.17-4.27-1.5-9.58-1.73-12.4-2.13-23.14-3.37-52.59-9.26-76.91-7.71-7.64.17-8.13,2.74-11.41,9.45Z"/>
            <path class="cls-31" d="M3.78,133.42c-.71,5.22-.88,12.72-.74,20.87,2.1,13.79,10,29.22,19.18,37.88-.78-16.38-1.87-41.64-1.05-54.51l-17.39-4.25Z"/>
            <path class="cls-31" d="M3.04,154.3c.23,16.17,1.6,34.97,2.04,44.04,5.5,4.8,11.88,6.57,17.71,6.69-.1-2.67-.32-7.24-.57-12.84-9.18-8.67-17.09-24.09-19.18-37.88Z"/>
            <path class="cls-31" d="M64.22,118.74c-12.19-4.61-34.89-.88-45.39,1.98l-.17-.78c-5.49,1.81-9.81,3.79-12.06,5.92l16.61,3.43c4.32-2.82,25.33-7.43,41.01-10.55Z"/>
            <path class="cls-54" d="M23.21,129.29l-16.61-3.43c-.65.63-1.14,1.26-1.43,1.89-.59,1.29-1.05,3.24-1.39,5.68l17.39,4.25c.25-4.19.71-7.08,1.45-7.92.13-.15.32-.31.59-.46Z"/>
            <path class="cls-23" d="M22.81,205.55c3.07-2.78,7.64-3.87,11.05-5.94-1.77-10.7-1.49-23.48-1.79-35.09-1.6-.92-2.53-1.75-2.72-2.51-.11-3.73-1.11-12.51-.04-15.03-.08-.04-.13-.06-.21-.07,6.91-6.17,19.12-8.84,28.32-10.97,6.53-2,13.5-2.88,20.17-3.22.15-5.85,1.89-11.68,3.81-17.31-2,.36-8.84,1.64-17.18,3.33-15.68,3.12-36.68,7.73-41.01,10.55-.27.15-.46.31-.59.46-.74.84-1.2,3.73-1.45,7.92-.82,12.88.27,38.13,1.05,54.51.25,5.6.48,10.17.57,12.84,0,.19,0,.36.02.53Z"/>
            <path class="cls-2" d="M128.45,167.04c-30.23-4.47-90.83-16.46-99.14-20.06-1.07,2.52-.08,11.3.04,15.03.19.76,1.12,1.6,2.72,2.51,12.97,7.41,69.33,18.9,95.81,21.54-.02-6.23.1-12.31.46-17.66.04-.48.08-.91.11-1.37Z"/>
            <path class="cls-52" d="M70.52,188.66c-8.04,1.98-13.33,10.11-16.76,17.85,18.34,5.22,45.92,12.89,75.56,21.08-.19-4.47-.51-10.61-.82-17.52-.19-4.53-.38-9.39-.49-14.28-1.14-.31-2.31-.61-3.45-.9-15.28-4.15-38.17-11.09-54.04-6.23Z"/>
            <path class="cls-30" d="M57.42,135.94c-9.2,2.13-21.41,4.8-28.32,10.97.08.02.13.04.21.07,8.3,3.6,68.91,15.58,99.14,20.06.19-2.42.44-4.67.74-6.69.69-4.59,1.72-8.04,3.16-9.79.11-.13.27-.28.4-.44,1.7-1.71,4.5-3.66,8-5.66,1.26-.7,2.61-1.43,4-2.15-7.12-1.37-13.75-2.46-17.81-3.35-14.11-3.18-28.15-5.9-42.34-6.46h-.1c-2.23.02-4.55.1-6.91.21-6.67.34-13.64,1.22-20.17,3.22Z"/>
            <path class="cls-41" d="M32.07,164.53c.3,11.6.02,24.38,1.79,35.09.04.36.11.74.19,1.12,3.64,1.14,10.51,3.16,19.71,5.77,3.43-7.74,8.72-15.87,16.76-17.85,15.87-4.86,38.76,2.08,54.04,6.23,1.14.29,2.31.59,3.45.9-.04-1.98-.08-3.96-.11-5.96,0-1.26,0-2.49-.02-3.75-26.48-2.65-82.83-14.13-95.81-21.54Z"/>
            <path class="cls-2" d="M83.76,108.74c-.76,2.19-1.58,4.42-2.36,6.67-1.92,5.64-3.66,11.47-3.81,17.31,2.36-.11,4.69-.19,6.91-.21h.1c14.19.55,28.23,3.28,42.34,6.46,4.06.89,10.68,1.98,17.81,3.35,5.98-3.1,13.14-6.25,20-8.87,1.35-.51,2.7-1.03,4.04-1.51,1.26-.46,2.48-.89,3.68-1.31-12.7-26.25-60.07-46.27-81.92-41.62-.08.11-.13.25-.19.36-2.15,4.82-3.79,11.22-5.45,16-.36,1.12-.74,2.25-1.14,3.37Z"/>
            <path class="cls-30" d="M18.66,119.94l.17.78c10.5-2.86,33.2-6.59,45.39-1.98,8.34-1.7,15.18-2.97,17.18-3.33.78-2.25,1.6-4.47,2.36-6.67-7.14.08-44.44,4.38-65.1,11.2Z"/>
            <g>
              <path class="cls-49" d="M96.29,102.43l-5.45,7.35-.09.12s-.06.04-.09.06c-1.2.83-3.48,2.02-9.02,1.41-1.21-.13-2.23-.55-3.07-1.15-3.11-2.22-3.72-7.05-2.16-10.35.64-1.35,1.61-2.77,2.62-4.08,2.14-2.73,4.51-4.94,4.69-4.94,4.65.4,7.64,2.72,9.53,5.16,2.39,3.1,3.03,6.42,3.03,6.42Z"/>
              <path class="cls-27" d="M83.72,90.85c-.23-.02-5.32,4.83-7.31,9.02-1.98,4.19-.45,10.87,5.23,11.5,5.68.63,7.94-.64,9.11-1.47l5.53-7.47s-2.05-10.67-12.57-11.58Z"/>
              <path class="cls-18" d="M69.11,94.57s-1.55-.18-3.92,3.03-3.37,5.27-4.44,7.66l2.92.75,5.44-3.64,1.4-3.99-1.4-3.81Z"/>
              <path class="cls-13" d="M69.11,94.57s-1.55-.18-3.92,3.03-3.37,5.27-4.44,7.66l2.92.75,5.44-3.64,1.4-3.99-1.4-3.81Z"/>
              <path class="cls-27" d="M69.11,94.57s-1.55-.18-3.92,3.03-3.37,5.27-4.44,7.66l2.92.75,5.44-3.64,1.4-3.99-1.4-3.81Z"/>
              <path class="cls-28" d="M90.84,109.78l-.09.12s-.06.04-.09.06c-1.03.79-4.82,3.56-8.81,3.31-2.68-.16-8.18-2.39-12.75-4.81-2.45-1.29-4.63-2.64-5.98-3.75-3.87-3.19-3.48-6.82-2.22-8.46,1.26-1.64,9.36-.28,17.15-.47.34-.01.67,0,.99.01,7.04.36,9.74,6.42,9.74,6.42,0,0,.84,2.06,1.46,4.05,0,0,0,0,0,0,.49,1.53.84,3.02.6,3.51Z"/>
              <path class="cls-27" d="M88.78,102.21s-2.95-6.62-10.73-6.43c-7.78.19-15.89-1.17-17.15.47-1.26,1.64-1.64,5.27,2.22,8.46,3.87,3.19,14.61,8.31,18.73,8.56s8.03-2.7,8.9-3.38"/>
              <path class="cls-39" d="M56.24,86.9c2.32-2.43,6.92-1.52,8.81.73,1.89,2.25,3.12,7.87,3.12,7.87,0,0-3.53,7.83-5.76,8.16s-15.99-2.59-16.21-4.86c-.22-2.27,2.53-7.27,8.55-10.91l1.49-.98Z"/>
              <path class="cls-27" d="M62.4,103.65c-2.23.33-15.99-2.59-16.21-4.86-.22-2.27,2.53-7.27,8.55-10.91l1.49-.98c2.32-2.43,6.92-1.52,8.81.73,1.89,2.25,3.12,7.87,3.12,7.87"/>
              <path class="cls-42" d="M35.14,83.54c-.06.06-2.14,1.54-2.45,3.36-.31,1.82-.04,6.26,1.64,7.67,1.68,1.41,8.73,3.45,12.18,4.32,3.46.87,14.15,4.75,16.08,4.72,1.92-.03,3.83-3.28,3.83-3.28,0,0-7.5-8.36-7.92-8.63s-23.37-8.16-23.37-8.16Z"/>
              <path class="cls-46" d="M63.48,91.87s-25.96-9.63-26.94-9.29-1.96.81-1.96,3.58,1.79,5.36,2.88,5.94,26.88,9.03,28.38,8.73.69-4.51-2.37-8.96Z"/>
              <path class="cls-29" d="M60.33,90.05s-4.06,2.95-5.65,2.22c-1.6-.73-.76-2.94,1.56-5.37"/>
              <path class="cls-27" d="M60.33,90.05s-4.06,2.95-5.65,2.22c-1.6-.73-.76-2.94,1.56-5.37"/>
              <path class="cls-43" d="M53.57,102.17s1.91.61,2.97.48,2.85-2.06,4-2.18,1.94.45,1.85,1.49-1.85,2.94-3.52,3.21-4.85.12-5.3-3Z"/>
              <path class="cls-27" d="M53.57,102.17s1.91.61,2.97.48,2.85-2.06,4-2.18,1.94.45,1.85,1.49-1.85,2.94-3.52,3.21-4.85.12-5.3-3Z"/>
              <path class="cls-24" d="M49.47,100.81s2.28.73,3.55.58,3.41-2.47,4.79-2.61,2.32.54,2.21,1.78c-.11,1.23-2.21,3.52-4.21,3.84s-5.8.15-6.34-3.59Z"/>
              <path class="cls-27" d="M49.47,100.81s2.28.73,3.55.58,3.41-2.47,4.79-2.61,2.32.54,2.21,1.78c-.11,1.23-2.21,3.52-4.21,3.84s-5.8.15-6.34-3.59Z"/>
              <path class="cls-48" d="M46.19,98.79s2.28.73,3.55.58,3.41-2.47,4.79-2.61,2.32.54,2.21,1.78c-.11,1.23-2.21,3.52-4.21,3.84s-5.8.15-6.34-3.59Z"/>
              <path class="cls-27" d="M46.19,98.79s2.28.73,3.55.58,3.41-2.47,4.79-2.61,2.32.54,2.21,1.78c-.11,1.23-2.21,3.52-4.21,3.84s-5.8.15-6.34-3.59Z"/>
              <path class="cls-11" d="M96.29,102.43l-5.45,7.35-.09.12s-.06.04-.09.06c-1.03.79-4.82,3.56-8.81,3.31-2.68-.16-8.18-2.39-12.75-4.81,2.95.64,6.73,1.39,9.47,1.76,1.08.14,2,.22,2.63.21,3.71-.07,5.42-1.1,7.33-2.41.66-.46,1.23-1.06,1.71-1.76,0,0,0,0,0,0,.91-1.29,1.54-2.88,2.01-4.44.71-2.35.99-5.64,1-5.8,2.39,3.1,3.03,6.42,3.03,6.42Z"/>
              <path class="cls-18" d="M140.9,56.62c-.28.12-15.62-3.79-24.35-1.13l-1.65,6.66s2.89,3.55,3.03,4.28c.14.73,10.79-.19,10.79-.19l5.1-2.97s6.23-4.08,6.65-4.29.43-2.38.43-2.38Z"/>
              <path class="cls-9" d="M140.9,56.62c-.28.12-15.62-3.79-24.35-1.13l-1.65,6.66s2.89,3.55,3.03,4.28c.14.73,10.79-.19,10.79-.19l5.1-2.97s6.23-4.08,6.65-4.29.43-2.38.43-2.38Z"/>
              <path class="cls-25" d="M140.9,56.62c-.28.12-15.62-3.79-24.35-1.13l-1.65,6.66s2.89,3.55,3.03,4.28c.14.73,10.79-.19,10.79-.19l5.1-2.97s6.23-4.08,6.65-4.29.43-2.38.43-2.38Z"/>
              <path class="cls-18" d="M96.81,103.25l4.73-7.66s.02-.02.04-.05c.61-.7,7.29-8.56,6.84-16.5-.36-6.29-2.42-10.89-3.4-12.76-.29-.54-.94-.78-1.51-.56-2.35.91-5.45,3.57-9.76,8.25-5.45,5.93-12.53,17.41-12.53,17.41l-2.58,3.19h-9.53s1.14,1.22-.94,6.26c-2.09,5.04-7.42,4.43-7.42,4.43l4.31,2.8s10.23,7.85,16.35,7.35,11.05-5.1,15.41-12.16Z"/>
              <path class="cls-27" d="M96.81,103.25l4.73-7.66s.02-.02.04-.05c.61-.7,7.29-8.56,6.84-16.5-.36-6.29-2.42-10.89-3.4-12.76-.29-.54-.94-.78-1.51-.56-2.35.91-5.45,3.57-9.76,8.25-5.45,5.93-12.53,17.41-12.53,17.41l-2.58,3.19h-9.53s1.14,1.22-.94,6.26c-2.09,5.04-7.42,4.43-7.42,4.43l4.31,2.8s10.23,7.85,16.35,7.35,11.05-5.1,15.41-12.16Z"/>
              <path class="cls-7" d="M101.58,95.54s-.04.05-.04.05l-4.73,7.66s-1.1-.21-2.73-.77c-1.44-3.14-4.06-8.06-4.06-8.06,0,0,1.2-.99,2.89-2.87,1.69-1.88-.31-6.61,1.08-11.7,1.38-5.08,3.42-6.84,4.81-8.23,0,0,2.86,2.13,3.59,2.5.59.29-.54,15.17-.81,21.41Z"/>
              <g>
                <g>
                  <rect class="cls-50" x="84.73" y="217.34" width="16.21" height="9.46"/>
                  <path class="cls-40" d="M101.91,227.71c.99,6.79-3.85,12.73-11.35,12.67-2.42,0-11.75.17-15.9-1.84-.03-1.88-.29-3.3.88-5.13-.69-2.6,5.92-7.23,6.7-9.56.49-2.01.08-4.54,3.78-4.64,3.34-.2,14.31,1.81,15.3,8.12l.58.39Z"/>
                  <path class="cls-26" d="M101.91,227.71c.99,6.79-3.85,12.73-11.35,12.67-2.42,0-11.75.17-15.9-1.84-.03-1.88-.29-3.3.88-5.13-.69-2.6,5.92-7.23,6.7-9.56.49-2.01.08-4.54,3.78-4.64,3.34-.2,14.31,1.81,15.3,8.12l.58.39Z"/>
                  <path class="cls-47" d="M101.91,229.23c-.95,11.79-19.17,10.46-27.27,7.52,0-.24-.06-.97.04-1.21,4.21,2.38,10.82,2.37,15.5,2.06,5.73-.02,10.1-2.66,11.74-8.38Z"/>
                  <path class="cls-47" d="M100.59,228.09c-5.6-6.4-13.87-8.05-18.19-4.98.02-.15.04-.32.06-.49,3.74-2.65,13.76-1.56,18.13,5.47Z"/>
                  <path class="cls-40" d="M100.64,222.74c-1.29,5.93.8,8.03.84,1.25.4-3.1-.03-7.49-.84-1.25Z"/>
                  <path class="cls-26" d="M100.64,222.74c-1.29,5.93.8,8.03.84,1.25.4-3.1-.03-7.49-.84-1.25Z"/>
                  <path class="cls-47" d="M100.94,226.8c0,.69-.31.69-.31,0,0-.69.31-.69.31,0Z"/>
                </g>
                <g>
                  <path class="cls-38" d="M56.9,218.52l-15.91-6.3c-.71,2.18-3.47,4.89-3.47,4.89l10.08,7.93,11.11-.5c1.5-3.65.04-4.01-1.8-6.01Z"/>
                  <path class="cls-26" d="M56.9,218.52l-15.91-6.3c-.71,2.18-3.47,4.89-3.47,4.89l10.08,7.93,11.11-.5c1.5-3.65.04-4.01-1.8-6.01Z"/>
                  <path class="cls-40" d="M60.91,223.02c-.18,1.62.71,4.07-1.45,4.82-1.06.55-12.78,3.87-15.41,4.77-5.39,2.68-20.89,3.37-25.26-.37v-2.66l.47-.25c1.98-8.44,12.47-7.65,16.47-15.19,4.85-.52,17,7.36,19.5,10.08,0,0,4.15-1.66,4.76-2.03.6-.37.63.66.63.66l.29.17Z"/>
                  <path class="cls-26" d="M60.91,223.02c-.18,1.62.71,4.07-1.45,4.82-1.06.55-12.78,3.87-15.41,4.77-5.39,2.68-20.89,3.37-25.26-.37v-2.66l.47-.25c1.98-8.44,12.47-7.65,16.47-15.19,4.85-.52,17,7.36,19.5,10.08,0,0,4.15-1.66,4.76-2.03.6-.37.63.66.63.66l.29.17Z"/>
                  <path class="cls-47" d="M51.63,224.96c-4.54-2.95-12.08-8.98-17.62-8.57.1-.13.21-.25.31-.38,5.32.07,13.48,5.17,17.31,8.95Z"/>
                  <path class="cls-47" d="M60.91,223.48v1.59c-.58.68-2.25,1.32-3.99,1.81-10.35,3.3-27.14,9.26-38.13,4.1v-1.25c10.8,5.44,27.54-.7,37.8-3.91,2.28-.63,3.45-1.2,4.32-2.35Z"/>
                  <path class="cls-40" d="M51.21,224.28c.87,2.2,10.36-7.98,9.22-8.08-.39-.84-1.23-1-3.67,1.34-4.11,3.94-6.59,5.71-5.55,6.75Z"/>
                  <path class="cls-26" d="M51.21,224.28c.87,2.2,10.36-7.98,9.22-8.08-.39-.84-1.23-1-3.67,1.34-4.11,3.94-6.59,5.71-5.55,6.75Z"/>
                  <path class="cls-47" d="M52.81,223.25c.01.72-1.13.72-1.12,0-.01-.72,1.13-.72,1.12,0Z"/>
                </g>
                <path class="cls-37" d="M37.43,139.63c-.03-.31,3.07-12.81,18.46-12.81s33.83-.1,35.29,0,27.64.21,27.95,1.15-2.2,22.3-7.22,24.6c-5.02,2.3-14.46,3.87-19.28,4.19s-28.16-1.15-28.47-1.15-25.09,1.86-26.73-15.98Z"/>
                <path class="cls-25" d="M37.43,139.63c-.03-.31,3.07-12.81,18.46-12.81s33.83-.1,35.29,0,27.64.21,27.95,1.15-2.2,22.3-7.22,24.6c-5.02,2.3-14.46,3.87-19.28,4.19s-28.16-1.15-28.47-1.15-25.09,1.86-26.73-15.98Z"/>
                <path class="cls-37" d="M66.61,149.53c-.82,13.55,1.98,47.24-8.52,62.32l2.04,1.94c.81,3.26-.22,7.29-.22,7.29-5.47,2.32-24.23-8.87-23.02-9.11,0-3.05,2.57-5.97,2.57-5.97v-3.67c-.23-.49-2.72-3.91-2.55-5.07-.69-3.3.22-7.97.96-11.01.12-1.3,1.1-2.04,1.1-2.04-1.24-16.74-2.25-16.97-2.93-37.46-.46-8.6,6.47-15.91,15.08-15.88,10.42.03,15.76,9.08,15.48,18.66Z"/>
                <path class="cls-25" d="M66.61,149.53c-.82,13.55,1.98,47.24-8.52,62.32l2.04,1.94c.81,3.26-.22,7.29-.22,7.29-5.47,2.32-24.23-8.87-23.02-9.11,0-3.05,2.57-5.97,2.57-5.97v-3.67c-.23-.49-2.72-3.91-2.55-5.07-.69-3.3.22-7.97.96-11.01.12-1.3,1.1-2.04,1.1-2.04-1.24-16.74-2.25-16.97-2.93-37.46"/>
                <path class="cls-37" d="M107.89,215.29c-.94,3.08-.15,2.56-.84,5.53-.69,2.98-3.22,6.34-3.22,6.34-5.07-8.51-13.8-9.97-20.87-8.26l.58-4.4c2.86-2.73.99-5.92.41-9.35l3.34-6.05c-2.88-8.16.85-24.7,1.29-42.33.32-5.07-1.54-7.11-.88-13.55,1.72-9.29,13.07-13.98,20.86-8.74,4.19,2.7,6.69,7.63,6.22,12.72-.41,18.81-2.55,40.9-5.11,51.78.23,8.67,1.92,6.75-1.78,16.3Z"/>
                <path class="cls-25" d="M107.89,215.29c-.94,3.08-.15,2.56-.84,5.53-.69,2.98-3.22,6.34-3.22,6.34-5.07-8.51-13.8-9.97-20.87-8.26l.58-4.4c2.86-2.73.99-5.92.41-9.35l3.34-6.05c-2.88-8.16.85-24.7,1.29-42.33.32-5.07-1.54-7.11-.88-13.55,1.72-9.29,13.07-13.98,20.86-8.74,4.19,2.7,6.69,7.63,6.22,12.72-.41,18.81-2.55,40.9-5.11,51.78.23,8.67,1.92,6.75-1.78,16.3Z"/>
                <path class="cls-5" d="M110.28,207.99c-3.06,1.32-13.13,2.44-13.62,2.18,4.47-.98,11.84-4.68,13.3-6.41.21,2.23.73,2.5.32,4.23Z"/>
                <path class="cls-5" d="M90.61,210.73s-1.19.54-5.4.77c-.02-.93-1.01-5.18-1.22-6.17.22.81,1.43,4.09,6.62,5.4Z"/>
                <path class="cls-5" d="M60.8,206.31c-1.34,3.24-2.7,5.54-2.7,5.54-2.09,1.19-9.34,1.83-9.3,1.73,3.7-.41,11.22-5.88,12-7.27Z"/>
                <path class="cls-5" d="M47.35,206.31s-3.35.24-7.88-.96v-3.02c-.23-.45-2.72-3.93-2.55-5.06,0,0,4.6,5.92,10.44,9.05Z"/>
                <path class="cls-37" d="M91.23,136.91s9.11-7.61,33.22-12.95c24.1-5.34,25.06,5.43,25.51,15.57.44,10.14-11.92,16.72-18.14,16.28s-20.61,4.45-20.88,4.45-19.7-23.34-19.7-23.34Z"/>
                <path class="cls-25" d="M93.26,134.82s7.08-5.52,31.19-10.85c24.1-5.34,25.06,5.43,25.51,15.57.44,10.14-11.92,16.72-18.14,16.28s-17.24,3.68-17.51,3.68"/>
              </g>
              <path class="cls-18" d="M85.12,126.77s8.47-3.83,9.87-9.08c1.39-5.26.54-43.01.54-43.01,0,0,3.32-8.58,13.94-11.26,10.62-2.68,22.55-4.4,28.12-3.32s18.98,3.54,21.13,10.08c2.15,6.54-5.15,30.03-6.54,33.68s-2.57,33.14-2.57,33.14c0,0-20.06-4.61-25.32-5.26s-15.98-1.34-21.88.56-10.3,4.69-10.3,4.69l-6.98-10.22Z"/>
              <path class="cls-18" d="M157.51,84.86c-1.79,8.23-4.54,16.88-5.34,18.98-1.4,3.65-2.58,33.14-2.58,33.14,0,0-20.07-4.61-25.32-5.26-3.29-.4-8.74-.83-13.81-.62-.07,0-.14,0-.21.01-1.04.04-2.08.12-3.06.23-1.78.19-3.42.5-4.8.94-5.9,1.9-10.29,4.69-10.29,4.69l-6.98-10.22s8.47-3.83,9.86-9.08c1.39-5.26.54-43.01.54-43.01,0,0,3.33-8.58,13.94-11.26.95-.24,1.9-.47,2.86-.7,1.62-.37,3.26-.72,4.89-1.04,6.75-1.32,13.29-2.09,17.76-1.87.97.04,1.85.14,2.61.28,1.36.26,3.18.61,5.19,1.07,6.24,1.45,14.31,4.06,15.93,9.01.91,2.78.12,8.62-1.2,14.69Z"/>
              <path class="cls-7" d="M157.51,84.86c-1.79,8.23-4.54,16.88-5.34,18.98-1.4,3.65-2.58,33.14-2.58,33.14,0,0-20.07-4.61-25.32-5.26-3.29-.4-8.74-.83-13.81-.62-.07,0-.14,0-.21.01.29-.22.62-.43.99-.62,4.53-2.22,15.92-.72,20.26-.1,4.34.62,9.14-1.86,9-3.65-.14-1.78-13.02-5.03-13.49-5.03.44,0,5.87-.1,9.3-1.24,3.72-1.24,6.66-4.34,7.59-12.24.93-7.9,0-16.11,0-16.11l13.61-7.29Z"/>
              <path class="cls-27" d="M104.07,65.68c1.45-.92,3.23-1.71,5.4-2.26,10.62-2.68,22.55-4.4,28.12-3.32s18.98,3.54,21.13,10.08c2.15,6.54-5.15,30.03-6.54,33.68s-2.57,33.14-2.57,33.14c0,0-20.06-4.61-25.32-5.26s-15.98-1.34-21.88.56-10.3,4.69-10.3,4.69l-6.98-10.22s8.47-3.83,9.87-9.08c.8-3.01.86-16.67.76-27.8"/>
              <g>
                <path class="cls-49" d="M170.24,102.92c.22.07,3.02,6.52,3.2,11.16.19,4.64-3.83,10.18-9.31,8.55-5.48-1.64-7.06-3.69-7.81-4.91l-2.17-9.04s6.05-9.02,16.09-5.75Z"/>
                <path class="cls-27" d="M170.24,102.92c.22.07,3.02,6.52,3.2,11.16.19,4.64-3.83,10.18-9.31,8.55-5.48-1.64-7.06-3.69-7.81-4.91l-2.17-9.04s6.05-9.02,16.09-5.75Z"/>
              </g>
              <g>
                <path class="cls-17" d="M116.41,64.52c1.03,1.5,1.53,3.26,1.64,5.12,0,.02,0,.04,0,.06.05.25.1.5.16.75.52,1.43,1.02,2.86,1.33,4.36,1.49-1.2,3.03-2.32,4.65-3.32,2.67-1.65,5.1-3.45,7.97-4.65.14-.18.28-.36.42-.52,1.12-1.29,2.59-2.39,4.04-3.29,1.41-.88,2.97-1.57,4.57-2.15-5.2-3.96-4.03-5.37-2.55-21.63l-18.16,12.45-.77,7.19c-1.16.69-2.88,1.47-4.81,2.25.75.92,1.28,1.99,1.47,3.16.01.08.03.15.04.23Z"/>
                <path class="cls-27" d="M116.41,64.52c1.03,1.5,1.53,3.26,1.64,5.12,0,.02,0,.04,0,.06.05.25.1.5.16.75.52,1.43,1.02,2.86,1.33,4.36,1.49-1.2,3.03-2.32,4.65-3.32,2.67-1.65,5.1-3.45,7.97-4.65.14-.18.28-.36.42-.52,1.12-1.29,2.59-2.39,4.04-3.29,1.41-.88,2.97-1.57,4.57-2.15-5.2-3.96-4.03-5.37-2.55-21.63l-18.16,12.45-.77,7.19c-1.16.69-2.88,1.47-4.81,2.25.75.92,1.28,1.99,1.47,3.16.01.08.03.15.04.23Z"/>
                <path class="cls-6" d="M131.45,67.15c.23-.11.46-.22.7-.31.07-.09.15-.18.22-.27-3.36-.45-6-.66-5.57-.25.11.1,2.08.45,4.66.84Z"/>
                <g class="cls-21">
                  <path class="cls-10" d="M125.97,61.96c-3.41,5.18-4.53,3.95-4.58-.98.02-1.47-1.94-1.02-1.31,1.21.63,2.23,1.47,4.18,2.07,4.24s2.14-.46,4.52-3.54c1.03-1.33.86-3.09-.69-.94Z"/>
                </g>
                <path class="cls-4" d="M137.25,51.71s0,.03,0,.04c-2.7,2.07-8.51,6.49-10.78,7.89-2.77,2.03-5.57.59-6.53-2.8,0-.05-.04-.17-.05-.22,0,0,.46-4.33.46-4.33,1.88-1.57,16.07-10.46,18.52-11.92-1.4,5.46-1.55,9.01-1.62,11.34Z"/>
              </g>
              <path class="cls-18" d="M118.51,69.49l-4.23,7.65s-3.54-9.67-1.43-17.12l3.7-4.53-.02,3.59,1.98,10.41Z"/>
              <path class="cls-25" d="M118.51,69.49l-4.23,7.65s-3.54-9.67-1.43-17.12l3.7-4.53-.02,3.59,1.98,10.41Z"/>
              <path class="cls-18" d="M125.73,69.47l-.26,2.4s-.66.44-1.37.94c-.86.61-1.79,1.31-1.77,1.43.06.22-5.38,18.89-5.3,19.47.09.57-5.32,30.69-6.1,34.19-.1.44-.26,1.57-.47,3.21-1.12.04-2.22.12-3.28.24.15-.99.27-1.72.35-2.13.94-4.66,4.76-22.03,6.97-36.06,2.22-14.02,3.34-19.25,3.34-19.25l.47-4.37.05-.48.17.07,1.59.7-.32,5.82,2.1-5.85,2.17-.52,1.65.18Z"/>
              <path class="cls-7" d="M125.73,69.47l-.26,2.4s-.66.44-1.37.94c-.86.61-1.79,1.31-1.77,1.43.06.22-5.38,18.89-5.3,19.47.09.57-5.32,30.69-6.1,34.19-.1.44-.26,1.57-.47,3.21-1.12.04-2.22.12-3.28.24.15-.99.27-1.72.35-2.13.94-4.66,4.76-22.03,6.97-36.06,2.22-14.02,3.34-19.25,3.34-19.25l.47-4.37.05-.48.17.07,1.59.7-.32,5.82,2.1-5.85,2.17-.52,1.65.18Z"/>
              <path class="cls-25" d="M125.73,69.47l-.26,2.4s-.66.44-1.37.94c-.86.61-1.79,1.31-1.77,1.43.06.22-5.38,18.89-5.3,19.47.09.57-5.32,30.69-6.1,34.19-.1.44-.26,1.57-.47,3.21-1.12.04-2.22.12-3.28.24.15-.99.27-1.72.35-2.13.94-4.66,4.76-22.03,6.97-36.06,2.22-14.02,3.34-19.25,3.34-19.25l.47-4.37.05-.48.17.07,1.59.7-.32,5.82,2.1-5.85,2.17-.52,1.65.18Z"/>
              <path class="cls-18" d="M124.68,79.43c-.65.86-.6-10.13-.6-10.13,0,0,6.95-8.44,16.82-12.68l2.21,4.33s-8.56,5.39-18.43,18.48Z"/>
              <path class="cls-25" d="M124.68,79.43c-.65.86-.6-10.13-.6-10.13,0,0,6.95-8.44,16.82-12.68l2.21,4.33s-8.56,5.39-18.43,18.48Z"/>
              <g>
                <g>
                  <path class="cls-1" d="M103,33.33c1.78-.2,3.17,1.82,3.92,5.12.85,3.7-.2,5.74-.91,6.17-1.34.82-3.95-1.03-5.04-4.55-.97-3.17-.08-6.5,2.02-6.74Z"/>
                  <path class="cls-14" d="M103,33.33c1.78-.2,3.17,1.82,3.92,5.12.85,3.7-.2,5.74-.91,6.17-1.34.82-3.95-1.03-5.04-4.55-.97-3.17-.08-6.5,2.02-6.74Z"/>
                  <path class="cls-27" d="M103,33.33c1.78-.2,3.17,1.82,3.92,5.12.85,3.7-.2,5.74-.91,6.17-1.34.82-3.95-1.03-5.04-4.55-.97-3.17-.08-6.5,2.02-6.74Z"/>
                  <path class="cls-34" d="M111.39,9.84c-.47.06-1.01.15-1.58.27.15.27.26.57.33.88.25,1.18-.52,2.56-1.62,3.02,0,0,0,0,0,0-.41.39-.92.67-1.48.77-.22.04-.44.07-.66.09-.77.06-1.13,0-1.88-.22-.37-.1-.71-.37-.98-.67-.16-.12-.3-.26-.44-.41-.2-.22-.33-.48-.43-.75-.88.6-1.62,1.29-2.1,2.09-.47.77-1.43,5.28-1.33,6.17.59,5.12,2.52,11.76,2.67,12.71.95.45.87,3.56,1.34,5.97.14.03,1.2.29,1.39.38-.22-3.87.25-12.88.26-17.39,0-1.03,5.97-6.25,7.69-5.6-.07-.62-.39-4.72-1.17-7.31Z"/>
                  <path class="cls-36" d="M135.21,50.44c-.62,1.11-3.73,3.72-5.35,4.72-2.86,1.76-6.47,3.59-9.94,4.04-.2.03-4.48-.21-4.68-.26-3.31-.79-8.39-5.95-10.08-9.1-.58-1.07-2.08-7.87-2.4-12.46-.11-1.68.38-4.99.6-8.11h0c.08-1.09.12-2.15.1-3.11-.09-3.54-.2-5,.25-5.73.97-1.56,3.12-3.52,6.59-4.81,3.06-1.13,7.16-1.73,12.4-1.04,7.21.94,13.91,2.2,17.66,5.49.35.31.67.63.97.97,1.21,1.39,1.95,3.09,2.12,5.2.62,7.9-6.08,20.31-8.24,24.19Z"/>
                  <g class="cls-15">
                    <path class="cls-33" d="M113.35,39.44c-1.74,1.84-4.77,1.57-6.87.51,2.29.36,4.77.7,6.87-.51h0Z"/>
                  </g>
                  <g class="cls-15">
                    <path class="cls-33" d="M130.54,39.32c-1.74,1.84-4.77,1.57-6.87.51,2.29.36,4.77.7,6.87-.51h0Z"/>
                  </g>
                  <path class="cls-14" d="M132.43,23.9s3.38,4.18,4.03,7.2c.65,3.02-.08,7.69-.08,7.69l2.2-5.69s-.24-3.75-.31-3.88-1.13-4.59-1.13-4.59c0,0-1.55-1.9-1.88-2.32s-1.62-1.14-1.62-1.14l-1.22,2.73Z"/>
                  <path class="cls-14" d="M142.1,19.76l-.64.42-6.55,4.29c-.1-.09-18.08-4.11-23.6-3.9-5.52.21-6.52.69-6.52.69,0,0-1.24,6.86-1.29,7.13.08-1.08.12-2.14.1-3.1-.09-3.54-.2-5,.25-5.73.97-1.56,3.12-3.52,6.59-4.81,1.69-.3,3.12-.5,3.5-.35,1.05.4,14.95.92,17.01,1.57,1.51.47,6.84,2.3,9.56,3.23.98.34,1.61.56,1.61.56Z"/>
                  <path class="cls-27" d="M103.71,20.43c1.83-2.94,7.82-7.31,18.99-5.84,10.61,1.39,20.11,3.45,20.76,11.67.62,7.9-6.08,20.31-8.24,24.19-.62,1.11-3.73,3.72-5.35,4.72-2.86,1.76-6.47,3.59-9.94,4.04-.2.03-4.48-.21-4.68-.26-3.3-.79-8.39-5.96-10.08-9.1-.58-1.07-2.08-7.87-2.4-12.46-.16-2.26.79-7.47.69-11.23-.09-3.54-.2-5,.25-5.73Z"/>
                  <path class="cls-34" d="M145.52,24.7c.18-1.81,0-3.63-.06-5.44-.01-.46-.02-.97-.06-1.47-.06-.13-.12-.24-.2-.3-.35-.28-.25-.72,0-.94-.11-.44-.28-.86-.53-1.23-.13-.18-.13-.41-.05-.59-.2-.37-.4-.71-.6-.96-2.52-3.14-6.52-4.68-8.53-5.6-.45,1.9-6.04,6.84-6.12,7.53,6.31.85,8.9,3.86,9.61,5.01,1.19,1.93-1.36,13.49-1.41,15.89-.08,3.76.17,7.19.18,7.38.73-.99,3.98-7.21,4.97-7.63.57-1.41,2.19-6.32,3.07-11.11-.17-.12-.29-.31-.27-.54Z"/>
                  <g>
                    <path class="cls-45" d="M143.11,34.07c-2.53-.93-4.96.72-5.86,4.01-1.02,3.73-.33,5.98.48,6.55,1.53,1.08,5.03-.22,6.88-3.49,1.67-2.94.98-6.17-1.5-7.08Z"/>
                    <path class="cls-27" d="M143.11,34.07c-2.53-.93-4.96.72-5.86,4.01-1.02,3.73-.33,5.98.48,6.55,1.53,1.08,5.03-.22,6.88-3.49,1.67-2.94.98-6.17-1.5-7.08Z"/>
                    <path class="cls-14" d="M140.38,37.06c-.37.14-2.27,5.44-1.87,5.58,1.36.48,2.79-.22,3.58-1.76,1.01-1.94.37-4.61-1.71-3.82Z"/>
                  </g>
                  <path class="cls-34" d="M103.03,39.86c1.42,6.67,5.91,10.91,6.22,10.36.21-.38.48-3.52,1.72-4.06.9-.39,3.66.03,7.12-.05,3.43-.08,5.72-.47,7.09.1,1.25.53,2.46,3.7,2.85,4.35.32.54,6.39-3.53,8.03-10.15.15,0,.73,0,1.01-.03-.82,3.18-.15,4.06,1.15,4.51-.39.88-1.46,6.52-1.6,6.82-.55,1.17-5.28,8.28-7.91,9.86-2.67,1.6-6.34,3.25-8.44,3.49-.67.08-5.24-.13-5.69-.31-1.94-.75-3.01-1.48-5.5-3.51-2.32-1.9-4.66-6.34-5.6-9.15-.36-1.09-.6-12.24-.45-12.24Z"/>
                  <path class="cls-51" d="M124.89,51c-.49,1.5-1.36,3.18-2.48,4.21-.35.32-3.03,1.18-4.98,1.14-1.95-.04-3.45-.94-3.74-1.3-.61-.76-1.23-1.94-1.69-3.14-.55-1.44-.88-2.9-.68-3.64.23-.88.99-.54,3.64-.5.73.01,3.62-.11,4.73-.22,2.64-.27,5.26-.71,5.6.67.14.56-.01,1.61-.39,2.77Z"/>
                  <path class="cls-8" d="M124.89,51c-.49,1.5-1.36,3.18-2.48,4.21-.35.32-3.03,1.18-4.98,1.14-1.95-.04-3.45-.94-3.74-1.3-.61-.76-1.23-1.94-1.69-3.14h.67s2.29.71,5.48.57c3.09-.14,5.16-.44,6.75-1.49Z"/>
                  <path class="cls-3" d="M104.66,29.33c.76-.66,1.84-1.22,2.75-1.41,1.8-.38,3.95-.09,5.31.37.44.15.64,1.54.55,1.66-.1.15-.29.16-.6.08-1.61-.38-3.13-.91-5.33-.61-.8.11-1.73.34-2.2.5-.18.06-.7.26-.74.2-.1-.14,0-.56.27-.79Z"/>
                  <path class="cls-3" d="M131.94,28.71c-.96-.6-2.29-1.07-3.4-1.19-2.18-.24-4.74.22-6.32.78-.51.18-.64,1.58-.53,1.7.13.14.36.13.73.04,1.89-.5,3.67-1.15,6.33-1.02.97.05,2.09.2,2.67.32.22.05.86.2.9.14.11-.15-.03-.55-.38-.77Z"/>
                  <path class="cls-34" d="M128.55,20.7c.09-.62,3.1-8.16,4.41-9.91,3.12.51,7.38,3.18,9.23,6.41.45.78.55,5.65.4,6.54-.82,4.77-2.02,9.38-2.2,10.33-.99.42-3.08,5.43-3.64,7.83-.15.02-.97,0-1.16.08.86-3.86,2.51-8.57,1.53-11.78-.3-.98-1.17-2.79-1.57-3.3-.04-1.7.07-4.48-2.54-5.95-.83-.47-2.67-.86-4.45-.27Z"/>
                  <path class="cls-34" d="M131.86,20.43c-3.56,2.62-11.31,2.14-15.12-.58-6.95-2.71-16.26,6.04-19.71-8.18-.35-3.41.98-.51,6.32-.63-4.54-1.9-4.82-9.91.37-6.01,6.2,4.66,21.32-3.58,30.58-1.76,4.81.94,9.52,4.86,9.23,9.7,0,0,3.99,3.64,2.26,12.27-1.73,8.63-5.01,3.56-5.14,3.57s-1.34-4.32-1.34-4.32l-2.96-7.71-4.41,3.8-.08-.15Z"/>
                  <path class="cls-34" d="M115.9,53.22c-.04.51.99,1.63,1.91,1.72,1.07.1,1.98-1.14,1.98-1.66,0-.21-.87-.08-1.95-.1-1.08-.02-1.93-.24-1.95.04Z"/>
                  <path class="cls-3" d="M118.42,50.41c1.56-.17,3.85-.95,5.01-1.84.12-.09.32-.35-.41-.14-2.88.82-5.85,1.34-8.94.9-.7-.1-.95-.07-.85.05.54.64,3.24,1.24,5.19,1.03Z"/>
                </g>
                <g>
                  <g>
                    <path class="cls-22" d="M113.66,37.87c-2.1,1.56-7.26.92-8.8-.33-.01-.07.06-.06.05-.13l-.2-.1c.15-2,.25-4.64,2.46-5.12,5.12-1.11,6.64,3.27,6.49,5.68Z"/>
                    <path class="cls-20" d="M113.66,37.87c-1.77,1.97-7.26.94-8.8-.21-.01-.06-.03-.13-.04-.19h0c.15-1.84.2-4.1,2.42-4.5,4.67-.85,5.81,2.32,6.43,4.9Z"/>
                  </g>
                  <g>
                    <path class="cls-22" d="M121.87,37.71c2.35,1.65,8.28,1.03,10.08-.28.02-.07-.07-.06-.05-.14l.24-.1c-.11-2.1-.14-4.88-2.66-5.4-5.82-1.21-7.7,3.38-7.61,5.91Z"/>
                    <path class="cls-20" d="M121.87,37.71c1.97,2.09,8.28,1.05,10.08-.15.02-.07.04-.14.05-.2h0c-.11-1.93-.09-4.3-2.62-4.75-5.31-.93-6.72,2.39-7.51,5.1Z"/>
                  </g>
                  <g class="cls-15">
                    <path class="cls-33" d="M106.32,31.22c1.51-1.18,3.92-.84,5.35.31-1.77-.5-3.55-.81-5.35-.31h0Z"/>
                  </g>
                  <g class="cls-15">
                    <path class="cls-33" d="M130.06,30.89c-2.08-.4-4.1,0-6.11.6,1.67-1.25,4.26-1.69,6.11-.6h0Z"/>
                  </g>
                </g>
                <path class="cls-22" d="M107.13,33.7c-1.14.62-1.64,2.2-1.09,3.55.55,1.35,1.91,1.93,3.06,1.32,1.15-.61,1.63-2.2,1.09-3.55-.54-1.36-1.9-1.94-3.05-1.32Z"/>
                <path class="cls-20" d="M106.58,34.45c-.32.18-.47.62-.31.99.13.37.52.54.84.36.32-.18.47-.62.31-.99s-.54-.53-.84-.36Z"/>
                <path class="cls-22" d="M124.33,33.82c-1.32.62-1.9,2.2-1.27,3.55.64,1.35,2.2,1.93,3.53,1.31,1.33-.61,1.89-2.21,1.26-3.55-.63-1.36-2.2-1.94-3.53-1.31Z"/>
                <path class="cls-20" d="M123.63,34.57c-.37.18-.54.63-.36.99.15.37.6.54.97.36.37-.18.54-.63.36-.99s-.62-.53-.97-.36Z"/>
                <path class="cls-14" d="M116.35,41.26s.26,1.93,1.37,1.96c.2,0,.26-.26.49-.31s.51.06.6.49c.14.7-1.06,1.28-2.2.1-.79-.82-.48-1.87-.26-2.24Z"/>
                <path class="cls-47" d="M115.45,41.7c-.16,1.14.8,2.22,1.9,2.48.07.02.15.03.22.04.17.02.24-.22.08-.29-.74-.33-1.27-1-1.4-1.8-.14-.72.24-1.28.83-1.67.39-.26.82-.37,1.28-.43.14-.02.15-.22.01-.25h0c-.81-.19-2.67.1-2.92,1.92Z"/>
              </g>
              <path class="cls-7" d="M99.15,116.91c.53.1,1.39,1.86,9.25,1.34s17.57-4.56,17.57-4.56c0,0-8.96,6.06-14.72,7.15-5.76,1.09-12.09-3.93-12.09-3.93Z"/>
            </g>
            <path class="cls-31" d="M128.33,168.41c-.36,5.35-.48,11.43-.46,17.66.02,1.26.02,2.49.02,3.75.04,2,.08,3.98.11,5.96.11,4.89.3,9.75.49,14.28.31,6.92.63,13.05.82,17.52.02.32.04.65.06.93.06,1.58.11,2.91.13,3.94,7.2,6.72,21.64,8.9,29.67,9.09-.17-10-1.58-54.49.17-75.16l-30.17-6.04c-.3,2.02-.55,4.27-.74,6.69-.04.46-.08.89-.11,1.37Z"/>
            <path class="cls-54" d="M159.36,166.39c.4-4.86.99-8.38,1.81-9.83l-28.42-6.44c-.13.15-.29.31-.4.44-1.45,1.75-2.48,5.2-3.16,9.79l30.17,6.04Z"/>
            <path class="cls-44" d="M161.17,156.56c-.82,1.45-1.41,4.97-1.81,9.83-1.75,20.67-.34,65.16-.17,75.16.97-.72,3.77-3.37,7.58-7.07,1.16-10.34,7.39-23.58,11.1-32.23,7.64-16.72,18.08-26.91,29.6-38.53l-.49-33.52s-40.67,21.24-45.45,25.87c-.13.11-.25.28-.36.49Z"/>
            <path class="cls-23" d="M207.47,163.73c-11.52,11.62-21.96,21.81-29.6,38.53-3.71,8.65-17.52,28.95-18.68,39.29,14.39-9.75,46.55-31.08,49.92-33.19l-1.64-44.63Z"/>
            <path class="cls-2" d="M191.76,89.58c-6.8,2.53-12.3,23.14-15.39,39.77,2.65-.84,5.01-1.51,6.95-1.94,1.52-6.8,3.47-13.71,5.98-19.71,2.23-5.37,4.88-9.98,8.02-13.09-.78-2.48-2.93-4.02-5.56-5.03Z"/>
            <path class="cls-31" d="M161.53,156.07c4.78-4.63,45.45-25.87,45.45-25.87l-5.6-1.01-13.37-2.44c-.67-.06-1.64.04-2.84.25-.55.11-1.18.25-1.85.4-1.94.44-4.3,1.11-6.95,1.94-1.24.38-2.55.82-3.9,1.28-1.2.42-2.42.86-3.68,1.31-1.33.48-2.68.99-4.04,1.51-6.86,2.63-14.02,5.77-20,8.87-1.39.73-2.74,1.45-4,2.15-3.5,2-6.31,3.94-8,5.66l28.42,6.44c.11-.21.23-.38.36-.49Z"/>
            <path class="cls-18" d="M136.06,138.42s-.56,1.68,1.26,4.08,8.04,5.29,9.67,5.24l1.31-6.08-2.5-3.62s-6.23-.61-6.33-.68-3.42,1.06-3.42,1.06Z"/>
            <path class="cls-13" d="M136.06,138.42s-.56,1.68,1.26,4.08,8.04,5.29,9.67,5.24l1.31-6.08-2.5-3.62s-6.23-.61-6.33-.68-3.42,1.06-3.42,1.06Z"/>
            <path class="cls-27" d="M136.06,138.42s-.56,1.68,1.26,4.08,8.04,5.29,9.67,5.24l1.31-6.08-2.5-3.62s-6.23-.61-6.33-.68-3.42,1.06-3.42,1.06Z"/>
            <g>
              <path class="cls-49" d="M164.52,110.76c-.39.08-6.01-1.79-12.49,4.88-6.48,6.67-7.29,14.62-12.23,20.4-4.94,5.78-9.33,10.84-9.49,17.39-.16,6.54-.73,7.59.48,9.83s6.98,9.67,8.02,8.24.36-1.81.36-1.81c0,0,1.72,2.56,3.09,1.49s.5-2.56.5-2.56c0,0,1.27,1.97,2.31.41s.64-2.54.64-2.54c0,0,1.22,2.12,2.27.97,1.06-1.16.47-1.98-.18-3.44s-1.75-4.71-2.09-6.53c-.35-1.83-.38-4.5-.1-6.34.28-1.84-.52-3.82.17-5.27.69-1.45,8.52-7.5,14.07-12.53,5.55-5.02,11.51-12.09,12.15-14.18.64-2.09-4.56-8.96-7.48-8.39Z"/>
              <path class="cls-27" d="M164.52,110.76c-.39.08-6.01-1.79-12.49,4.88-6.48,6.67-7.29,14.62-12.23,20.4-4.94,5.78-9.33,10.84-9.49,17.39-.16,6.54-.73,7.59.48,9.83s6.98,9.67,8.02,8.24.36-1.81.36-1.81c0,0,1.72,2.56,3.09,1.49s.5-2.56.5-2.56c0,0,1.27,1.97,2.31.41s.64-2.54.64-2.54c0,0,1.22,2.12,2.27.97,1.06-1.16.47-1.98-.18-3.44s-1.75-4.71-2.09-6.53c-.35-1.83-.38-4.5-.1-6.34.28-1.84-.52-3.82.17-5.27.69-1.45,8.52-7.5,14.07-12.53,5.55-5.02,11.51-12.09,12.15-14.18"/>
              <path class="cls-47" d="M139.17,170.09c-2.79-3.09-5.85-7.08-5.11-11.49-.57,4.37,2.6,8.19,5.46,11.13.25.22-.11.61-.35.36h0Z"/>
              <path class="cls-47" d="M142.69,169.05c-2.37-3.02-5.08-6.44-5.09-10.44.17,3.96,3.01,7.24,5.47,10.11.23.24-.16.59-.38.33h0Z"/>
              <path class="cls-47" d="M145.5,166.62c-1.56-2.34-3.03-4.8-3.79-7.52-.21-.9-.35-1.9.07-2.76-.38.87-.2,1.85.05,2.73.87,2.65,2.44,5.03,4.07,7.26.2.26-.22.57-.41.29h0Z"/>
            </g>
            <path class="cls-18" d="M174.55,102.13s-8.81-27.88-17.28-33.96c-.19-.14-2.72-1.2-8.6,4.15-5.88,5.34-3.66,20.06-1.94,25.63s4.44,12.28,4.44,12.28c0,0-3.25,5.57-6.42,11.82s-8.62,16.5-8.69,16.37,8.43,1.13,10.1,6.22c1.67,5.09.83,3.09.83,3.09l6.63-6.33s6.5-4.45,11.77-9.26,15.24-11.49,9.15-30.02Z"/>
            <path class="cls-27" d="M174.55,102.13s-8.81-27.88-17.28-33.96c-.19-.14-2.72-1.2-8.6,4.15-5.88,5.34-3.66,20.06-1.94,25.63s4.44,12.28,4.44,12.28c0,0-3.25,5.57-6.42,11.82s-8.62,16.5-8.69,16.37,8.43,1.13,10.1,6.22c1.67,5.09.83,3.09.83,3.09l6.63-6.33s6.5-4.45,11.77-9.26,15.24-11.49,9.15-30.02Z"/>
            <path class="cls-27" d="M155.23,110.93c-2.17-1.24-4.07-.69-4.07-.69,0,0,1.22-3.21,3.39-3.01"/>
            <path class="cls-27" d="M140.31,130.62s10.25.02,13.06,11.03"/>
            <path class="cls-27" d="M73.58,94.57s2.84,9.9-6.54,14.91"/>
          </g>
        </g>
      </g>
    </g>
  </g>
</svg>