<?xml version="1.0" encoding="UTF-8"?>
<svg xmlns="http://www.w3.org/2000/svg" xmlns:xlink="http://www.w3.org/1999/xlink" viewBox="0 0 278.7 444.51">
  <defs>
    <style>
      .cls-1 {
        fill: #4b7214;
      }

      .cls-2 {
        stroke: #afb1b5;
      }

      .cls-2, .cls-3, .cls-4, .cls-5, .cls-6, .cls-7, .cls-8, .cls-9, .cls-10 {
        stroke-miterlimit: 10;
      }

      .cls-2, .cls-11 {
        fill: #fff;
      }

      .cls-2, .cls-5, .cls-7 {
        stroke-width: 4.55px;
      }

      .cls-12 {
        fill: #8f419d;
      }

      .cls-13 {
        fill: #722e63;
      }

      .cls-14 {
        fill: #517f63;
        stroke-width: 1.1px;
      }

      .cls-14, .cls-3, .cls-4, .cls-15, .cls-5, .cls-16, .cls-9, .cls-10 {
        stroke-linecap: round;
      }

      .cls-14, .cls-3, .cls-16, .cls-8 {
        stroke: #27190f;
      }

      .cls-14, .cls-15, .cls-16 {
        stroke-linejoin: round;
      }

      .cls-17 {
        fill: #b8bfc5;
      }

      .cls-3, .cls-4, .cls-18, .cls-15, .cls-5, .cls-6, .cls-8, .cls-9, .cls-10 {
        fill: none;
      }

      .cls-3, .cls-15, .cls-8 {
        stroke-width: .5px;
      }

      .cls-19 {
        fill: #f3ebe9;
      }

      .cls-20 {
        fill: #9a548d;
      }

      .cls-21 {
        fill: #29150e;
      }

      .cls-22 {
        fill: #4f4843;
      }

      .cls-23 {
        fill: #a3c345;
      }

      .cls-24 {
        fill: #7d3f72;
      }

      .cls-25 {
        fill: #ff5251;
      }

      .cls-26 {
        fill: #33cbfa;
      }

      .cls-27 {
        fill: #ffdf0f;
      }

      .cls-28 {
        fill: #83675a;
      }

      .cls-29 {
        fill: #e29f7a;
      }

      .cls-30 {
        fill: #c43649;
      }

      .cls-4 {
        stroke-width: 1.52px;
      }

      .cls-4, .cls-10 {
        stroke: #b92f20;
      }

      .cls-31 {
        fill: #de7926;
      }

      .cls-32 {
        fill: #3f312c;
      }

      .cls-33 {
        fill: #91c443;
      }

      .cls-34 {
        fill: #b52c37;
      }

      .cls-35 {
        fill: #e0ae4c;
        opacity: .2;
      }

      .cls-35, .cls-36, .cls-37 {
        mix-blend-mode: multiply;
      }

      .cls-38 {
        fill: #472826;
      }

      .cls-39 {
        fill: #4e3817;
      }

      .cls-40 {
        fill: #e2a07a;
      }

      .cls-41 {
        fill: #26cacd;
      }

      .cls-42 {
        fill: #4e883f;
        mix-blend-mode: darken;
      }

      .cls-43 {
        fill: #e9883a;
      }

      .cls-44 {
        fill: #efb48c;
      }

      .cls-45 {
        fill: #0c2949;
        opacity: .1;
      }

      .cls-46 {
        fill: #95b048;
      }

      .cls-47 {
        fill: url(#radial-gradient-5);
      }

      .cls-48 {
        fill: #f6ffff;
      }

      .cls-49 {
        fill: #e47b2c;
      }

      .cls-50 {
        fill: #9acb42;
      }

      .cls-51 {
        fill: #ddd7d5;
      }

      .cls-52 {
        fill: #d55825;
      }

      .cls-53 {
        fill: url(#radial-gradient);
      }

      .cls-54 {
        fill: url(#radial-gradient-3);
      }

      .cls-55 {
        fill: #125163;
      }

      .cls-36, .cls-56 {
        fill: #cfe0eb;
      }

      .cls-15 {
        stroke: #281b12;
      }

      .cls-57 {
        fill: #faf3f7;
      }

      .cls-58 {
        fill: #231f20;
      }

      .cls-59 {
        isolation: isolate;
      }

      .cls-60 {
        fill: #6b3263;
      }

      .cls-61 {
        fill: #6d2d1d;
      }

      .cls-5 {
        stroke: #898b8e;
      }

      .cls-62 {
        fill: #ffc743;
      }

      .cls-63 {
        fill: #ed453a;
      }

      .cls-64 {
        fill: #c83572;
      }

      .cls-65 {
        clip-path: url(#clippath-3);
      }

      .cls-66 {
        fill: #13723d;
      }

      .cls-67 {
        fill: #d78136;
      }

      .cls-68 {
        fill: url(#radial-gradient-2);
      }

      .cls-69, .cls-16 {
        fill: #fcc156;
      }

      .cls-70 {
        fill: #ffb435;
      }

      .cls-71 {
        fill: #e63e5a;
      }

      .cls-72 {
        fill: #da6528;
      }

      .cls-73 {
        fill: url(#radial-gradient-4);
      }

      .cls-16 {
        stroke-width: .96px;
      }

      .cls-6, .cls-9 {
        stroke: #d7b5ff;
        stroke-width: 3.7px;
      }

      .cls-74 {
        fill: #ffa90e;
      }

      .cls-75 {
        fill: #ffac49;
      }

      .cls-76 {
        fill: #f14483;
      }

      .cls-77 {
        fill: #f45450;
      }

      .cls-78 {
        fill: #524038;
      }

      .cls-79 {
        fill: #f6d56f;
      }

      .cls-80 {
        fill: #ffd050;
      }

      .cls-81 {
        fill: #ee5789;
      }

      .cls-82 {
        fill: #ee3a54;
      }

      .cls-7 {
        stroke: #78797c;
      }

      .cls-7, .cls-83 {
        fill: #78797c;
      }

      .cls-84 {
        fill: #d05546;
      }

      .cls-85 {
        fill: #e3dede;
      }

      .cls-86 {
        fill: #27190f;
      }

      .cls-87 {
        fill: #ecf0f2;
      }

      .cls-88 {
        fill: #932d24;
      }

      .cls-89 {
        fill: #bbda3a;
      }

      .cls-90 {
        fill: #ffe574;
      }

      .cls-91 {
        fill: #f03535;
      }

      .cls-92 {
        fill: #e9ac3a;
      }

      .cls-93 {
        fill: #927869;
      }

      .cls-94 {
        fill: #759e2d;
      }

      .cls-95 {
        clip-path: url(#clippath-2);
      }

      .cls-37, .cls-96 {
        fill: #85b943;
      }

      .cls-37, .cls-97 {
        opacity: .5;
      }

      .cls-98 {
        fill: url(#radial-gradient-6);
      }

      .cls-99 {
        fill: #9b4189;
      }

      .cls-100 {
        fill: #ffca39;
      }

      .cls-101 {
        fill: #67a01f;
      }

      .cls-102 {
        fill: url(#radial-gradient-7);
      }

      .cls-10 {
        stroke-width: 3.03px;
      }

      .cls-103 {
        fill: #1b9c5a;
      }

      .cls-104 {
        fill: #ffd648;
      }

      .cls-105 {
        fill: #281b12;
      }

      .cls-106 {
        fill: #b2b8be;
      }

      .cls-107 {
        fill: #94d2dc;
      }

      .cls-108 {
        fill: #803d3e;
        opacity: .11;
      }

      .cls-109 {
        fill: #edffff;
      }

      .cls-110 {
        fill: #724e1e;
      }

      .cls-111 {
        fill: #d58055;
      }

      .cls-112 {
        fill: #7e8ad3;
      }
    </style>
    <clipPath id="clippath-2">
      <path class="cls-46" d="M105.53,148.81l3.62-.05c4.05-.06,7.41,4.3,7.41,9.67v7.06c0,5.38-3.36,9.63-7.41,9.46l-3.62-.15c-3.91-.17-7.07-4.53-7.07-9.7v-6.79c0-5.17,3.15-9.45,7.07-9.5Z"/>
    </clipPath>
    <radialGradient id="radial-gradient" cx="-6202.7" cy="-2104.26" fx="-6202.7" fy="-2104.26" r="12.43" gradientTransform="translate(6498.58 1466.26) rotate(-9.24)" gradientUnits="userSpaceOnUse">
      <stop offset="0" stop-color="#eeb28c"/>
      <stop offset="1" stop-color="#ecbc8a"/>
    </radialGradient>
    <radialGradient id="radial-gradient-2" cx="-5009.82" cy="-5054.78" fx="-5009.82" fy="-5054.78" r="12.43" gradientTransform="translate(6538.25 3333.31) rotate(-20.79)" xlink:href="#radial-gradient"/>
    <radialGradient id="radial-gradient-3" cx="17236.14" cy="311.33" fx="17236.14" fy="311.33" r="7.66" gradientTransform="translate(17283.77) rotate(-180) scale(1 -1)" gradientUnits="userSpaceOnUse">
      <stop offset="0" stop-color="#efb38d"/>
      <stop offset="1" stop-color="#eebe8c"/>
    </radialGradient>
    <radialGradient id="radial-gradient-4" cx="17255.92" cy="330.59" fx="17255.92" fy="330.59" r="6.41" xlink:href="#radial-gradient-3"/>
    <radialGradient id="radial-gradient-5" cx="17263.91" cy="341.94" fx="17263.91" fy="341.94" r="9.94" xlink:href="#radial-gradient-3"/>
    <radialGradient id="radial-gradient-6" cx="17273.55" cy="356.22" fx="17273.55" fy="356.22" r="7.42" xlink:href="#radial-gradient-3"/>
    <radialGradient id="radial-gradient-7" cx="-7119" cy="-3631.8" fx="-7119" fy="-3631.8" r="30.36" gradientTransform="translate(8024.16 655.68) rotate(-24.34)" xlink:href="#radial-gradient-3"/>
    <clipPath id="clippath-3">
      <polygon class="cls-18" points="108.09 290.36 108.21 238.78 120.29 236.55 115.66 232.99 102.5 228.85 88.67 229.99 72.66 245.64 83.09 289.23 88.8 292.63 93.6 294.15 108.09 290.36"/>
    </clipPath>
  </defs>
  <g class="cls-59">
    <g id="Layer_2" data-name="Layer 2">
      <g id="Layer_3" data-name="Layer 3">
        <g>
          <path class="cls-108" d="M81.98,30.38v2.25s0,4.96,0,4.96v75.58s0,9.01,0,9.01v75.58s0,9.01,0,9.01v75.58s0,9.01,0,9.01v75.58s0,5.06,0,5.06v2.15c0,1,.57,2.13,1.28,2.54l112.73,64.56c.6.34,1.13.36,1.5.11h0l78.66-3.65c2.32-.7,2.53-2.22,2.53-3.63V13.22c0-1.4-.76-1.64-2.53-1.97L196.68,3.02h0c-.21-.03-.44-.03-.67.02l-112.73,25.25c-.71.16-1.28,1.09-1.28,2.09ZM88.47,293.81h0v76.7h0v-76.7ZM88.47,207.96h0v76.69h0,0s0,0,0,0h0s0-76.7,0-76.7ZM88.47,122.11h0v76.7h0v-76.7ZM88.47,36.27h0v76.7h0V36.27Z"/>
          <ellipse class="cls-45" cx="50.44" cy="408.7" rx="31.57" ry="5.03"/>
          <path class="cls-11" d="M190.11,3c.11,0,.21,0,.31.03h0s79.49,8.22,79.49,8.22c1.77.33,2.53.57,2.53,1.97v420.86c0,1.4-.21,2.93-2.53,3.63l-78.66,3.65c-.17.11-.36.16-.58.16-.28,0-.59-.09-.92-.28l-79.38-45.46-28.14-16.12-5.21-2.98c-.71-.41-1.28-1.54-1.28-2.54v-56.9c-.18.09-.36.18-.53.26,0,0,0,0-.01,0l-12.84,8.4c1.48,6.15,3.02,12.29,4.63,18.42,1.09,4.13,2.22,8.25,3.37,12.37.39,1.39.77,2.77,1.17,4.16,1.57,5.49,3.21,10.99,4.92,16.48.04.15.07.3.07.44,0,.45-.19.88-.52,1.11,0,0,0,0,0,0-.16.12-.33.23-.49.34,0-.01,0-.02,0-.04-1.06.66-2.15,1.34-3.26,2.01,0,.02.01.04.02.06-.98.58-1.97,1.13-2.96,1.69-.08.04-.15.09-.23.13,0,0,0,0,0,0-1.28.73-2.59,1.45-3.92,2.14l-1.1,9.21s-.44.4-1.15.83c0,.01,0,.02.01.03.06.14.14.27.21.4.12.02.24.04.35.07.27.08.52.22.67.46,1.28,2.07,3.2,3.87,5.46,5.12,0,0,0,0-.01,0,1.33.45,2.36,1.06,3.05,1.96.1.12.19.25.27.39,0,0,0,.02.01.03,2.09,1.04,1.95,3.68-1.45,6.26-1.89,1.35-4.1,1.96-6.33,1.96s-4.35-.58-6.3-1.61c-1.15-.74-2.48-2.4-3.48-3.33-1.18-1.1-2.91-1.45-3.87-1.88-1.29-.67-1.29-2.93-.35-4.1-.01-.25-.01-.51-.02-.77-.01-.43,0-.9.04-1.38.15-1.79.65-3.75,1.47-4.83-.6-.73-.93-1.32-.93-1.32l-.19-2.27c-1.85.4-3.69.66-5.52.73-.6.05-1.19.07-1.79.07-.99,0-1.97-.07-2.95-.22l-1,3.02s-.51.3-1.29.59c0,.01,0,.02,0,.04.03.15.08.29.12.43.12.04.23.09.33.14.25.13.46.32.56.58.84,2.29,2.36,4.43,4.32,6.11,0,0,0,0-.01,0,1.21.7,2.1,1.52,2.6,2.53.07.14.13.29.19.44,0,0,0,.02,0,.03,1.84,1.43,1.18,3.99-2.67,5.84-1.38.61-2.82.89-4.27.89-2.94,0-5.86-1.17-8.18-3.08-.97-.95-2.03-1.8-2.82-2.91-.94-1.31-2.48-3.05-3.34-3.67-1.14-.92-.68-3.16.5-4.11.02-.23.06-.47.11-.74.07-.43.18-.88.31-1.34.5-1.73,1.39-3.54,2.41-4.44-.44-.83-.64-1.47-.64-1.47l.41-3.45c-.49-.09-.97-.18-1.44-.28-.97-.14-1.92-.31-2.86-.64-1.12-.39-2.19-1.03-3.18-1.86-1.5-1.18-2.83-2.89-3.98-5.54,1.43-3.79,2.97-7.54,4.51-11.3.68-1.71,1.37-3.42,2.05-5.13,1.63-4.07,3.25-8.16,4.68-12.34,1.35-4.03,2.51-8.14,3.37-12.37-1.81,2.89-4.71,7.54-5.58,9.02-1.29,2.19-7.14,8.06-7.14,8.06,0,0-.44-1.63-1.6-3.33-.24.54-.44,1.11-.59,1.71.03.09.05.18.07.27.01.06.03.11.04.17.04.19.06.37.07.56,0,.02,0,.05,0,.07,0,.17,0,.33,0,.5,0,.07-.01.13-.02.2-.01.13-.02.25-.04.38-.01.08-.02.15-.04.23-.02.12-.05.24-.07.37-.02.08-.04.15-.06.23-.03.12-.07.25-.1.37-.02.07-.04.15-.07.22-.04.13-.09.27-.14.4-.02.06-.04.12-.06.19-.07.19-.14.39-.22.58,0,.02-.02.04-.03.06-.07.18-.15.36-.22.54-.04.09-.07.18-.11.27-.06.14-.12.28-.18.42-.06.15-.12.29-.18.44-.03.08-.07.16-.1.24-.05.12-.1.24-.15.36-.03.08-.06.15-.09.23-.05.13-.1.25-.14.38-.02.06-.05.13-.07.19-.07.19-.13.37-.18.56-.06.2-.24.31-.42.31-.09,0-.18-.03-.25-.08-1.95-1.34.18-3.01-.93-4.16-.1-.11-.24-.16-.39-.16-.06,0-.12,0-.18.03-1.77.64-3.63,2.3-3.58,4.4,0,.37-.02.74-.13,1.09-.24.83-.71,1.61-1.14,1.61-.21,0-.42-.19-.59-.65-.21-.5-.09-1.07-.38-1.62-1.23-.75-2.45-1.86-2.45-3.57-1.53-.89-1.82-3.35-1.25-4.92.34-.8.98-1.46,1.63-1.77.48-.38.97-.75,1.48-1.1,1.19-.82,2.53-1.4,3.95-1.66.35-.06.67-.1.98-.12.06,0,.11,0,.16,0h.05s.05,0,.08,0c.11,0,.23,0,.34,0,.03,0,.07,0,.1,0,.26-.41.51-.84.75-1.27-.21-.05-.41-.1-.63-.13l9.78-19.14c1.19-2.35,2.8-5.76,4.77-8.67.45-1.37,1.29-3.53,2.49-4.79,0,0,.01-.01.02-.02.13-.13.26-.26.4-.37.04-.03.08-.06.13-.09.1-.08.21-.16.32-.22.12-.07.25-.12.38-.17.03-.01.06-.03.09-.04,0,0-1.21-1.56.51-2.61.75-.46,1.75-.62,2.45-.68-2.18-.64-7.95-1.93-13.71-5.42-.28-.17-.57-.35-.85-.53-.05-.04-.11-.07-.16-.1-.07-.05-.14-.1-.21-.14-.27-.18-.54-.37-.81-.56-.08-.06-.16-.11-.24-.17-.35-.26-.71-.52-1.06-.8,0,0,0,0,0,0-.73-.57-1.45-1.19-2.16-1.87-4.45-4.19-8.18-10.06-9.72-17.57,0,0,0,0,0,0-1.25-5.05-1.88-11.08-1.6-18.31.86-21.86,19.08-28.45,24.46-30.13.67-.21,1.53-.4,2.53-.56,1.64-.25,3.69-.42,5.97-.42,7.46,0,17.5,1.72,24.62,7.51,2.69,2.19,4.61,4.74,5.96,7.08,2.14,2.53,2.7,4.98,2.82,6.76.09.34.13.55.13.55l.02.29c1.96,3.05,2.85,6.66,2.84,10.36.03,2.37-.3,4.72-.6,7.06-.27,2.31-.37,4.63-.13,6.96.07.8.15,1.61.21,2.42.14.86.26,1.36.26,1.36,0,0,.82,2.76.36,6.21,0,.05-.01.1-.02.15-.03.21-.07.42-.11.63-.01.06-.02.12-.03.18-.01.06-.03.11-.04.17-.02.07-.04.14-.05.21-.5,2.17-1.55,4.48-3.65,6.5-.24.27-.49.54-.75.81-.04.04-.08.08-.12.12-.26.26-.52.51-.79.76-.08.07-.16.15-.25.22-.29.26-.59.51-.9.76-.03.02-.06.05-.08.07-.34.27-.68.53-1.04.79-.09.06-.18.13-.27.19-.29.2-.59.41-.89.6-.08.05-.17.11-.25.16-.37.24-.75.47-1.14.69-.08.04-.16.09-.23.13-.32.18-.65.35-.98.52-.06.03-.13.07-.19.1,0,0,0,0,0,0-.08.04-.16.08-.25.12-.09.04-.18.09-.27.13-.03.01-.05.02-.08.04,0,0,0,0,0,0-.07.03-.15.07-.23.1-.04.02-.08.04-.12.05-.1.05-.2.09-.3.14-.11.05-.23.1-.34.15-.1.04-.19.08-.29.12.02,0,.05-.02.07-.03h0s0,0,0,0c-1.11.58-2.11.99-3.91,1.94-.07.04-.12.07-.17.11-.01,0-.02.02-.03.03-.03.03-.05.05-.06.07,0,.01-.01.02-.01.03,0,.02-.01.05-.01.07,0,.01,0,.02,0,.03,0,.02.02.05.03.07,0,.01.01.02.02.03.02.03.05.06.09.09,0,0,.01.01.02.02.04.04.1.07.16.11.02.01.04.02.06.04.04.03.08.05.13.08.05.03.09.05.14.08.02.01.04.02.06.03.26.13.56.29.88.46.01,0,.02.01.04.02.14.08.27.16.41.24.02.01.05.03.07.04.14.09.27.18.4.28,0,0,0,0,.01,0,.95.71.62,1.36.22,1.74.05.17.07.38.09.57.33.12.75.28.81.69,4.13-2.06,11.03-4.94,11.92-5.86,0,0,3.41-1.14,3.49-1.47.03-.14.9-1.65,1.96-3.6v-42.38l-3.07-12.83,3.07-3V30.38c0-1,.57-1.93,1.28-2.09L189.75,3.04c.12-.03.25-.04.36-.04M58.92,304.88s0,0,0,0c0,0,0,0,0,0M190.11,0c-.34,0-.69.04-1.02.11l-112.73,25.24c-2.1.47-3.63,2.58-3.63,5.02v211l-2.17,2.12c-.75.74-1.07,1.82-.82,2.84l.42,1.77c-.33-.52-.7-1.02-1.1-1.52-1.77-3.01-3.97-5.6-6.53-7.68-9.08-7.38-21.57-8.18-26.51-8.18-2.3,0-4.52.16-6.43.45-1.14.18-2.14.4-2.97.66-5.82,1.82-10.86,4.54-14.98,8.09-7.28,6.26-11.18,14.6-11.58,24.79-.28,7.04.28,13.45,1.66,19.05,1.53,7.41,5.19,14.02,10.6,19.12.73.7,1.53,1.39,2.36,2.04.4.31.78.6,1.17.88l.2.14.06.04c.3.21.59.41.89.61l.04.03c.06.04.12.09.18.13.06.04.12.08.18.11.32.2.63.4.94.58,3.19,1.93,6.33,3.22,8.96,4.11,0,0,0,.02,0,.02-.05.25-.07.5-.07.74,0,0-.01.01-.02.02-.02.02-.05.05-.07.07-1.19,1.25-2.2,3.11-3.04,5.54-1.69,2.55-3.06,5.31-4.18,7.55-.19.39-.38.76-.55,1.1l-9.77,19.13c-1.69.34-3.31,1.04-4.82,2.08-.47.32-.95.68-1.43,1.05-1.18.67-2.18,1.8-2.74,3.11-.02.05-.04.1-.06.15-.86,2.37-.55,5.51,1.26,7.48.3,1.22,1.03,2.58,2.58,3.82.05.28.13.59.27.94.9,2.37,2.81,2.56,3.38,2.56,1.83,0,3.33-1.41,4.02-3.77,0-.02.01-.04.02-.06.18.16.39.32.61.48.58.4,1.25.61,1.95.61,1.51,0,2.87-1.01,3.3-2.46.04-.14.09-.28.14-.42l.03-.07.03-.09c.04-.1.08-.21.12-.31l.08-.2.14-.34.03-.06.07-.16.18-.43.14-.34.04-.08.02-.05.1-.23c.08-.19.16-.38.24-.58l.04-.09c.08-.2.16-.42.24-.64l.06-.18c.06-.16.1-.3.15-.43.63-.09,1.23-.38,1.7-.85.38-.38,1.35-1.36,2.48-2.56-.92,2.42-1.86,4.78-2.73,6.96l-2.05,5.13c-1.51,3.66-3.07,7.47-4.54,11.36-.27.73-.25,1.54.06,2.25,1.26,2.91,2.84,5.09,4.83,6.67,1.27,1.07,2.64,1.87,4.08,2.37.67.24,1.33.4,1.97.53l-.08.65c-.05.43-.01.86.12,1.26,0,.02.02.05.03.09-1,1.54-1.57,3.25-1.82,4.08-.15.53-.28,1.05-.37,1.55-.84,1.09-1.33,2.5-1.33,3.91,0,1.6.63,2.98,1.77,3.9.04.03.09.07.13.1.43.31,1.74,1.7,2.65,2.98.76,1.06,1.66,1.89,2.44,2.63.24.22.48.45.72.68.06.06.12.11.19.17,2.94,2.43,6.52,3.76,10.09,3.76,1.92,0,3.77-.39,5.49-1.15.03-.01.05-.02.08-.04,3.59-1.72,4.8-3.88,5.19-5.36.17.06.35.13.52.19.7.25,1.5.53,1.9.9.27.25.62.62.99,1.01.87.92,1.85,1.96,2.91,2.64.07.05.14.09.22.13,2.41,1.28,5.08,1.96,7.71,1.96,2.97,0,5.77-.87,8.08-2.52.02-.02.05-.03.07-.05,3.79-2.87,4.13-5.67,3.99-7.08-.15-1.55-.95-2.89-2.25-3.8,0-.01-.02-.03-.03-.04-.97-1.24-2.33-2.18-4.14-2.84-1.56-.9-2.91-2.13-3.87-3.52.02-.1.04-.2.05-.3l.91-7.65c.81-.43,1.63-.89,2.46-1.37.05-.02.09-.05.14-.07l.11-.06.12-.07c.92-.52,1.97-1.1,3.01-1.72.19-.11.37-.24.53-.39.82-.5,1.63-1,2.42-1.49.17-.07.32-.16.48-.27.16-.11.33-.23.49-.34.02-.01.04-.02.05-.04.2-.14.38-.3.55-.47l2.45,1.4,28.14,16.12,79.38,45.46c.78.45,1.59.67,2.41.67.43,0,.85-.07,1.25-.19l78.13-3.62c.25-.01.49-.05.73-.12,3.1-.93,4.66-3.12,4.66-6.5V13.22c0-3.99-3.49-4.64-4.98-4.92-.08-.02-.16-.03-.24-.04L190.73.03c-.06,0-.12-.01-.18-.01-.15-.01-.29-.02-.44-.02h0ZM70.79,300.22c.73-.71,1.38-1.48,1.95-2.3v2.16c-.28.52-.54.99-.77,1.4-.18.32-.32.58-.44.8-.55.22-1.4.54-2.19.8-.4.13-.76.35-1.07.63-.71.49-3.63,1.84-5.85,2.86.32-.16.63-.33.93-.5l.07-.04.19-.11c.41-.24.84-.49,1.26-.76l.2-.13.08-.05c.34-.22.66-.44.99-.67l.08-.05.22-.16c.43-.31.81-.6,1.16-.88l.1-.09c.34-.27.67-.56.99-.85l.28-.25c.31-.28.6-.56.89-.85l.13-.13c.27-.28.53-.55.78-.83h0ZM65.77,327.25l6.96-4.56v31.36c-1.06-3.83-2-7.28-2.85-10.49-1.34-5.1-2.69-10.45-4.12-16.3h0ZM46.14,394.18c.91-.04,1.85-.11,2.8-.24.04.08.08.16.12.24,0,.02.02.04.04.08-.67,1.71-.89,3.5-.96,4.36-.04.55-.06,1.08-.05,1.6-.1.2-.18.41-.26.62-.51-.48-1.1-.92-1.77-1.33-1.35-1.19-2.43-2.67-3.09-4.22.04-.09.08-.19.11-.28l.25-.76c.28.01.56.02.85.02.63,0,1.29-.03,1.96-.07h0Z"/>
          <g>
            <g>
              <polygon class="cls-28" points="82.22 379.65 121.42 402.1 121.42 18.45 82.22 27.22 82.22 379.65"/>
              <polygon class="cls-32" points="123.78 240.82 83.09 207.35 131.59 216.22 123.78 240.82"/>
              <polygon class="cls-32" points="123.78 148.09 83.09 122.42 131.59 122 123.78 148.09"/>
              <polygon class="cls-32" points="123.78 53.74 83.09 35.99 131.59 26.12 123.78 53.74"/>
              <polygon class="cls-38" points="123.78 335.17 83.09 293.77 131.59 312.1 123.78 335.17"/>
              <path class="cls-32" d="M121.42,402.1l67.83,38.85c1.13.65,2.54-.17,2.54-1.47V4.67c0-1.01-.93-1.75-1.91-1.53l-68.46,15.31v383.65Z"/>
              <polygon class="cls-34" points="134.62 111.4 146.29 111.05 146.29 35.63 134.62 37.72 134.62 111.4"/>
              <polygon class="cls-78" points="82.22 284.65 122.17 279.62 181.71 287.75 181.71 320.28 82.22 284.65"/>
              <polygon class="cls-78" points="81.85 198.69 121.8 193.66 181.73 201.79 181.73 215.28 81.85 198.69"/>
              <g id="_2" data-name="2">
                <g>
                  <g>
                    <g>
                      <polygon class="cls-79" points="119.46 294.35 149.27 287.06 150.44 234.82 119.58 241.49 119.46 294.35"/>
                      <polygon class="cls-50" points="108.09 290.36 119.38 294.32 119.5 241.47 108.21 238.78 108.09 290.36"/>
                      <polygon class="cls-42" points="119.46 294.35 149.27 287.06 150.28 234.85 119.58 241.49 119.46 294.35"/>
                      <path class="cls-50" d="M108.21,238.78c.31-.09,32.48-5.99,32.66-5.99s9.57,2.03,9.57,2.03l-30.95,6.66-11.29-2.69Z"/>
                      <path class="cls-42" d="M108.21,238.78c.31-.09,32.48-5.99,32.66-5.99s9.57,2.03,9.57,2.03l-30.95,6.66-11.29-2.69Z"/>
                      <polygon class="cls-48" points="110.77 239.4 143.45 233.32 150.44 234.82 119.5 241.47 110.77 239.4"/>
                    </g>
                    <polygon class="cls-48" points="110.56 248.4 117.02 250.07 117.03 246.22 110.57 244.61 110.56 248.4"/>
                  </g>
                  <g>
                    <polygon class="cls-34" points="135.2 299.91 165.81 292.9 167.01 238.81 135.33 245.66 135.2 299.91"/>
                    <polygon class="cls-82" points="123.54 295.82 135.12 299.88 135.25 245.64 123.66 242.88 123.54 295.82"/>
                    <path class="cls-82" d="M123.66,242.88c.32-.09,33.34-6.15,33.53-6.15s9.82,2.08,9.82,2.08l-31.76,6.83-11.59-2.76Z"/>
                    <path class="cls-34" d="M123.66,242.88c.32-.09,33.34-6.15,33.53-6.15s9.82,2.08,9.82,2.08l-31.76,6.83-11.59-2.76Z"/>
                    <polygon class="cls-48" points="126.29 243.52 159.83 237.27 167.01 238.81 135.25 245.64 126.29 243.52"/>
                  </g>
                  <polygon class="cls-48" points="127.29 252.72 134.22 254.51 134.23 250.52 127.29 248.79 127.29 252.72"/>
                </g>
                <g>
                  <g>
                    <polygon class="cls-79" points="157.2 307.89 196.22 296.73 197.75 230 157.36 238.73 157.2 307.89"/>
                    <polygon class="cls-100" points="142.33 302.67 157.1 307.85 157.26 238.71 142.49 235.18 142.33 302.67"/>
                    <polygon class="cls-67" points="157.2 307.89 196.22 296.73 197.54 230.04 157.36 238.73 157.2 307.89"/>
                    <path class="cls-100" d="M142.49,235.18c.41-.11,42.51-7.84,42.74-7.84s12.52,2.66,12.52,2.66l-40.49,8.71-14.77-3.52Z"/>
                    <path class="cls-67" d="M142.49,235.18c.41-.11,42.51-7.84,42.74-7.84s12.52,2.66,12.52,2.66l-40.49,8.71-14.77-3.52Z"/>
                    <polygon class="cls-48" points="145.84 236 188.61 228.04 197.75 230 157.26 238.71 145.84 236"/>
                  </g>
                  <polygon class="cls-48" points="145.56 247.77 154.01 249.95 154.02 244.92 145.57 242.81 145.56 247.77"/>
                </g>
              </g>
              <g id="_4" data-name="4">
                <polygon class="cls-66" points="153.22 409.7 181.73 425.44 181.73 350.63 153.22 338.83 153.22 409.7"/>
                <polygon class="cls-13" points="111.65 386.75 90.2 374.91 90.2 317.08 111.65 326.17 111.65 386.75"/>
                <polygon class="cls-101" points="118.58 390.58 129.35 396.53 129.35 328.95 118.58 324.48 118.58 390.58"/>
                <polygon class="cls-31" points="104.75 382.94 111.65 386.75 111.65 329.64 104.75 326.66 104.75 382.94"/>
                <polygon class="cls-70" points="155.15 410.77 168.29 418.02 168.29 358.05 155.15 352.29 155.15 410.77"/>
                <polygon class="cls-103" points="139.97 402.39 153.22 409.7 153.22 338.83 139.97 333.34 139.97 402.39"/>
                <polygon class="cls-91" points="129.36 328.94 129.36 396.53 139.97 402.39 139.97 333.34 129.36 328.94"/>
                <polygon class="cls-34" points="137.2 332.19 137.2 400.86 139.97 402.39 139.97 333.34 137.2 332.19"/>
                <polygon class="cls-41" points="118.58 390.58 129.35 396.53 129.35 332.09 118.58 327.56 118.58 390.58"/>
                <polygon class="cls-64" points="92.78 376.34 99.95 380.29 99.95 329.36 92.78 326.19 92.78 376.34"/>
                <polygon class="cls-23" points="111.65 386.75 118.58 390.58 118.58 324.48 111.65 321.61 111.65 386.75"/>
                <polygon class="cls-90" points="104.75 382.94 97.28 378.82 97.28 323.44 104.75 326.66 104.75 382.94"/>
                <polygon class="cls-76" points="87.99 373.69 95 377.56 95 327.18 87.99 324.08 87.99 373.69"/>
                <polygon class="cls-99" points="85.76 372.46 90.2 374.91 90.2 317.08 85.76 315.2 85.76 372.46"/>
                <g>
                  <polygon class="cls-52" points="117.55 324.06 181.73 350.63 181.73 341.11 117.55 315.66 117.55 324.06"/>
                  <polygon class="cls-85" points="181.73 349.45 157.48 339.46 157.48 332.62 181.73 342.29 181.73 349.45"/>
                  <polygon class="cls-27" points="110.45 321.12 156.65 340.25 156.65 331.16 110.45 312.85 110.45 321.12"/>
                </g>
                <g>
                  <polygon class="cls-1" points="121.16 317.09 181.73 341.11 181.73 334.48 121.16 311.21 121.16 317.09"/>
                  <polygon class="cls-85" points="181.73 340.28 161.72 332.38 161.72 327.59 181.73 335.3 181.73 340.28"/>
                  <polygon class="cls-89" points="113.95 314.24 160.88 332.84 160.88 326.47 113.95 308.44 113.95 314.24"/>
                </g>
                <path class="cls-22" d="M157.56,339.49l-.08-.03v-6.84l.08.03c.34,1.06.54,2.34.54,3.64,0,1.3-.2,2.41-.54,3.2Z"/>
                <path class="cls-22" d="M161.8,332.41l-.08-.03v-4.96l.08.03c.34.8.55,1.75.55,2.7,0,.95-.21,1.73-.55,2.27Z"/>
                <path class="cls-11" d="M144.79,400.06l3.45,1.87c1.69.91,3.06,0,3.06-2.04h0c0-2.04-1.38-4.43-3.06-5.32l-3.45-1.82c-1.65-.87-2.99.05-2.99,2.06h0c0,2.01,1.33,4.35,2.99,5.25Z"/>
                <polygon class="cls-112" points="166.26 416.9 181.73 425.44 181.73 356.85 166.26 350.27 166.26 416.9"/>
                <path class="cls-26" d="M170.83,409.52l6.15,3.28c1.85.99,3.37.07,3.37-2.05v-.14c0-2.13-1.51-4.64-3.37-5.6l-6.15-3.19c-1.8-.93-3.25,0-3.25,2.07v.13c0,2.08,1.45,4.53,3.25,5.49Z"/>
              </g>
              <g>
                <path class="cls-25" d="M128.67,187.62l52.68,5.16,1.07.1,36.11,3.54c.62.06,1.13.65,1.13,1.31,0,.66-.51,1.15-1.13,1.09l-36.11-3.69v13.21s36.11,4.57,36.11,4.57c.62.08,1.13.68,1.13,1.34,0,.66-.51,1.14-1.13,1.05l-36.11-4.72-1.07-.14-52.68-6.88c-1.76-.23-3.19-2.23-3.19-4.44v-7.8c0-2.21,1.43-3.88,3.19-3.71Z"/>
                <g class="cls-97">
                  <path class="cls-88" d="M127,200.78l52.3,6.56,1.06.13,2.06.26v.62s36.11,4.57,36.11,4.57c.62.08,1.13.68,1.13,1.34,0,.66-.51,1.14-1.13,1.05l-36.11-4.72-1.07-.14-52.68-6.88c-1.48-.19-2.72-1.63-3.08-3.4.43.32.91.54,1.41.6Z"/>
                </g>
                <path class="cls-25" d="M127,190.03l52.3,5.4,1.06.11,2.06.21v-.62s36.11,3.69,36.11,3.69c.62.06,1.13-.43,1.13-1.09,0-.66-.51-1.25-1.13-1.31l-36.11-3.54-1.07-.1-52.68-5.16c-1.48-.14-2.72,1.01-3.08,2.69.43-.23.91-.33,1.41-.28Z"/>
                <path class="cls-30" d="M176.46,205.37v-8.62c0-2.45,1.75-4.28,3.9-4.07l.99.1,1.07.1,36.11,3.54c.62.06,1.13.65,1.13,1.31,0,.66-.51,1.15-1.13,1.09l-36.11-3.69v13.21s36.11,4.57,36.11,4.57c.62.08,1.13.68,1.13,1.34,0,.66-.51,1.14-1.13,1.05l-36.11-4.72-1.07-.14-.99-.13c-2.15-.28-3.9-2.51-3.9-4.96Z"/>
                <path class="cls-51" d="M181.35,195.02l37.02,3.78c-.68,2.06-1.06,4.4-1.06,6.92,0,2.52.38,4.95,1.06,7.17l-37.02-4.68c-1.44-.18-2.62-1.66-2.62-3.29v-7.21c0-1.63,1.18-2.84,2.62-2.69Z"/>
                <path class="cls-17" d="M181.35,195.02l37.02,3.78c-.12.36-.23.74-.33,1.12l-36.28-3.78c-1.45-.15-2.62,1.06-2.62,2.69v7.21c0,.21.02.41.05.61-.29-.51-.46-1.11-.46-1.73v-7.21c0-1.63,1.18-2.84,2.62-2.69Z"/>
                <path class="cls-38" d="M178.73,204.92v-7.21c0-.9.36-1.67.93-2.16.47,1.85.73,3.87.73,5.95,0,2.08-.26,4.04-.73,5.79-.57-.61-.93-1.47-.93-2.37Z"/>
              </g>
              <g>
                <path class="cls-83" d="M161.48,136.21c0-1.58-1.08-2.84-2.4-2.82s-2.37,1.3-2.37,2.87c0,1.56,1.06,2.82,2.37,2.82s2.4-1.29,2.4-2.87Z"/>
                <path class="cls-7" d="M177.57,160.42c0-9.65-6.72-17.5-14.78-17.52-7.82-.02-13.98,7.37-13.98,16.5,0,9.13,6.17,16.96,13.98,17.49s14.78-6.82,14.78-16.47Z"/>
                <path class="cls-83" d="M166.55,143.5c0-4.91-3.37-8.85-7.46-8.79s-7.25,3.96-7.25,8.74,3.22,8.71,7.25,8.79c4.09.09,7.46-3.83,7.46-8.74Z"/>
                <line class="cls-5" x1="152.08" y1="169.1" x2="146.01" y2="176.1"/>
                <line class="cls-5" x1="165.55" y1="169.83" x2="172.1" y2="177.89"/>
                <path class="cls-2" d="M173.65,160.29c0-9.58-6.62-17.37-14.56-17.39-7.71-.02-13.79,7.32-13.79,16.39s6.08,16.84,13.79,17.36,14.56-6.78,14.56-16.36Z"/>
                <line class="cls-10" x1="153.39" y1="163.7" x2="159.09" y2="159.77"/>
                <line class="cls-4" x1="155.73" y1="148.98" x2="159.09" y2="159.77"/>
                <path class="cls-63" d="M160.58,159.82c0-.98-.67-1.8-1.5-1.83s-1.49.75-1.49,1.72c0,.98.66,1.8,1.49,1.83s1.5-.74,1.5-1.72Z"/>
              </g>
              <g>
                <path class="cls-75" d="M129.14,175.47l52.79,3.85,1.07.08,36.19,2.64c.62.05,1.13.5,1.13,1s-.51.88-1.13.83l-36.19-2.75v10.1s36.19,3.43,36.19,3.43c.62.06,1.13.52,1.13,1.03,0,.51-.51.87-1.13.81l-36.19-3.54-1.07-.11-52.79-5.17c-1.77-.17-3.2-1.7-3.2-3.39v-5.96c0-1.69,1.43-2.97,3.2-2.84Z"/>
                <g class="cls-97">
                  <path class="cls-43" d="M127.47,185.54l52.41,4.92,1.07.1,2.06.19v.47s36.19,3.43,36.19,3.43c.62.06,1.13.52,1.13,1.03,0,.51-.51.87-1.13.81l-36.19-3.54-1.07-.11-52.79-5.17c-1.48-.15-2.73-1.24-3.09-2.59.43.25.91.41,1.42.46Z"/>
                </g>
                <g class="cls-97">
                  <path class="cls-27" d="M127.47,177.32l52.41,4.03,1.07.08,2.06.16v-.47l36.19,2.75c.62.05,1.13-.33,1.13-.83s-.51-.96-1.13-1l-36.19-2.64-1.07-.08-52.79-3.85c-1.48-.11-2.73.78-3.09,2.06.43-.17.91-.26,1.42-.22Z"/>
                </g>
                <path class="cls-72" d="M177.03,188.95v-6.59c0-1.87,1.75-3.27,3.91-3.12l.99.07,1.07.08,36.19,2.64c.62.05,1.13.5,1.13,1s-.51.88-1.13.83l-36.19-2.75v10.1s36.19,3.43,36.19,3.43c.62.06,1.13.52,1.13,1.03,0,.51-.51.87-1.13.81l-36.19-3.54-1.07-.11-.99-.1c-2.16-.21-3.91-1.91-3.91-3.79Z"/>
                <path class="cls-51" d="M181.93,181.04l37.1,2.82c-.68,1.58-1.06,3.37-1.06,5.3,0,1.93.38,3.79,1.06,5.48l-37.1-3.52c-1.45-.14-2.62-1.27-2.62-2.51v-5.51c0-1.24,1.18-2.17,2.62-2.06Z"/>
                <path class="cls-17" d="M181.93,181.04l37.1,2.82c-.12.28-.23.56-.33.86l-36.36-2.82c-1.45-.11-2.63.81-2.63,2.06v5.52c0,.16.02.31.06.47-.29-.39-.46-.85-.46-1.32v-5.51c0-1.24,1.18-2.17,2.62-2.06Z"/>
                <path class="cls-38" d="M179.31,188.61v-5.51c0-.69.36-1.28.93-1.65.47,1.42.73,2.96.73,4.55,0,1.59-.26,3.09-.73,4.43-.57-.47-.93-1.12-.93-1.81Z"/>
              </g>
              <g>
                <g>
                  <path class="cls-46" d="M105.53,148.81l3.62-.05c4.05-.06,7.41,4.3,7.41,9.67v7.06c0,5.38-3.36,9.63-7.41,9.46l-3.62-.15c-3.91-.17-7.07-4.53-7.07-9.7v-6.79c0-5.17,3.15-9.45,7.07-9.5Z"/>
                  <g class="cls-95">
                    <path class="cls-19" d="M113.23,153.74c0-.58-.36-1.05-.8-1.05s-.8.47-.8,1.05c0,.58.36,1.05.8,1.05s.8-.47.8-1.05Z"/>
                    <path class="cls-19" d="M108.37,153.75c0-.57-.35-1.04-.79-1.04s-.78.47-.78,1.04c0,.57.35,1.04.78,1.04s.79-.47.79-1.04Z"/>
                    <path class="cls-19" d="M103.6,153.77c0-.57-.35-1.03-.77-1.03s-.77.46-.77,1.03c0,.57.34,1.03.77,1.03s.77-.46.77-1.03Z"/>
                    <path class="cls-19" d="M113.23,158.27c0-.58-.36-1.05-.8-1.05s-.8.47-.8,1.04c0,.58.36,1.05.8,1.05s.8-.46.8-1.04Z"/>
                    <path class="cls-19" d="M108.37,158.23c0-.57-.35-1.04-.79-1.04s-.78.46-.78,1.03.35,1.04.78,1.04.79-.46.79-1.03Z"/>
                    <path class="cls-19" d="M103.6,158.2c0-.57-.35-1.03-.77-1.03s-.77.46-.77,1.02c0,.57.34,1.03.77,1.03s.77-.45.77-1.02Z"/>
                    <path class="cls-19" d="M113.23,163.27c0-.58-.36-1.06-.8-1.06s-.8.46-.8,1.04.36,1.06.8,1.06.8-.46.8-1.04Z"/>
                    <path class="cls-19" d="M108.37,163.19c0-.57-.35-1.05-.79-1.05s-.78.45-.78,1.03c0,.57.35,1.04.78,1.05s.79-.45.79-1.03Z"/>
                    <path class="cls-19" d="M103.6,163.11c0-.57-.35-1.04-.77-1.04s-.77.45-.77,1.02.34,1.03.77,1.04.77-.45.77-1.02Z"/>
                  </g>
                </g>
                <path class="cls-94" d="M102.87,170.89l3.58.12c4,.14,7.32-4.12,7.32-9.47v-7.02c0-1.59-.3-3.08-.82-4.4,2.15,1.69,3.61,4.78,3.61,8.31v7.06c0,5.38-3.36,9.63-7.41,9.46l-3.62-.15c-2.76-.12-5.13-2.32-6.3-5.41,1.06.9,2.3,1.45,3.64,1.5Z"/>
                <path class="cls-12" d="M101.61,198.51l11.58,1.09c5.25.5,9.59-4.71,9.59-11.64v-20.56s-29.93-.76-29.93-.76v19.28c0,6.5,3.88,12.13,8.77,12.59Z"/>
                <path class="cls-60" d="M103.8,194.98c5.04.44,9.21-4.71,9.21-11.49v-16.34s7.28.18,7.28.18v20.45c0,6.89-4.3,12.07-9.49,11.58l-9.18-.87c-2.53-.24-4.78-1.86-6.37-4.26l8.55.74Z"/>
                <line class="cls-9" x1="99.12" y1="177.88" x2="99.12" y2="187.02"/>
                <line class="cls-6" x1="99.12" y1="166.81" x2="99.12" y2="177.88"/>
              </g>
              <g id="_1" data-name="1">
                <polygon class="cls-94" points="130.64 111.52 106.73 112.23 106.73 47.37 130.64 43.33 130.64 111.52"/>
                <polygon class="cls-92" points="181.73 109.99 152 110.88 152 34.61 181.73 29.29 181.73 109.99"/>
                <polygon class="cls-24" points="181.73 109.99 173.46 110.24 173.46 41.07 181.73 39.75 181.73 109.99"/>
                <polygon class="cls-77" points="173.46 110.24 181.73 109.99 181.73 48.15 173.46 49.34 173.46 110.24"/>
                <polygon class="cls-81" points="153.92 110.82 163.43 110.54 163.43 47.72 153.92 49.15 153.92 110.82"/>
                <polygon class="cls-41" points="138.46 111.28 144.67 111.1 144.67 42.71 138.46 43.74 138.46 111.28"/>
                <polygon class="cls-71" points="128.01 111.6 135.75 111.36 135.75 37.51 128.01 38.9 128.01 111.6"/>
                <polygon class="cls-106" points="119.22 111.86 128.01 111.6 128.01 53.03 119.22 54.35 119.22 111.86"/>
                <polygon class="cls-49" points="92.42 112.66 101.68 112.38 101.68 51.88 92.42 53.37 92.42 112.66"/>
                <polygon class="cls-33" points="97.5 112.51 106.73 112.23 106.73 47.37 97.5 48.93 97.5 112.51"/>
                <polygon class="cls-11" points="119.22 111.86 104.36 112.3 104.36 56.57 119.22 54.35 119.22 111.86"/>
                <polygon class="cls-62" points="86.21 112.85 95.22 112.58 95.22 52.92 86.21 54.37 86.21 112.85"/>
                <polygon class="cls-74" points="105.53 103.58 117.97 102.97 117.97 100.83 105.53 101.49 105.53 103.58"/>
                <polygon class="cls-74" points="105.53 107.75 117.97 107.25 117.97 105.11 105.53 105.66 105.53 107.75"/>
                <polygon class="cls-74" points="105.53 65.06 117.97 63.43 117.97 61.29 105.53 62.98 105.53 65.06"/>
                <polygon class="cls-20" points="161.44 110.59 173.46 110.24 173.46 41.07 161.44 42.99 161.44 110.59"/>
              </g>
              <path class="cls-28" d="M191.25,441.35l78.66-3.65c2.32-.7,2.53-2.22,2.53-3.63V13.22c0-1.4-.76-1.64-2.53-1.97L190.42,3.02l.83,438.33Z"/>
              <g>
                <path class="cls-93" d="M75.73,37.58l116.06-23.59V4.86c0-1.26-.92-2.08-2.04-1.82l-112.73,25.25c-.71.16-1.28,1.09-1.28,2.09v7.21Z"/>
                <polygon class="cls-93" points="181.73 9.88 181.73 431.73 191.79 437.4 191.79 7.72 181.73 9.88"/>
                <polygon class="cls-93" points="75.73 32.63 75.73 371.98 82.22 375.64 82.22 31.24 75.73 32.63"/>
                <polygon class="cls-93" points="75.73 122.17 191.79 121.1 191.79 109.69 75.73 113.16 75.73 122.17"/>
                <polygon class="cls-93" points="75.73 206.76 191.79 228.2 191.79 216.79 75.73 197.75 75.73 206.76"/>
                <polygon class="cls-93" points="75.73 291.35 191.79 335.3 191.79 323.89 75.73 282.34 75.73 291.35"/>
                <path class="cls-93" d="M77.02,376.67l112.73,64.56c1.13.65,2.04.15,2.04-1.11v-9.13s-116.06-64.07-116.06-64.07v7.21c0,1,.57,2.13,1.28,2.54Z"/>
              </g>
              <polygon class="cls-104" points="143.74 111.12 152 110.88 152 34.61 143.74 36.09 143.74 111.12"/>
              <path class="cls-11" d="M164.21,50.21l6.41-.93c.57-.08,1.03-.68,1.03-1.34h0c0-.66-.46-1.12-1.03-1.04l-6.41.96c-.55.08-1,.67-1,1.32h0c0,.65.45,1.11,1,1.03Z"/>
              <path class="cls-11" d="M164.21,106.44l6.41-.24c.57-.02,1.03-.57,1.03-1.23h0c0-.66-.46-1.17-1.03-1.15l-6.41.27c-.55.02-1,.57-1,1.21h0c0,.65.45,1.16,1,1.13Z"/>
            </g>
            <g>
              <g>
                <g>
                  <path class="cls-40" d="M85.48,305.55c1.57-4.34,1.94-9.23,2.34-13.74-2.05-1.35-4.66-1.8-7.06-1.25-.03,1.32-.23,2.53-.53,3.65,2.16,1.75,3.68,4.25,4.49,6.92.43,1.43.67,2.91.75,4.41Z"/>
                  <path class="cls-3" d="M85.48,305.55c1.57-4.34,1.94-9.23,2.34-13.74-2.05-1.35-4.66-1.8-7.06-1.25-.03,1.32-.23,2.53-.53,3.65"/>
                  <path class="cls-86" d="M84.26,293.89c-1.2.33-2.64-.41-3.06-1.59.96.7,1.94,1.21,3.06,1.59h0Z"/>
                </g>
                <g>
                  <path class="cls-44" d="M81.44,291.12c-.2-.29-.42-.57-.65-.84-.17-.2-2.41-3.01-2.55-4.57-.14-1.56.41-3.39-.16-5.03-.34-.99-.65-1.66-.92-2.14-.24-.42-.02-.94.43-.99.67-.07,1.57.04,2.18.96,1.09,1.64.33,2.58,1.12,3.41.26.28.61.51.97.71.55.3,1.09.03,1.22-.58.45-2.18,2.09-6.83,2.9-8.18,1-1.65,2.06-2.65,2.92-2.25.86.4.96,1.21.47,2.02-.49.82-2.42,3.16-2.55,6.4,0,0,4.02-5.33,5.52-6.73.88-.81,1.43-.41,1.67.25.25.67.09,1.4-.36,1.89-.99,1.08-3.8,4.38-4.13,6.4,0,0,1.95-1.11,2.67-1.78.72-.67,2.83-2.13,3.77-2.47.87-.31,1.96.87.99,1.88-.96,1.01-3.34,2.14-4.08,3.8,0,0-1.26,1.71.85,1.38.75-.12,2.03-.41,3.18-.55.99-.12,2.52.39,1.14,1.34-1.48,1.03-3.73,1.07-4.51,1.91-.66.71-1.36,1.4-1.93,2.18-.64.88-1.17,1.84-1.86,2.69-.52.63-1.14,1.2-1.87,1.56"/>
                  <path class="cls-15" d="M81.44,291.12c-.2-.29-.42-.57-.65-.84-.17-.2-2.41-3.01-2.55-4.57-.14-1.56.41-3.39-.16-5.03-.34-.99-.65-1.66-.92-2.14-.24-.42-.02-.94.43-.99.67-.07,1.57.04,2.18.96,1.09,1.64.33,2.58,1.12,3.41.26.28.61.51.97.71.55.3,1.09.03,1.22-.58.45-2.18,2.09-6.83,2.9-8.18,1-1.65,2.06-2.65,2.92-2.25.86.4.96,1.21.47,2.02-.49.82-2.42,3.16-2.55,6.4,0,0,4.02-5.33,5.52-6.73.88-.81,1.43-.41,1.67.25.25.67.09,1.4-.36,1.89-.99,1.08-3.8,4.38-4.13,6.4,0,0,1.95-1.11,2.67-1.78.72-.67,2.83-2.13,3.77-2.47.87-.31,1.96.87.99,1.88-.96,1.01-3.34,2.14-4.08,3.8,0,0-1.26,1.71.85,1.38.75-.12,2.03-.41,3.18-.55.99-.12,2.52.39,1.14,1.34-1.48,1.03-3.73,1.07-4.51,1.91-.66.71-1.36,1.4-1.93,2.18-.64.88-1.17,1.84-1.86,2.69-.52.63-1.14,1.2-1.87,1.56"/>
                  <path class="cls-58" d="M84.96,280.91c.04-.12,2.01.51,4.1,1.94,2.1,1.41,3.42,3,3.32,3.08-.11.1-1.55-1.3-3.6-2.67-2.04-1.39-3.88-2.21-3.82-2.34Z"/>
                  <path class="cls-58" d="M85.8,290.84c-.08-.01-.03-.47-.06-1.2,0-.36-.07-.79-.14-1.26-.09-.47-.22-.98-.4-1.5-.37-1.04-.88-1.91-1.29-2.51-.42-.6-.72-.94-.67-1,.04-.04.44.22.94.78.5.57,1.1,1.46,1.48,2.56.19.55.32,1.09.38,1.59.06.5.08.96.04,1.34-.06.76-.23,1.21-.29,1.19Z"/>
                  <path class="cls-58" d="M87.32,289.67c-.07-.12.68-.64,1.48-1.42.8-.77,1.35-1.5,1.47-1.43.11.06-.27.96-1.13,1.78-.85.83-1.76,1.19-1.82,1.07Z"/>
                </g>
                <g>
                  <path class="cls-69" d="M53.63,322.56c-1.34-1.38-1.57-3.49-.79-5.25.68-1.53,1.61-2.99,2.75-3.93,2.03-1.67,13.53-6.26,14.7-7.46,0,0,3.41-1.14,3.49-1.47.07-.33,5.04-8.67,5.74-11.82,0,0,2.78,2.55,7.14,2.61.91.01,1.89-.08,2.93-.34,0,0-2.73,11.7-5.22,15.18-1.62,2.27-6,5.98-9.16,7.41-1.69.76-12.93,8.46-12.93,8.46,0,0-5.51-.17-8.65-3.39Z"/>
                  <path class="cls-3" d="M53.63,322.56c-1.34-1.38-1.57-3.49-.79-5.25.68-1.53,1.61-2.99,2.75-3.93,2.03-1.67,13.53-6.26,14.7-7.46,0,0,3.41-1.14,3.49-1.47.07-.33,5.04-8.67,5.74-11.82,0,0,2.78,2.55,7.14,2.61.91.01,1.89-.08,2.93-.34,0,0-2.73,11.7-5.22,15.18-1.62,2.27-6,5.98-9.16,7.41-1.69.76-12.93,8.46-12.93,8.46,0,0-5.51-.17-8.65-3.39Z"/>
                  <path class="cls-35" d="M73.35,305.2s0,.06.01.12c0-.1,0-.14-.01-.12Z"/>
                  <path class="cls-35" d="M73.85,315.26c.71-1.01,1.34-2.94.54-4.62-.99-2.08-1.03-4.97-1.03-5.32.19.6,1.73,3.22,2.27,3.98.59.84,6.63.28,7.42-.64.8-.93,3.61-13.14,3.61-13.42.91.01,1.89-.09,2.93-.34,0,0-2.73,11.7-5.22,15.18-1.63,2.27-6,5.98-9.16,7.41l-12.93,8.46s-1.73-6.49-2.19-7.65-1.8-3.29-1.8-3.29c0,0,3.65,3.55,5.03,4.05,1.39.5,5.04-.58,7.28-1.57s3.26-2.23,3.26-2.23Z"/>
                  <path class="cls-86" d="M74.68,306.62c-.43,1.14.12,2.59,1.18,3.16-.53-1.03-.91-2.04-1.18-3.16h0Z"/>
                  <path class="cls-86" d="M62.88,309.87c2.57-.11,5.04.38,7.38,1.44-1.98-1.67-4.92-2.24-7.38-1.44h0Z"/>
                </g>
                <g>
                  <g>
                    <path class="cls-55" d="M29.52,391.26c.28-.45.98-.61,1.6-.42-.12,5.59-3.51,2.22-1.6.42Z"/>
                    <path class="cls-53" d="M28.76,394.85c1.4,2.99,5.03,3.62,7.96,3.89.44-.05.88-.27,1.1-.66.21-3.68,1.15-7.09,2.43-10.34,1.18-2.99,2.65-5.86,4.12-8.69,1.24-2.38,2.48-4.73,3.55-7.12-3.88-2.42-9.88-1.54-12.85,2.15-.4.47-.75.96-1.06,1.47-1.99,3.3-2.25,7.34-2.8,11.26-.4,2.85-.96,5.64-2.46,8.03Z"/>
                    <path class="cls-15" d="M28.76,394.85c1.4,2.99,5.03,3.62,7.96,3.89.44-.05.88-.27,1.1-.66.21-3.68,1.15-7.09,2.43-10.34,1.18-2.99,2.65-5.86,4.12-8.69,1.24-2.38,2.48-4.73,3.55-7.12-3.88-2.42-9.88-1.54-12.85,2.15-.4.47-.75.96-1.06,1.47-1.99,3.3-2.25,7.34-2.8,11.26-.4,2.85-.96,5.64-2.46,8.03Z"/>
                    <path class="cls-29" d="M34.01,375.57c3.14,1.9,6.7,3.11,10.36,3.49,1.24-2.38,2.48-4.73,3.55-7.12-3.88-2.42-9.88-1.54-12.85,2.15-.4.47-.75.96-1.06,1.47Z"/>
                    <path class="cls-87" d="M28.76,394.85c1.4,2.99,5.03,3.62,7.96,3.89.44-.05.88-.27,1.1-.66.21-3.68,1.15-7.09,2.43-10.34-2.93.74-6.15.39-9.03-.92-.4,2.85-.96,5.64-2.46,8.03Z"/>
                    <path class="cls-15" d="M28.76,394.85c1.4,2.99,5.03,3.62,7.96,3.89.44-.05.88-.27,1.1-.66.21-3.68,1.15-7.09,2.43-10.34-2.93.74-6.15.39-9.03-.92-.4,2.85-.96,5.64-2.46,8.03Z"/>
                  </g>
                  <g>
                    <g>
                      <path class="cls-56" d="M46.97,404.85c1.97,1.42,1.34,4.04-2.58,5.92-4.18,1.86-9,.67-12.45-2.18-.97-.95-2.03-1.8-2.82-2.91-.94-1.31-2.48-3.05-3.34-3.67-1.32-1.07-.5-3.91,1.11-4.46,2.05,5.61,8.3,10.45,14.4,10.21,2.16.07,4.62-1.16,5.68-2.91Z"/>
                      <path class="cls-15" d="M46.97,404.85c1.97,1.42,1.34,4.04-2.58,5.92-4.18,1.86-9,.67-12.45-2.18-.97-.95-2.03-1.8-2.82-2.91-.94-1.31-2.48-3.05-3.34-3.67-1.32-1.07-.5-3.91,1.11-4.46,2.05,5.61,8.3,10.45,14.4,10.21,2.16.07,4.62-1.16,5.68-2.91Z"/>
                    </g>
                    <path class="cls-11" d="M47,406.56c-2.66,2.76-6.89,3.75-10.45,2.36-3.63-1.39-6-4.64-8.22-7.68,1.46,2.48,3.13,4.95,5.49,6.69,4.05,3.11,9.94,2.64,13.18-1.37h0Z"/>
                    <path class="cls-39" d="M43.08,401.53c1.42,2.87-3.25,3.94-5.19,2.92-2.16-1.85-6.57-9.62-4.2-10.76.92-.48,2.17-.74,3.32-.72,1.6.25,1.83.55,1.95,1.71.62,3,2.78,4.99,4.13,6.86Z"/>
                    <path class="cls-15" d="M43.08,401.53c1.42,2.87-3.25,3.94-5.19,2.92-2.16-1.85-6.57-9.62-4.2-10.76.92-.48,2.17-.74,3.32-.72,1.6.25,1.83.55,1.95,1.71.62,3,2.78,4.99,4.13,6.86Z"/>
                    <path class="cls-110" d="M33.5,407.2c.34.29.7.54,1.07.77,0,0,.01,0,.02,0,5.61,3.45,13.69.24,12.47-3.08-.05-.15-.12-.3-.19-.44-.79-1.59-2.52-2.69-4.97-3.65,1.24.52.94,2.29-.12,2.86-1.3.73-2.9.56-4.24-.09-.37-.18-.72-.39-1.04-.63-1.17.54-2.09,1.61-2.6,2.8-.2.47-.34.96-.4,1.45Z"/>
                    <path class="cls-15" d="M33.5,407.2c.34.29.7.54,1.07.77,0,0,.01,0,.02,0,5.61,3.45,13.69.24,12.47-3.08-.05-.15-.12-.3-.19-.44-.79-1.59-2.52-2.69-4.97-3.65,1.24.52.94,2.29-.12,2.86-1.3.73-2.9.56-4.24-.09-.37-.18-.72-.39-1.04-.63-1.17.54-2.09,1.61-2.6,2.8-.2.47-.34.96-.4,1.45Z"/>
                    <path class="cls-110" d="M27.15,400.01c2.87,2.77,4.35,5.49,6.36,7.19.34.29.69.55,1.07.77,0,0,.01,0,.02,0,.08.05.16.09.24.14.06-.58.17-1.08.34-1.53.39-1.05,1.07-1.82,2.03-2.69.11-.1.23-.2.34-.31.22-.21.4-.45.44-.75.06-.48-.27-.9-.57-1.28-1.28-1.59-2.27-3.41-2.92-5.35-.05-.15-.07-.3-.08-.46-.02-.34-.12-.51-.42-.66-.88-.21-1.58.12-2.37.01-1.95-.3-2.37-2.78-1.49-4.28-1.43.28-2.76,2.71-3.42,4.99-.13.46-.24.91-.31,1.34-.19,1.09-.33,1.81.75,2.85Z"/>
                    <path class="cls-15" d="M27.15,400.01c2.87,2.77,4.35,5.49,6.36,7.19.34.29.69.55,1.07.77,0,0,.01,0,.02,0,.08.05.16.09.24.14.06-.58.17-1.08.34-1.53.39-1.05,1.07-1.82,2.03-2.69.11-.1.23-.2.34-.31.22-.21.4-.45.44-.75.06-.48-.27-.9-.57-1.28-1.28-1.59-2.27-3.41-2.92-5.35-.05-.15-.07-.3-.08-.46-.02-.34-.12-.51-.42-.66-.88-.21-1.58.12-2.37.01-1.95-.3-2.37-2.78-1.49-4.28-1.43.28-2.76,2.71-3.42,4.99-.13.46-.24.91-.31,1.34-.19,1.09-.33,1.81.75,2.85Z"/>
                    <path class="cls-110" d="M44.28,401.94c-1.96-1.67-3.48-3.82-4.32-6.11-.1-.26-.31-.45-.56-.58-.6-.31-1.62-.45-1.5.02,1.19,2.22,2.01,3.99,3.49,5.87.68.85,1.65.28,2.89.8Z"/>
                    <path class="cls-15" d="M44.28,401.94c-1.96-1.67-3.48-3.82-4.32-6.11-.1-.26-.31-.45-.56-.58-.6-.31-1.62-.45-1.5.02,1.19,2.22,2.01,3.99,3.49,5.87.68.85,1.65.28,2.89.8Z"/>
                    <path class="cls-36" d="M27.15,400.01c2.87,2.77,4.35,5.49,6.36,7.19.34.29.69.55,1.07.77,0,0,.01,0,.02,0,5.61,3.45,13.69.24,12.47-3.08-.05-.15-.12-.3-.19-.44,0,.85-.43,1.71-1.07,2.29-.93.84-2.21,1.16-3.45,1.29-2.47.24-5.02-.25-7.18-1.46-.37-.21-.73-.44-1.08-.69-.06-.05-.13-.09-.19-.14-1.42-1.08-2.57-2.48-3.71-3.87-.99-1.21-1.99-2.43-2.69-3.82-.36-.71-.64-1.47-.79-2.25-.13.46-.24.91-.31,1.34-.19,1.09-.33,1.81.75,2.85Z"/>
                    <g>
                      <path class="cls-105" d="M43.5,402.89c-.31.98-1.14,1.65-2.08,1.94-.97.29-1.99.19-3,.08.47.24.98.4,1.51.47.53.07,1.09.05,1.62-.11,1.03-.31,2-1.25,1.95-2.38h0Z"/>
                      <path class="cls-105" d="M36.69,402.79c-1.42.64-2.5,2.14-2.66,3.69.35-.57.85-1.38,1.24-1.91.44-.62.93-1.18,1.42-1.78h0Z"/>
                      <path class="cls-105" d="M35.09,402.91c-.54-.94-1.08-1.86-1.56-2.82-.42-.83-.96-2.07-1.34-2.93.2,2.15,1.29,4.32,2.89,5.76h0Z"/>
                      <path class="cls-105" d="M32.35,396.16c-1.14-.2-2.09-.49-2.83-1.43-.23-.28-.44-.59-.67-.91.23,1.74,1.79,2.85,3.5,2.34h0Z"/>
                      <path class="cls-105" d="M29.01,395.24c.06.84.09,1.66.01,2.49-.07.83-.25,1.63-.47,2.44,1.07-1.35,1.26-3.41.45-4.93h0Z"/>
                    </g>
                    <g>
                      <circle class="cls-105" cx="35.32" cy="400.62" r=".65"/>
                      <circle class="cls-105" cx="34.33" cy="399.08" r=".65"/>
                      <circle class="cls-105" cx="36.47" cy="402.14" r=".65"/>
                      <ellipse class="cls-105" cx="41.78" cy="400.45" rx=".62" ry=".6" transform="translate(-63.73 11.9) rotate(-9.24)"/>
                      <ellipse class="cls-105" cx="40.47" cy="398.65" rx=".62" ry=".6" transform="translate(-63.46 11.66) rotate(-9.24)"/>
                      <ellipse class="cls-105" cx="39.52" cy="396.93" rx=".62" ry=".6" transform="translate(-63.19 11.49) rotate(-9.24)"/>
                      <g>
                        <path class="cls-56" d="M35.94,402.11c.01.11.06.22.14.31.12.12.29.17.45.15.1-.02.2-.06.28-.14,1.37-1.35,3.04-1.88,4.82-1.53.28.06.55-.13.61-.41,0-.01,0-.02,0-.04.03-.27-.14-.52-.41-.57-2.13-.42-4.12.2-5.75,1.8-.12.12-.17.27-.15.43Z"/>
                        <path class="cls-36" d="M35.94,402.11c.01.11.06.22.14.31.12.12.29.17.45.15.1-.02.2-.06.28-.14,1.37-1.35,3.04-1.88,4.82-1.53.28.06.55-.13.61-.41,0-.01,0-.02,0-.04-.01.01-.02.02-.04.03-.17.13-.4.16-.62.14-.21-.02-.42-.09-.63-.14-.72-.17-1.48-.09-2.17.16-.69.25-1.32.68-1.85,1.19-.12.12-.24.24-.39.32-.15.08-.33.12-.48.05-.05-.02-.09-.05-.13-.09Z"/>
                      </g>
                      <g>
                        <path class="cls-56" d="M34.81,400.63c.02.16.11.31.27.39.1.06.22.07.33.06.15-.02.29-.12.37-.26.9-1.65,3.05-2.19,4.52-1.74.27.08.56-.07.65-.35.01-.04.02-.09.02-.13.01-.23-.14-.45-.37-.52-1.9-.58-4.56.1-5.73,2.23-.05.1-.07.21-.06.31Z"/>
                        <path class="cls-36" d="M34.81,400.63c.02.16.11.31.27.39.1.06.22.07.33.06.15-.02.29-.12.37-.26.9-1.65,3.05-2.19,4.52-1.74.27.08.56-.07.65-.35.01-.04.02-.09.02-.13-.09.11-.23.16-.38.17-.17,0-.33-.04-.5-.08-1.61-.38-3.42.24-4.45,1.53-.1.13-.19.26-.32.35s-.31.15-.45.08c-.02,0-.03-.01-.05-.03Z"/>
                      </g>
                      <g>
                        <path class="cls-56" d="M34.06,399.45c.11.06.23.08.35.07.15-.02.28-.11.36-.25.9-1.52,2.42-2.14,4.66-1.89.28.03.54-.17.57-.46,0,0,0,0,0,0,.03-.28-.18-.53-.46-.57-2.65-.29-4.55.51-5.67,2.39-.05.08-.07.17-.07.26,0,.18.09.35.25.45Z"/>
                        <path class="cls-36" d="M34.06,399.45c.11.06.23.08.35.07.15-.02.28-.11.36-.25.9-1.52,2.42-2.14,4.66-1.89.28.03.54-.17.57-.46,0,0,0,0,0,0-.14.1-.31.16-.48.18-.32.03-.63-.05-.95-.09-.71-.09-1.45.05-2.1.35-.65.3-1.23.76-1.7,1.31-.11.13-.22.26-.36.35s-.32.14-.48.07c-.05-.02-.09-.05-.12-.09,0,.18.09.35.25.45Z"/>
                      </g>
                    </g>
                  </g>
                  <path class="cls-69" d="M40.24,394.06c-.09.09-3.1,1.75-6.7,1.09s-5.05-5.24-5.05-5.24l1.3-10.84,14.08,4.1-3.62,10.9Z"/>
                  <path class="cls-3" d="M40.24,394.06c-.09.09-3.1,1.75-6.7,1.09s-5.05-5.24-5.05-5.24l1.3-10.84,14.08,4.1-3.62,10.9Z"/>
                </g>
                <g>
                  <g>
                    <path class="cls-55" d="M52.97,393.84c.19-.5.84-.79,1.48-.73,1,5.5-3,2.88-1.48.73Z"/>
                    <path class="cls-68" d="M52.95,397.51c1.97,2.65,5.65,2.54,8.58,2.22.42-.14.81-.44.94-.87-.53-3.65-.29-7.17.31-10.62.55-3.17,1.42-6.27,2.3-9.34.74-2.58,1.48-5.13,2.05-7.68-4.29-1.59-9.99.47-12.16,4.68-.3.54-.54,1.09-.74,1.65-1.29,3.63-.73,7.64-.49,11.59.18,2.87.19,5.72-.8,8.36Z"/>
                    <path class="cls-15" d="M52.95,397.51c1.97,2.65,5.65,2.54,8.58,2.22.42-.14.81-.44.94-.87-.53-3.65-.29-7.17.31-10.62.55-3.17,1.42-6.27,2.3-9.34.74-2.58,1.48-5.13,2.05-7.68-4.29-1.59-9.99.47-12.16,4.68-.3.54-.54,1.09-.74,1.65-1.29,3.63-.73,7.64-.49,11.59.18,2.87.19,5.72-.8,8.36Z"/>
                    <path class="cls-29" d="M54.23,377.56c3.46,1.24,7.19,1.71,10.85,1.35.74-2.58,1.48-5.13,2.05-7.68-4.29-1.59-9.99.47-12.16,4.68-.3.54-.54,1.09-.74,1.65Z"/>
                    <path class="cls-87" d="M52.95,397.51c1.97,2.65,5.65,2.54,8.58,2.22.42-.14.81-.44.94-.87-.53-3.65-.29-7.17.31-10.62-2.72,1.31-5.94,1.62-9.03.9.18,2.87.19,5.72-.8,8.36Z"/>
                    <path class="cls-15" d="M52.95,397.51c1.97,2.65,5.65,2.54,8.58,2.22.42-.14.81-.44.94-.87-.53-3.65-.29-7.17.31-10.62-2.72,1.31-5.94,1.62-9.03.9.18,2.87.19,5.72-.8,8.36Z"/>
                  </g>
                  <g>
                    <g>
                      <path class="cls-56" d="M72.79,403.66c2.21.99,2.13,3.69-1.34,6.31-3.73,2.66-8.68,2.46-12.63.35-1.15-.74-2.48-2.4-3.48-3.33-1.18-1.1-2.91-1.45-3.87-1.88-1.51-.78-1.27-3.73.19-4.59,3.13,5.09,10.23,8.58,16.15,7.12,2.13-.36,4.3-2.07,4.99-3.99Z"/>
                      <path class="cls-15" d="M72.79,403.66c2.21.99,2.13,3.69-1.34,6.31-3.73,2.66-8.68,2.46-12.63.35-1.15-.74-2.48-2.4-3.48-3.33-1.18-1.1-2.91-1.45-3.87-1.88-1.51-.78-1.27-3.73.19-4.59,3.13,5.09,10.23,8.58,16.15,7.12,2.13-.36,4.3-2.07,4.99-3.99Z"/>
                    </g>
                    <path class="cls-39" d="M68.31,401.19c1.96,2.53-2.4,4.51-4.5,3.9-2.48-1.38-8.36-8.11-6.27-9.7.8-.66,1.98-1.16,3.11-1.37,1.62-.08,1.9.17,2.25,1.29,1.21,2.82,3.73,4.34,5.42,5.89Z"/>
                    <path class="cls-15" d="M68.31,401.19c1.96,2.53-2.4,4.51-4.5,3.9-2.48-1.38-8.36-8.11-6.27-9.7.8-.66,1.98-1.16,3.11-1.37,1.62-.08,1.9.17,2.25,1.29,1.21,2.82,3.73,4.34,5.42,5.89Z"/>
                    <path class="cls-110" d="M60.07,408.66c.39.21.8.39,1.2.54,0,0,.01,0,.02,0,6.19,2.25,13.46-2.51,11.6-5.51-.08-.14-.17-.27-.27-.39-1.09-1.4-3.01-2.13-5.6-2.58,1.31.26,1.38,2.05.45,2.82-1.12.98-2.73,1.13-4.17.77-.4-.1-.79-.24-1.15-.41-1.04.77-1.72,1.99-1.98,3.26-.1.5-.14,1.01-.1,1.5Z"/>
                    <path class="cls-15" d="M60.07,408.66c.39.21.8.39,1.2.54,0,0,.01,0,.02,0,6.19,2.25,13.46-2.51,11.6-5.51-.08-.14-.17-.27-.27-.39-1.09-1.4-3.01-2.13-5.6-2.58,1.31.26,1.38,2.05.45,2.82-1.12.98-2.73,1.13-4.17.77-.4-.1-.79-.24-1.15-.41-1.04.77-1.72,1.99-1.98,3.26-.1.5-.14,1.01-.1,1.5Z"/>
                    <path class="cls-110" d="M52.4,402.89c3.77,1.53,5.63,4.12,7.67,5.77.35.28.79.4,1.2.54,0,0,.01,0,.02,0,.09.03.17.06.26.08-.06-.58-.05-1.09.03-1.56.17-1.11.69-2,1.45-3.04.09-.12.18-.24.27-.37.17-.25.3-.52.28-.82-.03-.48-.45-.83-.82-1.14-1.57-1.3-2.91-2.89-3.93-4.66-.08-.13-.13-.28-.17-.43-.09-.33-.22-.48-.54-.57-.91-.03-1.53.43-2.31.49-1.97.1-2.88-2.25-2.32-3.9-1.34.56-2.16,3.21-2.36,5.58-.04.48-.05.94-.04,1.38.03,1.11-.08,2.08,1.3,2.64Z"/>
                    <path class="cls-15" d="M52.4,402.89c3.71,1.51,5.61,4.07,7.67,5.77.34.28.79.4,1.2.54,0,0,.01,0,.02,0,.09.03.17.06.26.08-.06-.58-.05-1.09.03-1.56.17-1.11.69-2,1.45-3.04.09-.12.18-.24.27-.37.17-.25.3-.52.28-.82-.03-.48-.45-.83-.82-1.14-1.57-1.3-2.91-2.89-3.93-4.66-.08-.13-.13-.28-.17-.43-.09-.33-.22-.48-.54-.57-.91-.03-1.53.43-2.31.49-1.97.1-2.88-2.25-2.32-3.9-1.34.56-2.16,3.21-2.36,5.58-.04.48-.05.94-.04,1.38.03,1.11-.08,2.08,1.3,2.64Z"/>
                    <path class="cls-110" d="M69.58,401.35c-2.26-1.25-4.18-3.05-5.46-5.12-.15-.24-.4-.38-.67-.46-.65-.19-1.68-.12-1.46.32,1.62,1.94,2.76,3.51,4.6,5.05.84.7,1.67-.06,2.99.21Z"/>
                    <path class="cls-15" d="M69.58,401.35c-2.26-1.25-4.18-3.05-5.46-5.12-.15-.24-.4-.38-.67-.46-.65-.19-1.68-.12-1.46.32,1.62,1.94,2.76,3.51,4.6,5.05.84.7,1.67-.06,2.99.21Z"/>
                    <path class="cls-36" d="M52.4,402.89c3.83,1.59,5.68,4.14,7.67,5.77.34.28.79.4,1.2.54,0,0,.01,0,.02,0,6.19,2.25,13.46-2.51,11.6-5.51-.08-.14-.17-.27-.27-.39.16.83-.07,1.76-.59,2.46-.74,1-1.93,1.58-3.13,1.95-2.37.73-4.97.76-7.32,0-.41-.13-.81-.28-1.2-.46-.07-.03-.14-.07-.21-.1-1.61-.77-3.02-1.92-4.41-3.04-1.21-.99-2.43-1.98-3.41-3.21-.49-.62-.92-1.31-1.22-2.05-.04.48-.05.94-.04,1.38.03,1.11-.08,2.07,1.3,2.64Z"/>
                    <g>
                      <path class="cls-105" d="M69,402.43c-.11,1.02-.79,1.84-1.65,2.32-.89.48-1.92.58-2.93.68.51.14,1.04.2,1.58.16.54-.04,1.08-.17,1.57-.43.95-.51,1.71-1.63,1.43-2.72h0Z"/>
                      <path class="cls-105" d="M62.31,403.7c-1.26.91-2.02,2.6-1.87,4.15.23-.63.55-1.52.83-2.12.31-.7.67-1.34,1.04-2.03h0Z"/>
                      <path class="cls-105" d="M60.76,404.14c-.71-.82-1.43-1.6-2.09-2.45-.58-.73-1.35-1.83-1.9-2.61.62,2.06,2.13,3.97,3.99,5.06h0Z"/>
                      <path class="cls-105" d="M56.73,398.07c-1.16.04-2.15-.06-3.06-.84-.29-.23-.55-.49-.84-.76.57,1.66,2.32,2.43,3.9,1.59h0Z"/>
                      <path class="cls-105" d="M53.27,397.84c.23.81.42,1.6.51,2.44.1.83.08,1.64.03,2.49.78-1.54.55-3.59-.54-4.92h0Z"/>
                    </g>
                    <g>
                      <circle class="cls-105" cx="60.54" cy="401.85" r=".65"/>
                      <circle class="cls-105" cx="59.25" cy="400.54" r=".65"/>
                      <circle class="cls-105" cx="61.96" cy="403.11" r=".65"/>
                      <ellipse class="cls-105" cx="66.83" cy="400.39" rx=".62" ry=".6" transform="translate(-137.76 49.78) rotate(-20.79)"/>
                      <ellipse class="cls-105" cx="65.19" cy="398.89" rx=".62" ry=".6" transform="translate(-137.33 49.1) rotate(-20.79)"/>
                      <ellipse class="cls-105" cx="63.91" cy="397.39" rx=".62" ry=".6" transform="translate(-136.88 48.55) rotate(-20.79)"/>
                      <g>
                        <path class="cls-56" d="M61.44,403.19c.03.11.1.2.2.27.15.1.32.11.47.05.1-.04.18-.1.25-.2,1.07-1.6,2.6-2.45,4.42-2.46.29,0,.52-.24.51-.52,0-.01,0-.02,0-.04-.02-.27-.25-.48-.52-.48-2.17.02-4,1.02-5.27,2.92-.09.14-.11.3-.06.45Z"/>
                        <path class="cls-36" d="M61.44,403.19c.03.11.1.2.2.27.15.1.32.11.47.05.1-.04.18-.1.25-.2,1.07-1.6,2.6-2.45,4.42-2.46.29,0,.52-.24.51-.52,0-.01,0-.02,0-.04,0,.01-.02.03-.03.04-.14.16-.36.24-.58.26-.21.02-.43,0-.65-.01-.74-.02-1.47.2-2.1.59-.63.39-1.15.93-1.57,1.53-.1.14-.19.28-.31.39-.13.11-.3.18-.46.15-.05-.01-.1-.03-.14-.07Z"/>
                      </g>
                      <g>
                        <path class="cls-56" d="M60.04,401.96c.05.15.17.28.34.33.11.04.23.03.34-.01.14-.05.26-.17.31-.33.55-1.8,2.55-2.75,4.08-2.61.29.03.54-.18.56-.47,0-.04,0-.09,0-.13-.04-.23-.22-.41-.46-.43-1.98-.19-4.45,1.01-5.16,3.34-.03.11-.03.22,0,.32Z"/>
                        <path class="cls-36" d="M60.04,401.96c.05.15.17.28.34.33.11.04.23.03.34-.01.14-.05.26-.17.31-.33.55-1.8,2.55-2.75,4.08-2.61.29.03.54-.18.56-.47,0-.04,0-.09,0-.13-.06.12-.2.2-.33.24-.16.04-.34.03-.51.02-1.66-.05-3.3.92-4.06,2.39-.07.14-.14.29-.25.41s-.27.2-.43.17c-.02,0-.03,0-.05-.02Z"/>
                      </g>
                      <g>
                        <path class="cls-56" d="M59.07,400.96c.12.04.24.04.35,0,.14-.05.25-.16.31-.32.58-1.67,1.95-2.58,4.19-2.79.28-.03.49-.28.47-.56,0,0,0,0,0,0-.03-.28-.28-.49-.56-.46-2.65.25-4.36,1.42-5.07,3.48-.03.09-.04.18-.02.27.03.18.16.33.34.39Z"/>
                        <path class="cls-36" d="M59.07,400.96c.12.04.24.04.35,0,.14-.05.25-.16.31-.32.58-1.67,1.95-2.58,4.19-2.79.28-.03.49-.28.47-.56,0,0,0,0,0,0-.11.13-.27.22-.44.27-.3.1-.63.08-.95.1-.72.06-1.41.34-1.99.77-.58.43-1.05.99-1.41,1.62-.08.15-.16.3-.28.42s-.29.2-.46.17c-.05-.01-.1-.03-.14-.07.03.18.16.33.34.39Z"/>
                      </g>
                    </g>
                  </g>
                  <path class="cls-69" d="M64.03,394.43c-.07.1-2.69,2.34-6.35,2.41-3.66.07-6-4.12-6-4.12l-.9-10.88,14.61,1.19-1.36,11.4Z"/>
                  <path class="cls-3" d="M64.03,394.43c-.07.1-2.69,2.34-6.35,2.41-3.66.07-6-4.12-6-4.12l-.9-10.88,14.61,1.19-1.36,11.4Z"/>
                </g>
                <g>
                  <path class="cls-54" d="M39.03,310.7c2.09,8.58,16.53,10.57,17.2.17-1.72.02-2.91-.46-3.66-1.34-.8-.93-1.1-2.3-1.03-3.96-2.51-1.2-5.73-1.08-8.43.2.48,1.71.23,2.95-.56,3.75-.75.76-1.97,1.15-3.52,1.18Z"/>
                  <path class="cls-40" d="M42.54,309.52c3.28.66,6.72.66,10.02,0-.8-.93-1.1-2.3-1.03-3.96-2.51-1.2-5.73-1.08-8.43.2.48,1.71.23,2.95-.56,3.75Z"/>
                </g>
                <path class="cls-69" d="M32.25,336.76c10.24-.12,20.45-1.93,30.02-5.23-.03-6.85-1.49-13.64-4.17-19.92-1.09-.63-2.25-1.12-3.47-1.49-.38-.12-.78-.22-1.17-.32.77,1.96-.5,4.27-2.36,5.09-3.91,1.62-8.09-1.61-9.91-4.96-3.68.57-7.37,1.97-9.95,4.74,1.95,7.23,2.26,14.59,1,22.09Z"/>
                <path class="cls-69" d="M32.25,336.76c10.24-.12,20.45-1.93,30.02-5.23-.03-6.85-1.49-13.64-4.17-19.92-1.09-.63-2.25-1.12-3.47-1.49-.38-.12-.78-.22-1.17-.32.77,1.96-.5,4.27-2.36,5.09-3.91,1.62-8.09-1.61-9.91-4.96-3.68.57-7.37,1.97-9.95,4.74,1.95,7.23,2.26,14.59,1,22.09Z"/>
                <path class="cls-3" d="M58.1,311.61c-1.09-.63-2.25-1.12-3.47-1.49-.38-.12-.78-.22-1.17-.32.77,1.96-.5,4.27-2.36,5.09-3.91,1.62-8.09-1.61-9.91-4.96-3.68.57-7.37,1.97-9.95,4.74,1.95,7.23,2.26,14.59,1,22.09,10.24-.12,20.45-1.93,30.02-5.23"/>
                <g>
                  <path class="cls-73" d="M21.39,331.74c.02.2.05.4.11.6,0,0,0,0,0,0,.5,1.98,2.48,3.9,4.5,4.45.62.17,1.24.21,1.82.09.04-.05.07-.1.1-.16,3.12-4.64,4.31-5.76,6.38-8.5-.3-3.28-5.69-4.93-8.57-3.43-1.18,2.35-2.66,4.72-4.34,6.93,0,0,0,0,0,0Z"/>
                  <path class="cls-47" d="M11.49,349.52c.5,2.2,2.99,3.88,5.48,3.71,1.09-6.54,8.54-9.94,10.68-15.64.11-.29.2-.58.28-.87.25-.92.35-1.91.26-2.98-.12-.91-1.89-4.16-5.57-2.76-.42.17-.83.42-1.22.76-.05.05-.1.09-.16.14-3.4,3.08-5.79,11.85-9.75,17.65Z"/>
                  <path class="cls-3" d="M11.49,349.52c.5,2.2,2.99,3.88,5.48,3.71,1.09-6.54,8.54-9.94,10.68-15.64.11-.29.2-.58.28-.87.25-.92.35-1.91.26-2.98-.12-.91-1.89-4.16-5.57-2.76-.42.17-.83.42-1.22.76-.05.05-.1.09-.16.14-3.4,3.08-5.79,11.85-9.75,17.65Z"/>
                  <path class="cls-40" d="M21.24,331.87c.08.16.17.31.26.47,0,0,0,0,0,0,.51.88,1.15,1.7,1.88,2.44.78.78,1.66,1.46,2.62,2.01.53.31,1.08.58,1.65.81.11-.29.2-.58.28-.87,3.12-4.64,4.31-5.76,6.38-8.5-.3-3.28-5.69-4.93-8.57-3.43-1.18,2.35-2.66,4.72-4.34,6.93-.05.05-.1.09-.16.14Z"/>
                  <path class="cls-98" d="M16.46,351.1c2.28,2.97-.47,6.64-1.4,9.77-.09.29-.43.41-.68.24-1.95-1.34.18-3.01-.93-4.16-.15-.15-.36-.2-.56-.13-1.77.64-3.63,2.3-3.58,4.4,0,.37-.02.74-.13,1.09-.36,1.24-1.22,2.37-1.73.96-.21-.5-.09-1.07-.38-1.62-1.23-.75-2.45-1.86-2.45-3.57-1.53-.89-1.82-3.35-1.25-4.92.34-.8.98-1.46,1.63-1.77.48-.38.97-.75,1.48-1.1,1.19-.82,2.53-1.4,3.95-1.66,2.96-.53,4.58.54,6.03,2.47Z"/>
                  <path class="cls-3" d="M17.15,352.4c.85,2.7-1.29,5.78-2.09,8.47-.09.29-.43.41-.68.24-1.95-1.34.18-3.01-.93-4.16-.15-.15-.36-.2-.56-.13-1.77.64-3.63,2.3-3.58,4.4,0,.37-.02.74-.13,1.09-.36,1.24-1.22,2.37-1.73.96-.21-.5-.09-1.07-.38-1.62-1.23-.75-2.45-1.86-2.45-3.57-1.53-.89-1.82-3.35-1.25-4.92.34-.8.98-1.46,1.63-1.77.48-.38.97-.75,1.48-1.1,1.19-.82,2.53-1.4,3.95-1.66.63-.11,1.19-.15,1.71-.13"/>
                  <g>
                    <path class="cls-86" d="M8.02,355.55c-1.52,1.5-1.94,4.07-.97,5.97-.27-2.06.06-4.1.97-5.97h0Z"/>
                    <path class="cls-86" d="M5.88,353.98c-1.06.91-1.54,2.53-1.15,3.88.17-.67.31-1.31.5-1.96.19-.65.43-1.26.65-1.92h0Z"/>
                    <path class="cls-86" d="M4.91,352.54c-.76.45-1.22,1.29-1.37,2.14-.04.29-.05.58,0,.87.14-.26.25-.52.36-.77.3-.71.71-1.53,1-2.25h0Z"/>
                    <path class="cls-86" d="M15.5,349.82c-.56-1.11-2.07-1.69-3.23-1.22,1.16.24,2.2.63,3.23,1.22h0Z"/>
                  </g>
                </g>
                <g>
                  <path class="cls-69" d="M17.44,378.12c3.4,7.84,8.4,7.6,14.43,8.92,1.97.7,3.73,2.05,5.65,2.92,12.64,4.5,27.37-4.08,38.48-11.07.44-.32.63-.97.45-1.56-3.4-10.9-6.56-21.99-9.46-33.01-1.8-6.85-3.52-13.71-5.16-20.59-.35-1.82-1.26-4.23-3.07-3.99-5.41-.16-10.84.46-16.19,1.63-2.23.05-4.2,4.96-5.53,7.31-1.82,3.15-4.34,2.58-4.76,7.18-2.84,14.98-9.62,28.37-14.85,42.26Z"/>
                  <path class="cls-35" d="M75.02,375.13c.32,1.32.62,2.77.47,4.1.17-.12.34-.23.5-.35.44-.31.63-.97.45-1.56-3.43-11-6.56-21.99-9.46-33.01,1.67,10.52,5.5,20.49,8.04,30.81Z"/>
                  <path class="cls-35" d="M17.44,378.12c1.73,3.83,4.25,6.39,7.16,7.41,2.37.83,4.9.67,7.27,1.51,1.97.69,3.73,2.05,5.65,2.92,3.68,1.67,7.74,1.5,11.63.83.83-.14,1.66-.3,2.48-.49-2.78-.5-5.49-1.55-7.97-3.17-4-2.62-7.36-6.78-9.21-11.83-2.19-5.99-2.19-12.82-1.74-19.36.64-9.24,2.1-18.4,4.34-27.27-.43.72-.92,1.37-1.51,1.91-.74.66-1.62,1.11-2.21,1.96-.64.91-.83,2.15-1.04,3.32-1.6,9.06-4.96,17.5-8.28,25.83-2.19,5.48-4.38,10.96-6.56,16.43Z"/>
                  <path class="cls-35" d="M65.27,358.39c1.92,8.05,3.19,16.34,3.79,24.7.08-.04.15-.09.23-.13.99-.55,1.98-1.11,2.96-1.69-2.86-7.35-4.93-15.13-6.98-22.88Z"/>
                  <g>
                    <path class="cls-86" d="M43.14,351.18c2.08,4.12,5.02,7.66,8.3,10.37,2.57,2.08,5.45,3.76,8.44,4.69-3.28-1.51-6.42-3.57-9.24-6.1-2.82-2.54-5.35-5.59-7.5-8.96h0Z"/>
                    <path class="cls-86" d="M62.49,371.23c-3.69,1.49-7.55,2.45-11.43,2.8-3.87.34-7.81.06-11.64-.77,3.28,1.14,6.78,1.57,10.2,1.45,4.39-.19,8.85-1.3,12.86-3.48h0Z"/>
                  </g>
                  <path class="cls-3" d="M32.28,335.86c-2.84,14.98-9.62,28.37-14.85,42.26,3.4,7.84,8.4,7.6,14.43,8.92,1.97.7,3.73,2.05,5.65,2.92,12.64,4.5,27.37-4.08,38.48-11.07.44-.32.63-.97.45-1.56-3.4-10.9-6.56-21.99-9.46-33.01-1.8-6.85-3.52-13.71-5.16-20.59"/>
                </g>
                <g>
                  <path class="cls-69" d="M22.05,327.97c2.2-4.34,5.83-12.32,10.56-14.07,4.74-.77,6.36,4.97,5.74,8.62-.63,4.31-2.87,8.25-4.8,12.08,0,0-5.79,9.22-7.07,11.4-1.29,2.19-7.14,8.06-7.14,8.06,0,0-1.64-6.19-7.07-6.94l9.78-19.14Z"/>
                  <path class="cls-3" d="M38.35,322.51c-.63,4.31-2.87,8.25-4.8,12.08,0,0-5.79,9.22-7.07,11.4-1.29,2.19-7.14,8.06-7.14,8.06,0,0-1.64-6.19-7.07-6.94l9.78-19.14c2.2-4.34,5.83-12.32,10.56-14.07"/>
                  <path class="cls-35" d="M27.86,334.05c.95.35,1.92.62,2.83.84.98.26,2.19.46,2.85-.3,2.43-4.82,6.42-11.76,4.34-17.1.65,3.63-.11,7.5-2.12,10.59-1.84,2.82-4.69,4.95-7.9,5.97Z"/>
                  <g>
                    <path class="cls-86" d="M37.66,316.54c.97,2.89.74,6-.1,8.88-.84,2.92-2.29,5.59-3.59,8.33,1.24-1.92,2.4-3.91,3.29-6.02,1.46-3.49,2.1-7.68.4-11.19h0Z"/>
                    <path class="cls-86" d="M40.12,319.91c-.42.95-.83,1.81-1.29,2.74.98-.45,1.56-1.69,1.29-2.74h0Z"/>
                    <path class="cls-86" d="M54.83,312c-1.2,4.09-5.85,5.25-9.41,3.45-1.15-.56-2.19-1.37-3.1-2.32,1.51,2.18,4.1,3.72,6.81,3.63,2.73-.05,5.36-1.96,5.71-4.76h0Z"/>
                    <path class="cls-86" d="M31.39,332.84c-2.1-1.22-3.73-3.15-4.56-5.44-.27-.76-.46-1.55-.56-2.37-.1.82-.02,1.67.2,2.48.64,2.41,2.51,4.58,4.92,5.32h0Z"/>
                    <path class="cls-86" d="M36.44,314.78c-.5-1.05-1.93-1.59-3-1.13,1.07.25,2.03.6,3,1.13h0Z"/>
                  </g>
                </g>
              </g>
              <g>
                <path class="cls-35" d="M57.83,315s-.27,1.37-1.42,4.33c-1.15,2.95-2.8,6.32-13.46,1.72-10.66-4.61-16.33-.55-16.33-.55,1.42-4.03,7.81-4.33,13.9-2.72,2.57.68,4.07,1.2,8.83,3.07,6.06,2.37,6.42-5.3,8.18-7.24.01.53.29,1.39.29,1.39Z"/>
                <g>
                  <g>
                    <path class="cls-102" d="M60.73,304.06h0c-.2.1-.39.19-.59.29,0,0,0,0,0,0-2.89,1.36-6.1,2.28-9.39,2.55-17.31,1.45-23.61-5.81-24.44-7.35-1.45.76-2.82,1.16-4.1,1.27-8.18.76-12.27-10.17-7.44-13.78.47-.35,1.02-.63,1.65-.82-2.22-26.49,11.78-34.83,24.39-35.89,1.39-.12,3.59-.09,6.17.26.1.01.19.03.29.04,9.13,1.3,22.76,6.64,22.63,23.87-.04,6.12,1.91,7.13,2.64,13.69.65,5.81-4.51,12.24-11.81,15.87Z"/>
                    <path class="cls-40" d="M60.73,304.06h0c-.2.1-.39.19-.59.29,10.21-6.88,12.39-14.11,10.17-20.38-2.22-6.27-1.51-8.57-1.92-13.48-1.3-15.44-21.49-19.68-21.49-19.68,0,0,.13-.06.37-.18,9.13,1.3,22.76,6.64,22.63,23.87-.04,6.12,1.91,7.13,2.64,13.69.65,5.81-4.51,12.24-11.81,15.87Z"/>
                    <path class="cls-40" d="M60.72,304.06c-3.04,1.52-6.46,2.55-9.99,2.84-17.31,1.45-23.61-5.81-24.44-7.35-1.45.76-2.82,1.16-4.1,1.27-2.35-1.97-4.13-3.77-5.01-5.03-1.23-1.75-2.1-4.88-2.42-8.75.47-.35,1.02-.63,1.65-.82-2.22-26.49,11.78-34.83,24.39-35.89,1.39-.12,3.59-.09,6.17.26-.05.14-.08.22-.08.22,0,0-6.17,1.2-11.89,6.36-5.72,5.16-12.21,16.48-7.1,34.82,4.95,17.78,32.51,12.15,32.82,12.07Z"/>
                    <path class="cls-16" d="M25.78,267.8s23.44-21.86,40.35-6.53c0,0-6.96-10.72-18.71-10.48-16.24.34-21.64,17-21.64,17Z"/>
                    <path class="cls-14" d="M25.78,267.8s23.44-21.86,40.35-6.53c0,0-6.96-10.72-18.71-10.48-16.24.34-21.64,17-21.64,17Z"/>
                    <path class="cls-8" d="M72.53,288.19c.92,8.24-9.82,17.71-21.8,18.72-17.31,1.45-23.61-5.81-24.44-7.35-11.68,6.07-18.15-10.8-9.88-13.33-2.22-26.49,11.79-34.83,24.39-35.89,6.28-.53,29.25,1.82,29.09,24.17-.04,6.12,1.91,7.13,2.64,13.69Z"/>
                  </g>
                  <g>
                    <path class="cls-96" d="M71.87,270.36c-1.25,7.43.29,13.73.29,13.73,0,0,2.5,8.35-3.63,14.15,2.8-3.12,4.37-6.69,4-10.05-.73-6.55-2.68-7.57-2.64-13.69.02-2.91-.35-5.49-1.03-7.76,0,0,0,0,0-.01-3.05-10.2-12.25-14.31-19.6-15.76h-.01s-.06-.01-.1-.02c-.05-.01-.1-.02-.15-.03-5.28-.93-22.13,3.1-24.79,24.6-.7,5.67-.54,10.43.34,14.47,1.35,6.17,4.38,10.65,8.59,14.07.58.47,1.19.93,1.82,1.36h0c2.05.69,4.51,1.25,7.45,1.51,0,0,0,0,0,0,2.43.22,5.19.24,8.3-.02.58-.05,1.15-.12,1.72-.2.12-.02.23-.04.34-.06,2.12-.35,4.19-.96,6.13-1.76-1.11.58-2.11.99-3.91,1.94-.59.31-.2.55.51.93.5.26,1.15.57,1.73,1.02,1.07.81.51,1.53.06,1.89-.9.71,2.76-.01.06,2.96-1.75,1.93-2.12,9.61-8.18,7.24-4.76-1.86-6.26-2.39-8.83-3.07-4.07-1.07-7.39-1.38-10.22-.32-1.41.53-3.21,1.7-3.68,3.04.15-.48,1.61-6.08,4.19-6.91,0,0-1.21-1.56.51-2.61,1.28-.78,3.29-.71,3.29-.71,0,0-4.63-.94-9.47-2.87-9.67-3.87-23.04-13.78-21.91-42.57.86-21.86,19.08-28.45,24.46-30.13,5.37-1.68,22.5-2.1,33.12,6.54,7.22,5.87,8.91,14.39,8.91,14.39l.06.76s3.5,6.53,2.26,13.96Z"/>
                    <path class="cls-37" d="M72.42,266.29c.03,2.37-.3,4.72-.6,7.06-.27,2.31-.37,4.63-.13,6.96.14,1.51.3,3.04.29,4.56,0,0-.01,0-.02.01-1.36-5.49-2.93-6.68-1.99-14.71,1.27-10.81-4.03-17.89-4.03-17.89.05-.08.09-.15.14-.22.01,0,.03.01.04.02.42.35.86.74,1.29,1.16,3.5,3.47,5.02,8.19,5.01,13.05Z"/>
                    <path class="cls-37" d="M68.85,266.73c-3.05-10.2-12.25-14.31-19.6-15.76h-.01s-.06-.01-.1-.02c-.05-.01-.1-.02-.15-.03-5.28-.93-22.13,3.1-24.79,24.6-.7,5.67-.54,10.43.34,14.47,0,0-5.24-5.43-3.87-18.14,1.01-9.34,4.86-23.31,22.75-23.84,5.08-.15,20.73.53,25.42,18.72Z"/>
                    <path class="cls-37" d="M65.65,247.3c-1.71-1.68-4.3-2.71-7.12-3.12-.2-.03-.37.23-.19.3h.01c.83.31,1.67.65,2.43,1.04,4.37,2.14,6.95,5.82,7.98,10.18.07.31.68.11.67-.23-.07-2.03-.66-5.1-3.79-8.17Z"/>
                    <path class="cls-37" d="M57.19,310.24c-.97.64-2.79,1.85-3.79,5.33-.19.66.16-.16.54-.81.9-1.55,2.59-3.53,3.65-3.26,0,0-.02-1.52-.4-1.27Z"/>
                    <path class="cls-37" d="M55.52,307.75c-.35.11-.55.17-.55.17-1.8-1-8.23,1.5-15.34.32-6.36-1.05-15.14-4.25-19.27-17.6-1.45-4.7-1.27-5.07-1.07-5.08.53-.04,2.09,5.39,5.4,10.52,2.57,3.99,6.74,7.29,9.67,8.82,2.66,1.38,4.52,1.58,8.06,2.04,0,0,0,0,0,0,3,.39,6.33.36,10.02-.23.11-.02.23-.04.34-.06,2.12-.35,4.19-.96,6.13-1.76-1.11.58-2.11.99-3.91,1.94-.59.31-.2.55.51.93Z"/>
                    <path class="cls-37" d="M39.21,317.34c-.04-.46,6.32.58,9.71,2.12,3.26,1.48,5.8-1,6.99-3.9,0,0-.62,2.83-1.85,4.46-1.22,1.62-3.8,1.21-7.55-.46-2.82-1.26-7.3-2.22-7.3-2.22Z"/>
                    <path class="cls-37" d="M38.86,314.64c.27.11.12.51-.15.44-3.43-.96-8.03-2.11-10.27,2.23-.69,1.33-1.5,1.96-2,3.22,0,0,0-.01,0-.02.15-.48,1.61-6.08,4.19-6.91,0,0-1.21-1.56.51-2.61,1.28-.78,3.29-.71,3.29-.71,0,0-2.3.46-3.06,1.34-.34.4-.02,1.38.85,1.4,1.72.03,3.65.34,6.63,1.63Z"/>
                    <path class="cls-37" d="M42.13,312.64c1.07.82,1.03,1.39.66,1.16-2.91-1.84-5.66-2.98-8.29-3.12-.31-.54-8.16-1.54-15.62-6.42-6.29-4.11-12.18-11.17-14.22-21.13,0,0,6.77,18.42,24.7,23.04,1.7.44,4.8,1.07,6.9,1.83.33.12.94.35,1.23.54.15.1.04.34-.14.28-1.06-.37-2.77-.8-4.38-.48-.68.14-.48.69.84.99,2.61.59,4.57.43,8.31,3.3Z"/>
                    <path class="cls-8" d="M71.87,270.36c-1.25,7.43.29,13.73.29,13.73,0,0,2.5,8.35-3.63,14.15,2.8-3.12,4.37-6.69,4-10.05-.73-6.55-2.68-7.57-2.64-13.69.11-16.01-11.65-21.76-20.63-23.53h-.01s-.06-.01-.1-.02c-.05-.01-.1-.02-.15-.03-5.28-.93-22.13,3.1-24.79,24.6-1.92,15.53,2.64,24.27,10.76,29.9h0c3.75,1.27,8.89,2.07,15.76,1.49,2.85-.24,5.63-.96,8.2-2.02-1.11.58-2.11.99-3.91,1.94-1,.53.81.86,2.25,1.94,1.07.81.51,1.53.06,1.89-.9.71,2.76-.01.06,2.96-1.75,1.93-2.12,9.61-8.18,7.24-4.76-1.86-6.26-2.39-8.83-3.07-6.11-1.61-12.51-1.31-13.91,2.74.1-.34,1.58-6.08,4.19-6.93,0,0-1.21-1.56.51-2.61,1.28-.78,3.29-.71,3.29-.71,0,0-4.63-.94-9.47-2.87-9.67-3.87-23.04-13.78-21.91-42.57.86-21.86,19.08-28.45,24.46-30.13,5.37-1.68,22.5-2.1,33.12,6.54,7.22,5.87,8.91,14.39,8.91,14.39l.06.76s3.5,6.53,2.26,13.96Z"/>
                    <path class="cls-37" d="M72.42,266.29c.03,2.37-.3,4.72-.6,7.06-.27,2.31-.37,4.63-.13,6.96.14,1.51.3,3.04.29,4.56,0,.04,0,.09,0,.13,0-.04-.01-.08-.02-.12-.09-.74-.2-1.47-.32-2.21-.32-1.85-.91-3.88-.93-5.74-.06-1.96-.05-3.95.17-5.89.59-5.29.7-11.13-2.41-15.65-.75-1.1-1.59-2.15-2.53-3.11-.11-.11.02-.28.14-.22.01,0,.03.01.04.02.42.35.86.74,1.29,1.16,3.5,3.47,5.02,8.19,5.01,13.05Z"/>
                    <path class="cls-37" d="M6.42,267.36c.53-4.71,2.59-9.26,5.45-13.04.2-.26.61-.02.47.28v.02c-.69,1.42-1.36,2.92-1.89,4.41-3.16,8.37-2.99,17.37-.49,25.83.18.6-.68.92-.95.35-1.62-3.49-3.54-9.29-2.58-17.86Z"/>
                    <path class="cls-37" d="M41.8,310.93c-.2-.09-.09-.4.12-.35,2.79.71,4.75,1.57,7.38,2.84,2.39,1.15,2.16-3.69,5.46-3.84.19,0,.27.23.12.34-.4.28-.98.79-1.54,1.64-.59.91-.93,2.28-1.58,4.01-.71,1.9-2.87-1.02-6.21-2.8-1.28-.69-2.69-1.36-3.76-1.85Z"/>
                    <path class="cls-37" d="M32.12,237.72c4.13-1.42,8.6-1.23,12.61.4,1.43.58,3.08,1.36,4.64,2.3.31.18.07.65-.26.52-1.46-.6-3.05-1.21-4.56-1.66-4.25-1.26-9.9-1.24-14.28.72-3.22,1.54-5.92,3.97-8.26,6.69-.31.36-.88-.06-.61-.46,1.88-2.87,5.26-6.63,10.71-8.5Z"/>
                    <path class="cls-37" d="M26.27,305.21s-3.46-1.52-5.93-5.07c-4.89-7-9.86-20.65-4.25-37.37.14-.41-.08-.86-.49-1h0c-.39-.14-.83.05-.99.43-1.55,3.6-8.54,21.35,2.85,38.84,0,0,4.54,5.31,8.81,4.16Z"/>
                  </g>
                </g>
                <g>
                  <g>
                    <path class="cls-61" d="M59.85,296.49c-.54.66-1.06,1.24-1.58,1.74-1.44,1.37-2.95,2.09-5.16,2.06-1.12-.02-2.2-.28-3.21-.78-1.13-.56-2.12-1.42-2.9-2.32-.31-.36-.59-.73-.83-1.08-.02-.03-1.91-2.83-1.3-3.64.25-.33.54-.28.68-.25.47.11,1.05.28,1.85.49.48.13,1.02.27,1.58.39,2.43.52,4.77.8,7.16.84,1.06.02,2.17,0,3.39-.08.3-.02.52-.02.71-.02.29,0,.75-.01.9.29.14.29-.25,1.06-1.31,2.36Z"/>
                    <path class="cls-84" d="M58.27,298.16s0,.02,0,.07c-1.44,1.37-2.95,2.09-5.16,2.06-1.12-.02-2.2-.28-3.21-.78-1.13-.56-2.12-1.42-2.9-2.32.92-.88,3.67-1.26,4.81-1.01,1.63.34,6.71,1.76,6.45,1.99Z"/>
                  </g>
                  <g>
                    <path class="cls-21" d="M57.41,264.99c-1.42-.96,2.23-3.97,5.41-3.13,3.18.84,3.47,3.25,3.44,3.49s-1.9-1.64-3.93-1.57c-4.12.16-3.6,2.1-4.92,1.21Z"/>
                    <path class="cls-21" d="M44.57,266.72c.25-1.46-3.45-2.38-7.7-.6-3.61,1.51-4.66,5.61-4.53,5.82s2.32-2.83,5.05-3.72c4.1-1.32,6.9.09,7.17-1.5Z"/>
                    <path class="cls-57" d="M63.03,269.92c6.7-1.03,7.35,12.71,2.76,14.52-4.67,1.84-6.9-2.34-6.98-5.94-.11-4.52,1.43-8.15,4.22-8.58Z"/>
                    <g>
                      <path class="cls-21" d="M65.66,271.06c.86.44,1.37,1.36,1.83,2.26.34.68.61,1.6.8,2.4.04.17.51.2.54-.56.04-.96.07-1.64-.23-2.47-.42-1.22-1.18-2.44-2.24-3.08-4.53-2.75-7.73,4.16-7.7,7.29,0,.12.21.18.25-.02.45-2,2.56-7.99,6.74-5.82Z"/>
                      <path class="cls-21" d="M66.7,271.42c.67.4,1.84-.26,2.23-1.01-.72.29-1.5.78-2.18.2-.12-.11-.31.54-.44.59l.4.22Z"/>
                      <path class="cls-21" d="M67.26,272.07c.52.66,1.86.47,2.29-.58-1.27.69-1.91.22-2.24-.13-.11-.12-.22.35-.35.34l.31.37Z"/>
                    </g>
                    <path class="cls-111" d="M57.84,286.18s-.09,2.48-1.87,2.59c-.33.02-.45-.32-.83-.37s-.81.11-.88.66c-.11.91,1.91,1.58,3.53,0,1.12-1.09.47-2.42.04-2.88Z"/>
                    <path class="cls-86" d="M59.35,286.7c.44,1.45-.91,2.89-2.62,3.28-.11.03-.23.05-.35.06-.27.04-.41-.26-.18-.36,1.12-.47,1.87-1.35,1.94-2.38.11-.93-.59-1.63-1.6-2.1-.66-.31-1.36-.43-2.12-.48-.23-.02-.28-.27-.06-.32h.01c1.26-.29,4.28-.02,4.98,2.29Z"/>
                    <g>
                      <path class="cls-57" d="M39.42,273.16c7.92-3.36,11.48,10.37,6.1,13.86-4.37,2.83-8.53-.31-9.45-3.81-1.16-4.39-.07-8.59,3.35-10.05Z"/>
                      <path class="cls-21" d="M38.4,274.44c-1.04.87-1.56,2.16-2,3.44-.35,1.01-.54,2.28-.66,3.4-.02.24-.37.26-.41.02-.19-1.14-.4-2.97-.38-4.18.02-1.65.54-3.26,1.82-4.4,4.73-4.2,10.08,1.67,10.83,4.69.03.12-.15.27-.25.09-.94-1.76-4.51-6.77-8.96-3.06Z"/>
                      <path class="cls-21" d="M35.42,277.38c-.65.98-2.68,1.37-3.72.95,1.23-.36,2.77-1.09,3.33-2.25.1-.21.58.82.77.76l-.39.55Z"/>
                      <path class="cls-21" d="M35.33,278.55c-.36,1.13-2.43,2.13-3.71,1.37,2.32-.39,2.98-1.44,3.26-2.07.09-.21.5.18.67.07l-.22.63Z"/>
                    </g>
                    <g>
                      <ellipse class="cls-21" cx="44.91" cy="279.2" rx="3.02" ry="4.24" transform="translate(-86.03 28.55) rotate(-18.45)"/>
                      <ellipse class="cls-11" cx="43.06" cy="277.15" rx=".57" ry=".89" transform="translate(-85.48 27.86) rotate(-18.45)"/>
                    </g>
                    <g>
                      <ellipse class="cls-21" cx="65.8" cy="276.39" rx="3.02" ry="4.24" transform="translate(-59.89 21.59) rotate(-12.87)"/>
                      <ellipse class="cls-11" cx="64.15" cy="274.46" rx=".57" ry=".89" transform="translate(-59.5 21.18) rotate(-12.87)"/>
                    </g>
                  </g>
                </g>
              </g>
            </g>
            <g class="cls-65">
              <g>
                <polygon class="cls-49" points="77.97 242.03 109.05 234.91 109.53 238.15 113.42 237.47 117.24 236.8 121.43 282.34 91.52 291.9 77.97 242.03"/>
                <polyline class="cls-48" points="81.05 242.79 85.73 243.88 114.86 237.22 110.34 236.04 81.05 242.79"/>
                <polygon class="cls-80" points="91.52 291.9 83.99 289.45 77.97 242.03 85.66 243.89 91.52 291.9"/>
                <line class="cls-107" x1="117.24" y1="236.8" x2="85.66" y2="243.89"/>
                <line class="cls-79" x1="82.61" y1="278.59" x2="89.94" y2="280.99"/>
                <polygon class="cls-109" points="81.65 271 89.27 273.49 87.4 258.2 79.72 255.81 81.65 271"/>
              </g>
            </g>
          </g>
        </g>
      </g>
    </g>
  </g>
</svg>