<svg xmlns="http://www.w3.org/2000/svg" xmlns:xlink="http://www.w3.org/1999/xlink" viewBox="0 0 120.13 203.62"><defs><radialGradient id="radial-gradient" cx="699.06" cy="97.14" fx="699.06" fy="97.14" r="9.95" gradientTransform="translate(-636.92)" gradientUnits="userSpaceOnUse"><stop offset="0" stop-color="#efb38d"></stop><stop offset="1" stop-color="#eebe8c"></stop></radialGradient><radialGradient id="radial-gradient-2" cx="62.14" cy="97.14" fx="62.14" fy="97.14" r="9.95" gradientUnits="userSpaceOnUse"><stop offset="0" stop-color="#eeb28c"></stop><stop offset="1" stop-color="#ecbc8a"></stop></radialGradient><radialGradient id="radial-gradient-3" cx="-15275.96" cy="181.42" fx="-15275.96" fy="181.42" r="31.46" gradientTransform="translate(-15202.95) rotate(-180) scale(1 -1)" xlink:href="#radial-gradient"></radialGradient><radialGradient id="radial-gradient-4" cx="1020.95" cy="-726.34" fx="1020.95" fy="-726.34" r="10.57" gradientTransform="translate(-857.91 1038.14) rotate(-10.46)" xlink:href="#radial-gradient"></radialGradient><radialGradient id="radial-gradient-5" cx="-3626.27" cy="586.97" fx="-3626.27" fy="586.97" r="39.68" gradientTransform="translate(-3511.85 -787.44) rotate(-175.9) scale(1 -1)" xlink:href="#radial-gradient-2"></radialGradient><radialGradient id="radial-gradient-6" cx="-5655.99" cy="-3478.11" fx="-5655.99" fy="-3478.11" r="5.13" gradientTransform="translate(-223.18 6756.32) rotate(123.84) scale(1 -1)" xlink:href="#radial-gradient"></radialGradient><radialGradient id="radial-gradient-7" cx="-5644.32" cy="-3473.36" fx="-5644.32" fy="-3473.36" r="11.11" gradientTransform="translate(-223.18 6756.32) rotate(123.84) scale(1 -1)" xlink:href="#radial-gradient"></radialGradient><radialGradient id="radial-gradient-8" cx="-4896.6" cy="-3529.96" fx="-4896.6" fy="-3529.96" r="12.84" gradientTransform="translate(-335.43 6162.31) rotate(124.59) scale(.93 -.89) skewX(10.17)" xlink:href="#radial-gradient"></radialGradient><radialGradient id="radial-gradient-9" cx="115.65" cy="126.48" fx="115.65" fy="126.48" r="3.27" xlink:href="#radial-gradient-2"></radialGradient><radialGradient id="radial-gradient-10" cx="112.29" cy="137.8" fx="112.29" fy="137.8" r="5.84" xlink:href="#radial-gradient-2"></radialGradient></defs><g style="isolation:isolate;"><g id="Layer_2"><g id="Layer_1-2"><path d="M118.69,128.41s.05,3.78-3.28,3.99c-3.33.22-2.55-2.43-2.55-2.43l1.42-2.65s4.33-1.54,4.4,1.09Z" style="fill:#e29f7a;"></path><path d="M118.69,128.41s.05,3.78-3.28,3.99c-3.33.22-2.55-2.43-2.55-2.43l1.42-2.65s4.33-1.54,4.4,1.09Z" style="fill:none; stroke:#281b12; stroke-linecap:round; stroke-linejoin:round;"></path><ellipse cx="58.72" cy="193.24" rx="58.72" ry="10.38" style="fill:#4d1831; mix-blend-mode:multiply; opacity:.1;"></ellipse><path d="M108.62,130.9c.11-.24.11-.51,0-.76-.98-2.41-3.1-3.14-8.72-12.4-10.98-18.09-14.41-15.31-14.41-15.31.64,7.96-3.7,28.97-3.7,28.97.25,2.81,3.88,6.29,5.68,8.41.76.9,1.43,1.03,1.94.88h0s0,0,0,0c.05-.02.11-.03.16-.06,13.24-4.57,18.61-9.12,18.61-9.12,0,0,.26-.28.42-.62Z" style="fill:#ec2756;"></path><path d="M108.62,130.9c.11-.24.11-.51,0-.76-.98-2.41-3.1-3.14-8.72-12.4-10.98-18.09-14.41-15.31-14.41-15.31.64,7.96-3.7,28.97-3.7,28.97.25,2.81,3.88,6.29,5.68,8.41.76.9,1.43,1.03,1.94.88h0s0,0,0,0c.05-.02.11-.03.16-.06,13.24-4.57,18.61-9.12,18.61-9.12,0,0,.26-.28.42-.62Z" style="fill:none; stroke:#281b12; stroke-linecap:round; stroke-linejoin:round;"></path><path d="M88.53,116.38c-.4-1.73-1.84-3.08-3.56-4.1-1.06,8.89-3.17,19.13-3.17,19.13.25,2.81,3.88,6.29,5.68,8.41.76.9,1.43,1.03,1.94.88h0s0,0,0,0c.05-.02.11-.03.16-.06,3.12-1.08,5.8-2.15,8.08-3.17-1.82-.8-3.62-1.7-5.38-2.7-6.95-3.99-2.63-12.18-3.74-18.38Z" style="fill:#9f1c3c; mix-blend-mode:multiply; opacity:.32;"></path><path d="M90.71,140.22l4.18-1.8c1.39-.6,2.78-1.2,4.14-1.83.69-.31,1.37-.63,2.05-.96l1.02-.49c.33-.17.67-.34,1-.51,1.33-.7,2.64-1.42,3.9-2.25-1.08,1.03-2.34,1.9-3.63,2.68-1.29.79-2.66,1.46-4.04,2.11-1.38.63-2.8,1.2-4.23,1.72-1.44.51-2.89.98-4.38,1.34Z" style="fill:#281b12;"></path><path d="M90.21,125.71c.26-.79.63-1.54,1.05-2.27.42-.72.91-1.41,1.45-2.07.55-.64,1.15-1.26,1.83-1.79.68-.53,1.44-.99,2.26-1.27-.68.52-1.31,1.06-1.9,1.64-.58.59-1.13,1.19-1.66,1.83-.53.63-1.03,1.28-1.53,1.94l-1.49,2Z" style="fill:#281b12;"></path><path d="M89.99,128.21c.47-.63,1.05-1.17,1.68-1.66.62-.5,1.31-.92,2.04-1.28.74-.34,1.53-.62,2.36-.72.82-.11,1.7-.03,2.43.31-.81-.08-1.58,0-2.33.18-.37.1-.74.2-1.1.35-.36.13-.71.28-1.06.45-.7.33-1.37.71-2.03,1.11-.66.4-1.32.83-1.99,1.26Z" style="fill:#281b12;"></path><path d="M83.78,174.28s-50.52-6.64-50.94-7.2c-7.54-10-7.3-41.26-5.27-46.45,1.69-4.31-5.36-15.26-5.36-15.26,7.21-4.62,15.51-7.28,21.02-8.94,4.07-1.23,6.82-1.75,6.99-1.74,27.8,2.33,35.31,7.08,36.43,7.92.11.08.16.13.16.13,7.24,24.3-3.03,71.54-3.03,71.54Z" style="fill:#ec2756;"></path><path d="M83.78,174.28s-50.67-6.55-50.94-7.2c-9.93-23.36-5.51-41.82-5.27-46.45.24-4.63-5.36-15.26-5.36-15.26,7.21-4.62,15.51-7.28,21.02-8.94,4.07-1.23,6.82-1.75,6.99-1.74,27.8,2.33,35.31,7.08,36.43,7.92.11.08.16.13.16.13,7.24,24.3-3.03,71.54-3.03,71.54Z" style="fill:none; stroke:#281b12; stroke-linecap:round; stroke-linejoin:round;"></path><path d="M78.31,138.13c0,.08-.67.14-1.74.3-1.07.16-2.54.44-4.06,1.05-1.52.6-2.76,1.44-3.56,2.15-.81.7-1.22,1.24-1.29,1.19-.05-.03.26-.65,1.04-1.46.77-.8,2.04-1.73,3.62-2.36,1.58-.63,3.11-.86,4.21-.93,1.1-.07,1.78,0,1.78.06Z" style="fill:#281b12;"></path><path d="M73.33,98.7s-4.08,7.42-11.19,6.89c-4.22-.31-7.39-2.68-9.27-4.56,0,0-.01-.01-.02-.02-1.06-1.24-1.82-2.17-1.93-2.3,0-.01-.01-.02-.01-.02l1.37-9.86,19.54-.18s1.82,8.68,1.51,10.04Z" style="fill:url(#radial-gradient);"></path><path d="M73.33,98.7s-4.08,7.42-11.19,6.89c-4.22-.31-7.39-2.68-9.27-4.56,0,0-.01-.01-.02-.02-1.06-1.24-1.82-2.17-1.93-2.3,0-.01-.01-.02-.01-.02l1.37-9.86h.02l19.52-.18s.85,4.02,1.28,7.02c.2,1.41.32,2.59.22,3.03Z" style="fill:url(#radial-gradient-2);"></path><path d="M73.11,95.67c-1.53,2.1-5.12,6-10.35,5.61-4.22-.31-7.39-2.68-9.27-4.56l-.02-.02c-1.06-1.24-1.82-2.17-1.93-2.3,0-.01-.01-.02-.01-.02l.77-5.56,19.52-.18s.85,4.02,1.28,7.02Z" style="fill:#e29f7a;"></path><path d="M73.33,98.7s-4.08,7.42-11.19,6.89c-4.22-.31-7.39-2.68-9.27-4.56,0,0-.01-.01-.02-.02-1.06-1.24-1.82-2.17-1.93-2.3,0-.01-.01-.02-.01-.02l1.37-9.86h.02l19.52-.18s.85,4.02,1.28,7.02c.2,1.41.32,2.59.22,3.03Z" style="fill:none; stroke:#281b12; stroke-linecap:round; stroke-linejoin:round;"></path><polygon points="101.21 161.28 78.6 163.65 61.1 169.12 64.02 180.43 91.73 175.14 109.96 170.95 101.21 161.28" style="fill:#455b4c;"></polygon><polygon points="101.21 161.28 78.6 163.65 61.1 169.12 64.02 180.43 91.73 175.14 109.96 170.95 101.21 161.28" style="fill:#455b4c; mix-blend-mode:multiply; opacity:.5;"></polygon><polygon points="101.21 161.28 78.6 163.65 61.1 169.12 64.02 180.43 91.73 175.14 109.96 170.95 101.21 161.28" style="fill:none; stroke:#211e1f; stroke-linecap:round; stroke-linejoin:round;"></polygon><path d="M109.84,191.1s0,1.43-2.41,1.07c-2.41-.36-5.35-.89-10.18-4.3-4.83-3.4-11.73-17.18-11.73-18.26,0-1.07,9.83-3.04,9.83-3.04,0,0,10,2.15,14.49,8.77,4.48,6.62,0,15.75,0,15.75Z" style="fill:#48566c;"></path><path d="M109.84,191.1s0,1.43-2.41,1.07c-2.41-.36-5.35-.89-10.18-4.3-4.83-3.4-11.73-17.18-11.73-18.26,0-1.07,9.83-3.04,9.83-3.04,0,0,10,2.15,14.49,8.77,4.48,6.62,0,15.75,0,15.75Z" style="fill:#455b4c;"></path><path d="M109.84,191.1s0,1.43-2.41,1.07c-2.41-.36-5.35-.89-10.18-4.3-4.83-3.4-11.73-17.18-11.73-18.26,0-1.07,9.83-3.04,9.83-3.04,0,0,10,2.15,14.49,8.77,4.48,6.62,0,15.75,0,15.75Z" style="fill:none; stroke:#211e1f; stroke-linecap:round; stroke-linejoin:round;"></path><path d="M18.43,171.5c0,4.38,2.92,6.2,5.29,6.74,0,0,.15.02.43.07,1.62.26,7.63,1.22,13.63,2.14,4.95.76,9.89,1.51,12.38,1.8,6.02.73,26.62,7.83,26.62,7.83l4.56-13.85s-22.97-9.67-28.62-11.49c-5.65-1.82-19.51-2.92-21.69-2.73-2.19.18-12.58,5.1-12.58,9.48Z" style="fill:#eebd93;"></path><path d="M21.87,172.59c.33,1.77.32,3.17.68,3.61.16.19.86,1.1,1.61,2.11,1.62.26,7.63,1.22,13.63,2.14,3.79-1.05,12.19-3.67,12.19-3.67,0,0-14.94-.15-15.91-.37-.98-.22-4.18-2.42-4.56-4.83-.36-2.34,1.13-5.01,1.36-5.01-.26-.1-3.64-1.45-3.92-1.39-.3.06-4.93,1.76-4.93,1.76,0,0-.47,3.87-.14,5.64Z" style="fill:#e2a07a;"></path><path d="M23.72,178.24s20.42,3.28,26.44,4.01c6.02.73,26.62,7.84,26.62,7.84l4.56-13.86s-22.97-9.66-28.63-11.49c-5.65-1.82-19.51-2.92-21.7-2.73-2.19.18-12.58,5.11-12.58,9.48s2.92,6.2,5.29,6.75Z" style="fill:none; stroke:#211e1f; stroke-linecap:round; stroke-linejoin:round;"></path><path d="M9.13,159.1s-5.65,3.83-6.02,6.93c-.36,3.1-.91,7.29,1.09,10.39,2.01,3.1,10.94,6.2,10.94,6.2l10.58-2.92s-1.64-7.66-.36-8.93c1.28-1.28,8.57-7.11,10.58-7.48,2.01-.36,9.3-.73,8.75-1.28s-3.65-3.65-13.13-5.11c-9.48-1.46-22.43,2.19-22.43,2.19Z" style="fill:#455b4c;"></path><path d="M73,188.81c1.01.91,16.34,7.69,20.35,9.2,3.87,1.45,8.78-2.29,9.27-4.64.02-.1.03-.18.04-.27.06-.88-.25-2.68-.96-4.67-.62-1.75-1.54-3.65-2.78-5.22-1.08-1.37-2.42-2.49-4.01-3.03-5.47-1.84-12.35-3.75-13.58-3.77-1.23,0-4.58.69-4.91.5-.16-.1-.91,2.5-1.68,5.29-.87,3.18-1.74,6.61-1.74,6.61Z" style="fill:#c6d6d4;"></path><path d="M73,188.81c1.01.91,16.34,7.69,20.35,9.2,3.87,1.45,8.78-2.29,9.27-4.64-1.16.98-3.62,3.5-6.32,3.85-3.51.45-12.29-4.44-12.75-5.42-.47-.99,1.94-1.72,5.33-2.4,3.38-.68,12.82-.96,12.82-.96-.62-1.75-1.54-3.65-2.78-5.22-1.45-.68-2.96-1.31-3.45-1.28-1.05.04-14.48-1.92-14.48-1.92,0,0-3.23,1.12-6.25,2.2-.87,3.18-1.74,6.61-1.74,6.61Z" style="fill:#c6d6d4; mix-blend-mode:multiply;"></path><path d="M73.01,188.81c1,.91,16.34,7.69,20.35,9.2,4.01,1.51,9.15-2.58,9.31-4.92.16-2.34-2.29-11.07-7.75-12.91-5.46-1.84-12.35-3.76-13.58-3.77s-4.58.69-4.91.49-3.42,11.9-3.42,11.9Z" style="fill:none; stroke:#211e1f; stroke-linecap:round; stroke-linejoin:round;"></path><path d="M9.13,159.1s-5.65,3.83-6.02,6.93c-.36,3.1-.91,7.29,1.09,10.39,2.01,3.1,10.94,6.2,10.94,6.2l10.58-2.92s-1.64-7.66-.36-8.93c1.28-1.28,8.57-7.11,10.58-7.48,2.01-.36,9.3-.73,8.75-1.28s-3.65-3.65-13.13-5.11c-9.48-1.46-22.43,2.19-22.43,2.19Z" style="fill:none; stroke:#211e1f; stroke-linecap:round; stroke-linejoin:round;"></path><path d="M31.19,179.71l1.25,16.93s19.95-5.54,23.92-6.25c3.97-.72,31.74-2.69,47.09-3.58,7.11-.42,9.93-2.63,10.91-4.89,1.13-2.63-.22-5.3-.22-5.3,0,0-2.23-3.21-5.78-6.06-3-2.41-6.94-4.57-11.29-4.33-9.49.54-18.28,4.48-25.01,6.45-6.73,1.97-40.87,7.04-40.87,7.04Z" style="fill:url(#radial-gradient-3);"></path><path d="M32.45,196.64s19.95-5.54,23.92-6.25c3.97-.72,31.74-2.69,47.09-3.58,7.11-.42,9.93-2.63,10.91-4.89-2.5-4.01-5.1-8.36-5.06-9.04.08-1.31-.05-1.6-.93-2.32-.88-.72-9.33-2.83-9.33-2.83l-4.44.83s5.46,7.62,6.04,9.36c.58,1.73-8.57,6.18-17.89,6.68-9.31.49-24.09,2.03-26.1,2.54-2.01.51-20.31,6.56-20.31,6.56l-.91-7.91-3,10.87Z" style="fill:#e2a07a;"></path><path d="M114.15,176.6s4.66,9.31-10.69,10.2c-15.35.89-43.12,2.86-47.09,3.58-3.97.72-23.92,6.25-23.92,6.25l-1.25-16.21s34.14-5.79,40.87-7.76c6.73-1.97,15.52-5.91,25.01-6.44,9.49-.54,17.08,10.38,17.08,10.38Z" style="fill:none; stroke:#211e1f; stroke-linecap:round; stroke-linejoin:round;"></path><path d="M13.71,196.3c.41.65.88,1.14,1.4,1.37,3.11,1.42,11.09,1.89,17.72-.61,6.63-2.5,22.88-6.61,24.05-6.76,1.17-.15,4.49-.68,4.49-.68,0,0-1.16-.88-2.33-2.44-1.81-2.44-3.61-6.57-1.01-11.74,0,0-22.75,3.61-28.61,3.58-5.86-.02-15.33,3.36-16.95,5.25-1.35,1.58-.79,8.81,1.23,12.02Z" style="fill:#c6d6d4;"></path><path d="M13.71,196.3c.41.65.88,1.14,1.4,1.37,3.11,1.42,11.09,1.89,17.72-.61,6.63-2.5,22.88-6.61,24.05-6.76,1.17-.15,4.49-.68,4.49-.68,0,0-1.16-.88-2.33-2.44l-.87-.04s-5.23,1.79-7.92,2.95c-2.69,1.16-6.24,3.03-6.43,3.16-.19.13-19.6,5.93-27.41,3.75-1-.28-1.91-.51-2.71-.7Z" style="fill:#c6d6d4; mix-blend-mode:multiply;"></path><path d="M61.37,189.62s-7.62-5.71-3.34-14.18c0,0-22.75,3.61-28.61,3.59-5.86-.02-15.33,3.36-16.95,5.25-1.62,1.89-.47,11.97,2.64,13.39,3.11,1.42,11.09,1.89,17.72-.61,6.63-2.5,22.88-6.61,24.05-6.76,1.17-.15,4.49-.68,4.49-.68Z" style="fill:none; stroke:#211e1f; stroke-linecap:round; stroke-linejoin:round;"></path><path d="M100.01,157.45s7.59.18,12.07,2.86c4.48,2.68,6.04,6.62,7.24,9.13,1.21,2.51-1.55,15.21-3.28,17.9-1.72,2.68-7.59,4.83-8.62,4.83s2.59-5.19,2.07-8.95c-.52-3.76-8.11-11.45-13.28-14.5-5.17-3.04-10.69-4.12-10.69-4.12,0,0,7.59-7.16,14.49-7.16Z" style="fill:#455b4c;"></path><path d="M100.01,157.45s7.59.18,12.07,2.86c4.48,2.68,6.04,6.62,7.24,9.13,1.21,2.51-1.55,15.21-3.28,17.9-1.72,2.68-7.59,4.83-8.62,4.83s2.59-5.19,2.07-8.95c-.52-3.76-8.11-11.45-13.28-14.5-5.17-3.04-10.69-4.12-10.69-4.12,0,0,7.59-7.16,14.49-7.16Z" style="fill:none; stroke:#211e1f; stroke-linecap:round; stroke-linejoin:round;"></path><path d="M91.49,135.28c-.06-1.86-.09-3.71-.09-5.56l.02-5.55c.01-.93,0-1.85,0-2.77,0-.93.02-1.87.1-2.79.13-1.86.4-3.7.79-5.52-.13,1.85-.22,3.7-.27,5.54-.01.92-.02,1.84.01,2.76.03.93.04,1.86.04,2.79-.02,1.86-.07,3.71-.17,5.56-.09,1.85-.24,3.7-.44,5.55Z" style="fill:#281b12;"></path><path d="M76.77,126.6c.05.04-.65,1.1-1.88,2.74-1.24,1.64-3.01,3.86-5.25,6.08-1.12,1.1-2.26,2.08-3.34,2.92-.55.4-1.07.8-1.58,1.12-.25.16-.5.33-.74.48-.24.14-.48.28-.7.41-.44.27-.87.46-1.23.65-.18.09-.35.18-.51.25-.16.07-.31.13-.44.18-.53.22-.84.32-.85.29-.04-.08,1.12-.6,2.85-1.68.21-.14.44-.28.67-.43.23-.15.46-.32.71-.49.5-.33,1-.73,1.53-1.14,1.05-.84,2.16-1.82,3.27-2.91,2.21-2.19,4.02-4.36,5.33-5.94,1.3-1.58,2.11-2.56,2.17-2.52Z" style="fill:#281b12;"></path><path d="M8.79,126.66s-.88,1.09-.88,1.44c0,.35,1.09,1.45,2.06,1.8l1.28-2.98s-1.68-.44-2.46-.27Z" style="fill:#ec2756;"></path><path d="M8.79,126.66s-.88,1.09-.88,1.44c0,.35,1.09,1.45,2.06,1.8l1.28-2.98s-1.68-.44-2.46-.27Z" style="fill:none; stroke:#281b12; stroke-linecap:round; stroke-linejoin:round;"></path><path d="M9.22,129.06s-4.32,8.84-4.7,13.8c-.38,4.96,3.39,7.3,4.27,7.38.88.08,13.56-10.36,13.56-10.36l2.1-4.72s-11.33-8.74-15.23-6.1Z" style="fill:url(#radial-gradient-4);"></path><path d="M9.22,129.06s-4.32,8.84-4.7,13.8c-.38,4.96,3.39,7.3,4.27,7.38.88.08,13.56-10.36,13.56-10.36l2.1-4.72s-11.33-8.74-15.23-6.1Z" style="fill:none; stroke:#281b12; stroke-linecap:round; stroke-linejoin:round;"></path><path d="M24.45,135.16s-11.33-8.74-15.23-6.1c0,0-.92,2.08-1.32,2.96,5.12,1.73,8.5,5.88,10.68,10.93,2.14-1.72,3.77-3.07,3.77-3.07l2.1-4.72Z" style="fill:#f7a77f; mix-blend-mode:multiply; opacity:.5;"></path><path d="M23.51,137.43s-1.03-2.83-3.59-5.4c.06.5-.07.99-.41,1.36-.75.9-1.96,1.14-3.28,1.09,2.75,2.9,4.62,7,4.62,7l2.66-4.06Z" style="fill:#e4e4e3; mix-blend-mode:multiply; opacity:.5;"></path><path d="M22.19,105.81s-1.4-.4-4.84,5c-2.5,3.93-7.57,12.31-8.47,13.46-.9,1.16-1.66,3.27-.81,3.97.73.61,9.35-.98,13.9,7.59,0,0,2.26,3.05,4.23.21,1.97-2.84,5.68-9.59,5.68-9.59,0,0-.16-21.68-9.69-20.64Z" style="fill:#ec2756;"></path><path d="M22.19,105.81s-1.4-.4-4.84,5c-2.5,3.93-7.57,12.31-8.47,13.46-.9,1.16-1.66,3.27-.81,3.97.73.61,9.35-.98,13.9,7.59,0,0,2.26,3.05,4.23.21,1.97-2.84,5.68-9.59,5.68-9.59" style="fill:none; stroke:#281b12; stroke-linecap:round; stroke-linejoin:round;"></path><path d="M20.04,133c.7.79,1.35,1.73,1.94,2.83,0,0,2.26,3.05,4.23.21,1.46-2.1,3.86-6.34,5.02-8.4-1.56,1.28-3.01,2.76-4.47,4.14-1.9,1.71-4.39,1.87-6.71,1.23Z" style="fill:#9f1c3c; mix-blend-mode:multiply; opacity:.32;"></path><path d="M8.88,128.28c1.08-.09,2.16-.02,3.23.14,1.07.16,2.13.44,3.15.83.51.2,1,.43,1.49.69.48.26.94.56,1.37.9.44.33.83.71,1.2,1.11.36.41.68.85.94,1.32-.37-.4-.73-.78-1.13-1.13-.4-.34-.82-.67-1.26-.95-.88-.58-1.83-1.05-2.81-1.42-.98-.38-2-.68-3.03-.92-1.03-.24-2.08-.43-3.15-.56Z" style="fill:#281b12;"></path><path d="M28.92,131.67c.2-.39.38-.8.58-1.19.2-.39.41-.78.63-1.17.21-.39.46-.76.69-1.13.25-.37.5-.73.76-1.09.54-.7,1.1-1.39,1.76-2,.65-.61,1.36-1.17,2.16-1.54-.68.57-1.28,1.19-1.86,1.84l-.42.49-.41.51c-.27.34-.54.68-.79,1.03-.53.69-1.03,1.41-1.53,2.12l-.76,1.07c-.26.35-.5.73-.81,1.05Z" style="fill:#281b12;"></path><path d="M24.55,115.18c.22.12.4.31.58.49.18.18.35.37.51.56.33.39.64.79.92,1.2.58.83,1.07,1.73,1.47,2.66.19.47.37.95.51,1.44.13.49.25.99.31,1.5.06.51.09,1.02.06,1.53-.04.51-.11,1.01-.26,1.5.02-.5.03-1-.01-1.49-.04-.49-.12-.98-.22-1.46-.21-.96-.52-1.9-.9-2.8-.38-.91-.83-1.79-1.32-2.65-.25-.43-.5-.86-.78-1.27-.13-.21-.27-.42-.41-.62-.07-.1-.14-.2-.22-.3-.08-.1-.14-.21-.24-.28Z" style="fill:#281b12;"></path><path d="M27.75,125.32c-.48-.52-1.01-.97-1.58-1.34-.15-.08-.29-.18-.44-.26-.15-.08-.3-.16-.45-.23-.16-.06-.31-.13-.46-.2l-.48-.15c-.16-.06-.32-.08-.49-.12l-.25-.06c-.08-.02-.17-.02-.25-.03l-.5-.07c-.17,0-.34,0-.51-.01h-.26s-.26,0-.26,0l-.52.02c-.35.03-.69.09-1.05.11.32-.14.66-.27,1-.38l.53-.12c.09-.02.18-.04.27-.05l.27-.02c.18-.02.36-.03.54-.04l.55.03c.18,0,.36.04.54.08.18.04.36.06.54.12.71.2,1.37.56,1.93,1.03.56.46,1.04,1.03,1.33,1.68Z" style="fill:#281b12;"></path><path d="M12.79,125.64c1.08-.03,2.16.2,3.18.6,1.02.39,1.98.96,2.8,1.69.81.74,1.55,1.57,2.06,2.54l.2.35c.07.12.11.25.17.37l.32.75c.06.12.09.25.13.38l.11.39c.07.26.14.52.2.78-.12-.24-.24-.48-.35-.73-.12-.24-.2-.49-.34-.72l-.39-.69c-.07-.11-.12-.23-.2-.34l-.22-.32c-.15-.21-.29-.43-.45-.65l-.5-.6c-.16-.21-.35-.39-.53-.57-.19-.18-.36-.38-.57-.53-.77-.7-1.67-1.25-2.61-1.71-.95-.45-1.95-.79-3.01-.99Z" style="fill:#281b12;"></path><path d="M32.1,114.08c-.07.04-.48-.55-1.24-1.42-.19-.21-.4-.45-.64-.69-.23-.25-.5-.48-.78-.74-.57-.5-1.22-1.01-1.95-1.49-.73-.47-1.47-.86-2.16-1.18-.35-.15-.68-.3-1-.41-.31-.13-.61-.22-.89-.31-1.1-.34-1.81-.47-1.8-.56,0-.06.74-.06,1.89.2.29.07.6.14.93.26.33.1.68.24,1.04.38.72.3,1.49.69,2.25,1.18.76.5,1.42,1.04,1.99,1.58.28.28.54.53.77.8.24.26.43.51.61.75.71.95,1.01,1.62.96,1.65Z" style="fill:#281b12;"></path><path d="M100.45,36.92c2.95,5.88,1.79,21.69,1.79,21.69,5.79-5.66,6.62-14.93,5.1-22.9-1.84.84-4.3,1.25-6.9,1.21Z" style="fill:#221f1f;"></path><path d="M102.34,75.86c-.43,11.46-11.8,23.33-29.81,20.98-8.56-1.12-19.38-4.37-25.49-11.06-1.94-2.12-4.99-5.61-5.96-7.88-18.62,6.32-23.62-13.9-14.84-19.21.73-19.2,22.34-40.95,41.44-40.22,9.52.36,26.7,4.88,33.52,20.01.98,3.26,2.1,5.82.95,20.14-.27,3.39-.76,8.91.14,12.19.4,1.47.11,3.52.05,5.07Z" style="fill:url(#radial-gradient-5);"></path><path d="M100.97,37.66c-1.66.85-3.66,1.13-6.03.52-5.25-1.35-10.04-2.87-14.76-.59-5.58,2.69-8.27,3.8-14.7,2.62-3.18-.58-9.18-1.93-10.53-3.49,2.07,8.34-.1,13.09-8.48,18.76,6.32-5.62,8.38-13.68,6.3-22.02.44,1.77,7.34,3.54,10.52,4.12,6.43,1.18,11.4.15,16.98-2.53,4.71-2.27,11.53.89,16.81,2.13,1.42.33,2.71.49,3.89.5Z" style="fill:#e29f7a;"></path><path d="M102.17,77.74c-1.53,10.84-12.62,21.32-29.64,19.1-8.56-1.12-19.38-4.37-25.49-11.06-1.94-2.12-4.99-5.61-5.96-7.88-15.23,5.17-21.36-7.42-18.27-15.09.69-1.7,8.85-5.64,14.29,4.13.75,1.34,2.95,6.26,2.29,8.57,1.94-1.31,3.77-.64,4.52.5,1.59,2.43,4.19,6.23,5.32,7.5,5.92,6.68,16.38,9.92,24.68,11.03,15.29,2.04,25.65-6.85,28.26-16.8Z" style="fill:#e29f7a;"></path><path d="M66.53,95.68c7.7,2.32,15.69,1.72,22.86-1.16s12.21-10.4,13.01-18.13c.54-5.25-1.38-10.67-.53-15.87,1.56-9.57.73-20.78-1.63-24.29" style="fill:none; stroke:#27190f; stroke-miterlimit:10;"></path><path d="M117.37,22.67c-1.2,6.1-7.58,16.75-20.35,13.76-5.28-1.24-12.09-4.4-16.81-2.13-5.58,2.69-10.55,3.71-16.98,2.53-3.18-.58-10.08-2.35-10.52-4.12,2.1,8.43,1.49,16.65-7.09,22.38.49,2.77.95,5.42.84,7.92-.06,1.43-.41,3.72-1.77,4.13-1.69.51-3.11-1.97-4.08-3.44-2.52-3.82-5.75-6.77-10.14-6.37-.81.07-1.58.23-2.28.46-.71.23-1.36.53-1.95.9-4.5-4.4-6.49-11.56-6.97-17.86-.24-3.2.12-6.44,1.04-9.52.88-2.98,2.28-5.8,4.14-8.28,2.18-2.91,4.85-5.47,8.41-6.11.32-8.97,9.55-15.37,18.43-16.26,8.88-.89,17.62,2.13,26.33,4.06,8.71,1.93,18.5,2.6,25.94-2.35,1.08-.72,2.4-1.59,3.58-1.04.61.29.97.87,1.2,1.53.12.33.19.68.25,1.02.74,4.4-2.31,14.27-10.03,18.17,9.65,1.15,20.05-5.6,18.82.62Z" style="fill:#221f1f;"></path><path d="M117.37,22.67c-1.2,6.1-7.58,16.75-20.35,13.76-5.28-1.24-12.09-4.4-16.81-2.13-5.58,2.69-10.55,3.71-16.98,2.53-3.18-.58-10.08-2.35-10.52-4.12,2.1,8.43,1.49,16.65-7.09,22.38.49,2.77.95,5.42.84,7.92-.06,1.43-.41,3.72-1.77,4.13-1.69.51-3.11-1.97-4.08-3.44-2.52-3.82-5.75-6.77-10.14-6.37-.81.07-1.58.23-2.28.46-.71.23-1.36.53-1.95.9-4.5-4.4-6.49-11.56-6.97-17.86-.24-3.2.12-6.44,1.04-9.52,2.77,20.68,22.84,19.38,22.84,19.38,12.8-9.98,2.35-28.56-2.99-31.39-5.34-2.83-3.24-2.68-3.24-2.68,7.34,1.81,10.52,6.5,14.57,12.38,4.96,7.2,24.44,4.87,26.02,3.39,1.58-1.47-2.96-2.3.12-3.06,3.08-.76,4.53.19,17.77,4.39,13.24,4.2,21.99-11.05,21.99-11.05Z" style="fill:#221f1f;"></path><path d="M98.55,22.04c-6.97,2.28-13.94.75-25.52-4.07-11.58-4.82-22.05-1.77-17.28-3.87,4.71-2.07,13.81-1.48,19.38,1.49,4.97,2.65,13.3,5.81,21.41,3.27,7.69-2.41,11.03-10.88,11.8-16.02.12.33.19.68.25,1.02.74,4.4-2.31,14.27-10.03,18.17Z" style="fill:#221f1f;"></path><path d="M55.74,92.02c-7.16-3.18-10.94-8.53-14.69-14.44-4.12,2.11-9.34,2.06-13.27-.4-3.93-2.45-6.31-7.31-5.58-11.91.73-4.59,3.67-7.53,8.28-7.95,4.39-.4,7.63,2.55,10.15,6.37.97,1.47,2.4,3.95,4.08,3.44,1.36-.41,1.71-2.7,1.77-4.13.1-2.5-.36-5.14-.84-7.92,8.59-5.74,9.19-13.95,7.09-22.38.44,1.77,7.34,3.54,10.52,4.12,6.43,1.18,11.4.15,16.98-2.53,4.71-2.27,11.53.89,16.81,2.13,12.77,2.99,19.14-7.66,20.35-13.76,1.23-6.22-9.17.53-18.82-.62,7.72-3.9,10.77-13.77,10.03-18.17-.17-1-.53-2.12-1.45-2.55-1.18-.55-2.49.32-3.58,1.04-7.44,4.96-17.22,4.29-25.94,2.36C68.9,2.79,60.16-.23,51.28.66c-8.88.89-18.1,7.29-18.43,16.26h0c-3.56.63-6.24,3.2-8.41,6.11-3.78,5.05-5.66,11.5-5.18,17.8.48,6.3,2.47,13.45,6.97,17.86" style="fill:none; stroke:#27190f; stroke-miterlimit:10;"></path><path d="M99.88,50.76c-.89-.53-1.56-2.7-4.48-2.73s-3.36.89-4.54.76-1.08-1.3-.54-2.35c.54-1.05,3.24-3.14,6.44-1.84,3.21,1.3,4.13,6.76,3.11,6.16Z" style="fill:#281b12;"></path><path d="M73.57,47.3c.1.05,1.87.13,1.59-1.46s-2.25-3.62-6.89-3.33c-4.63.29-7.49,4.48-7.11,6.19.38,1.71,3.49-1.78,6.16-2.29s4.89.16,6.25.89Z" style="fill:#281b12;"></path><path d="M94.6,55.7s4.52.34,4.47,7c-.04,6.66-3.95,10.26-6.85,9.47-2.9-.8-4.27-5.4-3.99-9.13.28-3.73,2.78-7.83,6.37-7.33Z" style="fill:#fff;"></path><path d="M88.2,64.11c.31-3.71,2.8-7.75,6.36-7.25,0,0,4.47.33,4.47,6.91.03-.35.04-.71.04-1.08.04-6.66-4.47-7-4.47-7-3.59-.5-6.09,3.6-6.37,7.33-.03.35-.04.72-.04,1.08Z" style="fill:#281b12;"></path><path d="M75.19,65.57s1.27-4.85-1.31-8.87c-2.57-4.02-8.11-3.24-10.35-.42-2.24,2.82-2.34,6.52-1.81,8.96.53,2.44,2.64,5.34,7.45,5.24,4.81-.1,6.02-4.91,6.02-4.91Z" style="fill:#fff;"></path><path d="M61.52,61.44c.33-1.2.9-2.4,1.78-3.46,2.34-2.82,8.14-3.61,10.83.42.63.93,1.04,1.91,1.29,2.86-.16-1.43-.58-3.05-1.54-4.55-2.57-4.02-8.11-3.24-10.35-.42-1.25,1.57-1.83,3.41-2.01,5.15Z" style="fill:#281b12;"></path><path d="M86.74,75.27c-.09,0-1.02.83-2.95.52-1.94-.31-3.17-.8-3.17-.8,0,0,.25,1.75,1.23,2.03s3.48.22,4.52-.58.37-1.17.37-1.17Z" style="fill:#d48054;"></path><path d="M80.31,71.51s1.25-2.18,5.28-1.43,2.93,6.18.86,6.89-3.29-.14-3.14,0,3.18-.07,3.39-2.64-2.14-3.57-3.75-3.39-2.64.57-2.64.57Z" style="fill:#281b12;"></path><path d="M67.37,81.25c1.26,2.95,4.12,6.71,7.29,7.66,2.33.7,4.81.55,7.09-.37,2.36-.95,4.52-2.72,6.13-5.23,0,0,.88-.96.43-1.7-.46-.74-2.52-.48-4.86-.68-2.35-.19-8.11-1.61-11.1-3.15-3-1.55-4.64-1.74-5.54.16-.3.62-.06,1.87.56,3.31Z" style="fill:#6d2d1d;"></path><path d="M67.37,81.25c1.26,2.95,4.12,6.71,7.29,7.66,2.33.7,4.81.55,7.09-.37-1.04-1.77-3.15-4.64-6.57-6.04-2.91-1.2-5.83-1.35-7.82-1.25Z" style="fill:#d05546;"></path><path d="M73.02,67.7c-.22,1.96-2.14,3.27-4.29,2.92s-3.7-2.22-3.48-4.19c.22-1.96,2.14-3.27,4.29-2.92,2.15.35,3.7,2.22,3.48,4.19Z" style="fill:#291610;"></path><ellipse cx="67.31" cy="65.18" rx=".63" ry=".75" style="fill:#fff;"></ellipse><path d="M96.99,69.33c-.22,1.96-2.14,3.27-4.29,2.92-2.15-.35-3.7-2.22-3.48-4.19.22-1.96,2.14-3.27,4.29-2.92s3.7,2.22,3.48,4.19Z" style="fill:#291610;"></path><ellipse cx="91.28" cy="66.81" rx=".63" ry=".75" style="fill:#fff;"></ellipse><path d="M30.69,124.64c-.35.18,2.33-3.21,3.74-3.81,1.41-.6,4.84-2.09,5.72-3.4,0,0,.97-1.54,1.75.22.77,1.77.25,3.96-1.09,5.26-1.34,1.29-7.53.43-10.12,1.73Z" style="fill:url(#radial-gradient-6);"></path><path d="M30.69,124.64c-.35.18,2.33-3.21,3.74-3.81,1.41-.6,4.84-2.09,5.72-3.4,0,0,.97-1.54,1.75.22.77,1.77.25,3.96-1.09,5.26-1.34,1.29-7.53.43-10.12,1.73Z" style="fill:none; stroke:#281b12; stroke-linecap:round; stroke-linejoin:round;"></path><path d="M34.09,121.02c2.15-.49,4.52-.43,6.65-.97.72-.14,1.2-.64,1.47-1.32.23,1.52-.32,3.14-1.4,4.18-1.34,1.29-7.53.43-10.12,1.73-.33.16,1.93-2.71,3.39-3.62Z" style="fill:#f7a77f; mix-blend-mode:multiply; opacity:.5;"></path><path d="M46.74,149.31c15.05,1.29,34.78,2.35,49.62,3.28.92.08,1.38-1.26,1.37-1.26,0,0,8.65-30.78,8.77-32.84.03-1.23-1.2-2.45-1.89-3.04-17.2-1.11-34.66-2.53-51.84-3.68,1.74.89,2.3,2.08,2.24,3.23-.72.89-6.05,33.83-8.27,34.31Z" style="fill:#393536;"></path><path d="M101.27,115.24c.35.02.68.05,1.01.07-.33-.02-.66-.04-1.01-.07Z" style="fill:#393536;"></path><path d="M96.41,152.59c7.44.08,12.52,1.87,13.7-.78,1.63-3.7,6.88-28.16,7.24-29,1.08-2.64-2.93-7.75-12.73-7.35.69.59,1.93,1.81,1.89,3.04-.12,2.07-8.77,32.84-8.77,32.84,0,0-.4,1.28-1.33,1.26Z" style="fill:#ee1b20;"></path><path d="M37.07,144.5c.73,2.5,5.31,4.51,9.67,4.81,2.19-.37,7.58-33.51,8.27-34.31.06-1.15-.5-2.34-2.24-3.23-6.13-.73-10.92-.18-13.07,5.11-.82,2.91-2.63,27.61-2.63,27.61Z" style="fill:#0cc4de;"></path><path d="M37.07,144.5s.33,1.45,2.59,2.79c-2.31-.27.1-26.3,2.48-30.98,2.54-3.29,12.14-2.09,12.14-2.09,7.22.59,42.37,3.27,56.3,4.65,6.63.77,6.76,3.92,6.76,3.92,1.63-8.34-15.43-7.31-23.14-8.06-8.77-.62-17.66-1.28-26.43-1.92-6-.41-14.74-1.13-20.18-1.33-3.38.04-7.08,2.48-7.9,5.39-.82,2.91-2.63,27.61-2.63,27.61Z" style="fill:#fff; opacity:.2;"></path><path d="M46.74,149.31c15.05,1.29,34.78,2.35,49.62,3.28.92.08,1.38-1.26,1.37-1.26,0,0,8.65-30.78,8.77-32.84.03-1.23-1.2-2.45-1.89-3.04-17.2-1.11-34.66-2.53-51.84-3.68,1.74.89,2.3,2.08,2.24,3.23-.72.89-6.05,33.83-8.27,34.31Z" style="fill:none; stroke:#281b12; stroke-linecap:round; stroke-linejoin:round;"></path><path d="M96.41,152.59c7.44.08,12.52,1.87,13.7-.78,1.63-3.7,6.88-28.16,7.24-29,1.08-2.64-2.93-7.75-12.73-7.35.69.59,1.93,1.81,1.89,3.04-.12,2.07-8.77,32.84-8.77,32.84,0,0-.4,1.28-1.33,1.26Z" style="fill:none; stroke:#281b12; stroke-linecap:round; stroke-linejoin:round;"></path><path d="M37.07,144.5c.73,2.5,5.31,4.51,9.67,4.81,2.19-.37,7.58-33.51,8.27-34.31.06-1.15-.5-2.34-2.24-3.23-6.13-.73-10.92-.18-13.07,5.11-.82,2.91-2.63,27.61-2.63,27.61Z" style="fill:none; stroke:#281b12; stroke-linecap:round; stroke-linejoin:round;"></path><path d="M95.06,116.9s8.95.65,9.23.68.27-1.21-.64-1.34-9-.83-9.09-.7-.13.98.49,1.35Z" style="fill:#281b12;"></path><path d="M108.26,117.71c1.37.27,2.76.46,4.16.56.06-.21,0-.44-.14-.61s-.31-.3-.5-.4c-.82-.45-1.78-.56-2.71-.62-.17,0-.34-.02-.51.02s-.32.14-.4.29c-.08.16-.06.36.02.52s.24.27.4.36" style="fill:#281b12;"></path><path d="M48.36,113.27c-.24.03-.48.06-.72.09-1.05.14-2.1.36-3.09.74-.23.09-.49.18-.71.07-.31-.16-.29-.65-.04-.9s.61-.32.95-.38c.71-.12,1.41-.25,2.12-.37.69-.12,1.38-.24,2.07-.27.71-.03,1.41.02,2.12.1.34.04,1.02-.03.65.4-.28.33-.86.37-1.24.39-.7.02-1.4.06-2.1.14Z" style="fill:#281b12;"></path><path d="M85.79,132.14c-.41-1.79-2.23-2.84-4.07-2.34-.26.07-.51.17-.74.29-.58.31-1.23.45-1.87.38-.32-.03-.63-.12-.91-.25-.29-.13-.55-.31-.78-.52-.19-.17-.4-.32-.63-.44-1.63-.87-3.7-.25-4.63,1.39-.92,1.63-2.65,6.65-.59,7.73,1.13.6,2.68-.36,4-1.61.48-.46,1.15-.67,1.8-.6l1.72.19c.66.07,1.24.43,1.57.97.91,1.5,2.12,2.77,3.4,2.43,2.32-.61,2.14-5.85,1.74-7.62h0ZM76.19,133.17l-.89-.1-.13.88c-.04.25-.27.43-.52.4s-.43-.25-.39-.5l.13-.88-.89-.1c-.25-.03-.43-.25-.39-.5s.27-.43.52-.4l.9.1.13-.89c.04-.25.27-.43.53-.41s.43.25.39.51l-.13.89.89.1c.25.03.43.25.39.5s-.27.43-.53.4h0ZM82.7,131.43c.37.04.62.37.57.74s-.4.63-.77.59h0c-.37-.04-.62-.37-.57-.73s.4-.63.77-.59h0ZM80.98,133.91c-.37-.04-.62-.37-.57-.73s.4-.63.77-.59.62.37.57.73-.41.63-.77.59ZM82.08,135.33c-.37-.04-.62-.37-.56-.73.06-.36.4-.62.77-.58.37.04.62.37.56.73h0c-.06.36-.4.62-.77.58ZM83.6,134.19c-.37-.04-.62-.37-.56-.73s.4-.63.77-.59h0c.37.04.62.37.56.73s-.41.63-.77.59Z" style="fill:#b1b9b2;"></path><path d="M24.31,134.85c.38-.77,3.57-6.15,5.34-8.92,1.77-2.77,3.82-4.4,6.1-4.61,2.28-.21,5.34,1.36,6.65,2,1.31.64,3.36,4.31,1.06,7.04,0,0,.49,1.51-1.16,3.26,0,0,.25,1.99-.57,3.1,0,0,1.16,1.1-.88,3.44-2.05,2.35-4.86.92-4.86.92,0,0-1.04,2.68-4.48,3.93-1.62.59-4.97-.84-5.88-1.37-.91-.53-2.25-6.91-1.31-8.79Z" style="fill:url(#radial-gradient-7);"></path><path d="M24.31,134.85c.38-.77,3.57-6.15,5.34-8.92,1.77-2.77,3.82-4.4,6.1-4.61,2.28-.21,5.34,1.36,6.65,2,1.31.64,3.36,4.31,1.06,7.04,0,0,.49,1.51-1.16,3.26,0,0,.25,1.99-.57,3.1,0,0,1.16,1.1-.88,3.44-2.05,2.35-4.86.92-4.86.92,0,0-1.04,2.68-4.48,3.93-1.62.59-4.97-.84-5.88-1.37-.91-.53-2.25-6.91-1.31-8.79Z" style="fill:none; stroke:#281b12; stroke-linecap:round; stroke-linejoin:round;"></path><path d="M35.1,121.42c.71-.03,1.39.01,2.06.1.67.09,1.32.23,1.95.43.16.04.31.11.47.16.16.05.31.11.47.18l.46.19c.15.08.3.15.45.23.15.07.3.15.45.24l.45.25c.3.17.58.37.91.53-.21-.28-.43-.56-.68-.82-.27-.24-.52-.5-.82-.69-.58-.44-1.24-.74-1.93-.97-.69-.23-1.42-.32-2.14-.3-.72.02-1.44.15-2.08.48Z" style="fill:#281b12;"></path><path d="M43.45,130.36c-.12-.92-.48-1.8-.99-2.6-.51-.79-1.2-1.49-2.02-2-.84-.48-1.73-.81-2.68-.93-.94-.12-1.94-.03-2.75.43.91-.16,1.8-.07,2.64.14.42.12.84.24,1.24.42.41.16.8.36,1.16.58.18.11.36.23.54.36.17.14.34.26.5.41.34.28.62.61.91.94.56.68,1.04,1.44,1.45,2.26Z" style="fill:#281b12;"></path><path d="M36.04,128.56c.62.34,1.22.67,1.8,1.02.58.35,1.13.73,1.66,1.14.53.4,1.02.85,1.49,1.32.48.47.87,1.02,1.31,1.58-.16-.69-.43-1.37-.86-1.95-.42-.58-.91-1.12-1.49-1.55-.57-.44-1.2-.79-1.85-1.06-.66-.27-1.35-.47-2.06-.51Z" style="fill:#281b12;"></path><path d="M41.72,136.72c-.18-.69-.55-1.32-1.01-1.87-.46-.55-1.06-1.03-1.76-1.31-.17-.08-.36-.12-.54-.18-.18-.04-.37-.07-.56-.09-.35-.02-.7-.05-1.06-.03-.35,0-.71.03-1.06.09-.18.03-.35.07-.52.13-.17.06-.35.12-.48.24.17-.05.34-.04.51-.04.17,0,.34.01.51.03.34.03.67.08,1.01.12.34.05.67.09,1.01.15.15.04.31.06.46.1.15.05.3.08.44.15.58.24,1.13.59,1.63,1.03.5.44.97.93,1.42,1.47Z" style="fill:#281b12;"></path><path d="M32.6,139.46c.34.28.74.44,1.16.54.42.1.86.13,1.3.07.44-.07.88-.23,1.25-.5.37-.27.62-.67.74-1.08-.37.24-.68.45-1.03.58-.34.13-.69.22-1.06.27-.74.1-1.5.08-2.36.12Z" style="fill:#281b12;"></path><path d="M36.14,139.34c-.21.19-.37.43-.49.71-.11.27-.17.61-.04.96.12.34.42.6.71.74.3.13.6.21.9.23.61.05,1.21-.11,1.73-.36.51-.26.97-.62,1.3-1.08-.52.21-1.02.4-1.51.53-.5.13-.99.21-1.46.17-.24,0-.47-.07-.68-.13-.2-.08-.36-.18-.46-.34-.1-.16-.15-.39-.13-.64,0-.25.07-.52.14-.79Z" style="fill:#281b12;"></path><path d="M26.28,131.75s-1.59,1.65-2.95,2.08c-1.36.43-8.24-.45-11.36.68-3.11,1.13-5.63,4.07-6.5,6.35-.87,2.29-.37,3.1.11,5.38,0,0,2.64,5.64,5.13,5.43,2.23-.18,3.58-.02,8.29-3.56,3.29-2.48,4.76-4.25,8.02-4.05,2.59.16.83-9.53-.75-12.31Z" style="fill:url(#radial-gradient-8);"></path><path d="M10.72,151.68c2.23-.18,3.58-.02,8.29-3.56,3.29-2.48,4.76-4.25,8.02-4.05" style="fill:none; stroke:#281b12; stroke-linecap:round; stroke-linejoin:round;"></path><path d="M26.28,131.75s-1.59,1.65-2.95,2.08c-1.36.43-8.24-.45-11.36.68" style="fill:none; stroke:#281b12; stroke-linecap:round; stroke-linejoin:round;"></path><path d="M17.48,133.9c-1.03-.24-2.09-.28-3.14-.19-.53.04-1.05.13-1.57.25-.52.12-1.03.29-1.54.49-1,.42-1.97,1-2.81,1.79-.85.78-1.55,1.78-2.04,2.89.66-.98,1.41-1.84,2.27-2.52.43-.34.86-.66,1.33-.91.46-.26.93-.51,1.42-.69.97-.4,1.97-.66,2.99-.84,1.02-.17,2.05-.26,3.1-.26Z" style="fill:#281b12;"></path><g style="mix-blend-mode:multiply; opacity:.4;"><path d="M112.64,128.63c.43.75,1.95,1.68,3.29,2.07l1.07-4.48c-.84-.8-2.29-1.73-2.29-1.73-.81-.55-1.66-.6-2.33.52-.67,1.12-.47,2.34.26,3.63Z" style="fill:#404041;"></path><path d="M107.07,143.36c.08,1.4,3.13,1.89,4.43,2.15.27.05.57.09.87.1l2.9-12.13c-.54-.41-1.14-.62-1.59-.65-1.01-.07-4.08-.76-4.08-.76,0,0-1.9-.35-2.09,1.99-.19,2.35,1.87,3.12,1.87,3.12-.06,0-1.74.2-2.03,2-.29,1.83.73,2.04.73,2.04-1.06.2-1.1.74-1.01,2.14Z" style="fill:#404041;"></path></g><path d="M115.24,123.46s1.57,1.01,2.39,1.83,1.57,2.9.91,4.15c-.66,1.25-4.64-.54-5.37-1.84-.74-1.29-.94-2.51-.26-3.63.67-1.12,1.53-1.06,2.33-.51Z" style="fill:url(#radial-gradient-9);"></path><path d="M116.48,129.69c-1.34-.39-2.88-1.32-3.31-2.07-.74-1.29-.94-2.51-.26-3.63.67-1.12,1.53-1.06,2.33-.51,0,0,1.57,1.01,2.39,1.83s1.57,2.9.91,4.15" style="fill:none; stroke:#281b12; stroke-linecap:round; stroke-linejoin:round;"></path><path d="M110.14,131.04s3.06.69,4.07.76c1.01.07,2.82,1.05,2.81,3.09-.01,2.04-1.2,2.38-1.2,2.38,0,0,.68-.11.61,1.64-.07,1.75-1.44,2.37-1.44,2.37,0,0,.65.7.46,1.99-.19,1.29-2.13,1.47-3.42,1.21-1.29-.26-4.34-.74-4.43-2.15-.09-1.4-.05-1.94,1.01-2.14,0,0-1.02-.21-.73-2.04.29-1.83,2.03-2,2.03-2,0,0-2.06-.78-1.87-3.12.19-2.35,2.09-1.99,2.09-1.99Z" style="fill:url(#radial-gradient-10);"></path><path d="M115.55,136.8c-.95-.43-1.95-.58-2.99-.64-1.02-.06-2.05-.11-3.06-.23-.59-.37-1.59-1.24-1.45-2.91.03-.39.11-.7.22-.95.06.4.21.79.42,1.15.42.73,1.05,1.36,1.76,1.81.88.57,1.82.61,2.84.61.96,0,1.82.27,2.45,1.02.1.12.19.24.27.36-.15-.08-.3-.16-.46-.23Z" style="fill:#e29f7a;"></path><path d="M113.38,140.35c-1.08-.33-2.21-.39-3.33-.37-.6.01-1.2.03-1.79,0-.26-.24-.54-.75-.37-1.83.1-.62.36-1.04.67-1.34-.19.7.53,1.5,1.15,1.88.97.59,2.14.49,3.22.69.74.4,1.39.93,1.92,1.61-.46-.26-.95-.49-1.47-.65Z" style="fill:#e29f7a;"></path><path d="M109.05,142.67c.68.46,1.47.76,2.27.91,1.4.26,2.95.12,4.16-.66,0,.11-.01.22-.03.34-.19,1.29-2.13,1.47-3.42,1.21-1.29-.26-4.34-.74-4.43-2.15-.03-.46-.04-.82-.01-1.11.36.58.94,1.1,1.46,1.45Z" style="fill:#e29f7a;"></path><path d="M110.14,131.04s3.06.69,4.07.76c1.01.07,2.82,1.05,2.81,3.09-.01,2.04-1.2,2.38-1.2,2.38,0,0,.68-.11.61,1.64-.07,1.75-1.44,2.37-1.44,2.37,0,0,.65.7.46,1.99-.19,1.29-2.13,1.47-3.42,1.21-1.29-.26-4.34-.74-4.43-2.15-.09-1.4-.05-1.94,1.01-2.14,0,0-1.02-.21-.73-2.04.29-1.83,2.03-2,2.03-2,0,0-2.06-.78-1.87-3.12.19-2.35,2.09-1.99,2.09-1.99Z" style="fill:none; stroke:#281b12; stroke-linecap:round; stroke-linejoin:round;"></path><path d="M109.91,136.15s4.38-.15,5.91,1.12" style="fill:none; stroke:#281b12; stroke-linecap:round; stroke-linejoin:round;"></path><path d="M108.72,140.24s4.01-.77,6.27,1.04" style="fill:none; stroke:#281b12; stroke-linecap:round; stroke-linejoin:round;"></path></g></g></g></svg>