<svg xmlns="http://www.w3.org/2000/svg" xmlns:xlink="http://www.w3.org/1999/xlink" viewBox="0 0 276.2 438.52"><defs><clipPath id="clippath-2"><path d="M103.03,145.82l3.62-.05c4.05-.06,7.41,4.3,7.41,9.67v7.06c0,5.38-3.36,9.63-7.41,9.46l-3.62-.15c-3.91-.17-7.07-4.53-7.07-9.7v-6.79c0-5.17,3.15-9.45,7.07-9.5Z" style="fill:#95b048;"></path></clipPath><radialGradient id="radial-gradient" cx="-6440.05" cy="-1470.7" fx="-6440.05" fy="-1470.7" r="12.43" gradientTransform="translate(6628.67 799.83) rotate(-9.24)" gradientUnits="userSpaceOnUse"><stop offset="0" stop-color="#eeb28c"></stop><stop offset="1" stop-color="#ecbc8a"></stop></radialGradient><radialGradient id="radial-gradient-2" cx="-5679.51" cy="-3691.49" fx="-5679.51" fy="-3691.49" r="12.43" gradientTransform="translate(6677.98 1818.1) rotate(-20.79)" xlink:href="#radial-gradient"></radialGradient><radialGradient id="radial-gradient-3" cx="9117.97" cy="308.34" fx="9117.97" fy="308.34" r="7.66" gradientTransform="translate(9163.1) rotate(-180) scale(1 -1)" gradientUnits="userSpaceOnUse"><stop offset="0" stop-color="#efb38d"></stop><stop offset="1" stop-color="#eebe8c"></stop></radialGradient><radialGradient id="radial-gradient-4" cx="9137.76" cy="327.59" fx="9137.76" fy="327.59" r="6.41" xlink:href="#radial-gradient-3"></radialGradient><radialGradient id="radial-gradient-5" cx="9145.75" cy="338.94" fx="9145.75" fy="338.94" r="9.94" xlink:href="#radial-gradient-3"></radialGradient><radialGradient id="radial-gradient-6" cx="9155.38" cy="353.22" fx="9155.38" fy="353.22" r="7.42" xlink:href="#radial-gradient-3"></radialGradient><radialGradient id="radial-gradient-7" cx="-7950.11" cy="-2063.36" fx="-7950.11" fy="-2063.36" r="30.36" gradientTransform="translate(8132.51 -1118.89) rotate(-24.34)" xlink:href="#radial-gradient-3"></radialGradient><clipPath id="clippath-3"><polygon points="105.59 287.36 105.71 235.79 117.79 233.55 113.16 230 100.01 225.86 86.17 226.99 70.16 242.65 80.59 286.23 86.3 289.63 91.1 291.15 105.59 287.36" style="fill:none;"></polygon></clipPath></defs><g style="isolation:isolate;"><g id="Layer_2"><g id="Layer_1-2"><path d="M79.49,27.38v2.25s0,4.96,0,4.96v75.58s0,9.01,0,9.01v75.58s0,9.01,0,9.01v75.58s0,9.01,0,9.01v75.58s0,5.06,0,5.06v2.15c0,1,.57,2.13,1.28,2.54l112.73,64.56c.6.34,1.13.36,1.5.11h0l78.66-3.65c2.32-.7,2.53-2.22,2.53-3.63V10.23c0-1.4-.76-1.64-2.53-1.97L194.18.02h0c-.21-.03-.44-.03-.67.02l-112.73,25.25c-.71.16-1.28,1.09-1.28,2.09ZM85.98,290.81h0v76.7h0v-76.7ZM85.98,204.97h0v76.69h0,0s0,0,0,0h0s0-76.7,0-76.7ZM85.98,119.12h0v76.7h0v-76.7ZM85.98,33.27h0v76.7h0V33.27Z" style="fill:#803d3e; opacity:.11;"></path><polygon points="79.72 376.66 118.92 399.11 118.92 15.46 79.72 24.23 79.72 376.66" style="fill:#83675a;"></polygon><polygon points="121.28 237.83 80.59 204.35 129.1 213.23 121.28 237.83" style="fill:#3f312c;"></polygon><polygon points="121.28 145.1 80.59 119.42 129.1 119 121.28 145.1" style="fill:#3f312c;"></polygon><polygon points="121.28 50.75 80.59 33 129.1 23.13 121.28 50.75" style="fill:#3f312c;"></polygon><polygon points="121.28 332.18 80.59 290.77 129.1 309.1 121.28 332.18" style="fill:#472826;"></polygon><path d="M118.92,399.11l67.83,38.85c1.13.65,2.54-.17,2.54-1.47V1.68c0-1.01-.93-1.75-1.91-1.53l-68.46,15.31v383.65Z" style="fill:#3f312c;"></path><polygon points="132.12 108.4 143.79 108.05 143.79 32.64 132.12 34.72 132.12 108.4" style="fill:#b52c37;"></polygon><polygon points="79.72 281.66 119.67 276.63 179.21 284.76 179.21 317.29 79.72 281.66" style="fill:#524038;"></polygon><polygon points="79.35 195.7 119.3 190.66 179.23 198.79 179.23 212.28 79.35 195.7" style="fill:#524038;"></polygon><g id="_2"><polygon points="116.96 291.35 146.77 284.06 147.95 231.82 117.08 238.5 116.96 291.35" style="fill:#f6d56f;"></polygon><polygon points="105.59 287.36 116.88 291.32 117 238.48 105.71 235.79 105.59 287.36" style="fill:#9acb42;"></polygon><polygon points="116.96 291.35 146.77 284.06 147.78 231.86 117.08 238.5 116.96 291.35" style="fill:#4e883f; mix-blend-mode:darken;"></polygon><path d="M105.71,235.79c.31-.09,32.48-5.99,32.66-5.99s9.57,2.03,9.57,2.03l-30.95,6.66-11.29-2.69Z" style="fill:#9acb42;"></path><path d="M105.71,235.79c.31-.09,32.48-5.99,32.66-5.99s9.57,2.03,9.57,2.03l-30.95,6.66-11.29-2.69Z" style="fill:#4e883f; mix-blend-mode:darken;"></path><polygon points="108.27 236.41 140.95 230.32 147.95 231.82 117 238.48 108.27 236.41" style="fill:#f6ffff;"></polygon><polygon points="108.06 245.41 114.52 247.07 114.53 243.23 108.07 241.61 108.06 245.41" style="fill:#f6ffff;"></polygon><polygon points="132.7 296.92 163.31 289.9 164.51 235.82 132.83 242.67 132.7 296.92" style="fill:#b52c37;"></polygon><polygon points="121.04 292.82 132.62 296.89 132.75 242.65 121.16 239.89 121.04 292.82" style="fill:#ee3a54;"></polygon><path d="M121.16,239.89c.32-.09,33.34-6.15,33.53-6.15s9.82,2.08,9.82,2.08l-31.76,6.83-11.59-2.76Z" style="fill:#ee3a54;"></path><path d="M121.16,239.89c.32-.09,33.34-6.15,33.53-6.15s9.82,2.08,9.82,2.08l-31.76,6.83-11.59-2.76Z" style="fill:#b52c37;"></path><polygon points="123.79 240.52 157.34 234.28 164.51 235.82 132.75 242.65 123.79 240.52" style="fill:#f6ffff;"></polygon><polygon points="124.79 249.73 131.73 251.52 131.73 247.53 124.8 245.79 124.79 249.73" style="fill:#f6ffff;"></polygon><polygon points="154.7 304.9 193.72 293.73 195.25 227 154.87 235.74 154.7 304.9" style="fill:#f6d56f;"></polygon><polygon points="139.83 299.68 154.6 304.86 154.76 235.71 139.99 232.19 139.83 299.68" style="fill:#ffca39;"></polygon><polygon points="154.7 304.9 193.72 293.73 195.04 227.05 154.87 235.74 154.7 304.9" style="fill:#d78136;"></polygon><path d="M139.99,232.19c.41-.11,42.51-7.84,42.74-7.84s12.52,2.66,12.52,2.66l-40.49,8.71-14.77-3.52Z" style="fill:#ffca39;"></path><path d="M139.99,232.19c.41-.11,42.51-7.84,42.74-7.84s12.52,2.66,12.52,2.66l-40.49,8.71-14.77-3.52Z" style="fill:#d78136;"></path><polygon points="143.34 233 186.11 225.04 195.25 227 154.76 235.71 143.34 233" style="fill:#f6ffff;"></polygon><polygon points="143.06 244.78 151.51 246.96 151.52 241.92 143.07 239.81 143.06 244.78" style="fill:#f6ffff;"></polygon></g><g id="_4"><polygon points="150.73 406.71 179.23 422.44 179.23 347.63 150.73 335.83 150.73 406.71" style="fill:#13723d;"></polygon><polygon points="109.15 383.76 87.7 371.91 87.7 314.08 109.15 323.17 109.15 383.76" style="fill:#722e63;"></polygon><polygon points="116.08 387.58 126.86 393.53 126.86 325.95 116.08 321.49 116.08 387.58" style="fill:#67a01f;"></polygon><polygon points="102.25 379.95 109.15 383.76 109.15 326.64 102.25 323.66 102.25 379.95" style="fill:#de7926;"></polygon><polygon points="152.66 407.78 165.79 415.03 165.79 355.06 152.66 349.3 152.66 407.78" style="fill:#ffb435;"></polygon><polygon points="137.48 399.4 150.73 406.71 150.73 335.83 137.48 330.35 137.48 399.4" style="fill:#1b9c5a;"></polygon><polygon points="126.86 325.95 126.86 393.54 137.48 399.4 137.48 330.35 126.86 325.95" style="fill:#f03535;"></polygon><polygon points="134.7 329.2 134.7 397.87 137.48 399.4 137.48 330.35 134.7 329.2" style="fill:#b52c37;"></polygon><polygon points="116.08 387.58 126.86 393.53 126.86 329.1 116.08 324.57 116.08 387.58" style="fill:#26cacd;"></polygon><polygon points="90.28 373.34 97.45 377.3 97.45 326.36 90.28 323.2 90.28 373.34" style="fill:#c83572;"></polygon><polygon points="109.15 383.76 116.08 387.58 116.08 321.49 109.15 318.62 109.15 383.76" style="fill:#a3c345;"></polygon><polygon points="102.25 379.95 94.78 375.83 94.78 320.45 102.25 323.66 102.25 379.95" style="fill:#ffe574;"></polygon><polygon points="85.49 370.7 92.51 374.57 92.51 324.18 85.49 321.08 85.49 370.7" style="fill:#f14483;"></polygon><polygon points="83.27 369.47 87.7 371.91 87.7 314.08 83.27 312.21 83.27 369.47" style="fill:#9b4189;"></polygon><polygon points="115.05 321.06 179.23 347.63 179.23 338.11 115.05 312.67 115.05 321.06" style="fill:#d55825;"></polygon><polygon points="179.23 346.45 154.98 336.47 154.98 329.63 179.23 339.29 179.23 346.45" style="fill:#e3dede;"></polygon><polygon points="107.95 318.12 154.15 337.25 154.15 328.17 107.95 309.85 107.95 318.12" style="fill:#ffdf0f;"></polygon><polygon points="118.66 314.1 179.23 338.11 179.23 331.48 118.66 308.21 118.66 314.1" style="fill:#4b7214;"></polygon><polygon points="179.23 337.29 159.23 329.39 159.23 324.59 179.23 332.31 179.23 337.29" style="fill:#e3dede;"></polygon><polygon points="111.45 311.24 158.38 329.85 158.38 323.47 111.45 305.44 111.45 311.24" style="fill:#bbda3a;"></polygon><path d="M155.06,336.5l-.08-.03v-6.84l.08.03c.34,1.06.54,2.34.54,3.64,0,1.3-.2,2.41-.54,3.2Z" style="fill:#4f4843;"></path><path d="M159.3,329.42l-.08-.03v-4.96l.08.03c.34.8.55,1.75.55,2.7,0,.95-.21,1.73-.55,2.27Z" style="fill:#4f4843;"></path><path d="M142.29,397.07l3.45,1.87c1.69.91,3.06,0,3.06-2.04h0c0-2.04-1.38-4.43-3.06-5.32l-3.45-1.82c-1.65-.87-2.99.05-2.99,2.06h0c0,2.01,1.33,4.35,2.99,5.25Z" style="fill:#fff;"></path><polygon points="163.76 413.91 179.23 422.44 179.23 353.86 163.76 347.28 163.76 413.91" style="fill:#7e8ad3;"></polygon><path d="M168.33,406.52l6.15,3.28c1.85.99,3.37.07,3.37-2.05v-.14c0-2.13-1.51-4.64-3.37-5.6l-6.15-3.19c-1.8-.93-3.25,0-3.25,2.07v.13c0,2.08,1.45,4.53,3.25,5.49Z" style="fill:#33cbfa;"></path></g><path d="M126.17,184.63l52.68,5.16,1.07.1,36.11,3.54c.62.06,1.13.65,1.13,1.31,0,.66-.51,1.15-1.13,1.09l-36.11-3.69v13.21s36.11,4.57,36.11,4.57c.62.08,1.13.68,1.13,1.34,0,.66-.51,1.14-1.13,1.05l-36.11-4.72-1.07-.14-52.68-6.88c-1.76-.23-3.19-2.23-3.19-4.44v-7.8c0-2.21,1.43-3.88,3.19-3.71Z" style="fill:#ff5251;"></path><g style="opacity:.5;"><path d="M124.5,197.79l52.3,6.56,1.06.13,2.06.26v.62s36.11,4.57,36.11,4.57c.62.08,1.13.68,1.13,1.34,0,.66-.51,1.14-1.13,1.05l-36.11-4.72-1.07-.14-52.68-6.88c-1.48-.19-2.72-1.63-3.08-3.4.43.32.91.54,1.41.6Z" style="fill:#932d24;"></path></g><path d="M124.5,187.04l52.3,5.4,1.06.11,2.06.21v-.62s36.11,3.69,36.11,3.69c.62.06,1.13-.43,1.13-1.09,0-.66-.51-1.25-1.13-1.31l-36.11-3.54-1.07-.1-52.68-5.16c-1.48-.14-2.72,1.01-3.08,2.69.43-.23.91-.33,1.41-.28Z" style="fill:#ff5251;"></path><path d="M173.96,202.37v-8.62c0-2.45,1.75-4.28,3.9-4.07l.99.1,1.07.1,36.11,3.54c.62.06,1.13.65,1.13,1.31,0,.66-.51,1.15-1.13,1.09l-36.11-3.69v13.21s36.11,4.57,36.11,4.57c.62.08,1.13.68,1.13,1.34,0,.66-.51,1.14-1.13,1.05l-36.11-4.72-1.07-.14-.99-.13c-2.15-.28-3.9-2.51-3.9-4.96Z" style="fill:#c43649;"></path><path d="M178.85,192.03l37.02,3.78c-.68,2.06-1.06,4.4-1.06,6.92,0,2.52.38,4.95,1.06,7.17l-37.02-4.68c-1.44-.18-2.62-1.66-2.62-3.29v-7.21c0-1.63,1.18-2.84,2.62-2.69Z" style="fill:#ddd7d5;"></path><path d="M178.85,192.03l37.02,3.78c-.12.36-.23.74-.33,1.12l-36.28-3.78c-1.45-.15-2.62,1.06-2.62,2.69v7.21c0,.21.02.41.05.61-.29-.51-.46-1.11-.46-1.73v-7.21c0-1.63,1.18-2.84,2.62-2.69Z" style="fill:#b8bfc5;"></path><path d="M176.23,201.93v-7.21c0-.9.36-1.67.93-2.16.47,1.85.73,3.87.73,5.95,0,2.08-.26,4.04-.73,5.79-.57-.61-.93-1.47-.93-2.37Z" style="fill:#472826;"></path><path d="M158.98,133.22c0-1.58-1.08-2.84-2.4-2.82s-2.37,1.3-2.37,2.87c0,1.56,1.06,2.82,2.37,2.82s2.4-1.29,2.4-2.87Z" style="fill:#78797c;"></path><path d="M175.07,157.43c0-9.65-6.72-17.5-14.78-17.52-7.82-.02-13.98,7.37-13.98,16.5,0,9.13,6.17,16.96,13.98,17.49s14.78-6.82,14.78-16.47Z" style="fill:#78797c; stroke:#78797c; stroke-miterlimit:10; stroke-width:4.55px;"></path><path d="M164.05,140.51c0-4.91-3.37-8.85-7.46-8.79s-7.25,3.96-7.25,8.74,3.22,8.71,7.25,8.79c4.09.09,7.46-3.83,7.46-8.74Z" style="fill:#78797c;"></path><line x1="149.58" y1="166.1" x2="143.51" y2="173.1" style="fill:none; stroke:#898b8e; stroke-linecap:round; stroke-miterlimit:10; stroke-width:4.55px;"></line><line x1="163.05" y1="166.83" x2="169.6" y2="174.9" style="fill:none; stroke:#898b8e; stroke-linecap:round; stroke-miterlimit:10; stroke-width:4.55px;"></line><path d="M171.15,157.29c0-9.58-6.62-17.37-14.56-17.39-7.71-.02-13.79,7.32-13.79,16.39s6.08,16.84,13.79,17.36,14.56-6.78,14.56-16.36Z" style="fill:#fff; stroke:#afb1b5; stroke-miterlimit:10; stroke-width:4.55px;"></path><line x1="150.89" y1="160.71" x2="156.59" y2="156.78" style="fill:none; stroke:#b92f20; stroke-linecap:round; stroke-miterlimit:10; stroke-width:3.03px;"></line><line x1="153.23" y1="145.99" x2="156.59" y2="156.78" style="fill:none; stroke:#b92f20; stroke-linecap:round; stroke-miterlimit:10; stroke-width:1.52px;"></line><path d="M158.08,156.83c0-.98-.67-1.8-1.5-1.83s-1.49.75-1.49,1.72c0,.98.66,1.8,1.49,1.83s1.5-.74,1.5-1.72Z" style="fill:#ed453a;"></path><path d="M126.64,172.47l52.79,3.85,1.07.08,36.19,2.64c.62.05,1.13.5,1.13,1s-.51.88-1.13.83l-36.19-2.75v10.1s36.19,3.43,36.19,3.43c.62.06,1.13.52,1.13,1.03,0,.51-.51.87-1.13.81l-36.19-3.54-1.07-.11-52.79-5.17c-1.77-.17-3.2-1.7-3.2-3.39v-5.96c0-1.69,1.43-2.97,3.2-2.84Z" style="fill:#ffac49;"></path><g style="opacity:.5;"><path d="M124.97,182.54l52.41,4.92,1.07.1,2.06.19v.47s36.19,3.43,36.19,3.43c.62.06,1.13.52,1.13,1.03,0,.51-.51.87-1.13.81l-36.19-3.54-1.07-.11-52.79-5.17c-1.48-.15-2.73-1.24-3.09-2.59.43.25.91.41,1.42.46Z" style="fill:#e9883a;"></path></g><g style="opacity:.5;"><path d="M124.97,174.32l52.41,4.03,1.07.08,2.06.16v-.47l36.19,2.75c.62.05,1.13-.33,1.13-.83s-.51-.96-1.13-1l-36.19-2.64-1.07-.08-52.79-3.85c-1.48-.11-2.73.78-3.09,2.06.43-.17.91-.26,1.42-.22Z" style="fill:#ffdf0f;"></path></g><path d="M174.53,185.96v-6.59c0-1.87,1.75-3.27,3.91-3.12l.99.07,1.07.08,36.19,2.64c.62.05,1.13.5,1.13,1s-.51.88-1.13.83l-36.19-2.75v10.1s36.19,3.43,36.19,3.43c.62.06,1.13.52,1.13,1.03,0,.51-.51.87-1.13.81l-36.19-3.54-1.07-.11-.99-.1c-2.16-.21-3.91-1.91-3.91-3.79Z" style="fill:#da6528;"></path><path d="M179.43,178.04l37.1,2.82c-.68,1.58-1.06,3.37-1.06,5.3,0,1.93.38,3.79,1.06,5.48l-37.1-3.52c-1.45-.14-2.62-1.27-2.62-2.51v-5.51c0-1.24,1.18-2.17,2.62-2.06Z" style="fill:#ddd7d5;"></path><path d="M179.43,178.04l37.1,2.82c-.12.28-.23.56-.33.86l-36.36-2.82c-1.45-.11-2.63.81-2.63,2.06v5.52c0,.16.02.31.06.47-.29-.39-.46-.85-.46-1.32v-5.51c0-1.24,1.18-2.17,2.62-2.06Z" style="fill:#b8bfc5;"></path><path d="M176.81,185.62v-5.51c0-.69.36-1.28.93-1.65.47,1.42.73,2.96.73,4.55,0,1.59-.26,3.09-.73,4.43-.57-.47-.93-1.12-.93-1.81Z" style="fill:#472826;"></path><path d="M103.03,145.82l3.62-.05c4.05-.06,7.41,4.3,7.41,9.67v7.06c0,5.38-3.36,9.63-7.41,9.46l-3.62-.15c-3.91-.17-7.07-4.53-7.07-9.7v-6.79c0-5.17,3.15-9.45,7.07-9.5Z" style="fill:#95b048;"></path><g style="clip-path:url(#clippath-2);"><path d="M110.73,150.74c0-.58-.36-1.05-.8-1.05s-.8.47-.8,1.05c0,.58.36,1.05.8,1.05s.8-.47.8-1.05Z" style="fill:#f3ebe9;"></path><path d="M105.87,150.76c0-.57-.35-1.04-.79-1.04s-.78.47-.78,1.04c0,.57.35,1.04.78,1.04s.79-.47.79-1.04Z" style="fill:#f3ebe9;"></path><path d="M101.1,150.77c0-.57-.35-1.03-.77-1.03s-.77.46-.77,1.03c0,.57.34,1.03.77,1.03s.77-.46.77-1.03Z" style="fill:#f3ebe9;"></path><path d="M110.73,155.27c0-.58-.36-1.05-.8-1.05s-.8.47-.8,1.04c0,.58.36,1.05.8,1.05s.8-.46.8-1.04Z" style="fill:#f3ebe9;"></path><path d="M105.87,155.24c0-.57-.35-1.04-.79-1.04s-.78.46-.78,1.03.35,1.04.78,1.04.79-.46.79-1.03Z" style="fill:#f3ebe9;"></path><path d="M101.1,155.21c0-.57-.35-1.03-.77-1.03s-.77.46-.77,1.02c0,.57.34,1.03.77,1.03s.77-.45.77-1.02Z" style="fill:#f3ebe9;"></path><path d="M110.73,160.28c0-.58-.36-1.06-.8-1.06s-.8.46-.8,1.04.36,1.06.8,1.06.8-.46.8-1.04Z" style="fill:#f3ebe9;"></path><path d="M105.87,160.19c0-.57-.35-1.05-.79-1.05s-.78.45-.78,1.03c0,.57.35,1.04.78,1.05s.79-.45.79-1.03Z" style="fill:#f3ebe9;"></path><path d="M101.1,160.11c0-.57-.35-1.04-.77-1.04s-.77.45-.77,1.02.34,1.03.77,1.04.77-.45.77-1.02Z" style="fill:#f3ebe9;"></path></g><path d="M100.37,167.9l3.58.12c4,.14,7.32-4.12,7.32-9.47v-7.02c0-1.59-.3-3.08-.82-4.4,2.15,1.69,3.61,4.78,3.61,8.31v7.06c0,5.38-3.36,9.63-7.41,9.46l-3.62-.15c-2.76-.12-5.13-2.32-6.3-5.41,1.06.9,2.3,1.45,3.64,1.5Z" style="fill:#759e2d;"></path><path d="M99.11,195.51l11.58,1.09c5.25.5,9.59-4.71,9.59-11.64v-20.56s-29.93-.76-29.93-.76v19.28c0,6.5,3.88,12.13,8.77,12.59Z" style="fill:#8f419d;"></path><path d="M101.3,191.99c5.04.44,9.21-4.71,9.21-11.49v-16.34s7.28.18,7.28.18v20.45c0,6.89-4.3,12.07-9.49,11.58l-9.18-.87c-2.53-.24-4.78-1.86-6.37-4.26l8.55.74Z" style="fill:#6b3263;"></path><line x1="96.62" y1="174.89" x2="96.62" y2="184.02" style="fill:none; stroke:#d7b5ff; stroke-linecap:round; stroke-miterlimit:10; stroke-width:3.7px;"></line><line x1="96.62" y1="163.81" x2="96.62" y2="174.89" style="fill:none; stroke:#d7b5ff; stroke-miterlimit:10; stroke-width:3.7px;"></line><g id="_1"><polygon points="128.14 108.52 104.23 109.24 104.23 44.38 128.14 40.34 128.14 108.52" style="fill:#759e2d;"></polygon><polygon points="179.23 106.99 149.5 107.88 149.5 31.62 179.23 26.3 179.23 106.99" style="fill:#e9ac3a;"></polygon><polygon points="179.23 106.99 170.96 107.24 170.96 38.08 179.23 36.76 179.23 106.99" style="fill:#7d3f72;"></polygon><polygon points="170.96 107.24 179.23 106.99 179.23 45.16 170.96 46.35 170.96 107.24" style="fill:#f45450;"></polygon><polygon points="151.42 107.83 160.93 107.54 160.93 44.73 151.42 46.15 151.42 107.83" style="fill:#ee5789;"></polygon><polygon points="135.96 108.29 142.17 108.1 142.17 39.71 135.96 40.74 135.96 108.29" style="fill:#26cacd;"></polygon><polygon points="125.52 108.6 133.26 108.37 133.26 34.52 125.52 35.9 125.52 108.6" style="fill:#e63e5a;"></polygon><polygon points="116.72 108.86 125.52 108.6 125.52 50.03 116.72 51.35 116.72 108.86" style="fill:#b2b8be;"></polygon><polygon points="89.92 109.67 99.18 109.39 99.18 48.89 89.92 50.38 89.92 109.67" style="fill:#e47b2c;"></polygon><polygon points="95 109.51 104.23 109.24 104.23 44.38 95 45.93 95 109.51" style="fill:#91c443;"></polygon><polygon points="116.72 108.86 101.86 109.31 101.86 53.58 116.72 51.35 116.72 108.86" style="fill:#fff;"></polygon><polygon points="83.71 109.85 92.72 109.58 92.72 49.93 83.71 51.38 83.71 109.85" style="fill:#ffc743;"></polygon><polygon points="103.04 100.58 115.47 99.98 115.47 97.83 103.04 98.49 103.04 100.58" style="fill:#ffa90e;"></polygon><polygon points="103.04 104.75 115.47 104.26 115.47 102.12 103.04 102.67 103.04 104.75" style="fill:#ffa90e;"></polygon><polygon points="103.04 62.07 115.47 60.44 115.47 58.29 103.04 59.98 103.04 62.07" style="fill:#ffa90e;"></polygon><polygon points="158.94 107.6 170.96 107.24 170.96 38.08 158.94 39.99 158.94 107.6" style="fill:#9a548d;"></polygon></g><path d="M188.75,438.36l78.66-3.65c2.32-.7,2.53-2.22,2.53-3.63V10.23c0-1.4-.76-1.64-2.53-1.97L187.93.02l.83,438.33Z" style="fill:#83675a;"></path><path d="M73.23,34.59l116.06-23.59V1.87c0-1.26-.92-2.08-2.04-1.82l-112.73,25.25c-.71.16-1.28,1.09-1.28,2.09v7.21Z" style="fill:#927869;"></path><polygon points="179.23 6.89 179.23 428.73 189.29 434.4 189.29 4.73 179.23 6.89" style="fill:#927869;"></polygon><polygon points="73.23 29.64 73.23 368.99 79.72 372.65 79.72 28.24 73.23 29.64" style="fill:#927869;"></polygon><polygon points="73.23 119.18 189.29 118.1 189.29 106.69 73.23 110.17 73.23 119.18" style="fill:#927869;"></polygon><polygon points="73.23 203.77 189.29 225.21 189.29 213.79 73.23 194.75 73.23 203.77" style="fill:#927869;"></polygon><polygon points="73.23 288.35 189.29 332.31 189.29 320.9 73.23 279.34 73.23 288.35" style="fill:#927869;"></polygon><path d="M74.52,373.68l112.73,64.56c1.13.65,2.04.15,2.04-1.11v-9.13s-116.06-64.07-116.06-64.07v7.21c0,1,.57,2.13,1.28,2.54Z" style="fill:#927869;"></path><polygon points="141.25 108.13 149.5 107.88 149.5 31.62 141.25 33.09 141.25 108.13" style="fill:#ffd648;"></polygon><path d="M161.71,47.22l6.41-.93c.57-.08,1.03-.68,1.03-1.34h0c0-.66-.46-1.12-1.03-1.04l-6.41.96c-.55.08-1,.67-1,1.32h0c0,.65.45,1.11,1,1.03Z" style="fill:#fff;"></path><path d="M161.71,103.45l6.41-.24c.57-.02,1.03-.57,1.03-1.23h0c0-.66-.46-1.17-1.03-1.15l-6.41.27c-.55.02-1,.57-1,1.21h0c0,.65.45,1.16,1,1.13Z" style="fill:#fff;"></path><ellipse cx="47.94" cy="405.71" rx="31.57" ry="5.03" style="fill:#0c2949; opacity:.1;"></ellipse><path d="M82.98,302.56c1.57-4.34,1.94-9.23,2.34-13.74-2.05-1.35-4.66-1.8-7.06-1.25-.03,1.32-.23,2.53-.53,3.65,2.16,1.75,3.68,4.25,4.49,6.92.43,1.43.67,2.91.75,4.41Z" style="fill:#e2a07a;"></path><path d="M82.98,302.56c1.57-4.34,1.94-9.23,2.34-13.74-2.05-1.35-4.66-1.8-7.06-1.25-.03,1.32-.23,2.53-.53,3.65" style="fill:none; stroke:#27190f; stroke-linecap:round; stroke-miterlimit:10;"></path><path d="M81.77,290.9c-1.2.33-2.64-.41-3.06-1.59.96.7,1.94,1.21,3.06,1.59h0Z" style="fill:#27190f;"></path><path d="M78.94,288.13c-.2-.29-.42-.57-.65-.84-.17-.2-2.41-3.01-2.55-4.57-.14-1.56.41-3.39-.16-5.03-.34-.99-.65-1.66-.92-2.14-.24-.42-.02-.94.43-.99.67-.07,1.57.04,2.18.96,1.09,1.64.33,2.58,1.12,3.41.26.28.61.51.97.71.55.3,1.09.03,1.22-.58.45-2.18,2.09-6.83,2.9-8.18,1-1.65,2.06-2.65,2.92-2.25.86.4.96,1.21.47,2.02-.49.82-2.42,3.16-2.55,6.4,0,0,4.02-5.33,5.52-6.73.88-.81,1.43-.41,1.67.25.25.67.09,1.4-.36,1.89-.99,1.08-3.8,4.38-4.13,6.4,0,0,1.95-1.11,2.67-1.78.72-.67,2.83-2.13,3.77-2.47.87-.31,1.96.87.99,1.88-.96,1.01-3.34,2.14-4.08,3.8,0,0-1.26,1.71.85,1.38.75-.12,2.03-.41,3.18-.55.99-.12,2.52.39,1.14,1.34-1.48,1.03-3.73,1.07-4.51,1.91-.66.71-1.36,1.4-1.93,2.18-.64.88-1.17,1.84-1.86,2.69-.52.63-1.14,1.2-1.87,1.56" style="fill:#efb48c;"></path><path d="M78.94,288.13c-.2-.29-.42-.57-.65-.84-.17-.2-2.41-3.01-2.55-4.57-.14-1.56.41-3.39-.16-5.03-.34-.99-.65-1.66-.92-2.14-.24-.42-.02-.94.43-.99.67-.07,1.57.04,2.18.96,1.09,1.64.33,2.58,1.12,3.41.26.28.61.51.97.71.55.3,1.09.03,1.22-.58.45-2.18,2.09-6.83,2.9-8.18,1-1.65,2.06-2.65,2.92-2.25.86.4.96,1.21.47,2.02-.49.82-2.42,3.16-2.55,6.4,0,0,4.02-5.33,5.52-6.73.88-.81,1.43-.41,1.67.25.25.67.09,1.4-.36,1.89-.99,1.08-3.8,4.38-4.13,6.4,0,0,1.95-1.11,2.67-1.78.72-.67,2.83-2.13,3.77-2.47.87-.31,1.96.87.99,1.88-.96,1.01-3.34,2.14-4.08,3.8,0,0-1.26,1.71.85,1.38.75-.12,2.03-.41,3.18-.55.99-.12,2.52.39,1.14,1.34-1.48,1.03-3.73,1.07-4.51,1.91-.66.71-1.36,1.4-1.93,2.18-.64.88-1.17,1.84-1.86,2.69-.52.63-1.14,1.2-1.87,1.56" style="fill:none; stroke:#281b12; stroke-linecap:round; stroke-linejoin:round;"></path><path d="M82.47,277.91c.04-.12,2.01.51,4.1,1.94,2.1,1.41,3.42,3,3.32,3.08-.11.1-1.55-1.3-3.6-2.67-2.04-1.39-3.88-2.21-3.82-2.34Z" style="fill:#231f20;"></path><path d="M83.3,287.85c-.08-.01-.03-.47-.06-1.2,0-.36-.07-.79-.14-1.26-.09-.47-.22-.98-.4-1.5-.37-1.04-.88-1.91-1.29-2.51-.42-.6-.72-.94-.67-1,.04-.04.44.22.94.78.5.57,1.1,1.46,1.48,2.56.19.55.32,1.09.38,1.59.06.5.08.96.04,1.34-.06.76-.23,1.21-.29,1.19Z" style="fill:#231f20;"></path><path d="M84.82,286.67c-.07-.12.68-.64,1.48-1.42.8-.77,1.35-1.5,1.47-1.43.11.06-.27.96-1.13,1.78-.85.83-1.76,1.19-1.82,1.07Z" style="fill:#231f20;"></path><path d="M51.13,319.57c-1.34-1.38-1.57-3.49-.79-5.25.68-1.53,1.61-2.99,2.75-3.93,2.03-1.67,13.53-6.26,14.7-7.46,0,0,3.41-1.14,3.49-1.47.07-.33,5.04-8.67,5.74-11.82,0,0,2.78,2.55,7.14,2.61.91.01,1.89-.08,2.93-.34,0,0-2.73,11.7-5.22,15.18-1.62,2.27-6,5.98-9.16,7.41-1.69.76-12.93,8.46-12.93,8.46,0,0-5.51-.17-8.65-3.39Z" style="fill:#fcc156;"></path><path d="M51.13,319.57c-1.34-1.38-1.57-3.49-.79-5.25.68-1.53,1.61-2.99,2.75-3.93,2.03-1.67,13.53-6.26,14.7-7.46,0,0,3.41-1.14,3.49-1.47.07-.33,5.04-8.67,5.74-11.82,0,0,2.78,2.55,7.14,2.61.91.01,1.89-.08,2.93-.34,0,0-2.73,11.7-5.22,15.18-1.62,2.27-6,5.98-9.16,7.41-1.69.76-12.93,8.46-12.93,8.46,0,0-5.51-.17-8.65-3.39Z" style="fill:none; stroke:#27190f; stroke-linecap:round; stroke-miterlimit:10;"></path><path d="M70.85,302.2s0,.06.01.12c0-.1,0-.14-.01-.12Z" style="fill:#e0ae4c; mix-blend-mode:multiply; opacity:.2;"></path><path d="M71.35,312.27c.71-1.01,1.34-2.94.54-4.62-.99-2.08-1.03-4.97-1.03-5.32.19.6,1.73,3.22,2.27,3.98.59.84,6.63.28,7.42-.64.8-.93,3.61-13.14,3.61-13.42.91.01,1.89-.09,2.93-.34,0,0-2.73,11.7-5.22,15.18-1.63,2.27-6,5.98-9.16,7.41l-12.93,8.46s-1.73-6.49-2.19-7.65c-.46-1.16-1.8-3.29-1.8-3.29,0,0,3.65,3.55,5.03,4.05,1.39.5,5.04-.58,7.28-1.57,2.24-.99,3.26-2.23,3.26-2.23Z" style="fill:#e0ae4c; mix-blend-mode:multiply; opacity:.2;"></path><path d="M72.19,303.62c-.43,1.14.12,2.59,1.18,3.16-.53-1.03-.91-2.04-1.18-3.16h0Z" style="fill:#27190f;"></path><path d="M60.39,306.87c2.57-.11,5.04.38,7.38,1.44-1.98-1.67-4.92-2.24-7.38-1.44h0Z" style="fill:#27190f;"></path><path d="M27.02,388.26c.28-.45.98-.61,1.6-.42-.12,5.59-3.51,2.22-1.6.42Z" style="fill:#125163;"></path><path d="M26.26,391.86c1.4,2.99,5.03,3.62,7.96,3.89.44-.05.88-.27,1.1-.66.21-3.68,1.15-7.09,2.43-10.34,1.18-2.99,2.65-5.86,4.12-8.69,1.24-2.38,2.48-4.73,3.55-7.12-3.88-2.42-9.88-1.54-12.85,2.15-.4.47-.75.96-1.06,1.47-1.99,3.3-2.25,7.34-2.8,11.26-.4,2.85-.96,5.64-2.46,8.03Z" style="fill:url(#radial-gradient);"></path><path d="M26.26,391.86c1.4,2.99,5.03,3.62,7.96,3.89.44-.05.88-.27,1.1-.66.21-3.68,1.15-7.09,2.43-10.34,1.18-2.99,2.65-5.86,4.12-8.69,1.24-2.38,2.48-4.73,3.55-7.12-3.88-2.42-9.88-1.54-12.85,2.15-.4.47-.75.96-1.06,1.47-1.99,3.3-2.25,7.34-2.8,11.26-.4,2.85-.96,5.64-2.46,8.03Z" style="fill:none; stroke:#281b12; stroke-linecap:round; stroke-linejoin:round;"></path><path d="M31.51,372.57c3.14,1.9,6.7,3.11,10.36,3.49,1.24-2.38,2.48-4.73,3.55-7.12-3.88-2.42-9.88-1.54-12.85,2.15-.4.47-.75.96-1.06,1.47Z" style="fill:#e29f7a;"></path><path d="M26.26,391.86c1.4,2.99,5.03,3.62,7.96,3.89.44-.05.88-.27,1.1-.66.21-3.68,1.15-7.09,2.43-10.34-2.93.74-6.15.39-9.03-.92-.4,2.85-.96,5.64-2.46,8.03Z" style="fill:#ecf0f2;"></path><path d="M26.26,391.86c1.4,2.99,5.03,3.62,7.96,3.89.44-.05.88-.27,1.1-.66.21-3.68,1.15-7.09,2.43-10.34-2.93.74-6.15.39-9.03-.92-.4,2.85-.96,5.64-2.46,8.03Z" style="fill:none; stroke:#281b12; stroke-linecap:round; stroke-linejoin:round;"></path><path d="M44.47,401.86c1.97,1.42,1.34,4.04-2.58,5.92-4.18,1.86-9,.67-12.45-2.18-.97-.95-2.03-1.8-2.82-2.91-.94-1.31-2.48-3.05-3.34-3.67-1.32-1.07-.5-3.91,1.11-4.46,2.05,5.61,8.3,10.45,14.4,10.21,2.16.07,4.62-1.16,5.68-2.91Z" style="fill:#cfe0eb;"></path><path d="M44.47,401.86c1.97,1.42,1.34,4.04-2.58,5.92-4.18,1.86-9,.67-12.45-2.18-.97-.95-2.03-1.8-2.82-2.91-.94-1.31-2.48-3.05-3.34-3.67-1.32-1.07-.5-3.91,1.11-4.46,2.05,5.61,8.3,10.45,14.4,10.21,2.16.07,4.62-1.16,5.68-2.91Z" style="fill:none; stroke:#281b12; stroke-linecap:round; stroke-linejoin:round;"></path><path d="M44.5,403.56c-2.66,2.76-6.89,3.75-10.45,2.36-3.63-1.39-6-4.64-8.22-7.68,1.46,2.48,3.13,4.95,5.49,6.69,4.05,3.11,9.94,2.64,13.18-1.37h0Z" style="fill:#fff;"></path><path d="M40.58,398.54c1.42,2.87-3.25,3.94-5.19,2.92-2.16-1.85-6.57-9.62-4.2-10.76.92-.48,2.17-.74,3.32-.72,1.6.25,1.83.55,1.95,1.71.62,3,2.78,4.99,4.13,6.86Z" style="fill:#4e3817;"></path><path d="M40.58,398.54c1.42,2.87-3.25,3.94-5.19,2.92-2.16-1.85-6.57-9.62-4.2-10.76.92-.48,2.17-.74,3.32-.72,1.6.25,1.83.55,1.95,1.71.62,3,2.78,4.99,4.13,6.86Z" style="fill:none; stroke:#281b12; stroke-linecap:round; stroke-linejoin:round;"></path><path d="M31.01,404.21c.34.29.7.54,1.07.77,0,0,.01,0,.02,0,5.61,3.45,13.69.24,12.47-3.08-.05-.15-.12-.3-.19-.44-.79-1.59-2.52-2.69-4.97-3.65,1.24.52.94,2.29-.12,2.86-1.3.73-2.9.56-4.24-.09-.37-.18-.72-.39-1.04-.63-1.17.54-2.09,1.61-2.6,2.8-.2.47-.34.96-.4,1.45Z" style="fill:#724e1e;"></path><path d="M31.01,404.21c.34.29.7.54,1.07.77,0,0,.01,0,.02,0,5.61,3.45,13.69.24,12.47-3.08-.05-.15-.12-.3-.19-.44-.79-1.59-2.52-2.69-4.97-3.65,1.24.52.94,2.29-.12,2.86-1.3.73-2.9.56-4.24-.09-.37-.18-.72-.39-1.04-.63-1.17.54-2.09,1.61-2.6,2.8-.2.47-.34.96-.4,1.45Z" style="fill:none; stroke:#281b12; stroke-linecap:round; stroke-linejoin:round;"></path><path d="M24.65,397.01c2.87,2.77,4.35,5.49,6.36,7.19.34.29.69.55,1.07.77,0,0,.01,0,.02,0,.08.05.16.09.24.14.06-.58.17-1.08.34-1.53.39-1.05,1.07-1.82,2.03-2.69.11-.1.23-.2.34-.31.22-.21.4-.45.44-.75.06-.48-.27-.9-.57-1.28-1.28-1.59-2.27-3.41-2.92-5.35-.05-.15-.07-.3-.08-.46-.02-.34-.12-.51-.42-.66-.88-.21-1.58.12-2.37.01-1.95-.3-2.37-2.78-1.49-4.28-1.43.28-2.76,2.71-3.42,4.99-.13.46-.24.91-.31,1.34-.19,1.09-.33,1.81.75,2.85Z" style="fill:#724e1e;"></path><path d="M24.65,397.01c2.87,2.77,4.35,5.49,6.36,7.19.34.29.69.55,1.07.77,0,0,.01,0,.02,0,.08.05.16.09.24.14.06-.58.17-1.08.34-1.53.39-1.05,1.07-1.82,2.03-2.69.11-.1.23-.2.34-.31.22-.21.4-.45.44-.75.06-.48-.27-.9-.57-1.28-1.28-1.59-2.27-3.41-2.92-5.35-.05-.15-.07-.3-.08-.46-.02-.34-.12-.51-.42-.66-.88-.21-1.58.12-2.37.01-1.95-.3-2.37-2.78-1.49-4.28-1.43.28-2.76,2.71-3.42,4.99-.13.46-.24.91-.31,1.34-.19,1.09-.33,1.81.75,2.85Z" style="fill:none; stroke:#281b12; stroke-linecap:round; stroke-linejoin:round;"></path><path d="M41.78,398.94c-1.96-1.67-3.48-3.82-4.32-6.11-.1-.26-.31-.45-.56-.58-.6-.31-1.62-.45-1.5.02,1.19,2.22,2.01,3.99,3.49,5.87.68.85,1.65.28,2.89.8Z" style="fill:#724e1e;"></path><path d="M41.78,398.94c-1.96-1.67-3.48-3.82-4.32-6.11-.1-.26-.31-.45-.56-.58-.6-.31-1.62-.45-1.5.02,1.19,2.22,2.01,3.99,3.49,5.87.68.85,1.65.28,2.89.8Z" style="fill:none; stroke:#281b12; stroke-linecap:round; stroke-linejoin:round;"></path><path d="M24.65,397.01c2.87,2.77,4.35,5.49,6.36,7.19.34.29.69.55,1.07.77,0,0,.01,0,.02,0,5.61,3.45,13.69.24,12.47-3.08-.05-.15-.12-.3-.19-.44,0,.85-.43,1.71-1.07,2.29-.93.84-2.21,1.16-3.45,1.29-2.47.24-5.02-.25-7.18-1.46-.37-.21-.73-.44-1.08-.69-.06-.05-.13-.09-.19-.14-1.42-1.08-2.57-2.48-3.71-3.87-.99-1.21-1.99-2.43-2.69-3.82-.36-.71-.64-1.47-.79-2.25-.13.46-.24.91-.31,1.34-.19,1.09-.33,1.81.75,2.85Z" style="fill:#cfe0eb; mix-blend-mode:multiply;"></path><path d="M41,399.89c-.31.98-1.14,1.65-2.08,1.94-.97.29-1.99.19-3,.08.47.24.98.4,1.51.47.53.07,1.09.05,1.62-.11,1.03-.31,2-1.25,1.95-2.38h0Z" style="fill:#281b12;"></path><path d="M34.19,399.79c-1.42.64-2.5,2.14-2.66,3.69.35-.57.85-1.38,1.24-1.91.44-.62.93-1.18,1.42-1.78h0Z" style="fill:#281b12;"></path><path d="M32.59,399.92c-.54-.94-1.08-1.86-1.56-2.82-.42-.83-.96-2.07-1.34-2.93.2,2.15,1.29,4.32,2.89,5.76h0Z" style="fill:#281b12;"></path><path d="M29.86,393.17c-1.14-.2-2.09-.49-2.83-1.43-.23-.28-.44-.59-.67-.91.23,1.74,1.79,2.85,3.5,2.34h0Z" style="fill:#281b12;"></path><path d="M26.51,392.24c.06.84.09,1.66.01,2.49-.07.83-.25,1.63-.47,2.44,1.07-1.35,1.26-3.41.45-4.93h0Z" style="fill:#281b12;"></path><circle cx="32.82" cy="397.63" r=".65" style="fill:#281b12;"></circle><circle cx="31.83" cy="396.08" r=".65" style="fill:#281b12;"></circle><circle cx="33.97" cy="399.15" r=".65" style="fill:#281b12;"></circle><ellipse cx="39.28" cy="397.46" rx=".62" ry=".6" transform="translate(-63.28 11.46) rotate(-9.24)" style="fill:#281b12;"></ellipse><ellipse cx="37.97" cy="395.66" rx=".62" ry=".6" transform="translate(-63.01 11.22) rotate(-9.24)" style="fill:#281b12;"></ellipse><ellipse cx="37.02" cy="393.94" rx=".62" ry=".6" transform="translate(-62.75 11.05) rotate(-9.24)" style="fill:#281b12;"></ellipse><path d="M33.44,399.12c.01.11.06.22.14.31.12.12.29.17.45.15.1-.02.2-.06.28-.14,1.37-1.35,3.04-1.88,4.82-1.53.28.06.55-.13.61-.41,0-.01,0-.02,0-.04.03-.27-.14-.52-.41-.57-2.13-.42-4.12.2-5.75,1.8-.12.12-.17.27-.15.43Z" style="fill:#cfe0eb;"></path><path d="M33.44,399.12c.01.11.06.22.14.31.12.12.29.17.45.15.1-.02.2-.06.28-.14,1.37-1.35,3.04-1.88,4.82-1.53.28.06.55-.13.61-.41,0-.01,0-.02,0-.04-.01.01-.02.02-.04.03-.17.13-.4.16-.62.14-.21-.02-.42-.09-.63-.14-.72-.17-1.48-.09-2.17.16-.69.25-1.32.68-1.85,1.19-.12.12-.24.24-.39.32-.15.08-.33.12-.48.05-.05-.02-.09-.05-.13-.09Z" style="fill:#cfe0eb; mix-blend-mode:multiply;"></path><path d="M32.31,397.64c.02.16.11.31.27.39.1.06.22.07.33.06.15-.02.29-.12.37-.26.9-1.65,3.05-2.19,4.52-1.74.27.08.56-.07.65-.35.01-.04.02-.09.02-.13.01-.23-.14-.45-.37-.52-1.9-.58-4.56.1-5.73,2.23-.05.1-.07.21-.06.31Z" style="fill:#cfe0eb;"></path><path d="M32.31,397.64c.02.16.11.31.27.39.1.06.22.07.33.06.15-.02.29-.12.37-.26.9-1.65,3.05-2.19,4.52-1.74.27.08.56-.07.65-.35.01-.04.02-.09.02-.13-.09.11-.23.16-.38.17-.17,0-.33-.04-.5-.08-1.61-.38-3.42.24-4.45,1.53-.1.13-.19.26-.32.35s-.31.15-.45.08c-.02,0-.03-.01-.05-.03Z" style="fill:#cfe0eb; mix-blend-mode:multiply;"></path><path d="M31.57,396.46c.11.06.23.08.35.07.15-.02.28-.11.36-.25.9-1.52,2.42-2.14,4.66-1.89.28.03.54-.17.57-.46,0,0,0,0,0,0,.03-.28-.18-.53-.46-.57-2.65-.29-4.55.51-5.67,2.39-.05.08-.07.17-.07.26,0,.18.09.35.25.45Z" style="fill:#cfe0eb;"></path><path d="M31.57,396.46c.11.06.23.08.35.07.15-.02.28-.11.36-.25.9-1.52,2.42-2.14,4.66-1.89.28.03.54-.17.57-.46,0,0,0,0,0,0-.14.1-.31.16-.48.18-.32.03-.63-.05-.95-.09-.71-.09-1.45.05-2.1.35-.65.3-1.23.76-1.7,1.31-.11.13-.22.26-.36.35s-.32.14-.48.07c-.05-.02-.09-.05-.12-.09,0,.18.09.35.25.45Z" style="fill:#cfe0eb; mix-blend-mode:multiply;"></path><path d="M37.74,391.06c-.09.09-3.1,1.75-6.7,1.09-3.6-.66-5.05-5.24-5.05-5.24l1.3-10.84,14.08,4.1-3.62,10.9Z" style="fill:#fcc156;"></path><path d="M37.74,391.06c-.09.09-3.1,1.75-6.7,1.09-3.6-.66-5.05-5.24-5.05-5.24l1.3-10.84,14.08,4.1-3.62,10.9Z" style="fill:none; stroke:#27190f; stroke-linecap:round; stroke-miterlimit:10;"></path><path d="M50.47,390.84c.19-.5.84-.79,1.48-.73,1,5.5-3,2.88-1.48.73Z" style="fill:#125163;"></path><path d="M50.45,394.52c1.97,2.65,5.65,2.54,8.58,2.22.42-.14.81-.44.94-.87-.53-3.65-.29-7.17.31-10.62.55-3.17,1.42-6.27,2.3-9.34.74-2.58,1.48-5.13,2.05-7.68-4.29-1.59-9.99.47-12.16,4.68-.3.54-.54,1.09-.74,1.65-1.29,3.63-.73,7.64-.49,11.59.18,2.87.19,5.72-.8,8.36Z" style="fill:url(#radial-gradient-2);"></path><path d="M50.45,394.52c1.97,2.65,5.65,2.54,8.58,2.22.42-.14.81-.44.94-.87-.53-3.65-.29-7.17.31-10.62.55-3.17,1.42-6.27,2.3-9.34.74-2.58,1.48-5.13,2.05-7.68-4.29-1.59-9.99.47-12.16,4.68-.3.54-.54,1.09-.74,1.65-1.29,3.63-.73,7.64-.49,11.59.18,2.87.19,5.72-.8,8.36Z" style="fill:none; stroke:#281b12; stroke-linecap:round; stroke-linejoin:round;"></path><path d="M51.73,374.57c3.46,1.24,7.19,1.71,10.85,1.35.74-2.58,1.48-5.13,2.05-7.68-4.29-1.59-9.99.47-12.16,4.68-.3.54-.54,1.09-.74,1.65Z" style="fill:#e29f7a;"></path><path d="M50.45,394.52c1.97,2.65,5.65,2.54,8.58,2.22.42-.14.81-.44.94-.87-.53-3.65-.29-7.17.31-10.62-2.72,1.31-5.94,1.62-9.03.9.18,2.87.19,5.72-.8,8.36Z" style="fill:#ecf0f2;"></path><path d="M50.45,394.52c1.97,2.65,5.65,2.54,8.58,2.22.42-.14.81-.44.94-.87-.53-3.65-.29-7.17.31-10.62-2.72,1.31-5.94,1.62-9.03.9.18,2.87.19,5.72-.8,8.36Z" style="fill:none; stroke:#281b12; stroke-linecap:round; stroke-linejoin:round;"></path><path d="M70.29,400.67c2.21.99,2.13,3.69-1.34,6.31-3.73,2.66-8.68,2.46-12.63.35-1.15-.74-2.48-2.4-3.48-3.33-1.18-1.1-2.91-1.45-3.87-1.88-1.51-.78-1.27-3.73.19-4.59,3.13,5.09,10.23,8.58,16.15,7.12,2.13-.36,4.3-2.07,4.99-3.99Z" style="fill:#cfe0eb;"></path><path d="M70.29,400.67c2.21.99,2.13,3.69-1.34,6.31-3.73,2.66-8.68,2.46-12.63.35-1.15-.74-2.48-2.4-3.48-3.33-1.18-1.1-2.91-1.45-3.87-1.88-1.51-.78-1.27-3.73.19-4.59,3.13,5.09,10.23,8.58,16.15,7.12,2.13-.36,4.3-2.07,4.99-3.99Z" style="fill:none; stroke:#281b12; stroke-linecap:round; stroke-linejoin:round;"></path><path d="M65.81,398.2c1.96,2.53-2.4,4.51-4.5,3.9-2.48-1.38-8.36-8.11-6.27-9.7.8-.66,1.98-1.16,3.11-1.37,1.62-.08,1.9.17,2.25,1.29,1.21,2.82,3.73,4.34,5.42,5.89Z" style="fill:#4e3817;"></path><path d="M65.81,398.2c1.96,2.53-2.4,4.51-4.5,3.9-2.48-1.38-8.36-8.11-6.27-9.7.8-.66,1.98-1.16,3.11-1.37,1.62-.08,1.9.17,2.25,1.29,1.21,2.82,3.73,4.34,5.42,5.89Z" style="fill:none; stroke:#281b12; stroke-linecap:round; stroke-linejoin:round;"></path><path d="M57.57,405.67c.39.21.8.39,1.2.54,0,0,.01,0,.02,0,6.19,2.25,13.46-2.51,11.6-5.51-.08-.14-.17-.27-.27-.39-1.09-1.4-3.01-2.13-5.6-2.58,1.31.26,1.38,2.05.45,2.82-1.12.98-2.73,1.13-4.17.77-.4-.1-.79-.24-1.15-.41-1.04.77-1.72,1.99-1.98,3.26-.1.5-.14,1.01-.1,1.5Z" style="fill:#724e1e;"></path><path d="M57.57,405.67c.39.21.8.39,1.2.54,0,0,.01,0,.02,0,6.19,2.25,13.46-2.51,11.6-5.51-.08-.14-.17-.27-.27-.39-1.09-1.4-3.01-2.13-5.6-2.58,1.31.26,1.38,2.05.45,2.82-1.12.98-2.73,1.13-4.17.77-.4-.1-.79-.24-1.15-.41-1.04.77-1.72,1.99-1.98,3.26-.1.5-.14,1.01-.1,1.5Z" style="fill:none; stroke:#281b12; stroke-linecap:round; stroke-linejoin:round;"></path><path d="M49.9,399.89c3.77,1.53,5.63,4.12,7.67,5.77.35.28.79.4,1.2.54,0,0,.01,0,.02,0,.09.03.17.06.26.08-.06-.58-.05-1.09.03-1.56.17-1.11.69-2,1.45-3.04.09-.12.18-.24.27-.37.17-.25.3-.52.28-.82-.03-.48-.45-.83-.82-1.14-1.57-1.3-2.91-2.89-3.93-4.66-.08-.13-.13-.28-.17-.43-.09-.33-.22-.48-.54-.57-.91-.03-1.53.43-2.31.49-1.97.1-2.88-2.25-2.32-3.9-1.34.56-2.16,3.21-2.36,5.58-.04.48-.05.94-.04,1.38.03,1.11-.08,2.08,1.3,2.64Z" style="fill:#724e1e;"></path><path d="M49.9,399.89c3.71,1.51,5.61,4.07,7.67,5.77.34.28.79.4,1.2.54,0,0,.01,0,.02,0,.09.03.17.06.26.08-.06-.58-.05-1.09.03-1.56.17-1.11.69-2,1.45-3.04.09-.12.18-.24.27-.37.17-.25.3-.52.28-.82-.03-.48-.45-.83-.82-1.14-1.57-1.3-2.91-2.89-3.93-4.66-.08-.13-.13-.28-.17-.43-.09-.33-.22-.48-.54-.57-.91-.03-1.53.43-2.31.49-1.97.1-2.88-2.25-2.32-3.9-1.34.56-2.16,3.21-2.36,5.58-.04.48-.05.94-.04,1.38.03,1.11-.08,2.08,1.3,2.64Z" style="fill:none; stroke:#281b12; stroke-linecap:round; stroke-linejoin:round;"></path><path d="M67.08,398.35c-2.26-1.25-4.18-3.05-5.46-5.12-.15-.24-.4-.38-.67-.46-.65-.19-1.68-.12-1.46.32,1.62,1.94,2.76,3.51,4.6,5.05.84.7,1.67-.06,2.99.21Z" style="fill:#724e1e;"></path><path d="M67.08,398.35c-2.26-1.25-4.18-3.05-5.46-5.12-.15-.24-.4-.38-.67-.46-.65-.19-1.68-.12-1.46.32,1.62,1.94,2.76,3.51,4.6,5.05.84.7,1.67-.06,2.99.21Z" style="fill:none; stroke:#281b12; stroke-linecap:round; stroke-linejoin:round;"></path><path d="M49.9,399.89c3.83,1.59,5.68,4.14,7.67,5.77.34.28.79.4,1.2.54,0,0,.01,0,.02,0,6.19,2.25,13.46-2.51,11.6-5.51-.08-.14-.17-.27-.27-.39.16.83-.07,1.76-.59,2.46-.74,1-1.93,1.58-3.13,1.95-2.37.73-4.97.76-7.32,0-.41-.13-.81-.28-1.2-.46-.07-.03-.14-.07-.21-.1-1.61-.77-3.02-1.92-4.41-3.04-1.21-.99-2.43-1.98-3.41-3.21-.49-.62-.92-1.31-1.22-2.05-.04.48-.05.94-.04,1.38.03,1.11-.08,2.07,1.3,2.64Z" style="fill:#cfe0eb; mix-blend-mode:multiply;"></path><path d="M66.5,399.44c-.11,1.02-.79,1.84-1.65,2.32-.89.48-1.92.58-2.93.68.51.14,1.04.2,1.58.16.54-.04,1.08-.17,1.57-.43.95-.51,1.71-1.63,1.43-2.72h0Z" style="fill:#281b12;"></path><path d="M59.81,400.7c-1.26.91-2.02,2.6-1.87,4.15.23-.63.55-1.52.83-2.12.31-.7.67-1.34,1.04-2.03h0Z" style="fill:#281b12;"></path><path d="M58.26,401.15c-.71-.82-1.43-1.6-2.09-2.45-.58-.73-1.35-1.83-1.9-2.61.62,2.06,2.13,3.97,3.99,5.06h0Z" style="fill:#281b12;"></path><path d="M54.23,395.08c-1.16.04-2.15-.06-3.06-.84-.29-.23-.55-.49-.84-.76.57,1.66,2.32,2.43,3.9,1.59h0Z" style="fill:#281b12;"></path><path d="M50.77,394.84c.23.81.42,1.6.51,2.44.1.83.08,1.64.03,2.49.78-1.54.55-3.59-.54-4.92h0Z" style="fill:#281b12;"></path><circle cx="58.04" cy="398.86" r=".65" style="fill:#281b12;"></circle><circle cx="56.75" cy="397.54" r=".65" style="fill:#281b12;"></circle><circle cx="59.46" cy="400.11" r=".65" style="fill:#281b12;"></circle><ellipse cx="64.33" cy="397.4" rx=".62" ry=".6" transform="translate(-136.86 48.7) rotate(-20.79)" style="fill:#281b12;"></ellipse><ellipse cx="62.69" cy="395.89" rx=".62" ry=".6" transform="translate(-136.43 48.02) rotate(-20.79)" style="fill:#281b12;"></ellipse><ellipse cx="61.41" cy="394.4" rx=".62" ry=".6" transform="translate(-135.98 47.47) rotate(-20.79)" style="fill:#281b12;"></ellipse><path d="M58.94,400.19c.03.11.1.2.2.27.15.1.32.11.47.05.1-.04.18-.1.25-.2,1.07-1.6,2.6-2.45,4.42-2.46.29,0,.52-.24.51-.52,0-.01,0-.02,0-.04-.02-.27-.25-.48-.52-.48-2.17.02-4,1.02-5.27,2.92-.09.14-.11.3-.06.45Z" style="fill:#cfe0eb;"></path><path d="M58.94,400.19c.03.11.1.2.2.27.15.1.32.11.47.05.1-.04.18-.1.25-.2,1.07-1.6,2.6-2.45,4.42-2.46.29,0,.52-.24.51-.52,0-.01,0-.02,0-.04,0,.01-.02.03-.03.04-.14.16-.36.24-.58.26-.21.02-.43,0-.65-.01-.74-.02-1.47.2-2.1.59-.63.39-1.15.93-1.57,1.53-.1.14-.19.28-.31.39-.13.11-.3.18-.46.15-.05-.01-.1-.03-.14-.07Z" style="fill:#cfe0eb; mix-blend-mode:multiply;"></path><path d="M57.54,398.97c.05.15.17.28.34.33.11.04.23.03.34-.01.14-.05.26-.17.31-.33.55-1.8,2.55-2.75,4.08-2.61.29.03.54-.18.56-.47,0-.04,0-.09,0-.13-.04-.23-.22-.41-.46-.43-1.98-.19-4.45,1.01-5.16,3.34-.03.11-.03.22,0,.32Z" style="fill:#cfe0eb;"></path><path d="M57.54,398.97c.05.15.17.28.34.33.11.04.23.03.34-.01.14-.05.26-.17.31-.33.55-1.8,2.55-2.75,4.08-2.61.29.03.54-.18.56-.47,0-.04,0-.09,0-.13-.06.12-.2.2-.33.24-.16.04-.34.03-.51.02-1.66-.05-3.3.92-4.06,2.39-.07.14-.14.29-.25.41s-.27.2-.43.17c-.02,0-.03,0-.05-.02Z" style="fill:#cfe0eb; mix-blend-mode:multiply;"></path><path d="M56.57,397.96c.12.04.24.04.35,0,.14-.05.25-.16.31-.32.58-1.67,1.95-2.58,4.19-2.79.28-.03.49-.28.47-.56,0,0,0,0,0,0-.03-.28-.28-.49-.56-.46-2.65.25-4.36,1.42-5.07,3.48-.03.09-.04.18-.02.27.03.18.16.33.34.39Z" style="fill:#cfe0eb;"></path><path d="M56.57,397.96c.12.04.24.04.35,0,.14-.05.25-.16.31-.32.58-1.67,1.95-2.58,4.19-2.79.28-.03.49-.28.47-.56,0,0,0,0,0,0-.11.13-.27.22-.44.27-.3.1-.63.08-.95.1-.72.06-1.41.34-1.99.77-.58.43-1.05.99-1.41,1.62-.08.15-.16.3-.28.42s-.29.2-.46.17c-.05-.01-.1-.03-.14-.07.03.18.16.33.34.39Z" style="fill:#cfe0eb; mix-blend-mode:multiply;"></path><path d="M61.53,391.44c-.07.1-2.69,2.34-6.35,2.41-3.66.07-6-4.12-6-4.12l-.9-10.88,14.61,1.19-1.36,11.4Z" style="fill:#fcc156;"></path><path d="M61.53,391.44c-.07.1-2.69,2.34-6.35,2.41-3.66.07-6-4.12-6-4.12l-.9-10.88,14.61,1.19-1.36,11.4Z" style="fill:none; stroke:#27190f; stroke-linecap:round; stroke-miterlimit:10;"></path><path d="M36.53,307.71c2.09,8.58,16.53,10.57,17.2.17-1.72.02-2.91-.46-3.66-1.34-.8-.93-1.1-2.3-1.03-3.96-2.51-1.2-5.73-1.08-8.43.2.48,1.71.23,2.95-.56,3.75-.75.76-1.97,1.15-3.52,1.18Z" style="fill:url(#radial-gradient-3);"></path><path d="M40.05,306.53c3.28.66,6.72.66,10.02,0-.8-.93-1.1-2.3-1.03-3.96-2.51-1.2-5.73-1.08-8.43.2.48,1.71.23,2.95-.56,3.75Z" style="fill:#e2a07a;"></path><path d="M29.75,333.77c10.24-.12,20.45-1.93,30.02-5.23-.03-6.85-1.49-13.64-4.17-19.92-1.09-.63-2.25-1.12-3.47-1.49-.38-.12-.78-.22-1.17-.32.77,1.96-.5,4.27-2.36,5.09-3.91,1.62-8.09-1.61-9.91-4.96-3.68.57-7.37,1.97-9.95,4.74,1.95,7.23,2.26,14.59,1,22.09Z" style="fill:#fcc156;"></path><path d="M29.75,333.77c10.24-.12,20.45-1.93,30.02-5.23-.03-6.85-1.49-13.64-4.17-19.92-1.09-.63-2.25-1.12-3.47-1.49-.38-.12-.78-.22-1.17-.32.77,1.96-.5,4.27-2.36,5.09-3.91,1.62-8.09-1.61-9.91-4.96-3.68.57-7.37,1.97-9.95,4.74,1.95,7.23,2.26,14.59,1,22.09Z" style="fill:#fcc156;"></path><path d="M55.6,308.61c-1.09-.63-2.25-1.12-3.47-1.49-.38-.12-.78-.22-1.17-.32.77,1.96-.5,4.27-2.36,5.09-3.91,1.62-8.09-1.61-9.91-4.96-3.68.57-7.37,1.97-9.95,4.74,1.95,7.23,2.26,14.59,1,22.09,10.24-.12,20.45-1.93,30.02-5.23" style="fill:none; stroke:#27190f; stroke-linecap:round; stroke-miterlimit:10;"></path><path d="M18.89,328.74c.02.2.05.4.11.6,0,0,0,0,0,0,.5,1.98,2.48,3.9,4.5,4.45.62.17,1.24.21,1.82.09.04-.05.07-.1.1-.16,3.12-4.64,4.31-5.76,6.38-8.5-.3-3.28-5.69-4.93-8.57-3.43-1.18,2.35-2.66,4.72-4.34,6.93,0,0,0,0,0,0Z" style="fill:url(#radial-gradient-4);"></path><path d="M8.99,346.52c.5,2.2,2.99,3.88,5.48,3.71,1.09-6.54,8.54-9.94,10.68-15.64.11-.29.2-.58.28-.87.25-.92.35-1.91.26-2.98-.12-.91-1.89-4.16-5.57-2.76-.42.17-.83.42-1.22.76-.05.05-.1.09-.16.14-3.4,3.08-5.79,11.85-9.75,17.65Z" style="fill:url(#radial-gradient-5);"></path><path d="M8.99,346.52c.5,2.2,2.99,3.88,5.48,3.71,1.09-6.54,8.54-9.94,10.68-15.64.11-.29.2-.58.28-.87.25-.92.35-1.91.26-2.98-.12-.91-1.89-4.16-5.57-2.76-.42.17-.83.42-1.22.76-.05.05-.1.09-.16.14-3.4,3.08-5.79,11.85-9.75,17.65Z" style="fill:none; stroke:#27190f; stroke-linecap:round; stroke-miterlimit:10;"></path><path d="M18.74,328.87c.08.16.17.31.26.47,0,0,0,0,0,0,.51.88,1.15,1.7,1.88,2.44.78.78,1.66,1.46,2.62,2.01.53.31,1.08.58,1.65.81.11-.29.2-.58.28-.87,3.12-4.64,4.31-5.76,6.38-8.5-.3-3.28-5.69-4.93-8.57-3.43-1.18,2.35-2.66,4.72-4.34,6.93-.05.05-.1.09-.16.14Z" style="fill:#e2a07a;"></path><path d="M13.96,348.11c2.28,2.97-.47,6.64-1.4,9.77-.09.29-.43.41-.68.24-1.95-1.34.18-3.01-.93-4.16-.15-.15-.36-.2-.56-.13-1.77.64-3.63,2.3-3.58,4.4,0,.37-.02.74-.13,1.09-.36,1.24-1.22,2.37-1.73.96-.21-.5-.09-1.07-.38-1.62-1.23-.75-2.45-1.86-2.45-3.57-1.53-.89-1.82-3.35-1.25-4.92.34-.8.98-1.46,1.63-1.77.48-.38.97-.75,1.48-1.1,1.19-.82,2.53-1.4,3.95-1.66,2.96-.53,4.58.54,6.03,2.47Z" style="fill:url(#radial-gradient-6);"></path><path d="M14.65,349.41c.85,2.7-1.29,5.78-2.09,8.47-.09.29-.43.41-.68.24-1.95-1.34.18-3.01-.93-4.16-.15-.15-.36-.2-.56-.13-1.77.64-3.63,2.3-3.58,4.4,0,.37-.02.74-.13,1.09-.36,1.24-1.22,2.37-1.73.96-.21-.5-.09-1.07-.38-1.62-1.23-.75-2.45-1.86-2.45-3.57-1.53-.89-1.82-3.35-1.25-4.92.34-.8.98-1.46,1.63-1.77.48-.38.97-.75,1.48-1.1,1.19-.82,2.53-1.4,3.95-1.66.63-.11,1.19-.15,1.71-.13" style="fill:none; stroke:#27190f; stroke-linecap:round; stroke-miterlimit:10;"></path><path d="M5.52,352.55c-1.52,1.5-1.94,4.07-.97,5.97-.27-2.06.06-4.1.97-5.97h0Z" style="fill:#27190f;"></path><path d="M3.38,350.99c-1.06.91-1.54,2.53-1.15,3.88.17-.67.31-1.31.5-1.96.19-.65.43-1.26.65-1.92h0Z" style="fill:#27190f;"></path><path d="M2.41,349.55c-.76.45-1.22,1.29-1.37,2.14-.04.29-.05.58,0,.87.14-.26.25-.52.36-.77.3-.71.71-1.53,1-2.25h0Z" style="fill:#27190f;"></path><path d="M13,346.83c-.56-1.11-2.07-1.69-3.23-1.22,1.16.24,2.2.63,3.23,1.22h0Z" style="fill:#27190f;"></path><path d="M14.94,375.13c3.4,7.84,8.4,7.6,14.43,8.92,1.97.7,3.73,2.05,5.65,2.92,12.64,4.5,27.37-4.08,38.48-11.07.44-.32.63-.97.45-1.56-3.4-10.9-6.56-21.99-9.46-33.01-1.8-6.85-3.52-13.71-5.16-20.59-.35-1.82-1.26-4.23-3.07-3.99-5.41-.16-10.84.46-16.19,1.63-2.23.05-4.2,4.96-5.53,7.31-1.82,3.15-4.34,2.58-4.76,7.18-2.84,14.98-9.62,28.37-14.85,42.26Z" style="fill:#fcc156;"></path><path d="M72.52,372.14c.32,1.32.62,2.77.47,4.1.17-.12.34-.23.5-.35.44-.31.63-.97.45-1.56-3.43-11-6.56-21.99-9.46-33.01,1.67,10.52,5.5,20.49,8.04,30.81Z" style="fill:#e0ae4c; mix-blend-mode:multiply; opacity:.2;"></path><path d="M14.94,375.13c1.73,3.83,4.25,6.39,7.16,7.41,2.37.83,4.9.67,7.27,1.51,1.97.69,3.73,2.05,5.65,2.92,3.68,1.67,7.74,1.5,11.63.83.83-.14,1.66-.3,2.48-.49-2.78-.5-5.49-1.55-7.97-3.17-4-2.62-7.36-6.78-9.21-11.83-2.19-5.99-2.19-12.82-1.74-19.36.64-9.24,2.1-18.4,4.34-27.27-.43.72-.92,1.37-1.51,1.91-.74.66-1.62,1.11-2.21,1.96-.64.91-.83,2.15-1.04,3.32-1.6,9.06-4.96,17.5-8.28,25.83-2.19,5.48-4.38,10.96-6.56,16.43Z" style="fill:#e0ae4c; mix-blend-mode:multiply; opacity:.2;"></path><path d="M62.77,355.39c1.92,8.05,3.19,16.34,3.79,24.7.08-.04.15-.09.23-.13.99-.55,1.98-1.11,2.96-1.69-2.86-7.35-4.93-15.13-6.98-22.88Z" style="fill:#e0ae4c; mix-blend-mode:multiply; opacity:.2;"></path><path d="M40.64,348.19c2.08,4.12,5.02,7.66,8.3,10.37,2.57,2.08,5.45,3.76,8.44,4.69-3.28-1.51-6.42-3.57-9.24-6.1-2.82-2.54-5.35-5.59-7.5-8.96h0Z" style="fill:#27190f;"></path><path d="M59.99,368.23c-3.69,1.49-7.55,2.45-11.43,2.8-3.87.34-7.81.06-11.64-.77,3.28,1.14,6.78,1.57,10.2,1.45,4.39-.19,8.85-1.3,12.86-3.48h0Z" style="fill:#27190f;"></path><path d="M29.79,332.86c-2.84,14.98-9.62,28.37-14.85,42.26,3.4,7.84,8.4,7.6,14.43,8.92,1.97.7,3.73,2.05,5.65,2.92,12.64,4.5,27.37-4.08,38.48-11.07.44-.32.63-.97.45-1.56-3.4-10.9-6.56-21.99-9.46-33.01-1.8-6.85-3.52-13.71-5.16-20.59" style="fill:none; stroke:#27190f; stroke-linecap:round; stroke-miterlimit:10;"></path><path d="M19.55,324.97c2.2-4.34,5.83-12.32,10.56-14.07,4.74-.77,6.36,4.97,5.74,8.62-.63,4.31-2.87,8.25-4.8,12.08,0,0-5.79,9.22-7.07,11.4-1.29,2.19-7.14,8.06-7.14,8.06,0,0-1.64-6.19-7.07-6.94l9.78-19.14Z" style="fill:#fcc156;"></path><path d="M35.85,319.52c-.63,4.31-2.87,8.25-4.8,12.08,0,0-5.79,9.22-7.07,11.4-1.29,2.19-7.14,8.06-7.14,8.06,0,0-1.64-6.19-7.07-6.94l9.78-19.14c2.2-4.34,5.83-12.32,10.56-14.07" style="fill:none; stroke:#27190f; stroke-linecap:round; stroke-miterlimit:10;"></path><path d="M25.37,331.05c.95.35,1.92.62,2.83.84.98.26,2.19.46,2.85-.3,2.43-4.82,6.42-11.76,4.34-17.1.65,3.63-.11,7.5-2.12,10.59-1.84,2.82-4.69,4.95-7.9,5.97Z" style="fill:#e0ae4c; mix-blend-mode:multiply; opacity:.2;"></path><path d="M35.16,313.54c.97,2.89.74,6-.1,8.88-.84,2.92-2.29,5.59-3.59,8.33,1.24-1.92,2.4-3.91,3.29-6.02,1.46-3.49,2.1-7.68.4-11.19h0Z" style="fill:#27190f;"></path><path d="M37.63,316.92c-.42.95-.83,1.81-1.29,2.74.98-.45,1.56-1.69,1.29-2.74h0Z" style="fill:#27190f;"></path><path d="M52.33,309c-1.2,4.09-5.85,5.25-9.41,3.45-1.15-.56-2.19-1.37-3.1-2.32,1.51,2.18,4.1,3.72,6.81,3.63,2.73-.05,5.36-1.96,5.71-4.76h0Z" style="fill:#27190f;"></path><path d="M28.89,329.85c-2.1-1.22-3.73-3.15-4.56-5.44-.27-.76-.46-1.55-.56-2.37-.1.82-.02,1.67.2,2.48.64,2.41,2.51,4.58,4.92,5.32h0Z" style="fill:#27190f;"></path><path d="M33.94,311.78c-.5-1.05-1.93-1.59-3-1.13,1.07.25,2.03.6,3,1.13h0Z" style="fill:#27190f;"></path><path d="M55.33,312s-.27,1.37-1.42,4.33c-1.15,2.95-2.8,6.32-13.46,1.72-10.66-4.61-16.33-.55-16.33-.55,1.42-4.03,7.81-4.33,13.9-2.72,2.57.68,4.07,1.2,8.83,3.07,6.06,2.37,6.42-5.3,8.18-7.24.01.53.29,1.39.29,1.39Z" style="fill:#e0ae4c; mix-blend-mode:multiply; opacity:.2;"></path><path d="M58.23,301.07h0c-.2.1-.39.19-.59.29,0,0,0,0,0,0-2.89,1.36-6.1,2.28-9.39,2.55-17.31,1.45-23.61-5.81-24.44-7.35-1.45.76-2.82,1.16-4.1,1.27-8.18.76-12.27-10.17-7.44-13.78.47-.35,1.02-.63,1.65-.82-2.22-26.49,11.78-34.83,24.39-35.89,1.39-.12,3.59-.09,6.17.26.1.01.19.03.29.04,9.13,1.3,22.76,6.64,22.63,23.87-.04,6.12,1.91,7.13,2.64,13.69.65,5.81-4.51,12.24-11.81,15.87Z" style="fill:url(#radial-gradient-7);"></path><path d="M58.23,301.07h0c-.2.1-.39.19-.59.29,10.21-6.88,12.39-14.11,10.17-20.38-2.22-6.27-1.51-8.57-1.92-13.48-1.3-15.44-21.49-19.68-21.49-19.68,0,0,.13-.06.37-.18,9.13,1.3,22.76,6.64,22.63,23.87-.04,6.12,1.91,7.13,2.64,13.69.65,5.81-4.51,12.24-11.81,15.87Z" style="fill:#e2a07a;"></path><path d="M58.22,301.07c-3.04,1.52-6.46,2.55-9.99,2.84-17.31,1.45-23.61-5.81-24.44-7.35-1.45.76-2.82,1.16-4.1,1.27-2.35-1.97-4.13-3.77-5.01-5.03-1.23-1.75-2.1-4.88-2.42-8.75.47-.35,1.02-.63,1.65-.82-2.22-26.49,11.78-34.83,24.39-35.89,1.39-.12,3.59-.09,6.17.26-.05.14-.08.22-.08.22,0,0-6.17,1.2-11.89,6.36-5.72,5.16-12.21,16.48-7.1,34.82,4.95,17.78,32.51,12.15,32.82,12.07Z" style="fill:#e2a07a;"></path><path d="M23.28,264.81s23.44-21.86,40.35-6.53c0,0-6.96-10.72-18.71-10.48-16.24.34-21.64,17-21.64,17Z" style="fill:#fcc156; stroke:#27190f; stroke-linecap:round; stroke-linejoin:round; stroke-width:.96px;"></path><path d="M23.28,264.81s23.44-21.86,40.35-6.53c0,0-6.96-10.72-18.71-10.48-16.24.34-21.64,17-21.64,17Z" style="fill:#517f63; stroke:#27190f; stroke-linecap:round; stroke-linejoin:round; stroke-width:1.1px;"></path><path d="M70.03,285.19c.92,8.24-9.82,17.71-21.8,18.72-17.31,1.45-23.61-5.81-24.44-7.35-11.68,6.07-18.15-10.8-9.88-13.33-2.22-26.49,11.79-34.83,24.39-35.89,6.28-.53,29.25,1.82,29.09,24.17-.04,6.12,1.91,7.13,2.64,13.69Z" style="fill:none; stroke:#27190f; stroke-miterlimit:10;"></path><path d="M69.37,267.36c-1.25,7.43.29,13.73.29,13.73,0,0,2.5,8.35-3.63,14.15,2.8-3.12,4.37-6.69,4-10.05-.73-6.55-2.68-7.57-2.64-13.69.02-2.91-.35-5.49-1.03-7.76,0,0,0,0,0-.01-3.05-10.2-12.25-14.31-19.6-15.76h-.01s-.06-.01-.1-.02c-.05-.01-.1-.02-.15-.03-5.28-.93-22.13,3.1-24.79,24.6-.7,5.67-.54,10.43.34,14.47,1.35,6.17,4.38,10.65,8.59,14.07.58.47,1.19.93,1.82,1.36h0c2.05.69,4.51,1.25,7.45,1.51,0,0,0,0,0,0,2.43.22,5.19.24,8.3-.02.58-.05,1.15-.12,1.72-.2.12-.02.23-.04.34-.06,2.12-.35,4.19-.96,6.13-1.76-1.11.58-2.11.99-3.91,1.94-.59.31-.2.55.51.93.5.26,1.15.57,1.73,1.02,1.07.81.51,1.53.06,1.89-.9.71,2.76-.01.06,2.96-1.75,1.93-2.12,9.61-8.18,7.24-4.76-1.86-6.26-2.39-8.83-3.07-4.07-1.07-7.39-1.38-10.22-.32-1.41.53-3.21,1.7-3.68,3.04.15-.48,1.61-6.08,4.19-6.91,0,0-1.21-1.56.51-2.61,1.28-.78,3.29-.71,3.29-.71,0,0-4.63-.94-9.47-2.87-9.67-3.87-23.04-13.78-21.91-42.57.86-21.86,19.08-28.45,24.46-30.13,5.37-1.68,22.5-2.1,33.12,6.54,7.22,5.87,8.91,14.39,8.91,14.39l.06.76s3.5,6.53,2.26,13.96Z" style="fill:#85b943;"></path><path d="M69.92,263.29c.03,2.37-.3,4.72-.6,7.06-.27,2.31-.37,4.63-.13,6.96.14,1.51.3,3.04.29,4.56,0,0-.01,0-.02.01-1.36-5.49-2.93-6.68-1.99-14.71,1.27-10.81-4.03-17.89-4.03-17.89.05-.08.09-.15.14-.22.01,0,.03.01.04.02.42.35.86.74,1.29,1.16,3.5,3.47,5.02,8.19,5.01,13.05Z" style="fill:#85b943; mix-blend-mode:multiply; opacity:.5;"></path><path d="M66.35,263.73c-3.05-10.2-12.25-14.31-19.6-15.76h-.01s-.06-.01-.1-.02c-.05-.01-.1-.02-.15-.03-5.28-.93-22.13,3.1-24.79,24.6-.7,5.67-.54,10.43.34,14.47,0,0-5.24-5.43-3.87-18.14,1.01-9.34,4.86-23.31,22.75-23.84,5.08-.15,20.73.53,25.42,18.72Z" style="fill:#85b943; mix-blend-mode:multiply; opacity:.5;"></path><path d="M63.16,244.3c-1.71-1.68-4.3-2.71-7.12-3.12-.2-.03-.37.23-.19.3h.01c.83.31,1.67.65,2.43,1.04,4.37,2.14,6.95,5.82,7.98,10.18.07.31.68.11.67-.23-.07-2.03-.66-5.1-3.79-8.17Z" style="fill:#85b943; mix-blend-mode:multiply; opacity:.5;"></path><path d="M54.69,307.25c-.97.64-2.79,1.85-3.79,5.33-.19.66.16-.16.54-.81.9-1.55,2.59-3.53,3.65-3.26,0,0-.02-1.52-.4-1.27Z" style="fill:#85b943; mix-blend-mode:multiply; opacity:.5;"></path><path d="M53.02,304.76c-.35.11-.55.17-.55.17-1.8-1-8.23,1.5-15.34.32-6.36-1.05-15.14-4.25-19.27-17.6-1.45-4.7-1.27-5.07-1.07-5.08.53-.04,2.09,5.39,5.4,10.52,2.57,3.99,6.74,7.29,9.67,8.82,2.66,1.38,4.52,1.58,8.06,2.04,0,0,0,0,0,0,3,.39,6.33.36,10.02-.23.11-.02.23-.04.34-.06,2.12-.35,4.19-.96,6.13-1.76-1.11.58-2.11.99-3.91,1.94-.59.31-.2.55.51.93Z" style="fill:#85b943; mix-blend-mode:multiply; opacity:.5;"></path><path d="M36.71,314.34c-.04-.46,6.32.58,9.71,2.12,3.26,1.48,5.8-1,6.99-3.9,0,0-.62,2.83-1.85,4.46s-3.8,1.21-7.55-.46c-2.82-1.26-7.3-2.22-7.3-2.22Z" style="fill:#85b943; mix-blend-mode:multiply; opacity:.5;"></path><path d="M36.36,311.65c.27.11.12.51-.15.44-3.43-.96-8.03-2.11-10.27,2.23-.69,1.33-1.5,1.96-2,3.22,0,0,0-.01,0-.02.15-.48,1.61-6.08,4.19-6.91,0,0-1.21-1.56.51-2.61,1.28-.78,3.29-.71,3.29-.71,0,0-2.3.46-3.06,1.34-.34.4-.02,1.38.85,1.4,1.72.03,3.65.34,6.63,1.63Z" style="fill:#85b943; mix-blend-mode:multiply; opacity:.5;"></path><path d="M39.63,309.64c1.07.82,1.03,1.39.66,1.16-2.91-1.84-5.66-2.98-8.29-3.12-.31-.54-8.16-1.54-15.62-6.42-6.29-4.11-12.18-11.17-14.22-21.13,0,0,6.77,18.42,24.7,23.04,1.7.44,4.8,1.07,6.9,1.83.33.12.94.35,1.23.54.15.1.04.34-.14.28-1.06-.37-2.77-.8-4.38-.48-.68.14-.48.69.84.99,2.61.59,4.57.43,8.31,3.3Z" style="fill:#85b943; mix-blend-mode:multiply; opacity:.5;"></path><path d="M69.37,267.36c-1.25,7.43.29,13.73.29,13.73,0,0,2.5,8.35-3.63,14.15,2.8-3.12,4.37-6.69,4-10.05-.73-6.55-2.68-7.57-2.64-13.69.11-16.01-11.65-21.76-20.63-23.53h-.01s-.06-.01-.1-.02c-.05-.01-.1-.02-.15-.03-5.28-.93-22.13,3.1-24.79,24.6-1.92,15.53,2.64,24.27,10.76,29.9h0c3.75,1.27,8.89,2.07,15.76,1.49,2.85-.24,5.63-.96,8.2-2.02-1.11.58-2.11.99-3.91,1.94-1,.53.81.86,2.25,1.94,1.07.81.51,1.53.06,1.89-.9.71,2.76-.01.06,2.96-1.75,1.93-2.12,9.61-8.18,7.24-4.76-1.86-6.26-2.39-8.83-3.07-6.11-1.61-12.51-1.31-13.91,2.74.1-.34,1.58-6.08,4.19-6.93,0,0-1.21-1.56.51-2.61,1.28-.78,3.29-.71,3.29-.71,0,0-4.63-.94-9.47-2.87-9.67-3.87-23.04-13.78-21.91-42.57.86-21.86,19.08-28.45,24.46-30.13,5.37-1.68,22.5-2.1,33.12,6.54,7.22,5.87,8.91,14.39,8.91,14.39l.06.76s3.5,6.53,2.26,13.96Z" style="fill:none; stroke:#27190f; stroke-miterlimit:10;"></path><path d="M69.92,263.29c.03,2.37-.3,4.72-.6,7.06-.27,2.31-.37,4.63-.13,6.96.14,1.51.3,3.04.29,4.56,0,.04,0,.09,0,.13,0-.04-.01-.08-.02-.12-.09-.74-.2-1.47-.32-2.21-.32-1.85-.91-3.88-.93-5.74-.06-1.96-.05-3.95.17-5.89.59-5.29.7-11.13-2.41-15.65-.75-1.1-1.59-2.15-2.53-3.11-.11-.11.02-.28.14-.22.01,0,.03.01.04.02.42.35.86.74,1.29,1.16,3.5,3.47,5.02,8.19,5.01,13.05Z" style="fill:#85b943; mix-blend-mode:multiply; opacity:.5;"></path><path d="M3.93,264.36c.53-4.71,2.59-9.26,5.45-13.04.2-.26.61-.02.47.28v.02c-.69,1.42-1.36,2.92-1.89,4.41-3.16,8.37-2.99,17.37-.49,25.83.18.6-.68.92-.95.35-1.62-3.49-3.54-9.29-2.58-17.86Z" style="fill:#85b943; mix-blend-mode:multiply; opacity:.5;"></path><path d="M39.3,307.94c-.2-.09-.09-.4.12-.35,2.79.71,4.75,1.57,7.38,2.84,2.39,1.15,2.16-3.69,5.46-3.84.19,0,.27.23.12.34-.4.28-.98.79-1.54,1.64-.59.91-.93,2.28-1.58,4.01-.71,1.9-2.87-1.02-6.21-2.8-1.28-.69-2.69-1.36-3.76-1.85Z" style="fill:#85b943; mix-blend-mode:multiply; opacity:.5;"></path><path d="M29.62,234.73c4.13-1.42,8.6-1.23,12.61.4,1.43.58,3.08,1.36,4.64,2.3.31.18.07.65-.26.52-1.46-.6-3.05-1.21-4.56-1.66-4.25-1.26-9.9-1.24-14.28.72-3.22,1.54-5.92,3.97-8.26,6.69-.31.36-.88-.06-.61-.46,1.88-2.87,5.26-6.63,10.71-8.5Z" style="fill:#85b943; mix-blend-mode:multiply; opacity:.5;"></path><path d="M23.78,302.21s-3.46-1.52-5.93-5.07c-4.89-7-9.86-20.65-4.25-37.37.14-.41-.08-.86-.49-1h0c-.39-.14-.83.05-.99.43-1.55,3.6-8.54,21.35,2.85,38.84,0,0,4.54,5.31,8.81,4.16Z" style="fill:#85b943; mix-blend-mode:multiply; opacity:.5;"></path><path d="M57.35,293.5c-.54.66-1.06,1.24-1.58,1.74-1.44,1.37-2.95,2.09-5.16,2.06-1.12-.02-2.2-.28-3.21-.78-1.13-.56-2.12-1.42-2.9-2.32-.31-.36-.59-.73-.83-1.08-.02-.03-1.91-2.83-1.3-3.64.25-.33.54-.28.68-.25.47.11,1.05.28,1.85.49.48.13,1.02.27,1.58.39,2.43.52,4.77.8,7.16.84,1.06.02,2.17,0,3.39-.08.3-.02.52-.02.71-.02.29,0,.75-.01.9.29.14.29-.25,1.06-1.31,2.36Z" style="fill:#6d2d1d;"></path><path d="M55.77,295.17s0,.02,0,.07c-1.44,1.37-2.95,2.09-5.16,2.06-1.12-.02-2.2-.28-3.21-.78-1.13-.56-2.12-1.42-2.9-2.32.92-.88,3.67-1.26,4.81-1.01,1.63.34,6.71,1.76,6.45,1.99Z" style="fill:#d05546;"></path><path d="M54.91,261.99c-1.42-.96,2.23-3.97,5.41-3.13,3.18.84,3.47,3.25,3.44,3.49s-1.9-1.64-3.93-1.57c-4.12.16-3.6,2.1-4.92,1.21Z" style="fill:#29150e;"></path><path d="M42.07,263.73c.25-1.46-3.45-2.38-7.7-.6-3.61,1.51-4.66,5.61-4.53,5.82s2.32-2.83,5.05-3.72c4.1-1.32,6.9.09,7.17-1.5Z" style="fill:#29150e;"></path><path d="M60.53,266.93c6.7-1.03,7.35,12.71,2.76,14.52-4.67,1.84-6.9-2.34-6.98-5.94-.11-4.52,1.43-8.15,4.22-8.58Z" style="fill:#faf3f7;"></path><path d="M63.16,268.07c.86.44,1.37,1.36,1.83,2.26.34.68.61,1.6.8,2.4.04.17.51.2.54-.56.04-.96.07-1.64-.23-2.47-.42-1.22-1.18-2.44-2.24-3.08-4.53-2.75-7.73,4.16-7.7,7.29,0,.12.21.18.25-.02.45-2,2.56-7.99,6.74-5.82Z" style="fill:#29150e;"></path><path d="M64.2,268.42c.67.4,1.84-.26,2.23-1.01-.72.29-1.5.78-2.18.2-.12-.11-.31.54-.44.59l.4.22Z" style="fill:#29150e;"></path><path d="M64.76,269.08c.52.66,1.86.47,2.29-.58-1.27.69-1.91.22-2.24-.13-.11-.12-.22.35-.35.34l.31.37Z" style="fill:#29150e;"></path><path d="M55.34,283.19s-.09,2.48-1.87,2.59c-.33.02-.45-.32-.83-.37s-.81.11-.88.66c-.11.91,1.91,1.58,3.53,0,1.12-1.09.47-2.42.04-2.88Z" style="fill:#d58055;"></path><path d="M56.85,283.71c.44,1.45-.91,2.89-2.62,3.28-.11.03-.23.05-.35.06-.27.04-.41-.26-.18-.36,1.12-.47,1.87-1.35,1.94-2.38.11-.93-.59-1.63-1.6-2.1-.66-.31-1.36-.43-2.12-.48-.23-.02-.28-.27-.06-.32h.01c1.26-.29,4.28-.02,4.98,2.29Z" style="fill:#27190f;"></path><path d="M36.93,270.17c7.92-3.36,11.48,10.37,6.1,13.86-4.37,2.83-8.53-.31-9.45-3.81-1.16-4.39-.07-8.59,3.35-10.05Z" style="fill:#faf3f7;"></path><path d="M35.9,271.44c-1.04.87-1.56,2.16-2,3.44-.35,1.01-.54,2.28-.66,3.4-.02.24-.37.26-.41.02-.19-1.14-.4-2.97-.38-4.18.02-1.65.54-3.26,1.82-4.4,4.73-4.2,10.08,1.67,10.83,4.69.03.12-.15.27-.25.09-.94-1.76-4.51-6.77-8.96-3.06Z" style="fill:#29150e;"></path><path d="M32.92,274.39c-.65.98-2.68,1.37-3.72.95,1.23-.36,2.77-1.09,3.33-2.25.1-.21.58.82.77.76l-.39.55Z" style="fill:#29150e;"></path><path d="M32.83,275.56c-.36,1.13-2.43,2.13-3.71,1.37,2.32-.39,2.98-1.44,3.26-2.07.09-.21.5.18.67.07l-.22.63Z" style="fill:#29150e;"></path><ellipse cx="42.41" cy="276.21" rx="3.02" ry="4.24" transform="translate(-85.21 27.61) rotate(-18.45)" style="fill:#29150e;"></ellipse><ellipse cx="40.56" cy="274.15" rx=".57" ry=".89" transform="translate(-84.66 26.92) rotate(-18.45)" style="fill:#fff;"></ellipse><ellipse cx="63.3" cy="273.4" rx="3.02" ry="4.24" transform="translate(-59.29 20.96) rotate(-12.87)" style="fill:#29150e;"></ellipse><ellipse cx="61.65" cy="271.47" rx=".57" ry=".89" transform="translate(-58.9 20.54) rotate(-12.87)" style="fill:#fff;"></ellipse><g style="clip-path:url(#clippath-3);"><polygon points="75.47 239.04 106.55 231.92 107.03 235.16 110.92 234.47 114.74 233.8 118.93 279.34 89.02 288.91 75.47 239.04" style="fill:#e47b2c;"></polygon><polyline points="78.55 239.79 83.23 240.88 112.36 234.22 107.84 233.04 78.55 239.79" style="fill:#f6ffff;"></polyline><polygon points="89.02 288.91 81.49 286.46 75.47 239.04 83.16 240.9 89.02 288.91" style="fill:#ffd050;"></polygon><line x1="114.74" y1="233.8" x2="83.16" y2="240.9" style="fill:#94d2dc;"></line><line x1="80.11" y1="275.59" x2="87.44" y2="277.99" style="fill:#f6d56f;"></line><polygon points="79.15 268.01 86.77 270.49 84.91 255.21 77.22 252.81 79.15 268.01" style="fill:#edffff;"></polygon></g></g></g></g></svg>