<?xml version="1.0" encoding="UTF-8"?>
<svg xmlns="http://www.w3.org/2000/svg" xmlns:xlink="http://www.w3.org/1999/xlink" viewBox="0 0 332.03 265.66">
  <defs>
    <style>
      .cls-1, .cls-2, .cls-3, .cls-4, .cls-5, .cls-6, .cls-7, .cls-8, .cls-9, .cls-10 {
        fill: none;
      }

      .cls-1, .cls-2, .cls-4, .cls-6, .cls-10 {
        stroke-width: .6px;
      }

      .cls-1, .cls-5, .cls-6, .cls-11, .cls-12 {
        stroke: #271910;
      }

      .cls-1, .cls-6, .cls-8 {
        stroke-miterlimit: 10;
      }

      .cls-13, .cls-14 {
        fill: #85ba41;
      }

      .cls-15 {
        fill: url(#radial-gradient-10);
      }

      .cls-16, .cls-17 {
        fill: #2590b4;
      }

      .cls-18 {
        fill: #211e1f;
      }

      .cls-2 {
        stroke: #201d1e;
      }

      .cls-2, .cls-3, .cls-4, .cls-5, .cls-6, .cls-11, .cls-9, .cls-10, .cls-12 {
        stroke-linecap: round;
      }

      .cls-2, .cls-3, .cls-4, .cls-5, .cls-11, .cls-9, .cls-10, .cls-12 {
        stroke-linejoin: round;
      }

      .cls-19 {
        fill: #b7b8b9;
      }

      .cls-20 {
        fill: #d58054;
      }

      .cls-21 {
        fill: url(#radial-gradient-9);
      }

      .cls-3 {
        stroke-width: .57px;
      }

      .cls-3, .cls-4, .cls-9 {
        stroke: #211e1f;
      }

      .cls-22 {
        fill: #6d2e1d;
      }

      .cls-23 {
        fill: #e3a07a;
      }

      .cls-5 {
        stroke-width: .56px;
      }

      .cls-24, .cls-25 {
        fill: #fff;
      }

      .cls-26 {
        fill: #e2d4bf;
      }

      .cls-25, .cls-27, .cls-28 {
        fill-rule: evenodd;
      }

      .cls-29 {
        fill: #0c2949;
      }

      .cls-29, .cls-30 {
        opacity: .1;
      }

      .cls-31 {
        fill: #f9be49;
      }

      .cls-32 {
        fill: url(#radial-gradient-5);
      }

      .cls-27 {
        fill: #3d1b1a;
      }

      .cls-33 {
        fill: url(#radial-gradient);
      }

      .cls-34 {
        fill: url(#radial-gradient-3);
      }

      .cls-11 {
        stroke-width: .58px;
      }

      .cls-11, .cls-35 {
        fill: #fbc156;
      }

      .cls-36 {
        fill: #e39f7a;
      }

      .cls-8 {
        stroke-width: 1.5px;
      }

      .cls-8, .cls-10 {
        stroke: #281b12;
      }

      .cls-37 {
        opacity: .3;
      }

      .cls-37, .cls-38, .cls-39 {
        fill: #e98d6a;
      }

      .cls-37, .cls-14, .cls-40, .cls-17, .cls-41, .cls-39, .cls-42 {
        mix-blend-mode: multiply;
      }

      .cls-9 {
        stroke-width: .56px;
      }

      .cls-43 {
        fill: #291610;
      }

      .cls-44 {
        isolation: isolate;
      }

      .cls-45 {
        fill: url(#radial-gradient-11);
      }

      .cls-46 {
        fill: #d15546;
      }

      .cls-47 {
        fill: #faf3f8;
      }

      .cls-48 {
        fill: url(#radial-gradient-8);
      }

      .cls-49 {
        fill: url(#radial-gradient-2);
      }

      .cls-50 {
        fill: url(#radial-gradient-4);
      }

      .cls-14, .cls-39, .cls-42 {
        opacity: .5;
      }

      .cls-40 {
        fill: #e1af4b;
        opacity: .2;
      }

      .cls-51 {
        fill: url(#radial-gradient-12);
      }

      .cls-52 {
        fill: #271910;
      }

      .cls-53 {
        fill: #a2a19f;
      }

      .cls-54 {
        fill: #c7d7d4;
      }

      .cls-28 {
        fill: #351a10;
      }

      .cls-17, .cls-41 {
        opacity: .4;
      }

      .cls-55 {
        fill: url(#radial-gradient-6);
      }

      .cls-56 {
        fill: url(#radial-gradient-7);
      }

      .cls-57 {
        fill: #281b12;
      }

      .cls-58 {
        fill: url(#radial-gradient-13);
      }

      .cls-12 {
        fill: #527f63;
        stroke-width: .66px;
      }

      .cls-59 {
        clip-path: url(#clippath);
      }

      .cls-41 {
        fill: #081012;
      }
    </style>
    <clipPath id="clippath">
      <rect class="cls-7" width="332.03" height="265.66" rx="17.14" ry="17.14"/>
    </clipPath>
    <radialGradient id="radial-gradient" cx="-11896.08" cy="7530.78" fx="-11896.08" fy="7530.78" r="15.91" gradientTransform="translate(-11887.26 7396.06) rotate(116.58) scale(1 -1)" gradientUnits="userSpaceOnUse">
      <stop offset="0" stop-color="#ed9b77"/>
      <stop offset="1" stop-color="#dc7b5a"/>
    </radialGradient>
    <radialGradient id="radial-gradient-2" cx="-9387.39" cy="98.38" fx="-9387.39" fy="98.38" r="9.48" gradientTransform="translate(-9151.99) rotate(-180) scale(1 -1)" xlink:href="#radial-gradient"/>
    <radialGradient id="radial-gradient-3" cx="-3276.83" cy="809.93" fx="-3276.83" fy="809.93" r="5.15" gradientTransform="translate(3326.74 -1193.18) rotate(-8.4)" gradientUnits="userSpaceOnUse">
      <stop offset="0" stop-color="#ee9c77"/>
      <stop offset="1" stop-color="#dd7b5a"/>
    </radialGradient>
    <radialGradient id="radial-gradient-4" cx="-3257.21" cy="805.71" fx="-3257.21" fy="805.71" r="23.44" xlink:href="#radial-gradient-3"/>
    <radialGradient id="radial-gradient-5" cx="-3236.24" cy="806.11" fx="-3236.24" fy="806.11" r="5.51" xlink:href="#radial-gradient-3"/>
    <radialGradient id="radial-gradient-6" cx="-3260.06" cy="821.96" fx="-3260.06" fy="821.96" r="6.61" xlink:href="#radial-gradient-3"/>
    <radialGradient id="radial-gradient-7" cx="-8634.12" cy="173.26" fx="-8634.12" fy="173.26" r="6.42" gradientTransform="translate(-8479.81) rotate(-180) scale(1 -1)" gradientUnits="userSpaceOnUse">
      <stop offset="0" stop-color="#efb38d"/>
      <stop offset="1" stop-color="#edbd8b"/>
    </radialGradient>
    <radialGradient id="radial-gradient-8" cx="-3105.56" cy="2252.32" fx="-3105.56" fy="2252.32" r="6.22" gradientTransform="translate(1069.15 -3532.61) rotate(-40.8)" xlink:href="#radial-gradient-7"/>
    <radialGradient id="radial-gradient-9" cx="-8617.55" cy="189.39" fx="-8617.55" fy="189.39" r="5.36" xlink:href="#radial-gradient-7"/>
    <radialGradient id="radial-gradient-10" cx="-8610.86" cy="198.89" fx="-8610.86" fy="198.89" r="8.33" xlink:href="#radial-gradient-7"/>
    <radialGradient id="radial-gradient-11" cx="-8602.79" cy="210.85" fx="-8602.79" fy="210.85" r="6.22" xlink:href="#radial-gradient-7"/>
    <radialGradient id="radial-gradient-12" cx="-3559.23" cy="2581.87" fx="-3559.23" fy="2581.87" r="25.43" gradientTransform="translate(2327.67 -3671.75) rotate(-24.34)" xlink:href="#radial-gradient-7"/>
    <radialGradient id="radial-gradient-13" cx="209.46" cy="167.26" fx="209.46" fy="167.26" r="12.72" gradientTransform="matrix(1,0,0,1,0,0)" xlink:href="#radial-gradient"/>
  </defs>
  <g class="cls-44">
    <g id="Layer_2" data-name="Layer 2">
      <g id="Layer_1-2" data-name="Layer 1">
        <g>
          <rect class="cls-31" width="318.32" height="265.66" rx="20" ry="20"/>
          <g class="cls-59">
            <g>
              <ellipse class="cls-29" cx="251.83" cy="246.94" rx="61.37" ry="11.16"/>
              <g>
                <g>
                  <path class="cls-26" d="M177.28,147.98s-2.64-12.24,4.86-22.09l4.81,5.5,2.05,6.23-3.64,6.71-8.08,3.64Z"/>
                  <path class="cls-30" d="M177.28,147.98s-2.64-12.24,4.86-22.09l4.81,5.5,2.05,6.23-3.64,6.71-8.08,3.64Z"/>
                  <path class="cls-3" d="M177.28,147.98s-2.64-12.24,4.86-22.09l4.81,5.5,2.05,6.23-3.64,6.71-8.08,3.64Z"/>
                  <path class="cls-33" d="M187.82,138.7s-6.05-1.46-7.2-1.52-2.09.13-2.09.13c-3.66,1.71-5.93.74-9.74-.83-3.82-1.57-11.63-5.14-13.24-6.18-1.62-1.03-.52-2-.52-2,0,0-2.36-.79-3.28-1.64-.92-.85.45-1.91.45-1.91,0,0-2.36-.67-1.95-2.04.4-1.37,3.08-1.1,3.08-1.1-.76-1.17-.02-1.98,3.39-2.06,3.41-.09,13.76,2.56,13.76,2.56-2.38-1.08-4.58-3.64-4.75-5.22s.76-3.18,2.87-.89c2.11,2.29,5.41,3.32,6.64,3.89s3.91,1.51,4.44,2.9c.54,1.39,1.46,4.49,3.19,4.96,1.73.47,2.68.46,2.68.46,0,0,3.33,6.02,2.27,10.49Z"/>
                  <path class="cls-3" d="M187.82,138.7s-6.05-1.46-7.2-1.52-2.09.13-2.09.13c-3.66,1.71-5.93.74-9.74-.83-3.82-1.57-11.63-5.14-13.24-6.18-1.62-1.03-.52-2-.52-2,0,0-2.36-.79-3.28-1.64-.92-.85.45-1.91.45-1.91,0,0-2.36-.67-1.95-2.04.4-1.37,3.08-1.1,3.08-1.1-.76-1.17-.02-1.98,3.39-2.06,3.41-.09,13.76,2.56,13.76,2.56-2.38-1.08-4.58-3.64-4.75-5.22s.76-3.18,2.87-.89c2.11,2.29,5.41,3.32,6.64,3.89s3.91,1.51,4.44,2.9c.54,1.39,1.46,4.49,3.19,4.96,1.73.47,2.68.46,2.68.46,0,0,3.33,6.02,2.27,10.49Z"/>
                  <path class="cls-18" d="M170.59,121.85c.68.34,1.34.99,1.16,1.82-.13,2,0,4.18,1.38,5.77-.98-.97-1.47-2.35-1.67-3.71-.13-.83-.1-1.72-.16-2.54-.02-.11-.09-.22-.19-.32-.2-.21-.49-.39-.77-.51-.35-.15-.08-.7.25-.51h0Z"/>
                  <line class="cls-4" x1="153.32" y1="121.61" x2="164.46" y2="124.4"/>
                  <line class="cls-4" x1="152.2" y1="124.75" x2="163.39" y2="127.6"/>
                  <line class="cls-4" x1="154.84" y1="128.23" x2="163.22" y2="130.87"/>
                  <path class="cls-18" d="M166,124.15c-.4,2.64-1.15,5.14-1.64,7.77-.34-2.66.47-5.39,1.64-7.77h0Z"/>
                  <path class="cls-26" d="M234.02,137.86s-12.97,19.63-15.65,22.56c-2.67,2.94-7.72,3.7-15.3,1.23-7.58-2.47-25.8-13.66-25.8-13.66,0,0,1.57-2.55,2.7-5.69.35-.96.65-1.97.86-2.98.89-4.31,1.29-13.42,1.29-13.42,0,0,26.54,13.96,26.64,13.42s13.07-27.29,15.25-31.45c2.18-4.17,4.86-5.79,4.86-5.79l3.75,26.1,1.39,9.69Z"/>
                  <path class="cls-3" d="M234.02,137.86s-12.97,19.63-15.65,22.56c-2.67,2.94-7.72,3.7-15.3,1.23-7.58-2.47-25.8-13.66-25.8-13.66,0,0,1.57-2.55,2.7-5.69.35-.96.65-1.97.86-2.98.89-4.31,1.29-13.42,1.29-13.42,0,0,26.54,13.96,26.64,13.42s13.07-27.29,15.25-31.45c2.18-4.17,4.86-5.79,4.86-5.79l3.75,26.1,1.39,9.69Z"/>
                  <path class="cls-3" d="M208.77,139.32s1.89,3.48,3.25,6.76"/>
                  <path class="cls-3" d="M210.02,139.32s4.28,3.86,5.65,6.36"/>
                  <path class="cls-30" d="M234.02,137.86s-12.97,19.63-15.65,22.56c-2.67,2.94-7.72,3.7-15.3,1.23-7.58-2.47-25.8-13.66-25.8-13.66,0,0,1.57-2.55,2.7-5.69,6.47,3.98,22.79,13.58,29.22,13.44,6.23-.14,18.21-18.87,23.43-27.56l1.39,9.69Z"/>
                </g>
                <g>
                  <path class="cls-18" d="M196.99,243.09s-2.36.6-2.02,3.1,4.49,2.77,9.33,2.51c4.84-.26,28-3.06,28-3.06l-9.94-8.78-25.38,6.23Z"/>
                  <path class="cls-54" d="M228.26,242.18c-.24-.06-9.43,1.21-14.09,1.87-4.66.67-10.4,1.87-13.3,1.51-2.9-.36-2.66-1.66-2.66-1.66,0,0-.97-.15-1.21-.82s-.24-1.87,1.27-2.36c1.51-.48,6.89-4.54,7.56-4.78.67-.24,10.4-3.69,10.83-4.05s7.2.85,7.56,1.09,4.05,9.19,4.05,9.19Z"/>
                  <path class="cls-3" d="M228.26,242.18c-.24-.06-9.43,1.21-14.09,1.87-4.66.67-10.4,1.87-13.3,1.51-2.9-.36-2.66-1.66-2.66-1.66,0,0-.97-.15-1.21-.82s-.24-1.87,1.27-2.36c1.51-.48,6.89-4.54,7.56-4.78.67-.24,10.4-3.69,10.83-4.05s7.2.85,7.56,1.09,4.05,9.19,4.05,9.19Z"/>
                  <path class="cls-18" d="M203.78,237.27s2.05.39,3.69,2.28c1.64,1.88,2.82,5.46,2.82,5.46l7.71-.85s-1.15-4.07-3.25-7.16c-2.09-3.1-3.67-3.29-3.64-3.13s-5.71,1.06-7.33,3.4Z"/>
                </g>
                <g>
                  <path class="cls-54" d="M313.91,212.64s4.33-1.19,7.47-.54c3.14.65,4.33,2.49,4.76,6.6.43,4.11.76,9.42,1.41,12.77.65,3.36.43,8.62-.87,11.76-1.3,3.14-2.81,3.68-4.44,2.6,0,0-.43,1.45-3.03.51,0,0-1.41.68-2.71-.62,0,0-2.6,1.95-3.79-2.38-1.19-4.33,1.19-9.27.97-12.62-.22-3.36.22-18.08.22-18.08Z"/>
                  <path class="cls-3" d="M313.91,212.64s4.33-1.19,7.47-.54c3.14.65,4.33,2.49,4.76,6.6.43,4.11.76,9.42,1.41,12.77.65,3.36.43,8.62-.87,11.76-1.3,3.14-2.81,3.68-4.44,2.6,0,0-.43,1.45-3.03.51,0,0-1.41.68-2.71-.62,0,0-2.6,1.95-3.79-2.38-1.19-4.33,1.19-9.27.97-12.62-.22-3.36.22-18.08.22-18.08Z"/>
                </g>
                <path class="cls-26" d="M203.21,185.98c.14,4.62,1.01,12,1.01,12,.89,6.73,2.77,32.97,2.77,32.97,0,0,4.64,1.37,8.46,2.91.54.22,1.05.44,1.54.65,1.78.8,4.79,3.09,8.1,5.66,2.13,1.65,4.38,3.42,6.51,4.96,1.94,1.41,3.76,2.64,5.29,3.44,5.84,3.07,18.02,4.95,23.86,4.55,5.84-.39,50.5-7.62,50.5-7.62,0,0,7.04-8.11,6.44-19.68,0-.08,0-.15-.01-.23-.69-11.69-4.55-14.66-4.55-14.66l-.96.07h0s-6.86.52-6.86.52c0,0,4.06-4.75,6.43-11.09,2.38-6.34,1.58-24.06-1.38-31.79-.44-1.15-1.15-3.03-2.05-5.44-5.16-13.76-16.72-44.54-22.11-52.29-6.34-9.11-10.5-13.96-16.73-15.75-6.24-1.78-24.85-3.07-24.85-3.07,0,0-20.04,6.89-20.1,6.89.15-.08-4.84,17.98-4.84,17.98l9.39,13.8s4.34,7.73,8.16,12.13c3.83,4.41,9.46,11.56,10.41,13.58.78,1.7,3.99,8.84,4.52,11.35.1.48.1.79-.03.86-.82.43-1.68.22-1.61,2.38,0,0-.11-.03-.34-.1-3.17-.87-28.12-7.52-37.52-2.79-10.04,5.05-9.61,13.15-9.46,17.77Z"/>
                <path class="cls-30" d="M285.02,119.18s-2.93,29.27-4.9,37.37c-1.97,8.1-9.34,12.38-13.39,13.09-4.05.71,2.08-23.99,2.08-23.99l2.91-17.42s3.63-9.05,4.05-9.26,9.26.21,9.26.21Z"/>
                <path class="cls-30" d="M250.19,171c.15.24.24.38.24.38,0,0,8.72,11.62,8.86,11.62,0-.21-5.91-10.01-5.91-12.16,0-2.15,2.29,1.12,10.15,2.48h0c-.25-.23-7.25-3.85-11.37-5.46.1.48.1.79-.03.86-.82.43-1.68.22-1.61,2.38,0,0-.11-.03-.34-.1Z"/>
                <path class="cls-3" d="M229.07,130.79s4.34,7.73,8.16,12.13c3.83,4.41,9.46,11.56,10.41,13.58.78,1.7,3.99,8.84,4.52,11.35.1.48.1.79-.03.86-.82.43-1.68.22-1.61,2.38,0,0-.11-.03-.34-.1-3.17-.87-28.12-7.52-37.52-2.79-10.04,5.05-9.61,13.15-9.46,17.77.14,4.62,1.01,12,1.01,12,.89,6.73,2.77,32.97,2.77,32.97,0,0,6.04,1.78,10,3.56,2.92,1.31,9.18,6.67,14.61,10.62,1.94,1.41,3.76,2.64,5.29,3.44,5.84,3.07,18.02,4.95,23.86,4.55,5.84-.39,50.5-7.62,50.5-7.62,0,0,7.04-8.11,6.44-19.68,0-.08,0-.15-.01-.23-.69-11.69-4.55-14.66-4.55-14.66l-.96.07h0s-6.86.52-6.86.52c0,0,4.06-4.75,6.43-11.09,2.38-6.34,1.58-24.06-1.38-31.79-.44-1.15-1.15-3.03-2.05-5.44-5.16-13.76-16.72-44.54-22.11-52.29-6.34-9.11-10.5-13.96-16.73-15.75-6.24-1.78-24.85-3.07-24.85-3.07,0,0-20.04,6.89-20.1,6.89.15-.08-4.84,17.98-4.84,17.98"/>
                <path class="cls-3" d="M305.32,211.54s-5.08,6.85-14.23,11.28c-9.16,4.43-16.88,8.18-20.04,11.93"/>
                <path class="cls-30" d="M231.6,245.14c1.94,1.41,3.76,2.64,5.29,3.44,5.84,3.07,18.02,4.95,23.86,4.55,5.84-.39,50.5-7.62,50.5-7.62,0,0,7.04-8.11,6.44-19.68-.04-.13-.05-.21-.02-.22-.57.25-37.09,16.81-55.95,20.3-19.01,3.53-24.21.99-30.13-.78Z"/>
                <path class="cls-30" d="M265.61,239.39c.13-.06,4.43-2.21,8.49-4.63,4.12-2.47,12.11-7.77,23.36-13.39,10.98-5.49,14.56-10.12,14.73-10.34l-6.86.52s4.06-4.75,6.43-11.09c2.38-6.34,1.58-24.06-1.38-31.79-.44-1.15-1.15-3.03-2.05-5.44,1.25,14.73-.19,31.68-3.99,38.52-4.37,7.87-11.86,14.74-23.61,21.4-11.56,6.56-15.01,15.95-15.11,16.24Z"/>
                <path class="cls-30" d="M206.91,192.27l8.55,41.59c.54.22,1.05.44,1.54.65,1.78.8,4.79,3.09,8.1,5.66-4.46-11.97-17.93-47.24-18.18-47.9Z"/>
                <path class="cls-30" d="M252.74,212.12c-.37.25-15.36.5-23.36-9.74-7.99-10.24-9.37-14.24-9.37-14.24,0,0,5,19.83,16.99,23.41,11.99,3.57,15.74.57,15.74.57Z"/>
                <path class="cls-30" d="M227.01,183.39s5,5.75,18.11,11.49c13.11,5.75,22.11,3.12,22.11,3.12,0,0-9.49,6.37-13.51,5.04,0,0-14.54-2.72-26.71-19.65Z"/>
                <path class="cls-30" d="M240.33,108.11c.13,0,.01,6.21,4.74,16.16,4.73,9.94,10.78,21.39,10.78,21.39l-3.41.84s-14.38-22.53-15.01-36.93l2.9-1.45Z"/>
                <path class="cls-4" d="M240.33,108.11c.13,0,.01,6.21,4.74,16.16,4.73,9.94,10.78,21.39,10.78,21.39l-3.41.84s-14.38-22.53-15.01-36.93l2.9-1.45Z"/>
                <path class="cls-49" d="M239.93,89.45l-3.32-2.26-8.59,15.61s4.61,5.83,9.41,6.76l2.9-1.45,2.46-13.34-2.86-5.32Z"/>
                <path class="cls-5" d="M239.93,89.45l-3.32-2.26-8.59,15.61s4.61,5.83,9.41,6.76l2.9-1.45,2.46-13.34-2.86-5.32Z"/>
                <path class="cls-18" d="M242.13,250.76c-5.11-2.02-8.72-6.93-9.56-12.3-.22-1.18-.28-2.51-.33-3.7.08,1.19.18,2.51.44,3.68.95,5.19,4.62,9.96,9.62,11.78.37.09.19.69-.17.54h0Z"/>
                <path class="cls-18" d="M280.86,228.01c-.81,2.51-1.99,5-4,6.75,1.84-1.86,2.82-4.41,3.42-6.89.07-.41.71-.25.58.14h0Z"/>
                <path class="cls-18" d="M269.33,98.38c-3.05.97-4.66,4.06-5.81,6.84-.53,1.25-1.31,4.36-.81,1.4.7-3.46,2.69-7.78,6.62-8.24h0Z"/>
                <path class="cls-26" d="M244.67,91.79l-4.75-2.33s1.29,4.66,0,8.69c-1.29,4.02-2.49,4.99-2.49,4.99l2.9,4.99s7.24-6.51,4.34-16.33Z"/>
                <path class="cls-4" d="M244.67,91.79l-4.75-2.33s1.29,4.66,0,8.69c-1.29,4.02-2.49,4.99-2.49,4.99l2.9,4.99s7.24-6.51,4.34-16.33Z"/>
                <path class="cls-26" d="M237.44,109.56l-3.46-4.1s-3.46.56-5.95-2.65c0,0,3.22,6.92,9.41,6.76Z"/>
                <path class="cls-4" d="M237.44,109.56l-3.46-4.1s-3.46.56-5.95-2.65c0,0,3.22,6.92,9.41,6.76Z"/>
                <g>
                  <g>
                    <path class="cls-34" d="M200.83,80.97c1.83-.7,3.86,1.06,5.57,4.36,1.92,3.7,1.36,6.15.73,6.8-1.2,1.24-4.48-.01-6.59-3.45-1.9-3.1-1.86-6.88.3-7.7Z"/>
                    <path class="cls-39" d="M200.83,80.97c1.83-.7,3.86,1.06,5.57,4.36,1.92,3.7,1.36,6.15.73,6.8-1.2,1.24-4.48-.01-6.59-3.45-1.9-3.1-1.86-6.88.3-7.7Z"/>
                    <path class="cls-5" d="M200.83,80.97c1.83-.7,3.86,1.06,5.57,4.36,1.92,3.7,1.36,6.15.73,6.8-1.2,1.24-4.48-.01-6.59-3.45-1.9-3.1-1.86-6.88.3-7.7Z"/>
                    <path class="cls-52" d="M206.54,61.19c-.24-.64-1.7-4.9-3.25-7.44-3.14,1.27-8.96,4.46-10.13,8.35-.28.94-.08,5.99.28,6.91,2.03,5.27,5.9,11.78,6.32,12.76,1.14.22,1.9,3.54,3.06,5.97.16,0,1.36-.02,1.57.02-1.29-4.05-3.26-13.74-4.48-18.52-.28-1.09,4.62-8.27,6.62-8.05Z"/>
                    <path class="cls-50" d="M239.69,90.29c-.35,1.35-2.94,4.97-4.38,6.48-2.55,2.66-5.88,5.58-9.44,7.01-.21.08-4.81,1-5.04,1.01-3.72.07-10.53-4.02-13.18-6.89-.91-.98-4.36-7.78-5.96-12.56-.58-1.75-.97-5.39-1.59-8.77h0c-.21-1.18-.46-2.31-.75-3.33-1.06-3.73-1.58-5.25-1.3-6.15.6-1.92,2.34-4.59,5.67-6.9,2.94-2.03,7.13-3.79,12.87-4.5,7.91-.97,15.36-1.48,20.24.98.46.23.89.48,1.3.77,1.66,1.15,2.92,2.75,3.68,4.94,2.82,8.21-.89,23.21-2.12,27.91Z"/>
                    <g class="cls-42">
                      <path class="cls-38" d="M213.48,84.61c-1.32,2.45-4.64,3.01-7.15,2.42,2.48-.27,5.26-.61,7.15-2.42h0Z"/>
                    </g>
                    <g class="cls-42">
                      <path class="cls-38" d="M231.68,79.78c-1.31,2.45-4.64,3.01-7.15,2.42,2.48-.27,5.26-.61,7.15-2.42h0Z"/>
                    </g>
                    <path class="cls-39" d="M229.46,62.9s4.73,3.51,6.24,6.53c1.52,3.02,2.02,8.18,2.02,8.18l.78-6.64s-1.29-3.91-1.39-4.03-2.45-4.56-2.45-4.56c0,0-2.16-1.6-2.63-1.94s-2.03-.77-2.03-.77l-.54,3.23Z"/>
                    <path class="cls-39" d="M238.59,55.86l-.56.62-5.78,6.35c-.13-.07-20.31.59-26.11,2.33-5.8,1.73-6.73,2.52-6.73,2.52,0,0,.57,7.62.58,7.92-.21-1.17-.46-2.3-.75-3.32-1.06-3.73-1.58-5.25-1.3-6.15.6-1.92,2.34-4.59,5.67-6.9,1.71-.78,3.18-1.38,3.62-1.33,1.22.14,16.11-3.11,18.47-2.99,1.73.09,7.89.57,11.02.81,1.13.09,1.86.15,1.86.15Z"/>
                    <path class="cls-5" d="M198.05,67.09c1.13-3.62,6.3-9.89,18.54-11.4,11.64-1.43,22.28-1.85,25.22,6.69,2.82,8.21-.89,23.21-2.12,27.91-.35,1.35-2.94,4.97-4.39,6.48-2.55,2.66-5.88,5.58-9.44,7.01-.21.08-4.81,1-5.04,1.01-3.72.07-10.53-4.02-13.18-6.89-.91-.98-4.36-7.78-5.95-12.56-.79-2.36-1.21-8.14-2.34-12.1-1.06-3.73-1.58-5.24-1.3-6.14Z"/>
                    <path class="cls-52" d="M243.58,60.16c-.31-1.97-1-3.85-1.55-5.76-.14-.49-.29-1.02-.47-1.54-.1-.12-.2-.22-.3-.26-.44-.2-.47-.69-.26-1-.24-.44-.53-.84-.9-1.16-.18-.16-.24-.4-.21-.62-.31-.34-.62-.64-.9-.85-3.54-2.64-8.2-3.18-10.58-3.61.05,2.14-4.54,8.91-4.43,9.66,6.93-.83,10.5,1.65,11.57,2.69,1.79,1.73,2.25,14.68,2.85,17.24.94,4.01,2.15,7.58,2.22,7.78.5-1.25,2.24-8.74,3.18-9.45.22-1.65.59-7.31.21-12.63-.22-.08-.4-.25-.44-.5Z"/>
                    <g>
                      <path class="cls-32" d="M243.58,70.77c-2.94-.29-5.06,2.12-5.12,5.86-.06,4.23,1.29,6.43,2.3,6.82,1.92.73,5.27-1.62,6.34-5.58.97-3.58-.66-6.81-3.53-7.1Z"/>
                      <path class="cls-5" d="M243.58,70.77c-2.94-.29-5.06,2.12-5.12,5.86-.06,4.23,1.29,6.43,2.3,6.82,1.92.73,5.27-1.62,6.34-5.58.97-3.58-.66-6.81-3.53-7.1Z"/>
                      <path class="cls-39" d="M241.5,74.68c-.35.25-.91,6.39-.46,6.43,1.58.13,2.9-1,3.32-2.85.54-2.33-.87-4.99-2.86-3.58Z"/>
                    </g>
                    <path class="cls-52" d="M202.65,87.88c3.33,6.69,9.26,9.95,9.44,9.28.12-.46-.46-3.86.71-4.77.85-.66,3.89-.97,7.54-2,3.61-1.02,5.94-2.07,7.55-1.83,1.47.22,3.62,3.25,4.21,3.84.49.49,5.82-5.5,5.74-12.97.16-.04.77-.2,1.07-.31,0,3.6.95,4.35,2.45,4.47-.17,1.03.24,7.32.17,7.68-.26,1.39-3.33,10.23-5.69,12.63-2.39,2.43-5.83,5.18-8,6.02-.69.27-5.59,1.29-6.12,1.23-2.27-.26-3.6-.74-6.8-2.22-2.98-1.38-6.68-5.45-8.44-8.17-.68-1.05-3.99-12.82-3.83-12.86Z"/>
                    <path class="cls-55" d="M228.89,93.72c-.11,1.72-.57,3.75-1.48,5.15-.28.44-2.89,2.09-4.97,2.58-2.08.49-3.91-.05-4.32-.35-.85-.63-1.84-1.72-2.65-2.87-.98-1.38-1.72-2.83-1.72-3.67,0-1,.9-.84,3.73-1.52.78-.19,3.81-1.11,4.96-1.53,2.73-1.01,5.38-2.19,6.12-.82.3.56.43,1.71.34,3.05Z"/>
                    <path class="cls-37" d="M228.89,93.72c-.11,1.72-.57,3.75-1.48,5.15-.28.44-2.89,2.09-4.97,2.58-2.08.49-3.91-.05-4.32-.35-.85-.63-1.84-1.72-2.65-2.87l.71-.2s2.63.14,5.97-.88c3.25-.99,5.35-1.88,6.75-3.43Z"/>
                    <path class="cls-43" d="M201.49,76.27c.63-.91,1.62-1.8,2.53-2.25,1.81-.9,4.17-1.18,5.73-1.06.51.04,1.1,1.46,1.04,1.61-.06.18-.27.25-.62.25-1.81.04-3.56-.11-5.82.82-.82.33-1.74.83-2.2,1.13-.18.11-.67.47-.73.42-.15-.12-.16-.59.07-.92Z"/>
                    <path class="cls-43" d="M230.26,68.13c-1.19-.37-2.73-.51-3.93-.33-2.38.34-4.97,1.53-6.49,2.56-.49.34-.25,1.85-.1,1.95.18.11.42.04.78-.16,1.87-1.05,3.58-2.22,6.44-2.82,1.04-.22,2.28-.36,2.92-.39.25-.01.96-.02,1-.09.08-.19-.19-.58-.62-.71Z"/>
                    <path class="cls-52" d="M224.47,60.57c-.07-.68,1.05-9.51,1.96-11.72,3.45-.31,8.7,1.35,11.55,4.27.69.71,2.13,5.84,2.21,6.83.44,5.29.43,10.51.49,11.56-.94.71-1.78,6.61-1.71,9.3-.15.07-1.02.27-1.21.4-.15-4.33.32-9.78-1.6-12.91-.59-.96-2.01-2.64-2.57-3.07-.51-1.79-1.15-4.77-4.33-5.61-1.01-.27-3.07-.18-4.8.94Z"/>
                    <path class="cls-27" d="M207.34,58.85c-.59,1.1.49,3.85,6.42,1.74,6.28-2.24,7.81-.67,10.73-.1-.12-1.99-1.94-8.2-8.06-6.73-6.12,1.47-8.86,4.66-9.09,5.09Z"/>
                    <path class="cls-52" d="M219.97,98.53c.1.55,1.5,1.46,2.5,1.3,1.16-.18,1.78-1.75,1.65-2.3-.05-.22-.95.15-2.09.43-1.15.28-2.11.28-2.06.57Z"/>
                    <path class="cls-43" d="M221.87,94.85c1.61-.61,3.83-2.06,4.81-3.32.1-.13.24-.45-.47-.03-2.83,1.66-5.84,3.02-9.24,3.41-.76.09-1.02.18-.89.28.74.54,3.77.43,5.79-.33Z"/>
                    <g>
                      <path class="cls-26" d="M192.66,51.02c.02-.2,2.15-7.08,10.45-9.94,9.22-3.18,25.19-4.7,30.48.39,5.8,5.58-9.76,1.83-11.52,2.15-1.73.32-25.52,7.57-26.69,8.37-1.15.79-3.98,2.14-3.97,2.02s1.25-2.99,1.25-2.99Z"/>
                      <path class="cls-9" d="M192.66,51.02c.02-.2,2.15-7.08,10.45-9.94,9.22-3.18,25.19-4.7,30.48.39,5.8,5.58-9.76,1.83-11.52,2.15-1.73.32-25.52,7.57-26.69,8.37-1.15.79-3.98,2.14-3.97,2.02s1.25-2.99,1.25-2.99Z"/>
                      <path class="cls-26" d="M195.93,74.07s-1.45.37-2.57-.8-2.91-6.06-2.02-7.35c0,0-.89.11-1.55-2.92-.64-2.95-1.1-9.01,1.3-11.56,2.44-2.6,11.84-5.98,13.48-6.44,1.68-.47,9.9-3.51,22.4-2.56,7.58.57,14.58,1.91,16.83,6.29,2.37,4.6,1.83,7.91,1.2,8.63s-2.25.23-2.25.23c0,0,2.19,1.16,2.47,2.35.28,1.19-.68,7.35-.68,7.35,0,0-6.94-1.94-10.33-3.23-3.25-1.24-17.54-4.3-25.7-1.31-7.5,2.75-12.28,6.34-12.58,11.31Z"/>
                      <path class="cls-30" d="M192.49,71.87c.87,2.34,2.56,2.34,3.2,2.25.16-.02.25-.05.25-.05-.24-1.67,1.51-7.91,13.81-11.64,13.72-4.16,34.79,4.88,34.79,4.88l.47-5.98.25-1.53c-.04-.06-2.2-1.71-2.38-2.4-.17-.16,2.11.49,2.29-.31.9-3.98-2.01-9.37-3.05-10.45.96,3.63,1.76,5.43-.04,9.29-1.47-.18-2.06-.31-3.63-.13-1.93.21-1.48,1.31.27,2.02,1.01.41,1.37,1,1.37,1,0,0-1.33,3.52-1.94,3.34-8.37-2.42-18.12-6.66-30.12-3.02-9.98,2.83-16.59,9.91-15.54,12.74Z"/>
                      <path class="cls-9" d="M195.93,74.07s-1.45.37-2.57-.8-2.91-6.06-2.02-7.35c0,0-.89.11-1.55-2.92-.64-2.95-1.1-9.01,1.3-11.56,2.44-2.6,11.84-5.98,13.48-6.44,1.68-.47,9.81-3.52,22.4-2.56,7.58.58,14.58,1.91,16.83,6.29,2.37,4.6,1.83,7.91,1.2,8.63s-2.25.23-2.25.23c0,0,2.19,1.16,2.47,2.35.28,1.19-.68,7.35-.68,7.35,0,0-7.57-2.19-10.93-3.47-3.22-1.23-16.93-4.07-25.09-1.07-7.5,2.75-12.28,6.34-12.58,11.31Z"/>
                      <path class="cls-9" d="M191.32,65.96s.42-.9.91-1.13"/>
                      <path class="cls-30" d="M227.93,45.98c1.04-.02,2.09,0,3.14.07.39.02.55-.59.17-.68-.01,0-.02,0-.03,0-12.18-2.98-25.09-.17-36.67,8.44-.4.29-.13,1.12.28.84,11.09-7.67,22.97-8.45,33.11-8.66Z"/>
                      <path class="cls-30" d="M206.64,57.09c5.68-1.75,11.96-1.77,18.38-.54,1.93.37,3.9.85,5.87,1.41.5.14,1.01.29,1.53.45.21.06.35-.25.16-.36h-.01c-1.38-.78-2.81-1.47-4.23-2.05-8.93-3.69-18.54-3.31-26.14.87-2.37,1.3-4.57,2.92-6.46,4.89,0,0-.01.01-.02.02-.19.2,0,.57.22.42,1.9-1.37,5.38-3.46,10.72-5.11Z"/>
                    </g>
                  </g>
                  <g>
                    <g>
                      <path class="cls-28" d="M213.38,82.86c-1.8,2.23-7.45,2.97-9.42,2.06-.03-.07.05-.08.02-.15l-.24-.05c-.39-2.16-1.01-4.99,1.21-6.11,5.12-2.58,7.93,1.65,8.44,4.24Z"/>
                      <path class="cls-25" d="M213.38,82.86c-1.34,2.58-7.44,2.99-9.39,2.19-.03-.06-.07-.13-.1-.19h0c-.35-1.99-.91-4.4,1.33-5.44,4.72-2.18,6.8.87,8.16,3.44Z"/>
                    </g>
                    <g>
                      <path class="cls-28" d="M222.04,80.44c2.95,1.11,9.06-1.18,10.62-3.05,0-.08-.09-.05-.09-.13l.22-.17c-.69-2.2-1.48-5.14-4.3-5-6.5.31-7.24,5.69-6.45,8.35Z"/>
                      <path class="cls-25" d="M222.04,80.44c2.66,1.67,9.07-1.16,10.65-2.92,0-.08,0-.15,0-.23h0c-.64-2.02-1.28-4.54-4.08-4.32-5.89.47-6.48,4.38-6.57,7.47Z"/>
                    </g>
                    <g class="cls-42">
                      <path class="cls-38" d="M203.77,77.81c1.26-1.69,3.94-2,5.76-1.13-1.98-.01-4,.15-5.76,1.13h0Z"/>
                    </g>
                    <g class="cls-42">
                      <path class="cls-38" d="M228.87,70.97c-2.28.18-4.36,1.17-6.31,2.31,1.4-1.81,4.06-3,6.31-2.31h0Z"/>
                    </g>
                  </g>
                  <path class="cls-28" d="M205.31,80.23c-1.04.97-1.14,2.78-.18,4.07.96,1.28,2.55,1.52,3.6.56,1.05-.96,1.12-2.78.18-4.07-.95-1.29-2.55-1.54-3.6-.56Z"/>
                  <path class="cls-25" d="M204.93,81.18c-.29.28-.32.79-.06,1.14.24.35.7.43.99.15.29-.28.32-.79.06-1.14s-.72-.42-.99-.15Z"/>
                  <path class="cls-28" d="M223.59,75.64c-1.23,1.02-1.41,2.86-.37,4.12,1.05,1.26,2.86,1.44,4.11.43,1.24-1.01,1.4-2.86.37-4.12-1.04-1.27-2.86-1.46-4.1-.43Z"/>
                  <path class="cls-25" d="M223.05,76.63c-.34.29-.4.81-.11,1.15.26.35.78.4,1.13.11.34-.29.4-.81.11-1.15s-.81-.39-1.13-.11Z"/>
                  <path class="cls-39" d="M217.17,85.72s.8,1.97,1.99,1.7c.22-.05.2-.35.43-.46s.56-.07.77.35c.34.7-.78,1.65-2.31.71-1.06-.65-1.02-1.85-.89-2.3Z"/>
                  <path class="cls-52" d="M216.33,86.44c.15,1.25,1.46,2.14,2.69,2.11.08,0,.17,0,.25-.02.19-.02.19-.29,0-.33-.87-.15-1.62-.71-1.98-1.52-.35-.72-.1-1.43.42-2,.34-.38.76-.62,1.24-.81.15-.06.1-.28-.06-.27h0c-.91.03-2.8.84-2.57,2.84Z"/>
                </g>
              </g>
              <g>
                <ellipse class="cls-29" cx="156.67" cy="254.81" rx="26.44" ry="4.21"/>
                <g>
                  <g>
                    <path class="cls-53" d="M152.5,253.42c-.44.61-2.21,1.08-4.32,1.26-.37.03-.74.06-1.12.08-2.56.1-3.9-.92-5.44-2.26-1.54-1.33-2.16-.82-2.67-2.16-.52-1.33.27-4.75.61-5.13,1.85-2.05,8.11-.72,8.52-.51.41.2.31,2.97,1.03,4,.02.03.04.06.07.09.82,1.1,3.82,3.94,3.32,4.64Z"/>
                    <path class="cls-19" d="M152.5,253.42c-.44.61-2.21,1.08-4.32,1.26-2.34-1.44-4.84-3.71-4.2-4.64.64-.93,3.36-1.16,5.2-1.25.82,1.1,3.82,3.94,3.32,4.64Z"/>
                    <path class="cls-2" d="M152.5,253.42c-.44.61-2.21,1.08-4.32,1.26-.37.03-.74.06-1.12.08-2.56.1-3.9-.92-5.44-2.26-1.54-1.33-2.16-.82-2.67-2.16-.52-1.33.27-4.75.61-5.13,1.85-2.05,8.11-.72,8.52-.51.41.2.31,2.97,1.03,4,.02.03.04.06.07.09.82,1.1,3.82,3.94,3.32,4.64Z"/>
                    <path class="cls-53" d="M170.93,253.94c-.44.61-2.21,1.08-4.32,1.26-.37.03-.74.06-1.12.08-2.56.1-3.9-.92-5.44-2.26-1.54-1.33-2.16-.82-2.67-2.16-.52-1.33.27-4.75.61-5.13,1.85-2.05,8.11-.72,8.52-.51.41.2.31,2.97,1.03,4,.02.03.04.06.07.09.82,1.1,3.82,3.94,3.32,4.64Z"/>
                    <path class="cls-19" d="M170.93,253.94c-.44.61-2.21,1.08-4.32,1.26-2.34-1.44-4.84-3.71-4.2-4.64.64-.93,3.36-1.16,5.2-1.25.82,1.1,3.82,3.94,3.32,4.64Z"/>
                    <path class="cls-2" d="M170.93,253.94c-.44.61-2.21,1.08-4.32,1.26-.37.03-.74.06-1.12.08-2.56.1-3.9-.92-5.44-2.26-1.54-1.33-2.16-.82-2.67-2.16-.52-1.33.27-4.75.61-5.13,1.85-2.05,8.11-.72,8.52-.51.41.2.31,2.97,1.03,4,.02.03.04.06.07.09.82,1.1,3.82,3.94,3.32,4.64Z"/>
                  </g>
                  <g>
                    <path class="cls-36" d="M142.91,227.06c2.63,1.59,5.61,2.61,8.67,2.93,1.04-1.99,2.08-3.96,2.97-5.96-3.25-2.03-8.27-1.29-10.76,1.8-.33.39-.63.81-.88,1.23Z"/>
                    <path class="cls-35" d="M148.73,245.48c-.07.07-2.18,1.43-5.2.87-3.02-.55-4.26-2.54-4.26-2.54l.09-13.83,11.79,3.43-2.42,12.06Z"/>
                    <path class="cls-6" d="M148.73,245.48c-.07.07-2.18,1.43-5.2.87-3.02-.55-4.26-2.54-4.26-2.54l.09-13.83,11.79,3.43-2.42,12.06Z"/>
                  </g>
                  <g>
                    <path class="cls-36" d="M159.84,228.73c2.9,1.03,6.02,1.43,9.09,1.13.62-2.16,1.24-4.3,1.72-6.43-3.59-1.33-8.36.39-10.19,3.92-.25.45-.45.91-.62,1.38Z"/>
                    <path class="cls-35" d="M167.23,245.71c-.06.09-1.43,1.17-4.49,1.23-3.07.06-5.08-1.76-5.08-1.76l-.7-12.87,12.24,1-1.97,12.4Z"/>
                    <path class="cls-6" d="M167.23,245.71c-.06.09-1.43,1.17-4.49,1.23-3.07.06-5.08-1.76-5.08-1.76l-.7-12.87,12.24,1-1.97,12.4Z"/>
                  </g>
                  <g>
                    <path class="cls-56" d="M147.11,172.73c1.75,7.19,13.84,8.85,14.41.14-1.44.02-2.44-.39-3.07-1.12-.67-.78-.92-1.92-.86-3.32-2.1-1-4.8-.91-7.06.16.4,1.43.19,2.47-.47,3.14-.62.64-1.65.96-2.95.99Z"/>
                    <path class="cls-23" d="M150.05,171.75c2.75.55,5.63.56,8.4,0-.67-.78-.92-1.92-.86-3.32-2.1-1-4.8-.91-7.06.16.4,1.43.19,2.47-.47,3.14Z"/>
                  </g>
                  <g>
                    <path class="cls-23" d="M173.39,201.3c3.61,1.39,7.7,1.78,11.46,2.19,1.16-1.69,1.58-3.87,1.16-5.89-1.11-.05-2.12-.23-3.05-.51-1.5,1.78-3.62,3.02-5.87,3.65-1.21.34-2.45.51-3.71.56Z"/>
                    <path class="cls-6" d="M173.39,201.3c3.61,1.39,7.7,1.78,11.46,2.19,1.16-1.69,1.58-3.87,1.16-5.89-1.11-.05-2.12-.23-3.05-.51"/>
                    <path class="cls-48" d="M183.27,201.82c.18,3.13,3.93,3.95,6.23,5.43.21.14.5.02.56-.22.5-1.91-1.76-1.81-1.68-3.15.01-.17.12-.33.28-.39,1.47-.57,3.56-.53,4.68.83.2.24.42.46.68.62.91.59,2.07.84,1.62-.34-.14-.44-.52-.73-.65-1.23.37-1.15.53-2.52-.41-3.6.48-1.4-.68-3.12-1.9-3.8-.65-.32-1.42-.39-2-.23-.51.02-1.03.05-1.54.11-1.2.13-2.37.5-3.41,1.11-2.17,1.29-2.61,2.85-2.47,4.86Z"/>
                    <path class="cls-6" d="M183.55,203.01c.93,2.18,3.98,2.96,5.96,4.23.21.14.5.02.56-.22.5-1.91-1.76-1.81-1.68-3.15.01-.17.12-.33.28-.39,1.47-.57,3.56-.53,4.68.83.2.24.42.46.68.62.91.59,2.07.84,1.62-.34-.14-.44-.52-.73-.65-1.23.37-1.15.53-2.52-.41-3.6.48-1.4-.68-3.12-1.9-3.8-.65-.32-1.42-.39-2-.23-.51.02-1.03.05-1.54.11-1.2.13-2.37.5-3.41,1.11-.46.27-.84.56-1.15.86"/>
                    <g>
                      <path class="cls-52" d="M191.05,200.02c1.78.12,3.45,1.52,3.88,3.25-.95-1.45-2.28-2.57-3.88-3.25h0Z"/>
                      <path class="cls-52" d="M191.56,197.85c1.17,0,2.37.76,2.85,1.83-.48-.33-.91-.66-1.39-.97-.48-.31-.96-.57-1.46-.86h0Z"/>
                      <path class="cls-52" d="M191.38,196.41c.73-.13,1.48.15,2.04.61.19.16.35.34.47.56-.23-.09-.44-.19-.65-.29-.58-.29-1.29-.58-1.87-.88h0Z"/>
                      <path class="cls-52" d="M183.18,200.48c-.25-1.01.39-2.2,1.38-2.54-.6.79-1.05,1.6-1.38,2.54h0Z"/>
                    </g>
                  </g>
                  <g>
                    <path class="cls-35" d="M162.25,173.07c.29.71.5,1.46.67,2.22.2.9.35,1.83.5,2.75.1.6.19,1.2.31,1.78.01.07.03.13.04.2.74,3.67-.12,9.68-.12,9.68,0,0,.38,1.03.99,2.46,1.15,2.67,3.11,6.75,4.99,8.14,2.88,2.14,12.63,4.62,12.63,4.62-.19-.87-.26-1.7-.23-2.46.12-3.65,2.3-5.94,2.3-5.94-2.63-.64-9.53-4.93-9.8-5-.28-.07-1.18-2.94-1.18-2.94-.98-1-4.64-10.7-6-12.43-1.15-1.44-3.25-2.51-5.08-3.08Z"/>
                    <path class="cls-6" d="M162.25,173.07c.29.71.5,1.46.67,2.22.2.9.35,1.83.5,2.75.1.6.19,1.2.31,1.78.01.07.03.13.04.2.74,3.67-.12,9.68-.12,9.68,0,0,.38,1.03.99,2.46,1.15,2.67,3.11,6.75,4.99,8.14,2.88,2.14,12.63,4.62,12.63,4.62-.19-.87-.26-1.7-.23-2.46.12-3.65,2.3-5.94,2.3-5.94-2.63-.64-9.53-4.93-9.8-5-.28-.07-1.18-2.94-1.18-2.94-.98-1-4.64-10.7-6-12.43-1.15-1.44-3.25-2.51-5.08-3.08Z"/>
                    <path class="cls-40" d="M173.89,191.15s-.05,0-.1.01c.08,0,.12,0,.1-.01Z"/>
                    <path class="cls-40" d="M162.92,175.29c.19.88.34,1.81.5,2.75.08.47.16.95.24,1.42.02.12.04.24.07.36.73,3.74,2,7.35,3.26,10.95,0,0-1.55.64-2.35,1.39,1.15,2.67,3.11,6.75,4.99,8.14,2.88,2.14,12.63,4.62,12.63,4.62-.19-.87-.26-1.7-.23-2.46-.23,0-10.42-2.56-11.18-3.24-.76-.68-1.12-5.74-.42-6.22.64-.43,2.86-1.68,3.37-1.84-.48-.04-2.44-.4-2.44-.4l-2.26-3.68c-1.27-1.31-2.08-4.02-2.79-5.7-.72-1.68-1.37-3.41-2.41-4.91-.29-.42-.61-.82-.97-1.19Z"/>
                  </g>
                  <path class="cls-35" d="M141.43,194.56c8.57-.1,17.13-1.62,25.14-4.38-.02-5.73-1.25-11.42-3.49-16.68-.91-.53-1.88-.94-2.91-1.25-.32-.1-.65-.19-.98-.27.65,1.64-.42,3.58-1.97,4.27-3.28,1.36-6.78-1.35-8.3-4.16-3.08.48-6.17,1.65-8.33,3.97,1.63,6.06,1.89,12.22.84,18.5Z"/>
                  <path class="cls-35" d="M141.43,194.56c8.57-.1,17.13-1.62,25.14-4.38-.02-5.73-1.25-11.42-3.49-16.68-.91-.53-1.88-.94-2.91-1.25-.32-.1-.65-.19-.98-.27.65,1.64-.42,3.58-1.97,4.27-3.28,1.36-6.78-1.35-8.3-4.16-3.08.48-6.17,1.65-8.33,3.97,1.63,6.06,1.89,12.22.84,18.5Z"/>
                  <path class="cls-6" d="M163.08,173.49c-.91-.53-1.88-.94-2.91-1.25-.32-.1-.65-.19-.98-.27.65,1.64-.42,3.58-1.97,4.27-3.28,1.36-6.78-1.35-8.3-4.16-3.08.48-6.17,1.65-8.33,3.97,1.63,6.06,1.89,12.22.84,18.5,8.57-.1,17.13-1.62,25.14-4.38"/>
                  <g>
                    <path class="cls-21" d="M132.34,190.35c.02.17.05.33.09.5,0,0,0,0,0,0,.42,1.66,2.07,3.27,3.77,3.73.52.14,1.03.18,1.53.07.03-.04.06-.09.09-.13,2.61-3.89,3.61-4.83,5.34-7.12-.25-2.74-4.76-4.13-7.17-2.87-.99,1.97-2.23,3.95-3.63,5.81,0,0,0,0,0,0Z"/>
                    <path class="cls-15" d="M124.04,205.24c.42,1.85,2.51,3.25,4.59,3.11.91-5.48,7.16-8.32,8.94-13.1.09-.24.17-.48.23-.73.21-.77.29-1.6.22-2.5-.1-.76-1.58-3.48-4.67-2.31-.35.14-.69.36-1.02.63-.04.04-.09.08-.13.12-2.85,2.58-4.85,9.92-8.16,14.78Z"/>
                    <path class="cls-6" d="M124.04,205.24c.42,1.85,2.51,3.25,4.59,3.11.91-5.48,7.16-8.32,8.94-13.1.09-.24.17-.48.23-.73.21-.77.29-1.6.22-2.5-.1-.76-1.58-3.48-4.67-2.31-.35.14-.69.36-1.02.63-.04.04-.09.08-.13.12-2.85,2.58-4.85,9.92-8.16,14.78Z"/>
                    <path class="cls-23" d="M132.21,190.46c.07.13.14.26.22.39,0,0,0,0,0,0,.43.74.96,1.43,1.58,2.04.65.66,1.39,1.22,2.19,1.69.44.26.9.48,1.38.67.09-.24.17-.48.23-.73,2.61-3.89,3.61-4.83,5.34-7.12-.25-2.74-4.76-4.13-7.17-2.87-.99,1.97-2.23,3.95-3.63,5.81-.04.04-.09.08-.13.12Z"/>
                    <path class="cls-45" d="M128.21,206.57c1.91,2.49-.4,5.56-1.17,8.18-.07.24-.36.34-.57.2-1.63-1.12.15-2.52-.78-3.48-.12-.13-.31-.17-.47-.11-1.49.53-3.04,1.92-3,3.69,0,.31-.02.62-.11.91-.3,1.04-1.02,1.99-1.45.81-.18-.42-.08-.89-.32-1.36-1.03-.63-2.05-1.55-2.05-2.99-1.28-.75-1.53-2.8-1.05-4.12.29-.67.82-1.22,1.37-1.48.4-.32.81-.63,1.24-.92,1-.68,2.12-1.18,3.31-1.39,2.48-.44,3.84.46,5.05,2.07Z"/>
                    <path class="cls-6" d="M128.78,207.66c.72,2.26-1.08,4.84-1.75,7.1-.07.24-.36.34-.57.2-1.63-1.12.15-2.52-.78-3.48-.12-.13-.31-.17-.47-.11-1.49.53-3.04,1.92-3,3.69,0,.31-.02.62-.11.91-.3,1.04-1.02,1.99-1.45.81-.18-.42-.08-.89-.32-1.36-1.03-.63-2.05-1.55-2.05-2.99-1.28-.75-1.53-2.8-1.05-4.12.29-.67.82-1.22,1.37-1.48.4-.32.81-.63,1.24-.92,1-.68,2.12-1.18,3.31-1.39.52-.09,1-.13,1.43-.11"/>
                    <g>
                      <path class="cls-52" d="M121.14,210.29c-1.27,1.26-1.62,3.41-.81,5-.23-1.72.05-3.44.81-5h0Z"/>
                      <path class="cls-52" d="M119.34,208.98c-.89.76-1.29,2.12-.96,3.25.14-.56.26-1.1.42-1.64.16-.55.36-1.06.54-1.61h0Z"/>
                      <path class="cls-52" d="M118.53,207.78c-.63.38-1.02,1.08-1.15,1.79-.04.24-.04.49,0,.73.12-.22.21-.43.3-.64.25-.6.6-1.28.84-1.88h0Z"/>
                      <path class="cls-52" d="M127.4,205.5c-.47-.93-1.73-1.41-2.7-1.02.97.2,1.84.53,2.7,1.02h0Z"/>
                    </g>
                    <path class="cls-52" d="M172.68,192.25c-.94-.37-2.17.05-2.67.94.87-.42,1.72-.73,2.67-.94h0Z"/>
                  </g>
                  <g>
                    <path class="cls-35" d="M129.02,229.2c2.84,6.56,7.03,6.37,12.08,7.47,1.65.58,3.12,1.71,4.73,2.44,10.58,3.77,22.92-3.42,32.23-9.28.37-.26.53-.82.38-1.3-2.85-9.13-5.49-18.42-7.92-27.64-1.51-5.73-2.95-11.48-4.32-17.25-.3-1.53-1.05-3.54-2.57-3.34-4.53-.13-9.08.38-13.56,1.37-1.87.04-3.52,4.16-4.63,6.12-1.52,2.64-3.63,2.16-3.98,6.02-2.38,12.55-8.06,23.76-12.44,35.4Z"/>
                    <path class="cls-40" d="M177.25,226.69c.27,1.11.52,2.32.39,3.43.14-.1.28-.19.42-.29.37-.26.53-.82.38-1.3-2.87-9.21-5.49-18.41-7.92-27.64,1.4,8.81,4.61,17.16,6.73,25.81Z"/>
                    <path class="cls-40" d="M129.02,229.2c1.45,3.21,3.56,5.35,6,6.21,1.98.7,4.11.56,6.09,1.26,1.65.58,3.12,1.71,4.73,2.44,3.08,1.4,6.48,1.25,9.74.7.7-.12,1.39-.25,2.08-.41-2.33-.42-4.6-1.3-6.67-2.65-3.35-2.19-6.17-5.68-7.72-9.91-1.84-5.02-1.84-10.74-1.46-16.21.53-7.74,1.76-15.41,3.64-22.84-.36.6-.77,1.15-1.26,1.6-.62.55-1.36.93-1.85,1.64-.53.77-.7,1.8-.87,2.78-1.34,7.59-4.15,14.65-6.94,21.63-1.83,4.59-3.67,9.18-5.5,13.76Z"/>
                    <path class="cls-40" d="M169.08,212.67c1.61,6.75,2.67,13.68,3.17,20.68.06-.04.13-.07.19-.11.83-.46,1.66-.93,2.48-1.41-2.4-6.16-4.13-12.67-5.85-19.16Z"/>
                    <g>
                      <path class="cls-52" d="M150.55,206.63c1.74,3.45,4.2,6.41,6.96,8.68,2.15,1.74,4.56,3.15,7.06,3.93-2.74-1.27-5.37-2.99-7.74-5.11-2.36-2.13-4.48-4.68-6.28-7.5h0Z"/>
                      <path class="cls-52" d="M166.75,223.42c-3.09,1.25-6.33,2.06-9.57,2.34-3.24.28-6.54.05-9.75-.65,2.75.95,5.68,1.31,8.54,1.22,3.68-.16,7.41-1.09,10.77-2.91h0Z"/>
                    </g>
                    <path class="cls-6" d="M141.46,193.8c-2.38,12.55-8.06,23.76-12.44,35.4,2.84,6.56,7.03,6.37,12.08,7.47,1.65.58,3.12,1.71,4.73,2.44,10.58,3.77,22.92-3.42,32.23-9.28.37-.26.53-.82.38-1.3-2.85-9.13-5.49-18.42-7.92-27.64-1.51-5.73-2.95-11.48-4.32-17.25"/>
                  </g>
                  <g>
                    <path class="cls-35" d="M132.88,187.19c1.84-3.64,4.88-10.32,8.84-11.79,3.97-.64,5.32,4.16,4.81,7.22-.53,3.61-2.4,6.91-4.02,10.12,0,0-4.85,7.72-5.92,9.55-1.08,1.83-5.98,6.75-5.98,6.75,0,0-1.37-5.18-5.92-5.81l8.19-16.03Z"/>
                    <path class="cls-6" d="M146.54,182.62c-.53,3.61-2.4,6.91-4.02,10.12,0,0-4.85,7.72-5.92,9.55-1.08,1.83-5.98,6.75-5.98,6.75,0,0-1.37-5.18-5.92-5.81l8.19-16.03c1.84-3.64,4.88-10.32,8.84-11.79"/>
                    <path class="cls-40" d="M137.76,192.29c.79.29,1.61.52,2.37.7.82.22,1.83.39,2.39-.25,2.04-4.04,5.38-9.85,3.63-14.32.55,3.04-.09,6.28-1.78,8.87-1.54,2.36-3.93,4.15-6.62,5Z"/>
                    <g>
                      <path class="cls-52" d="M145.96,177.62c.81,2.42.62,5.03-.08,7.44-.7,2.44-1.92,4.68-3,6.97,1.04-1.61,2.01-3.27,2.75-5.04,1.22-2.92,1.76-6.43.34-9.37h0Z"/>
                      <path class="cls-52" d="M148.03,180.45c-.35.8-.69,1.52-1.08,2.29.82-.38,1.31-1.42,1.08-2.29h0Z"/>
                      <path class="cls-52" d="M160.34,173.82c-1,3.43-4.9,4.4-7.88,2.89-.97-.47-1.84-1.15-2.6-1.94,1.26,1.83,3.44,3.12,5.7,3.04,2.29-.04,4.49-1.64,4.78-3.99h0Z"/>
                      <path class="cls-52" d="M140.71,191.28c-1.76-1.03-3.13-2.64-3.82-4.55-.23-.63-.38-1.3-.47-1.98-.08.69-.02,1.4.16,2.08.54,2.02,2.1,3.84,4.12,4.46h0Z"/>
                      <path class="cls-52" d="M170.15,182.31c.05,2.16-.4,4.21-1.33,6.16,1.43-1.63,1.96-4.09,1.33-6.16h0Z"/>
                      <path class="cls-52" d="M144.94,176.14c-.42-.88-1.61-1.33-2.51-.94.9.21,1.7.5,2.51.94h0Z"/>
                    </g>
                  </g>
                </g>
                <g>
                  <path class="cls-40" d="M162.85,176.33s-.23,1.15-1.19,3.62c-.96,2.47-2.34,5.3-11.27,1.44-8.93-3.86-13.67-.46-13.67-.46,1.19-3.38,6.54-3.62,11.65-2.28,2.15.57,3.41,1.01,7.4,2.57,5.08,1.99,5.38-4.44,6.85-6.06.01.44.24,1.17.24,1.17Z"/>
                  <g>
                    <g>
                      <path class="cls-51" d="M165.28,167.17h0c-.17.08-.33.16-.5.24,0,0,0,0,0,0-2.42,1.14-5.1,1.91-7.87,2.14-14.5,1.22-19.77-4.86-20.47-6.16-1.22.63-2.36.97-3.43,1.07-6.85.63-10.28-8.52-6.23-11.54.39-.29.85-.53,1.38-.69-1.86-22.19,9.87-29.17,20.42-30.06,1.16-.1,3-.08,5.17.21.08.01.16.02.24.03,7.64,1.09,19.06,5.56,18.96,19.99-.04,5.13,1.6,5.97,2.21,11.46.54,4.87-3.77,10.25-9.89,13.29Z"/>
                      <path class="cls-23" d="M165.28,167.17h0c-.17.08-.33.16-.5.24,8.55-5.76,10.38-11.82,8.52-17.07-1.86-5.25-1.26-7.18-1.61-11.29-1.09-12.93-18-16.48-18-16.48,0,0,.11-.05.31-.15,7.64,1.09,19.06,5.56,18.96,19.99-.04,5.13,1.6,5.97,2.21,11.46.54,4.87-3.77,10.25-9.89,13.29Z"/>
                      <path class="cls-23" d="M165.28,167.17c-2.55,1.27-5.41,2.13-8.37,2.38-14.5,1.22-19.77-4.86-20.47-6.16-1.22.63-2.36.97-3.43,1.07-1.97-1.65-3.46-3.16-4.2-4.22-1.03-1.47-1.76-4.08-2.03-7.32.39-.29.85-.53,1.38-.69-1.86-22.19,9.87-29.17,20.42-30.06,1.16-.1,3-.08,5.17.21-.04.12-.07.18-.07.18,0,0-5.17,1.01-9.96,5.33-4.79,4.32-10.22,13.8-5.95,29.16,4.15,14.89,27.23,10.18,27.49,10.11Z"/>
                      <path class="cls-11" d="M136.01,136.8s19.63-18.31,33.79-5.47c0,0-5.83-8.98-15.67-8.77-13.6.29-18.12,14.24-18.12,14.24Z"/>
                      <path class="cls-12" d="M136.01,136.8s19.63-18.31,33.79-5.47c0,0-5.83-8.98-15.67-8.77-13.6.29-18.12,14.24-18.12,14.24Z"/>
                      <path class="cls-1" d="M175.17,153.88c.77,6.9-8.22,14.83-18.26,15.68-14.5,1.22-19.77-4.86-20.47-6.16-9.79,5.09-15.2-9.05-8.28-11.16-1.86-22.19,9.87-29.17,20.43-30.06,5.26-.44,24.5,1.52,24.37,20.24-.04,5.13,1.6,5.97,2.21,11.46Z"/>
                    </g>
                    <g>
                      <path class="cls-13" d="M174.62,138.94c-1.04,6.22.24,11.5.24,11.5,0,0,2.1,6.99-3.04,11.85,2.35-2.61,3.66-5.6,3.35-8.42-.61-5.49-2.25-6.34-2.21-11.46.02-2.44-.3-4.6-.86-6.5,0,0,0,0,0,0-2.55-8.54-10.26-11.98-16.42-13.2h-.01s-.05-.01-.08-.02c-.04,0-.08-.02-.12-.02-4.42-.78-18.53,2.6-20.76,20.6-.59,4.75-.45,8.74.29,12.12,1.13,5.17,3.67,8.92,7.2,11.78.49.4,1,.78,1.52,1.14h0c1.72.58,3.78,1.04,6.24,1.26,0,0,0,0,0,0,2.04.18,4.35.2,6.95-.02.48-.04.96-.1,1.44-.17.1-.01.19-.03.29-.05,1.78-.29,3.51-.8,5.14-1.48-.93.49-1.77.83-3.28,1.63-.5.26-.17.46.43.78.42.21.96.48,1.45.85.9.68.42,1.28.05,1.58-.75.59,2.31-.01.05,2.48-1.47,1.62-1.77,8.05-6.85,6.06-3.99-1.56-5.25-2-7.4-2.57-3.41-.9-6.19-1.16-8.56-.27-1.18.44-2.69,1.43-3.08,2.55.13-.41,1.35-5.09,3.51-5.79,0,0-1.01-1.31.43-2.19,1.07-.65,2.75-.6,2.75-.6,0,0-3.88-.78-7.93-2.41-8.1-3.24-19.3-11.54-18.35-35.65.72-18.31,15.98-23.83,20.48-25.24,4.5-1.41,18.84-1.76,27.74,5.47,6.05,4.92,7.46,12.05,7.46,12.05l.05.64s2.93,5.47,1.89,11.69Z"/>
                      <path class="cls-14" d="M175.08,135.53c.02,1.99-.25,3.96-.51,5.91-.23,1.94-.31,3.88-.11,5.83.11,1.27.25,2.55.24,3.82,0,0,0,0-.01.01-1.14-4.6-2.46-5.59-1.67-12.32,1.06-9.05-3.38-14.98-3.38-14.98.04-.07.08-.13.12-.19.01,0,.02.01.03.02.35.29.72.62,1.08.97,2.93,2.9,4.2,6.86,4.2,10.93Z"/>
                      <path class="cls-14" d="M172.09,135.9c-2.55-8.54-10.26-11.98-16.42-13.2h-.01s-.05-.01-.08-.02c-.04,0-.08-.02-.12-.02-4.42-.78-18.53,2.6-20.76,20.6-.59,4.75-.45,8.74.29,12.12,0,0-4.39-4.54-3.24-15.19.85-7.82,4.07-19.52,19.05-19.97,4.26-.13,17.36.44,21.29,15.68Z"/>
                      <path class="cls-14" d="M169.41,119.63c-1.44-1.41-3.6-2.27-5.96-2.62-.16-.02-.31.19-.16.25h.01c.69.26,1.4.55,2.04.88,3.66,1.79,5.82,4.87,6.69,8.53.06.26.57.09.56-.19-.06-1.7-.55-4.27-3.17-6.84Z"/>
                      <path class="cls-14" d="M162.32,172.35c-.82.54-2.33,1.55-3.18,4.47-.16.55.14-.13.45-.67.76-1.3,2.17-2.96,3.05-2.73,0,0-.02-1.27-.33-1.06Z"/>
                      <path class="cls-14" d="M160.92,170.26c-.29.09-.46.14-.46.14-1.51-.84-6.89,1.26-12.85.27-5.33-.88-12.68-3.56-16.14-14.74-1.21-3.93-1.07-4.24-.9-4.26.44-.04,1.75,4.51,4.53,8.81,2.15,3.34,5.65,6.11,8.1,7.38,2.23,1.16,3.79,1.32,6.75,1.7,0,0,0,0,0,0,2.51.32,5.3.3,8.39-.19.1-.01.19-.03.29-.05,1.78-.29,3.51-.8,5.14-1.48-.93.49-1.77.83-3.28,1.63-.5.26-.17.46.43.78Z"/>
                      <path class="cls-14" d="M147.26,178.29c-.03-.39,5.29.48,8.14,1.78,2.73,1.24,4.86-.84,5.86-3.27,0,0-.52,2.37-1.55,3.74-1.03,1.35-3.18,1.01-6.32-.39-2.36-1.05-6.12-1.86-6.12-1.86Z"/>
                      <path class="cls-14" d="M146.97,176.03c.22.1.1.43-.13.37-2.87-.8-6.72-1.77-8.6,1.87-.58,1.12-1.26,1.64-1.67,2.7,0,0,0-.01,0-.02.13-.41,1.35-5.09,3.51-5.79,0,0-1.01-1.31.43-2.19,1.07-.65,2.75-.6,2.75-.6,0,0-1.93.39-2.56,1.12-.29.34-.02,1.16.71,1.17,1.44.03,3.06.29,5.55,1.36Z"/>
                      <path class="cls-14" d="M149.71,174.35c.9.69.86,1.17.55.97-2.44-1.54-4.74-2.49-6.94-2.62-.26-.45-6.84-1.29-13.08-5.37-5.27-3.44-10.2-9.36-11.91-17.69,0,0,5.67,15.43,20.69,19.3,1.42.37,4.02.9,5.78,1.54.28.1.79.29,1.03.45.13.08.03.28-.11.23-.89-.31-2.32-.67-3.67-.4-.57.11-.4.58.7.83,2.19.5,3.83.36,6.96,2.76Z"/>
                      <path class="cls-1" d="M174.62,138.94c-1.04,6.22.24,11.5.24,11.5,0,0,2.1,6.99-3.04,11.85,2.35-2.61,3.66-5.6,3.35-8.42-.61-5.49-2.25-6.34-2.21-11.46.1-13.41-9.75-18.22-17.28-19.71h-.01s-.05-.01-.08-.02c-.04,0-.08-.02-.12-.02-4.42-.78-18.53,2.6-20.76,20.6-1.61,13.01,2.21,20.33,9.01,25.04h0c3.14,1.06,7.44,1.73,13.2,1.25,2.39-.2,4.71-.8,6.86-1.69-.93.49-1.77.83-3.28,1.63-.84.44.68.72,1.88,1.63.9.68.42,1.28.05,1.58-.75.59,2.31-.01.05,2.48-1.47,1.62-1.77,8.05-6.85,6.06-3.99-1.56-5.25-2-7.4-2.57-5.12-1.35-10.48-1.1-11.65,2.3.09-.28,1.32-5.1,3.51-5.81,0,0-1.01-1.31.43-2.19,1.07-.65,2.75-.6,2.75-.6,0,0-3.88-.78-7.93-2.41-8.1-3.24-19.3-11.54-18.35-35.65.72-18.31,15.98-23.83,20.48-25.24,4.5-1.41,18.84-1.76,27.74,5.47,6.05,4.92,7.46,12.05,7.46,12.05l.05.64s2.93,5.47,1.89,11.69Z"/>
                      <path class="cls-14" d="M175.08,135.53c.02,1.99-.25,3.96-.51,5.91-.23,1.94-.31,3.88-.11,5.83.11,1.27.25,2.55.24,3.82,0,.04,0,.07,0,.11,0-.03,0-.06-.01-.1-.08-.62-.16-1.23-.27-1.85-.27-1.55-.77-3.25-.78-4.81-.05-1.65-.04-3.31.14-4.94.5-4.43.59-9.32-2.02-13.11-.63-.92-1.34-1.8-2.12-2.6-.09-.09.02-.23.12-.19.01,0,.02.01.03.02.35.29.72.62,1.08.97,2.93,2.9,4.2,6.86,4.2,10.93Z"/>
                      <path class="cls-14" d="M119.8,136.43c.44-3.94,2.17-7.76,4.56-10.92.17-.22.51-.01.39.24v.02c-.58,1.19-1.14,2.45-1.59,3.69-2.65,7.01-2.5,14.55-.41,21.64.15.5-.57.77-.8.3-1.36-2.92-2.97-7.78-2.16-14.96Z"/>
                      <path class="cls-14" d="M149.43,172.93c-.17-.08-.08-.34.1-.29,2.34.6,3.98,1.32,6.18,2.38,2,.96,1.81-3.09,4.57-3.21.16,0,.23.19.1.28-.34.24-.82.66-1.29,1.38-.49.76-.78,1.91-1.32,3.36-.6,1.59-2.41-.85-5.2-2.35-1.07-.57-2.25-1.14-3.15-1.55Z"/>
                      <path class="cls-14" d="M141.32,111.61c3.46-1.19,7.2-1.03,10.56.33,1.2.49,2.58,1.14,3.89,1.92.26.15.06.55-.22.43-1.23-.5-2.55-1.01-3.82-1.39-3.56-1.06-8.29-1.04-11.96.6-2.7,1.29-4.96,3.33-6.92,5.61-.26.31-.73-.05-.51-.38,1.58-2.4,4.41-5.56,8.97-7.12Z"/>
                      <path class="cls-14" d="M136.43,168.13s-2.9-1.28-4.97-4.24c-4.09-5.86-8.26-17.29-3.56-31.3.12-.34-.07-.72-.41-.84h0c-.33-.12-.69.04-.83.36-1.3,3.01-7.15,17.88,2.38,32.53,0,0,3.81,4.45,7.38,3.49Z"/>
                    </g>
                  </g>
                  <g>
                    <g>
                      <path class="cls-22" d="M164.55,160.83c-.45.55-.88,1.04-1.32,1.46-1.21,1.14-2.47,1.75-4.32,1.72-.93-.02-1.84-.24-2.68-.65-.95-.47-1.78-1.19-2.43-1.95-.26-.3-.49-.61-.69-.91-.02-.02-1.6-2.37-1.09-3.05.21-.28.45-.24.57-.21.4.09.88.24,1.55.41.4.11.85.23,1.32.33,2.04.44,4,.67,6,.7.89.02,1.82,0,2.84-.06.25-.01.44-.02.6-.02.24,0,.63,0,.75.25.12.25-.21.89-1.1,1.97Z"/>
                      <path class="cls-46" d="M163.22,162.23s0,.02,0,.06c-1.21,1.14-2.47,1.75-4.32,1.72-.93-.02-1.84-.24-2.68-.65-.95-.47-1.78-1.19-2.43-1.95.77-.74,3.08-1.05,4.03-.85,1.36.29,5.62,1.47,5.4,1.67Z"/>
                    </g>
                    <g>
                      <path class="cls-43" d="M162.5,134.44c-1.19-.8,1.87-3.33,4.53-2.63,2.67.7,2.9,2.72,2.88,2.92s-1.59-1.38-3.29-1.31c-3.45.13-3.02,1.75-4.12,1.01Z"/>
                      <path class="cls-43" d="M151.75,135.9c.21-1.22-2.89-1.99-6.45-.5-3.02,1.27-3.91,4.7-3.79,4.87s1.94-2.37,4.23-3.11c3.43-1.11,5.78.07,6.01-1.26Z"/>
                      <path class="cls-47" d="M167.21,138.58c5.61-.86,6.15,10.64,2.31,12.16s-5.77-1.96-5.85-4.97c-.09-3.78,1.2-6.82,3.54-7.19Z"/>
                      <g>
                        <path class="cls-43" d="M169.41,139.53c.72.37,1.15,1.14,1.53,1.89.29.57.51,1.34.67,2.01.03.14.43.17.45-.47.03-.8.06-1.37-.19-2.07-.35-1.02-.99-2.04-1.87-2.58-3.79-2.3-6.47,3.49-6.45,6.11,0,.1.17.15.21-.02.38-1.67,2.14-6.69,5.64-4.87Z"/>
                        <path class="cls-43" d="M170.28,139.83c.56.34,1.54-.22,1.87-.84-.6.24-1.26.65-1.83.16-.1-.09-.26.46-.37.5l.33.18Z"/>
                        <path class="cls-43" d="M170.75,140.38c.43.55,1.55.39,1.92-.48-1.07.58-1.6.18-1.88-.11-.09-.1-.19.29-.3.28l.26.31Z"/>
                      </g>
                      <path class="cls-20" d="M162.87,152.2s-.08,2.08-1.57,2.17c-.27.02-.38-.27-.69-.31s-.68.09-.73.55c-.1.76,1.6,1.32,2.95,0,.94-.91.39-2.02.04-2.41Z"/>
                      <path class="cls-52" d="M164.13,152.63c.37,1.21-.76,2.42-2.2,2.75-.1.02-.19.04-.29.05-.23.03-.35-.22-.15-.3.94-.39,1.56-1.13,1.63-2,.09-.78-.49-1.36-1.34-1.75-.55-.26-1.14-.36-1.78-.4-.19-.01-.23-.23-.05-.27h.01c1.06-.24,3.58-.02,4.17,1.92Z"/>
                      <g>
                        <path class="cls-47" d="M147.44,141.29c6.63-2.82,9.61,8.68,5.11,11.61-3.66,2.37-7.14-.26-7.91-3.19-.97-3.68-.06-7.2,2.8-8.41Z"/>
                        <path class="cls-43" d="M146.58,142.36c-.87.73-1.3,1.81-1.68,2.88-.29.85-.45,1.91-.55,2.85-.02.2-.31.21-.35.01-.16-.96-.33-2.49-.32-3.5.02-1.38.45-2.73,1.53-3.69,3.96-3.52,8.45,1.4,9.07,3.93.02.1-.13.22-.21.08-.79-1.48-3.78-5.67-7.5-2.56Z"/>
                        <path class="cls-43" d="M144.09,144.83c-.55.82-2.25,1.15-3.12.79,1.03-.3,2.32-.91,2.79-1.88.08-.17.48.69.65.63l-.32.46Z"/>
                        <path class="cls-43" d="M144.01,145.81c-.3.94-2.04,1.78-3.1,1.15,1.95-.33,2.5-1.2,2.73-1.73.08-.18.42.15.56.06l-.19.53Z"/>
                      </g>
                      <g>
                        <ellipse class="cls-43" cx="152.03" cy="146.35" rx="2.53" ry="3.55" transform="translate(-38.5 55.62) rotate(-18.45)"/>
                        <ellipse class="cls-24" cx="153.06" cy="144.63" rx=".47" ry=".74" transform="translate(-37.9 55.86) rotate(-18.45)"/>
                      </g>
                      <g>
                        <ellipse class="cls-43" cx="169.53" cy="144" rx="2.53" ry="3.55" transform="translate(-27.81 41.36) rotate(-12.87)"/>
                        <ellipse class="cls-24" cx="170.72" cy="142.38" rx=".47" ry=".74" transform="translate(-27.42 41.59) rotate(-12.87)"/>
                      </g>
                    </g>
                  </g>
                </g>
              </g>
              <g>
                <path class="cls-3" d="M261.86,116.76l-6.69,30.6s-1.84.39-2.13.92-.39,1.32-.39,1.32l-32.01,7.47s3.2,2.32,4.07,11.53c.87,9.21.39,10.77.39,10.77,0,0,32.3-5.37,37.54-7.63,5.24-2.26,6.11-1.89,7.18-3.53,1.07-1.64,13.93-26.27,15.21-53.04"/>
                <path class="cls-26" d="M225.06,179.2s-7.33-10.15-4.42-22.18l6.61,3.11,4.38,4.89-.64,7.61-5.94,6.58Z"/>
                <path class="cls-30" d="M225.06,179.2s-7.33-10.15-4.42-22.18l6.61,3.11,4.38,4.89-.64,7.61-5.94,6.58Z"/>
                <path class="cls-3" d="M225.06,179.2s-7.33-10.15-4.42-22.18l6.61,3.11,4.38,4.89-.64,7.61-5.94,6.58Z"/>
                <path class="cls-26" d="M285.02,115.16c-1.28,26.78-14.14,51.4-15.21,53.04-1.06,1.64-1.94,1.27-7.18,3.53-5.23,2.26-37.54,7.63-37.54,7.63,0,0,.32-1.03-.03-6.43-.08-1.22-.2-2.65-.36-4.34-.88-9.21-4.07-11.53-4.07-11.53l32.01-7.47s.1-.79.39-1.32c.29-.54,2.13-.93,2.13-.93l6.69-30.6,20.41-1.41,2.75-.19Z"/>
                <path class="cls-3" d="M261.86,116.76l-6.69,30.6s-1.84.39-2.13.92-.39,1.32-.39,1.32l-32.01,7.47s3.2,2.32,4.07,11.53c.87,9.21.39,10.77.39,10.77,0,0,32.3-5.37,37.54-7.63,5.24-2.26,6.11-1.89,7.18-3.53,1.07-1.64,13.93-26.27,15.21-53.04"/>
                <path class="cls-30" d="M285.02,115.16c-1.28,26.78-14.14,51.4-15.21,53.04-1.06,1.64-1.94,1.27-7.18,3.53-5.23,2.26-37.54,7.63-37.54,7.63,0,0,.32-1.03-.03-6.43,2.75-.12,12.94-.69,22.4-3.15,11.05-2.87,17.24-3.76,21.65-9.39,4-5.09,12.6-32.93,13.15-45.04l2.75-.19Z"/>
                <path class="cls-3" d="M255.9,148.71s5.56,1.96,6.73,5.09"/>
                <g>
                  <ellipse class="cls-57" cx="218.74" cy="187.24" rx=".83" ry="1.14"/>
                  <ellipse class="cls-57" cx="203.22" cy="184.79" rx=".83" ry="1.14"/>
                  <path class="cls-8" d="M203.22,184.79s-6.74-16.05.69-18.57c7.43-2.51,13.36,2.78,14.08,10.05.71,7.09.74,10.97.74,10.97"/>
                  <path class="cls-16" d="M232.86,184.68s3.3,46.39,3.34,46.66,1.14,6.38,1.14,6.38l-15.27,7.75-39.42-9.89,1.64-12.26,4.23-43.11,7.3.31-.59-1.59,37.63,5.74Z"/>
                  <polygon class="cls-41" points="195.23 178.94 195.85 180.63 188.52 180.22 224.24 187.77 228.02 184.79 232.86 184.68 195.23 178.94"/>
                  <path class="cls-17" d="M230.17,186.01c-.35.35,0,1.3.08,5.81.07,4.51.49,33.09,1.48,36.75.99,3.66,4.81,8.7,4.81,8.7l-13.01,5.04s2.99-12.54,3.13-13.39.56-40.35.56-40.35l-2.9-1.03,3.81-2.73,2.88.21-.84.99Z"/>
                  <path class="cls-10" d="M232.86,184.68s3.3,46.39,3.34,46.66,1.14,6.38,1.14,6.38l-15.27,7.75-39.42-9.89,1.64-12.26,4.23-43.11,7.3.31-.59-1.59,37.63,5.74Z"/>
                  <line class="cls-10" x1="224.35" y1="187.68" x2="222.07" y2="245.48"/>
                  <path class="cls-57" d="M237.19,237.99l-7.24-4.45,7.53,3.93c.36.18.05.74-.3.52h0Z"/>
                  <path class="cls-57" d="M221.83,244.83l6.31-11.11-5.78,11.4c-.18.36-.73.06-.53-.28h0Z"/>
                  <path class="cls-57" d="M228.92,232.67c-.65-7.57-.15-15.15-.5-22.72-.33-7.57-.47-15.14-.23-22.72,0-.04.06-.04.06,0,.49,7.57.58,15.14.5,22.72-.16,7.52.75,15.38.17,22.72h0Z"/>
                  <polyline class="cls-10" points="188.52 180.22 224.35 187.68 228.13 184.81 232.86 184.68"/>
                  <ellipse class="cls-57" cx="211.26" cy="190.83" rx=".83" ry="1.14"/>
                  <ellipse class="cls-57" cx="195.75" cy="188.37" rx=".83" ry="1.14"/>
                  <path class="cls-8" d="M195.72,188.16s1.43-19.75,8.57-22.12c7.14-2.37,10.8,4,9.39,12.3-1.37,8.08-2.42,12.49-2.42,12.49"/>
                  <g>
                    <path class="cls-58" d="M221.38,157.92s-2.36.39-4.33.24c-1.97-.16-5.55-1.03-9.05.04-3.5,1.06-8.65,3.19-8.34,4.49.31,1.3.3,2.28,2.72,1.97,2.43-.31,6.44-2.4,6.64-2.05s-3.81,3.9-6.02,4.92c-2.21,1.02-5.03,1.89-7.04,2.32-2.01.43-1.73,1.22-1.73,1.73s2.33,1.14,2.33,1.14c0,0,1.21,2.4,4.51,2.4,0,0,1.73,1.38,4.84,1.69,3.11.31,5.9-1.06,9.01-2.64,3.11-1.57,7.32-5.15,7.83-5.51s1.93-1.06,1.93-1.06c0,0-.71-6.49-3.3-9.68Z"/>
                    <path class="cls-3" d="M221.38,157.92s-2.36.39-4.33.24c-1.97-.16-5.55-1.03-9.05.04-3.5,1.06-8.65,3.19-8.34,4.49.31,1.3.3,2.28,2.72,1.97,2.43-.31,6.44-2.4,6.64-2.05s-3.81,3.9-6.02,4.92c-2.21,1.02-5.03,1.89-7.04,2.32-2.01.43-1.73,1.22-1.73,1.73s2.33,1.14,2.33,1.14c0,0,1.21,2.4,4.51,2.4,0,0,1.73,1.38,4.84,1.69,3.11.31,5.9-1.06,9.01-2.64,3.11-1.57,7.32-5.15,7.83-5.51s1.93-1.06,1.93-1.06c0,0-.71-6.49-3.3-9.68Z"/>
                    <path class="cls-3" d="M196.57,172.71s6.13.24,10.57-3.07"/>
                    <path class="cls-3" d="M201.09,175.11s4.48.04,8.14-2.71"/>
                    <path class="cls-3" d="M205.47,176.75s2.58-.06,5.02-2.58"/>
                  </g>
                  <path class="cls-8" d="M204.29,166.04c7.14-2.37,10.8,4,9.39,12.3-1.37,8.08-2.42,12.49-2.42,12.49"/>
                  <path class="cls-8" d="M203.91,166.22c7.43-2.51,13.36,2.78,14.08,10.05"/>
                </g>
              </g>
            </g>
          </g>
          <g>
            <path class="cls-24" d="M27.45,26.64l15.14-1.12-.85,6.94-6.88.3-.03,1.32,4.99-.36-.58,4.8-4.58.36-.05,1.51,7.84-.74-.14,7.57-14.67.8-.19-21.36Z"/>
            <path class="cls-24" d="M52.29,46.01h-.05c-.49.69-1.12,1.18-1.88,1.45-.76.27-1.58.41-2.46.41-.73,0-1.43-.13-2.08-.4s-1.23-.64-1.73-1.14c-.49-.49-.89-1.09-1.18-1.78-.29-.69-.44-1.47-.44-2.33,0-.75.15-1.44.44-2.07.29-.63.69-1.18,1.19-1.65.5-.47,1.1-.83,1.78-1.1.69-.26,1.43-.4,2.24-.4s1.55.12,2.12.37c.58.25,1.07.53,1.47.84v-.82c0-.84-.27-1.4-.82-1.67-.55-.27-1.26-.41-2.14-.41-.8,0-1.55.08-2.25.25s-1.4.36-2.11.58l1.07-4.36c.88-.26,1.79-.43,2.74-.54.95-.1,1.92-.15,2.91-.15.9,0,1.77.11,2.63.32.86.21,1.61.55,2.26,1.03.65.48,1.17,1.09,1.55,1.84.38.75.57,1.67.55,2.77l-.3,10.37-5.51.47v-1.86ZM48.81,40.93c-.62.09-1.13.31-1.54.64s-.58.72-.52,1.14c.07.42.33.74.78.95.45.21,1.03.26,1.74.15.71-.11,1.24-.34,1.59-.69.35-.35.48-.72.41-1.12-.05-.35-.29-.64-.7-.89-.41-.25-1-.31-1.77-.18Z"/>
            <path class="cls-24" d="M65.57,31.47v3.04h.05c.47-2.03,1.85-3.04,4.11-3.04.49,0,.96.03,1.4.08l-1.43,5.84c-.13-.02-.27-.03-.41-.03h-.55c-.77,0-1.43.25-1.99.75-.56.5-.84,1.29-.84,2.37v7.05l-5.76.49-.17-16.07,5.57-.49Z"/>
            <path class="cls-24" d="M71.68,26.07l6.2-.49-.25,22.08-5.76.49-.19-22.08Z"/>
            <path class="cls-24" d="M86.38,37.78l1.34-6.03,5.65.49-5.87,20.68-6.2-.49,2.36-6.44-5.16-13.49,5.98-.74,1.84,6.03h.05Z"/>
            <path class="cls-24" d="M110.49,46.01h-.05c-.49.69-1.12,1.18-1.88,1.45-.76.27-1.58.41-2.46.41-.73,0-1.43-.13-2.08-.4s-1.23-.64-1.73-1.14c-.49-.49-.89-1.09-1.18-1.78-.29-.69-.44-1.47-.44-2.33,0-.75.15-1.44.44-2.07.29-.63.69-1.18,1.19-1.65.5-.47,1.1-.83,1.78-1.1.69-.26,1.43-.4,2.24-.4s1.55.12,2.12.37c.58.25,1.07.53,1.47.84v-.82c0-.84-.27-1.4-.82-1.67-.55-.27-1.26-.41-2.14-.41-.8,0-1.55.08-2.25.25s-1.4.36-2.11.58l1.07-4.36c.88-.26,1.79-.43,2.74-.54.95-.1,1.92-.15,2.91-.15.9,0,1.77.11,2.63.32.86.21,1.61.55,2.26,1.03.65.48,1.17,1.09,1.55,1.84.38.75.57,1.67.55,2.77l-.3,10.37-5.51.47v-1.86ZM107,40.93c-.62.09-1.13.31-1.54.64s-.58.72-.52,1.14c.07.42.33.74.78.95.45.21,1.03.26,1.74.15.71-.11,1.24-.34,1.59-.69.35-.35.48-.72.41-1.12-.05-.35-.29-.64-.7-.89-.41-.25-1-.31-1.77-.18Z"/>
            <path class="cls-24" d="M130.85,46.92c-.52.27-1.06.48-1.6.64s-1.11.28-1.67.34-1.12.1-1.65.1c-1.24,0-2.39-.21-3.44-.63-1.05-.42-1.97-1-2.74-1.74-.78-.74-1.38-1.61-1.82-2.61-.44-1-.66-2.07-.66-3.22,0-1.33.23-2.54.69-3.61.46-1.07,1.09-1.97,1.91-2.71.81-.74,1.78-1.31,2.89-1.7,1.11-.39,2.32-.59,3.62-.59s2.43.21,3.39.63c.96.42,1.77.85,2.43,1.29l-3.62,4.74c-.26-.2-.55-.37-.89-.49s-.68-.22-1.03-.27-.68-.07-1-.05c-.32.02-.58.08-.78.19-.35.18-.64.4-.89.64-.25.25-.44.52-.58.81-.14.29-.2.61-.19.95,0,.34.11.68.29,1.03.37.73.89,1.18,1.56,1.34.68.16,1.39.06,2.14-.3l1.4-.71,3.73,4.94c-.46.4-.95.74-1.47,1Z"/>
            <path class="cls-24" d="M145.33,46.92c-.52.27-1.06.48-1.6.64s-1.11.28-1.67.34-1.12.1-1.65.1c-1.24,0-2.39-.21-3.44-.63-1.05-.42-1.97-1-2.74-1.74-.78-.74-1.38-1.61-1.82-2.61-.44-1-.66-2.07-.66-3.22,0-1.33.23-2.54.69-3.61.46-1.07,1.09-1.97,1.91-2.71.81-.74,1.78-1.31,2.89-1.7,1.11-.39,2.32-.59,3.62-.59s2.43.21,3.39.63c.96.42,1.77.85,2.43,1.29l-3.62,4.74c-.26-.2-.55-.37-.89-.49s-.68-.22-1.03-.27-.68-.07-1-.05c-.32.02-.58.08-.78.19-.35.18-.64.4-.89.64-.25.25-.44.52-.58.81-.14.29-.2.61-.19.95,0,.34.11.68.29,1.03.37.73.89,1.18,1.56,1.34.68.16,1.39.06,2.14-.3l1.4-.71,3.73,4.94c-.46.4-.95.74-1.47,1Z"/>
            <path class="cls-24" d="M162.04,45.84c-1.12.8-2.26,1.38-3.43,1.74s-2.51.53-4.03.53c-1.24,0-2.38-.21-3.41-.64-1.03-.43-1.92-1.01-2.67-1.74-.75-.73-1.33-1.59-1.75-2.56-.42-.98-.63-2.02-.63-3.11,0-1.37.22-2.6.66-3.67.44-1.08,1.03-1.99,1.78-2.74s1.62-1.32,2.62-1.71c1-.39,2.06-.59,3.2-.59,1.83,0,3.41.47,4.76,1.4,1.34.93,2.34,2.18,3,3.73l-8.2,6.17c.2.11.47.18.8.22.33.04.63.06.9.06.84,0,1.55-.15,2.13-.45.58-.3,1.1-.66,1.58-1.08l2.71,4.47ZM156.17,36.85c-.26-.31-.54-.52-.84-.63-.3-.11-.64-.16-1.03-.16s-.7.08-1,.23c-.3.16-.56.37-.78.63-.22.27-.39.56-.51.89-.12.33-.18.67-.18,1.01s.02.56.07.7c.05.14.11.28.18.43l4.09-3.1Z"/>
            <path class="cls-24" d="M163.97,42.8c.5.09,1.05.14,1.63.14.26,0,.53,0,.81-.01.28,0,.54-.04.77-.08.23-.05.42-.12.58-.23.16-.11.23-.27.23-.49,0-.27-.14-.48-.42-.62s-.63-.27-1.04-.4-.86-.28-1.36-.45c-.49-.17-.95-.43-1.36-.77s-.76-.79-1.04-1.36-.42-1.31-.42-2.22c0-.6.12-1.2.36-1.78.24-.58.62-1.12,1.15-1.59.53-.48,1.22-.86,2.06-1.15s1.86-.44,3.04-.44c.46,0,.91.02,1.37.05.46.04.89.09,1.3.15.41.06.79.13,1.14.19.35.06.64.12.88.18v4.83c-.46-.11-.9-.2-1.34-.27-.44-.07-.91-.11-1.43-.11-.11,0-.28,0-.52.01-.24,0-.48.04-.71.08-.24.05-.45.12-.63.23-.18.11-.27.26-.27.44,0,.29.15.51.44.66.29.15.65.28,1.08.41s.9.28,1.41.47c.51.18.98.44,1.41.78.43.34.79.79,1.08,1.36.29.57.44,1.31.44,2.22,0,.99-.21,1.81-.64,2.47s-1,1.18-1.7,1.58c-.7.39-1.51.67-2.43.84s-1.87.25-2.85.25c-.77,0-1.52-.05-2.26-.14-.74-.09-1.49-.24-2.24-.44v-5.13c.49.15.99.27,1.5.36Z"/>
            <path class="cls-24" d="M176.2,42.8c.5.09,1.05.14,1.63.14.26,0,.53,0,.81-.01.28,0,.54-.04.77-.08.23-.05.42-.12.58-.23.16-.11.23-.27.23-.49,0-.27-.14-.48-.42-.62s-.63-.27-1.04-.4-.86-.28-1.36-.45c-.49-.17-.95-.43-1.36-.77s-.76-.79-1.04-1.36-.42-1.31-.42-2.22c0-.6.12-1.2.36-1.78.24-.58.62-1.12,1.15-1.59.53-.48,1.22-.86,2.06-1.15s1.86-.44,3.04-.44c.46,0,.91.02,1.37.05.46.04.89.09,1.3.15.41.06.79.13,1.14.19.35.06.64.12.88.18v4.83c-.46-.11-.9-.2-1.34-.27-.44-.07-.91-.11-1.43-.11-.11,0-.28,0-.52.01-.24,0-.48.04-.71.08-.24.05-.45.12-.63.23-.18.11-.27.26-.27.44,0,.29.15.51.44.66.29.15.65.28,1.08.41s.9.28,1.41.47c.51.18.98.44,1.41.78.43.34.79.79,1.08,1.36.29.57.44,1.31.44,2.22,0,.99-.21,1.81-.64,2.47s-1,1.18-1.7,1.58c-.7.39-1.51.67-2.43.84s-1.87.25-2.85.25c-.77,0-1.52-.05-2.26-.14-.74-.09-1.49-.24-2.24-.44v-5.13c.49.15.99.27,1.5.36Z"/>
          </g>
          <g>
            <path d="M27.98,82.71v-10.98c0-.16.06-.29.17-.41.11-.11.25-.17.4-.17h3.24c.86,0,1.59.15,2.19.44.59.29,1.04.67,1.33,1.13.29.46.44.94.44,1.43,0,.59-.11,1.09-.33,1.51-.22.42-.51.76-.86,1.01,1.5.55,2.25,1.54,2.25,2.97,0,1.2-.68,2.12-2.03,2.77-1.36.65-3.38.97-6.06.97-.49,0-.74-.23-.74-.68ZM33.6,76.07c.32-.2.58-.47.76-.81s.27-.68.27-1.04c0-.58-.25-1.05-.76-1.41-.5-.37-1.19-.55-2.07-.55h-2.65v4.12h3.38c.38,0,.74-.1,1.06-.31ZM33.83,81.63c1.22-.44,1.83-1.1,1.83-1.98,0-.65-.27-1.17-.81-1.57s-1.26-.6-2.16-.6h-3.55v4.84c1.9-.01,3.46-.24,4.68-.68Z"/>
            <path d="M41.34,82.78c-.68-.39-1.21-.91-1.58-1.57-.37-.66-.56-1.38-.56-2.16s.17-1.58.51-2.29c.34-.71.82-1.29,1.43-1.72.61-.43,1.31-.65,2.11-.65.72,0,1.33.14,1.84.41.51.28.89.61,1.15.99.26.38.39.73.39,1.03,0,.22-.14.41-.43.58l-5.58,3.19c.3.58.71,1.01,1.22,1.3.52.29,1.12.44,1.82.44.38,0,.79-.1,1.21-.29s.76-.42,1.02-.68c.08-.12.2-.18.36-.18s.28.05.39.15c.1.1.15.23.15.39,0,.12-.05.24-.14.36-.32.37-.76.68-1.32.93-.56.25-1.11.37-1.65.37-.88,0-1.66-.19-2.34-.58ZM44.72,75.75c-.36-.2-.85-.31-1.46-.31-.58,0-1.09.16-1.55.48-.46.32-.81.75-1.07,1.29s-.39,1.13-.4,1.78c0,.24.01.43.04.58l5.24-2.9c-.17-.41-.43-.71-.79-.92Z"/>
            <path d="M56.55,83.2c-.11-.11-.17-.23-.17-.36v-7.43h-1.26c-.13,0-.25-.05-.36-.16-.11-.11-.16-.23-.16-.38,0-.13.05-.25.15-.36.1-.11.21-.16.33-.16h1.31c0-.84.13-1.51.38-2,.25-.49.64-.84,1.16-1.05.52-.21,1.21-.31,2.08-.31.5,0,.76.17.76.52,0,.16-.05.29-.14.4-.1.11-.23.16-.4.16-.74,0-1.3.05-1.67.16-.37.11-.63.32-.79.64-.16.32-.25.81-.26,1.48l2.38.02c.12,0,.24.05.35.15.11.1.17.22.17.35,0,.14-.05.27-.15.38s-.22.16-.37.16h-2.38v7.43c0,.13-.06.25-.17.36-.11.11-.24.16-.39.16-.16,0-.29-.05-.41-.16Z"/>
            <path d="M62.16,83.19c-.12-.11-.18-.25-.18-.4l.11-7.81c0-.16.06-.29.18-.41.12-.12.26-.18.41-.18s.29.06.41.17c.11.11.17.25.17.42l-.11,7.81c0,.16-.06.29-.17.4s-.25.17-.4.17-.29-.06-.41-.17ZM62.28,72.8c-.11-.11-.16-.24-.16-.4l.02-.74c0-.14.06-.27.18-.38.12-.11.25-.16.4-.16s.27.06.38.17.16.24.16.39l-.02.74c0,.16-.06.29-.17.39s-.24.15-.39.15c-.16,0-.29-.05-.4-.16Z"/>
            <path d="M66.96,83.2c-.12-.11-.18-.23-.18-.36v-7.92c0-.16.06-.28.17-.39.11-.1.25-.15.41-.15.17,0,.31.05.41.15s.16.23.16.39v1.53c.34-.59.75-1.09,1.25-1.5.5-.41,1.08-.62,1.75-.62.53,0,.91.15,1.14.44.23.29.35.65.35,1.05v.58c0,.16-.05.29-.16.39-.11.1-.24.15-.4.15-.18,0-.31-.05-.4-.16-.08-.11-.13-.24-.13-.4v-.41c0-.35-.2-.52-.61-.52-.71,0-1.44.5-2.2,1.51-.18.24-.33.54-.44.9s-.17.7-.17,1.01l-.02,3.98c0,.13-.06.25-.17.36-.11.11-.24.16-.39.16s-.28-.05-.4-.16Z"/>
            <path d="M75.18,82.97c-.5-.28-.88-.61-1.13-.99s-.39-.7-.39-.96c0-.16.05-.29.15-.39.1-.1.23-.15.39-.15.26,0,.43.13.5.38.17.48.45.85.85,1.12.4.26.88.4,1.46.4s1.05-.16,1.42-.47.56-.68.56-1.12c0-.25-.06-.46-.17-.64-.11-.17-.32-.34-.61-.49s-.72-.32-1.29-.49c-.97-.3-1.67-.65-2.11-1.04-.43-.4-.65-.92-.65-1.57s.27-1.17.8-1.57c.53-.4,1.3-.6,2.29-.6.9,0,1.59.18,2.08.55.49.37.73.87.73,1.5,0,.29-.05.51-.14.66-.1.15-.23.22-.41.22-.16,0-.29-.05-.4-.15-.11-.1-.16-.22-.16-.35,0-.06,0-.13.03-.2.02-.07.03-.14.03-.2,0-.32-.14-.58-.43-.76s-.73-.28-1.31-.28c-.65,0-1.15.1-1.5.31-.35.21-.53.51-.53.89s.15.67.46.88.84.45,1.59.7c.72.24,1.27.47,1.67.68.39.22.67.47.85.77.17.29.26.67.26,1.12s-.13.87-.39,1.28c-.26.41-.62.74-1.09,1-.47.26-1.01.39-1.62.39-.68,0-1.27-.14-1.77-.42Z"/>
            <path d="M83.47,83.22c-.11-.11-.17-.23-.17-.38v-7.34h-2c-.16,0-.29-.06-.4-.17-.11-.11-.16-.25-.16-.41,0-.17.06-.3.18-.4.12-.1.26-.15.41-.15h1.96v-2.47c0-.16.06-.29.17-.4.11-.11.25-.17.41-.17.17,0,.3.06.4.17.1.11.15.25.15.4v2.47h2.02c.17,0,.31.05.41.16.11.11.16.24.16.4s-.06.29-.17.41c-.11.11-.25.17-.41.17h-2.02v7.34c0,.14-.06.27-.17.38s-.24.16-.39.16c-.16,0-.29-.05-.41-.16Z"/>
            <path d="M96.07,83.22c-.11-.11-.17-.23-.17-.38v-7.34h-2c-.16,0-.29-.06-.4-.17-.11-.11-.16-.25-.16-.41,0-.17.06-.3.18-.4.12-.1.26-.15.41-.15h1.96v-2.47c0-.16.06-.29.17-.4.11-.11.25-.17.41-.17.17,0,.3.06.4.17.1.11.15.25.15.4v2.47h2.02c.17,0,.31.05.41.16.11.11.16.24.16.4s-.06.29-.17.41c-.11.11-.25.17-.41.17h-2.02v7.34c0,.14-.06.27-.17.38s-.24.16-.39.16c-.16,0-.29-.05-.41-.16Z"/>
            <path d="M102.01,82.81c-.56-.37-1-.86-1.31-1.49-.32-.63-.48-1.33-.48-2.1,0-.82.18-1.6.55-2.34.37-.74.87-1.35,1.52-1.81s1.36-.69,2.14-.69c.67,0,1.29.18,1.84.55.56.37,1,.86,1.31,1.49.32.63.48,1.32.48,2.08,0,.86-.19,1.67-.58,2.41-.38.74-.9,1.34-1.54,1.78-.64.44-1.33.67-2.08.67-.68,0-1.3-.18-1.86-.55ZM105.4,81.81c.46-.35.82-.81,1.1-1.39.28-.58.41-1.19.41-1.84,0-.56-.11-1.09-.34-1.57-.23-.49-.54-.88-.93-1.17-.39-.29-.83-.44-1.3-.44-.53,0-1.02.18-1.47.53s-.81.82-1.08,1.4c-.27.58-.4,1.2-.4,1.84s.12,1.17.35,1.65c.23.47.55.84.94,1.11.4.26.82.4,1.26.4.52,0,1-.17,1.46-.52Z"/>
            <path d="M28.51,104.81c-.11-.11-.17-.23-.17-.38v-7.34h-2c-.16,0-.29-.06-.4-.17-.11-.11-.16-.25-.16-.41,0-.17.06-.3.18-.4.12-.1.26-.15.41-.15h1.96v-2.47c0-.16.06-.29.17-.4.11-.11.25-.17.41-.17.17,0,.3.06.4.17.1.11.15.25.15.4v2.47h2.02c.17,0,.31.05.41.16.11.11.16.24.16.4s-.06.29-.17.41c-.11.11-.25.17-.41.17h-2.02v7.34c0,.14-.06.27-.17.38s-.24.16-.39.16c-.16,0-.29-.05-.41-.16Z"/>
            <path d="M33.94,104.79c-.12-.11-.18-.23-.18-.36v-7.92c0-.16.06-.28.17-.39.11-.1.25-.15.41-.15.17,0,.31.05.41.15s.16.23.16.39v1.53c.34-.59.75-1.09,1.25-1.5.5-.41,1.08-.62,1.75-.62.53,0,.91.15,1.14.44.23.29.35.65.35,1.05v.58c0,.16-.05.29-.16.39-.11.1-.24.15-.4.15-.18,0-.31-.05-.4-.16-.08-.11-.13-.24-.13-.4v-.41c0-.35-.2-.52-.61-.52-.71,0-1.44.5-2.2,1.51-.18.24-.33.54-.44.9s-.17.7-.17,1.01l-.02,3.98c0,.13-.06.25-.17.36-.11.11-.24.16-.39.16s-.28-.05-.4-.16Z"/>
            <path d="M42.07,108.28c-.11-.11-.16-.25-.16-.4,0-.08.02-.17.07-.25l1.75-3.82-3.49-6.96c-.05-.12-.07-.22-.07-.31,0-.17.06-.31.17-.41.11-.11.25-.16.4-.16.12,0,.23.04.32.11.1.07.17.16.22.27l3.06,6.14,2.83-6.17c.12-.24.3-.36.54-.36.16,0,.29.05.4.16.11.11.16.24.16.4,0,.11-.02.19-.05.25l-5.2,11.34c-.13.24-.31.36-.54.36-.16,0-.29-.06-.4-.17Z"/>
            <path d="M57.29,104.79c-.11-.11-.17-.23-.17-.36v-7.94c0-.16.06-.28.17-.39.11-.1.25-.15.41-.15s.29.05.4.15c.11.1.16.23.16.39v2.84c.35-1.08.83-1.91,1.45-2.49.62-.58,1.32-.87,2.1-.87.66,0,1.18.17,1.57.5s.66.87.83,1.59c.17.73.25,1.7.25,2.92s0,1.99-.02,2.36v1.03c0,.16-.05.29-.15.4-.1.11-.23.17-.39.17-.14,0-.27-.06-.38-.17-.11-.11-.16-.24-.16-.39v-1.01c-.01-.37-.02-1.15-.02-2.32s-.06-1.96-.17-2.54c-.11-.58-.29-.97-.52-1.18-.23-.21-.57-.31-1-.31-.41,0-.81.15-1.21.45-.4.3-.74.73-1.04,1.28-.4.72-.68,1.4-.85,2.03-.17.64-.27,1.29-.28,1.96l-.02,1.6c0,.17-.05.31-.15.42-.1.11-.23.17-.39.17s-.29-.05-.41-.16Z"/>
            <path d="M69.36,104.37c-.68-.39-1.21-.91-1.58-1.57-.37-.66-.56-1.38-.56-2.16s.17-1.58.51-2.29c.34-.71.82-1.29,1.43-1.72.61-.43,1.31-.65,2.11-.65.72,0,1.33.14,1.84.41.51.28.89.61,1.15.99.26.38.39.73.39,1.03,0,.22-.14.41-.43.58l-5.58,3.19c.3.58.71,1.01,1.22,1.3.52.29,1.12.44,1.82.44.38,0,.79-.1,1.21-.29s.76-.42,1.02-.68c.08-.12.2-.18.36-.18s.28.05.39.15c.1.1.15.23.15.39,0,.12-.05.24-.14.36-.32.37-.76.68-1.32.93-.56.25-1.11.37-1.65.37-.88,0-1.66-.19-2.34-.58ZM72.74,97.34c-.36-.2-.85-.31-1.46-.31-.58,0-1.09.16-1.55.48-.46.32-.81.75-1.07,1.29s-.39,1.13-.4,1.78c0,.24.01.43.04.58l5.24-2.9c-.17-.41-.43-.71-.79-.92Z"/>
            <path d="M78.26,104.82c-.11-.09-.18-.21-.22-.35l-1.62-7.68-.04-.29c0-.14.05-.27.15-.38.1-.11.23-.16.39-.16.14,0,.27.04.37.13s.17.21.19.35l1.26,6.33,2.21-6.41c.04-.11.11-.2.22-.29.11-.08.23-.13.36-.13s.25.05.37.14c.11.1.18.21.21.34l1.55,6.42,1.93-6.46c.04-.12.11-.22.21-.31s.21-.13.33-.13c.16,0,.29.05.41.16.11.11.17.24.17.4,0,.04,0,.07-.03.11-.02.04-.03.06-.03.07l-2.48,7.81c-.11.29-.29.43-.56.43-.12,0-.23-.04-.33-.12-.1-.08-.17-.19-.21-.33l-1.6-6.32-2.3,6.35c-.05.12-.12.22-.22.3-.1.08-.2.12-.31.12-.14,0-.27-.04-.38-.13Z"/>
            <path d="M28.06,126.4c-.11-.1-.17-.23-.17-.37v-11.34c0-.14.06-.26.17-.36.11-.1.25-.14.41-.14.14,0,.27.05.38.14.11.1.16.22.16.36v4.41c.38-.44.85-.79,1.4-1.03.55-.24,1.13-.36,1.73-.36.95,0,1.71.36,2.29,1.07.58.71.86,1.68.86,2.89,0,1.43-.33,2.58-.98,3.45-.65.87-1.63,1.3-2.94,1.3-.41,0-.83-.05-1.26-.15s-.8-.22-1.12-.35v.14c0,.12-.05.23-.16.33-.11.1-.23.15-.38.15s-.27-.05-.39-.15ZM34.21,121.67c0-.89-.19-1.58-.57-2.08-.38-.5-.88-.75-1.52-.75-.58,0-1.1.11-1.57.32-.47.22-.85.51-1.12.88-.28.37-.41.78-.41,1.22v3.62c.23.1.55.2.96.3.41.1.83.15,1.25.15,1.99,0,2.99-1.22,2.99-3.67Z"/>
            <path d="M39.45,126c-.56-.37-1-.86-1.31-1.49-.32-.63-.48-1.33-.48-2.1,0-.82.18-1.6.55-2.34.37-.74.87-1.35,1.52-1.81s1.36-.69,2.14-.69c.67,0,1.29.18,1.84.55.56.37,1,.86,1.31,1.49.32.63.48,1.32.48,2.08,0,.86-.19,1.67-.58,2.41-.38.74-.9,1.34-1.54,1.78-.64.44-1.33.67-2.08.67-.68,0-1.3-.18-1.86-.55ZM42.85,125c.46-.35.82-.81,1.1-1.39.28-.58.41-1.19.41-1.84,0-.56-.11-1.09-.34-1.57-.23-.49-.54-.88-.93-1.17-.39-.29-.83-.44-1.3-.44-.53,0-1.02.18-1.47.53s-.81.82-1.08,1.4c-.27.58-.4,1.2-.4,1.84s.12,1.17.35,1.65c.23.47.55.84.94,1.11.4.26.82.4,1.26.4.52,0,1-.17,1.46-.52Z"/>
            <path d="M49.69,126c-.56-.37-1-.86-1.31-1.49-.32-.63-.48-1.33-.48-2.1,0-.82.18-1.6.55-2.34.37-.74.87-1.35,1.52-1.81s1.36-.69,2.14-.69c.67,0,1.29.18,1.84.55.56.37,1,.86,1.31,1.49.32.63.48,1.32.48,2.08,0,.86-.19,1.67-.58,2.41-.38.74-.9,1.34-1.54,1.78-.64.44-1.33.67-2.08.67-.68,0-1.3-.18-1.86-.55ZM53.09,125c.46-.35.82-.81,1.1-1.39.28-.58.41-1.19.41-1.84,0-.56-.11-1.09-.34-1.57-.23-.49-.54-.88-.93-1.17-.39-.29-.83-.44-1.3-.44-.53,0-1.02.18-1.47.53s-.81.82-1.08,1.4c-.27.58-.4,1.2-.4,1.84s.12,1.17.35,1.65c.23.47.55.84.94,1.11.4.26.82.4,1.26.4.52,0,1-.17,1.46-.52Z"/>
            <path d="M58.91,126.38c-.11-.11-.17-.24-.17-.39l-.04-11.27c0-.16.05-.28.16-.39.11-.1.24-.15.4-.15s.29.06.41.17.17.25.17.4l.02,7.07c.54-.37,1.26-.99,2.16-1.85.9-.86,1.66-1.7,2.29-2.5.11-.17.26-.25.45-.25.16,0,.29.05.4.16.11.11.16.23.16.38,0,.08-.04.2-.13.34-.36.47-.83,1.01-1.41,1.62-.58.61-1.08,1.1-1.5,1.48.29.4.99,1.28,2.11,2.66l1.35,1.67c.11.13.16.25.16.36,0,.16-.05.29-.15.41-.1.12-.24.18-.4.18-.19,0-.34-.07-.45-.2-.89-1.2-2.04-2.68-3.46-4.44-.5.41-1.02.77-1.55,1.08v3.06c0,.14-.06.27-.17.39-.11.11-.25.17-.41.17-.14,0-.27-.06-.39-.17Z"/>
            <path d="M68.68,126.16c-.5-.28-.88-.61-1.13-.99s-.39-.7-.39-.96c0-.16.05-.29.15-.39.1-.1.23-.15.39-.15.26,0,.43.13.5.38.17.48.45.85.85,1.12.4.26.88.4,1.46.4s1.05-.16,1.42-.47.56-.68.56-1.12c0-.25-.06-.46-.17-.64-.11-.17-.32-.34-.61-.49s-.72-.32-1.29-.49c-.97-.3-1.67-.65-2.11-1.04-.43-.4-.65-.92-.65-1.57s.27-1.17.8-1.57c.53-.4,1.3-.6,2.29-.6.9,0,1.59.18,2.08.55.49.37.73.87.73,1.5,0,.29-.05.51-.14.66-.1.15-.23.22-.41.22-.16,0-.29-.05-.4-.15-.11-.1-.16-.22-.16-.35,0-.06,0-.13.03-.2.02-.07.03-.14.03-.2,0-.32-.14-.58-.43-.76s-.73-.28-1.31-.28c-.65,0-1.15.1-1.5.31-.35.21-.53.51-.53.89s.15.67.46.88.84.45,1.59.7c.72.24,1.27.47,1.67.68.39.22.67.47.85.77.17.29.26.67.26,1.12s-.13.87-.39,1.28c-.26.41-.62.74-1.09,1-.47.26-1.01.39-1.62.39-.68,0-1.27-.14-1.77-.42Z"/>
            <path d="M75.65,128.07c-.1-.09-.14-.2-.14-.33,0-.05.01-.11.04-.18l.41-1.1c-.13-.18-.2-.36-.2-.54,0-.23.08-.43.23-.6.16-.17.34-.26.54-.26.18,0,.33.07.46.2.13.13.19.28.19.43s-.03.31-.08.47c-.05.16-.16.43-.31.81l-.16.4c-.13.35-.23.58-.31.68-.07.11-.18.16-.32.16-.13,0-.25-.04-.34-.13Z"/>
            <path d="M29.46,147.56c-.68-.39-1.21-.91-1.58-1.57-.37-.66-.56-1.38-.56-2.16s.17-1.58.51-2.29c.34-.71.82-1.29,1.43-1.72.61-.43,1.31-.65,2.11-.65.72,0,1.33.14,1.84.41.51.28.89.61,1.15.99.26.38.39.73.39,1.03,0,.22-.14.41-.43.58l-5.58,3.19c.3.58.71,1.01,1.22,1.3.52.29,1.12.44,1.82.44.38,0,.79-.1,1.21-.29s.76-.42,1.02-.68c.08-.12.2-.18.36-.18s.28.05.39.15c.1.1.15.23.15.39,0,.12-.05.24-.14.36-.32.37-.76.68-1.32.93-.56.25-1.11.37-1.65.37-.88,0-1.66-.19-2.34-.58ZM32.84,140.53c-.36-.2-.85-.31-1.46-.31-.58,0-1.09.16-1.55.48-.46.32-.81.75-1.07,1.29s-.39,1.13-.4,1.78c0,.24.01.43.04.58l5.24-2.9c-.17-.41-.43-.71-.79-.92Z"/>
            <path d="M37.8,151.43c-.11-.11-.17-.24-.17-.39v-11.32c0-.17.06-.31.17-.41.11-.11.25-.16.41-.16s.29.06.4.17c.11.11.16.25.16.4v.74c.73-.88,1.82-1.31,3.28-1.31.6,0,1.12.19,1.57.58.44.38.78.88,1.01,1.49.23.61.34,1.27.34,1.96,0,1.28-.3,2.41-.9,3.37-.6.97-1.62,1.45-3.06,1.45-.68,0-1.43-.17-2.23-.5v3.55c0,.14-.06.27-.17.39-.11.11-.24.17-.39.17-.16,0-.29-.06-.41-.17ZM43.25,145.89c.45-.65.67-1.56.67-2.71,0-.46-.07-.92-.2-1.38-.13-.46-.35-.85-.66-1.17-.31-.32-.7-.48-1.18-.48-.79,0-1.45.17-1.98.49-.53.33-.91.67-1.15,1.02v4.62c.85.38,1.63.58,2.34.58.98,0,1.7-.33,2.15-.98Z"/>
            <path d="M48.08,147.98c-.12-.11-.18-.25-.18-.4l.11-7.81c0-.16.06-.29.18-.41.12-.12.26-.18.41-.18s.29.06.41.17c.11.11.17.25.17.42l-.11,7.81c0,.16-.06.29-.17.4s-.25.17-.4.17-.29-.06-.41-.17ZM48.21,137.58c-.11-.11-.16-.24-.16-.4l.02-.74c0-.14.06-.27.18-.38.12-.11.25-.16.4-.16s.27.06.38.17.16.24.16.39l-.02.74c0,.16-.06.29-.17.39s-.24.15-.39.15c-.16,0-.29-.05-.4-.16Z"/>
            <path d="M53.24,147.76c-.5-.28-.88-.61-1.13-.99s-.39-.7-.39-.96c0-.16.05-.29.15-.39.1-.1.23-.15.39-.15.26,0,.43.13.5.38.17.48.45.85.85,1.12.4.26.88.4,1.46.4s1.05-.16,1.42-.47.56-.68.56-1.12c0-.25-.06-.46-.17-.64-.11-.17-.32-.34-.61-.49s-.72-.32-1.29-.49c-.97-.3-1.67-.65-2.11-1.04-.43-.4-.65-.92-.65-1.57s.27-1.17.8-1.57c.53-.4,1.3-.6,2.29-.6.9,0,1.59.18,2.08.55.49.37.73.87.73,1.5,0,.29-.05.51-.14.66-.1.15-.23.22-.41.22-.16,0-.29-.05-.4-.15-.11-.1-.16-.22-.16-.35,0-.06,0-.13.03-.2.02-.07.03-.14.03-.2,0-.32-.14-.58-.43-.76s-.73-.28-1.31-.28c-.65,0-1.15.1-1.5.31-.35.21-.53.51-.53.89s.15.67.46.88.84.45,1.59.7c.72.24,1.27.47,1.67.68.39.22.67.47.85.77.17.29.26.67.26,1.12s-.13.87-.39,1.28c-.26.41-.62.74-1.09,1-.47.26-1.01.39-1.62.39-.68,0-1.27-.14-1.77-.42Z"/>
            <path d="M62.08,147.6c-.56-.37-1-.86-1.31-1.49-.32-.63-.48-1.33-.48-2.1,0-.82.18-1.6.55-2.34.37-.74.87-1.35,1.52-1.81s1.36-.69,2.14-.69c.67,0,1.29.18,1.84.55.56.37,1,.86,1.31,1.49.32.63.48,1.32.48,2.08,0,.86-.19,1.67-.58,2.41-.38.74-.9,1.34-1.54,1.78-.64.44-1.33.67-2.08.67-.68,0-1.3-.18-1.86-.55ZM65.47,146.6c.46-.35.82-.81,1.1-1.39.28-.58.41-1.19.41-1.84,0-.56-.11-1.09-.34-1.57-.23-.49-.54-.88-.93-1.17-.39-.29-.83-.44-1.3-.44-.53,0-1.02.18-1.47.53s-.81.82-1.08,1.4c-.27.58-.4,1.2-.4,1.84s.12,1.17.35,1.65c.23.47.55.84.94,1.11.4.26.82.4,1.26.4.52,0,1-.17,1.46-.52Z"/>
            <path d="M72.06,147.66c-.47-.32-.85-.79-1.12-1.41-.28-.62-.41-1.34-.41-2.17,0-1.54.34-2.74,1.03-3.6s1.63-1.3,2.83-1.3c.8,0,1.6.21,2.39.63l.09-3.58c0-.16.06-.29.18-.4.12-.11.26-.17.41-.17.14,0,.27.06.39.18.11.12.17.26.17.41l-.27,11.36c0,.16-.06.29-.17.39-.11.1-.25.15-.4.15-.17,0-.31-.06-.41-.19-.11-.13-.16-.27-.14-.44l.02-.74c-.94.91-1.93,1.37-2.97,1.37-.59,0-1.12-.16-1.59-.49ZM75.19,146.74c.46-.23.81-.5,1.07-.82.26-.32.39-.6.41-.84l.09-4.16c-.26-.16-.61-.31-1.04-.45s-.85-.22-1.29-.22c-.92,0-1.62.33-2.09.99-.47.66-.7,1.58-.7,2.77,0,.96.18,1.71.55,2.25s.86.81,1.49.81c.55,0,1.06-.11,1.51-.34Z"/>
            <path d="M82.92,147.56c-.68-.39-1.21-.91-1.58-1.57-.37-.66-.56-1.38-.56-2.16s.17-1.58.51-2.29c.34-.71.82-1.29,1.43-1.72.61-.43,1.31-.65,2.11-.65.72,0,1.33.14,1.84.41.51.28.89.61,1.15.99.26.38.39.73.39,1.03,0,.22-.14.41-.43.58l-5.58,3.19c.3.58.71,1.01,1.22,1.3.52.29,1.12.44,1.82.44.38,0,.79-.1,1.21-.29s.76-.42,1.02-.68c.08-.12.2-.18.36-.18s.28.05.39.15c.1.1.15.23.15.39,0,.12-.05.24-.14.36-.32.37-.76.68-1.32.93-.56.25-1.11.37-1.65.37-.88,0-1.66-.19-2.34-.58ZM86.31,140.53c-.36-.2-.85-.31-1.46-.31-.58,0-1.09.16-1.55.48-.46.32-.81.75-1.07,1.29s-.39,1.13-.4,1.78c0,.24.01.43.04.58l5.24-2.9c-.17-.41-.43-.71-.79-.92Z"/>
            <path d="M91.62,147.76c-.5-.28-.88-.61-1.13-.99s-.39-.7-.39-.96c0-.16.05-.29.15-.39.1-.1.23-.15.39-.15.26,0,.43.13.5.38.17.48.45.85.85,1.12.4.26.88.4,1.46.4s1.05-.16,1.42-.47.56-.68.56-1.12c0-.25-.06-.46-.17-.64-.11-.17-.32-.34-.61-.49s-.72-.32-1.29-.49c-.97-.3-1.67-.65-2.11-1.04-.43-.4-.65-.92-.65-1.57s.27-1.17.8-1.57c.53-.4,1.3-.6,2.29-.6.9,0,1.59.18,2.08.55.49.37.73.87.73,1.5,0,.29-.05.51-.14.66-.1.15-.23.22-.41.22-.16,0-.29-.05-.4-.15-.11-.1-.16-.22-.16-.35,0-.06,0-.13.03-.2.02-.07.03-.14.03-.2,0-.32-.14-.58-.43-.76s-.73-.28-1.31-.28c-.65,0-1.15.1-1.5.31-.35.21-.53.51-.53.89s.15.67.46.88.84.45,1.59.7c.72.24,1.27.47,1.67.68.39.22.67.47.85.77.17.29.26.67.26,1.12s-.13.87-.39,1.28c-.26.41-.62.74-1.09,1-.47.26-1.01.39-1.62.39-.68,0-1.27-.14-1.77-.42Z"/>
            <path d="M33.4,169.72c-.1-.11-.14-.25-.14-.42v-.5c-.32.29-.71.52-1.17.69s-.91.26-1.37.26c-.65,0-1.23-.16-1.75-.49s-.92-.78-1.21-1.38c-.29-.59-.44-1.27-.44-2.02,0-.82.17-1.62.51-2.4s.84-1.43,1.49-1.93c.65-.5,1.42-.76,2.31-.76.55,0,1.04.07,1.46.22s.85.32,1.28.52v7.79c0,.17-.05.31-.16.42-.11.11-.24.17-.4.17-.18,0-.32-.06-.41-.17ZM32.12,168.35c.47-.22.83-.46,1.08-.71l.07-5.45c-.19-.08-.44-.16-.75-.24-.31-.08-.59-.12-.86-.12-.59,0-1.13.17-1.62.52-.49.35-.88.83-1.16,1.43-.28.61-.42,1.29-.42,2.04,0,.88.21,1.57.63,2.09.42.52.96.77,1.62.77.47,0,.94-.11,1.4-.33Z"/>
            <path d="M38.07,169.58c-.11-.11-.17-.23-.17-.36v-7.94c0-.16.06-.28.17-.39.11-.1.25-.15.41-.15s.29.05.4.15c.11.1.16.23.16.39v2.84c.35-1.08.83-1.91,1.45-2.49.62-.58,1.32-.87,2.1-.87.66,0,1.18.17,1.57.5s.66.87.83,1.59c.17.73.25,1.7.25,2.92s0,1.99-.02,2.36v1.03c0,.16-.05.29-.15.4-.1.11-.23.17-.39.17-.14,0-.27-.06-.38-.17-.11-.11-.16-.24-.16-.39v-1.01c-.01-.37-.02-1.15-.02-2.32s-.06-1.96-.17-2.54c-.11-.58-.29-.97-.52-1.18-.23-.21-.57-.31-1-.31-.41,0-.81.15-1.21.45-.4.3-.74.73-1.04,1.28-.4.72-.68,1.4-.85,2.03-.17.64-.27,1.29-.28,1.96l-.02,1.6c0,.17-.05.31-.15.42-.1.11-.23.17-.39.17s-.29-.05-.41-.16Z"/>
            <path d="M49.53,169.26c-.47-.32-.85-.79-1.12-1.41-.28-.62-.41-1.34-.41-2.17,0-1.54.34-2.74,1.03-3.6s1.63-1.3,2.83-1.3c.8,0,1.6.21,2.39.63l.09-3.58c0-.16.06-.29.18-.4.12-.11.26-.17.41-.17.14,0,.27.06.39.18.11.12.17.26.17.41l-.27,11.36c0,.16-.06.29-.17.39-.11.1-.25.15-.4.15-.17,0-.31-.06-.41-.19-.11-.13-.16-.27-.14-.44l.02-.74c-.94.91-1.93,1.37-2.97,1.37-.59,0-1.12-.16-1.59-.49ZM52.66,168.34c.46-.23.81-.5,1.07-.82.26-.32.39-.6.41-.84l.09-4.16c-.26-.16-.61-.31-1.04-.45s-.85-.22-1.29-.22c-.92,0-1.62.33-2.09.99-.47.66-.7,1.58-.7,2.77,0,.96.18,1.71.55,2.25s.86.81,1.49.81c.55,0,1.06-.11,1.51-.34Z"/>
            <path d="M66.21,172.75c-.13-.02-.24-.09-.32-.19s-.13-.22-.13-.35c0-.16.06-.29.17-.4s.25-.16.41-.16c.06,0,.2.02.41.07.54.12,1.08.18,1.64.18.89,0,1.53-.23,1.93-.67.4-.45.62-1.09.66-1.92l.04-.9c-.31.42-.68.74-1.1.96s-.87.34-1.35.35c-.67,0-1.28-.19-1.83-.56s-.97-.88-1.29-1.54c-.31-.65-.47-1.38-.47-2.19s.19-1.57.57-2.29c.38-.73.89-1.31,1.54-1.75.65-.44,1.37-.66,2.16-.66.61,0,1.25.18,1.93.54,0-.49.19-.74.56-.74.16,0,.29.05.41.16s.17.25.17.41l-.2,8.22c-.02,1.22-.38,2.14-1.05,2.75-.68.61-1.56.92-2.65.92-.67,0-1.4-.09-2.2-.27ZM70.3,167.76c.52-.59.78-1.53.78-2.83v-2.54c-.19-.16-.45-.29-.78-.39-.33-.1-.66-.15-.98-.15-.6,0-1.15.16-1.66.48s-.91.75-1.21,1.3-.45,1.16-.45,1.84c0,.48.09.97.26,1.46.17.49.44.9.81,1.22.37.32.81.49,1.34.49.73,0,1.36-.29,1.88-.88Z"/>
            <path d="M81.32,169.72c-.1-.11-.14-.25-.14-.42v-.5c-.32.29-.71.52-1.17.69s-.91.26-1.37.26c-.65,0-1.23-.16-1.75-.49s-.92-.78-1.21-1.38c-.29-.59-.44-1.27-.44-2.02,0-.82.17-1.62.51-2.4s.84-1.43,1.49-1.93c.65-.5,1.42-.76,2.31-.76.55,0,1.04.07,1.46.22s.85.32,1.28.52v7.79c0,.17-.05.31-.16.42-.11.11-.24.17-.4.17-.18,0-.32-.06-.41-.17ZM80.05,168.35c.47-.22.83-.46,1.08-.71l.07-5.45c-.19-.08-.44-.16-.75-.24-.31-.08-.59-.12-.86-.12-.59,0-1.13.17-1.62.52-.49.35-.88.83-1.16,1.43-.28.61-.42,1.29-.42,2.04,0,.88.21,1.57.63,2.09.42.52.96.77,1.62.77.47,0,.94-.11,1.4-.33Z"/>
            <path d="M85.99,169.58c-.11-.11-.17-.23-.17-.38v-7.88c0-.14.06-.27.17-.39.11-.11.25-.17.41-.17s.29.06.4.17c.11.11.16.24.16.39v2.07c.4-.78.91-1.41,1.54-1.9s1.25-.73,1.86-.73c.52,0,.98.15,1.4.46.41.31.7.83.85,1.57.43-.7.92-1.21,1.46-1.54.54-.33,1.07-.49,1.6-.49.73,0,1.32.27,1.75.81.44.54.66,1.38.66,2.52v5.11c0,.14-.06.27-.17.38-.11.11-.25.16-.41.16s-.29-.05-.4-.16c-.11-.11-.16-.23-.16-.38v-5.24c0-.74-.12-1.29-.36-1.63-.24-.34-.59-.51-1.06-.51-.36,0-.76.14-1.2.41-.44.28-.81.67-1.12,1.17-.31.5-.47,1.08-.47,1.73v4.07c0,.14-.05.27-.16.38-.11.11-.24.16-.4.16s-.29-.05-.41-.16c-.11-.11-.17-.23-.17-.38v-5.24c0-.76-.11-1.3-.32-1.64-.22-.34-.57-.5-1.06-.5-.41,0-.83.17-1.26.51-.43.34-.83.76-1.19,1.25-.32.46-.54.88-.65,1.28-.11.4-.16.95-.16,1.66v2.68c0,.14-.05.27-.16.38-.11.11-.24.16-.4.16s-.29-.05-.41-.16Z"/>
            <path d="M102.99,169.16c-.68-.39-1.21-.91-1.58-1.57-.37-.66-.56-1.38-.56-2.16s.17-1.58.51-2.29c.34-.71.82-1.29,1.43-1.72.61-.43,1.31-.65,2.11-.65.72,0,1.33.14,1.84.41.51.28.89.61,1.15.99.26.38.39.73.39,1.03,0,.22-.14.41-.43.58l-5.58,3.19c.3.58.71,1.01,1.22,1.3.52.29,1.12.44,1.82.44.38,0,.79-.1,1.21-.29s.76-.42,1.02-.68c.08-.12.2-.18.36-.18s.28.05.39.15c.1.1.15.23.15.39,0,.12-.05.24-.14.36-.32.37-.76.68-1.32.93-.56.25-1.11.37-1.65.37-.88,0-1.66-.19-2.34-.58ZM106.37,162.13c-.36-.2-.85-.31-1.46-.31-.58,0-1.09.16-1.55.48-.46.32-.81.75-1.07,1.29s-.39,1.13-.4,1.78c0,.24.01.43.04.58l5.24-2.9c-.17-.41-.43-.71-.79-.92Z"/>
            <path d="M111.69,169.36c-.5-.28-.88-.61-1.13-.99s-.39-.7-.39-.96c0-.16.05-.29.15-.39.1-.1.23-.15.39-.15.26,0,.43.13.5.38.17.48.45.85.85,1.12.4.26.88.4,1.46.4s1.05-.16,1.42-.47.56-.68.56-1.12c0-.25-.06-.46-.17-.64-.11-.17-.32-.34-.61-.49s-.72-.32-1.29-.49c-.97-.3-1.67-.65-2.11-1.04-.43-.4-.65-.92-.65-1.57s.27-1.17.8-1.57c.53-.4,1.3-.6,2.29-.6.9,0,1.59.18,2.08.55.49.37.73.87.73,1.5,0,.29-.05.51-.14.66-.1.15-.23.22-.41.22-.16,0-.29-.05-.4-.15-.11-.1-.16-.22-.16-.35,0-.06,0-.13.03-.2.02-.07.03-.14.03-.2,0-.32-.14-.58-.43-.76s-.73-.28-1.31-.28c-.65,0-1.15.1-1.5.31-.35.21-.53.51-.53.89s.15.67.46.88.84.45,1.59.7c.72.24,1.27.47,1.67.68.39.22.67.47.85.77.17.29.26.67.26,1.12s-.13.87-.39,1.28c-.26.41-.62.74-1.09,1-.47.26-1.01.39-1.62.39-.68,0-1.27-.14-1.77-.42Z"/>
            <path d="M118.76,169.53c-.12-.14-.18-.32-.18-.52,0-.23.08-.43.23-.6.16-.17.34-.26.54-.26.18,0,.33.07.46.21.13.14.19.3.19.49,0,.25-.08.47-.23.64-.16.17-.34.26-.54.26-.19,0-.35-.07-.47-.22Z"/>
          </g>
        </g>
      </g>
    </g>
  </g>
</svg>