<?xml version="1.0" encoding="UTF-8"?>
<svg xmlns="http://www.w3.org/2000/svg" xmlns:xlink="http://www.w3.org/1999/xlink" viewBox="0 0 355.82 293.52">
  <defs>
    <style>
      .cls-1 {
        fill: #29150e;
      }

      .cls-2 {
        stroke-width: 1.41px;
      }

      .cls-2, .cls-3, .cls-4 {
        stroke-linejoin: round;
      }

      .cls-2, .cls-3, .cls-4, .cls-5 {
        stroke-linecap: round;
      }

      .cls-2, .cls-3, .cls-6, .cls-5 {
        stroke: #27190f;
      }

      .cls-2, .cls-7 {
        fill: #fcc156;
      }

      .cls-8 {
        fill: #ff6d3a;
      }

      .cls-9 {
        fill: #e29f7a;
      }

      .cls-10 {
        fill: #fff;
      }

      .cls-11 {
        fill: #e0ae4c;
        opacity: .2;
      }

      .cls-11, .cls-12, .cls-13 {
        mix-blend-mode: multiply;
      }

      .cls-14 {
        fill: #4e3817;
      }

      .cls-15 {
        fill: #e2a07a;
      }

      .cls-16 {
        fill: #efb48c;
      }

      .cls-17 {
        fill: #0c2949;
        opacity: .1;
      }

      .cls-18, .cls-4, .cls-6, .cls-5 {
        fill: none;
      }

      .cls-19 {
        fill: url(#radial-gradient-5);
      }

      .cls-20 {
        fill: #f6ffff;
      }

      .cls-21 {
        fill: #e47b2c;
      }

      .cls-3 {
        fill: #517f63;
        stroke-width: 1.61px;
      }

      .cls-22 {
        fill: url(#radial-gradient);
      }

      .cls-23 {
        fill: url(#radial-gradient-3);
      }

      .cls-24 {
        fill: #125163;
      }

      .cls-25 {
        clip-path: url(#clippath-1);
      }

      .cls-12, .cls-26 {
        fill: #cfe0eb;
      }

      .cls-27 {
        fill: #faf3f7;
      }

      .cls-28 {
        fill: #231f20;
      }

      .cls-29 {
        isolation: isolate;
      }

      .cls-30 {
        fill: #6d2d1d;
      }

      .cls-31 {
        fill: url(#radial-gradient-2);
      }

      .cls-4 {
        stroke: #281b12;
      }

      .cls-4, .cls-6, .cls-5 {
        stroke-width: .74px;
      }

      .cls-32 {
        fill: url(#radial-gradient-4);
      }

      .cls-6, .cls-5 {
        stroke-miterlimit: 10;
      }

      .cls-33 {
        fill: #f6d56f;
      }

      .cls-34 {
        fill: #ffd050;
      }

      .cls-35 {
        fill: #d05546;
      }

      .cls-36 {
        fill: #27190f;
      }

      .cls-37 {
        fill: #ecf0f2;
      }

      .cls-13 {
        opacity: .5;
      }

      .cls-13, .cls-38 {
        fill: #85b943;
      }

      .cls-39 {
        fill: url(#radial-gradient-6);
      }

      .cls-40 {
        fill: url(#radial-gradient-7);
      }

      .cls-41 {
        fill: #281b12;
      }

      .cls-42 {
        fill: #94d2dc;
      }

      .cls-43 {
        clip-path: url(#clippath);
      }

      .cls-44 {
        fill: #edffff;
      }

      .cls-45 {
        fill: #724e1e;
      }

      .cls-46 {
        fill: #d58055;
      }
    </style>
    <clipPath id="clippath">
      <rect class="cls-18" width="318.32" height="253.02" rx="20" ry="20"/>
    </clipPath>
    <radialGradient id="radial-gradient" cx="-6040.97" cy="-671.35" fx="-6040.97" fy="-671.35" r="18.29" gradientTransform="translate(6300.33 -55.95) rotate(-9.24)" gradientUnits="userSpaceOnUse">
      <stop offset="0" stop-color="#eeb28c"/>
      <stop offset="1" stop-color="#ecbc8a"/>
    </radialGradient>
    <radialGradient id="radial-gradient-2" cx="-5228.37" cy="-1698.02" fx="-5228.37" fy="-1698.02" r="18.29" gradientTransform="translate(5752.9 -15.9) rotate(-20.79)" xlink:href="#radial-gradient"/>
    <radialGradient id="radial-gradient-3" cx="-2003.55" cy="142.89" fx="-2003.55" fy="142.89" r="11.27" gradientTransform="translate(-1760.3) rotate(-180) scale(1 -1)" gradientUnits="userSpaceOnUse">
      <stop offset="0" stop-color="#efb38d"/>
      <stop offset="1" stop-color="#eebe8c"/>
    </radialGradient>
    <radialGradient id="radial-gradient-4" cx="-1974.45" cy="171.21" fx="-1974.45" fy="171.21" r="9.42" xlink:href="#radial-gradient-3"/>
    <radialGradient id="radial-gradient-5" cx="-1962.7" cy="187.9" fx="-1962.7" fy="187.9" r="14.63" xlink:href="#radial-gradient-3"/>
    <radialGradient id="radial-gradient-6" cx="-1948.53" cy="208.91" fx="-1948.53" fy="208.91" r="10.92" xlink:href="#radial-gradient-3"/>
    <radialGradient id="radial-gradient-7" cx="-7522.34" cy="246.64" fx="-7522.34" fy="246.64" r="44.66" gradientTransform="translate(6985.79 -3227.21) rotate(-24.34)" xlink:href="#radial-gradient-3"/>
    <clipPath id="clippath-1">
      <polygon class="cls-18" points="336.2 144.06 336.37 68.19 354.14 64.9 347.33 59.67 327.98 53.58 307.64 55.25 284.08 78.28 299.42 142.39 307.82 147.4 314.88 149.64 336.2 144.06"/>
    </clipPath>
  </defs>
  <g class="cls-29">
    <g id="Layer_2" data-name="Layer 2">
      <g id="Layer_1-2" data-name="Layer 1">
        <g>
          <rect class="cls-8" y="38.78" width="318.32" height="214.24" rx="20" ry="20"/>
          <g class="cls-43">
            <g>
              <ellipse class="cls-17" cx="247.4" cy="286.12" rx="46.44" ry="7.4"/>
              <g>
                <g>
                  <path class="cls-15" d="M298.94,134.39c2.31-6.39,2.86-13.58,3.45-20.21-3.01-1.99-6.85-2.64-10.38-1.84-.04,1.95-.33,3.73-.78,5.37,3.18,2.58,5.42,6.25,6.61,10.19.64,2.11.99,4.29,1.11,6.49Z"/>
                  <path class="cls-5" d="M298.94,134.39c2.31-6.39,2.86-13.58,3.45-20.21-3.01-1.99-6.85-2.64-10.38-1.84-.04,1.95-.33,3.73-.78,5.37"/>
                  <path class="cls-36" d="M297.15,117.23c-1.77.48-3.88-.61-4.51-2.34,1.41,1.03,2.85,1.78,4.51,2.34h0Z"/>
                </g>
                <g>
                  <path class="cls-16" d="M293,113.16c-.3-.42-.61-.84-.95-1.23-.25-.3-3.55-4.43-3.76-6.72-.21-2.29.6-4.98-.23-7.4-.5-1.46-.96-2.44-1.36-3.15-.35-.62-.02-1.38.63-1.45.99-.11,2.31.07,3.2,1.41,1.6,2.41.48,3.8,1.64,5.02.39.41.9.76,1.42,1.04.81.44,1.61.05,1.79-.85.66-3.2,3.07-10.05,4.27-12.04,1.47-2.43,3.03-3.9,4.3-3.31,1.27.59,1.41,1.78.69,2.98-.72,1.2-3.56,4.64-3.75,9.42,0,0,5.91-7.85,8.12-9.9,1.29-1.2,2.1-.6,2.46.37.36.99.13,2.07-.53,2.79-1.45,1.6-5.59,6.44-6.08,9.42,0,0,2.86-1.64,3.92-2.62,1.06-.99,4.16-3.14,5.55-3.63,1.29-.46,2.88,1.28,1.46,2.77-1.41,1.49-4.91,3.15-6,5.58,0,0-1.86,2.52,1.25,2.03,1.1-.18,2.98-.6,4.67-.81,1.46-.17,3.7.57,1.68,1.98-2.18,1.52-5.49,1.57-6.63,2.81-.97,1.05-2,2.05-2.84,3.21-.94,1.3-1.72,2.71-2.74,3.95-.76.93-1.67,1.77-2.75,2.29"/>
                  <path class="cls-4" d="M293,113.16c-.3-.42-.61-.84-.95-1.23-.25-.3-3.55-4.43-3.76-6.72-.21-2.29.6-4.98-.23-7.4-.5-1.46-.96-2.44-1.36-3.15-.35-.62-.02-1.38.63-1.45.99-.11,2.31.07,3.2,1.41,1.6,2.41.48,3.8,1.64,5.02.39.41.9.76,1.42,1.04.81.44,1.61.05,1.79-.85.66-3.2,3.07-10.05,4.27-12.04,1.47-2.43,3.03-3.9,4.3-3.31,1.27.59,1.41,1.78.69,2.98-.72,1.2-3.56,4.64-3.75,9.42,0,0,5.91-7.85,8.12-9.9,1.29-1.2,2.1-.6,2.46.37.36.99.13,2.07-.53,2.79-1.45,1.6-5.59,6.44-6.08,9.42,0,0,2.86-1.64,3.92-2.62,1.06-.99,4.16-3.14,5.55-3.63,1.29-.46,2.88,1.28,1.46,2.77-1.41,1.49-4.91,3.15-6,5.58,0,0-1.86,2.52,1.25,2.03,1.1-.18,2.98-.6,4.67-.81,1.46-.17,3.7.57,1.68,1.98-2.18,1.52-5.49,1.57-6.63,2.81-.97,1.05-2,2.05-2.84,3.21-.94,1.3-1.72,2.71-2.74,3.95-.76.93-1.67,1.77-2.75,2.29"/>
                  <path class="cls-28" d="M298.18,98.13c.06-.17,2.95.75,6.02,2.85,3.09,2.08,5.02,4.42,4.88,4.53-.15.15-2.28-1.91-5.29-3.93-2.99-2.04-5.7-3.25-5.62-3.45Z"/>
                  <path class="cls-28" d="M299.4,112.74c-.11-.02-.04-.69-.09-1.76-.01-.53-.1-1.17-.21-1.86-.13-.69-.32-1.44-.59-2.21-.54-1.53-1.29-2.81-1.9-3.69-.61-.88-1.06-1.39-.98-1.47.06-.07.64.32,1.39,1.15.74.83,1.61,2.15,2.18,3.77.28.81.47,1.61.57,2.34.08.74.11,1.41.06,1.97-.08,1.12-.34,1.77-.43,1.76Z"/>
                  <path class="cls-28" d="M301.64,111.01c-.1-.18,1.01-.95,2.17-2.09,1.18-1.13,1.98-2.21,2.16-2.1.17.09-.4,1.41-1.66,2.62-1.25,1.22-2.59,1.74-2.68,1.57Z"/>
                </g>
                <g>
                  <path class="cls-7" d="M252.08,159.4c-1.97-2.03-2.31-5.13-1.16-7.72,1-2.24,2.37-4.39,4.05-5.78,2.99-2.45,19.91-9.21,21.62-10.97,0,0,5.02-1.68,5.13-2.17.11-.49,7.41-12.75,8.44-17.39,0,0,4.1,3.75,10.51,3.84,1.34.02,2.78-.12,4.31-.5,0,0-4.02,17.21-7.69,22.33-2.39,3.34-8.82,8.8-13.47,10.9-2.49,1.12-19.02,12.45-19.02,12.45,0,0-8.11-.25-12.72-4.99Z"/>
                  <path class="cls-5" d="M252.08,159.4c-1.97-2.03-2.31-5.13-1.16-7.72,1-2.24,2.37-4.39,4.05-5.78,2.99-2.45,19.91-9.21,21.62-10.97,0,0,5.02-1.68,5.13-2.17.11-.49,7.41-12.75,8.44-17.39,0,0,4.1,3.75,10.51,3.84,1.34.02,2.78-.12,4.31-.5,0,0-4.02,17.21-7.69,22.33-2.39,3.34-8.82,8.8-13.47,10.9-2.49,1.12-19.02,12.45-19.02,12.45,0,0-8.11-.25-12.72-4.99Z"/>
                  <path class="cls-11" d="M281.09,133.86s0,.08.02.17c0-.14,0-.21-.02-.17Z"/>
                  <path class="cls-11" d="M281.83,148.67c1.04-1.48,1.97-4.32.8-6.8-1.45-3.06-1.52-7.31-1.52-7.83.29.89,2.55,4.74,3.34,5.85.87,1.23,9.75.42,10.91-.94,1.17-1.37,5.31-19.33,5.31-19.74,1.34.02,2.78-.13,4.31-.5,0,0-4.02,17.21-7.68,22.33-2.39,3.34-8.82,8.8-13.47,10.9l-19.02,12.45s-2.54-9.55-3.22-11.25c-.68-1.71-2.65-4.84-2.65-4.84,0,0,5.37,5.22,7.41,5.96,2.04.73,7.42-.86,10.71-2.31,3.29-1.45,4.79-3.28,4.79-3.28Z"/>
                  <path class="cls-36" d="M283.06,135.95c-.63,1.67.17,3.8,1.74,4.65-.78-1.52-1.33-2.99-1.74-4.65h0Z"/>
                  <path class="cls-36" d="M265.7,140.73c3.78-.16,7.41.55,10.86,2.12-2.91-2.46-7.24-3.3-10.86-2.12h0Z"/>
                </g>
                <g>
                  <g>
                    <path class="cls-24" d="M216.61,260.46c.42-.67,1.45-.89,2.35-.61-.17,8.22-5.17,3.26-2.35.61Z"/>
                    <path class="cls-22" d="M215.5,265.75c2.06,4.4,7.4,5.32,11.71,5.72.65-.08,1.3-.4,1.61-.97.31-5.41,1.69-10.42,3.57-15.21,1.73-4.41,3.9-8.62,6.07-12.78,1.82-3.5,3.65-6.96,5.22-10.47-5.71-3.56-14.53-2.27-18.91,3.16-.59.69-1.1,1.42-1.55,2.16-2.93,4.85-3.3,10.79-4.11,16.56-.59,4.19-1.41,8.29-3.61,11.81Z"/>
                    <path class="cls-4" d="M215.5,265.75c2.06,4.4,7.4,5.32,11.71,5.72.65-.08,1.3-.4,1.61-.97.31-5.41,1.69-10.42,3.57-15.21,1.73-4.41,3.9-8.62,6.07-12.78,1.82-3.5,3.65-6.96,5.22-10.47-5.71-3.56-14.53-2.27-18.91,3.16-.59.69-1.1,1.42-1.55,2.16-2.93,4.85-3.3,10.79-4.11,16.56-.59,4.19-1.41,8.29-3.61,11.81Z"/>
                    <path class="cls-9" d="M223.22,237.37c4.62,2.8,9.86,4.58,15.24,5.14,1.82-3.5,3.65-6.96,5.22-10.47-5.71-3.56-14.53-2.27-18.91,3.16-.59.69-1.1,1.42-1.55,2.16Z"/>
                    <path class="cls-37" d="M215.5,265.75c2.06,4.4,7.4,5.32,11.71,5.72.65-.08,1.3-.4,1.61-.97.31-5.41,1.69-10.42,3.57-15.21-4.31,1.09-9.04.58-13.28-1.36-.59,4.19-1.41,8.29-3.61,11.81Z"/>
                    <path class="cls-4" d="M215.5,265.75c2.06,4.4,7.4,5.32,11.71,5.72.65-.08,1.3-.4,1.61-.97.31-5.41,1.69-10.42,3.57-15.21-4.31,1.09-9.04.58-13.28-1.36-.59,4.19-1.41,8.29-3.61,11.81Z"/>
                  </g>
                  <g>
                    <g>
                      <path class="cls-26" d="M242.29,280.45c2.89,2.08,1.98,5.94-3.79,8.71-6.15,2.74-13.23.98-18.31-3.21-1.43-1.4-2.98-2.65-4.15-4.28-1.38-1.93-3.65-4.49-4.91-5.39-1.94-1.57-.73-5.75,1.63-6.56,3.02,8.25,12.21,15.38,21.18,15.02,3.18.11,6.8-1.71,8.36-4.28Z"/>
                      <path class="cls-4" d="M242.29,280.45c2.89,2.08,1.98,5.94-3.79,8.71-6.15,2.74-13.23.98-18.31-3.21-1.43-1.4-2.98-2.65-4.15-4.28-1.38-1.93-3.65-4.49-4.91-5.39-1.94-1.57-.73-5.75,1.63-6.56,3.02,8.25,12.21,15.38,21.18,15.02,3.18.11,6.8-1.71,8.36-4.28Z"/>
                    </g>
                    <path class="cls-10" d="M242.33,282.96c-3.92,4.05-10.13,5.52-15.38,3.47-5.34-2.04-8.82-6.82-12.09-11.29,2.15,3.64,4.61,7.29,8.07,9.84,5.96,4.57,14.62,3.88,19.4-2.01h0Z"/>
                    <path class="cls-14" d="M236.56,275.57c2.08,4.23-4.78,5.8-7.64,4.29-3.17-2.72-9.66-14.15-6.18-15.83,1.35-.71,3.2-1.09,4.88-1.07,2.35.36,2.7.8,2.86,2.52.91,4.42,4.09,7.35,6.07,10.09Z"/>
                    <path class="cls-4" d="M236.56,275.57c2.08,4.23-4.78,5.8-7.64,4.29-3.17-2.72-9.66-14.15-6.18-15.83,1.35-.71,3.2-1.09,4.88-1.07,2.35.36,2.7.8,2.86,2.52.91,4.42,4.09,7.35,6.07,10.09Z"/>
                    <path class="cls-45" d="M222.48,283.91c.51.42,1.03.8,1.58,1.13,0,0,.02,0,.02.01,8.25,5.07,20.13.35,18.34-4.53-.08-.22-.17-.43-.28-.64-1.16-2.35-3.71-3.95-7.31-5.37,1.82.77,1.39,3.37-.18,4.2-1.91,1.08-4.27.82-6.23-.13-.55-.26-1.06-.58-1.53-.93-1.72.8-3.07,2.37-3.82,4.12-.3.69-.5,1.41-.59,2.13Z"/>
                    <path class="cls-4" d="M222.48,283.91c.51.42,1.03.8,1.58,1.13,0,0,.02,0,.02.01,8.25,5.07,20.13.35,18.34-4.53-.08-.22-.17-.43-.28-.64-1.16-2.35-3.71-3.95-7.31-5.37,1.82.77,1.39,3.37-.18,4.2-1.91,1.08-4.27.82-6.23-.13-.55-.26-1.06-.58-1.53-.93-1.72.8-3.07,2.37-3.82,4.12-.3.69-.5,1.41-.59,2.13Z"/>
                    <path class="cls-45" d="M213.13,273.33c4.22,4.08,6.41,8.08,9.35,10.58.5.42,1.02.8,1.58,1.13,0,0,.02,0,.02.01.12.07.23.14.35.2.09-.85.25-1.59.5-2.25.58-1.55,1.58-2.67,2.99-3.96.16-.15.33-.3.49-.46.32-.32.59-.67.65-1.1.1-.7-.4-1.33-.84-1.88-1.88-2.34-3.34-5.02-4.29-7.87-.07-.22-.11-.44-.12-.67-.02-.5-.17-.76-.62-.98-1.3-.31-2.33.17-3.48.02-2.86-.44-3.49-4.09-2.19-6.3-2.1.41-4.06,3.99-5.04,7.35-.2.68-.35,1.34-.46,1.97-.28,1.61-.48,2.67,1.1,4.2Z"/>
                    <path class="cls-4" d="M213.13,273.33c4.22,4.08,6.41,8.08,9.35,10.58.5.42,1.02.8,1.58,1.13,0,0,.02,0,.02.01.12.07.23.14.35.2.09-.85.25-1.59.5-2.25.58-1.55,1.58-2.67,2.99-3.96.16-.15.33-.3.49-.46.32-.32.59-.67.65-1.1.1-.7-.4-1.33-.84-1.88-1.88-2.34-3.34-5.02-4.29-7.87-.07-.22-.11-.44-.12-.67-.02-.5-.17-.76-.62-.98-1.3-.31-2.33.17-3.48.02-2.86-.44-3.49-4.09-2.19-6.3-2.1.41-4.06,3.99-5.04,7.35-.2.68-.35,1.34-.46,1.97-.28,1.61-.48,2.67,1.1,4.2Z"/>
                    <path class="cls-45" d="M238.34,276.17c-2.89-2.46-5.12-5.62-6.36-8.98-.14-.39-.46-.67-.82-.86-.89-.46-2.39-.67-2.21.03,1.76,3.27,2.95,5.87,5.14,8.63,1.01,1.26,2.42.41,4.25,1.18Z"/>
                    <path class="cls-4" d="M238.34,276.17c-2.89-2.46-5.12-5.62-6.36-8.98-.14-.39-.46-.67-.82-.86-.89-.46-2.39-.67-2.21.03,1.76,3.27,2.95,5.87,5.14,8.63,1.01,1.26,2.42.41,4.25,1.18Z"/>
                    <path class="cls-12" d="M213.13,273.33c4.22,4.08,6.41,8.08,9.35,10.58.5.42,1.02.8,1.58,1.13,0,0,.02,0,.02.01,8.25,5.07,20.13.35,18.34-4.53-.08-.22-.17-.43-.28-.64,0,1.24-.63,2.52-1.57,3.37-1.37,1.23-3.25,1.71-5.08,1.89-3.63.36-7.38-.36-10.56-2.14-.55-.31-1.08-.65-1.59-1.02-.09-.07-.19-.14-.28-.21-2.1-1.59-3.79-3.65-5.46-5.69-1.46-1.78-2.93-3.57-3.96-5.62-.53-1.04-.94-2.16-1.16-3.31-.2.68-.35,1.34-.46,1.97-.28,1.61-.48,2.67,1.1,4.2Z"/>
                    <g>
                      <path class="cls-41" d="M237.19,277.57c-.46,1.44-1.68,2.43-3.06,2.85-1.43.43-2.93.28-4.42.11.69.35,1.44.59,2.23.7.78.11,1.61.07,2.39-.16,1.52-.45,2.94-1.84,2.87-3.5h0Z"/>
                      <path class="cls-41" d="M227.17,277.42c-2.08.95-3.67,3.15-3.91,5.42.52-.84,1.25-2.03,1.82-2.81.65-.92,1.37-1.74,2.09-2.61h0Z"/>
                      <path class="cls-41" d="M224.81,277.6c-.79-1.39-1.58-2.73-2.29-4.15-.62-1.22-1.41-3.04-1.97-4.31.29,3.16,1.9,6.35,4.26,8.47h0Z"/>
                      <path class="cls-41" d="M220.79,267.67c-1.68-.29-3.08-.73-4.16-2.11-.34-.41-.65-.87-.99-1.34.34,2.56,2.63,4.19,5.15,3.45h0Z"/>
                      <path class="cls-41" d="M215.87,266.31c.09,1.24.14,2.44.02,3.66-.11,1.23-.37,2.39-.68,3.6,1.57-1.99,1.85-5.01.67-7.26h0Z"/>
                    </g>
                    <g>
                      <circle class="cls-41" cx="225.16" cy="274.24" r=".95"/>
                      <circle class="cls-41" cx="223.69" cy="271.96" r=".95"/>
                      <circle class="cls-41" cx="226.84" cy="276.47" r=".95"/>
                      <ellipse class="cls-41" cx="234.65" cy="273.98" rx=".91" ry=".89" transform="translate(-40.93 41.21) rotate(-9.24)"/>
                      <ellipse class="cls-41" cx="232.73" cy="271.33" rx=".91" ry=".89" transform="translate(-40.53 40.87) rotate(-9.24)"/>
                      <ellipse class="cls-41" cx="231.33" cy="268.8" rx=".91" ry=".89" transform="translate(-40.14 40.61) rotate(-9.24)"/>
                      <g>
                        <path class="cls-26" d="M226.06,276.42c.02.17.09.33.21.45.18.18.43.26.67.22.15-.02.3-.09.41-.21,2.02-1.98,4.47-2.76,7.09-2.24.41.08.81-.19.9-.6,0-.02,0-.04,0-.05.05-.39-.21-.76-.61-.84-3.14-.62-6.06.3-8.45,2.65-.17.17-.25.4-.22.63Z"/>
                        <path class="cls-12" d="M226.06,276.42c.02.17.09.33.21.45.18.18.43.26.67.22.15-.02.3-.09.41-.21,2.02-1.98,4.47-2.76,7.09-2.24.41.08.81-.19.9-.6,0-.02,0-.04,0-.05-.02.02-.04.03-.06.05-.25.2-.59.24-.91.2-.32-.03-.62-.14-.93-.21-1.06-.25-2.18-.14-3.2.23-1.02.37-1.94.99-2.72,1.75-.18.17-.35.35-.57.47-.22.12-.48.17-.71.08-.07-.03-.13-.08-.19-.14Z"/>
                      </g>
                      <g>
                        <path class="cls-26" d="M224.4,274.25c.03.24.16.45.39.58.15.08.32.11.49.08.22-.04.43-.17.55-.39,1.33-2.43,4.48-3.22,6.64-2.56.4.12.83-.11.95-.51.02-.06.03-.13.03-.19.02-.34-.2-.66-.54-.76-2.79-.85-6.71.15-8.42,3.29-.08.15-.11.31-.09.46Z"/>
                        <path class="cls-12" d="M224.4,274.25c.03.24.16.45.39.58.15.08.32.11.49.08.22-.04.43-.17.55-.39,1.33-2.43,4.48-3.22,6.64-2.56.4.12.83-.11.95-.51.02-.06.03-.13.03-.19-.13.15-.34.23-.55.24-.25.01-.49-.06-.73-.12-2.37-.57-5.03.35-6.55,2.26-.15.19-.29.38-.48.52s-.45.21-.67.12c-.02-.01-.04-.02-.07-.04Z"/>
                      </g>
                      <g>
                        <path class="cls-26" d="M223.3,272.51c.16.09.34.12.51.1.22-.04.41-.16.53-.36,1.32-2.24,3.57-3.15,6.86-2.78.42.05.79-.26.84-.68,0,0,0,0,0,0,.04-.41-.26-.78-.67-.83-3.89-.43-6.7.76-8.34,3.52-.07.12-.11.25-.11.38,0,.26.13.52.37.67Z"/>
                        <path class="cls-12" d="M223.3,272.51c.16.09.34.12.51.1.22-.04.41-.16.53-.36,1.32-2.24,3.57-3.15,6.86-2.78.42.05.79-.26.84-.68,0,0,0,0,0,0-.2.15-.46.24-.71.27-.47.05-.93-.07-1.4-.13-1.05-.13-2.13.07-3.09.52-.96.45-1.8,1.12-2.5,1.92-.16.19-.32.38-.53.52s-.48.2-.71.11c-.07-.03-.13-.08-.18-.13,0,.26.13.52.37.67Z"/>
                      </g>
                    </g>
                  </g>
                  <path class="cls-7" d="M232.38,264.57c-.13.13-4.56,2.58-9.86,1.6-5.3-.97-7.44-7.71-7.44-7.71l1.91-15.95,20.71,6.03-5.32,16.03Z"/>
                  <path class="cls-5" d="M232.38,264.57c-.13.13-4.56,2.58-9.86,1.6-5.3-.97-7.44-7.71-7.44-7.71l1.91-15.95,20.71,6.03-5.32,16.03Z"/>
                </g>
                <g>
                  <g>
                    <path class="cls-24" d="M251.11,264.25c.27-.74,1.24-1.17,2.18-1.07,1.48,8.08-4.41,4.23-2.18,1.07Z"/>
                    <path class="cls-31" d="M251.08,269.66c2.9,3.9,8.31,3.73,12.62,3.26.62-.21,1.19-.65,1.38-1.27-.78-5.37-.43-10.55.46-15.62.81-4.66,2.09-9.22,3.39-13.73,1.09-3.8,2.18-7.55,3.02-11.3-6.31-2.34-14.69.69-17.89,6.89-.43.8-.79,1.61-1.09,2.43-1.9,5.34-1.08,11.24-.71,17.05.26,4.22.28,8.41-1.17,12.3Z"/>
                    <path class="cls-4" d="M251.08,269.66c2.9,3.9,8.31,3.73,12.62,3.26.62-.21,1.19-.65,1.38-1.27-.78-5.37-.43-10.55.46-15.62.81-4.66,2.09-9.22,3.39-13.73,1.09-3.8,2.18-7.55,3.02-11.3-6.31-2.34-14.69.69-17.89,6.89-.43.8-.79,1.61-1.09,2.43-1.9,5.34-1.08,11.24-.71,17.05.26,4.22.28,8.41-1.17,12.3Z"/>
                    <path class="cls-9" d="M252.97,240.31c5.09,1.82,10.58,2.51,15.96,1.98,1.09-3.8,2.18-7.55,3.02-11.3-6.31-2.34-14.69.69-17.89,6.89-.43.8-.79,1.61-1.09,2.43Z"/>
                    <path class="cls-37" d="M251.08,269.66c2.9,3.9,8.31,3.73,12.62,3.26.62-.21,1.19-.65,1.38-1.27-.78-5.37-.43-10.55.46-15.62-4.01,1.93-8.74,2.38-13.29,1.33.26,4.22.28,8.41-1.17,12.3Z"/>
                    <path class="cls-4" d="M251.08,269.66c2.9,3.9,8.31,3.73,12.62,3.26.62-.21,1.19-.65,1.38-1.27-.78-5.37-.43-10.55.46-15.62-4.01,1.93-8.74,2.38-13.29,1.33.26,4.22.28,8.41-1.17,12.3Z"/>
                  </g>
                  <g>
                    <g>
                      <path class="cls-26" d="M280.27,278.7c3.25,1.46,3.13,5.42-1.97,9.29-5.48,3.91-12.77,3.61-18.58.52-1.69-1.09-3.65-3.53-5.12-4.89-1.74-1.61-4.27-2.13-5.69-2.77-2.22-1.15-1.87-5.48.28-6.76,4.61,7.48,15.04,12.62,23.76,10.48,3.13-.53,6.32-3.04,7.33-5.87Z"/>
                      <path class="cls-4" d="M280.27,278.7c3.25,1.46,3.13,5.42-1.97,9.29-5.48,3.91-12.77,3.61-18.58.52-1.69-1.09-3.65-3.53-5.12-4.89-1.74-1.61-4.27-2.13-5.69-2.77-2.22-1.15-1.87-5.48.28-6.76,4.61,7.48,15.04,12.62,23.76,10.48,3.13-.53,6.32-3.04,7.33-5.87Z"/>
                    </g>
                    <path class="cls-14" d="M273.69,275.07c2.89,3.72-3.53,6.64-6.63,5.73-3.65-2.03-12.3-11.93-9.22-14.27,1.18-.96,2.91-1.71,4.57-2.02,2.38-.11,2.8.25,3.31,1.89,1.78,4.14,5.48,6.38,7.97,8.67Z"/>
                    <path class="cls-4" d="M273.69,275.07c2.89,3.72-3.53,6.64-6.63,5.73-3.65-2.03-12.3-11.93-9.22-14.27,1.18-.96,2.91-1.71,4.57-2.02,2.38-.11,2.8.25,3.31,1.89,1.78,4.14,5.48,6.38,7.97,8.67Z"/>
                    <path class="cls-45" d="M261.56,286.06c.58.31,1.17.58,1.77.8,0,0,.02,0,.02,0,9.1,3.32,19.79-3.69,17.06-8.11-.12-.2-.26-.39-.4-.57-1.6-2.07-4.43-3.13-8.24-3.79,1.93.39,2.03,3.02.66,4.15-1.65,1.44-4.02,1.66-6.13,1.13-.59-.15-1.16-.35-1.69-.61-1.53,1.13-2.54,2.93-2.92,4.8-.15.74-.2,1.48-.15,2.2Z"/>
                    <path class="cls-4" d="M261.56,286.06c.58.31,1.17.58,1.77.8,0,0,.02,0,.02,0,9.1,3.32,19.79-3.69,17.06-8.11-.12-.2-.26-.39-.4-.57-1.6-2.07-4.43-3.13-8.24-3.79,1.93.39,2.03,3.02.66,4.15-1.65,1.44-4.02,1.66-6.13,1.13-.59-.15-1.16-.35-1.69-.61-1.53,1.13-2.54,2.93-2.92,4.8-.15.74-.2,1.48-.15,2.2Z"/>
                    <path class="cls-45" d="M250.28,277.57c5.55,2.25,8.28,6.06,11.28,8.49.51.41,1.16.58,1.77.8,0,0,.02,0,.02,0,.13.04.26.09.39.12-.09-.85-.07-1.61.04-2.3.25-1.63,1.01-2.94,2.14-4.47.13-.18.27-.36.39-.55.25-.37.44-.77.41-1.21-.05-.71-.66-1.22-1.2-1.67-2.31-1.92-4.27-4.25-5.78-6.85-.11-.2-.2-.41-.25-.63-.13-.49-.32-.71-.8-.83-1.34-.04-2.25.63-3.41.72-2.89.14-4.24-3.3-3.41-5.74-1.97.82-3.18,4.73-3.46,8.21-.06.7-.08,1.39-.06,2.03.05,1.63-.12,3.06,1.92,3.89Z"/>
                    <path class="cls-4" d="M250.28,277.57c5.46,2.21,8.25,5.98,11.28,8.49.51.42,1.16.58,1.77.8,0,0,.02,0,.02,0,.13.04.26.09.39.12-.09-.85-.07-1.61.04-2.3.25-1.63,1.01-2.94,2.14-4.47.13-.18.27-.36.39-.55.25-.37.44-.77.41-1.21-.05-.71-.66-1.22-1.2-1.67-2.31-1.92-4.27-4.25-5.78-6.85-.11-.2-.2-.41-.25-.63-.13-.49-.32-.71-.8-.83-1.34-.04-2.25.63-3.41.72-2.89.14-4.24-3.3-3.41-5.74-1.97.82-3.18,4.73-3.46,8.21-.06.7-.08,1.39-.06,2.03.05,1.63-.12,3.06,1.92,3.89Z"/>
                    <path class="cls-45" d="M275.54,275.3c-3.32-1.83-6.15-4.48-8.03-7.53-.22-.35-.58-.56-.98-.67-.96-.27-2.47-.18-2.15.47,2.38,2.85,4.07,5.16,6.76,7.43,1.24,1.03,2.45-.08,4.4.3Z"/>
                    <path class="cls-4" d="M275.54,275.3c-3.32-1.83-6.15-4.48-8.03-7.53-.22-.35-.58-.56-.98-.67-.96-.27-2.47-.18-2.15.47,2.38,2.85,4.07,5.16,6.76,7.43,1.24,1.03,2.45-.08,4.4.3Z"/>
                    <path class="cls-12" d="M250.28,277.57c5.63,2.33,8.35,6.08,11.28,8.49.51.42,1.16.58,1.77.8,0,0,.02,0,.02,0,9.1,3.32,19.79-3.69,17.06-8.11-.12-.2-.26-.39-.4-.57.24,1.22-.11,2.6-.87,3.62-1.09,1.48-2.84,2.33-4.6,2.87-3.48,1.08-7.31,1.12-10.77.01-.6-.19-1.19-.42-1.76-.68-.11-.05-.21-.1-.31-.15-2.37-1.14-4.44-2.82-6.49-4.48-1.78-1.45-3.58-2.92-5.01-4.72-.73-.92-1.35-1.93-1.8-3.01-.06.7-.08,1.39-.06,2.03.05,1.63-.11,3.05,1.92,3.89Z"/>
                    <g>
                      <path class="cls-41" d="M274.7,276.9c-.16,1.5-1.16,2.71-2.43,3.41-1.31.71-2.82.86-4.31,1,.75.21,1.53.29,2.32.24.79-.05,1.59-.25,2.31-.64,1.4-.75,2.51-2.39,2.11-4.01h0Z"/>
                      <path class="cls-41" d="M264.85,278.76c-1.85,1.34-2.97,3.82-2.75,6.1.34-.92.81-2.24,1.22-3.12.45-1.03.99-1.98,1.53-2.98h0Z"/>
                      <path class="cls-41" d="M262.57,279.41c-1.05-1.2-2.1-2.36-3.08-3.61-.86-1.07-1.99-2.7-2.79-3.83.92,3.03,3.13,5.84,5.87,7.44h0Z"/>
                      <path class="cls-41" d="M256.65,270.48c-1.7.05-3.16-.1-4.5-1.23-.42-.33-.81-.72-1.24-1.11.84,2.44,3.42,3.58,5.73,2.35h0Z"/>
                      <path class="cls-41" d="M251.56,270.14c.34,1.2.62,2.36.75,3.58.14,1.22.12,2.42.05,3.66,1.14-2.26.81-5.28-.8-7.24h0Z"/>
                    </g>
                    <g>
                      <circle class="cls-41" cx="262.24" cy="276.04" r=".95"/>
                      <circle class="cls-41" cx="260.35" cy="274.11" r=".95"/>
                      <circle class="cls-41" cx="264.34" cy="277.89" r=".95"/>
                      <ellipse class="cls-41" cx="271.5" cy="273.89" rx=".91" ry=".89" transform="translate(-79.53 114.19) rotate(-20.79)"/>
                      <ellipse class="cls-41" cx="269.08" cy="271.68" rx=".91" ry=".89" transform="translate(-78.91 113.19) rotate(-20.79)"/>
                      <ellipse class="cls-41" cx="267.2" cy="269.48" rx=".91" ry=".89" transform="translate(-78.25 112.38) rotate(-20.79)"/>
                      <g>
                        <path class="cls-26" d="M263.57,278.01c.05.16.15.3.3.4.21.14.47.16.7.08.14-.05.27-.15.36-.29,1.58-2.35,3.83-3.6,6.5-3.62.42,0,.76-.35.76-.77,0-.02,0-.04,0-.05-.03-.4-.36-.71-.76-.7-3.2.02-5.88,1.51-7.75,4.29-.14.2-.16.44-.09.66Z"/>
                        <path class="cls-12" d="M263.57,278.01c.05.16.15.3.3.4.21.14.47.16.7.08.14-.05.27-.15.36-.29,1.58-2.35,3.83-3.6,6.5-3.62.42,0,.76-.35.76-.77,0-.02,0-.04,0-.05-.01.02-.03.04-.05.06-.21.24-.53.35-.85.38-.32.03-.64,0-.95-.02-1.08-.03-2.16.3-3.09.87-.93.57-1.7,1.36-2.31,2.25-.14.2-.27.42-.46.58-.19.16-.44.27-.68.22-.07-.02-.15-.05-.21-.1Z"/>
                      </g>
                      <g>
                        <path class="cls-26" d="M261.51,276.2c.07.23.25.41.5.49.17.05.34.04.49-.02.21-.08.38-.25.46-.49.81-2.64,3.74-4.05,6-3.84.42.04.79-.27.83-.69,0-.07,0-.13,0-.19-.05-.33-.33-.6-.68-.64-2.91-.27-6.54,1.49-7.59,4.91-.05.16-.04.32,0,.47Z"/>
                        <path class="cls-12" d="M261.51,276.2c.07.23.25.41.5.49.17.05.34.04.49-.02.21-.08.38-.25.46-.49.81-2.64,3.74-4.05,6-3.84.42.04.79-.27.83-.69,0-.07,0-.13,0-.19-.1.18-.29.3-.49.35-.24.06-.49.04-.74.03-2.44-.08-4.86,1.35-5.97,3.52-.11.21-.2.43-.36.61s-.4.3-.63.25c-.02,0-.05-.01-.07-.02Z"/>
                      </g>
                      <g>
                        <path class="cls-26" d="M260.08,274.72c.17.06.36.05.52,0,.2-.08.37-.24.45-.46.85-2.46,2.86-3.8,6.16-4.1.42-.04.73-.41.69-.83,0,0,0,0,0,0-.04-.41-.41-.72-.83-.68-3.9.36-6.41,2.08-7.46,5.12-.05.13-.05.26-.03.39.05.26.23.49.5.58Z"/>
                        <path class="cls-12" d="M260.08,274.72c.17.06.36.05.52,0,.2-.08.37-.24.45-.46.85-2.46,2.86-3.8,6.16-4.1.42-.04.73-.41.69-.83,0,0,0,0,0,0-.17.19-.4.33-.64.4-.45.14-.93.11-1.39.15-1.06.08-2.07.5-2.93,1.13-.85.63-1.54,1.46-2.07,2.38-.12.22-.24.44-.42.61s-.43.3-.67.25c-.07-.02-.14-.05-.2-.1.05.26.23.49.5.58Z"/>
                      </g>
                    </g>
                  </g>
                  <path class="cls-7" d="M267.39,265.13c-.1.15-3.95,3.44-9.34,3.55-5.39.11-8.83-6.07-8.83-6.07l-1.32-16.01,21.5,1.76-2.01,16.77Z"/>
                  <path class="cls-5" d="M267.39,265.13c-.1.15-3.95,3.44-9.34,3.55-5.39.11-8.83-6.07-8.83-6.07l-1.32-16.01,21.5,1.76-2.01,16.77Z"/>
                </g>
                <g>
                  <path class="cls-23" d="M230.61,141.96c3.07,12.62,24.31,15.54,25.3.24-2.54.03-4.28-.68-5.38-1.97-1.17-1.37-1.62-3.38-1.51-5.82-3.7-1.76-8.44-1.59-12.4.29.7,2.51.33,4.33-.83,5.52-1.1,1.12-2.9,1.68-5.17,1.74Z"/>
                  <path class="cls-15" d="M235.78,140.23c4.83.97,9.88.98,14.75.01-1.17-1.37-1.62-3.38-1.51-5.82-3.7-1.76-8.44-1.59-12.4.29.7,2.51.33,4.33-.83,5.52Z"/>
                </g>
                <path class="cls-7" d="M220.63,180.29c15.06-.17,30.08-2.84,44.16-7.7-.04-10.07-2.19-20.06-6.13-29.3-1.61-.93-3.31-1.65-5.11-2.19-.57-.17-1.14-.33-1.72-.47,1.14,2.88-.74,6.28-3.47,7.49-5.75,2.38-11.9-2.37-14.58-7.3-5.41.84-10.84,2.9-14.63,6.98,2.86,10.64,3.33,21.46,1.47,32.49Z"/>
                <path class="cls-7" d="M220.63,180.29c15.06-.17,30.08-2.84,44.16-7.7-.04-10.07-2.19-20.06-6.13-29.3-1.61-.93-3.31-1.65-5.11-2.19-.57-.17-1.14-.33-1.72-.47,1.14,2.88-.74,6.28-3.47,7.49-5.75,2.38-11.9-2.37-14.58-7.3-5.41.84-10.84,2.9-14.63,6.98,2.86,10.64,3.33,21.46,1.47,32.49Z"/>
                <path class="cls-5" d="M258.66,143.29c-1.61-.93-3.31-1.65-5.11-2.19-.57-.17-1.14-.33-1.72-.47,1.14,2.88-.74,6.28-3.47,7.49-5.75,2.38-11.9-2.37-14.58-7.3-5.41.84-10.84,2.9-14.63,6.98,2.86,10.64,3.33,21.46,1.47,32.49,15.06-.17,30.08-2.84,44.16-7.7"/>
                <g>
                  <path class="cls-32" d="M204.66,172.9c.03.29.08.59.16.88,0,0,0,0,0,0,.74,2.91,3.64,5.74,6.62,6.55.91.25,1.82.31,2.68.13.05-.08.1-.15.15-.23,4.58-6.83,6.34-8.47,9.38-12.5-.43-4.82-8.37-7.26-12.6-5.04-1.74,3.46-3.92,6.94-6.38,10.2,0,0,0,0,0,0Z"/>
                  <path class="cls-19" d="M190.1,199.06c.74,3.24,4.41,5.7,8.06,5.46,1.6-9.62,12.57-14.62,15.71-23.01.16-.42.3-.85.41-1.28.36-1.36.51-2.81.39-4.39-.17-1.34-2.78-6.12-8.19-4.07-.62.25-1.22.62-1.8,1.11-.08.07-.15.13-.23.2-5,4.54-8.51,17.43-14.34,25.97Z"/>
                  <path class="cls-5" d="M190.1,199.06c.74,3.24,4.41,5.7,8.06,5.46,1.6-9.62,12.57-14.62,15.71-23.01.16-.42.3-.85.41-1.28.36-1.36.51-2.81.39-4.39-.17-1.34-2.78-6.12-8.19-4.07-.62.25-1.22.62-1.8,1.11-.08.07-.15.13-.23.2-5,4.54-8.51,17.43-14.34,25.97Z"/>
                  <path class="cls-15" d="M204.43,173.09c.12.23.25.46.38.69,0,0,0,0,0,0,.75,1.29,1.69,2.51,2.77,3.59,1.15,1.15,2.45,2.15,3.85,2.96.78.45,1.59.85,2.42,1.18.16-.42.3-.85.41-1.28,4.58-6.83,6.34-8.47,9.38-12.5-.43-4.82-8.37-7.26-12.6-5.04-1.74,3.46-3.92,6.94-6.38,10.2-.08.07-.15.13-.23.2Z"/>
                  <path class="cls-39" d="M197.41,201.39c3.35,4.37-.7,9.76-2.06,14.37-.13.42-.63.6-1,.35-2.86-1.97.26-4.43-1.37-6.12-.21-.22-.54-.3-.83-.2-2.61.94-5.34,3.38-5.27,6.48.01.54-.03,1.09-.19,1.61-.54,1.83-1.79,3.49-2.55,1.41-.32-.74-.14-1.57-.56-2.38-1.81-1.11-3.6-2.73-3.6-5.26-2.25-1.32-2.68-4.92-1.84-7.24.5-1.17,1.44-2.15,2.4-2.6.7-.56,1.43-1.11,2.17-1.62,1.75-1.2,3.72-2.07,5.82-2.44,4.36-.77,6.74.8,8.86,3.63Z"/>
                  <path class="cls-5" d="M198.42,203.3c1.26,3.97-1.9,8.51-3.07,12.46-.13.42-.63.6-1,.35-2.86-1.97.26-4.43-1.37-6.12-.21-.22-.54-.3-.83-.2-2.61.94-5.34,3.38-5.27,6.48.01.54-.03,1.09-.19,1.61-.54,1.83-1.79,3.49-2.55,1.41-.32-.74-.14-1.57-.56-2.38-1.81-1.11-3.6-2.73-3.6-5.26-2.25-1.32-2.68-4.92-1.84-7.24.5-1.17,1.44-2.15,2.4-2.6.7-.56,1.43-1.11,2.17-1.62,1.75-1.2,3.72-2.07,5.82-2.44.92-.16,1.75-.22,2.51-.19"/>
                  <g>
                    <path class="cls-36" d="M185,207.93c-2.24,2.21-2.85,5.98-1.42,8.78-.4-3.03.09-6.04,1.42-8.78h0Z"/>
                    <path class="cls-36" d="M181.84,205.63c-1.56,1.34-2.27,3.73-1.69,5.7.25-.99.45-1.93.74-2.88.28-.96.63-1.85.95-2.82h0Z"/>
                    <path class="cls-36" d="M180.41,203.51c-1.11.67-1.8,1.9-2.02,3.15-.07.42-.08.85.01,1.28.2-.39.37-.76.53-1.13.45-1.05,1.05-2.25,1.47-3.31h0Z"/>
                    <path class="cls-36" d="M195.99,199.5c-.82-1.64-3.05-2.48-4.75-1.79,1.71.36,3.23.93,4.75,1.79h0Z"/>
                  </g>
                </g>
                <g>
                  <path class="cls-7" d="M198.84,241.13c5,11.53,12.35,11.18,21.22,13.12,2.89,1.02,5.49,3.01,8.31,4.29,18.59,6.62,40.26-6,56.61-16.29.65-.46.93-1.43.66-2.29-5-16.04-9.65-32.34-13.91-48.55-2.65-10.07-5.17-20.16-7.59-30.29-.52-2.68-1.85-6.22-4.51-5.87-7.97-.23-15.95.67-23.81,2.4-3.28.08-6.18,7.3-8.13,10.75-2.67,4.64-6.38,3.8-7,10.57-4.18,22.03-14.15,41.74-21.84,62.17Z"/>
                  <path class="cls-11" d="M283.55,236.73c.48,1.94.91,4.07.69,6.03.25-.17.49-.34.74-.52.65-.46.93-1.43.66-2.29-5.04-16.18-9.65-32.34-13.91-48.55,2.46,15.48,8.1,30.14,11.82,45.33Z"/>
                  <path class="cls-11" d="M198.84,241.13c2.54,5.63,6.25,9.4,10.53,10.9,3.48,1.22,7.22.99,10.69,2.22,2.89,1.02,5.49,3.01,8.31,4.29,5.41,2.45,11.39,2.2,17.1,1.23,1.22-.21,2.44-.45,3.66-.72-4.09-.74-8.08-2.28-11.72-4.66-5.89-3.86-10.83-9.97-13.55-17.41-3.23-8.82-3.22-18.86-2.56-28.48.94-13.6,3.08-27.07,6.39-40.11-.64,1.06-1.35,2.02-2.22,2.8-1.08.97-2.38,1.63-3.25,2.88-.93,1.35-1.23,3.16-1.53,4.88-2.35,13.33-7.29,25.74-12.19,38-3.22,8.06-6.44,16.12-9.66,24.17Z"/>
                  <path class="cls-11" d="M269.21,212.1c2.83,11.85,4.7,24.04,5.57,36.33.11-.06.23-.13.34-.19,1.46-.81,2.91-1.63,4.36-2.48-4.21-10.82-7.25-22.26-10.27-33.66Z"/>
                  <g>
                    <path class="cls-36" d="M236.65,201.5c3.06,6.06,7.39,11.26,12.22,15.25,3.78,3.06,8.01,5.53,12.41,6.9-4.82-2.23-9.44-5.25-13.59-8.97-4.14-3.73-7.87-8.22-11.04-13.18h0Z"/>
                    <path class="cls-36" d="M265.11,230.99c-5.42,2.19-11.11,3.61-16.81,4.11-5.7.49-11.49.08-17.12-1.14,4.83,1.68,9.98,2.31,15,2.14,6.46-.28,13.02-1.91,18.92-5.12h0Z"/>
                  </g>
                  <path class="cls-5" d="M220.69,178.96c-4.18,22.03-14.15,41.74-21.84,62.17,5,11.53,12.35,11.18,21.22,13.12,2.89,1.02,5.49,3.01,8.31,4.29,18.59,6.62,40.26-6,56.61-16.29.65-.46.93-1.43.66-2.29-5-16.04-9.65-32.34-13.91-48.55-2.65-10.07-5.17-20.16-7.59-30.29"/>
                </g>
                <g>
                  <path class="cls-7" d="M205.62,167.36c3.23-6.39,8.57-18.13,15.53-20.7,6.97-1.13,9.35,7.31,8.44,12.67-.93,6.34-4.22,12.13-7.06,17.77,0,0-8.51,13.56-10.41,16.78-1.89,3.22-10.5,11.85-10.5,11.85,0,0-2.41-9.11-10.4-10.21l14.38-28.16Z"/>
                  <path class="cls-5" d="M229.6,159.33c-.93,6.34-4.22,12.13-7.06,17.77,0,0-8.51,13.56-10.41,16.78-1.89,3.22-10.5,11.85-10.5,11.85,0,0-2.41-9.11-10.4-10.21l14.38-28.16c3.23-6.39,8.57-18.13,15.53-20.7"/>
                  <path class="cls-11" d="M214.18,176.3c1.4.51,2.82.91,4.17,1.24,1.44.39,3.22.68,4.2-.44,3.58-7.09,9.45-17.3,6.38-25.15.96,5.33-.16,11.03-3.12,15.58-2.7,4.15-6.9,7.29-11.62,8.78Z"/>
                  <g>
                    <path class="cls-36" d="M228.6,150.54c1.42,4.25,1.09,8.83-.15,13.07-1.24,4.29-3.37,8.22-5.28,12.25,1.83-2.82,3.53-5.75,4.83-8.86,2.15-5.13,3.08-11.3.59-16.46h0Z"/>
                    <path class="cls-36" d="M232.22,155.51c-.61,1.4-1.21,2.67-1.9,4.03,1.45-.67,2.3-2.49,1.9-4.03h0Z"/>
                    <path class="cls-36" d="M253.84,143.86c-1.76,6.02-8.61,7.73-13.85,5.08-1.7-.83-3.22-2.02-4.56-3.41,2.22,3.21,6.04,5.48,10.01,5.33,4.02-.07,7.88-2.88,8.39-7h0Z"/>
                    <path class="cls-36" d="M219.37,174.53c-3.1-1.8-5.49-4.64-6.7-8-.4-1.11-.67-2.28-.82-3.48-.15,1.21-.03,2.46.29,3.65.94,3.55,3.69,6.74,7.24,7.83h0Z"/>
                    <path class="cls-36" d="M226.8,147.95c-.74-1.55-2.84-2.34-4.41-1.66,1.58.36,2.98.89,4.41,1.66h0Z"/>
                  </g>
                </g>
              </g>
              <g>
                <path class="cls-11" d="M258.26,148.28s-.4,2.02-2.09,6.37c-1.69,4.35-4.11,9.3-19.8,2.53-15.68-6.78-24.02-.81-24.02-.81,2.08-5.93,11.48-6.37,20.45-4.01,3.78,1,5.99,1.77,13,4.51,8.92,3.49,9.45-7.8,12.03-10.64.02.78.42,2.05.42,2.05Z"/>
                <g>
                  <g>
                    <path class="cls-40" d="M262.52,132.19h0c-.29.14-.58.28-.87.42,0,0,0,0,0,0-4.25,2-8.97,3.35-13.82,3.76-25.47,2.14-34.73-8.54-35.95-10.82-2.14,1.11-4.15,1.7-6.02,1.87-12.03,1.11-18.05-14.97-10.94-20.27.69-.51,1.49-.92,2.43-1.21-3.27-38.97,17.34-51.24,35.87-52.79,2.04-.17,5.28-.14,9.08.38.14.02.28.04.42.06,13.42,1.91,33.48,9.77,33.29,35.12-.06,9.01,2.8,10.49,3.88,20.13.96,8.55-6.63,18-17.37,23.35Z"/>
                    <path class="cls-15" d="M262.52,132.19h0c-.29.14-.58.28-.87.42,15.02-10.12,18.23-20.75,14.96-29.98-3.27-9.23-2.22-12.61-2.83-19.83-1.91-22.71-31.61-28.95-31.61-28.95,0,0,.19-.1.54-.26,13.42,1.91,33.48,9.77,33.29,35.12-.06,9.01,2.8,10.49,3.88,20.13.96,8.55-6.63,18-17.37,23.35Z"/>
                    <path class="cls-15" d="M262.52,132.19c-4.48,2.23-9.51,3.74-14.69,4.18-25.47,2.14-34.73-8.54-35.95-10.82-2.14,1.11-4.15,1.7-6.02,1.87-3.46-2.9-6.07-5.54-7.38-7.4-1.8-2.58-3.09-7.17-3.56-12.86.69-.51,1.49-.92,2.43-1.21-3.27-38.97,17.34-51.24,35.87-52.79,2.04-.17,5.28-.14,9.08.38-.07.2-.12.32-.12.32,0,0-9.08,1.77-17.5,9.36-8.42,7.58-17.96,24.24-10.44,51.22,7.29,26.16,47.82,17.87,48.28,17.76Z"/>
                    <path class="cls-2" d="M211.12,78.85s34.48-32.16,59.35-9.6c0,0-10.24-15.77-27.53-15.41-23.88.5-31.83,25.01-31.83,25.01Z"/>
                    <path class="cls-3" d="M211.12,78.85s34.48-32.16,59.35-9.6c0,0-10.24-15.77-27.53-15.41-23.88.5-31.83,25.01-31.83,25.01Z"/>
                    <path class="cls-6" d="M279.89,108.84c1.35,12.12-14.44,26.05-32.06,27.53-25.47,2.14-34.73-8.54-35.95-10.82-17.19,8.93-26.69-15.89-14.54-19.6-3.27-38.97,17.34-51.24,35.87-52.79,9.24-.78,43.03,2.68,42.8,35.55-.06,9.01,2.8,10.49,3.88,20.14Z"/>
                  </g>
                  <g>
                    <path class="cls-38" d="M278.92,82.61c-1.83,10.93.42,20.2.42,20.2,0,0,3.68,12.29-5.34,20.82,4.12-4.58,6.43-9.83,5.88-14.78-1.08-9.64-3.95-11.13-3.88-20.13.03-4.29-.52-8.08-1.52-11.42,0,0,0-.01,0-.02-4.49-15.01-18.02-21.04-28.83-23.18h-.02s-.09-.02-.14-.03c-.07-.02-.14-.03-.22-.04-7.76-1.37-32.55,4.56-36.46,36.18-1.03,8.34-.79,15.35.51,21.29,1.99,9.08,6.45,15.66,12.64,20.69.86.7,1.75,1.37,2.67,2.01h0c3.01,1.02,6.64,1.83,10.96,2.22,0,0,0,0,0,0,3.58.32,7.63.35,12.21-.03.85-.07,1.69-.17,2.53-.3.17-.03.34-.05.51-.08,3.12-.52,6.16-1.41,9.02-2.6-1.64.86-3.1,1.46-5.76,2.86-.87.46-.3.82.75,1.36.73.38,1.69.84,2.55,1.5,1.58,1.19.74,2.26.09,2.77-1.32,1.04,4.06-.02.09,4.36-2.58,2.84-3.12,14.14-12.03,10.65-7-2.74-9.21-3.52-13-4.51-5.99-1.58-10.87-2.04-15.04-.47-2.08.78-4.72,2.5-5.41,4.47.22-.71,2.37-8.94,6.16-10.17,0,0-1.78-2.3.76-3.84,1.88-1.15,4.84-1.05,4.84-1.05,0,0-6.81-1.38-13.93-4.23-14.23-5.69-33.89-20.28-32.22-62.62,1.27-32.16,28.07-41.85,35.98-44.32,7.9-2.47,33.09-3.09,48.72,9.62,10.62,8.64,13.11,21.17,13.11,21.17l.09,1.12s5.15,9.61,3.32,20.54Z"/>
                    <path class="cls-13" d="M279.73,76.62c.04,3.49-.44,6.95-.89,10.38-.4,3.4-.54,6.81-.19,10.23.2,2.23.44,4.47.42,6.71,0,0-.02.01-.02.02-2-8.07-4.32-9.82-2.93-21.63,1.86-15.9-5.93-26.31-5.93-26.31.07-.12.14-.23.21-.33.02,0,.04.02.06.03.62.51,1.27,1.08,1.9,1.7,5.15,5.1,7.38,12.05,7.37,19.2Z"/>
                    <path class="cls-13" d="M274.48,77.27c-4.49-15.01-18.02-21.04-28.83-23.18h-.02s-.09-.02-.14-.03c-.07-.02-.14-.03-.22-.04-7.76-1.37-32.55,4.56-36.46,36.18-1.03,8.34-.79,15.35.51,21.29,0,0-7.71-7.98-5.69-26.69,1.49-13.74,7.15-34.29,33.46-35.07,7.48-.22,30.49.78,37.39,27.54Z"/>
                    <path class="cls-13" d="M269.77,48.69c-2.52-2.48-6.32-3.99-10.47-4.6-.29-.04-.54.34-.29.43h.02c1.22.46,2.46.96,3.58,1.54,6.43,3.15,10.22,8.56,11.74,14.98.11.46,1,.16.99-.33-.11-2.98-.97-7.51-5.57-12.02Z"/>
                    <path class="cls-13" d="M257.32,141.28c-1.43.95-4.1,2.73-5.58,7.85-.28.97.24-.23.79-1.18,1.33-2.28,3.81-5.19,5.37-4.79,0,0-.03-2.23-.58-1.87Z"/>
                    <path class="cls-13" d="M254.87,137.62c-.51.16-.81.24-.81.24-2.65-1.47-12.11,2.21-22.57.47-9.36-1.55-22.28-6.24-28.35-25.89-2.13-6.91-1.88-7.45-1.58-7.48.77-.06,3.08,7.93,7.95,15.47,3.78,5.86,9.92,10.73,14.23,12.97,3.91,2.04,6.65,2.32,11.86,2.99,0,0,0,0,0,0,4.41.57,9.3.52,14.74-.33.17-.03.34-.05.51-.08,3.12-.52,6.16-1.41,9.02-2.6-1.64.86-3.1,1.46-5.76,2.86-.87.46-.3.82.75,1.36Z"/>
                    <path class="cls-13" d="M230.88,151.72c-.06-.68,9.29.85,14.29,3.12,4.79,2.18,8.54-1.47,10.29-5.74,0,0-.91,4.16-2.73,6.56-1.8,2.38-5.59,1.78-11.11-.68-4.14-1.85-10.74-3.27-10.74-3.27Z"/>
                    <path class="cls-13" d="M230.36,147.75c.39.17.18.76-.23.64-5.05-1.41-11.81-3.11-15.1,3.28-1.01,1.96-2.21,2.89-2.94,4.73,0-.01,0-.02,0-.03.22-.71,2.37-8.94,6.16-10.17,0,0-1.78-2.3.76-3.84,1.88-1.15,4.84-1.05,4.84-1.05,0,0-3.39.68-4.5,1.98-.5.59-.04,2.03,1.24,2.06,2.54.04,5.37.51,9.76,2.39Z"/>
                    <path class="cls-13" d="M235.17,144.8c1.58,1.21,1.51,2.05.97,1.71-4.28-2.7-8.33-4.38-12.2-4.59-.45-.79-12.01-2.26-22.98-9.44-9.25-6.05-17.91-16.43-20.91-31.08,0,0,9.95,27.1,36.34,33.9,2.5.64,7.06,1.57,10.16,2.7.48.18,1.38.52,1.81.8.22.15.05.49-.2.41-1.57-.55-4.08-1.18-6.45-.7-1,.2-.71,1.02,1.23,1.46,3.84.87,6.72.64,12.23,4.85Z"/>
                    <path class="cls-6" d="M278.92,82.61c-1.83,10.93.42,20.2.42,20.2,0,0,3.68,12.29-5.34,20.82,4.12-4.58,6.43-9.83,5.88-14.78-1.08-9.64-3.95-11.13-3.88-20.13.17-23.55-17.13-32-30.35-34.62h-.02s-.09-.02-.14-.03c-.07-.02-.14-.03-.22-.04-7.76-1.37-32.55,4.56-36.46,36.18-2.83,22.85,3.88,35.7,15.82,43.99h0c5.51,1.87,13.07,3.04,23.18,2.19,4.19-.35,8.28-1.41,12.06-2.97-1.64.86-3.1,1.46-5.76,2.86-1.47.78,1.2,1.26,3.31,2.86,1.58,1.19.74,2.26.09,2.77-1.32,1.04,4.06-.02.09,4.36-2.58,2.84-3.12,14.14-12.03,10.65-7-2.74-9.21-3.52-13-4.51-8.99-2.36-18.4-1.93-20.46,4.03.15-.49,2.32-8.95,6.17-10.2,0,0-1.78-2.3.76-3.84,1.88-1.15,4.84-1.05,4.84-1.05,0,0-6.81-1.38-13.93-4.23-14.23-5.69-33.89-20.28-32.22-62.62,1.27-32.16,28.07-41.85,35.98-44.32,7.9-2.47,33.09-3.09,48.72,9.62,10.62,8.64,13.11,21.17,13.11,21.17l.09,1.12s5.15,9.61,3.32,20.54Z"/>
                    <path class="cls-13" d="M279.73,76.62c.04,3.49-.44,6.95-.89,10.38-.4,3.4-.54,6.81-.19,10.23.2,2.23.44,4.47.42,6.71,0,.06,0,.13,0,.19,0-.06-.02-.11-.02-.17-.14-1.09-.29-2.17-.47-3.24-.47-2.72-1.34-5.7-1.37-8.45-.09-2.89-.07-5.81.25-8.67.87-7.78,1.03-16.37-3.55-23.02-1.11-1.62-2.35-3.17-3.73-4.57-.16-.16.03-.41.21-.33.02,0,.04.02.06.03.62.51,1.27,1.08,1.9,1.7,5.15,5.1,7.38,12.05,7.37,19.2Z"/>
                    <path class="cls-13" d="M182.65,78.2c.78-6.92,3.81-13.62,8.01-19.18.29-.39.9-.02.69.42v.03c-1.02,2.09-2,4.3-2.78,6.48-4.65,12.32-4.39,25.56-.72,38,.26.89-1.01,1.36-1.4.52-2.39-5.13-5.21-13.67-3.8-26.28Z"/>
                    <path class="cls-13" d="M234.69,142.3c-.3-.14-.14-.59.18-.51,4.11,1.05,6.99,2.32,10.86,4.18,3.51,1.69,3.18-5.43,8.03-5.64.27-.01.4.34.17.49-.6.41-1.45,1.16-2.26,2.42-.86,1.34-1.37,3.35-2.32,5.9-1.05,2.8-4.23-1.49-9.13-4.12-1.89-1.01-3.96-2-5.53-2.72Z"/>
                    <path class="cls-13" d="M220.45,34.61c6.07-2.08,12.65-1.81,18.55.59,2.11.85,4.53,1.99,6.83,3.38.45.27.11.96-.38.76-2.15-.89-4.48-1.78-6.71-2.44-6.25-1.86-14.57-1.83-21,1.06-4.74,2.27-8.71,5.84-12.15,9.85-.46.54-1.29-.08-.9-.68,2.77-4.22,7.74-9.76,15.76-12.51Z"/>
                    <path class="cls-13" d="M211.84,133.87s-5.09-2.24-8.72-7.45c-7.19-10.3-14.5-30.37-6.24-54.97.2-.6-.12-1.26-.72-1.47h0c-.58-.2-1.22.07-1.46.64-2.28,5.29-12.56,31.4,4.19,57.13,0,0,6.69,7.81,12.96,6.13Z"/>
                  </g>
                </g>
                <g>
                  <g>
                    <path class="cls-30" d="M261.23,121.06c-.79.97-1.55,1.83-2.33,2.56-2.13,2.01-4.34,3.08-7.58,3.02-1.64-.03-3.23-.42-4.71-1.15-1.67-.82-3.12-2.09-4.26-3.42-.46-.53-.87-1.07-1.22-1.59-.03-.04-2.81-4.16-1.91-5.35.37-.49.8-.41,1-.37.7.16,1.55.41,2.72.72.7.19,1.5.4,2.32.57,3.58.77,7.02,1.17,10.53,1.24,1.56.03,3.19,0,4.99-.11.44-.03.77-.03,1.05-.03.42,0,1.1-.02,1.32.43.21.43-.37,1.56-1.92,3.47Z"/>
                    <path class="cls-35" d="M258.91,123.51s0,.04,0,.1c-2.13,2.01-4.34,3.08-7.58,3.02-1.64-.03-3.23-.42-4.71-1.15-1.67-.82-3.12-2.09-4.26-3.42,1.35-1.29,5.4-1.85,7.08-1.49,2.39.5,9.86,2.58,9.49,2.93Z"/>
                  </g>
                  <g>
                    <path class="cls-1" d="M257.64,74.71c-2.09-1.41,3.28-5.84,7.96-4.61,4.68,1.23,5.1,4.78,5.06,5.14-.04.35-2.8-2.42-5.78-2.3-6.06.23-5.3,3.08-7.24,1.78Z"/>
                    <path class="cls-1" d="M238.76,77.26c.37-2.15-5.07-3.5-11.32-.88-5.31,2.23-6.86,8.25-6.66,8.56.2.3,3.41-4.17,7.43-5.47,6.03-1.95,10.15.13,10.55-2.21Z"/>
                    <path class="cls-27" d="M265.92,81.97c9.85-1.52,10.81,18.69,4.06,21.35-6.87,2.71-10.14-3.44-10.27-8.74-.16-6.65,2.1-11.99,6.21-12.62Z"/>
                    <g>
                      <path class="cls-1" d="M269.78,83.65c1.26.65,2.02,2.01,2.69,3.33.51,1.01.9,2.35,1.18,3.53.06.25.75.3.8-.83.06-1.41.1-2.41-.33-3.64-.61-1.8-1.74-3.59-3.29-4.53-6.66-4.04-11.37,6.12-11.32,10.73,0,.18.3.26.37-.03.66-2.94,3.76-11.75,9.91-8.56Z"/>
                      <path class="cls-1" d="M271.31,84.17c.99.59,2.7-.38,3.28-1.48-1.06.43-2.21,1.15-3.21.29-.18-.16-.45.8-.65.87l.58.32Z"/>
                      <path class="cls-1" d="M272.14,85.13c.76.97,2.73.68,3.37-.85-1.87,1.01-2.81.32-3.3-.19-.16-.17-.33.51-.52.5l.45.54Z"/>
                    </g>
                    <path class="cls-46" d="M258.28,105.89s-.13,3.65-2.75,3.81c-.48.03-.66-.47-1.21-.54-.56-.07-1.19.16-1.29.97-.17,1.33,2.81,2.32,5.19,0,1.65-1.6.69-3.55.07-4.24Z"/>
                    <path class="cls-36" d="M260.5,106.65c.64,2.13-1.34,4.25-3.86,4.83-.17.04-.34.07-.51.1-.4.06-.61-.39-.26-.53,1.64-.69,2.75-1.99,2.85-3.5.16-1.36-.87-2.4-2.36-3.08-.97-.46-2-.63-3.12-.7-.34-.02-.41-.4-.09-.47h.02c1.86-.42,6.29-.03,7.32,3.37Z"/>
                    <g>
                      <path class="cls-27" d="M231.19,86.73c11.65-4.95,16.89,15.25,8.97,20.38-6.42,4.16-12.54-.46-13.9-5.6-1.7-6.46-.11-12.64,4.93-14.78Z"/>
                      <path class="cls-1" d="M229.69,88.61c-1.53,1.28-2.29,3.18-2.94,5.06-.52,1.49-.8,3.36-.97,5-.04.35-.55.38-.61.03-.28-1.68-.58-4.37-.56-6.14.03-2.43.79-4.8,2.68-6.47,6.95-6.18,14.83,2.45,15.94,6.9.04.18-.22.39-.36.13-1.38-2.6-6.63-9.95-13.17-4.5Z"/>
                      <path class="cls-1" d="M225.3,92.95c-.96,1.45-3.94,2.01-5.47,1.39,1.81-.52,4.07-1.6,4.9-3.31.15-.3.85,1.2,1.14,1.11l-.57.8Z"/>
                      <path class="cls-1" d="M225.17,94.67c-.53,1.66-3.58,3.13-5.45,2.02,3.42-.58,4.38-2.12,4.79-3.04.14-.31.73.26.99.1l-.33.93Z"/>
                    </g>
                    <g>
                      <ellipse class="cls-1" cx="239.25" cy="95.62" rx="4.44" ry="6.24" transform="translate(-17.96 80.61) rotate(-18.45)"/>
                      <ellipse class="cls-10" cx="236.54" cy="92.6" rx=".83" ry="1.31" transform="translate(-17.15 79.6) rotate(-18.45)"/>
                    </g>
                    <g>
                      <ellipse class="cls-1" cx="269.99" cy="91.49" rx="4.44" ry="6.24" transform="translate(-13.59 62.41) rotate(-12.87)"/>
                      <ellipse class="cls-10" cx="267.56" cy="88.65" rx=".83" ry="1.31" transform="translate(-13.02 61.8) rotate(-12.87)"/>
                    </g>
                  </g>
                </g>
              </g>
            </g>
            <g class="cls-25">
              <g>
                <polygon class="cls-21" points="291.9 72.97 337.61 62.5 338.32 67.26 344.03 66.26 349.65 65.27 355.82 132.26 311.83 146.33 291.9 72.97"/>
                <polyline class="cls-20" points="296.42 74.08 303.3 75.69 346.16 65.89 339.5 64.15 296.42 74.08"/>
                <polygon class="cls-34" points="311.83 146.33 300.74 142.72 291.9 72.97 303.2 75.71 311.83 146.33"/>
                <line class="cls-42" x1="349.65" y1="65.27" x2="303.2" y2="75.71"/>
                <line class="cls-33" x1="298.71" y1="126.75" x2="309.5" y2="130.28"/>
                <polygon class="cls-44" points="297.3 115.58 308.52 119.24 305.77 96.76 294.46 93.23 297.3 115.58"/>
              </g>
            </g>
          </g>
          <g>
            <path class="cls-10" d="M40.76,64.64c1.07.38,1.92.93,2.55,1.66.63.73,1.06,1.6,1.28,2.62s.24,2.08.05,3.18-.55,2.22-1.1,3.35c-.55,1.12-1.28,2.17-2.18,3.13-.9.96-1.97,1.79-3.21,2.5-1.23.7-2.62,1.2-4.15,1.49l-.11,4.94-6.64-.69-.44-21.42c3.47-.4,6.82-.76,10.04-1.07,1.54-.16,2.84-.06,3.91.32ZM37.29,72.85s0-.12.03-.3c.02-.18,0-.4-.08-.66-.07-.26-.23-.47-.47-.64-.24-.17-.62-.26-1.14-.25-.52,0-1.22.19-2.1.53l-.27,4.39c.66-.15,1.23-.36,1.71-.63.48-.27.89-.57,1.22-.88.33-.31.58-.61.77-.89.18-.28.29-.51.33-.67Z"/>
            <path class="cls-10" d="M49.58,70.44v3.04h.05c.47-2.03,1.85-3.04,4.11-3.04.49,0,.96.03,1.4.08l-1.43,5.84c-.13-.02-.27-.03-.41-.03h-.55c-.77,0-1.43.25-1.99.75-.56.5-.84,1.29-.84,2.37v7.05l-5.76.49-.17-16.07,5.57-.49Z"/>
            <path class="cls-10" d="M70.36,84.81c-1.12.8-2.26,1.38-3.43,1.74s-2.51.53-4.03.53c-1.24,0-2.38-.21-3.41-.64-1.03-.43-1.92-1.01-2.67-1.74-.75-.73-1.33-1.59-1.75-2.56-.42-.98-.63-2.02-.63-3.11,0-1.37.22-2.6.66-3.67.44-1.08,1.03-1.99,1.78-2.74s1.62-1.32,2.62-1.71c1-.39,2.06-.59,3.2-.59,1.83,0,3.41.47,4.76,1.4,1.34.93,2.34,2.18,3,3.73l-8.2,6.17c.2.11.47.18.8.22.33.04.63.06.9.06.84,0,1.55-.15,2.13-.45.58-.3,1.1-.66,1.58-1.08l2.71,4.47ZM64.5,75.82c-.26-.31-.54-.52-.84-.63-.3-.11-.64-.16-1.03-.16s-.7.08-1,.23c-.3.16-.56.37-.78.63-.22.27-.39.56-.51.89-.12.33-.18.67-.18,1.01s.02.56.07.7c.05.14.11.28.18.43l4.09-3.1Z"/>
            <path class="cls-10" d="M88.35,77.08c0-.35-.13-.63-.38-.85s-.59-.33-1.01-.33-.79.14-1.04.41c-.26.27-.38.56-.38.85l.16,9.38-5.95.49.11-9.9c.02-.37-.11-.66-.38-.89-.27-.23-.63-.34-1.07-.34-.35,0-.67.11-.97.33s-.44.53-.42.93l.27,9.9-5.76-.49-.33-15.6,5.59-.49v2.52h.05c.58-.79,1.25-1.4,1.99-1.85.74-.45,1.63-.67,2.67-.67.86,0,1.58.13,2.15.4.58.27,1.1.68,1.58,1.25.48-.49,1.01-.89,1.62-1.19.6-.3,1.27-.45,2-.45.82,0,1.55.14,2.18.42.63.28,1.16.68,1.59,1.19.43.51.76,1.11.99,1.8.23.69.35,1.42.37,2.21l.16,10.45-5.95.49.16-9.95Z"/>
            <path class="cls-10" d="M95.92,64.35l6.28-.27-.33,4.83-5.98.44.03-4.99ZM95.95,71.29l6.12-.49-.3,15.82-5.81.49v-15.82Z"/>
            <path class="cls-10" d="M113.14,84.43h-.05c-.37,1.01-.94,1.72-1.71,2.14-.78.42-1.69.63-2.73.63-1.37,0-2.48-.41-3.33-1.22-.85-.81-1.28-2-1.28-3.55v-11.52l6.12-.49-.17,10.15c-.02.44.08.75.29.95.21.19.54.29.97.29.37,0,.66-.09.89-.27.23-.18.33-.49.32-.93l-.16-9.68,6.31-.49-.41,16.32-5.05.22v-2.52Z"/>
            <path class="cls-10" d="M137.36,77.08c0-.35-.13-.63-.38-.85s-.59-.33-1.01-.33-.79.14-1.04.41c-.26.27-.38.56-.38.85l.16,9.38-5.95.49.11-9.9c.02-.37-.11-.66-.38-.89-.27-.23-.63-.34-1.07-.34-.35,0-.67.11-.97.33s-.44.53-.42.93l.27,9.9-5.76-.49-.33-15.6,5.59-.49v2.52h.05c.58-.79,1.25-1.4,1.99-1.85.74-.45,1.63-.67,2.67-.67.86,0,1.58.13,2.15.4.58.27,1.1.68,1.58,1.25.48-.49,1.01-.89,1.62-1.19.6-.3,1.27-.45,2-.45.82,0,1.55.14,2.18.42.63.28,1.16.68,1.59,1.19.43.51.76,1.11.99,1.8.23.69.35,1.42.37,2.21l.16,10.45-5.95.49.16-9.95Z"/>
            <path class="cls-10" d="M39.12,118.8c-.52.27-1.06.48-1.6.64s-1.11.28-1.67.34-1.12.1-1.65.1c-1.24,0-2.39-.21-3.44-.63-1.05-.42-1.97-1-2.74-1.74-.78-.74-1.38-1.61-1.82-2.61-.44-1-.66-2.07-.66-3.22,0-1.33.23-2.54.69-3.61.46-1.07,1.09-1.97,1.91-2.71.81-.74,1.78-1.31,2.89-1.7,1.11-.39,2.32-.59,3.62-.59s2.43.21,3.39.63c.96.42,1.77.85,2.43,1.29l-3.62,4.74c-.26-.2-.55-.37-.89-.49s-.68-.22-1.03-.27-.68-.07-1-.05c-.32.02-.58.08-.78.19-.35.18-.64.4-.89.64-.25.25-.44.52-.58.81-.14.29-.2.61-.19.95,0,.34.11.68.29,1.03.37.73.89,1.18,1.56,1.34.68.16,1.39.06,2.14-.3l1.4-.71,3.73,4.94c-.46.4-.95.74-1.47,1Z"/>
            <path class="cls-10" d="M57.28,110.31c.18,1.26.12,2.44-.18,3.52-.3,1.09-.79,2.05-1.45,2.88-.67.83-1.5,1.52-2.5,2.06-1,.54-2.11.89-3.33,1.06-1.23.16-2.4.13-3.51-.11s-2.11-.66-2.99-1.28c-.88-.61-1.61-1.4-2.19-2.36-.59-.96-.96-2.07-1.12-3.33-.18-1.26-.12-2.44.18-3.52s.79-2.05,1.45-2.89c.67-.84,1.5-1.53,2.5-2.07,1-.54,2.11-.89,3.33-1.06,1.22-.16,2.39-.13,3.5.11,1.11.24,2.1.66,2.98,1.27.88.61,1.61,1.4,2.19,2.37.58.97.97,2.08,1.15,3.35ZM45.77,112.64c.31.71.8,1.18,1.48,1.4.68.22,1.44.15,2.3-.22.84-.37,1.42-.86,1.74-1.49.32-.63.33-1.3.04-2.02-.31-.69-.8-1.16-1.48-1.38-.68-.23-1.44-.16-2.28.21-.86.37-1.45.87-1.77,1.51-.32.64-.33,1.31-.04,2Z"/>
            <path class="cls-10" d="M63.59,105.65h.11c.6-.82,1.22-1.38,1.85-1.67.63-.29,1.32-.44,2.07-.44s1.44.14,2.03.41c.58.27,1.08.66,1.48,1.15.4.49.71,1.07.92,1.73s.32,1.37.32,2.14v10.61l-5.92.49.08-9.98c.02-.33-.11-.6-.37-.82-.27-.22-.58-.33-.95-.33s-.66.11-.95.32c-.28.21-.42.5-.42.86l.11,9.9-5.84-.41-.22-15.6,5.7-.47v2.11Z"/>
            <path class="cls-10" d="M81.51,120.01c-.26,0-.55.01-.86.01-1.75,0-3.12-.4-4.1-1.19-.98-.8-1.47-2.09-1.47-3.88v-6.5l-1.51.03.16-4.74h1.29v-1.81l5.95-2.69v4.5l2.22-.33-.3,5.05h-1.86v4.8c0,.55.08.91.23,1.1.15.18.51.27,1.06.27.24,0,.43,0,.58-.03.15-.02.28-.05.41-.08l-.96,5.43c-.29.04-.57.06-.84.07Z"/>
            <path class="cls-10" d="M99.13,117.72c-1.12.8-2.26,1.38-3.43,1.74s-2.51.53-4.03.53c-1.24,0-2.38-.21-3.41-.64-1.03-.43-1.92-1.01-2.67-1.74-.75-.73-1.33-1.59-1.75-2.56-.42-.98-.63-2.02-.63-3.11,0-1.37.22-2.6.66-3.67.44-1.08,1.03-1.99,1.78-2.74s1.62-1.32,2.62-1.71c1-.39,2.06-.59,3.2-.59,1.83,0,3.41.47,4.76,1.4,1.34.93,2.34,2.18,3,3.73l-8.2,6.17c.2.11.47.18.8.22.33.04.63.06.9.06.84,0,1.55-.15,2.13-.45.58-.3,1.1-.66,1.58-1.08l2.71,4.47ZM93.26,108.72c-.26-.31-.54-.52-.84-.63-.3-.11-.64-.16-1.03-.16s-.7.08-1,.23c-.3.16-.56.37-.78.63-.22.27-.39.56-.51.89-.12.33-.18.67-.18,1.01s.02.56.07.7c.05.14.11.28.18.43l4.09-3.1Z"/>
            <path class="cls-10" d="M105.66,105.65h.11c.6-.82,1.22-1.38,1.85-1.67.63-.29,1.32-.44,2.07-.44s1.44.14,2.03.41c.58.27,1.08.66,1.48,1.15.4.49.71,1.07.92,1.73s.32,1.37.32,2.14v10.61l-5.92.49.08-9.98c.02-.33-.11-.6-.37-.82-.27-.22-.58-.33-.95-.33s-.66.11-.95.32c-.28.21-.42.5-.42.86l.11,9.9-5.84-.41-.22-15.6,5.7-.47v2.11Z"/>
            <path class="cls-10" d="M123.58,120.01c-.26,0-.55.01-.86.01-1.75,0-3.12-.4-4.1-1.19-.98-.8-1.47-2.09-1.47-3.88v-6.5l-1.51.03.16-4.74h1.29v-1.81l5.95-2.69v4.5l2.22-.33-.3,5.05h-1.86v4.8c0,.55.08.91.23,1.1.15.18.51.27,1.06.27.24,0,.43,0,.58-.03.15-.02.28-.05.41-.08l-.96,5.43c-.29.04-.57.06-.84.07Z"/>
            <path class="cls-10" d="M26.68,130.85l6.2-.49-.25,22.08-5.76.49-.19-22.08Z"/>
            <path class="cls-10" d="M34.99,130.17l6.28-.27-.33,4.83-5.98.44.03-4.99ZM35.02,137.11l6.12-.49-.3,15.82-5.81.49v-15.82Z"/>
            <path class="cls-10" d="M52.95,136.01c1.1,0,2.1.24,3.02.71.91.48,1.71,1.1,2.39,1.88.68.78,1.2,1.66,1.58,2.65s.56,1.99.56,3.02c0,1.37-.23,2.59-.7,3.65-.47,1.06-1.08,1.95-1.85,2.67-.77.72-1.66,1.27-2.67,1.65-1.02.38-2.07.56-3.17.56-.84,0-1.63-.15-2.37-.44-.74-.29-1.43-.6-2.07-.93v1.18h-4.33l-.16-22.1,6.33-.49-.25,7.13c.57-.31,1.11-.58,1.65-.8.53-.22,1.21-.33,2.06-.33ZM52.46,147.06c.44-.13.81-.31,1.12-.53.31-.23.56-.49.75-.78.19-.29.32-.6.37-.93.05-.33.04-.66-.05-.99-.09-.33-.25-.62-.47-.86-.22-.25-.49-.45-.81-.6-.32-.16-.68-.25-1.07-.27-.39-.03-.81.02-1.25.15-.44.13-.82.31-1.14.55-.32.24-.58.5-.77.8-.19.29-.32.6-.37.93s-.04.66.05.99c.09.33.25.62.47.86.22.25.49.44.81.59.32.15.68.23,1.08.26s.82-.02,1.26-.15Z"/>
            <path class="cls-10" d="M66.14,136.26v3.04h.05c.47-2.03,1.85-3.04,4.11-3.04.49,0,.96.03,1.4.08l-1.43,5.84c-.13-.02-.27-.03-.41-.03h-.55c-.77,0-1.43.25-1.99.75-.56.5-.84,1.29-.84,2.37v7.05l-5.76.49-.17-16.07,5.57-.49Z"/>
            <path class="cls-10" d="M80.87,150.79h-.05c-.49.69-1.12,1.18-1.88,1.45-.76.27-1.58.41-2.46.41-.73,0-1.43-.13-2.08-.4s-1.23-.64-1.73-1.14c-.49-.49-.89-1.09-1.18-1.78-.29-.69-.44-1.47-.44-2.33,0-.75.15-1.44.44-2.07.29-.63.69-1.18,1.19-1.65.5-.47,1.1-.83,1.78-1.1.69-.26,1.43-.4,2.24-.4s1.55.12,2.12.37c.58.25,1.07.53,1.47.84v-.82c0-.84-.27-1.4-.82-1.67-.55-.27-1.26-.41-2.14-.41-.8,0-1.55.08-2.25.25s-1.4.36-2.11.58l1.07-4.36c.88-.26,1.79-.43,2.74-.54.95-.1,1.92-.15,2.91-.15.9,0,1.77.11,2.63.32.86.21,1.61.55,2.26,1.03.65.48,1.17,1.09,1.55,1.84.38.75.57,1.67.55,2.77l-.3,10.37-5.51.47v-1.86ZM77.39,145.72c-.62.09-1.13.31-1.54.64s-.58.72-.52,1.14c.07.42.33.74.78.95.45.21,1.03.26,1.74.15.71-.11,1.24-.34,1.59-.69.35-.35.48-.72.41-1.12-.05-.35-.29-.64-.7-.89-.41-.25-1-.31-1.77-.18Z"/>
            <path class="cls-10" d="M94.14,136.26v3.04h.05c.47-2.03,1.85-3.04,4.11-3.04.49,0,.96.03,1.4.08l-1.43,5.84c-.13-.02-.27-.03-.41-.03h-.55c-.77,0-1.43.25-1.99.75-.56.5-.84,1.29-.84,2.37v7.05l-5.76.49-.17-16.07,5.57-.49Z"/>
            <path class="cls-10" d="M106.76,142.56l1.34-6.03,5.65.49-5.87,20.68-6.2-.49,2.36-6.44-5.16-13.49,5.98-.74,1.84,6.03h.05Z"/>
            <path d="M26.6,182.77c-.1-.11-.14-.22-.14-.34,0-.14.02-.29.07-.45l2.38-10.85c.02-.14.09-.25.19-.33.1-.08.23-.12.37-.12.13,0,.25.04.34.11.1.07.16.16.2.27l3,9.54,3.46-9.56c.05-.11.12-.19.22-.26.1-.07.22-.1.35-.1.12,0,.23.04.32.13s.16.19.18.32l2.41,10.8c.06.2.09.37.09.5s-.05.25-.16.35c-.11.1-.24.15-.4.15-.14,0-.27-.04-.37-.12-.1-.08-.17-.19-.19-.33l-2.05-9.21-3.37,9.3c-.04.11-.1.2-.21.26-.1.07-.21.1-.33.1s-.23-.04-.32-.11c-.1-.07-.16-.17-.2-.29l-2.9-9.11-2,9.05c-.02.14-.09.25-.19.33-.1.08-.22.12-.37.12-.17,0-.3-.05-.4-.16Z"/>
            <path d="M44.49,182.34c-.68-.39-1.21-.91-1.58-1.57-.37-.66-.56-1.38-.56-2.16s.17-1.58.51-2.29c.34-.71.82-1.29,1.43-1.72.61-.43,1.31-.65,2.11-.65.72,0,1.33.14,1.84.41.51.28.89.61,1.15.99.26.38.39.73.39,1.03,0,.22-.14.41-.43.58l-5.58,3.19c.3.58.71,1.01,1.22,1.3.52.29,1.12.44,1.82.44.38,0,.79-.1,1.21-.29s.76-.42,1.02-.68c.08-.12.2-.18.36-.18s.28.05.39.15c.1.1.15.23.15.39,0,.12-.05.24-.14.36-.32.37-.76.68-1.32.93-.56.25-1.11.37-1.65.37-.88,0-1.66-.19-2.34-.58ZM47.87,175.32c-.36-.2-.85-.31-1.46-.31-.58,0-1.09.16-1.55.48-.46.32-.81.75-1.07,1.29s-.39,1.13-.4,1.78c0,.24.01.43.04.58l5.24-2.9c-.17-.41-.43-.71-.79-.92Z"/>
            <path d="M52.83,182.77c-.11-.11-.17-.23-.17-.38v-7.88c0-.14.06-.27.17-.39.11-.11.25-.17.41-.17s.29.06.4.17c.11.11.16.24.16.39v2.07c.4-.78.91-1.41,1.54-1.9s1.25-.73,1.86-.73c.52,0,.98.15,1.4.46.41.31.7.83.85,1.57.43-.7.92-1.21,1.46-1.54.54-.33,1.07-.49,1.6-.49.73,0,1.32.27,1.75.81.44.54.66,1.38.66,2.52v5.11c0,.14-.06.27-.17.38-.11.11-.25.16-.41.16s-.29-.05-.4-.16c-.11-.11-.16-.23-.16-.38v-5.24c0-.74-.12-1.29-.36-1.63-.24-.34-.59-.51-1.06-.51-.36,0-.76.14-1.2.41-.44.28-.81.67-1.12,1.17-.31.5-.47,1.08-.47,1.73v4.07c0,.14-.05.27-.16.38-.11.11-.24.16-.4.16s-.29-.05-.41-.16c-.11-.11-.17-.23-.17-.38v-5.24c0-.76-.11-1.3-.32-1.64-.22-.34-.57-.5-1.06-.5-.41,0-.83.17-1.26.51-.43.34-.83.76-1.19,1.25-.32.46-.54.88-.65,1.28-.11.4-.16.95-.16,1.66v2.68c0,.14-.05.27-.16.38-.11.11-.24.16-.4.16s-.29-.05-.41-.16Z"/>
            <path d="M68.43,182.78c-.11-.1-.17-.23-.17-.37v-11.34c0-.14.06-.26.17-.36.11-.1.25-.14.41-.14.14,0,.27.05.38.14.11.1.16.22.16.36v4.41c.38-.44.85-.79,1.4-1.03.55-.24,1.13-.36,1.73-.36.95,0,1.71.36,2.29,1.07.58.71.86,1.68.86,2.89,0,1.43-.33,2.58-.98,3.45-.65.87-1.63,1.3-2.94,1.3-.41,0-.83-.05-1.26-.15s-.8-.22-1.12-.35v.14c0,.12-.05.23-.16.33-.11.1-.23.15-.38.15s-.27-.05-.39-.15ZM74.58,178.05c0-.89-.19-1.58-.57-2.08-.38-.5-.88-.75-1.52-.75-.58,0-1.1.11-1.57.32-.47.22-.85.51-1.12.88-.28.37-.41.78-.41,1.22v3.62c.23.1.55.2.96.3.41.1.83.15,1.25.15,1.99,0,2.99-1.22,2.99-3.67Z"/>
            <path d="M80.18,182.34c-.68-.39-1.21-.91-1.58-1.57-.37-.66-.56-1.38-.56-2.16s.17-1.58.51-2.29c.34-.71.82-1.29,1.43-1.72.61-.43,1.31-.65,2.11-.65.72,0,1.33.14,1.84.41.51.28.89.61,1.15.99.26.38.39.73.39,1.03,0,.22-.14.41-.43.58l-5.58,3.19c.3.58.71,1.01,1.22,1.3.52.29,1.12.44,1.82.44.38,0,.79-.1,1.21-.29s.76-.42,1.02-.68c.08-.12.2-.18.36-.18s.28.05.39.15c.1.1.15.23.15.39,0,.12-.05.24-.14.36-.32.37-.76.68-1.32.93-.56.25-1.11.37-1.65.37-.88,0-1.66-.19-2.34-.58ZM83.56,175.32c-.36-.2-.85-.31-1.46-.31-.58,0-1.09.16-1.55.48-.46.32-.81.75-1.07,1.29s-.39,1.13-.4,1.78c0,.24.01.43.04.58l5.24-2.9c-.17-.41-.43-.71-.79-.92Z"/>
            <path d="M88.53,182.77c-.12-.11-.18-.23-.18-.36v-7.92c0-.16.06-.28.17-.39.11-.1.25-.15.41-.15.17,0,.31.05.41.15s.16.23.16.39v1.53c.34-.59.75-1.09,1.25-1.5.5-.41,1.08-.62,1.75-.62.53,0,.91.15,1.14.44.23.29.35.65.35,1.05v.58c0,.16-.05.29-.16.39-.11.1-.24.15-.4.15-.18,0-.31-.05-.4-.16-.08-.11-.13-.24-.13-.4v-.41c0-.35-.2-.52-.61-.52-.71,0-1.44.5-2.2,1.51-.18.24-.33.54-.44.9s-.17.7-.17,1.01l-.02,3.98c0,.13-.06.25-.17.36-.11.11-.24.16-.39.16s-.28-.05-.4-.16Z"/>
            <path d="M95.14,178.81c-.11-.11-.17-.23-.17-.38s.06-.27.17-.38.24-.16.39-.16h4.37c.16,0,.29.05.39.15.1.1.15.23.15.39,0,.14-.05.27-.15.38-.1.11-.23.16-.39.16h-4.37c-.14,0-.27-.05-.39-.16Z"/>
            <path d="M104.66,182.38c-.56-.37-1-.86-1.31-1.49-.32-.63-.48-1.33-.48-2.1,0-.82.18-1.6.55-2.34.37-.74.87-1.35,1.52-1.81s1.36-.69,2.14-.69c.67,0,1.29.18,1.84.55.56.37,1,.86,1.31,1.49.32.63.48,1.32.48,2.08,0,.86-.19,1.67-.58,2.41-.38.74-.9,1.34-1.54,1.78-.64.44-1.33.67-2.08.67-.68,0-1.3-.18-1.86-.55ZM108.05,181.38c.46-.35.82-.81,1.1-1.39.28-.58.41-1.19.41-1.84,0-.56-.11-1.09-.34-1.57-.23-.49-.54-.88-.93-1.17-.39-.29-.83-.44-1.3-.44-.53,0-1.02.18-1.47.53s-.81.82-1.08,1.4c-.27.58-.4,1.2-.4,1.84s.12,1.17.35,1.65c.23.47.55.84.94,1.11.4.26.82.4,1.26.4.52,0,1-.17,1.46-.52Z"/>
            <path d="M113.86,182.77c-.11-.11-.17-.23-.17-.36v-7.94c0-.16.06-.28.17-.39.11-.1.25-.15.41-.15s.29.05.4.15c.11.1.16.23.16.39v2.84c.35-1.08.83-1.91,1.45-2.49.62-.58,1.32-.87,2.1-.87.66,0,1.18.17,1.57.5s.66.87.83,1.59c.17.73.25,1.7.25,2.92s0,1.99-.02,2.36v1.03c0,.16-.05.29-.15.4-.1.11-.23.17-.39.17-.14,0-.27-.06-.38-.17-.11-.11-.16-.24-.16-.39v-1.01c-.01-.37-.02-1.15-.02-2.32s-.06-1.96-.17-2.54c-.11-.58-.29-.97-.52-1.18-.23-.21-.57-.31-1-.31-.41,0-.81.15-1.21.45-.4.3-.74.73-1.04,1.28-.4.72-.68,1.4-.85,2.03-.17.64-.27,1.29-.28,1.96l-.02,1.6c0,.17-.05.31-.15.42-.1.11-.23.17-.39.17s-.29-.05-.41-.16Z"/>
            <path d="M124.54,182.78c-.12-.1-.18-.22-.18-.35v-11.32c0-.16.05-.28.16-.39.11-.1.25-.15.41-.15.14,0,.27.05.39.16s.17.23.17.38v11.32c0,.13-.06.25-.17.35-.11.1-.24.15-.39.15s-.28-.05-.4-.15Z"/>
            <path d="M129.47,186.25c-.11-.11-.16-.25-.16-.4,0-.08.02-.17.07-.25l1.75-3.82-3.49-6.96c-.05-.12-.07-.22-.07-.31,0-.17.06-.31.17-.41.11-.11.25-.16.4-.16.12,0,.23.04.32.11.1.07.17.16.22.27l3.06,6.14,2.83-6.17c.12-.24.3-.36.54-.36.16,0,.29.05.4.16.11.11.16.24.16.4,0,.11-.02.19-.05.25l-5.2,11.34c-.13.24-.31.36-.54.36-.16,0-.29-.06-.4-.17Z"/>
            <path d="M27.66,204.14c-.5-.28-.88-.61-1.13-.99s-.39-.7-.39-.96c0-.16.05-.29.15-.39.1-.1.23-.15.39-.15.26,0,.43.13.5.38.17.48.45.85.85,1.12.4.26.88.4,1.46.4s1.05-.16,1.42-.47.56-.68.56-1.12c0-.25-.06-.46-.17-.64-.11-.17-.32-.34-.61-.49s-.72-.32-1.29-.49c-.97-.3-1.67-.65-2.11-1.04-.43-.4-.65-.92-.65-1.57s.27-1.17.8-1.57c.53-.4,1.3-.6,2.29-.6.9,0,1.59.18,2.08.55.49.37.73.87.73,1.5,0,.29-.05.51-.14.66-.1.15-.23.22-.41.22-.16,0-.29-.05-.4-.15-.11-.1-.16-.22-.16-.35,0-.06,0-.13.03-.2.02-.07.03-.14.03-.2,0-.32-.14-.58-.43-.76s-.73-.28-1.31-.28c-.65,0-1.15.1-1.5.31-.35.21-.53.51-.53.89s.15.67.46.88.84.45,1.59.7c.72.24,1.27.47,1.67.68.39.22.67.47.85.77.17.29.26.67.26,1.12s-.13.87-.39,1.28c-.26.41-.62.74-1.09,1-.47.26-1.01.39-1.62.39-.68,0-1.27-.14-1.77-.42Z"/>
            <path d="M35.95,204.38c-.11-.11-.17-.23-.17-.38v-7.34h-2c-.16,0-.29-.06-.4-.17-.11-.11-.16-.25-.16-.41,0-.17.06-.3.18-.4.12-.1.26-.15.41-.15h1.96v-2.47c0-.16.06-.29.17-.4.11-.11.25-.17.41-.17.17,0,.3.06.4.17.1.11.15.25.15.4v2.47h2.02c.17,0,.31.05.41.16.11.11.16.24.16.4s-.06.29-.17.41c-.11.11-.25.17-.41.17h-2.02v7.34c0,.14-.06.27-.17.38s-.24.16-.39.16c-.16,0-.29-.05-.41-.16Z"/>
            <path d="M41.89,203.98c-.56-.37-1-.86-1.31-1.49-.32-.63-.48-1.33-.48-2.1,0-.82.18-1.6.55-2.34.37-.74.87-1.35,1.52-1.81s1.36-.69,2.14-.69c.67,0,1.29.18,1.84.55.56.37,1,.86,1.31,1.49.32.63.48,1.32.48,2.08,0,.86-.19,1.67-.58,2.41-.38.74-.9,1.34-1.54,1.78-.64.44-1.33.67-2.08.67-.68,0-1.3-.18-1.86-.55ZM45.28,202.98c.46-.35.82-.81,1.1-1.39.28-.58.41-1.19.41-1.84,0-.56-.11-1.09-.34-1.57-.23-.49-.54-.88-.93-1.17-.39-.29-.83-.44-1.3-.44-.53,0-1.02.18-1.47.53s-.81.82-1.08,1.4c-.27.58-.4,1.2-.4,1.84s.12,1.17.35,1.65c.23.47.55.84.94,1.11.4.26.82.4,1.26.4.52,0,1-.17,1.46-.52Z"/>
            <path d="M51.09,204.36c-.12-.11-.18-.23-.18-.36v-7.92c0-.16.06-.28.17-.39.11-.1.25-.15.41-.15.17,0,.31.05.41.15s.16.23.16.39v1.53c.34-.59.75-1.09,1.25-1.5.5-.41,1.08-.62,1.75-.62.53,0,.91.15,1.14.44.23.29.35.65.35,1.05v.58c0,.16-.05.29-.16.39-.11.1-.24.15-.4.15-.18,0-.31-.05-.4-.16-.08-.11-.13-.24-.13-.4v-.41c0-.35-.2-.52-.61-.52-.71,0-1.44.5-2.2,1.51-.18.24-.33.54-.44.9s-.17.7-.17,1.01l-.02,3.98c0,.13-.06.25-.17.36-.11.11-.24.16-.39.16s-.28-.05-.4-.16Z"/>
            <path d="M58.96,204.35c-.12-.11-.18-.25-.18-.4l.11-7.81c0-.16.06-.29.18-.41.12-.12.26-.18.41-.18s.29.06.41.17c.11.11.17.25.17.42l-.11,7.81c0,.16-.06.29-.17.4s-.25.17-.4.17-.29-.06-.41-.17ZM59.09,193.96c-.11-.11-.16-.24-.16-.4l.02-.74c0-.14.06-.27.18-.38.12-.11.25-.16.4-.16s.27.06.38.17.16.24.16.39l-.02.74c0,.16-.06.29-.17.39s-.24.15-.39.15c-.16,0-.29-.05-.4-.16Z"/>
            <path d="M65.15,203.94c-.68-.39-1.21-.91-1.58-1.57-.37-.66-.56-1.38-.56-2.16s.17-1.58.51-2.29c.34-.71.82-1.29,1.43-1.72.61-.43,1.31-.65,2.11-.65.72,0,1.33.14,1.84.41.51.28.89.61,1.15.99.26.38.39.73.39,1.03,0,.22-.14.41-.43.58l-5.58,3.19c.3.58.71,1.01,1.22,1.3.52.29,1.12.44,1.82.44.38,0,.79-.1,1.21-.29s.76-.42,1.02-.68c.08-.12.2-.18.36-.18s.28.05.39.15c.1.1.15.23.15.39,0,.12-.05.24-.14.36-.32.37-.76.68-1.32.93-.56.25-1.11.37-1.65.37-.88,0-1.66-.19-2.34-.58ZM68.53,196.91c-.36-.2-.85-.31-1.46-.31-.58,0-1.09.16-1.55.48-.46.32-.81.75-1.07,1.29s-.39,1.13-.4,1.78c0,.24.01.43.04.58l5.24-2.9c-.17-.41-.43-.71-.79-.92Z"/>
            <path d="M73.85,204.14c-.5-.28-.88-.61-1.13-.99s-.39-.7-.39-.96c0-.16.05-.29.15-.39.1-.1.23-.15.39-.15.26,0,.43.13.5.38.17.48.45.85.85,1.12.4.26.88.4,1.46.4s1.05-.16,1.42-.47.56-.68.56-1.12c0-.25-.06-.46-.17-.64-.11-.17-.32-.34-.61-.49s-.72-.32-1.29-.49c-.97-.3-1.67-.65-2.11-1.04-.43-.4-.65-.92-.65-1.57s.27-1.17.8-1.57c.53-.4,1.3-.6,2.29-.6.9,0,1.59.18,2.08.55.49.37.73.87.73,1.5,0,.29-.05.51-.14.66-.1.15-.23.22-.41.22-.16,0-.29-.05-.4-.15-.11-.1-.16-.22-.16-.35,0-.06,0-.13.03-.2.02-.07.03-.14.03-.2,0-.32-.14-.58-.43-.76s-.73-.28-1.31-.28c-.65,0-1.15.1-1.5.31-.35.21-.53.51-.53.89s.15.67.46.88.84.45,1.59.7c.72.24,1.27.47,1.67.68.39.22.67.47.85.77.17.29.26.67.26,1.12s-.13.87-.39,1.28c-.26.41-.62.74-1.09,1-.47.26-1.01.39-1.62.39-.68,0-1.27-.14-1.77-.42Z"/>
            <path d="M80.82,206.05c-.1-.09-.14-.2-.14-.33,0-.05.01-.11.04-.18l.41-1.1c-.13-.18-.2-.36-.2-.54,0-.23.08-.43.23-.6.16-.17.34-.26.54-.26.18,0,.33.07.46.2.13.13.19.28.19.43s-.03.31-.08.47c-.05.16-.16.43-.31.81l-.16.4c-.13.35-.23.58-.31.68-.07.11-.18.16-.32.16-.13,0-.25-.04-.34-.13Z"/>
            <path d="M93.67,204.15l-3.2-7.85c-.02-.1-.04-.16-.04-.2,0-.16.06-.29.17-.4s.25-.16.42-.16c.23,0,.4.13.52.38l2.65,6.68,2.66-6.73c.05-.1.12-.18.21-.24.09-.07.19-.1.31-.1.16,0,.29.06.41.17.11.11.17.24.17.39,0,.07-.02.16-.07.25l-3.17,7.85c-.11.24-.28.36-.52.36s-.41-.13-.52-.4Z"/>
            <path d="M100.35,204.35c-.12-.11-.18-.25-.18-.4l.11-7.81c0-.16.06-.29.18-.41.12-.12.26-.18.41-.18s.29.06.41.17c.11.11.17.25.17.42l-.11,7.81c0,.16-.06.29-.17.4s-.25.17-.4.17-.29-.06-.41-.17ZM100.48,193.96c-.11-.11-.16-.24-.16-.4l.02-.74c0-.14.06-.27.18-.38.12-.11.25-.16.4-.16s.27.06.38.17.16.24.16.39l-.02.74c0,.16-.06.29-.17.39s-.24.15-.39.15c-.16,0-.29-.05-.4-.16Z"/>
            <path d="M105.94,204.04c-.47-.32-.85-.79-1.12-1.41-.28-.62-.41-1.34-.41-2.17,0-1.54.34-2.74,1.03-3.6s1.63-1.3,2.83-1.3c.8,0,1.6.21,2.39.63l.09-3.58c0-.16.06-.29.18-.4.12-.11.26-.17.41-.17.14,0,.27.06.39.18.11.12.17.26.17.41l-.27,11.36c0,.16-.06.29-.17.39-.11.1-.25.15-.4.15-.17,0-.31-.06-.41-.19-.11-.13-.16-.27-.14-.44l.02-.74c-.94.91-1.93,1.37-2.97,1.37-.59,0-1.12-.16-1.59-.49ZM109.06,203.12c.46-.23.81-.5,1.07-.82.26-.32.39-.6.41-.84l.09-4.16c-.26-.16-.61-.31-1.04-.45s-.85-.22-1.29-.22c-.92,0-1.62.33-2.09.99-.47.66-.7,1.58-.7,2.77,0,.96.18,1.71.55,2.25s.86.81,1.49.81c.55,0,1.06-.11,1.51-.34Z"/>
            <path d="M116.8,203.94c-.68-.39-1.21-.91-1.58-1.57-.37-.66-.56-1.38-.56-2.16s.17-1.58.51-2.29c.34-.71.82-1.29,1.43-1.72.61-.43,1.31-.65,2.11-.65.72,0,1.33.14,1.84.41.51.28.89.61,1.15.99.26.38.39.73.39,1.03,0,.22-.14.41-.43.58l-5.58,3.19c.3.58.71,1.01,1.22,1.3.52.29,1.12.44,1.82.44.38,0,.79-.1,1.21-.29s.76-.42,1.02-.68c.08-.12.2-.18.36-.18s.28.05.39.15c.1.1.15.23.15.39,0,.12-.05.24-.14.36-.32.37-.76.68-1.32.93-.56.25-1.11.37-1.65.37-.88,0-1.66-.19-2.34-.58ZM120.18,196.91c-.36-.2-.85-.31-1.46-.31-.58,0-1.09.16-1.55.48-.46.32-.81.75-1.07,1.29s-.39,1.13-.4,1.78c0,.24.01.43.04.58l5.24-2.9c-.17-.41-.43-.71-.79-.92Z"/>
            <path d="M126.18,203.98c-.56-.37-1-.86-1.31-1.49-.32-.63-.48-1.33-.48-2.1,0-.82.18-1.6.55-2.34.37-.74.87-1.35,1.52-1.81s1.36-.69,2.14-.69c.67,0,1.29.18,1.84.55.56.37,1,.86,1.31,1.49.32.63.48,1.32.48,2.08,0,.86-.19,1.67-.58,2.41-.38.74-.9,1.34-1.54,1.78-.64.44-1.33.67-2.08.67-.68,0-1.3-.18-1.86-.55ZM129.57,202.98c.46-.35.82-.81,1.1-1.39.28-.58.41-1.19.41-1.84,0-.56-.11-1.09-.34-1.57-.23-.49-.54-.88-.93-1.17-.39-.29-.83-.44-1.3-.44-.53,0-1.02.18-1.47.53s-.81.82-1.08,1.4c-.27.58-.4,1.2-.4,1.84s.12,1.17.35,1.65c.23.47.55.84.94,1.11.4.26.82.4,1.26.4.52,0,1-.17,1.46-.52Z"/>
            <path d="M135.61,204.14c-.5-.28-.88-.61-1.13-.99s-.39-.7-.39-.96c0-.16.05-.29.15-.39.1-.1.23-.15.39-.15.26,0,.43.13.5.38.17.48.45.85.85,1.12.4.26.88.4,1.46.4s1.05-.16,1.42-.47.56-.68.56-1.12c0-.25-.06-.46-.17-.64-.11-.17-.32-.34-.61-.49s-.72-.32-1.29-.49c-.97-.3-1.67-.65-2.11-1.04-.43-.4-.65-.92-.65-1.57s.27-1.17.8-1.57c.53-.4,1.3-.6,2.29-.6.9,0,1.59.18,2.08.55.49.37.73.87.73,1.5,0,.29-.05.51-.14.66-.1.15-.23.22-.41.22-.16,0-.29-.05-.4-.15-.11-.1-.16-.22-.16-.35,0-.06,0-.13.03-.2.02-.07.03-.14.03-.2,0-.32-.14-.58-.43-.76s-.73-.28-1.31-.28c-.65,0-1.15.1-1.5.31-.35.21-.53.51-.53.89s.15.67.46.88.84.45,1.59.7c.72.24,1.27.47,1.67.68.39.22.67.47.85.77.17.29.26.67.26,1.12s-.13.87-.39,1.28c-.26.41-.62.74-1.09,1-.47.26-1.01.39-1.62.39-.68,0-1.27-.14-1.77-.42Z"/>
            <path d="M155.52,204.5c-.1-.11-.14-.25-.14-.42v-.5c-.32.29-.71.52-1.17.69s-.91.26-1.37.26c-.65,0-1.23-.16-1.75-.49s-.92-.78-1.21-1.38c-.29-.59-.44-1.27-.44-2.02,0-.82.17-1.62.51-2.4s.84-1.43,1.49-1.93c.65-.5,1.42-.76,2.31-.76.55,0,1.04.07,1.46.22s.85.32,1.28.52v7.79c0,.17-.05.31-.16.42-.11.11-.24.17-.4.17-.18,0-.32-.06-.41-.17ZM154.25,203.13c.47-.22.83-.46,1.08-.71l.07-5.45c-.19-.08-.44-.16-.75-.24-.31-.08-.59-.12-.86-.12-.59,0-1.13.17-1.62.52-.49.35-.88.83-1.16,1.43-.28.61-.42,1.29-.42,2.04,0,.88.21,1.57.63,2.09.42.52.96.77,1.62.77.47,0,.94-.11,1.4-.33Z"/>
            <path d="M160.19,204.36c-.11-.11-.17-.23-.17-.36v-7.94c0-.16.06-.28.17-.39.11-.1.25-.15.41-.15s.29.05.4.15c.11.1.16.23.16.39v2.84c.35-1.08.83-1.91,1.45-2.49.62-.58,1.32-.87,2.1-.87.66,0,1.18.17,1.57.5s.66.87.83,1.59c.17.73.25,1.7.25,2.92s0,1.99-.02,2.36v1.03c0,.16-.05.29-.15.4-.1.11-.23.17-.39.17-.14,0-.27-.06-.38-.17-.11-.11-.16-.24-.16-.39v-1.01c-.01-.37-.02-1.15-.02-2.32s-.06-1.96-.17-2.54c-.11-.58-.29-.97-.52-1.18-.23-.21-.57-.31-1-.31-.41,0-.81.15-1.21.45-.4.3-.74.73-1.04,1.28-.4.72-.68,1.4-.85,2.03-.17.64-.27,1.29-.28,1.96l-.02,1.6c0,.17-.05.31-.15.42-.1.11-.23.17-.39.17s-.29-.05-.41-.16Z"/>
            <path d="M171.66,204.04c-.47-.32-.85-.79-1.12-1.41-.28-.62-.41-1.34-.41-2.17,0-1.54.34-2.74,1.03-3.6s1.63-1.3,2.83-1.3c.8,0,1.6.21,2.39.63l.09-3.58c0-.16.06-.29.18-.4.12-.11.26-.17.41-.17.14,0,.27.06.39.18.11.12.17.26.17.41l-.27,11.36c0,.16-.06.29-.17.39-.11.1-.25.15-.4.15-.17,0-.31-.06-.41-.19-.11-.13-.16-.27-.14-.44l.02-.74c-.94.91-1.93,1.37-2.97,1.37-.59,0-1.12-.16-1.59-.49ZM174.78,203.12c.46-.23.81-.5,1.07-.82.26-.32.39-.6.41-.84l.09-4.16c-.26-.16-.61-.31-1.04-.45s-.85-.22-1.29-.22c-.92,0-1.62.33-2.09.99-.47.66-.7,1.58-.7,2.77,0,.96.18,1.71.55,2.25s.86.81,1.49.81c.55,0,1.06-.11,1.51-.34Z"/>
            <path d="M27.29,229.4c-.11-.11-.17-.24-.17-.39v-11.32c0-.17.06-.31.17-.41.11-.11.25-.16.41-.16s.29.06.4.17c.11.11.16.25.16.4v.74c.73-.88,1.82-1.31,3.28-1.31.6,0,1.12.19,1.57.58.44.38.78.88,1.01,1.49.23.61.34,1.27.34,1.96,0,1.28-.3,2.41-.9,3.37-.6.97-1.62,1.45-3.06,1.45-.68,0-1.43-.17-2.23-.5v3.55c0,.14-.06.27-.17.39-.11.11-.24.17-.39.17-.16,0-.29-.06-.41-.17ZM32.75,223.86c.45-.65.67-1.56.67-2.71,0-.46-.07-.92-.2-1.38-.13-.46-.35-.85-.66-1.17-.31-.32-.7-.48-1.18-.48-.79,0-1.45.17-1.98.49-.53.33-.91.67-1.15,1.02v4.62c.85.38,1.63.58,2.34.58.98,0,1.7-.33,2.15-.98Z"/>
            <path d="M37.58,225.96c-.12-.11-.18-.23-.18-.36v-7.92c0-.16.06-.28.17-.39.11-.1.25-.15.41-.15.17,0,.31.05.41.15s.16.23.16.39v1.53c.34-.59.75-1.09,1.25-1.5.5-.41,1.08-.62,1.75-.62.53,0,.91.15,1.14.44.23.29.35.65.35,1.05v.58c0,.16-.05.29-.16.39-.11.1-.24.15-.4.15-.18,0-.31-.05-.4-.16-.08-.11-.13-.24-.13-.4v-.41c0-.35-.2-.52-.61-.52-.71,0-1.44.5-2.2,1.51-.18.24-.33.54-.44.9s-.17.7-.17,1.01l-.02,3.98c0,.13-.06.25-.17.36-.11.11-.24.16-.39.16s-.28-.05-.4-.16Z"/>
            <path d="M45.44,225.95c-.12-.11-.18-.25-.18-.4l.11-7.81c0-.16.06-.29.18-.41.12-.12.26-.18.41-.18s.29.06.41.17c.11.11.17.25.17.42l-.11,7.81c0,.16-.06.29-.17.4s-.25.17-.4.17-.29-.06-.41-.17ZM45.57,215.56c-.11-.11-.16-.24-.16-.4l.02-.74c0-.14.06-.27.18-.38.12-.11.25-.16.4-.16s.27.06.38.17.16.24.16.39l-.02.74c0,.16-.06.29-.17.39s-.24.15-.39.15c-.16,0-.29-.05-.4-.16Z"/>
            <path d="M50.24,225.96c-.11-.11-.17-.23-.17-.36v-7.94c0-.16.06-.28.17-.39.11-.1.25-.15.41-.15s.29.05.4.15c.11.1.16.23.16.39v2.84c.35-1.08.83-1.91,1.45-2.49.62-.58,1.32-.87,2.1-.87.66,0,1.18.17,1.57.5s.66.87.83,1.59c.17.73.25,1.7.25,2.92s0,1.99-.02,2.36v1.03c0,.16-.05.29-.15.4-.1.11-.23.17-.39.17-.14,0-.27-.06-.38-.17-.11-.11-.16-.24-.16-.39v-1.01c-.01-.37-.02-1.15-.02-2.32s-.06-1.96-.17-2.54c-.11-.58-.29-.97-.52-1.18-.23-.21-.57-.31-1-.31-.41,0-.81.15-1.21.45-.4.3-.74.73-1.04,1.28-.4.72-.68,1.4-.85,2.03-.17.64-.27,1.29-.28,1.96l-.02,1.6c0,.17-.05.31-.15.42-.1.11-.23.17-.39.17s-.29-.05-.41-.16Z"/>
            <path d="M61.36,225.98c-.11-.11-.17-.23-.17-.38v-7.34h-2c-.16,0-.29-.06-.4-.17-.11-.11-.16-.25-.16-.41,0-.17.06-.3.18-.4.12-.1.26-.15.41-.15h1.96v-2.47c0-.16.06-.29.17-.4.11-.11.25-.17.41-.17.17,0,.3.06.4.17.1.11.15.25.15.4v2.47h2.02c.17,0,.31.05.41.16.11.11.16.24.16.4s-.06.29-.17.41c-.11.11-.25.17-.41.17h-2.02v7.34c0,.14-.06.27-.17.38s-.24.16-.39.16c-.16,0-.29-.05-.41-.16Z"/>
            <path d="M71.59,226.09c-.1-.11-.14-.25-.14-.42v-.5c-.32.29-.71.52-1.17.69s-.91.26-1.37.26c-.65,0-1.23-.16-1.75-.49s-.92-.78-1.21-1.38c-.29-.59-.44-1.27-.44-2.02,0-.82.17-1.62.51-2.4s.84-1.43,1.49-1.93c.65-.5,1.42-.76,2.31-.76.55,0,1.04.07,1.46.22s.85.32,1.28.52v7.79c0,.17-.05.31-.16.42-.11.11-.24.17-.4.17-.18,0-.32-.06-.41-.17ZM70.32,224.73c.47-.22.83-.46,1.08-.71l.07-5.45c-.19-.08-.44-.16-.75-.24-.31-.08-.59-.12-.86-.12-.59,0-1.13.17-1.62.52-.49.35-.88.83-1.16,1.43-.28.61-.42,1.29-.42,2.04,0,.88.21,1.57.63,2.09.42.52.96.77,1.62.77.47,0,.94-.11,1.4-.33Z"/>
            <path d="M76.26,225.97c-.11-.1-.17-.23-.17-.37v-11.34c0-.14.06-.26.17-.36.11-.1.25-.14.41-.14.14,0,.27.05.38.14.11.1.16.22.16.36v4.41c.38-.44.85-.79,1.4-1.03.55-.24,1.13-.36,1.73-.36.95,0,1.71.36,2.29,1.07.58.71.86,1.68.86,2.89,0,1.43-.33,2.58-.98,3.45-.65.87-1.63,1.3-2.94,1.3-.41,0-.83-.05-1.26-.15s-.8-.22-1.12-.35v.14c0,.12-.05.23-.16.33-.11.1-.23.15-.38.15s-.27-.05-.39-.15ZM82.41,221.24c0-.89-.19-1.58-.57-2.08-.38-.5-.88-.75-1.52-.75-.58,0-1.1.11-1.57.32-.47.22-.85.51-1.12.88-.28.37-.41.78-.41,1.22v3.62c.23.1.55.2.96.3.41.1.83.15,1.25.15,1.99,0,2.99-1.22,2.99-3.67Z"/>
            <path d="M86.62,225.97c-.12-.1-.18-.22-.18-.35v-11.32c0-.16.05-.28.16-.39.11-.1.25-.15.41-.15.14,0,.27.05.39.16s.17.23.17.38v11.32c0,.13-.06.25-.17.35-.11.1-.24.15-.39.15s-.28-.05-.4-.15Z"/>
            <path d="M92.67,225.54c-.68-.39-1.21-.91-1.58-1.57-.37-.66-.56-1.38-.56-2.16s.17-1.58.51-2.29c.34-.71.82-1.29,1.43-1.72.61-.43,1.31-.65,2.11-.65.72,0,1.33.14,1.84.41.51.28.89.61,1.15.99.26.38.39.73.39,1.03,0,.22-.14.41-.43.58l-5.58,3.19c.3.58.71,1.01,1.22,1.3.52.29,1.12.44,1.82.44.38,0,.79-.1,1.21-.29s.76-.42,1.02-.68c.08-.12.2-.18.36-.18s.28.05.39.15c.1.1.15.23.15.39,0,.12-.05.24-.14.36-.32.37-.76.68-1.32.93-.56.25-1.11.37-1.65.37-.88,0-1.66-.19-2.34-.58ZM96.05,218.51c-.36-.2-.85-.31-1.46-.31-.58,0-1.09.16-1.55.48-.46.32-.81.75-1.07,1.29s-.39,1.13-.4,1.78c0,.24.01.43.04.58l5.24-2.9c-.17-.41-.43-.71-.79-.92Z"/>
            <path d="M107.74,229.4c-.11-.11-.17-.24-.17-.39v-11.32c0-.17.06-.31.17-.41.11-.11.25-.16.41-.16s.29.06.4.17c.11.11.16.25.16.4v.74c.73-.88,1.82-1.31,3.28-1.31.6,0,1.12.19,1.57.58.44.38.78.88,1.01,1.49.23.61.34,1.27.34,1.96,0,1.28-.3,2.41-.9,3.37-.6.97-1.62,1.45-3.06,1.45-.68,0-1.43-.17-2.23-.5v3.55c0,.14-.06.27-.17.39-.11.11-.24.17-.39.17-.16,0-.29-.06-.41-.17ZM113.19,223.86c.45-.65.67-1.56.67-2.71,0-.46-.07-.92-.2-1.38-.13-.46-.35-.85-.66-1.17-.31-.32-.7-.48-1.18-.48-.79,0-1.45.17-1.98.49-.53.33-.91.67-1.15,1.02v4.62c.85.38,1.63.58,2.34.58.98,0,1.7-.33,2.15-.98Z"/>
            <path d="M123.35,226.09c-.1-.11-.14-.25-.14-.42v-.5c-.32.29-.71.52-1.17.69s-.91.26-1.37.26c-.65,0-1.23-.16-1.75-.49s-.92-.78-1.21-1.38c-.29-.59-.44-1.27-.44-2.02,0-.82.17-1.62.51-2.4s.84-1.43,1.49-1.93c.65-.5,1.42-.76,2.31-.76.55,0,1.04.07,1.46.22s.85.32,1.28.52v7.79c0,.17-.05.31-.16.42-.11.11-.24.17-.4.17-.18,0-.32-.06-.41-.17ZM122.07,224.73c.47-.22.83-.46,1.08-.71l.07-5.45c-.19-.08-.44-.16-.75-.24-.31-.08-.59-.12-.86-.12-.59,0-1.13.17-1.62.52-.49.35-.88.83-1.16,1.43-.28.61-.42,1.29-.42,2.04,0,.88.21,1.57.63,2.09.42.52.96.77,1.62.77.47,0,.94-.11,1.4-.33Z"/>
            <path d="M129.24,225.61c-.61-.34-1.09-.81-1.44-1.41-.35-.6-.53-1.26-.53-1.98,0-.82.19-1.62.57-2.4s.88-1.43,1.5-1.93c.62-.5,1.27-.75,1.94-.75.62,0,1.14.1,1.54.31.4.2.79.52,1.16.95.1.1.14.22.14.38s-.05.29-.15.4c-.1.11-.23.16-.39.16-.17,0-.31-.07-.41-.2-.26-.31-.53-.55-.81-.71-.28-.16-.62-.24-1.04-.24-.48,0-.95.19-1.4.58-.46.38-.83.88-1.12,1.5-.29.62-.43,1.26-.43,1.92,0,.6.14,1.12.42,1.56.28.44.64.77,1.08,1,.44.23.88.34,1.32.34,1.03,0,1.84-.41,2.41-1.24.16-.22.32-.32.5-.32.16,0,.29.05.4.16.11.11.16.23.16.38,0,.12-.06.26-.18.41-.31.46-.76.85-1.35,1.17s-1.24.49-1.94.49-1.35-.17-1.95-.51Z"/>
            <path d="M137.43,225.95c-.11-.11-.17-.24-.17-.39l-.04-11.27c0-.16.05-.28.16-.39.11-.1.24-.15.4-.15s.29.06.41.17.17.25.17.4l.02,7.07c.54-.37,1.26-.99,2.16-1.85.9-.86,1.66-1.7,2.29-2.5.11-.17.26-.25.45-.25.16,0,.29.05.4.16.11.11.16.23.16.38,0,.08-.04.2-.13.34-.36.47-.83,1.01-1.41,1.62-.58.61-1.08,1.1-1.5,1.48.29.4.99,1.28,2.11,2.66l1.35,1.67c.11.13.16.25.16.36,0,.16-.05.29-.15.41-.1.12-.24.18-.4.18-.19,0-.34-.07-.45-.2-.89-1.2-2.04-2.68-3.46-4.44-.5.41-1.02.77-1.55,1.08v3.06c0,.14-.06.27-.17.39-.11.11-.25.17-.41.17-.14,0-.27-.06-.39-.17Z"/>
            <path d="M147.2,225.73c-.5-.28-.88-.61-1.13-.99s-.39-.7-.39-.96c0-.16.05-.29.15-.39.1-.1.23-.15.39-.15.26,0,.43.13.5.38.17.48.45.85.85,1.12.4.26.88.4,1.46.4s1.05-.16,1.42-.47.56-.68.56-1.12c0-.25-.06-.46-.17-.64-.11-.17-.32-.34-.61-.49s-.72-.32-1.29-.49c-.97-.3-1.67-.65-2.11-1.04-.43-.4-.65-.92-.65-1.57s.27-1.17.8-1.57c.53-.4,1.3-.6,2.29-.6.9,0,1.59.18,2.08.55.49.37.73.87.73,1.5,0,.29-.05.51-.14.66-.1.15-.23.22-.41.22-.16,0-.29-.05-.4-.15-.11-.1-.16-.22-.16-.35,0-.06,0-.13.03-.2.02-.07.03-.14.03-.2,0-.32-.14-.58-.43-.76s-.73-.28-1.31-.28c-.65,0-1.15.1-1.5.31-.35.21-.53.51-.53.89s.15.67.46.88.84.45,1.59.7c.72.24,1.27.47,1.67.68.39.22.67.47.85.77.17.29.26.67.26,1.12s-.13.87-.39,1.28c-.26.41-.62.74-1.09,1-.47.26-1.01.39-1.62.39-.68,0-1.27-.14-1.77-.42Z"/>
            <path d="M154.27,225.9c-.12-.14-.18-.32-.18-.52,0-.23.08-.43.23-.6.16-.17.34-.26.54-.26.18,0,.33.07.46.21.13.14.19.3.19.49,0,.25-.08.47-.23.64-.16.17-.34.26-.54.26-.19,0-.35-.07-.47-.22Z"/>
          </g>
        </g>
      </g>
    </g>
  </g>
</svg>