<?xml version="1.0" encoding="UTF-8"?>
<svg xmlns="http://www.w3.org/2000/svg" xmlns:xlink="http://www.w3.org/1999/xlink" viewBox="0 0 338.63 310.4">
  <defs>
    <style>
      .cls-1 {
        fill: url(#radial-gradient-10);
      }

      .cls-2 {
        fill: #221f1f;
      }

      .cls-3 {
        opacity: .2;
      }

      .cls-3, .cls-4 {
        fill: #fff;
      }

      .cls-5 {
        fill: #ee1b20;
      }

      .cls-6 {
        fill: #393536;
      }

      .cls-7 {
        fill: #b1b9b2;
      }

      .cls-8 {
        fill: url(#radial-gradient-9);
      }

      .cls-9, .cls-10 {
        fill: #c6d6d4;
      }

      .cls-11 {
        fill: #e29f7a;
      }

      .cls-12 {
        fill: #eebd93;
      }

      .cls-13 {
        fill: #36b14a;
      }

      .cls-14 {
        fill: #e2a07a;
      }

      .cls-15 {
        fill: #d48054;
      }

      .cls-16, .cls-17, .cls-18, .cls-19 {
        fill: none;
      }

      .cls-20 {
        fill: url(#radial-gradient-5);
      }

      .cls-17 {
        stroke: #27190f;
        stroke-miterlimit: 10;
      }

      .cls-17, .cls-18, .cls-19 {
        stroke-width: .8px;
      }

      .cls-21 {
        fill: url(#radial-gradient);
      }

      .cls-22 {
        fill: url(#radial-gradient-3);
      }

      .cls-23 {
        opacity: .4;
      }

      .cls-23, .cls-24, .cls-25, .cls-26, .cls-27, .cls-10 {
        mix-blend-mode: multiply;
      }

      .cls-28 {
        fill: #291610;
      }

      .cls-29 {
        isolation: isolate;
      }

      .cls-30 {
        fill: #6d2d1d;
      }

      .cls-31 {
        fill: #48566c;
      }

      .cls-32 {
        fill: url(#radial-gradient-8);
      }

      .cls-33 {
        fill: url(#radial-gradient-2);
      }

      .cls-24 {
        fill: #9f1c3c;
        opacity: .32;
      }

      .cls-18 {
        stroke: #281b12;
      }

      .cls-18, .cls-19 {
        stroke-linecap: round;
        stroke-linejoin: round;
      }

      .cls-34 {
        fill: #9acb4e;
      }

      .cls-35 {
        fill: url(#radial-gradient-4);
      }

      .cls-25 {
        fill: #e4e4e3;
      }

      .cls-25, .cls-26, .cls-27 {
        opacity: .5;
      }

      .cls-26 {
        fill: #f7a77f;
      }

      .cls-27, .cls-36 {
        fill: #455b4c;
      }

      .cls-37 {
        fill: #0cc4de;
      }

      .cls-38 {
        fill: #404041;
      }

      .cls-19 {
        stroke: #211e1f;
      }

      .cls-39 {
        fill: #d05546;
      }

      .cls-40 {
        fill: url(#radial-gradient-6);
      }

      .cls-41 {
        fill: url(#radial-gradient-7);
      }

      .cls-42 {
        fill: #281b12;
      }

      .cls-43 {
        clip-path: url(#clippath);
      }
    </style>
    <clipPath id="clippath">
      <rect class="cls-16" x="106.7" width="231.93" height="286.17"/>
    </clipPath>
    <radialGradient id="radial-gradient" cx="-8579.87" cy="1038.16" fx="-8579.87" fy="1038.16" r="13.03" gradientTransform="translate(-8334.88 -1014.42) rotate(-178.98) scale(1 -1)" gradientUnits="userSpaceOnUse">
      <stop offset="0" stop-color="#efb38d"/>
      <stop offset="1" stop-color="#eebe8c"/>
    </radialGradient>
    <radialGradient id="radial-gradient-2" cx="-9216.79" cy="1038.16" fx="-9216.79" fy="1038.16" r="13.03" gradientTransform="translate(-8971.7 -1025.74) rotate(-178.98) scale(1 -1)" gradientUnits="userSpaceOnUse">
      <stop offset="0" stop-color="#eeb28c"/>
      <stop offset="1" stop-color="#ecbc8a"/>
    </radialGradient>
    <radialGradient id="radial-gradient-3" cx="-18609.28" cy="1148.5" fx="-18609.28" fy="1148.5" r="41.19" gradientTransform="translate(18835.77 -531.77) rotate(1.02)" xlink:href="#radial-gradient"/>
    <radialGradient id="radial-gradient-4" cx="-8073.84" cy="-301.39" fx="-8073.84" fy="-301.39" r="13.84" gradientTransform="translate(-7685.51 -1079.48) rotate(-168.53) scale(1 -1)" xlink:href="#radial-gradient"/>
    <radialGradient id="radial-gradient-5" cx="-6903.58" cy="1730.35" fx="-6903.58" fy="1730.35" r="51.94" gradientTransform="translate(7025.36 -1975.22) rotate(-3.08)" xlink:href="#radial-gradient-2"/>
    <radialGradient id="radial-gradient-6" cx="-10987.52" cy="-4639.71" fx="-10987.52" fy="-4639.71" r="6.72" gradientTransform="translate(2313.21 11956.98) rotate(57.18)" xlink:href="#radial-gradient"/>
    <radialGradient id="radial-gradient-7" cx="-10972.25" cy="-4633.5" fx="-10972.25" fy="-4633.5" r="14.54" gradientTransform="translate(2313.21 11956.98) rotate(57.18)" xlink:href="#radial-gradient"/>
    <radialGradient id="radial-gradient-8" cx="-9514.96" cy="-5056.85" fx="-9514.96" fy="-5056.85" r="16.81" gradientTransform="translate(1924.28 10810.8) rotate(56.43) scale(.93 .89) skewX(10.17)" xlink:href="#radial-gradient"/>
    <radialGradient id="radial-gradient-9" cx="-9146.74" cy="1076.57" fx="-9146.74" fy="1076.57" r="4.29" xlink:href="#radial-gradient-2"/>
    <radialGradient id="radial-gradient-10" cx="-9151.14" cy="1091.39" fx="-9151.14" fy="1091.39" r="7.65" xlink:href="#radial-gradient-2"/>
  </defs>
  <g class="cls-29">
    <g id="Layer_2" data-name="Layer 2">
      <g id="Layer_1-2" data-name="Layer 1">
        <g>
          <rect class="cls-34" x="0" y="20.51" width="318.32" height="265.66" rx="20" ry="20"/>
          <g class="cls-43">
            <g>
              <path class="cls-11" d="M150.46,215.57s-.16,4.94,4.2,5.3c4.35.36,3.39-3.13,3.39-3.13l-1.8-3.5s-5.63-2.12-5.78,1.33Z"/>
              <path class="cls-18" d="M150.46,215.57s-.16,4.94,4.2,5.3c4.35.36,3.39-3.13,3.39-3.13l-1.8-3.5s-5.63-2.12-5.78,1.33Z"/>
              <g>
                <g>
                  <path class="cls-13" d="M163.58,219.07c-.14-.32-.13-.67,0-.99,1.34-3.13,4.13-4.04,11.7-16.02,14.79-23.42,19.21-19.7,19.21-19.7-1.02,10.4,4.17,38,4.17,38-.4,3.68-5.23,8.14-7.63,10.87-1.02,1.16-1.89,1.31-2.56,1.11h0s0,0,0,0c-.07-.02-.14-.05-.21-.08-17.22-6.3-24.14-12.36-24.14-12.36,0,0-.33-.37-.54-.82Z"/>
                  <path class="cls-18" d="M163.58,219.07c-.14-.32-.13-.67,0-.99,1.34-3.13,4.13-4.04,11.7-16.02,14.79-23.42,19.21-19.7,19.21-19.7-1.02,10.4,4.17,38,4.17,38-.4,3.68-5.23,8.14-7.63,10.87-1.02,1.16-1.89,1.31-2.56,1.11h0s0,0,0,0c-.07-.02-.14-.05-.21-.08-17.22-6.3-24.14-12.36-24.14-12.36,0,0-.33-.37-.54-.82Z"/>
                  <path class="cls-24" d="M190.21,200.53c.56-2.26,2.48-3.99,4.75-5.28,1.18,11.66,3.71,25.11,3.71,25.11-.4,3.68-5.23,8.14-7.63,10.87-1.02,1.16-1.89,1.31-2.56,1.11h0s0,0,0,0c-.07-.02-.14-.05-.21-.08-4.06-1.48-7.54-2.95-10.5-4.34,2.4-1.01,4.77-2.14,7.11-3.41,9.2-5.06,3.73-15.88,5.33-23.98Z"/>
                  <path class="cls-42" d="M186.8,231.68l-5.42-2.45c-1.8-.82-3.61-1.63-5.38-2.49-.89-.42-1.78-.86-2.65-1.3l-1.32-.67c-.43-.24-.86-.47-1.3-.69-1.72-.94-3.42-1.92-5.05-3.04,1.39,1.38,3.02,2.53,4.69,3.59,1.67,1.07,3.45,1.98,5.24,2.85,1.8.86,3.63,1.64,5.5,2.34,1.87.7,3.76,1.35,5.7,1.86Z"/>
                  <path class="cls-42" d="M187.8,212.7c-.32-1.04-.79-2.03-1.32-2.99-.53-.96-1.16-1.87-1.84-2.74-.71-.86-1.48-1.68-2.35-2.39-.88-.71-1.86-1.32-2.93-1.72.88.69,1.69,1.42,2.45,2.19.74.78,1.45,1.59,2.13,2.43.68.83,1.32,1.7,1.96,2.57l1.91,2.65Z"/>
                  <path class="cls-42" d="M188.02,215.99c-.61-.83-1.35-1.56-2.16-2.22-.8-.66-1.69-1.24-2.64-1.72-.96-.47-1.98-.85-3.07-1-1.07-.16-2.22-.08-3.19.35,1.06-.08,2.07.03,3.04.29.48.13.96.28,1.43.48.47.18.93.38,1.37.62.91.44,1.77.96,2.64,1.5.86.55,1.71,1.12,2.57,1.7Z"/>
                  <path class="cls-13" d="M195.08,276.43s66.28-7.51,66.85-8.24c10.1-12.92,10.52-53.83,7.97-60.67-2.11-5.69,7.37-19.84,7.37-19.84-9.33-6.22-20.13-9.89-27.3-12.19-5.3-1.7-8.89-2.45-9.1-2.44-36.44,2.4-46.38,8.44-47.87,9.51-.15.11-.21.16-.21.16-10.04,31.64,2.3,93.71,2.3,93.71Z"/>
                  <path class="cls-18" d="M195.08,276.43s66.47-7.4,66.85-8.24c13.54-30.34,8.19-54.61,7.97-60.67-.21-6.06,7.37-19.84,7.37-19.84-9.33-6.22-20.13-9.89-27.3-12.19-5.3-1.7-8.89-2.45-9.1-2.44-36.44,2.4-46.38,8.44-47.87,9.51-.15.11-.21.16-.21.16-10.04,31.64,2.3,93.71,2.3,93.71Z"/>
                  <path class="cls-42" d="M203.08,229.24c0,.1.88.2,2.27.44,1.39.24,3.31.64,5.29,1.47,1.97.82,3.57,1.95,4.61,2.89,1.04.94,1.57,1.65,1.66,1.59.07-.04-.33-.86-1.33-1.93-.98-1.07-2.62-2.32-4.68-3.17-2.06-.86-4.05-1.2-5.49-1.32-1.44-.12-2.33-.05-2.33.04Z"/>
                  <g>
                    <path class="cls-21" d="M210.52,177.74s5.17,9.81,14.49,9.28c5.53-.31,9.74-3.34,12.23-5.75,0,0,.02-.01.02-.02,1.42-1.6,2.44-2.8,2.58-2.97,0-.01.02-.02.02-.02l-1.56-12.94-25.58-.69s-2.59,11.31-2.2,13.11Z"/>
                    <path class="cls-33" d="M210.52,177.74s5.17,9.81,14.49,9.28c5.53-.31,9.74-3.34,12.23-5.75,0,0,.02-.01.02-.02,1.42-1.6,2.44-2.8,2.58-2.97,0-.01.02-.02.02-.02l-1.56-12.94h-.03s-25.55-.69-25.55-.69c0,0-1.2,5.24-1.84,9.15-.3,1.84-.48,3.38-.36,3.96Z"/>
                    <path class="cls-11" d="M210.88,173.79c1.96,2.78,6.57,7.97,13.42,7.59,5.53-.31,9.74-3.34,12.23-5.75l.02-.02c1.42-1.6,2.44-2.8,2.58-2.97,0-.01.02-.02.02-.02l-.88-7.29-25.55-.69s-1.2,5.24-1.84,9.15Z"/>
                    <path class="cls-18" d="M210.52,177.74s5.17,9.81,14.49,9.28c5.53-.31,9.74-3.34,12.23-5.75,0,0,.02-.01.02-.02,1.42-1.6,2.44-2.8,2.58-2.97,0-.01.02-.02.02-.02l-1.56-12.94h-.03s-25.55-.69-25.55-.69c0,0-1.2,5.24-1.84,9.15-.3,1.84-.48,3.38-.36,3.96Z"/>
                  </g>
                  <g>
                    <polygon class="cls-36" points="172.57 259.01 202.11 262.64 224.89 270.21 220.81 284.93 184.66 277.37 160.89 271.46 172.57 259.01"/>
                    <polygon class="cls-27" points="172.57 259.01 202.11 262.64 224.89 270.21 220.81 284.93 184.66 277.37 160.89 271.46 172.57 259.01"/>
                    <polygon class="cls-19" points="172.57 259.01 202.11 262.64 224.89 270.21 220.81 284.93 184.66 277.37 160.89 271.46 172.57 259.01"/>
                    <path class="cls-31" d="M160.58,297.84s-.03,1.87,3.14,1.46c3.17-.41,7.02-1.05,13.42-5.39,6.4-4.34,15.75-22.22,15.78-23.62.02-1.41-12.8-4.21-12.8-4.21,0,0-13.14,2.58-19.17,11.14-6.02,8.56-.37,20.61-.37,20.61Z"/>
                    <path class="cls-36" d="M160.58,297.84s-.03,1.87,3.14,1.46c3.17-.41,7.02-1.05,13.42-5.39,6.4-4.34,15.75-22.22,15.78-23.62.02-1.41-12.8-4.21-12.8-4.21,0,0-13.14,2.58-19.17,11.14-6.02,8.56-.37,20.61-.37,20.61Z"/>
                    <path class="cls-19" d="M160.58,297.84s-.03,1.87,3.14,1.46c3.17-.41,7.02-1.05,13.42-5.39,6.4-4.34,15.75-22.22,15.78-23.62.02-1.41-12.8-4.21-12.8-4.21,0,0-13.14,2.58-19.17,11.14-6.02,8.56-.37,20.61-.37,20.61Z"/>
                    <path class="cls-12" d="M280.68,274.3c-.1,5.73-3.96,8.04-7.08,8.7,0,0-.19.03-.56.08-2.12.3-10.01,1.43-17.89,2.49-6.5.89-12.98,1.74-16.24,2.07-7.89.81-35.03,9.64-35.03,9.64l-5.64-18.24s30.29-12.12,37.73-14.38c7.44-2.25,25.6-3.36,28.46-3.07,2.86.28,16.35,6.97,16.25,12.7Z"/>
                    <path class="cls-14" d="M276.16,275.65c-.48,2.3-.49,4.14-.97,4.71-.21.25-1.15,1.42-2.16,2.72-2.12.3-10.01,1.43-17.89,2.49-4.94-1.47-15.87-5.08-15.87-5.08,0,0,19.55.15,20.84-.12,1.29-.26,5.53-3.07,6.08-6.22.53-3.06-1.36-6.58-1.66-6.59.34-.13,4.79-1.81,5.16-1.72.39.08,6.42,2.42,6.42,2.42,0,0,.52,5.08.05,7.38Z"/>
                    <path class="cls-19" d="M273.6,283.01s-26.81,3.82-34.7,4.64c-7.89.81-35.03,9.64-35.03,9.64l-5.64-18.24s30.29-12.11,37.74-14.37c7.44-2.26,25.6-3.36,28.46-3.08,2.86.29,16.35,6.97,16.25,12.7-.1,5.73-3.96,8.05-7.08,8.71Z"/>
                    <path class="cls-36" d="M293.14,258.29s7.31,5.14,7.71,9.21c.41,4.07,1.02,9.57-1.67,13.58-2.7,4.01-14.46,7.86-14.46,7.86l-13.77-4.06s2.33-9.99.69-11.69c-1.64-1.7-11.05-9.51-13.67-10.03-2.62-.52-12.15-1.17-11.43-1.87s4.86-4.69,17.3-6.38c12.44-1.69,29.3,3.39,29.3,3.39Z"/>
                    <path class="cls-9" d="M208.85,295.7c-1.34,1.16-21.57,9.69-26.85,11.57-5.09,1.81-11.44-3.2-12.03-6.29-.03-.13-.03-.23-.04-.35-.06-1.16.39-3.5,1.36-6.1.85-2.28,2.1-4.74,3.76-6.76,1.45-1.77,3.22-3.21,5.31-3.87,7.2-2.28,16.26-4.63,17.87-4.62,1.61.02,5.98,1.01,6.42.76.21-.12,1.14,3.29,2.07,6.96,1.06,4.18,2.13,8.69,2.13,8.69Z"/>
                    <path class="cls-10" d="M208.85,295.7c-1.34,1.16-21.57,9.69-26.85,11.57-5.09,1.81-11.44-3.2-12.03-6.29,1.49,1.31,4.66,4.67,8.18,5.19,4.58.66,16.19-5.52,16.82-6.8.63-1.28-2.5-2.3-6.93-3.27-4.41-.96-16.76-1.56-16.76-1.56.85-2.28,2.1-4.74,3.76-6.76,1.92-.85,3.91-1.64,4.55-1.6,1.37.08,18.99-2.18,18.99-2.18,0,0,4.21,1.54,8.14,3.02,1.06,4.18,2.13,8.69,2.13,8.69Z"/>
                    <path class="cls-19" d="M208.85,295.7c-1.33,1.16-21.57,9.69-26.85,11.57-5.28,1.88-11.92-3.59-12.07-6.65-.15-3.06,3.25-14.44,10.45-16.72,7.19-2.28,16.25-4.63,17.87-4.62s5.97,1.01,6.41.76,4.2,15.66,4.2,15.66Z"/>
                    <path class="cls-19" d="M293.14,258.29s7.31,5.14,7.71,9.21c.41,4.07,1.02,9.57-1.67,13.58-2.7,4.01-14.46,7.86-14.46,7.86l-13.77-4.06s2.33-9.99.69-11.69c-1.64-1.7-11.05-9.51-13.67-10.03-2.62-.52-12.15-1.17-11.43-1.87s4.86-4.69,17.3-6.38c12.44-1.69,29.3,3.39,29.3,3.39Z"/>
                    <path class="cls-22" d="M263.79,284.76l-2.03,22.13s-25.99-7.72-31.16-8.74c-5.18-1.03-41.48-4.25-61.55-5.79-9.29-.71-12.93-3.67-14.16-6.65-1.42-3.46.41-6.94.41-6.94,0,0,2.99-4.15,7.71-7.8,3.98-3.09,9.2-5.82,14.88-5.4,12.41.93,23.82,6.29,32.59,9.02,8.76,2.73,53.34,10.17,53.34,10.17Z"/>
                    <path class="cls-14" d="M261.75,306.89s-25.99-7.72-31.16-8.74c-5.18-1.03-41.48-4.25-61.55-5.79-9.29-.71-12.93-3.67-14.16-6.65,3.37-5.2,6.88-10.83,6.83-11.72-.08-1.72.11-2.1,1.28-3.02,1.17-.92,12.27-3.48,12.27-3.48l5.79,1.19s-7.32,9.85-8.12,12.11c-.8,2.25,11.07,8.29,23.26,9.16,12.18.86,31.49,3.21,34.11,3.93,2.62.72,26.43,9.06,26.43,9.06l1.37-10.33,3.67,14.3Z"/>
                    <path class="cls-19" d="M155.27,278.76s-6.31,12.07,13.76,13.6c20.07,1.53,56.38,4.75,61.55,5.78,5.18,1.03,31.16,8.74,31.16,8.74l2.02-21.19s-44.56-8.38-53.32-11.11c-8.76-2.73-20.18-8.09-32.59-9.01-12.41-.92-22.59,13.19-22.59,13.19Z"/>
                    <path class="cls-9" d="M286.28,306.88c-.55.85-1.17,1.47-1.87,1.76-4.1,1.78-14.56,2.22-23.18-1.21-8.61-3.43-29.8-9.18-31.33-9.41-1.53-.22-5.86-1-5.86-1,0,0,1.54-1.12,3.11-3.14,2.43-3.15,4.88-8.52,1.59-15.34,0,0,29.69,5.25,37.36,5.36,7.67.11,19.99,4.76,22.06,7.27,1.73,2.1.82,11.56-1.89,15.7Z"/>
                    <path class="cls-10" d="M286.28,306.88c-.55.85-1.17,1.47-1.87,1.76-4.1,1.78-14.56,2.22-23.18-1.21-8.61-3.43-29.8-9.18-31.33-9.41-1.53-.22-5.86-1-5.86-1,0,0,1.54-1.12,3.11-3.14l1.14-.03s6.8,2.46,10.29,4.04c3.49,1.58,8.1,4.12,8.35,4.29.24.17,25.52,8.22,35.79,5.54,1.32-.35,2.51-.63,3.56-.85Z"/>
                    <path class="cls-19" d="M224.05,297.03s10.11-7.29,4.7-18.48c0,0,29.7,5.25,37.36,5.36,7.67.11,19.98,4.75,22.06,7.27,2.08,2.52.34,15.68-3.76,17.47-4.1,1.79-14.57,2.22-23.18-1.21-8.61-3.43-29.79-9.19-31.32-9.41-1.53-.22-5.86-.99-5.86-.99Z"/>
                    <path class="cls-36" d="M174.23,254.03s-9.94.06-15.87,3.47c-5.93,3.41-8.06,8.53-9.69,11.78-1.64,3.25,1.68,19.95,3.87,23.5,2.2,3.55,9.82,6.5,11.18,6.53,1.35.02-3.27-6.85-2.5-11.76.76-4.91,10.88-14.8,17.72-18.67,6.84-3.86,14.09-5.14,14.09-5.14,0,0-9.77-9.55-18.8-9.71Z"/>
                    <path class="cls-19" d="M174.23,254.03s-9.94.06-15.87,3.47c-5.93,3.41-8.06,8.53-9.69,11.78-1.64,3.25,1.68,19.95,3.87,23.5,2.2,3.55,9.82,6.5,11.18,6.53,1.35.02-3.27-6.85-2.5-11.76.76-4.91,10.88-14.8,17.72-18.67,6.84-3.86,14.09-5.14,14.09-5.14,0,0-9.77-9.55-18.8-9.71Z"/>
                  </g>
                  <path class="cls-42" d="M185.9,225.2c.12-2.43.21-4.85.24-7.28l.1-7.27c0-1.21.03-2.42.07-3.63.02-1.22.01-2.44-.06-3.66-.13-2.43-.43-4.86-.91-7.25.13,2.43.2,4.85.22,7.26,0,1.21-.01,2.41-.08,3.61-.06,1.21-.09,2.43-.11,3.65-.02,2.43,0,4.86.1,7.28.08,2.43.23,4.85.45,7.27Z"/>
                  <path class="cls-42" d="M205.37,214.18c-.07.05.82,1.45,2.4,3.63,1.58,2.17,3.86,5.13,6.73,8.08,1.44,1.47,2.91,2.78,4.3,3.9.71.54,1.38,1.07,2.05,1.5.33.22.64.44.95.64.32.19.62.37.91.55.57.36,1.12.63,1.6.88.24.12.46.24.67.34.21.09.4.17.58.25.7.29,1.09.44,1.11.39.05-.11-1.46-.81-3.69-2.26-.28-.18-.57-.38-.87-.58-.3-.21-.6-.44-.92-.66-.64-.45-1.29-.98-1.98-1.53-1.35-1.13-2.79-2.44-4.21-3.89-2.84-2.92-5.16-5.8-6.83-7.9-1.67-2.1-2.7-3.4-2.78-3.34Z"/>
                </g>
                <g>
                  <path class="cls-13" d="M294.34,215.84s1.13,1.45,1.12,1.91c0,.46-1.46,1.87-2.74,2.31l-1.61-3.93s2.21-.54,3.23-.29Z"/>
                  <path class="cls-18" d="M294.34,215.84s1.13,1.45,1.12,1.91c0,.46-1.46,1.87-2.74,2.31l-1.61-3.93s2.21-.54,3.23-.29Z"/>
                  <g>
                    <path class="cls-35" d="M293.73,218.97s5.44,11.67,5.83,18.18c.39,6.5-4.61,9.47-5.76,9.56-1.16.09-17.51-13.88-17.51-13.88l-2.64-6.23s15.03-11.18,20.08-7.63Z"/>
                    <path class="cls-18" d="M293.73,218.97s5.44,11.67,5.83,18.18c.39,6.5-4.61,9.47-5.76,9.56-1.16.09-17.51-13.88-17.51-13.88l-2.64-6.23s15.03-11.18,20.08-7.63Z"/>
                    <path class="cls-26" d="M273.65,226.6s15.03-11.18,20.08-7.63c0,0,1.16,2.74,1.66,3.9-6.74,2.15-11.26,7.5-14.23,14.06-2.76-2.31-4.87-4.11-4.87-4.11l-2.64-6.23Z"/>
                  </g>
                  <path class="cls-25" d="M274.83,229.6s1.41-3.69,4.82-6.99c-.09.66.07,1.3.51,1.79.96,1.2,2.54,1.53,4.27,1.51-3.66,3.74-6.22,9.06-6.22,9.06l-3.38-5.37Z"/>
                  <path class="cls-13" d="M277.29,188.24s1.84-.49,6.21,6.65c3.18,5.21,9.62,16.29,10.78,17.82,1.15,1.53,2.09,4.32.97,5.22-.97.78-12.22-1.5-18.38,9.61,0,0-3.03,3.94-5.54.18-2.51-3.76-7.21-12.68-7.21-12.68,0,0,.71-28.37,13.16-26.79Z"/>
                  <path class="cls-18" d="M277.29,188.24s1.84-.49,6.21,6.65c3.18,5.21,9.62,16.29,10.78,17.82,1.15,1.53,2.09,4.32.97,5.22-.97.78-12.22-1.5-18.38,9.61,0,0-3.03,3.94-5.54.18-2.51-3.76-7.21-12.68-7.21-12.68"/>
                  <path class="cls-24" d="M279.48,223.88c-.93,1.02-1.81,2.23-2.6,3.66,0,0-3.03,3.94-5.54.18-1.86-2.78-4.91-8.39-6.37-11.12,2.01,1.71,3.87,3.68,5.76,5.52,2.44,2.28,5.7,2.55,8.76,1.76Z"/>
                  <path class="cls-42" d="M294.19,217.96c-1.41-.15-2.83-.08-4.24.11-1.41.18-2.8.53-4.14,1.01-.67.25-1.32.54-1.96.87-.63.34-1.24.71-1.82,1.14-.58.42-1.11.91-1.6,1.43-.48.53-.91,1.1-1.27,1.71.49-.51.97-1.01,1.51-1.45.53-.44,1.09-.85,1.67-1.22,1.17-.73,2.41-1.33,3.71-1.8,1.29-.48,2.63-.84,3.99-1.14,1.36-.29,2.74-.51,4.14-.66Z"/>
                  <path class="cls-42" d="M267.88,221.93c-.26-.52-.47-1.05-.73-1.57-.25-.52-.51-1.04-.79-1.54-.27-.51-.58-1-.88-1.5-.31-.49-.63-.97-.97-1.44-.69-.93-1.41-1.85-2.25-2.66-.83-.81-1.75-1.56-2.8-2.07.88.76,1.65,1.59,2.39,2.45l.54.65.52.67c.34.45.69.9,1.02,1.37.67.92,1.31,1.86,1.95,2.81l.97,1.42c.34.47.64.96,1.03,1.39Z"/>
                  <path class="cls-42" d="M273.98,200.45c-.3.15-.53.4-.77.63-.24.23-.46.47-.69.72-.44.5-.85,1.01-1.24,1.56-.77,1.08-1.44,2.24-1.98,3.45-.26.61-.51,1.24-.7,1.88-.18.64-.35,1.29-.44,1.96-.1.66-.14,1.33-.12,2,.04.67.12,1.33.3,1.97-.02-.66-.01-1.31.05-1.96.06-.64.18-1.28.32-1.91.3-1.25.72-2.47,1.25-3.65.52-1.18,1.13-2.32,1.79-3.44.34-.56.68-1.11,1.05-1.65.18-.27.37-.54.56-.81.1-.13.19-.26.29-.39.1-.12.19-.27.33-.36Z"/>
                  <path class="cls-42" d="M269.55,213.64c.64-.67,1.35-1.24,2.1-1.71.2-.11.38-.23.58-.33.2-.1.39-.2.59-.29.21-.08.41-.17.61-.25l.63-.19c.21-.08.43-.1.64-.15l.32-.07c.11-.02.22-.02.33-.04l.66-.08c.22,0,.44,0,.67,0h.34s.34.02.34.02l.68.04c.45.04.9.13,1.37.17-.42-.19-.85-.37-1.3-.52l-.69-.17c-.11-.03-.23-.05-.35-.08l-.35-.04c-.24-.02-.47-.05-.71-.06l-.72.03c-.24,0-.48.05-.71.09-.23.05-.48.07-.7.15-.93.25-1.8.71-2.54,1.3-.74.59-1.38,1.32-1.78,2.17Z"/>
                  <path class="cls-42" d="M289.13,214.41c-1.41-.06-2.83.22-4.17.71-1.34.49-2.61,1.21-3.7,2.14-1.07.95-2.06,2.02-2.75,3.28l-.28.46c-.09.15-.16.32-.23.48l-.43.97c-.08.16-.13.33-.18.5l-.15.51c-.1.34-.2.68-.29,1.02.16-.31.32-.63.47-.94.16-.31.28-.64.47-.93l.53-.9c.09-.15.16-.3.26-.44l.3-.42c.2-.28.39-.56.6-.84l.67-.77c.21-.27.47-.5.71-.73.25-.23.48-.49.76-.68,1.03-.9,2.21-1.6,3.45-2.18,1.25-.57,2.58-.99,3.96-1.23Z"/>
                  <path class="cls-42" d="M264.12,198.83c.09.06.64-.71,1.65-1.82.26-.28.53-.58.86-.88.31-.32.67-.62,1.04-.95.76-.64,1.63-1.3,2.59-1.91.97-.6,1.95-1.09,2.85-1.49.46-.19.89-.37,1.31-.51.41-.16.81-.27,1.17-.38,1.44-.42,2.38-.58,2.36-.69,0-.08-.97-.09-2.48.22-.38.08-.79.18-1.22.31-.44.12-.89.29-1.37.47-.95.38-1.97.87-2.97,1.5-1,.63-1.89,1.33-2.65,2.02-.37.35-.72.69-1.02,1.03-.31.33-.58.66-.82.96-.95,1.22-1.36,2.09-1.29,2.13Z"/>
                </g>
                <g>
                  <g>
                    <path class="cls-2" d="M176.46,96.25c-3.99,7.63-2.85,28.34-2.85,28.34-7.44-7.55-8.31-19.69-6.15-30.09,2.38,1.14,5.59,1.73,9,1.75Z"/>
                    <path class="cls-20" d="M173.08,147.17c.3,15.01,14.91,30.81,38.53,28.15,11.24-1.26,25.46-5.27,33.63-13.88,2.59-2.73,6.66-7.23,7.98-10.18,24.22,8.71,31.25-17.64,19.87-24.81-.5-25.15-28.28-54.11-53.3-53.61-12.47.25-35.06,5.76-44.34,25.41-1.36,4.24-2.89,7.56-1.72,26.34.28,4.44.79,11.68-.46,15.95-.56,1.92-.22,4.6-.18,6.63Z"/>
                    <path class="cls-11" d="M175.76,97.2c2.16,1.15,4.76,1.56,7.89.81,6.9-1.64,13.21-3.52,19.33-.43,7.24,3.65,10.74,5.17,19.18,3.77,4.18-.69,12.06-2.31,13.87-4.33-2.91,10.87-.17,17.14,10.66,24.75-8.14-7.5-10.65-18.1-7.74-28.97-.62,2.31-9.69,4.46-13.87,5.15-8.44,1.39-14.93-.06-22.17-3.71-6.12-3.08-15.11.9-22.05,2.4-1.86.4-3.56.58-5.1.56Z"/>
                    <path class="cls-11" d="M173.26,149.64c1.75,14.22,16.02,28.2,38.35,25.69,11.24-1.26,25.46-5.27,33.63-13.88,2.59-2.73,6.66-7.23,7.98-10.18,19.82,7.13,28.13-9.22,24.26-19.32-.86-2.24-11.46-7.59-18.81,5.07-1.01,1.73-4,8.13-3.2,11.16-2.51-1.77-4.92-.93-5.93.55-2.14,3.15-5.63,8.06-7.13,9.69-7.9,8.6-21.67,12.61-32.56,13.86-20.06,2.32-33.41-9.56-36.59-22.64Z"/>
                    <g>
                      <path class="cls-17" d="M219.48,173.94c-10.13,2.85-20.57,1.89-29.9-2.05-9.32-3.94-15.74-13.9-16.6-24.03-.59-6.88,2.05-13.93,1.06-20.76-1.82-12.56-.47-27.22,2.69-31.76"/>
                      <path class="cls-2" d="M154.64,77.2c1.43,8.01,9.53,22.1,26.31,18.48,6.94-1.49,15.93-5.48,22.05-2.4,7.24,3.65,13.73,5.11,22.17,3.71,4.18-.69,13.25-2.84,13.87-5.15-2.94,10.98-2.34,21.76,8.76,29.46-.7,3.62-1.37,7.07-1.29,10.34.05,1.87.45,4.88,2.22,5.45,2.2.71,4.12-2.5,5.42-4.41,3.38-4.94,7.68-8.73,13.43-8.1,1.06.12,2.06.33,2.98.65.92.31,1.77.72,2.53,1.22,6-5.66,8.76-14.98,9.54-23.21.39-4.19,0-8.44-1.13-12.49-1.09-3.91-2.85-7.64-5.23-10.93-2.78-3.86-6.22-7.28-10.87-8.19-.22-11.74-12.14-20.34-23.74-21.71-11.6-1.37-23.11,2.37-34.56,4.7-11.45,2.33-24.27,2.98-33.89-3.69-1.4-.97-3.1-2.14-4.66-1.45-.8.36-1.29,1.12-1.6,1.97-.16.43-.27.89-.35,1.33-1.07,5.75,2.69,18.73,12.7,24.02-12.66,1.29-26.12-7.79-24.65.38Z"/>
                      <path class="cls-2" d="M154.64,77.2c1.43,8.01,9.53,22.1,26.31,18.48,6.94-1.49,15.93-5.48,22.05-2.4,7.24,3.65,13.73,5.11,22.17,3.71,4.18-.69,13.25-2.84,13.87-5.15-2.94,10.98-2.34,21.76,8.76,29.46-.7,3.62-1.37,7.07-1.29,10.34.05,1.87.45,4.88,2.22,5.45,2.2.71,4.12-2.5,5.42-4.41,3.38-4.94,7.68-8.73,13.43-8.1,1.06.12,2.06.33,2.98.65.92.31,1.77.72,2.53,1.22,6-5.66,8.76-14.98,9.54-23.21.39-4.19,0-8.44-1.13-12.49-4.11,27.01-30.35,24.83-30.35,24.83-16.52-13.35-2.41-37.44,4.64-41.02,7.05-3.58,4.3-3.43,4.3-3.43-9.65,2.2-13.92,8.27-19.35,15.86-6.66,9.3-32.1,5.8-34.13,3.83-2.03-1.97,3.93-2.95-.08-4.01-4.01-1.07-5.94.15-23.36,5.34-17.43,5.19-28.52-14.97-28.52-14.97Z"/>
                      <path class="cls-2" d="M179.29,76.82c9.07,3.14,18.23,1.31,33.5-4.73,15.28-6.04,28.91-1.81,22.71-4.67-6.11-2.83-18.04-2.25-25.4,1.5-6.57,3.35-17.55,7.3-28.1,3.78-10.01-3.34-14.19-14.5-15.07-21.24-.16.43-.27.89-.35,1.33-1.07,5.75,2.69,18.73,12.7,24.02Z"/>
                      <path class="cls-17" d="M233.7,169.41c9.44-4,14.51-10.91,19.57-18.55,5.35,2.86,12.18,2.91,17.38-.21s8.43-9.43,7.58-15.45c-.85-6.03-4.63-9.94-10.65-10.6-5.74-.63-10.04,3.16-13.43,8.1-1.31,1.91-3.23,5.11-5.42,4.41-1.77-.57-2.18-3.58-2.22-5.45-.08-3.28.59-6.73,1.29-10.34-11.11-7.71-11.7-18.48-8.76-29.46-.62,2.31-9.69,4.46-13.87,5.15-8.44,1.39-14.93-.06-22.17-3.71-6.12-3.08-15.11.9-22.05,2.4-16.78,3.61-24.88-10.47-26.31-18.48-1.46-8.17,11.99.91,24.65-.38-10.01-5.29-13.78-18.27-12.7-24.02.24-1.31.74-2.76,1.95-3.3,1.56-.7,3.25.47,4.66,1.45,9.62,6.66,22.44,6.01,33.89,3.69,11.45-2.32,22.96-6.07,34.56-4.7,11.6,1.37,23.53,9.97,23.74,21.71h0c4.65.91,8.09,4.33,10.87,8.19,4.83,6.69,7.14,15.18,6.36,23.42-.78,8.23-3.54,17.55-9.54,23.21"/>
                    </g>
                  </g>
                  <g>
                    <path class="cls-42" d="M176.88,114.37c1.18-.67,2.1-3.5,5.92-3.47s4.38,1.24,5.92,1.1,1.44-1.68.76-3.06-4.16-4.19-8.39-2.56-5.56,8.75-4.21,7.99Z"/>
                    <path class="cls-42" d="M211.4,110.45c-.13.07-2.45.12-2.04-1.95.41-2.07,3.03-4.68,9.09-4.2,6.06.48,9.7,6.03,9.16,8.27s-4.53-2.41-8.01-3.13c-3.48-.73-6.4.09-8.2,1.02Z"/>
                    <path class="cls-4" d="M183.67,120.97s-5.92.33-6.02,9.05c-.1,8.72,4.93,13.53,8.75,12.55,3.82-.97,5.72-6.97,5.44-11.86-.28-4.89-3.46-10.32-8.17-9.75Z"/>
                    <path class="cls-42" d="M191.86,132.13c-.32-4.86-3.48-10.21-8.16-9.64,0,0-5.86.33-6.02,8.94-.03-.46-.04-.93-.03-1.41.1-8.72,6.02-9.05,6.02-9.05,4.71-.57,7.89,4.86,8.17,9.75.03.46.04.94.02,1.41Z"/>
                    <path class="cls-4" d="M208.85,134.34s-1.54-6.37,1.92-11.58c3.46-5.21,10.69-4.05,13.56-.3,2.87,3.75,2.91,8.58,2.17,11.77-.75,3.18-3.58,6.93-9.88,6.69s-7.77-6.57-7.77-6.57Z"/>
                    <path class="cls-42" d="M226.85,129.24c-.4-1.58-1.12-3.16-2.26-4.57-3-3.75-10.57-4.91-14.18.3-.84,1.21-1.4,2.48-1.76,3.72.24-1.87.83-3.98,2.12-5.92,3.46-5.21,10.7-4.05,13.56-.31,1.6,2.08,2.31,4.5,2.52,6.79Z"/>
                    <path class="cls-15" d="M193.51,146.76c.12,0,1.31,1.11,3.85.75s4.17-.97,4.17-.97c0,0-.36,2.29-1.66,2.63s-4.56.2-5.91-.87c-1.35-1.07-.46-1.54-.46-1.54Z"/>
                    <path class="cls-42" d="M202.01,141.99s-1.59-2.88-6.88-1.99c-5.3.89-3.98,8.02-1.28,9,2.69.98,4.3-.11,4.11.07s-4.16-.17-4.38-3.54,2.89-4.62,4.99-4.35,3.45.81,3.45.81Z"/>
                    <path class="cls-30" d="M218.72,155.04c-1.72,3.83-5.55,8.69-9.73,9.86-3.07.86-6.31.61-9.28-.65-3.06-1.3-5.85-3.66-7.91-6.99,0,0-1.13-1.28-.52-2.24.61-.96,3.31-.57,6.38-.77,3.08-.2,10.65-1.91,14.61-3.87,3.96-1.95,6.11-2.17,7.24.34.37.82.04,2.45-.81,4.32Z"/>
                    <path class="cls-39" d="M218.72,155.04c-1.72,3.83-5.55,8.69-9.73,9.86-3.07.86-6.31.61-9.28-.65,1.4-2.29,4.24-5.99,8.74-7.75,3.83-1.5,7.67-1.63,10.26-1.46Z"/>
                    <g>
                      <path class="cls-28" d="M211.64,137.17c.25,2.57,2.73,4.33,5.54,3.92,2.82-.41,4.9-2.82,4.65-5.4-.25-2.57-2.73-4.33-5.54-3.92-2.82.41-4.9,2.82-4.65,5.4Z"/>
                      <path class="cls-4" d="M218.39,134.3c.13.52.59.81,1.02.65s.68-.71.55-1.23c-.13-.52-.59-.81-1.02-.65s-.68.71-.55,1.23Z"/>
                    </g>
                    <g>
                      <path class="cls-28" d="M180.24,138.75c.25,2.57,2.73,4.33,5.54,3.92,2.82-.41,4.9-2.82,4.65-5.4-.25-2.57-2.73-4.33-5.54-3.92s-4.9,2.82-4.65,5.4Z"/>
                      <path class="cls-4" d="M186.98,135.87c.13.52.59.81,1.02.65s.68-.71.55-1.23-.59-.81-1.02-.65-.68.71-.55,1.23Z"/>
                    </g>
                  </g>
                </g>
                <g>
                  <path class="cls-40" d="M265.72,212.69c.46.24-2.97-4.25-4.8-5.07-1.83-.82-6.29-2.85-7.41-4.59,0,0-1.24-2.04-2.29.25-1.05,2.29-.42,5.18,1.31,6.91,1.73,1.73,9.85.74,13.2,2.49Z"/>
                  <path class="cls-18" d="M265.72,212.69c.46.24-2.97-4.25-4.8-5.07-1.83-.82-6.29-2.85-7.41-4.59,0,0-1.24-2.04-2.29.25-1.05,2.29-.42,5.18,1.31,6.91,1.73,1.73,9.85.74,13.2,2.49Z"/>
                  <path class="cls-26" d="M261.37,207.87c-2.8-.7-5.91-.67-8.68-1.43-.94-.2-1.56-.87-1.9-1.76-.33,1.98.35,4.12,1.74,5.51,1.73,1.73,9.85.74,13.2,2.49.42.22-2.47-3.59-4.35-4.82Z"/>
                </g>
                <g>
                  <g>
                    <path class="cls-6" d="M244.14,244.6c-19.72,1.34-45.58,2.26-65.03,3.14-1.21.08-1.78-1.68-1.76-1.68,0,0-10.61-40.49-10.72-43.19-.02-1.61,1.63-3.18,2.55-3.93,22.54-1.05,45.42-2.5,67.94-3.61-2.3,1.13-3.06,2.67-3.01,4.18.92,1.18,7.13,44.42,10.03,45.1Z"/>
                    <path class="cls-6" d="M173.56,198.74c-.45.02-.9.04-1.32.06.43-.02.87-.04,1.32-.06Z"/>
                    <path class="cls-5" d="M179.06,247.75c-9.74-.07-16.43,2.16-17.91-1.34-2.05-4.88-8.36-37.01-8.81-38.13-1.36-3.48,4.02-10.08,16.84-9.33-.92.76-2.57,2.32-2.55,3.93.11,2.71,10.72,43.19,10.72,43.19,0,0,.49,1.68,1.71,1.68Z"/>
                    <path class="cls-37" d="M256.91,238.53c-1.01,3.25-7.06,5.78-12.77,6.07-2.86-.53-9.14-44.04-10.03-45.09-.05-1.51.71-3.05,3.01-4.18,8.04-.81,14.3.02,16.99,7,1,3.83,2.8,36.21,2.8,36.21Z"/>
                    <path class="cls-3" d="M256.91,238.53s-.46,1.9-3.45,3.6c3.02-.3.49-34.43-2.53-40.6-3.25-4.37-15.84-3.01-15.84-3.01-9.47.61-55.53,3.3-73.8,4.78-8.7.85-8.94,4.98-8.94,4.98-1.94-10.95,20.37-9.21,30.48-10.01,11.49-.61,23.15-1.27,34.63-1.9,7.87-.4,19.32-1.14,26.45-1.28,4.42.12,9.21,3.41,10.21,7.24,1,3.83,2.8,36.21,2.8,36.21Z"/>
                    <path class="cls-18" d="M244.14,244.6c-19.72,1.34-45.58,2.26-65.03,3.14-1.21.08-1.78-1.68-1.76-1.68,0,0-10.61-40.49-10.72-43.19-.02-1.61,1.63-3.18,2.55-3.93,22.54-1.05,45.42-2.5,67.94-3.61-2.3,1.13-3.06,2.67-3.01,4.18.92,1.18,7.13,44.42,10.03,45.1Z"/>
                    <path class="cls-18" d="M179.06,247.75c-9.74-.07-16.43,2.16-17.91-1.34-2.05-4.88-8.36-37.01-8.81-38.13-1.36-3.48,4.02-10.08,16.84-9.33-.92.76-2.57,2.32-2.55,3.93.11,2.71,10.72,43.19,10.72,43.19,0,0,.49,1.68,1.71,1.68Z"/>
                    <path class="cls-18" d="M256.91,238.53c-1.01,3.25-7.06,5.78-12.77,6.07-2.86-.53-9.14-44.04-10.03-45.09-.05-1.51.71-3.05,3.01-4.18,8.04-.81,14.3.02,16.99,7,1,3.83,2.8,36.21,2.8,36.21Z"/>
                  </g>
                  <path class="cls-42" d="M181.65,201.06s-11.73.64-12.1.68-.33-1.59.87-1.74,11.8-.88,11.91-.7.15,1.29-.68,1.76Z"/>
                  <path class="cls-42" d="M164.36,201.81c-1.8.33-3.63.54-5.45.64-.07-.27.02-.57.2-.8s.42-.38.67-.52c1.08-.57,2.34-.7,3.56-.74.22,0,.45-.02.66.04s.42.18.52.38c.11.21.07.47-.04.68s-.31.35-.53.46"/>
                  <path class="cls-42" d="M242.86,197.39c.32.04.63.08.95.13,1.38.21,2.74.52,4.03,1.04.3.12.64.25.93.11.41-.2.39-.84.08-1.17-.31-.33-.79-.43-1.24-.52-.92-.18-1.84-.35-2.77-.53-.9-.17-1.8-.35-2.71-.41-.92-.06-1.85,0-2.77.08-.45.04-1.34-.06-.86.51.36.43,1.11.51,1.62.53.92.05,1.83.11,2.75.23Z"/>
                  <path class="cls-7" d="M193.43,221.22c-.57,2.32-.92,9.17,2.1,10.02,1.66.47,3.28-1.16,4.5-3.11.44-.71,1.21-1.16,2.07-1.24l2.25-.21c.86-.08,1.73.22,2.35.83,1.7,1.67,3.71,2.96,5.2,2.21,2.71-1.38.57-7.98-.6-10.14-1.17-2.16-3.87-3.03-6.02-1.92-.31.16-.59.35-.84.57-.31.27-.66.49-1.04.66-.37.16-.78.27-1.2.31-.84.08-1.68-.13-2.44-.54-.3-.17-.62-.3-.97-.4-2.39-.69-4.81.64-5.38,2.97h0ZM205.97,222.79c-.33.03-.64-.21-.68-.54s.19-.62.52-.65l1.17-.11-.15-1.17c-.04-.33.19-.62.53-.65s.64.21.68.54l.15,1.17,1.17-.11c.33-.03.63.21.67.54s-.2.62-.53.65l-1.17.11.15,1.16c.04.33-.19.62-.52.65s-.63-.21-.67-.54l-.15-1.16-1.17.11h0ZM197.49,220.36c.49-.04.93.31,1,.79s-.27.9-.76.95h0c-.48.04-.93-.31-1-.79-.07-.48.27-.91.76-.95h0ZM198.69,222.86c-.07-.48.27-.9.76-.95s.93.31,1,.79-.28.9-.76.95-.93-.31-1-.79ZM197.21,224.71h0c-.07-.48.27-.9.75-.94.48-.04.93.31,1,.78.07.47-.27.9-.75.94-.48.04-.93-.3-1-.78ZM195.26,223.17c-.07-.48.27-.9.75-.95h0c.49-.04.93.31,1,.79s-.27.9-.75.94-.93-.31-1-.79Z"/>
                </g>
                <g>
                  <path class="cls-41" d="M273.85,226.2c-.49-1.01-4.53-8.13-6.79-11.79-2.26-3.66-4.9-5.85-7.87-6.18-2.98-.33-7.02,1.66-8.75,2.47-1.73.81-4.5,5.56-1.55,9.19,0,0-.67,1.97,1.44,4.29,0,0-.37,2.59.68,4.07,0,0-1.55,1.41,1.08,4.53,2.62,3.12,6.34,1.32,6.34,1.32,0,0,1.29,3.53,5.78,5.25,2.1.8,6.53-.99,7.73-1.66,1.2-.67,3.11-8.99,1.92-11.47Z"/>
                  <path class="cls-18" d="M273.85,226.2c-.49-1.01-4.53-8.13-6.79-11.79-2.26-3.66-4.9-5.85-7.87-6.18-2.98-.33-7.02,1.66-8.75,2.47-1.73.81-4.5,5.56-1.55,9.19,0,0-.67,1.97,1.44,4.29,0,0-.37,2.59.68,4.07,0,0-1.55,1.41,1.08,4.53,2.62,3.12,6.34,1.32,6.34,1.32,0,0,1.29,3.53,5.78,5.25,2.1.8,6.53-.99,7.73-1.66,1.2-.67,3.11-8.99,1.92-11.47Z"/>
                  <g>
                    <path class="cls-42" d="M260.02,208.37c-.93-.05-1.82-.02-2.69.08-.87.1-1.73.27-2.56.52-.21.05-.41.14-.62.2-.21.07-.41.14-.61.22l-.61.24c-.2.1-.39.19-.6.28-.2.09-.4.19-.59.3l-.59.32c-.4.21-.77.47-1.2.67.28-.37.58-.73.91-1.06.35-.3.69-.64,1.09-.89.76-.56,1.64-.95,2.55-1.23.91-.28,1.87-.38,2.81-.35.94.04,1.89.23,2.72.67Z"/>
                    <path class="cls-42" d="M248.89,219.88c.18-1.2.67-2.35,1.35-3.38.69-1.03,1.61-1.92,2.7-2.57,1.11-.61,2.28-1.02,3.53-1.16,1.23-.14,2.53,0,3.59.62-1.18-.23-2.35-.13-3.46.12-.55.14-1.11.29-1.63.52-.54.2-1.05.46-1.54.73-.24.15-.48.29-.71.45-.22.17-.45.34-.66.53-.45.35-.82.78-1.21,1.21-.74.88-1.4,1.86-1.96,2.93Z"/>
                    <path class="cls-42" d="M258.63,217.69c-.82.43-1.61.85-2.37,1.3-.77.45-1.5.93-2.2,1.45-.71.51-1.36,1.09-1.98,1.7-.64.61-1.16,1.31-1.75,2.04.22-.89.6-1.78,1.17-2.53.56-.75,1.22-1.45,1.99-1.99.76-.56,1.58-1.01,2.45-1.35.87-.34,1.77-.58,2.7-.62Z"/>
                    <path class="cls-42" d="M251.01,228.24c.26-.9.75-1.71,1.37-2.43.62-.71,1.41-1.32,2.33-1.68.22-.1.47-.15.71-.22.24-.05.49-.08.73-.11.46-.02.92-.05,1.38-.02.46.01.93.06,1.39.14.23.05.46.1.68.18.22.08.45.17.62.33-.22-.07-.45-.06-.67-.07-.22,0-.44.01-.67.03-.44.03-.88.08-1.33.14-.44.06-.89.11-1.32.18-.2.05-.4.07-.6.13-.19.07-.4.1-.58.19-.77.3-1.49.75-2.15,1.31-.66.56-1.29,1.19-1.9,1.89Z"/>
                    <path class="cls-42" d="M262.88,232.04c-.45.35-.98.55-1.53.69-.55.12-1.13.15-1.71.06-.58-.1-1.15-.33-1.62-.69-.47-.37-.8-.89-.94-1.43.48.32.88.6,1.34.78.45.18.9.3,1.38.38.96.15,1.96.15,3.09.21Z"/>
                    <path class="cls-42" d="M258.25,231.8c.27.25.48.57.63.94.13.36.2.81.03,1.25-.16.45-.56.77-.94.96-.39.16-.79.26-1.19.28-.81.05-1.58-.17-2.25-.52-.67-.36-1.26-.83-1.68-1.44.68.29,1.32.55,1.97.73.65.19,1.29.3,1.9.25.31,0,.61-.08.89-.16.26-.1.47-.23.61-.43.14-.2.21-.5.19-.83,0-.33-.08-.68-.16-1.03Z"/>
                  </g>
                </g>
                <g>
                  <path class="cls-32" d="M271.33,222.1s2.04,2.2,3.81,2.79c1.76.59,10.8-.4,14.85,1.16,4.05,1.56,7.28,5.45,8.36,8.47,1.09,3.01.41,4.06-.27,7.03,0,0-3.59,7.32-6.84,6.99-2.92-.29-4.69-.11-10.77-4.86-4.25-3.32-6.13-5.67-10.41-5.49-3.39.15-.86-12.49,1.26-16.1Z"/>
                  <path class="cls-18" d="M291.24,248.54c-2.92-.29-4.69-.11-10.77-4.86-4.25-3.32-6.13-5.67-10.41-5.49"/>
                  <path class="cls-18" d="M271.33,222.1s2.04,2.2,3.81,2.79c1.76.59,10.8-.4,14.85,1.16"/>
                  <path class="cls-42" d="M282.8,225.12c1.35-.3,2.74-.32,4.11-.18.69.07,1.37.19,2.05.36.68.17,1.34.4,2,.67,1.3.57,2.56,1.35,3.64,2.41,1.09,1.04,1.99,2.37,2.61,3.84-.85-1.3-1.81-2.44-2.91-3.35-.55-.45-1.11-.88-1.72-1.22-.59-.36-1.2-.68-1.84-.94-1.26-.54-2.57-.91-3.89-1.17-1.33-.25-2.68-.39-4.05-.42Z"/>
                </g>
              </g>
              <g>
                <g>
                  <g class="cls-23">
                    <path class="cls-38" d="M158.37,216.01c-.58.98-2.6,2.15-4.35,2.63l-1.29-5.89c1.11-1.03,3.03-2.22,3.03-2.22,1.07-.7,2.18-.75,3.04.73.86,1.48.57,3.07-.43,4.75Z"/>
                    <path class="cls-38" d="M165.32,235.41c-.14,1.84-4.15,2.4-5.84,2.71-.35.06-.75.1-1.14.1l-3.51-15.95c.71-.52,1.51-.78,2.1-.81,1.33-.07,5.35-.9,5.35-.9,0,0,2.5-.42,2.7,2.66.2,3.08-2.52,4.04-2.52,4.04.08,0,2.27.31,2.61,2.67.34,2.4-1,2.65-1,2.65,1.39.28,1.42.99,1.27,2.83Z"/>
                  </g>
                  <path class="cls-8" d="M155.08,209.18s-2.08,1.28-3.17,2.34-2.13,3.76-1.29,5.41c.84,1.65,6.08-.6,7.07-2.28.99-1.68,1.28-3.27.43-4.75-.86-1.48-1.97-1.43-3.04-.73Z"/>
                  <path class="cls-18" d="M153.31,217.3c1.76-.48,3.8-1.66,4.38-2.64.99-1.68,1.28-3.27.43-4.75-.86-1.48-1.97-1.43-3.04-.73,0,0-2.08,1.28-3.17,2.34s-2.13,3.76-1.29,5.41"/>
                  <path class="cls-1" d="M161.59,219.21s-4.02.83-5.35.9c-1.33.07-3.71,1.31-3.74,3.98-.03,2.67,1.51,3.15,1.51,3.15,0,0-.89-.16-.84,2.13.05,2.29,1.83,3.14,1.83,3.14,0,0-.86.9-.64,2.59.22,1.69,2.75,1.98,4.44,1.67,1.7-.31,5.7-.87,5.84-2.71.14-1.84.11-2.54-1.27-2.83,0,0,1.34-.25,1-2.65-.34-2.4-2.61-2.67-2.61-2.67,0,0,2.72-.97,2.52-4.04-.2-3.08-2.69-2.66-2.69-2.66Z"/>
                  <path class="cls-11" d="M154.38,226.64c1.26-.54,2.57-.72,3.92-.77,1.34-.05,2.68-.1,4.01-.23.78-.47,2.11-1.58,1.97-3.77-.03-.51-.13-.91-.27-1.25-.09.52-.29,1.03-.57,1.5-.56.95-1.41,1.75-2.34,2.33-1.17.73-2.4.76-3.73.73-1.26-.03-2.39.31-3.23,1.28-.13.15-.25.31-.37.47.2-.11.4-.21.6-.29Z"/>
                  <path class="cls-11" d="M157.13,231.32c1.42-.41,2.9-.46,4.37-.4.79.03,1.57.07,2.34.04.35-.31.73-.98.53-2.39-.11-.81-.45-1.38-.84-1.77.23.93-.73,1.96-1.55,2.44-1.28.75-2.81.6-4.23.82-.98.51-1.85,1.18-2.55,2.06.61-.33,1.25-.61,1.94-.81Z"/>
                  <path class="cls-11" d="M162.75,234.47c-.9.59-1.94.96-3,1.13-1.84.31-3.86.09-5.42-.96,0,.14.01.29.03.45.22,1.69,2.75,1.98,4.44,1.67,1.7-.31,5.7-.87,5.84-2.71.05-.6.07-1.07.04-1.46-.48.76-1.25,1.41-1.94,1.87Z"/>
                  <path class="cls-18" d="M161.59,219.21s-4.02.83-5.35.9c-1.33.07-3.71,1.31-3.74,3.98-.03,2.67,1.51,3.15,1.51,3.15,0,0-.89-.16-.84,2.13.05,2.29,1.83,3.14,1.83,3.14,0,0-.86.9-.64,2.59.22,1.69,2.75,1.98,4.44,1.67,1.7-.31,5.7-.87,5.84-2.71.14-1.84.11-2.54-1.27-2.83,0,0,1.34-.25,1-2.65-.34-2.4-2.61-2.67-2.61-2.67,0,0,2.72-.97,2.52-4.04-.2-3.08-2.69-2.66-2.69-2.66Z"/>
                </g>
                <path class="cls-18" d="M161.77,225.91s-5.73-.3-7.76,1.33"/>
                <path class="cls-18" d="M163.23,231.3s-5.24-1.1-8.23,1.21"/>
              </g>
            </g>
          </g>
          <g>
            <path class="cls-4" d="M26.51,44.06l15.14-1.12-.85,6.94-6.88.3-.03,1.32,4.99-.36-.58,4.8-4.58.36-.05,1.51,7.84-.74-.14,7.57-14.67.8-.19-21.36Z"/>
            <path class="cls-4" d="M48.26,51.19h.11c.6-.82,1.22-1.38,1.85-1.67.63-.29,1.32-.44,2.07-.44s1.44.14,2.03.41c.58.27,1.08.66,1.48,1.15.4.49.71,1.07.92,1.73s.32,1.37.32,2.14v10.61l-5.92.49.08-9.98c.02-.33-.11-.6-.37-.82-.27-.22-.58-.33-.95-.33s-.66.11-.95.32c-.28.21-.42.5-.42.86l.11,9.9-5.84-.41-.22-15.6,5.7-.47v2.11Z"/>
            <path class="cls-4" d="M64.8,50.64h.05c.46-.6.99-1.04,1.59-1.3.6-.26,1.28-.4,2.03-.4s1.45.14,2.04.41c.59.27,1.09.66,1.5,1.15.4.49.71,1.07.92,1.74s.31,1.38.29,2.15l-.16,10.61-5.79.49v-10.01c0-.31-.11-.58-.33-.8-.22-.22-.51-.33-.88-.33s-.64.11-.89.32c-.25.21-.37.5-.37.86v9.98l-5.76-.49-.19-21.61,6.14-.49-.19,7.71Z"/>
            <path class="cls-4" d="M83.66,63.42h-.05c-.49.69-1.12,1.18-1.88,1.45-.76.27-1.58.41-2.46.41-.73,0-1.43-.13-2.08-.4s-1.23-.64-1.73-1.14c-.49-.49-.89-1.09-1.18-1.78-.29-.69-.44-1.47-.44-2.33,0-.75.15-1.44.44-2.07.29-.63.69-1.18,1.19-1.65.5-.47,1.1-.83,1.78-1.1.69-.26,1.43-.4,2.24-.4s1.55.12,2.12.37c.58.25,1.07.53,1.47.84v-.82c0-.84-.27-1.4-.82-1.67-.55-.27-1.26-.41-2.14-.41-.8,0-1.55.08-2.25.25s-1.4.36-2.11.58l1.07-4.36c.88-.26,1.79-.43,2.74-.54.95-.1,1.92-.15,2.91-.15.9,0,1.77.11,2.63.32.86.21,1.61.55,2.26,1.03.65.48,1.17,1.09,1.55,1.84.38.75.57,1.67.55,2.77l-.3,10.37-5.51.47v-1.86ZM80.18,58.35c-.62.09-1.13.31-1.54.64s-.58.72-.52,1.14c.07.42.33.74.78.95.45.21,1.03.26,1.74.15.71-.11,1.24-.34,1.59-.69.35-.35.48-.72.41-1.12-.05-.35-.29-.64-.7-.89-.41-.25-1-.31-1.77-.18Z"/>
            <path class="cls-4" d="M97.1,51.19h.11c.6-.82,1.22-1.38,1.85-1.67.63-.29,1.32-.44,2.07-.44s1.44.14,2.03.41c.58.27,1.08.66,1.48,1.15.4.49.71,1.07.92,1.73s.32,1.37.32,2.14v10.61l-5.92.49.08-9.98c.02-.33-.11-.6-.37-.82-.27-.22-.58-.33-.95-.33s-.66.11-.95.32c-.28.21-.42.5-.42.86l.11,9.9-5.84-.41-.22-15.6,5.7-.47v2.11Z"/>
            <path class="cls-4" d="M120.23,64.34c-.52.27-1.06.48-1.6.64s-1.11.28-1.67.34-1.12.1-1.65.1c-1.24,0-2.39-.21-3.44-.63-1.05-.42-1.97-1-2.74-1.74-.78-.74-1.38-1.61-1.82-2.61-.44-1-.66-2.07-.66-3.22,0-1.33.23-2.54.69-3.61.46-1.07,1.09-1.97,1.91-2.71.81-.74,1.78-1.31,2.89-1.7,1.11-.39,2.32-.59,3.62-.59s2.43.21,3.39.63c.96.42,1.77.85,2.43,1.29l-3.62,4.74c-.26-.2-.55-.37-.89-.49s-.68-.22-1.03-.27-.68-.07-1-.05c-.32.02-.58.08-.78.19-.35.18-.64.4-.89.64-.25.25-.44.52-.58.81-.14.29-.2.61-.19.95,0,.34.11.68.29,1.03.37.73.89,1.18,1.56,1.34.68.16,1.39.06,2.14-.3l1.4-.71,3.73,4.94c-.46.4-.95.74-1.47,1Z"/>
            <path class="cls-4" d="M136.95,63.26c-1.12.8-2.26,1.38-3.43,1.74s-2.51.53-4.03.53c-1.24,0-2.38-.21-3.41-.64-1.03-.43-1.92-1.01-2.67-1.74-.75-.73-1.33-1.59-1.75-2.56-.42-.98-.63-2.02-.63-3.11,0-1.37.22-2.6.66-3.67.44-1.08,1.03-1.99,1.78-2.74s1.62-1.32,2.62-1.71c1-.39,2.06-.59,3.2-.59,1.83,0,3.41.47,4.76,1.4,1.34.93,2.34,2.18,3,3.73l-8.2,6.17c.2.11.47.18.8.22.33.04.63.06.9.06.84,0,1.55-.15,2.13-.45.58-.3,1.1-.66,1.58-1.08l2.71,4.47ZM131.08,54.26c-.26-.31-.54-.52-.84-.63-.3-.11-.64-.16-1.03-.16s-.7.08-1,.23c-.3.16-.56.37-.78.63-.22.27-.39.56-.51.89-.12.33-.18.67-.18,1.01s.02.56.07.7c.05.14.11.28.18.43l4.09-3.1Z"/>
            <path class="cls-4" d="M153.51,65.1l-5.38.36v-1.56h-.05c-.44.58-1.04,1.01-1.8,1.27-.76.27-1.52.4-2.29.4-.93,0-1.83-.19-2.7-.56-.87-.37-1.64-.91-2.32-1.62-.68-.7-1.22-1.57-1.62-2.59-.4-1.02-.6-2.18-.6-3.48,0-1.17.17-2.27.51-3.3.34-1.03.83-1.94,1.47-2.71.64-.78,1.43-1.39,2.37-1.84.94-.45,2.02-.67,3.22-.67.6,0,1.19.08,1.75.23.57.16,1.06.42,1.48.78l-.25-6.53,6.31-.49-.11,22.32ZM145.91,59.67c.4-.15.74-.34,1.01-.59.27-.25.49-.52.64-.82s.24-.62.26-.95-.03-.65-.14-.96c-.11-.29-.28-.56-.51-.8-.23-.24-.5-.42-.81-.56-.31-.14-.65-.21-1.03-.23-.38-.02-.76.05-1.17.19-.42.15-.77.35-1.04.6-.27.26-.49.53-.64.84s-.24.62-.26.96c-.02.34.03.65.14.95.11.31.28.58.51.81.23.23.5.41.81.55.31.14.65.21,1.03.22.37,0,.77-.06,1.19-.21Z"/>
            <path class="cls-4" d="M28.19,97.76c.64.22,1.28.4,1.93.55.65.15,1.32.22,2.02.22.29,0,.58-.02.88-.05.29-.04.56-.11.79-.23.24-.12.43-.28.58-.49.15-.21.22-.49.22-.84s-.09-.63-.26-.86c-.17-.23-.41-.41-.71-.55s-.64-.23-1.03-.27c-.38-.05-.78-.07-1.18-.07-.48,0-.96.07-1.45.21-.49.14-.95.32-1.37.53l.52-1.65c-1.21-.58-2.14-1.39-2.81-2.4s-1-2.24-1-3.69c0-.75.14-1.52.43-2.32.28-.8.73-1.52,1.33-2.18.6-.66,1.37-1.2,2.3-1.62.93-.42,2.05-.63,3.35-.63.66,0,1.23.05,1.73.14.49.09.96.21,1.4.36l.47-2.88,4.39,1.89-1.43,2.8c.58.57,1.03,1.22,1.33,1.96.3.74.45,1.53.45,2.37,0,1.15-.23,2.13-.7,2.95-.47.81-1.16,1.52-2.07,2.13,1.79,1.01,2.69,2.52,2.69,4.55,0,.97-.21,1.83-.63,2.59-.42.76-1.02,1.39-1.8,1.91-.78.51-1.71.9-2.8,1.17s-2.3.4-3.63.4c-1.61,0-2.94-.14-4-.41-1.06-.27-1.92-.52-2.58-.74l2.66-4.83ZM33.48,90.05c.62-.13,1.09-.38,1.4-.77.31-.38.42-.81.33-1.29-.11-.48-.39-.82-.84-1.04-.45-.22-.97-.26-1.58-.14-.62.15-1.09.41-1.4.79-.31.38-.42.8-.33,1.26.09.48.36.83.81,1.06.45.23.98.27,1.6.12Z"/>
            <path class="cls-4" d="M51.36,96.33h-.05c-.49.69-1.12,1.18-1.88,1.45-.76.27-1.58.41-2.46.41-.73,0-1.43-.13-2.08-.4s-1.23-.64-1.73-1.14c-.49-.49-.89-1.09-1.18-1.78-.29-.69-.44-1.47-.44-2.33,0-.75.15-1.44.44-2.07.29-.63.69-1.18,1.19-1.65.5-.47,1.1-.83,1.78-1.1.69-.26,1.43-.4,2.24-.4s1.55.12,2.12.37c.58.25,1.07.53,1.47.84v-.82c0-.84-.27-1.4-.82-1.67-.55-.27-1.26-.41-2.14-.41-.8,0-1.55.08-2.25.25s-1.4.36-2.11.58l1.07-4.36c.88-.26,1.79-.43,2.74-.54.95-.1,1.92-.15,2.91-.15.9,0,1.77.11,2.63.32.86.21,1.61.55,2.26,1.03.65.48,1.17,1.09,1.55,1.84.38.75.57,1.67.55,2.77l-.3,10.37-5.51.47v-1.86ZM47.88,91.26c-.62.09-1.13.31-1.54.64s-.58.72-.52,1.14c.07.42.33.74.78.95.45.21,1.03.26,1.74.15.71-.11,1.24-.34,1.59-.69.35-.35.48-.72.41-1.12-.05-.35-.29-.64-.7-.89-.41-.25-1-.31-1.77-.18Z"/>
            <path class="cls-4" d="M76.26,88.43c0-.35-.13-.63-.38-.85s-.59-.33-1.01-.33-.79.14-1.04.41c-.26.27-.38.56-.38.85l.16,9.38-5.95.49.11-9.9c.02-.37-.11-.66-.38-.89-.27-.23-.63-.34-1.07-.34-.35,0-.67.11-.97.33s-.44.53-.42.93l.27,9.9-5.76-.49-.33-15.6,5.59-.49v2.52h.05c.58-.79,1.25-1.4,1.99-1.85.74-.45,1.63-.67,2.67-.67.86,0,1.58.13,2.15.4.58.27,1.1.68,1.58,1.25.48-.49,1.01-.89,1.62-1.19.6-.3,1.27-.45,2-.45.82,0,1.55.14,2.18.42.63.28,1.16.68,1.59,1.19.43.51.76,1.11.99,1.8.23.69.35,1.42.37,2.21l.16,10.45-5.95.49.16-9.95Z"/>
            <path class="cls-4" d="M98.39,96.17c-1.12.8-2.26,1.38-3.43,1.74s-2.51.53-4.03.53c-1.24,0-2.38-.21-3.41-.64-1.03-.43-1.92-1.01-2.67-1.74-.75-.73-1.33-1.59-1.75-2.56-.42-.98-.63-2.02-.63-3.11,0-1.37.22-2.6.66-3.67.44-1.08,1.03-1.99,1.78-2.74s1.62-1.32,2.62-1.71c1-.39,2.06-.59,3.2-.59,1.83,0,3.41.47,4.76,1.4,1.34.93,2.34,2.18,3,3.73l-8.2,6.17c.2.11.47.18.8.22.33.04.63.06.9.06.84,0,1.55-.15,2.13-.45.58-.3,1.1-.66,1.58-1.08l2.71,4.47ZM92.52,87.17c-.26-.31-.54-.52-.84-.63-.3-.11-.64-.16-1.03-.16s-.7.08-1,.23c-.3.16-.56.37-.78.63-.22.27-.39.56-.51.89-.12.33-.18.67-.18,1.01s.02.56.07.7c.05.14.11.28.18.43l4.09-3.1Z"/>
            <path class="cls-4" d="M100.32,93.12c.5.09,1.05.14,1.63.14.26,0,.53,0,.81-.01.28,0,.54-.04.77-.08.23-.05.42-.12.58-.23.16-.11.23-.27.23-.49,0-.27-.14-.48-.42-.62s-.63-.27-1.04-.4-.86-.28-1.36-.45c-.49-.17-.95-.43-1.36-.77s-.76-.79-1.04-1.36-.42-1.31-.42-2.22c0-.6.12-1.2.36-1.78.24-.58.62-1.12,1.15-1.59.53-.48,1.22-.86,2.06-1.15s1.86-.44,3.04-.44c.46,0,.91.02,1.37.05.46.04.89.09,1.3.15.41.06.79.13,1.14.19.35.06.64.12.88.18v4.83c-.46-.11-.9-.2-1.34-.27-.44-.07-.91-.11-1.43-.11-.11,0-.28,0-.52.01-.24,0-.48.04-.71.08-.24.05-.45.12-.63.23-.18.11-.27.26-.27.44,0,.29.15.51.44.66.29.15.65.28,1.08.41s.9.28,1.41.47c.51.18.98.44,1.41.78.43.34.79.79,1.08,1.36.29.57.44,1.31.44,2.22,0,.99-.21,1.81-.64,2.47s-1,1.18-1.7,1.58c-.7.39-1.51.67-2.43.84s-1.87.25-2.85.25c-.77,0-1.52-.05-2.26-.14-.74-.09-1.49-.24-2.24-.44v-5.13c.49.15.99.27,1.5.36Z"/>
            <path d="M27.23,128.18c-.12-.12-.18-.26-.18-.41v-10.89c0-.16.06-.29.17-.4.11-.11.25-.17.42-.17h7.61c.17,0,.31.05.41.16.11.11.16.25.16.41,0,.16-.06.29-.17.41-.11.11-.25.17-.41.17h-7.05v4.05h6.19c.17,0,.3.05.41.15.1.1.15.24.15.4s-.05.31-.16.42c-.11.11-.24.17-.4.17h-6.19v4.55h7.02c.17,0,.31.05.41.16.11.11.16.24.16.4,0,.17-.06.31-.17.42-.11.11-.25.17-.41.17h-7.58c-.16,0-.29-.06-.41-.18Z"/>
            <path d="M44.36,128.31l-3-3.71-3.51,3.69c-.11.11-.25.16-.41.16-.14,0-.27-.06-.38-.17-.11-.11-.16-.24-.16-.39,0-.17.05-.31.16-.41l3.56-3.65-2.84-3.4c-.11-.13-.16-.26-.16-.4,0-.14.05-.27.16-.39.11-.11.24-.17.4-.17.17,0,.3.05.4.16l2.84,3.47,3.29-3.44c.11-.11.25-.16.41-.16.14,0,.27.06.39.17.11.11.17.24.17.39,0,.16-.05.29-.16.4l-3.37,3.42,3.08,3.67c.07.11.11.23.11.36,0,.16-.05.29-.16.4-.11.11-.24.16-.4.16-.18,0-.32-.05-.41-.16Z"/>
            <path d="M48.38,128.33c-.11-.11-.17-.23-.17-.38v-7.34h-2c-.16,0-.29-.06-.4-.17-.11-.11-.16-.25-.16-.41,0-.17.06-.3.18-.4.12-.1.26-.15.41-.15h1.96v-2.47c0-.16.06-.29.17-.4.11-.11.25-.17.41-.17.17,0,.3.06.4.17.1.11.15.25.15.4v2.47h2.02c.17,0,.31.05.41.16.11.11.16.24.16.4s-.06.29-.17.41c-.11.11-.25.17-.41.17h-2.02v7.34c0,.14-.06.27-.17.38s-.24.16-.39.16c-.16,0-.29-.05-.41-.16Z"/>
            <path d="M53.81,128.31c-.12-.11-.18-.23-.18-.36v-7.92c0-.16.06-.28.17-.39.11-.1.25-.15.41-.15.17,0,.31.05.41.15s.16.23.16.39v1.53c.34-.59.75-1.09,1.25-1.5.5-.41,1.08-.62,1.75-.62.53,0,.91.15,1.14.44.23.29.35.65.35,1.05v.58c0,.16-.05.29-.16.39-.11.1-.24.15-.4.15-.18,0-.31-.05-.4-.16-.08-.11-.13-.24-.13-.4v-.41c0-.35-.2-.52-.61-.52-.71,0-1.44.5-2.2,1.51-.18.24-.33.54-.44.9s-.17.7-.17,1.01l-.02,3.98c0,.13-.06.25-.17.36-.11.11-.24.16-.39.16s-.28-.05-.4-.16Z"/>
            <path d="M66.66,128.44c-.1-.11-.14-.25-.14-.42v-.5c-.32.29-.71.52-1.17.69s-.91.26-1.37.26c-.65,0-1.23-.16-1.75-.49s-.92-.78-1.21-1.38c-.29-.59-.44-1.27-.44-2.02,0-.82.17-1.62.51-2.4s.84-1.43,1.49-1.93c.65-.5,1.42-.76,2.31-.76.55,0,1.04.07,1.46.22s.85.32,1.28.52v7.79c0,.17-.05.31-.16.42-.11.11-.24.17-.4.17-.18,0-.32-.06-.41-.17ZM65.38,127.08c.47-.22.83-.46,1.08-.71l.07-5.45c-.19-.08-.44-.16-.75-.24-.31-.08-.59-.12-.86-.12-.59,0-1.13.17-1.62.52-.49.35-.88.83-1.16,1.43-.28.61-.42,1.29-.42,2.04,0,.88.21,1.57.63,2.09.42.52.96.77,1.62.77.47,0,.94-.11,1.4-.33Z"/>
            <path d="M78.07,128.32c-.12-.1-.18-.22-.18-.35v-11.32c0-.16.05-.28.16-.39.11-.1.25-.15.41-.15.14,0,.27.05.39.16s.17.23.17.38v11.32c0,.13-.06.25-.17.35-.11.1-.24.15-.39.15s-.28-.05-.4-.15Z"/>
            <path d="M84.11,127.88c-.68-.39-1.21-.91-1.58-1.57-.37-.66-.56-1.38-.56-2.16s.17-1.58.51-2.29c.34-.71.82-1.29,1.43-1.72.61-.43,1.31-.65,2.11-.65.72,0,1.33.14,1.84.41.51.28.89.61,1.15.99.26.38.39.73.39,1.03,0,.22-.14.41-.43.58l-5.58,3.19c.3.58.71,1.01,1.22,1.3.52.29,1.12.44,1.82.44.38,0,.79-.1,1.21-.29s.76-.42,1.02-.68c.08-.12.2-.18.36-.18s.28.05.39.15c.1.1.15.23.15.39,0,.12-.05.24-.14.36-.32.37-.76.68-1.32.93-.56.25-1.11.37-1.65.37-.88,0-1.66-.19-2.34-.58ZM87.5,120.86c-.36-.2-.85-.31-1.46-.31-.58,0-1.09.16-1.55.48-.46.32-.81.75-1.07,1.29s-.39,1.13-.4,1.78c0,.24.01.43.04.58l5.24-2.9c-.17-.41-.43-.71-.79-.92Z"/>
            <path d="M94.03,128.09l-3.2-7.85c-.02-.1-.04-.16-.04-.2,0-.16.06-.29.17-.4s.25-.16.42-.16c.23,0,.4.13.52.38l2.65,6.68,2.66-6.73c.05-.1.12-.18.21-.24.09-.07.19-.1.31-.1.16,0,.29.06.41.17.11.11.17.24.17.39,0,.07-.02.16-.07.25l-3.17,7.85c-.11.24-.28.36-.52.36s-.41-.13-.52-.4Z"/>
            <path d="M101.73,127.88c-.68-.39-1.21-.91-1.58-1.57-.37-.66-.56-1.38-.56-2.16s.17-1.58.51-2.29c.34-.71.82-1.29,1.43-1.72.61-.43,1.31-.65,2.11-.65.72,0,1.33.14,1.84.41.51.28.89.61,1.15.99.26.38.39.73.39,1.03,0,.22-.14.41-.43.58l-5.58,3.19c.3.58.71,1.01,1.22,1.3.52.29,1.12.44,1.82.44.38,0,.79-.1,1.21-.29s.76-.42,1.02-.68c.08-.12.2-.18.36-.18s.28.05.39.15c.1.1.15.23.15.39,0,.12-.05.24-.14.36-.32.37-.76.68-1.32.93-.56.25-1.11.37-1.65.37-.88,0-1.66-.19-2.34-.58ZM105.11,120.86c-.36-.2-.85-.31-1.46-.31-.58,0-1.09.16-1.55.48-.46.32-.81.75-1.07,1.29s-.39,1.13-.4,1.78c0,.24.01.43.04.58l5.24-2.9c-.17-.41-.43-.71-.79-.92Z"/>
            <path d="M110.08,128.32c-.12-.1-.18-.22-.18-.35v-11.32c0-.16.05-.28.16-.39.11-.1.25-.15.41-.15.14,0,.27.05.39.16s.17.23.17.38v11.32c0,.13-.06.25-.17.35-.11.1-.24.15-.39.15s-.28-.05-.4-.15Z"/>
            <path d="M115.09,128.08c-.5-.28-.88-.61-1.13-.99s-.39-.7-.39-.96c0-.16.05-.29.15-.39.1-.1.23-.15.39-.15.26,0,.43.13.5.38.17.48.45.85.85,1.12.4.26.88.4,1.46.4s1.05-.16,1.42-.47.56-.68.56-1.12c0-.25-.06-.46-.17-.64-.11-.17-.32-.34-.61-.49s-.72-.32-1.29-.49c-.97-.3-1.67-.65-2.11-1.04-.43-.4-.65-.92-.65-1.57s.27-1.17.8-1.57c.53-.4,1.3-.6,2.29-.6.9,0,1.59.18,2.08.55.49.37.73.87.73,1.5,0,.29-.05.51-.14.66-.1.15-.23.22-.41.22-.16,0-.29-.05-.4-.15-.11-.1-.16-.22-.16-.35,0-.06,0-.13.03-.2.02-.07.03-.14.03-.2,0-.32-.14-.58-.43-.76s-.73-.28-1.31-.28c-.65,0-1.15.1-1.5.31-.35.21-.53.51-.53.89s.15.67.46.88.84.45,1.59.7c.72.24,1.27.47,1.67.68.39.22.67.47.85.77.17.29.26.67.26,1.12s-.13.87-.39,1.28c-.26.41-.62.74-1.09,1-.47.26-1.01.39-1.62.39-.68,0-1.27-.14-1.77-.42Z"/>
            <path d="M32.46,150.04c-.1-.11-.14-.25-.14-.42v-.5c-.32.29-.71.52-1.17.69s-.91.26-1.37.26c-.65,0-1.23-.16-1.75-.49s-.92-.78-1.21-1.38c-.29-.59-.44-1.27-.44-2.02,0-.82.17-1.62.51-2.4s.84-1.43,1.49-1.93c.65-.5,1.42-.76,2.31-.76.55,0,1.04.07,1.46.22s.85.32,1.28.52v7.79c0,.17-.05.31-.16.42-.11.11-.24.17-.4.17-.18,0-.32-.06-.41-.17ZM31.19,148.67c.47-.22.83-.46,1.08-.71l.07-5.45c-.19-.08-.44-.16-.75-.24-.31-.08-.59-.12-.86-.12-.59,0-1.13.17-1.62.52-.49.35-.88.83-1.16,1.43-.28.61-.42,1.29-.42,2.04,0,.88.21,1.57.63,2.09.42.52.96.77,1.62.77.47,0,.94-.11,1.4-.33Z"/>
            <path d="M37.13,149.9c-.11-.11-.17-.23-.17-.36v-7.94c0-.16.06-.28.17-.39.11-.1.25-.15.41-.15s.29.05.4.15c.11.1.16.23.16.39v2.84c.35-1.08.83-1.91,1.45-2.49.62-.58,1.32-.87,2.1-.87.66,0,1.18.17,1.57.5s.66.87.83,1.59c.17.73.25,1.7.25,2.92s0,1.99-.02,2.36v1.03c0,.16-.05.29-.15.4-.1.11-.23.17-.39.17-.14,0-.27-.06-.38-.17-.11-.11-.16-.24-.16-.39v-1.01c-.01-.37-.02-1.15-.02-2.32s-.06-1.96-.17-2.54c-.11-.58-.29-.97-.52-1.18-.23-.21-.57-.31-1-.31-.41,0-.81.15-1.21.45-.4.3-.74.73-1.04,1.28-.4.72-.68,1.4-.85,2.03-.17.64-.27,1.29-.28,1.96l-.02,1.6c0,.17-.05.31-.15.42-.1.11-.23.17-.39.17s-.29-.05-.41-.16Z"/>
            <path d="M48.6,149.58c-.47-.32-.85-.79-1.12-1.41-.28-.62-.41-1.34-.41-2.17,0-1.54.34-2.74,1.03-3.6s1.63-1.3,2.83-1.3c.8,0,1.6.21,2.39.63l.09-3.58c0-.16.06-.29.18-.4.12-.11.26-.17.41-.17.14,0,.27.06.39.18.11.12.17.26.17.41l-.27,11.36c0,.16-.06.29-.17.39-.11.1-.25.15-.4.15-.17,0-.31-.06-.41-.19-.11-.13-.16-.27-.14-.44l.02-.74c-.94.91-1.93,1.37-2.97,1.37-.59,0-1.12-.16-1.59-.49ZM51.72,148.66c.46-.23.81-.5,1.07-.82.26-.32.39-.6.41-.84l.09-4.16c-.26-.16-.61-.31-1.04-.45s-.85-.22-1.29-.22c-.92,0-1.62.33-2.09.99-.47.66-.7,1.58-.7,2.77,0,.96.18,1.71.55,2.25s.86.81,1.49.81c.55,0,1.06-.11,1.51-.34Z"/>
            <path d="M64.8,149.9c-.11-.11-.17-.23-.17-.38v-7.88c0-.14.06-.27.17-.39.11-.11.25-.17.41-.17s.29.06.4.17c.11.11.16.24.16.39v2.07c.4-.78.91-1.41,1.54-1.9s1.25-.73,1.86-.73c.52,0,.98.15,1.4.46.41.31.7.83.85,1.57.43-.7.92-1.21,1.46-1.54.54-.33,1.07-.49,1.6-.49.73,0,1.32.27,1.75.81.44.54.66,1.38.66,2.52v5.11c0,.14-.06.27-.17.38-.11.11-.25.16-.41.16s-.29-.05-.4-.16c-.11-.11-.16-.23-.16-.38v-5.24c0-.74-.12-1.29-.36-1.63-.24-.34-.59-.51-1.06-.51-.36,0-.76.14-1.2.41-.44.28-.81.67-1.12,1.17-.31.5-.47,1.08-.47,1.73v4.07c0,.14-.05.27-.16.38-.11.11-.24.16-.4.16s-.29-.05-.41-.16c-.11-.11-.17-.23-.17-.38v-5.24c0-.76-.11-1.3-.32-1.64-.22-.34-.57-.5-1.06-.5-.41,0-.83.17-1.26.51-.43.34-.83.76-1.19,1.25-.32.46-.54.88-.65,1.28-.11.4-.16.95-.16,1.66v2.68c0,.14-.05.27-.16.38-.11.11-.24.16-.4.16s-.29-.05-.41-.16Z"/>
            <path d="M80.41,149.89c-.12-.11-.18-.25-.18-.4l.11-7.81c0-.16.06-.29.18-.41.12-.12.26-.18.41-.18s.29.06.41.17c.11.11.17.25.17.42l-.11,7.81c0,.16-.06.29-.17.4s-.25.17-.4.17-.29-.06-.41-.17ZM80.53,139.5c-.11-.11-.16-.24-.16-.4l.02-.74c0-.14.06-.27.18-.38.12-.11.25-.16.4-.16s.27.06.38.17.16.24.16.39l-.02.74c0,.16-.06.29-.17.39s-.24.15-.39.15c-.16,0-.29-.05-.4-.16Z"/>
            <path d="M85.56,149.68c-.5-.28-.88-.61-1.13-.99s-.39-.7-.39-.96c0-.16.05-.29.15-.39.1-.1.23-.15.39-.15.26,0,.43.13.5.38.17.48.45.85.85,1.12.4.26.88.4,1.46.4s1.05-.16,1.42-.47.56-.68.56-1.12c0-.25-.06-.46-.17-.64-.11-.17-.32-.34-.61-.49s-.72-.32-1.29-.49c-.97-.3-1.67-.65-2.11-1.04-.43-.4-.65-.92-.65-1.57s.27-1.17.8-1.57c.53-.4,1.3-.6,2.29-.6.9,0,1.59.18,2.08.55.49.37.73.87.73,1.5,0,.29-.05.51-.14.66-.1.15-.23.22-.41.22-.16,0-.29-.05-.4-.15-.11-.1-.16-.22-.16-.35,0-.06,0-.13.03-.2.02-.07.03-.14.03-.2,0-.32-.14-.58-.43-.76s-.73-.28-1.31-.28c-.65,0-1.15.1-1.5.31-.35.21-.53.51-.53.89s.15.67.46.88.84.45,1.59.7c.72.24,1.27.47,1.67.68.39.22.67.47.85.77.17.29.26.67.26,1.12s-.13.87-.39,1.28c-.26.41-.62.74-1.09,1-.47.26-1.01.39-1.62.39-.68,0-1.27-.14-1.77-.42Z"/>
            <path d="M93.77,149.68c-.5-.28-.88-.61-1.13-.99s-.39-.7-.39-.96c0-.16.05-.29.15-.39.1-.1.23-.15.39-.15.26,0,.43.13.5.38.17.48.45.85.85,1.12.4.26.88.4,1.46.4s1.05-.16,1.42-.47.56-.68.56-1.12c0-.25-.06-.46-.17-.64-.11-.17-.32-.34-.61-.49s-.72-.32-1.29-.49c-.97-.3-1.67-.65-2.11-1.04-.43-.4-.65-.92-.65-1.57s.27-1.17.8-1.57c.53-.4,1.3-.6,2.29-.6.9,0,1.59.18,2.08.55.49.37.73.87.73,1.5,0,.29-.05.51-.14.66-.1.15-.23.22-.41.22-.16,0-.29-.05-.4-.15-.11-.1-.16-.22-.16-.35,0-.06,0-.13.03-.2.02-.07.03-.14.03-.2,0-.32-.14-.58-.43-.76s-.73-.28-1.31-.28c-.65,0-1.15.1-1.5.31-.35.21-.53.51-.53.89s.15.67.46.88.84.45,1.59.7c.72.24,1.27.47,1.67.68.39.22.67.47.85.77.17.29.26.67.26,1.12s-.13.87-.39,1.28c-.26.41-.62.74-1.09,1-.47.26-1.01.39-1.62.39-.68,0-1.27-.14-1.77-.42Z"/>
            <path d="M101.62,149.89c-.12-.11-.18-.25-.18-.4l.11-7.81c0-.16.06-.29.18-.41.12-.12.26-.18.41-.18s.29.06.41.17c.11.11.17.25.17.42l-.11,7.81c0,.16-.06.29-.17.4s-.25.17-.4.17-.29-.06-.41-.17ZM101.75,139.5c-.11-.11-.16-.24-.16-.4l.02-.74c0-.14.06-.27.18-.38.12-.11.25-.16.4-.16s.27.06.38.17.16.24.16.39l-.02.74c0,.16-.06.29-.17.39s-.24.15-.39.15c-.16,0-.29-.05-.4-.16Z"/>
            <path d="M107.46,149.52c-.56-.37-1-.86-1.31-1.49-.32-.63-.48-1.33-.48-2.1,0-.82.18-1.6.55-2.34.37-.74.87-1.35,1.52-1.81s1.36-.69,2.14-.69c.67,0,1.29.18,1.84.55.56.37,1,.86,1.31,1.49.32.63.48,1.32.48,2.08,0,.86-.19,1.67-.58,2.41-.38.74-.9,1.34-1.54,1.78-.64.44-1.33.67-2.08.67-.68,0-1.3-.18-1.86-.55ZM110.86,148.52c.46-.35.82-.81,1.1-1.39.28-.58.41-1.19.41-1.84,0-.56-.11-1.09-.34-1.57-.23-.49-.54-.88-.93-1.17-.39-.29-.83-.44-1.3-.44-.53,0-1.02.18-1.47.53s-.81.82-1.08,1.4c-.27.58-.4,1.2-.4,1.84s.12,1.17.35,1.65c.23.47.55.84.94,1.11.4.26.82.4,1.26.4.52,0,1-.17,1.46-.52Z"/>
            <path d="M116.66,149.9c-.11-.11-.17-.23-.17-.36v-7.94c0-.16.06-.28.17-.39.11-.1.25-.15.41-.15s.29.05.4.15c.11.1.16.23.16.39v2.84c.35-1.08.83-1.91,1.45-2.49.62-.58,1.32-.87,2.1-.87.66,0,1.18.17,1.57.5s.66.87.83,1.59c.17.73.25,1.7.25,2.92s0,1.99-.02,2.36v1.03c0,.16-.05.29-.15.4-.1.11-.23.17-.39.17-.14,0-.27-.06-.38-.17-.11-.11-.16-.24-.16-.39v-1.01c-.01-.37-.02-1.15-.02-2.32s-.06-1.96-.17-2.54c-.11-.58-.29-.97-.52-1.18-.23-.21-.57-.31-1-.31-.41,0-.81.15-1.21.45-.4.3-.74.73-1.04,1.28-.4.72-.68,1.4-.85,2.03-.17.64-.27,1.29-.28,1.96l-.02,1.6c0,.17-.05.31-.15.42-.1.11-.23.17-.39.17s-.29-.05-.41-.16Z"/>
            <path d="M127.69,149.68c-.5-.28-.88-.61-1.13-.99s-.39-.7-.39-.96c0-.16.05-.29.15-.39.1-.1.23-.15.39-.15.26,0,.43.13.5.38.17.48.45.85.85,1.12.4.26.88.4,1.46.4s1.05-.16,1.42-.47.56-.68.56-1.12c0-.25-.06-.46-.17-.64-.11-.17-.32-.34-.61-.49s-.72-.32-1.29-.49c-.97-.3-1.67-.65-2.11-1.04-.43-.4-.65-.92-.65-1.57s.27-1.17.8-1.57c.53-.4,1.3-.6,2.29-.6.9,0,1.59.18,2.08.55.49.37.73.87.73,1.5,0,.29-.05.51-.14.66-.1.15-.23.22-.41.22-.16,0-.29-.05-.4-.15-.11-.1-.16-.22-.16-.35,0-.06,0-.13.03-.2.02-.07.03-.14.03-.2,0-.32-.14-.58-.43-.76s-.73-.28-1.31-.28c-.65,0-1.15.1-1.5.31-.35.21-.53.51-.53.89s.15.67.46.88.84.45,1.59.7c.72.24,1.27.47,1.67.68.39.22.67.47.85.77.17.29.26.67.26,1.12s-.13.87-.39,1.28c-.26.41-.62.74-1.09,1-.47.26-1.01.39-1.62.39-.68,0-1.27-.14-1.77-.42Z"/>
            <path d="M27.14,171.49c-.12-.11-.18-.25-.18-.4l.11-7.81c0-.16.06-.29.18-.41.12-.12.26-.18.41-.18s.29.06.41.17c.11.11.17.25.17.42l-.11,7.81c0,.16-.06.29-.17.4s-.25.17-.4.17-.29-.06-.41-.17ZM27.26,161.1c-.11-.11-.16-.24-.16-.4l.02-.74c0-.14.06-.27.18-.38.12-.11.25-.16.4-.16s.27.06.38.17.16.24.16.39l-.02.74c0,.16-.06.29-.17.39s-.24.15-.39.15c-.16,0-.29-.05-.4-.16Z"/>
            <path d="M31.93,171.5c-.11-.11-.17-.23-.17-.36v-7.94c0-.16.06-.28.17-.39.11-.1.25-.15.41-.15s.29.05.4.15c.11.1.16.23.16.39v2.84c.35-1.08.83-1.91,1.45-2.49.62-.58,1.32-.87,2.1-.87.66,0,1.18.17,1.57.5s.66.87.83,1.59c.17.73.25,1.7.25,2.92s0,1.99-.02,2.36v1.03c0,.16-.05.29-.15.4-.1.11-.23.17-.39.17-.14,0-.27-.06-.38-.17-.11-.11-.16-.24-.16-.39v-1.01c-.01-.37-.02-1.15-.02-2.32s-.06-1.96-.17-2.54c-.11-.58-.29-.97-.52-1.18-.23-.21-.57-.31-1-.31-.41,0-.81.15-1.21.45-.4.3-.74.73-1.04,1.28-.4.72-.68,1.4-.85,2.03-.17.64-.27,1.29-.28,1.96l-.02,1.6c0,.17-.05.31-.15.42-.1.11-.23.17-.39.17s-.29-.05-.41-.16Z"/>
            <path d="M49.7,171.27c-.5-.28-.88-.61-1.13-.99s-.39-.7-.39-.96c0-.16.05-.29.15-.39.1-.1.23-.15.39-.15.26,0,.43.13.5.38.17.48.45.85.85,1.12.4.26.88.4,1.46.4s1.05-.16,1.42-.47.56-.68.56-1.12c0-.25-.06-.46-.17-.64-.11-.17-.32-.34-.61-.49s-.72-.32-1.29-.49c-.97-.3-1.67-.65-2.11-1.04-.43-.4-.65-.92-.65-1.57s.27-1.17.8-1.57c.53-.4,1.3-.6,2.29-.6.9,0,1.59.18,2.08.55.49.37.73.87.73,1.5,0,.29-.05.51-.14.66-.1.15-.23.22-.41.22-.16,0-.29-.05-.4-.15-.11-.1-.16-.22-.16-.35,0-.06,0-.13.03-.2.02-.07.03-.14.03-.2,0-.32-.14-.58-.43-.76s-.73-.28-1.31-.28c-.65,0-1.15.1-1.5.31-.35.21-.53.51-.53.89s.15.67.46.88.84.45,1.59.7c.72.24,1.27.47,1.67.68.39.22.67.47.85.77.17.29.26.67.26,1.12s-.13.87-.39,1.28c-.26.41-.62.74-1.09,1-.47.26-1.01.39-1.62.39-.68,0-1.27-.14-1.77-.42Z"/>
            <path d="M58.88,171.08c-.68-.39-1.21-.91-1.58-1.57-.37-.66-.56-1.38-.56-2.16s.17-1.58.51-2.29c.34-.71.82-1.29,1.43-1.72.61-.43,1.31-.65,2.11-.65.72,0,1.33.14,1.84.41.51.28.89.61,1.15.99.26.38.39.73.39,1.03,0,.22-.14.41-.43.58l-5.58,3.19c.3.58.71,1.01,1.22,1.3.52.29,1.12.44,1.82.44.38,0,.79-.1,1.21-.29s.76-.42,1.02-.68c.08-.12.2-.18.36-.18s.28.05.39.15c.1.1.15.23.15.39,0,.12-.05.24-.14.36-.32.37-.76.68-1.32.93-.56.25-1.11.37-1.65.37-.88,0-1.66-.19-2.34-.58ZM62.27,164.05c-.36-.2-.85-.31-1.46-.31-.58,0-1.09.16-1.55.48-.46.32-.81.75-1.07,1.29s-.39,1.13-.4,1.78c0,.24.01.43.04.58l5.24-2.9c-.17-.41-.43-.71-.79-.92Z"/>
            <path d="M67.23,171.51c-.12-.1-.18-.22-.18-.35v-11.32c0-.16.05-.28.16-.39.11-.1.25-.15.41-.15.14,0,.27.05.39.16s.17.23.17.38v11.32c0,.13-.06.25-.17.35-.11.1-.24.15-.39.15s-.28-.05-.4-.15Z"/>
            <path d="M73.28,171.08c-.68-.39-1.21-.91-1.58-1.57-.37-.66-.56-1.38-.56-2.16s.17-1.58.51-2.29c.34-.71.82-1.29,1.43-1.72.61-.43,1.31-.65,2.11-.65.72,0,1.33.14,1.84.41.51.28.89.61,1.15.99.26.38.39.73.39,1.03,0,.22-.14.41-.43.58l-5.58,3.19c.3.58.71,1.01,1.22,1.3.52.29,1.12.44,1.82.44.38,0,.79-.1,1.21-.29s.76-.42,1.02-.68c.08-.12.2-.18.36-.18s.28.05.39.15c.1.1.15.23.15.39,0,.12-.05.24-.14.36-.32.37-.76.68-1.32.93-.56.25-1.11.37-1.65.37-.88,0-1.66-.19-2.34-.58ZM76.66,164.05c-.36-.2-.85-.31-1.46-.31-.58,0-1.09.16-1.55.48-.46.32-.81.75-1.07,1.29s-.39,1.13-.4,1.78c0,.24.01.43.04.58l5.24-2.9c-.17-.41-.43-.71-.79-.92Z"/>
            <path d="M82.85,171.15c-.61-.34-1.09-.81-1.44-1.41-.35-.6-.53-1.26-.53-1.98,0-.82.19-1.62.57-2.4s.88-1.43,1.5-1.93c.62-.5,1.27-.75,1.94-.75.62,0,1.14.1,1.54.31.4.2.79.52,1.16.95.1.1.14.22.14.38s-.05.29-.15.4c-.1.11-.23.16-.39.16-.17,0-.31-.07-.41-.2-.26-.31-.53-.55-.81-.71-.28-.16-.62-.24-1.04-.24-.48,0-.95.19-1.4.58-.46.38-.83.88-1.12,1.5-.29.62-.43,1.26-.43,1.92,0,.6.14,1.12.42,1.56.28.44.64.77,1.08,1,.44.23.88.34,1.32.34,1.03,0,1.84-.41,2.41-1.24.16-.22.32-.32.5-.32.16,0,.29.05.4.16.11.11.16.23.16.38,0,.12-.06.26-.18.41-.31.46-.76.85-1.35,1.17s-1.24.49-1.94.49-1.35-.17-1.95-.51Z"/>
            <path d="M91.46,171.52c-.11-.11-.17-.23-.17-.38v-7.34h-2c-.16,0-.29-.06-.4-.17-.11-.11-.16-.25-.16-.41,0-.17.06-.3.18-.4.12-.1.26-.15.41-.15h1.96v-2.47c0-.16.06-.29.17-.4.11-.11.25-.17.41-.17.17,0,.3.06.4.17.1.11.15.25.15.4v2.47h2.02c.17,0,.31.05.41.16.11.11.16.24.16.4s-.06.29-.17.41c-.11.11-.25.17-.41.17h-2.02v7.34c0,.14-.06.27-.17.38s-.24.16-.39.16c-.16,0-.29-.05-.41-.16Z"/>
            <path d="M97.75,171.08c-.68-.39-1.21-.91-1.58-1.57-.37-.66-.56-1.38-.56-2.16s.17-1.58.51-2.29c.34-.71.82-1.29,1.43-1.72.61-.43,1.31-.65,2.11-.65.72,0,1.33.14,1.84.41.51.28.89.61,1.15.99.26.38.39.73.39,1.03,0,.22-.14.41-.43.58l-5.58,3.19c.3.58.71,1.01,1.22,1.3.52.29,1.12.44,1.82.44.38,0,.79-.1,1.21-.29s.76-.42,1.02-.68c.08-.12.2-.18.36-.18s.28.05.39.15c.1.1.15.23.15.39,0,.12-.05.24-.14.36-.32.37-.76.68-1.32.93-.56.25-1.11.37-1.65.37-.88,0-1.66-.19-2.34-.58ZM101.14,164.05c-.36-.2-.85-.31-1.46-.31-.58,0-1.09.16-1.55.48-.46.32-.81.75-1.07,1.29s-.39,1.13-.4,1.78c0,.24.01.43.04.58l5.24-2.9c-.17-.41-.43-.71-.79-.92Z"/>
            <path d="M106.89,171.18c-.47-.32-.85-.79-1.12-1.41-.28-.62-.41-1.34-.41-2.17,0-1.54.34-2.74,1.03-3.6s1.63-1.3,2.83-1.3c.8,0,1.6.21,2.39.63l.09-3.58c0-.16.06-.29.18-.4.12-.11.26-.17.41-.17.14,0,.27.06.39.18.11.12.17.26.17.41l-.27,11.36c0,.16-.06.29-.17.39-.11.1-.25.15-.4.15-.17,0-.31-.06-.41-.19-.11-.13-.16-.27-.14-.44l.02-.74c-.94.91-1.93,1.37-2.97,1.37-.59,0-1.12-.16-1.59-.49ZM110.01,170.26c.46-.23.81-.5,1.07-.82.26-.32.39-.6.41-.84l.09-4.16c-.26-.16-.61-.31-1.04-.45s-.85-.22-1.29-.22c-.92,0-1.62.33-2.09.99-.47.66-.7,1.58-.7,2.77,0,.96.18,1.71.55,2.25s.86.81,1.49.81c.55,0,1.06-.11,1.51-.34Z"/>
            <path d="M27.58,193.11c-.11-.11-.17-.23-.17-.38v-7.34h-2c-.16,0-.29-.06-.4-.17-.11-.11-.16-.25-.16-.41,0-.17.06-.3.18-.4.12-.1.26-.15.41-.15h1.96v-2.47c0-.16.06-.29.17-.4.11-.11.25-.17.41-.17.17,0,.3.06.4.17.1.11.15.25.15.4v2.47h2.02c.17,0,.31.05.41.16.11.11.16.24.16.4s-.06.29-.17.41c-.11.11-.25.17-.41.17h-2.02v7.34c0,.14-.06.27-.17.38s-.24.16-.39.16c-.16,0-.29-.05-.41-.16Z"/>
            <path d="M33,193.09c-.12-.11-.18-.25-.18-.4l.11-7.81c0-.16.06-.29.18-.41.12-.12.26-.18.41-.18s.29.06.41.17c.11.11.17.25.17.42l-.11,7.81c0,.16-.06.29-.17.4s-.25.17-.4.17-.29-.06-.41-.17ZM33.13,182.69c-.11-.11-.16-.24-.16-.4l.02-.74c0-.14.06-.27.18-.38.12-.11.25-.16.4-.16s.27.06.38.17.16.24.16.39l-.02.74c0,.16-.06.29-.17.39s-.24.15-.39.15c-.16,0-.29-.05-.4-.16Z"/>
            <path d="M38.25,193.11c-.11-.11-.17-.23-.17-.38v-7.34h-2c-.16,0-.29-.06-.4-.17-.11-.11-.16-.25-.16-.41,0-.17.06-.3.18-.4.12-.1.26-.15.41-.15h1.96v-2.47c0-.16.06-.29.17-.4.11-.11.25-.17.41-.17.17,0,.3.06.4.17.1.11.15.25.15.4v2.47h2.02c.17,0,.31.05.41.16.11.11.16.24.16.4s-.06.29-.17.41c-.11.11-.25.17-.41.17h-2.02v7.34c0,.14-.06.27-.17.38s-.24.16-.39.16c-.16,0-.29-.05-.41-.16Z"/>
            <path d="M43.68,193.1c-.12-.1-.18-.22-.18-.35v-11.32c0-.16.05-.28.16-.39.11-.1.25-.15.41-.15.14,0,.27.05.39.16s.17.23.17.38v11.32c0,.13-.06.25-.17.35-.11.1-.24.15-.39.15s-.28-.05-.4-.15Z"/>
            <path d="M49.72,192.67c-.68-.39-1.21-.91-1.58-1.57-.37-.66-.56-1.38-.56-2.16s.17-1.58.51-2.29c.34-.71.82-1.29,1.43-1.72.61-.43,1.31-.65,2.11-.65.72,0,1.33.14,1.84.41.51.28.89.61,1.15.99.26.38.39.73.39,1.03,0,.22-.14.41-.43.58l-5.58,3.19c.3.58.71,1.01,1.22,1.3.52.29,1.12.44,1.82.44.38,0,.79-.1,1.21-.29s.76-.42,1.02-.68c.08-.12.2-.18.36-.18s.28.05.39.15c.1.1.15.23.15.39,0,.12-.05.24-.14.36-.32.37-.76.68-1.32.93-.56.25-1.11.37-1.65.37-.88,0-1.66-.19-2.34-.58ZM53.11,185.64c-.36-.2-.85-.31-1.46-.31-.58,0-1.09.16-1.55.48-.46.32-.81.75-1.07,1.29s-.39,1.13-.4,1.78c0,.24.01.43.04.58l5.24-2.9c-.17-.41-.43-.71-.79-.92Z"/>
            <path d="M58.42,192.87c-.5-.28-.88-.61-1.13-.99s-.39-.7-.39-.96c0-.16.05-.29.15-.39.1-.1.23-.15.39-.15.26,0,.43.13.5.38.17.48.45.85.85,1.12.4.26.88.4,1.46.4s1.05-.16,1.42-.47.56-.68.56-1.12c0-.25-.06-.46-.17-.64-.11-.17-.32-.34-.61-.49s-.72-.32-1.29-.49c-.97-.3-1.67-.65-2.11-1.04-.43-.4-.65-.92-.65-1.57s.27-1.17.8-1.57c.53-.4,1.3-.6,2.29-.6.9,0,1.59.18,2.08.55.49.37.73.87.73,1.5,0,.29-.05.51-.14.66-.1.15-.23.22-.41.22-.16,0-.29-.05-.4-.15-.11-.1-.16-.22-.16-.35,0-.06,0-.13.03-.2.02-.07.03-.14.03-.2,0-.32-.14-.58-.43-.76s-.73-.28-1.31-.28c-.65,0-1.15.1-1.5.31-.35.21-.53.51-.53.89s.15.67.46.88.84.45,1.59.7c.72.24,1.27.47,1.67.68.39.22.67.47.85.77.17.29.26.67.26,1.12s-.13.87-.39,1.28c-.26.41-.62.74-1.09,1-.47.26-1.01.39-1.62.39-.68,0-1.27-.14-1.77-.42Z"/>
            <path d="M65.49,193.04c-.12-.14-.18-.32-.18-.52,0-.23.08-.43.23-.6.16-.17.34-.26.54-.26.18,0,.33.07.46.21.13.14.19.3.19.49,0,.25-.08.47-.23.64-.16.17-.34.26-.54.26-.19,0-.35-.07-.47-.22Z"/>
          </g>
        </g>
      </g>
    </g>
  </g>
</svg>