<?xml version="1.0" encoding="UTF-8"?>
<svg xmlns="http://www.w3.org/2000/svg" xmlns:xlink="http://www.w3.org/1999/xlink" viewBox="0 0 255.36 309.04">
  <defs>
    <style>
      .cls-1, .cls-2 {
        fill: #85ba41;
      }

      .cls-3 {
        fill: url(#radial-gradient-10);
      }

      .cls-4 {
        stroke-width: .96px;
      }

      .cls-4, .cls-5, .cls-6, .cls-7, .cls-8, .cls-9, .cls-10, .cls-11 {
        stroke: #341b11;
      }

      .cls-4, .cls-5, .cls-6, .cls-7, .cls-8, .cls-9, .cls-11 {
        stroke-linecap: round;
      }

      .cls-4, .cls-5, .cls-6, .cls-7, .cls-9, .cls-11 {
        stroke-linejoin: round;
      }

      .cls-4, .cls-12, .cls-7, .cls-8, .cls-9, .cls-10, .cls-11 {
        fill: none;
      }

      .cls-13 {
        fill: #4e3819;
      }

      .cls-14 {
        fill: #d58054;
      }

      .cls-15 {
        fill: url(#radial-gradient-9);
      }

      .cls-16 {
        fill: #6d2e1d;
      }

      .cls-17 {
        fill: #e3a07a;
      }

      .cls-5, .cls-6, .cls-10 {
        stroke-width: .73px;
      }

      .cls-5, .cls-18 {
        fill: #fbc156;
      }

      .cls-19 {
        fill: #fff;
      }

      .cls-20 {
        fill: #ebeef1;
      }

      .cls-21 {
        fill: url(#radial-gradient-5);
      }

      .cls-6 {
        fill: #527f63;
      }

      .cls-22 {
        fill: url(#radial-gradient);
      }

      .cls-23 {
        fill: url(#radial-gradient-3);
      }

      .cls-24 {
        fill: #654b21;
      }

      .cls-25 {
        fill: #e39f7a;
      }

      .cls-26, .cls-27 {
        fill: #cfe0ea;
      }

      .cls-26, .cls-2, .cls-28 {
        mix-blend-mode: multiply;
      }

      .cls-29 {
        fill: #341a10;
      }

      .cls-7 {
        stroke-width: .76px;
      }

      .cls-30 {
        isolation: isolate;
      }

      .cls-31 {
        fill: #d15546;
      }

      .cls-32 {
        fill: #729eef;
      }

      .cls-8, .cls-9 {
        stroke-width: .76px;
      }

      .cls-8, .cls-10 {
        stroke-miterlimit: 10;
      }

      .cls-33 {
        fill: #b2cbd9;
      }

      .cls-34 {
        fill: #faf3f8;
      }

      .cls-35 {
        fill: url(#radial-gradient-8);
      }

      .cls-36 {
        fill: url(#radial-gradient-2);
      }

      .cls-37 {
        fill: url(#radial-gradient-4);
      }

      .cls-38 {
        fill: #f8f2f7;
      }

      .cls-39 {
        fill: #145163;
      }

      .cls-2 {
        opacity: .5;
      }

      .cls-40 {
        fill: #724f1f;
      }

      .cls-28 {
        fill: #e1af4b;
      }

      .cls-28, .cls-41 {
        opacity: .2;
      }

      .cls-42 {
        fill: #341b11;
      }

      .cls-43 {
        fill: #5b4724;
      }

      .cls-44 {
        fill: url(#radial-gradient-6);
      }

      .cls-11 {
        stroke-width: .82px;
      }

      .cls-45 {
        fill: url(#radial-gradient-7);
      }

      .cls-46 {
        fill: #edf0f2;
      }

      .cls-47 {
        opacity: .1;
      }

      .cls-48 {
        fill: #e1d3be;
      }

      .cls-49 {
        clip-path: url(#clippath);
      }

      .cls-50 {
        fill: #aec9d7;
      }
    </style>
    <clipPath id="clippath">
      <path class="cls-12" d="M255.36,155.25c0,70.52-57.16,127.68-127.68,127.68S0,225.77,0,155.25,5.99,0,76.5,0s178.86,84.74,178.86,155.25Z"/>
    </clipPath>
    <radialGradient id="radial-gradient" cx="6863.53" cy="1542.02" fx="6863.53" fy="1542.02" r="16.35" gradientTransform="translate(-6860.14 -158.52) rotate(-9.24)" gradientUnits="userSpaceOnUse">
      <stop offset="0" stop-color="#eeb38c"/>
      <stop offset="1" stop-color="#ebbc89"/>
    </radialGradient>
    <radialGradient id="radial-gradient-2" cx="6823.93" cy="3157.44" fx="6823.93" fy="3157.44" r="16.35" gradientTransform="translate(-7309.51 -266.81) rotate(-20.79)" xlink:href="#radial-gradient"/>
    <radialGradient id="radial-gradient-3" cx="-16364.39" cy="165.31" fx="-16364.39" fy="165.31" r="10.08" gradientTransform="translate(-16190.57) rotate(-180) scale(1 -1)" gradientUnits="userSpaceOnUse">
      <stop offset="0" stop-color="#efb38d"/>
      <stop offset="1" stop-color="#edbd8b"/>
    </radialGradient>
    <radialGradient id="radial-gradient-4" cx="188.07" cy="191.03" fx="188.07" fy="191.03" r="6.08" gradientTransform="matrix(1,0,0,1,0,0)" xlink:href="#radial-gradient-3"/>
    <radialGradient id="radial-gradient-5" cx="-6075.1" cy="1495.92" fx="-6075.1" fy="1495.92" r="7.4" gradientTransform="translate(-6123.06 1194.7) rotate(157.1) scale(1.02 -1.02)" xlink:href="#radial-gradient-3"/>
    <radialGradient id="radial-gradient-6" cx="4158.93" cy="5892.36" fx="4158.93" fy="5892.36" r="38.22" gradientTransform="translate(-6052.69 -3527.35) rotate(-24.34)" xlink:href="#radial-gradient-3"/>
    <radialGradient id="radial-gradient-7" cx="71.34" cy="276.17" fx="71.34" fy="276.17" r="6.68" gradientTransform="matrix(1,0,0,1,0,0)" xlink:href="#radial-gradient-3"/>
    <radialGradient id="radial-gradient-8" cx="62.05" cy="150.45" fx="62.05" fy="150.45" r="7.2" gradientTransform="matrix(1,0,0,1,0,0)" xlink:href="#radial-gradient-3"/>
    <radialGradient id="radial-gradient-9" cx="101.72" cy="151.79" fx="101.72" fy="151.79" r="10.59" gradientTransform="matrix(1,0,0,1,0,0)" xlink:href="#radial-gradient-3"/>
    <radialGradient id="radial-gradient-10" cx="-6850.23" cy="85.99" fx="-6850.23" fy="85.99" r="45.87" gradientTransform="translate(-6771.11) rotate(-180) scale(1 -1)" xlink:href="#radial-gradient"/>
  </defs>
  <g class="cls-30">
    <g id="Layer_2" data-name="Layer 2">
      <g id="Layer_1-2" data-name="Layer 1">
        <g>
          <circle class="cls-32" cx="127.68" cy="155.25" r="127.68"/>
          <g class="cls-49">
            <g>
              <ellipse class="cls-20" cx="86.46" cy="295.91" rx="45.96" ry="13.13"/>
              <ellipse class="cls-20" cx="175.83" cy="293.33" rx="42.87" ry="13.13"/>
              <g>
                <g>
                  <g>
                    <g>
                      <g>
                        <path class="cls-39" d="M149.99,270.44c.37-.6,1.29-.8,2.1-.55-.16,7.35-4.62,2.92-2.1.55Z"/>
                        <path class="cls-22" d="M149,275.17c1.84,3.93,6.61,4.76,10.47,5.12.58-.07,1.16-.36,1.44-.87.28-4.84,1.51-9.32,3.2-13.6,1.55-3.94,3.49-7.71,5.42-11.42,1.63-3.13,3.26-6.23,4.67-9.36-5.11-3.18-12.99-2.03-16.91,2.83-.52.62-.98,1.27-1.39,1.94-2.62,4.34-2.96,9.65-3.68,14.81-.53,3.75-1.26,7.42-3.23,10.56Z"/>
                        <path class="cls-11" d="M149,275.17c1.84,3.93,6.61,4.76,10.47,5.12.58-.07,1.16-.36,1.44-.87.28-4.84,1.51-9.32,3.2-13.6,1.55-3.94,3.49-7.71,5.42-11.42,1.63-3.13,3.26-6.23,4.67-9.36-5.11-3.18-12.99-2.03-16.91,2.83-.52.62-.98,1.27-1.39,1.94-2.62,4.34-2.96,9.65-3.68,14.81-.53,3.75-1.26,7.42-3.23,10.56Z"/>
                        <path class="cls-25" d="M155.9,249.8c4.13,2.5,8.82,4.09,13.62,4.59,1.63-3.13,3.26-6.23,4.67-9.36-5.11-3.18-12.99-2.03-16.91,2.83-.52.62-.98,1.27-1.39,1.94Z"/>
                        <path class="cls-46" d="M149,275.17c1.84,3.93,6.61,4.76,10.47,5.12.58-.07,1.16-.36,1.44-.87.28-4.84,1.51-9.32,3.2-13.6-3.86.97-8.08.52-11.88-1.21-.53,3.75-1.26,7.42-3.23,10.56Z"/>
                        <path class="cls-11" d="M149,275.17c1.84,3.93,6.61,4.76,10.47,5.12.58-.07,1.16-.36,1.44-.87.28-4.84,1.51-9.32,3.2-13.6-3.86.97-8.08.52-11.88-1.21-.53,3.75-1.26,7.42-3.23,10.56Z"/>
                      </g>
                      <g>
                        <g>
                          <path class="cls-27" d="M172.95,288.32c2.59,1.86,1.77,5.31-3.39,7.78-5.5,2.45-11.83.88-16.37-2.87-1.28-1.25-2.67-2.37-3.71-3.83-1.23-1.72-3.27-4.01-4.39-4.82-1.74-1.4-.65-5.14,1.45-5.87,2.7,7.38,10.92,13.75,18.93,13.43,2.84.1,6.08-1.53,7.48-3.83Z"/>
                          <path class="cls-11" d="M172.95,288.32c2.59,1.86,1.77,5.31-3.39,7.78-5.5,2.45-11.83.88-16.37-2.87-1.28-1.25-2.67-2.37-3.71-3.83-1.23-1.72-3.27-4.01-4.39-4.82-1.74-1.4-.65-5.14,1.45-5.87,2.7,7.38,10.92,13.75,18.93,13.43,2.84.1,6.08-1.53,7.48-3.83Z"/>
                        </g>
                        <path class="cls-19" d="M172.98,290.56c-3.51,3.62-9.06,4.94-13.75,3.1-4.77-1.82-7.89-6.1-10.81-10.1,1.93,3.26,4.12,6.52,7.22,8.8,5.33,4.09,13.07,3.47,17.34-1.8h0Z"/>
                        <path class="cls-13" d="M167.83,283.95c1.86,3.78-4.28,5.19-6.83,3.84-2.84-2.43-8.64-12.65-5.53-14.15,1.2-.63,2.86-.98,4.37-.95,2.1.32,2.41.72,2.56,2.25.82,3.95,3.66,6.57,5.43,9.02Z"/>
                        <path class="cls-11" d="M167.83,283.95c1.86,3.78-4.28,5.19-6.83,3.84-2.84-2.43-8.64-12.65-5.53-14.15,1.2-.63,2.86-.98,4.37-.95,2.1.32,2.41.72,2.56,2.25.82,3.95,3.66,6.57,5.43,9.02Z"/>
                        <path class="cls-40" d="M155.24,291.41c.45.38.92.72,1.41,1.01,0,0,.01,0,.02.01,7.38,4.54,18,.31,16.4-4.05-.07-.2-.16-.39-.25-.57-1.04-2.1-3.32-3.54-6.54-4.8,1.62.69,1.24,3.01-.16,3.76-1.71.96-3.82.73-5.57-.11-.49-.23-.95-.52-1.37-.83-1.54.71-2.75,2.11-3.41,3.68-.26.62-.44,1.26-.53,1.9Z"/>
                        <path class="cls-11" d="M155.24,291.41c.45.38.92.72,1.41,1.01,0,0,.01,0,.02.01,7.38,4.54,18,.31,16.4-4.05-.07-.2-.16-.39-.25-.57-1.04-2.1-3.32-3.54-6.54-4.8,1.62.69,1.24,3.01-.16,3.76-1.71.96-3.82.73-5.57-.11-.49-.23-.95-.52-1.37-.83-1.54.71-2.75,2.11-3.41,3.68-.26.62-.44,1.26-.53,1.9Z"/>
                        <path class="cls-40" d="M146.88,281.95c3.77,3.65,5.73,7.22,8.36,9.46.45.38.91.72,1.41,1.01,0,0,.01,0,.02.01.1.06.21.12.32.18.08-.76.23-1.42.45-2.01.51-1.38,1.41-2.39,2.68-3.54.15-.13.3-.27.44-.41.29-.28.53-.59.58-.98.09-.63-.36-1.19-.75-1.68-1.68-2.09-2.98-4.49-3.84-7.03-.06-.19-.1-.4-.11-.6-.02-.45-.15-.68-.55-.87-1.16-.28-2.08.15-3.11.02-2.56-.39-3.12-3.65-1.96-5.64-1.88.36-3.63,3.57-4.5,6.57-.18.61-.32,1.2-.41,1.76-.25,1.44-.43,2.39.98,3.75Z"/>
                        <path class="cls-11" d="M146.88,281.95c3.77,3.65,5.73,7.22,8.36,9.46.45.38.91.72,1.41,1.01,0,0,.01,0,.02.01.1.06.21.12.32.18.08-.76.23-1.42.45-2.01.51-1.38,1.41-2.39,2.68-3.54.15-.13.3-.27.44-.41.29-.28.53-.59.58-.98.09-.63-.36-1.19-.75-1.68-1.68-2.09-2.98-4.49-3.84-7.03-.06-.19-.1-.4-.11-.6-.02-.45-.15-.68-.55-.87-1.16-.28-2.08.15-3.11.02-2.56-.39-3.12-3.65-1.96-5.64-1.88.36-3.63,3.57-4.5,6.57-.18.61-.32,1.2-.41,1.76-.25,1.44-.43,2.39.98,3.75Z"/>
                        <path class="cls-40" d="M169.42,284.49c-2.58-2.2-4.58-5.03-5.68-8.03-.13-.35-.41-.6-.74-.77-.79-.41-2.13-.6-1.97.03,1.57,2.92,2.64,5.25,4.59,7.72.9,1.12,2.16.37,3.8,1.05Z"/>
                        <path class="cls-11" d="M169.42,284.49c-2.58-2.2-4.58-5.03-5.68-8.03-.13-.35-.41-.6-.74-.77-.79-.41-2.13-.6-1.97.03,1.57,2.92,2.64,5.25,4.59,7.72.9,1.12,2.16.37,3.8,1.05Z"/>
                        <path class="cls-26" d="M146.88,281.95c3.77,3.65,5.73,7.22,8.36,9.46.45.38.91.72,1.41,1.01,0,0,.01,0,.02.01,7.38,4.54,18,.31,16.4-4.05-.07-.2-.16-.39-.25-.57,0,1.11-.56,2.25-1.41,3.01-1.22,1.1-2.91,1.53-4.54,1.69-3.24.32-6.6-.32-9.44-1.92-.49-.27-.96-.58-1.42-.91-.08-.06-.17-.12-.25-.19-1.87-1.42-3.39-3.26-4.88-5.09-1.3-1.59-2.62-3.2-3.54-5.03-.47-.93-.84-1.93-1.04-2.96-.18.61-.32,1.2-.41,1.76-.25,1.44-.43,2.39.98,3.75Z"/>
                        <g>
                          <path class="cls-42" d="M168.39,285.74c-.41,1.29-1.5,2.17-2.74,2.55-1.28.38-2.62.25-3.95.1.62.32,1.29.53,1.99.62.7.1,1.44.07,2.13-.15,1.36-.4,2.63-1.65,2.56-3.13h0Z"/>
                          <path class="cls-42" d="M159.43,285.6c-1.86.85-3.29,2.82-3.5,4.85.46-.75,1.11-1.82,1.63-2.51.58-.82,1.22-1.55,1.87-2.34h0Z"/>
                          <path class="cls-42" d="M157.32,285.76c-.71-1.24-1.42-2.44-2.05-3.71-.56-1.09-1.26-2.72-1.76-3.86.26,2.82,1.7,5.68,3.81,7.57h0Z"/>
                          <path class="cls-42" d="M153.73,276.89c-1.5-.26-2.75-.65-3.72-1.88-.31-.37-.58-.78-.88-1.2.3,2.29,2.35,3.75,4.6,3.08h0Z"/>
                          <path class="cls-42" d="M149.33,275.67c.08,1.11.12,2.18.02,3.27-.1,1.1-.33,2.14-.61,3.22,1.41-1.78,1.65-4.48.6-6.49h0Z"/>
                        </g>
                        <g>
                          <circle class="cls-42" cx="157.63" cy="282.76" r=".85"/>
                          <circle class="cls-42" cx="156.32" cy="280.73" r=".85"/>
                          <circle class="cls-42" cx="159.13" cy="284.75" r=".85"/>
                          <ellipse class="cls-42" cx="166.12" cy="282.53" rx=".81" ry=".79" transform="translate(-43.19 30.33) rotate(-9.24)"/>
                          <ellipse class="cls-42" cx="164.41" cy="280.16" rx=".81" ry=".79" transform="translate(-42.83 30.02) rotate(-9.24)"/>
                          <ellipse class="cls-42" cx="163.15" cy="277.9" rx=".81" ry=".79" transform="translate(-42.49 29.79) rotate(-9.24)"/>
                          <g>
                            <path class="cls-27" d="M158.44,284.72c.01.15.08.29.19.4.16.16.39.23.6.19.13-.02.26-.08.37-.19,1.8-1.77,4-2.47,6.34-2.01.37.07.73-.17.8-.54,0-.02,0-.03,0-.05.05-.35-.19-.68-.54-.75-2.81-.55-5.42.27-7.56,2.37-.15.15-.22.36-.2.56Z"/>
                            <path class="cls-26" d="M158.44,284.72c.01.15.08.29.19.4.16.16.39.23.6.19.13-.02.26-.08.37-.19,1.8-1.77,4-2.47,6.34-2.01.37.07.73-.17.8-.54,0-.02,0-.03,0-.05-.02.01-.03.03-.05.04-.23.17-.53.21-.81.18-.28-.03-.55-.12-.83-.19-.94-.22-1.95-.12-2.86.21-.91.33-1.73.89-2.43,1.56-.16.15-.32.31-.51.42-.19.11-.43.16-.64.07-.06-.03-.12-.07-.17-.12Z"/>
                          </g>
                          <g>
                            <path class="cls-27" d="M156.96,282.77c.03.21.15.41.35.52.14.08.29.1.44.07.2-.03.38-.15.49-.35,1.18-2.17,4.01-2.88,5.94-2.29.36.11.74-.09.85-.45.02-.06.03-.11.03-.17.01-.3-.18-.59-.48-.68-2.5-.76-6,.13-7.53,2.94-.07.13-.1.27-.08.41Z"/>
                            <path class="cls-26" d="M156.96,282.77c.03.21.15.41.35.52.14.08.29.1.44.07.2-.03.38-.15.49-.35,1.18-2.17,4.01-2.88,5.94-2.29.36.11.74-.09.85-.45.02-.06.03-.11.03-.17-.12.14-.31.21-.49.22-.22.01-.44-.06-.66-.11-2.12-.51-4.5.31-5.86,2.02-.13.17-.26.34-.43.47s-.4.19-.6.11c-.02,0-.04-.02-.06-.03Z"/>
                          </g>
                          <g>
                            <path class="cls-27" d="M155.97,281.22c.14.08.3.11.46.09.19-.03.37-.14.48-.33,1.18-2,3.19-2.81,6.13-2.49.37.04.71-.23.75-.6,0,0,0,0,0,0,.04-.37-.23-.7-.6-.74-3.48-.38-5.99.68-7.45,3.15-.06.11-.09.22-.1.34,0,.24.12.47.33.6Z"/>
                            <path class="cls-26" d="M155.97,281.22c.14.08.3.11.46.09.19-.03.37-.14.48-.33,1.18-2,3.19-2.81,6.13-2.49.37.04.71-.23.75-.6,0,0,0,0,0,0-.18.14-.41.22-.63.24-.42.04-.83-.07-1.25-.12-.94-.12-1.91.07-2.77.47-.86.4-1.61,1-2.24,1.72-.15.17-.29.34-.47.46s-.43.18-.63.1c-.06-.03-.12-.07-.16-.12,0,.24.12.47.33.6Z"/>
                          </g>
                        </g>
                      </g>
                      <path class="cls-18" d="M164.09,274.12c-.12.11-4.08,2.31-8.82,1.43-4.74-.87-6.65-6.9-6.65-6.9l1.71-14.26,18.52,5.39-4.76,14.33Z"/>
                      <path class="cls-8" d="M164.09,274.12c-.12.11-4.08,2.31-8.82,1.43-4.74-.87-6.65-6.9-6.65-6.9l1.71-14.26,18.52,5.39-4.76,14.33Z"/>
                    </g>
                    <g>
                      <g>
                        <path class="cls-39" d="M180.84,273.83c.25-.66,1.11-1.04,1.95-.96,1.32,7.23-3.94,3.78-1.95.96Z"/>
                        <path class="cls-36" d="M180.81,278.67c2.59,3.48,7.43,3.34,11.28,2.92.55-.18,1.07-.58,1.24-1.14-.69-4.8-.39-9.43.41-13.96.73-4.17,1.87-8.25,3.03-12.28.97-3.39,1.95-6.75,2.7-10.1-5.64-2.1-13.14.62-16,6.16-.39.71-.71,1.44-.97,2.17-1.7,4.78-.96,10.05-.64,15.24.23,3.78.25,7.52-1.05,11Z"/>
                        <path class="cls-11" d="M180.81,278.67c2.59,3.48,7.43,3.34,11.28,2.92.55-.18,1.07-.58,1.24-1.14-.69-4.8-.39-9.43.41-13.96.73-4.17,1.87-8.25,3.03-12.28.97-3.39,1.95-6.75,2.7-10.1-5.64-2.1-13.14.62-16,6.16-.39.71-.71,1.44-.97,2.17-1.7,4.78-.96,10.05-.64,15.24.23,3.78.25,7.52-1.05,11Z"/>
                        <path class="cls-25" d="M182.5,252.43c4.55,1.63,9.46,2.25,14.27,1.77.97-3.39,1.95-6.75,2.7-10.1-5.64-2.1-13.14.62-16,6.16-.39.71-.71,1.44-.97,2.17Z"/>
                        <path class="cls-46" d="M180.81,278.67c2.59,3.48,7.43,3.34,11.28,2.92.55-.18,1.07-.58,1.24-1.14-.69-4.8-.39-9.43.41-13.96-3.58,1.73-7.82,2.13-11.88,1.19.23,3.78.25,7.52-1.05,11Z"/>
                        <path class="cls-11" d="M180.81,278.67c2.59,3.48,7.43,3.34,11.28,2.92.55-.18,1.07-.58,1.24-1.14-.69-4.8-.39-9.43.41-13.96-3.58,1.73-7.82,2.13-11.88,1.19.23,3.78.25,7.52-1.05,11Z"/>
                      </g>
                      <g>
                        <g>
                          <path class="cls-27" d="M206.91,286.75c2.91,1.31,2.8,4.85-1.76,8.31-4.9,3.5-11.42,3.23-16.62.47-1.51-.97-3.27-3.16-4.58-4.37-1.55-1.44-3.82-1.91-5.09-2.48-1.98-1.03-1.67-4.9.25-6.04,4.12,6.69,13.45,11.28,21.24,9.37,2.8-.47,5.65-2.72,6.56-5.25Z"/>
                          <path class="cls-11" d="M206.91,286.75c2.91,1.31,2.8,4.85-1.76,8.31-4.9,3.5-11.42,3.23-16.62.47-1.51-.97-3.27-3.16-4.58-4.37-1.55-1.44-3.82-1.91-5.09-2.48-1.98-1.03-1.67-4.9.25-6.04,4.12,6.69,13.45,11.28,21.24,9.37,2.8-.47,5.65-2.72,6.56-5.25Z"/>
                        </g>
                        <path class="cls-13" d="M201.02,283.5c2.58,3.33-3.15,5.94-5.93,5.13-3.27-1.82-11-10.67-8.25-12.76,1.05-.86,2.6-1.53,4.09-1.81,2.12-.1,2.51.22,2.96,1.69,1.59,3.7,4.9,5.7,7.13,7.75Z"/>
                        <path class="cls-11" d="M201.02,283.5c2.58,3.33-3.15,5.94-5.93,5.13-3.27-1.82-11-10.67-8.25-12.76,1.05-.86,2.6-1.53,4.09-1.81,2.12-.1,2.51.22,2.96,1.69,1.59,3.7,4.9,5.7,7.13,7.75Z"/>
                        <path class="cls-40" d="M190.18,293.33c.52.28,1.05.52,1.58.71,0,0,.02,0,.02,0,8.14,2.97,17.7-3.3,15.26-7.25-.11-.18-.23-.35-.36-.51-1.43-1.85-3.96-2.8-7.37-3.39,1.73.35,1.82,2.7.59,3.71-1.48,1.28-3.59,1.48-5.48,1.01-.53-.13-1.04-.32-1.51-.54-1.37,1.01-2.27,2.62-2.61,4.29-.14.66-.18,1.33-.14,1.97Z"/>
                        <path class="cls-11" d="M190.18,293.33c.52.28,1.05.52,1.58.71,0,0,.02,0,.02,0,8.14,2.97,17.7-3.3,15.26-7.25-.11-.18-.23-.35-.36-.51-1.43-1.85-3.96-2.8-7.37-3.39,1.73.35,1.82,2.7.59,3.71-1.48,1.28-3.59,1.48-5.48,1.01-.53-.13-1.04-.32-1.51-.54-1.37,1.01-2.27,2.62-2.61,4.29-.14.66-.18,1.33-.14,1.97Z"/>
                        <path class="cls-40" d="M180.09,285.74c4.96,2.01,7.4,5.42,10.09,7.59.46.37,1.04.52,1.58.71,0,0,.02,0,.02,0,.12.04.23.08.35.11-.08-.76-.06-1.44.04-2.06.23-1.46.91-2.62,1.91-4,.12-.16.24-.32.35-.49.22-.33.4-.69.37-1.08-.04-.63-.59-1.09-1.07-1.5-2.06-1.72-3.82-3.8-5.17-6.12-.1-.18-.18-.37-.23-.57-.11-.44-.28-.63-.72-.75-1.2-.04-2.01.57-3.04.64-2.59.13-3.79-2.95-3.05-5.13-1.76.73-2.85,4.23-3.1,7.34-.05.63-.07,1.24-.05,1.81.05,1.46-.1,2.74,1.72,3.48Z"/>
                        <path class="cls-11" d="M180.09,285.74c4.88,1.98,7.37,5.35,10.09,7.59.45.37,1.04.52,1.58.71,0,0,.02,0,.02,0,.12.04.23.08.35.11-.08-.76-.06-1.44.04-2.06.23-1.46.91-2.62,1.91-4,.12-.16.24-.32.35-.49.22-.33.4-.69.37-1.08-.04-.63-.59-1.09-1.07-1.5-2.06-1.72-3.82-3.8-5.17-6.12-.1-.18-.18-.37-.23-.57-.11-.44-.28-.63-.72-.75-1.2-.04-2.01.57-3.04.64-2.59.13-3.79-2.95-3.05-5.13-1.76.73-2.85,4.23-3.1,7.34-.05.63-.07,1.24-.05,1.81.05,1.46-.1,2.74,1.72,3.48Z"/>
                        <path class="cls-40" d="M202.68,283.71c-2.97-1.64-5.5-4.01-7.18-6.73-.19-.31-.52-.5-.88-.6-.86-.24-2.21-.16-1.93.42,2.12,2.55,3.64,4.61,6.05,6.64,1.11.92,2.19-.08,3.93.27Z"/>
                        <path class="cls-11" d="M202.68,283.71c-2.97-1.64-5.5-4.01-7.18-6.73-.19-.31-.52-.5-.88-.6-.86-.24-2.21-.16-1.93.42,2.12,2.55,3.64,4.61,6.05,6.64,1.11.92,2.19-.08,3.93.27Z"/>
                        <path class="cls-26" d="M180.09,285.74c5.03,2.09,7.47,5.44,10.09,7.59.45.37,1.04.52,1.58.71,0,0,.02,0,.02,0,8.14,2.97,17.7-3.3,15.26-7.25-.11-.18-.23-.35-.36-.51.22,1.09-.1,2.32-.77,3.23-.98,1.32-2.54,2.08-4.11,2.57-3.11.96-6.53,1.01-9.63.01-.53-.17-1.06-.37-1.57-.61-.09-.04-.19-.09-.28-.13-2.12-1.02-3.97-2.52-5.8-4-1.59-1.3-3.2-2.61-4.48-4.22-.65-.82-1.21-1.73-1.61-2.69-.05.63-.07,1.24-.05,1.81.05,1.46-.1,2.73,1.72,3.48Z"/>
                        <g>
                          <path class="cls-42" d="M201.93,285.14c-.14,1.34-1.03,2.43-2.17,3.05-1.17.63-2.52.77-3.85.89.67.19,1.37.26,2.08.21.7-.05,1.42-.22,2.06-.57,1.25-.67,2.25-2.14,1.88-3.58h0Z"/>
                          <path class="cls-42" d="M193.12,286.8c-1.65,1.2-2.65,3.42-2.45,5.45.3-.83.73-2,1.09-2.79.41-.92.88-1.77,1.36-2.66h0Z"/>
                          <path class="cls-42" d="M191.09,287.38c-.94-1.07-1.88-2.11-2.75-3.23-.77-.95-1.78-2.41-2.5-3.43.82,2.71,2.8,5.22,5.25,6.66h0Z"/>
                          <path class="cls-42" d="M185.79,279.4c-1.52.05-2.83-.09-4.02-1.1-.38-.3-.73-.65-1.11-1,.75,2.18,3.06,3.2,5.13,2.1h0Z"/>
                          <path class="cls-42" d="M181.24,279.09c.3,1.07.56,2.11.67,3.2.13,1.09.1,2.16.04,3.27,1.02-2.02.72-4.72-.72-6.48h0Z"/>
                        </g>
                        <g>
                          <circle class="cls-42" cx="190.79" cy="284.38" r=".85"/>
                          <circle class="cls-42" cx="189.1" cy="282.65" r=".85"/>
                          <circle class="cls-42" cx="192.66" cy="286.03" r=".85"/>
                          <ellipse class="cls-42" cx="199.07" cy="282.45" rx=".81" ry=".79" transform="translate(-87.29 89.04) rotate(-20.79)"/>
                          <ellipse class="cls-42" cx="196.91" cy="280.48" rx=".81" ry=".79" transform="translate(-86.73 88.15) rotate(-20.79)"/>
                          <ellipse class="cls-42" cx="195.23" cy="278.51" rx=".81" ry=".79" transform="translate(-86.14 87.42) rotate(-20.79)"/>
                          <g>
                            <path class="cls-27" d="M191.98,286.13c.04.14.13.27.27.36.19.13.42.15.62.07.13-.05.24-.14.32-.26,1.41-2.1,3.42-3.22,5.81-3.24.38,0,.68-.31.68-.69,0-.02,0-.03,0-.05-.03-.35-.32-.63-.68-.63-2.86.02-5.26,1.35-6.93,3.84-.12.18-.14.4-.08.59Z"/>
                            <path class="cls-26" d="M191.98,286.13c.04.14.13.27.27.36.19.13.42.15.62.07.13-.05.24-.14.32-.26,1.41-2.1,3.42-3.22,5.81-3.24.38,0,.68-.31.68-.69,0-.02,0-.03,0-.05-.01.02-.03.03-.04.05-.19.22-.48.32-.76.34-.28.03-.57,0-.85-.02-.97-.03-1.93.27-2.76.78-.83.51-1.52,1.22-2.07,2.02-.13.18-.25.37-.41.52-.17.14-.39.24-.61.2-.07-.01-.13-.04-.19-.09Z"/>
                          </g>
                          <g>
                            <path class="cls-27" d="M190.14,284.52c.07.2.23.37.45.43.15.05.3.04.44-.01.19-.07.34-.23.41-.44.73-2.36,3.35-3.62,5.36-3.43.38.03.71-.24.74-.62,0-.06,0-.12,0-.17-.05-.3-.29-.54-.61-.57-2.6-.25-5.85,1.33-6.79,4.39-.04.14-.04.29,0,.42Z"/>
                            <path class="cls-26" d="M190.14,284.52c.07.2.23.37.45.43.15.05.3.04.44-.01.19-.07.34-.23.41-.44.73-2.36,3.35-3.62,5.36-3.43.38.03.71-.24.74-.62,0-.06,0-.12,0-.17-.09.16-.26.27-.44.31-.22.05-.44.03-.67.03-2.18-.07-4.34,1.21-5.33,3.15-.1.19-.18.38-.33.54s-.35.27-.56.23c-.02,0-.04-.01-.07-.02Z"/>
                          </g>
                          <g>
                            <path class="cls-27" d="M188.86,283.2c.16.05.32.05.46,0,.18-.07.33-.22.4-.41.76-2.2,2.56-3.4,5.51-3.67.37-.03.65-.37.62-.74,0,0,0,0,0,0-.04-.37-.37-.64-.74-.61-3.49.32-5.73,1.86-6.67,4.58-.04.12-.05.24-.03.35.04.23.21.43.45.52Z"/>
                            <path class="cls-26" d="M188.86,283.2c.16.05.32.05.46,0,.18-.07.33-.22.4-.41.76-2.2,2.56-3.4,5.51-3.67.37-.03.65-.37.62-.74,0,0,0,0,0,0-.15.17-.36.29-.57.36-.4.13-.83.1-1.25.13-.94.07-1.86.45-2.62,1.01-.76.56-1.38,1.31-1.85,2.13-.11.19-.21.39-.37.55s-.38.26-.6.22c-.07-.01-.13-.04-.18-.09.04.23.21.43.45.52Z"/>
                          </g>
                        </g>
                      </g>
                      <path class="cls-18" d="M195.39,274.62c-.09.13-3.53,3.07-8.35,3.17-4.82.1-7.9-5.42-7.9-5.42l-1.18-14.31,19.22,1.57-1.79,15Z"/>
                      <path class="cls-8" d="M195.39,274.62c-.09.13-3.53,3.07-8.35,3.17-4.82.1-7.9-5.42-7.9-5.42l-1.18-14.31,19.22,1.57-1.79,15Z"/>
                    </g>
                    <g>
                      <path class="cls-23" d="M162.5,164.49c2.75,11.29,21.74,13.9,22.63.22-2.27.03-3.83-.61-4.81-1.76-1.05-1.22-1.45-3.02-1.35-5.21-3.31-1.58-7.54-1.42-11.09.26.63,2.25.3,3.87-.74,4.94-.98,1-2.59,1.51-4.63,1.55Z"/>
                      <path class="cls-17" d="M167.13,162.93c4.32.87,8.84.87,13.19.01-1.05-1.22-1.45-3.02-1.35-5.21-3.31-1.58-7.54-1.42-11.09.26.63,2.25.3,3.87-.74,4.94Z"/>
                    </g>
                    <path class="cls-18" d="M153.59,198.76c13.46-.16,26.9-2.54,39.49-6.88-.04-9-1.96-17.94-5.49-26.2-1.44-.83-2.96-1.47-4.57-1.96-.51-.15-1.02-.29-1.54-.42,1.02,2.58-.66,5.62-3.1,6.7-5.14,2.13-10.64-2.12-13.04-6.53-4.84.75-9.69,2.59-13.08,6.24,2.56,9.51,2.97,19.19,1.32,29.05Z"/>
                    <g>
                      <path class="cls-18" d="M186.53,165.45c0,.48,3.19.42,6.78,5.69,3.59,5.27,9.8,23.06,9.8,23.06,0,0,3.59,10.57-5.68,12.76-9.27,2.19-7.98-24.13-7.98-24.13l-2.92-17.38Z"/>
                      <path class="cls-8" d="M186.53,165.45c0,.48,3.19.42,6.78,5.69,3.59,5.27,9.8,23.06,9.8,23.06,0,0,3.59,10.57-5.68,12.76-9.27,2.19-7.98-24.13-7.98-24.13l-2.92-17.38Z"/>
                    </g>
                    <path class="cls-18" d="M153.59,198.76c13.46-.16,26.9-2.54,39.49-6.88-.04-9-1.96-17.94-5.49-26.2-1.44-.83-2.96-1.47-4.57-1.96-.51-.15-1.02-.29-1.54-.42,1.02,2.58-.66,5.62-3.1,6.7-5.14,2.13-10.64-2.12-13.04-6.53-4.84.75-9.69,2.59-13.08,6.24,2.56,9.51,2.97,19.19,1.32,29.05Z"/>
                    <path class="cls-8" d="M187.59,165.67c-1.44-.83-2.96-1.47-4.57-1.96-.51-.15-1.02-.29-1.54-.42,1.02,2.58-.66,5.62-3.1,6.7-5.14,2.13-10.64-2.12-13.04-6.53-4.84.75-9.69,2.59-13.08,6.24,2.56,9.51,2.97,19.19,1.32,29.05,13.46-.16,26.9-2.54,39.49-6.88"/>
                    <g>
                      <path class="cls-18" d="M134.1,253.16c4.47,10.31,11.05,10,18.98,11.73,2.59.91,4.91,2.69,7.43,3.84,16.62,5.92,36-5.37,50.62-14.57.58-.41.83-1.28.59-2.05-4.47-14.34-8.63-28.92-12.44-43.41-2.37-9.01-4.63-18.03-6.79-27.09-.47-2.4-1.66-5.57-4.03-5.25-7.12-.21-14.26.6-21.29,2.15-2.93.07-5.52,6.53-7.27,9.61-2.39,4.14-5.7,3.4-6.26,9.45-3.74,19.7-12.66,37.32-19.53,55.59Z"/>
                      <path class="cls-28" d="M209.85,249.23c.43,1.74.82,3.64.62,5.39.22-.15.44-.3.66-.46.58-.41.83-1.28.59-2.05-4.51-14.47-8.63-28.92-12.44-43.41,2.2,13.84,7.24,26.95,10.57,40.53Z"/>
                      <path class="cls-28" d="M134.1,253.16c2.27,5.04,5.59,8.4,9.42,9.75,3.11,1.09,6.45.88,9.56,1.98,2.59.91,4.91,2.69,7.43,3.84,4.84,2.19,10.18,1.97,15.29,1.1,1.09-.19,2.18-.4,3.27-.64-3.66-.66-7.22-2.04-10.48-4.16-5.27-3.45-9.68-8.92-12.12-15.56-2.89-7.88-2.88-16.86-2.29-25.46.84-12.16,2.76-24.21,5.71-35.87-.57.95-1.21,1.81-1.98,2.51-.97.87-2.13,1.46-2.91,2.57-.84,1.2-1.1,2.83-1.37,4.37-2.1,11.92-6.52,23.01-10.9,33.97-2.88,7.21-5.76,14.41-8.63,21.62Z"/>
                      <path class="cls-28" d="M197.02,227.2c2.53,10.59,4.2,21.49,4.98,32.48.1-.06.2-.11.3-.17,1.3-.73,2.6-1.46,3.9-2.22-3.76-9.67-6.48-19.91-9.18-30.1Z"/>
                      <g>
                        <path class="cls-42" d="M167.91,217.72c2.73,5.42,6.6,10.07,10.92,13.64,3.38,2.74,7.16,4.95,11.1,6.17-4.31-1.99-8.44-4.69-12.15-8.02-3.7-3.34-7.04-7.35-9.87-11.78h0Z"/>
                        <path class="cls-42" d="M193.36,244.09c-4.85,1.96-9.94,3.23-15.03,3.68-5.09.44-10.28.07-15.31-1.02,4.32,1.5,8.92,2.06,13.41,1.91,5.77-.25,11.64-1.71,16.92-4.58h0Z"/>
                      </g>
                      <path class="cls-8" d="M153.63,197.57c-3.74,19.7-12.66,37.32-19.53,55.59,4.47,10.31,11.05,10,18.98,11.73,2.59.91,4.91,2.69,7.43,3.84,16.62,5.92,36-5.37,50.62-14.57.58-.41.83-1.28.59-2.05-4.47-14.34-8.63-28.92-12.44-43.41-2.37-9.01-6.98-16.66-9.14-25.72"/>
                    </g>
                    <g>
                      <path class="cls-28" d="M147.82,195.19c1.25.46,2.53.82,3.73,1.11,1.28.34,2.88.6,3.75-.39,3.2-6.34,8.45-15.47,5.71-22.49.86,4.77-.14,9.86-2.79,13.93-2.42,3.71-6.17,6.52-10.39,7.85Z"/>
                      <g>
                        <path class="cls-42" d="M183.28,166.18c-1.58,5.38-7.7,6.91-12.38,4.54-1.52-.74-2.88-1.8-4.08-3.05,1.98,2.87,5.4,4.9,8.95,4.77,3.59-.07,7.05-2.58,7.51-6.26h0Z"/>
                        <path class="cls-42" d="M159.1,169.84c-.66-1.38-2.54-2.09-3.94-1.48,1.41.33,2.67.79,3.94,1.48h0Z"/>
                      </g>
                    </g>
                  </g>
                  <path class="cls-18" d="M145.96,177.39s-1.25,11.46,4.22,19.91c5.47,8.45,10.17,14.22,16.01,13.27,5.83-.95,7.2-9.81,5.06-13.5s-12.73-19.34-13.8-19.64l-2.94-6.22s-3.54.53-3.7.51-2.98,2.71-2.98,2.71c0,0-1.09.83-1.86,2.96Z"/>
                  <path class="cls-8" d="M145.96,177.39s-1.25,11.46,4.22,19.91c5.47,8.45,10.17,14.22,16.01,13.27,5.83-.95,7.2-9.81,5.06-13.5s-12.73-19.34-13.8-19.64"/>
                  <path class="cls-37" d="M181.86,187.59s1.92-2.31,6.48-1.63,6.59,5.58,6.59,5.58l-3.16,3.1-4.18,1.57-2.92-.85s-3.51-2.47-3.45-2.78.64-5,.64-5Z"/>
                  <path class="cls-17" d="M184.13,188.21s2.2.95,5.12,1.6c2.92.65,4.74.42,4.74.42l1.01,1.74-2.97,1.01s-4.62.3-5.11.15-3.15-.19-3.63-.55-2.07-2.77-2.07-2.77l2.91-1.6Z"/>
                  <path class="cls-8" d="M181.86,187.59s1.92-2.31,6.48-1.63,6.59,5.58,6.59,5.58l-3.16,3.1-4.18,1.57-2.92-.85s-3.51-2.47-3.45-2.78.64-5,.64-5Z"/>
                  <path class="cls-18" d="M203.11,194.2s-6.61-2.8-9.24-2.74c-2.63.06-21.78-.7-21.78-.7,0,0-.42,6.44-6.35,9.07,0,0,23.37,9.54,31.68,7.14,8.31-2.4,5.84-12.45,5.68-12.76Z"/>
                  <path class="cls-8" d="M203.11,194.2s-6.61-2.8-9.24-2.74c-2.63.06-21.78-.7-21.78-.7,0,0-.42,6.44-6.35,9.07,0,0,23.37,9.54,31.68,7.14,8.31-2.4,5.84-12.45,5.68-12.76Z"/>
                  <path class="cls-18" d="M163.81,194.8c.11-.07,15.35-7.8,15.35-7.8,0,0,4.07.22,6.2,2.97,2.13,2.75,2.67,6.86,2.67,6.86,0,0-12.38,13.62-21.84,13.74-9.46.12-11.9-10.05-2.38-15.77Z"/>
                  <path class="cls-8" d="M163.81,194.8c.11-.07,15.35-7.8,15.35-7.8,0,0,4.07.22,6.2,2.97,2.13,2.75,2.67,6.86,2.67,6.86,0,0-12.38,13.62-21.84,13.74"/>
                  <g>
                    <path class="cls-21" d="M158.14,189.91c.06-.03.11-.07.17-.1,0,0-.22.39-.39,1.04-.14.49-.25,1.13-.22,1.87.06,1.7,1.23,1.77,2.24.85,0,0,.15,1.79,1.05,1.85.9.06,1.15-.49,1.15-.49,0,0,.73,1.31,2.06.31,1.33-1,2.49-2.93,4.6-3.1l5.58-2.79-3.28-2.29s-.52-.27-1.36-.65c-2.01-.9-5.86-2.37-8.77-2.01-3.21.4-4.97,3.03-5.53,4.62-.16.45-.22.82-.19,1.03.13.9,1.75.54,2.88-.14Z"/>
                    <path class="cls-17" d="M157.7,192.71c.06,1.7,1.23,1.77,2.24.85,0,0,.15,1.79,1.05,1.85.9.06,1.15-.49,1.15-.49,0,0,.73,1.31,2.06.31,1.33-1,2.49-2.93,4.6-3.1l5.58-2.79-3.28-2.29s-.52-.27-1.36-.65l-.48.14s.52,2.19-1.08,3.81c-1.61,1.61-3.48,2.6-4.26,3.47-.78.87-1.41.09-1.41.09,0,0,1.12-2.5,2.62-3.59,0,0-1.32.1-2.51,1.49-1.19,1.38-1.4,2.36-1.73,2.5s-.9-.78-.9-.78c0,0,.21-3.09,2.93-5.08,0,0-1.18.14-2.06,1.27-.89,1.13-1.43,2.74-1.93,3.08-.49.34-.89-.02-.95-.02-.03,0-.23-.88-.08-1.93-.14.49-.25,1.13-.22,1.87Z"/>
                    <path class="cls-17" d="M158.14,189.91c.14-.39.35-.77.64-1.11,1.34-1.57,1.98-1.98,2.03-2,.04-.02-1.38.19-2.36,1.21-.98,1.02-1.1,1.38-1.65,1.46-.39.05-1.01-.25-1.35-.44-.16.45-.22.82-.19,1.03.13.9,1.75.54,2.88-.14Z"/>
                    <path class="cls-9" d="M171.1,187.05s-6.01-3.17-10.13-2.65-5.85,4.7-5.72,5.65,1.92.5,3.05-.24c0,0-.67,1.21-.61,2.9s1.23,1.78,2.24.85c0,0,.15,1.8,1.04,1.85.9.06,1.15-.49,1.15-.49,0,0,.73,1.31,2.06.31s2.49-2.93,4.6-3.1l5.58-2.79-3.28-2.29Z"/>
                    <path class="cls-9" d="M158.31,189.8s.75-2.37,2.9-3.19"/>
                    <path class="cls-9" d="M159.94,193.55s.54-3.79,3.39-5.35"/>
                    <path class="cls-9" d="M162.13,194.92s.99-3.26,3.14-4.69"/>
                  </g>
                  <g>
                    <path class="cls-28" d="M186.11,170.6s-.34,1.73-1.79,5.45c-1.45,3.72-3.52,7.96-16.95,2.16-13.42-5.8-20.56-.69-20.56-.69,1.78-5.08,9.83-5.45,17.51-3.43,3.24.85,5.13,1.52,11.12,3.86,7.63,2.99,8.09-6.68,10.3-9.11.02.67.36,1.76.36,1.76Z"/>
                    <g>
                      <g>
                        <path class="cls-44" d="M189.76,156.83h0c-.25.12-.5.24-.75.36,0,0,0,0,0,0-3.64,1.71-7.67,2.87-11.82,3.21-21.8,1.83-29.72-7.31-30.77-9.26-1.83.95-3.55,1.46-5.16,1.6-10.3.95-15.45-12.81-9.36-17.35.59-.44,1.28-.79,2.08-1.03-2.8-33.35,14.84-43.86,30.7-45.19,1.75-.15,4.52-.12,7.77.32.12.02.24.03.36.05,11.49,1.64,28.65,8.36,28.5,30.06-.06,7.71,2.4,8.98,3.32,17.23.82,7.32-5.67,15.41-14.86,19.99Z"/>
                        <path class="cls-17" d="M189.76,156.83h0c-.25.12-.5.24-.75.36,12.86-8.66,15.6-17.76,12.81-25.66-2.79-7.9-1.9-10.79-2.42-16.97-1.63-19.44-27.05-24.78-27.05-24.78,0,0,.16-.08.46-.23,11.49,1.64,28.65,8.36,28.5,30.06-.06,7.71,2.4,8.98,3.32,17.23.82,7.32-5.67,15.41-14.86,19.99Z"/>
                        <path class="cls-17" d="M189.75,156.83c-3.83,1.91-8.14,3.21-12.58,3.58-21.8,1.83-29.72-7.31-30.77-9.26-1.83.95-3.55,1.46-5.16,1.6-2.96-2.48-5.2-4.74-6.31-6.34-1.54-2.2-2.65-6.14-3.05-11.01.59-.44,1.28-.79,2.08-1.03-2.8-33.35,14.84-43.86,30.7-45.19,1.75-.15,4.52-.12,7.77.32-.06.18-.1.28-.1.28,0,0-7.77,1.51-14.98,8.01-7.2,6.49-15.37,20.74-8.94,43.84,6.24,22.39,40.93,15.3,41.33,15.2Z"/>
                        <path class="cls-5" d="M145.76,111.18s29.51-27.53,50.8-8.22c0,0-8.76-13.5-23.56-13.19-20.44.43-27.24,21.41-27.24,21.41Z"/>
                        <path class="cls-6" d="M145.76,111.18s29.51-27.53,50.8-8.22c0,0-8.76-13.5-23.56-13.19-20.44.43-27.24,21.41-27.24,21.41Z"/>
                        <path class="cls-10" d="M204.62,136.84c1.16,10.37-12.36,22.3-27.44,23.56-21.8,1.83-29.72-7.31-30.77-9.26-14.71,7.65-22.85-13.6-12.44-16.78-2.8-33.35,14.84-43.85,30.71-45.19,7.91-.66,36.83,2.29,36.63,30.43-.06,7.71,2.4,8.98,3.32,17.23Z"/>
                      </g>
                      <g>
                        <path class="cls-1" d="M203.79,114.39c-1.57,9.35.36,17.29.36,17.29,0,0,3.15,10.52-4.57,17.82,3.53-3.92,5.51-8.42,5.03-12.65-.92-8.25-3.38-9.53-3.32-17.23.03-3.67-.44-6.91-1.3-9.77,0,0,0,0,0-.01-3.84-12.84-15.43-18.01-24.68-19.84h-.02s-.08-.02-.12-.03c-.06-.01-.12-.02-.18-.04-6.64-1.17-27.86,3.9-31.21,30.97-.88,7.14-.68,13.13.43,18.22,1.7,7.77,5.52,13.4,10.82,17.71.74.6,1.5,1.17,2.29,1.72h0c2.58.87,5.68,1.57,9.38,1.9,0,0,0,0,0,0,3.06.27,6.53.3,10.45-.03.73-.06,1.45-.15,2.17-.26.14-.02.29-.04.43-.07,2.67-.44,5.27-1.21,7.72-2.22-1.4.73-2.65,1.25-4.93,2.45-.74.39-.25.7.64,1.17.62.32,1.44.72,2.18,1.28,1.35,1.02.64,1.93.07,2.37-1.13.89,3.47-.02.07,3.73-2.21,2.43-2.67,12.1-10.3,9.11-5.99-2.35-7.89-3.01-11.12-3.86-5.13-1.35-9.3-1.74-12.87-.4-1.78.67-4.04,2.14-4.63,3.83.19-.61,2.03-7.65,5.27-8.7,0,0-1.52-1.97.65-3.29,1.61-.98,4.14-.9,4.14-.9,0,0-5.83-1.18-11.92-3.62-12.18-4.87-29.01-17.36-27.58-53.59,1.09-27.53,24.03-35.82,30.79-37.94,6.76-2.12,28.33-2.64,41.7,8.23,9.09,7.39,11.22,18.12,11.22,18.12l.08.96s4.41,8.23,2.84,17.58Z"/>
                        <path class="cls-2" d="M204.48,109.27c.03,2.99-.37,5.95-.76,8.89-.34,2.91-.46,5.83-.16,8.76.17,1.91.37,3.83.36,5.75,0,0-.01,0-.02.02-1.71-6.91-3.69-8.41-2.51-18.52,1.59-13.61-5.08-22.52-5.08-22.52.06-.1.12-.19.18-.28.02,0,.03.02.05.03.53.44,1.09.93,1.62,1.46,4.41,4.37,6.32,10.31,6.31,16.43Z"/>
                        <path class="cls-2" d="M199.99,109.82c-3.84-12.84-15.43-18.01-24.68-19.84h-.02s-.08-.02-.12-.03c-.06-.01-.12-.02-.18-.04-6.64-1.17-27.86,3.9-31.21,30.97-.88,7.14-.68,13.13.43,18.22,0,0-6.6-6.83-4.87-22.84,1.27-11.76,6.12-29.35,28.64-30.02,6.4-.19,26.1.67,32.01,23.57Z"/>
                        <path class="cls-2" d="M195.96,85.36c-2.16-2.12-5.41-3.42-8.96-3.93-.25-.04-.46.29-.24.37h.02c1.04.39,2.1.82,3.06,1.32,5.5,2.69,8.75,7.33,10.05,12.82.09.39.86.13.84-.28-.09-2.55-.83-6.42-4.77-10.29Z"/>
                        <path class="cls-2" d="M185.31,164.61c-1.23.81-3.51,2.33-4.77,6.71-.24.83.2-.2.68-1.01,1.14-1.95,3.26-4.44,4.59-4.1,0,0-.03-1.91-.5-1.6Z"/>
                        <path class="cls-2" d="M183.2,161.48c-.44.14-.69.21-.69.21-2.27-1.26-10.36,1.89-19.32.41-8.01-1.33-19.07-5.34-24.26-22.16-1.83-5.91-1.61-6.38-1.35-6.4.66-.06,2.63,6.78,6.8,13.24,3.24,5.02,8.49,9.18,12.18,11.1,3.35,1.74,5.69,1.99,10.15,2.56,0,0,0,0,0,0,3.77.49,7.96.45,12.62-.28.14-.02.29-.05.43-.07,2.67-.44,5.27-1.21,7.72-2.22-1.4.73-2.65,1.25-4.93,2.45-.74.39-.25.7.64,1.17Z"/>
                        <path class="cls-2" d="M162.67,173.55c-.05-.58,7.95.73,12.23,2.67,4.1,1.87,7.31-1.26,8.8-4.91,0,0-.78,3.56-2.33,5.62-1.54,2.04-4.79,1.52-9.51-.58-3.55-1.58-9.19-2.8-9.19-2.8Z"/>
                        <path class="cls-2" d="M162.23,170.15c.33.14.16.65-.19.55-4.32-1.2-10.11-2.66-12.93,2.81-.86,1.68-1.89,2.47-2.51,4.05,0,0,0-.02,0-.02.19-.61,2.03-7.65,5.27-8.7,0,0-1.52-1.97.65-3.29,1.61-.98,4.14-.9,4.14-.9,0,0-2.9.58-3.85,1.69-.43.5-.03,1.74,1.07,1.76,2.17.04,4.6.43,8.35,2.05Z"/>
                        <path class="cls-2" d="M166.34,167.63c1.35,1.03,1.29,1.75.83,1.46-3.67-2.31-7.13-3.75-10.44-3.93-.39-.68-10.28-1.94-19.67-8.08-7.92-5.18-15.33-14.06-17.9-26.6,0,0,8.52,23.2,31.1,29.01,2.14.55,6.04,1.35,8.69,2.31.41.15,1.18.44,1.55.68.19.13.04.42-.17.35-1.34-.47-3.49-1.01-5.52-.6-.85.17-.61.87,1.05,1.25,3.29.75,5.75.55,10.47,4.15Z"/>
                        <path class="cls-10" d="M203.79,114.39c-1.57,9.35.36,17.29.36,17.29,0,0,3.15,10.52-4.57,17.82,3.53-3.92,5.51-8.42,5.03-12.65-.92-8.25-3.38-9.53-3.32-17.23.14-20.16-14.66-27.39-25.98-29.63h-.02s-.08-.02-.12-.03c-.06-.01-.12-.02-.18-.04-6.64-1.17-27.86,3.9-31.21,30.97-2.42,19.55,3.32,30.56,13.54,37.65h0c4.72,1.6,11.19,2.6,19.84,1.87,3.59-.3,7.08-1.21,10.32-2.55-1.4.73-2.65,1.25-4.93,2.45-1.26.66,1.02,1.08,2.83,2.45,1.35,1.02.64,1.93.07,2.37-1.13.89,3.47-.02.07,3.73-2.21,2.43-2.67,12.1-10.3,9.11-5.99-2.35-7.89-3.01-11.12-3.86-7.69-2.02-15.75-1.65-17.52,3.45.13-.42,1.98-7.66,5.28-8.73,0,0-1.52-1.97.65-3.29,1.61-.98,4.14-.9,4.14-.9,0,0-5.83-1.18-11.92-3.62-12.18-4.87-29.01-17.36-27.58-53.59,1.09-27.53,24.03-35.82,30.79-37.94,6.76-2.12,28.33-2.64,41.7,8.23,9.09,7.39,11.22,18.12,11.22,18.12l.08.96s4.41,8.23,2.84,17.58Z"/>
                        <path class="cls-2" d="M204.48,109.27c.03,2.99-.37,5.95-.76,8.89-.34,2.91-.46,5.83-.16,8.76.17,1.91.37,3.83.36,5.75,0,.05,0,.11,0,.16,0-.05-.01-.1-.02-.15-.12-.93-.25-1.86-.4-2.78-.41-2.32-1.15-4.88-1.17-7.23-.08-2.47-.06-4.97.21-7.42.74-6.66.88-14.02-3.04-19.7-.95-1.39-2.01-2.71-3.19-3.91-.14-.14.02-.35.18-.28.02,0,.03.02.05.03.53.44,1.09.93,1.62,1.46,4.41,4.37,6.32,10.31,6.31,16.43Z"/>
                        <path class="cls-2" d="M121.39,110.62c.67-5.92,3.26-11.66,6.86-16.41.25-.33.77-.02.59.36v.03c-.87,1.79-1.71,3.68-2.38,5.55-3.98,10.54-3.76,21.87-.62,32.53.22.76-.86,1.16-1.2.45-2.04-4.39-4.46-11.7-3.25-22.49Z"/>
                        <path class="cls-2" d="M165.93,165.48c-.26-.12-.12-.51.16-.44,3.52.9,5.98,1.98,9.29,3.58,3,1.45,2.72-4.65,6.87-4.83.23-.01.34.29.15.42-.51.35-1.24.99-1.93,2.07-.74,1.14-1.17,2.87-1.99,5.05-.9,2.39-3.62-1.28-7.82-3.53-1.61-.86-3.39-1.71-4.73-2.33Z"/>
                        <path class="cls-2" d="M153.74,73.31c5.2-1.78,10.83-1.55,15.88.5,1.81.73,3.88,1.71,5.84,2.89.39.23.09.82-.32.65-1.84-.76-3.83-1.52-5.75-2.09-5.35-1.59-12.47-1.57-17.97.9-4.05,1.94-7.45,5-10.4,8.43-.39.46-1.1-.07-.77-.58,2.37-3.61,6.62-8.35,13.49-10.71Z"/>
                        <path class="cls-2" d="M146.38,158.27s-4.35-1.92-7.47-6.38c-6.15-8.81-12.41-25.99-5.35-47.05.17-.52-.1-1.08-.61-1.26h0c-.5-.17-1.04.06-1.25.55-1.95,4.53-10.75,26.88,3.58,48.9,0,0,5.72,6.69,11.1,5.24Z"/>
                      </g>
                    </g>
                    <g>
                      <g>
                        <path class="cls-16" d="M188.62,147.35c-.68.83-1.33,1.56-1.99,2.19-1.82,1.72-3.72,2.63-6.49,2.58-1.4-.03-2.76-.36-4.03-.98-1.43-.7-2.67-1.79-3.64-2.92-.39-.45-.74-.92-1.04-1.36-.02-.03-2.4-3.56-1.64-4.58.32-.42.68-.35.86-.31.6.14,1.32.35,2.33.62.6.16,1.28.34,1.99.49,3.06.66,6.01,1.01,9.01,1.06,1.33.02,2.73,0,4.27-.09.37-.02.66-.03.9-.03.36,0,.95-.01,1.13.37.18.37-.31,1.33-1.65,2.96Z"/>
                        <path class="cls-31" d="M186.64,149.45s0,.03,0,.09c-1.82,1.72-3.72,2.63-6.49,2.58-1.4-.03-2.76-.36-4.03-.98-1.43-.7-2.67-1.79-3.64-2.92,1.15-1.11,4.62-1.58,6.05-1.27,2.05.43,8.44,2.21,8.12,2.51Z"/>
                      </g>
                      <g>
                        <path class="cls-42" d="M185.57,107.7c-1.79-1.2,2.81-5,6.81-3.94,4,1.06,4.36,4.09,4.32,4.4-.04.3-2.39-2.07-4.94-1.97-5.18.2-4.54,2.63-6.2,1.52Z"/>
                        <path class="cls-42" d="M169.42,109.87c.31-1.84-4.33-3-9.69-.75-4.54,1.9-5.87,7.06-5.7,7.32s2.92-3.57,6.36-4.68c5.16-1.66,8.68.11,9.03-1.89Z"/>
                        <path class="cls-34" d="M192.65,113.92c8.43-1.29,9.24,15.99,3.46,18.27-5.88,2.32-8.68-2.95-8.78-7.48-.13-5.69,1.8-10.25,5.32-10.79Z"/>
                        <g>
                          <path class="cls-42" d="M195.95,115.35c1.08.56,1.73,1.72,2.3,2.85.43.86.77,2.01,1.01,3.02.05.21.64.25.68-.71.05-1.21.09-2.07-.28-3.11-.53-1.54-1.49-3.07-2.81-3.87-5.69-3.46-9.73,5.24-9.69,9.17,0,.15.26.23.32-.03.57-2.51,3.22-10.05,8.48-7.32Z"/>
                          <path class="cls-42" d="M198.32,116.25c.84.5,2.31-.32,2.8-1.26-.91.36-1.89.98-2.75.25-.15-.13-.39.68-.55.75l.5.27Z"/>
                          <path class="cls-42" d="M199.03,117.07c.65.83,2.34.59,2.88-.72-1.6.87-2.41.27-2.82-.16-.14-.15-.28.44-.44.42l.39.46Z"/>
                        </g>
                        <path class="cls-14" d="M186.11,134.38s-.12,3.12-2.35,3.25c-.41.02-.57-.41-1.04-.46s-1.02.14-1.1.83c-.14,1.14,2.4,1.99,4.44,0,1.41-1.37.59-3.04.06-3.62Z"/>
                        <path class="cls-42" d="M188.01,135.03c.55,1.82-1.15,3.64-3.3,4.13-.14.03-.29.06-.44.08-.34.05-.52-.33-.22-.46,1.41-.59,2.35-1.7,2.44-3,.13-1.17-.74-2.05-2.02-2.64-.83-.39-1.71-.54-2.67-.6-.29-.02-.35-.34-.08-.41h.02c1.59-.36,5.38-.03,6.26,2.89Z"/>
                        <g>
                          <path class="cls-34" d="M162.94,117.98c9.97-4.23,14.44,13.06,7.67,17.44-5.5,3.56-10.73-.4-11.89-4.8-1.45-5.53-.09-10.82,4.22-12.64Z"/>
                          <path class="cls-42" d="M161.65,119.58c-1.31,1.09-1.96,2.72-2.52,4.33-.44,1.27-.68,2.87-.83,4.28-.03.3-.47.32-.52.02-.24-1.44-.5-3.74-.48-5.26.03-2.08.68-4.11,2.29-5.54,5.95-5.28,12.69,2.1,13.63,5.91.04.15-.19.34-.31.11-1.18-2.22-5.67-8.52-11.27-3.86Z"/>
                          <g>
                            <ellipse class="cls-42" cx="191.11" cy="124.24" rx="4.13" ry="7.06" transform="translate(-7.32 12.06) rotate(-3.55)"/>
                            <ellipse class="cls-19" cx="192.98" cy="120.27" rx=".78" ry="1.21" transform="translate(-7.07 12.17) rotate(-3.55)"/>
                          </g>
                          <path class="cls-42" d="M157.9,123.29c-.82,1.24-3.38,1.72-4.68,1.19,1.55-.45,3.49-1.36,4.19-2.83.13-.26.72,1.03.97.95l-.49.69Z"/>
                          <path class="cls-42" d="M157.78,124.76c-.45,1.42-3.07,2.67-4.66,1.73,2.93-.49,3.75-1.81,4.1-2.6.12-.26.63.23.84.08l-.28.79Z"/>
                        </g>
                        <g>
                          <ellipse class="cls-42" cx="162.72" cy="127.6" rx="4.92" ry="7.71" transform="translate(-7.58 10.31) rotate(-3.55)"/>
                          <ellipse class="cls-19" cx="164.97" cy="123.24" rx=".92" ry="1.32" transform="translate(-7.31 10.44) rotate(-3.55)"/>
                        </g>
                      </g>
                    </g>
                  </g>
                </g>
                <line class="cls-8" x1="161.85" y1="178.65" x2="161.85" y2="182.98"/>
              </g>
              <g>
                <path class="cls-48" d="M74.95,148.12s-1.56,2.01-3.8,4.86c-.06.08-.12.15-.18.23-2.29,2.92-5.24,6.67-7.93,10.03-1.18,1.47-2.3,2.86-3.3,4.08-.81.99-1.65,1.8-2.5,2.45-4.94,3.83-9.93,2.35-9.93,2.35,0,0-1.81-1.59-2.91-4.47-.67-1.76-1.08-4.01-.65-6.68,1.13-7.03,9.86-20.61,14.38-26.51,4.53-5.9,9.25-8.94,9.28-8.94,1.44.04,4.54.45,8.58,7.24,4.04,6.79-1.05,15.36-1.05,15.36Z"/>
                <path class="cls-47" d="M65.01,139.74c-.48.36-5.72,6.93-5.72,6.93l2.76,2.8,1.43-1.32,1.54-8.41Z"/>
                <path class="cls-7" d="M67.42,125.53s-4.76,3.03-9.28,8.93c-4.53,5.9-13.25,19.48-14.39,26.51-1.13,7.03,3.56,11.15,3.56,11.15,0,0,6.84,2.02,12.43-4.81,5.59-6.83,15.21-19.2,15.21-19.2,0,0,5.09-8.57,1.05-15.36-4.04-6.79-7.14-7.2-8.58-7.24Z"/>
                <polygon class="cls-45" points="63.93 270.3 65.91 279.13 70.94 282.04 77.42 280.98 78.75 276.24 76.5 270.78 63.93 270.3"/>
                <g>
                  <g>
                    <path class="cls-27" d="M45.7,284.98c-3.55,1.1-3.92,5.22.87,9.86,5.18,4.74,12.76,5.35,19.17,2.89,1.88-.91,3.45-2.18,5.15-3.4,2-1.45,5.47-2.68,7.02-3.16,2.44-.91,2.62-5.44.56-7.03-5.72,7.16-17.17,11.16-25.91,7.84-3.18-.95-6.16-3.95-6.85-7Z"/>
                    <path class="cls-4" d="M45.7,284.98c-3.55,1.1-3.92,5.22.87,9.86,5.18,4.74,12.76,5.35,19.17,2.89,1.88-.91,3.51-2.18,5.21-3.4,2-1.45,5.85-1.81,6.95-3.16,2.44-.91,2.62-5.44.56-7.03-5.72,7.16-17.17,11.16-25.91,7.84-3.18-.95-6.16-3.95-6.85-7Z"/>
                  </g>
                  <path class="cls-13" d="M52.98,282.05c-3.46,3.49,2.81,7.32,6.13,6.77,4.04-1.64,14.24-10.79,11.35-13.6-1.1-1.15-2.8-2.14-4.47-2.67-2.44-.42-2.93-.1-3.67,1.54-2.37,4.06-6.48,5.91-9.34,7.96Z"/>
                  <path class="cls-4" d="M52.98,282.05c-3.46,3.49,2.81,7.32,6.13,6.77,4.04-1.64,14.24-10.79,11.35-13.6-1.1-1.15-2.8-2.14-4.47-2.67-2.44-.42-2.93-.1-3.67,1.54-2.37,4.06-6.48,5.91-9.34,7.96Z"/>
                  <path class="cls-40" d="M64.14,294.96c-.64.25-1.29.45-1.93.6,0,0-.02,0-.03,0-9.84,2.28-20.02-6.32-16.64-10.55.15-.19.32-.37.49-.54,1.92-1.94,4.98-2.68,9.01-2.89-2.05.16-2.49,2.87-1.21,4.22,1.53,1.69,3.95,2.22,6.2,1.94.63-.08,1.24-.22,1.82-.41,1.44,1.36,2.25,3.36,2.41,5.34.06.78.02,1.56-.12,2.3Z"/>
                  <path class="cls-4" d="M64.14,294.96c-.64.25-1.29.45-1.93.6,0,0-.02,0-.03,0-9.84,2.28-20.02-6.32-16.64-10.55.15-.19.32-.37.49-.54,1.92-1.94,4.98-2.68,9.01-2.89-2.05.16-2.49,2.87-1.21,4.22,1.53,1.69,3.95,2.22,6.2,1.94.63-.08,1.24-.22,1.82-.41,1.44,1.36,2.25,3.36,2.41,5.34.06.78.02,1.56-.12,2.3Z"/>
                  <path class="cls-40" d="M76.89,287.6c-5.52,2.63-9.01,5.87-12.75,7.36-.63.25-1.28.46-1.93.6,0,0-.02,0-.03,0-.14.03-.28.06-.42.08.2-.87.28-1.66.25-2.39-.06-1.72-.68-3.17-1.65-4.9-.11-.2-.23-.4-.34-.62-.21-.42-.36-.85-.28-1.3.14-.72.84-1.18,1.46-1.58,2.63-1.7,4.96-3.86,6.85-6.36.14-.19.25-.4.34-.62.19-.49.42-.69.93-.76,1.39.13,2.25.94,3.43,1.17,2.98.51,4.81-2.88,4.25-5.51,1.94,1.1,2.7,5.29,2.55,8.93-.03.73-.1,1.44-.2,2.1-.26,1.68-.41,2.8-2.48,3.78Z"/>
                  <path class="cls-26" d="M76.89,287.6c-5.52,2.63-9.01,5.87-12.75,7.36-.63.25-1.28.46-1.93.6,0,0-.02,0-.03,0-9.84,2.28-20.02-6.32-16.64-10.55.15-.19.32-.37.49-.54-.41,1.23-.21,2.7.44,3.85.95,1.67,2.65,2.77,4.4,3.56,3.47,1.56,7.42,2.09,11.15,1.38.64-.12,1.28-.28,1.91-.48.12-.04.23-.07.34-.11,2.6-.88,4.95-2.35,7.28-3.82,2.03-1.28,4.08-2.57,5.78-4.25.87-.86,1.64-1.83,2.24-2.89-.03.73-.1,1.44-.2,2.1-.26,1.68-.41,2.8-2.48,3.78Z"/>
                  <path class="cls-4" d="M76.89,287.6c-5.99,2.14-9.39,5.47-12.75,7.36-.6.34-1.28.46-1.93.6,0,0-.02,0-.03,0-.14.03-.28.06-.42.08.2-.87.28-1.66.25-2.39-.06-1.72-.68-3.17-1.65-4.9-.11-.2-.23-.4-.34-.62-.21-.42-.36-.85-.28-1.3.14-.72.84-1.18,1.46-1.58,2.63-1.7,4.96-3.86,6.85-6.36.14-.19.25-.4.34-.62.19-.49.42-.69.93-.76,1.39.13,2.25.94,3.43,1.17,2.98.51,4.81-2.88,4.25-5.51,1.94,1.1,2.7,5.29,2.55,8.93-.03.73-.1,1.44-.2,2.1-.26,1.68-.32,3.01-2.48,3.78Z"/>
                  <path class="cls-40" d="M51.03,282.05c3.67-1.48,6.93-3.86,9.26-6.78.27-.34.67-.51,1.1-.57,1.03-.16,2.58.13,2.17.76-2.82,2.65-4.86,4.83-7.94,6.83-1.41.91-2.53-.4-4.59-.24Z"/>
                  <path class="cls-4" d="M51.03,282.05c3.67-1.48,6.93-3.86,9.26-6.78.27-.34.67-.51,1.1-.57,1.03-.16,2.58.13,2.17.76-2.82,2.65-4.86,4.83-7.94,6.83-1.41.91-2.53-.4-4.59-.24Z"/>
                  <g>
                    <path class="cls-42" d="M51.7,283.82c-.02,1.58.85,2.95,2.08,3.84,1.27.9,2.81,1.24,4.33,1.57-.8.12-1.62.1-2.43-.05-.81-.15-1.61-.46-2.31-.95-1.35-.95-2.3-2.79-1.67-4.41h0Z"/>
                    <path class="cls-42" d="M61.66,286.99c1.75,1.63,2.59,4.33,2.07,6.66-.24-1-.56-2.42-.87-3.38-.34-1.12-.77-2.17-1.2-3.28h0Z"/>
                    <path class="cls-42" d="M63.93,287.95c1.24-1.11,2.47-2.18,3.64-3.35,1.02-1,2.4-2.54,3.37-3.61-1.33,3.02-3.98,5.65-7.01,6.96h0Z"/>
                    <path class="cls-42" d="M71.19,279.46c1.75.27,3.29.3,4.81-.71.48-.29.93-.65,1.42-1-1.18,2.42-3.99,3.27-6.23,1.7h0Z"/>
                    <path class="cls-42" d="M76.5,279.74c-.5,1.2-.94,2.36-1.23,3.61-.3,1.25-.42,2.49-.51,3.78-.9-2.49-.17-5.57,1.74-7.4h0Z"/>
                  </g>
                  <g>
                    <circle class="cls-42" cx="64.7" cy="284.51" r=".99"/>
                    <circle class="cls-42" cx="66.9" cy="282.74" r=".99"/>
                    <circle class="cls-42" cx="62.3" cy="286.15" r=".99"/>
                    <ellipse class="cls-42" cx="55.39" cy="281.11" rx=".93" ry=".95" transform="translate(-219.18 199.23) rotate(-62.25)"/>
                    <ellipse class="cls-42" cx="58.17" cy="279.13" rx=".93" ry=".95" transform="translate(-215.94 200.63) rotate(-62.25)"/>
                    <ellipse class="cls-42" cx="60.4" cy="277.09" rx=".93" ry=".95" transform="translate(-212.94 201.51) rotate(-62.25)"/>
                    <g>
                      <path class="cls-27" d="M63.08,286.37c-.07.16-.19.29-.36.38-.24.12-.51.11-.73,0-.14-.07-.26-.19-.34-.34-1.34-2.63-3.5-4.21-6.27-4.57-.44-.06-.74-.45-.69-.89,0-.02,0-.04.01-.05.08-.41.46-.69.88-.63,3.31.43,5.89,2.3,7.48,5.42.11.23.11.48.01.69Z"/>
                      <path class="cls-26" d="M63.08,286.37c-.07.16-.19.29-.36.38-.24.12-.51.11-.73,0-.14-.07-.26-.19-.34-.34-1.34-2.63-3.5-4.21-6.27-4.57-.44-.06-.74-.45-.69-.89,0-.02,0-.04.01-.05.01.02.03.04.04.06.19.28.51.43.83.5.32.07.66.07.99.1,1.13.1,2.2.59,3.09,1.29.89.7,1.59,1.62,2.11,2.63.12.23.23.46.41.66.17.19.42.33.68.31.08,0,.16-.03.23-.07Z"/>
                    </g>
                    <g>
                      <path class="cls-27" d="M65.44,284.77c-.11.22-.31.39-.58.44-.18.03-.36,0-.51-.08-.21-.11-.37-.31-.41-.56-.51-2.84-3.36-4.67-5.72-4.73-.44-.01-.78-.38-.77-.82,0-.07.01-.13.03-.2.1-.34.41-.58.78-.57,3.04.08,6.58,2.37,7.24,6.04.03.17,0,.34-.07.48Z"/>
                      <path class="cls-26" d="M65.44,284.77c-.11.22-.31.39-.58.44-.18.03-.36,0-.51-.08-.21-.11-.37-.31-.41-.56-.51-2.84-3.36-4.67-5.72-4.73-.44-.01-.78-.38-.77-.82,0-.07.01-.13.03-.2.08.2.26.35.46.42.24.09.51.1.77.12,2.53.23,4.86,2.01,5.73,4.4.08.23.16.47.3.67s.37.36.62.34c.03,0,.05,0,.08-.02Z"/>
                    </g>
                    <g>
                      <path class="cls-27" d="M67.1,283.41c-.19.04-.38.01-.54-.07-.2-.11-.36-.3-.41-.54-.57-2.65-2.48-4.29-5.86-5.02-.43-.09-.7-.52-.61-.95,0,0,0,0,0,0,.09-.42.52-.69.94-.6,3.99.87,6.37,2.97,7.08,6.24.03.14.02.28-.02.41-.08.26-.3.47-.59.53Z"/>
                      <path class="cls-26" d="M67.1,283.41c-.19.04-.38.01-.54-.07-.2-.11-.36-.3-.41-.54-.57-2.65-2.48-4.29-5.86-5.02-.43-.09-.7-.52-.61-.95,0,0,0,0,0,0,.15.22.37.39.61.5.45.2.95.23,1.42.33,1.08.22,2.08.78,2.89,1.54.8.76,1.41,1.71,1.84,2.73.1.24.19.48.35.69s.4.36.66.34c.08,0,.15-.03.22-.07-.08.26-.3.47-.59.53Z"/>
                    </g>
                  </g>
                </g>
                <g>
                  <path class="cls-42" d="M102.51,297.43c.15.41.51,1.06.86,1.29.15.36.11.19.32.38,2.36,2.09,5.59,2.45,8.62,2.53.86.02,1.72.07,2.59.05,2.38-.03,5.68-.29,7.88-1.25.08-.04.18,0,.15-.15.02,0,.04,0,.05,0,.57,0,1.48-.74,1.89-1.08.08-.06.08-.09.11-.11.45-.4.42-.43.75-.86,0,0,.08.02.1,0,.09-.15.34-.65.39-.8.51-1.47.55-3.72-.1-5.15-.11-.24-.29-.47-.39-.69-.24-.57-.37-1.46-.59-2.1-.74-2.2-1.74-4.36-2.4-6.55-.56-1.87-.81-3.55-1.18-5.45-.22-1.1-.94-2.95-1.81-3.65-.02-.02-.03-.04-.05-.05.02-.13-.05-.16-.11-.24-.3-.39-1.03-1.17-1.46-1.37-.06-.16-.08-.19-.27-.22-.14-.24-.77-.6-1.08-.65-.02,0-.04,0-.05,0,.03-.12-.26-.2-.34-.23-.63-.22-1.17-.3-1.81-.31-.32,0-.65,0-.97,0-1.07-.23-2.49.59-3.29,1.19-.37.28-.71.37-.97.86,0,.01,0,.04,0,.05-.12-.02-.16.04-.24.11-.31.25-1.42,1.7-1.48,2.05,0,.02,0,.04,0,.05-.14.01-.27.33-.33.45-.58,1.07-.77,2.31-.85,3.48,0,.04,0,.07,0,.11-.17-.03-.09.08-.11.18-.67,3.69-1.97,6.77-2.98,10.33-.18.62-.26,1.35-.44,1.93-.07.21-.26.44-.36.66-.64,1.46-.59,3.72-.04,5.21ZM103.07,295.48c.01.13.02.26.04.39.01.09.03.17.04.26-.02-.09-.03-.18-.04-.26-.02-.13-.03-.26-.04-.39Z"/>
                  <path class="cls-40" d="M117.69,277.08c.57-.3,1.78-.43,1.94-1.24.03-.17-.06-.58-.04-.61,0-.01.12.06.16.05,0,.11.07.18.11.27.92,1.89.92,3.45,1.37,5.44s1.15,3.86,1.86,5.76c.06.16.1.32.16.48.13.34.33.73.42,1.06.02.07.03.17-.07.12-.08-.04-.6-.58-.76-.7-.41-.31-1.15-.69-1.64-.84-.06-.02-.18-.06-.22,0,.68.59,1.4,1.15,2.05,1.78.35.34,1.16,1.12,1.33,1.52.16.35.19.74.34,1.09,0,.03,0,.07,0,.11l-.05.08c-.97-1.6-2.43-2.79-4.02-3.73-.59-.35-1.26-.63-1.83-.97-.52-.31-.68-.5-.72-1.14.1.03.27.02.38.05.45,1.05,1.94.7,1.77-.51-.05-.35-.52-.9-.91-.73-.29-.22-1.1-.55-1.45-.65l-.05-.92c.14.05.26.12.38.16-.02.14.05.18.14.27.93.92,2.2-.42,1.4-1.29-.28-.3-.4-.23-.73-.32-.43-.12-.94-.46-1.4-.59-.09-.24-.05-.5-.05-.75.01,0,.17.02.27.05.45,1.03,1.96.54,1.76-.61-.06-.38-.56-.83-.96-.69-.31-.21-.93-.48-1.29-.59.04-.5-.17-1.16.36-1.44ZM120.98,285.48c.37-1.74,0-4.83-.93-6.37-.04-.06-.05-.15-.14-.16l.97,6.68c.07.01.08-.1.09-.15Z"/>
                  <path class="cls-40" d="M109.57,279.06c-.16.04-.24-.02-.47.1-.41.21-.56.55-.5,1.01.11.86,1.54,1.08,1.78.19.11-.04.21-.03.27-.05l-.05.75c-.31.1-1.1.46-1.4.65-.42-.13-.98.37-1.02.78-.13,1.09,1.29,1.57,1.78.57.13-.04.31-.16.48-.22l-.11.97c-.52.15-1.05.46-1.56.59-.14.04-.23-.02-.43.08-1.07.52-.39,2.23.76,1.78.2-.08.46-.28.49-.51.18-.05.36-.11.54-.16-.07.6-.17.82-.66,1.14-.76.5-1.72.86-2.51,1.37-.45.29-.84.65-1.24.99-.01,0-.06.02-.11.05-.07.06-.1.1-.11.11-.16.14-.3.3-.43.43-.23.22-.44.3-.65.65-.05.09-.03.11-.05.16-.11-.02-.1.02-.11.11-.04,0-.11.02-.11-.03,0-.99.74-1.59,1.4-2.21.53-.49,1.14-.91,1.62-1.45-.35.01-.71.24-1.02.38l-1.24.84c.29-1.03.68-2.04,1-3.07.03-.1,0-.21.02-.27.03-.08.08-.17.11-.27.31-1.04.56-2.02.81-3.07.03-.15.12-.34.16-.54.27-1.23.4-2.6.72-3.78.18-.67.47-1.22.79-1.82.21-.04.05.26.06.4.06,1.19,1.78,1.02,2.18,1.6.23.32.11.81.14,1.18-.4.12-.91.49-1.29.59ZM107.2,285.68c.14.01.09,0,.11-.08.39-2.16.63-4.35.97-6.52l-.11-.08c-.99,2.1-1.29,4.38-.97,6.68Z"/>
                  <path class="cls-43" d="M110.1,275.93s.04-.11.09-.16c1.58-1.65,5.04-1.85,6.95-.7.23.14.91.84.98.85.05,0,.47-.14.51-.18.21-.21-.32-1.15-.46-1.37-1.81-2.75-5.75-2.89-7.86-.38-.23.28-1.01,1.43-.73,1.75.05.06.49.21.53.18Z"/>
                  <path class="cls-13" d="M111.83,278.25c1.28-.24,3.2-.24,4.47,0,.1-.65.02-1.16.52-1.66.08-.08.36-.2.34-.3-.28-.33-.72-.56-1.13-.7-1.29-.44-3.41-.43-4.6.31-.71.44-.34.4,0,.8.38.45.38,1,.4,1.56Z"/>
                  <path class="cls-27" d="M111.83,278.25c-.24.04-.75.15-.97.22-.4.12-.91.49-1.29.59-.29.25-.41.31-.48.7.62.15,1.14-.2,1.71-.36,2.29-.64,4.18-.44,6.42.17.64.17,1.23.53,1.94.41.03-.4-.23-.66-.54-.86s-.93-.48-1.29-.59c-.25-.08-.8-.23-1.02-.27-1.28-.24-3.19-.24-4.47,0Z"/>
                  <path class="cls-40" d="M110.48,272.86s0,.09-.05.11c.68-.14,1.3-.61,2.01-.82,1.43-.44,2.97-.24,4.32.4.27.13.67.46.92.53.09.03.11-.04.05-.11-.06-.07-.52-.42-.62-.48-.03-.02-.07-.03-.11-.05-.08-.05-.29-.2-.32-.22-.07-.04-.26-.13-.32-.16-1.56-.7-3.81-.53-5.24.39-.21.13-.38.39-.63.42Z"/>
                  <path class="cls-40" d="M119.56,275.12s-.03.04,0,.05v-.05Z"/>
                  <path class="cls-27" d="M103.05,294.03c0,.71-.02,1.4.11,2.1.13,0,.15-.04.23.07.42.54.71.98,1.28,1.41,3.53,2.66,10.63,2.6,14.82,1.9,1.95-.33,3.92-.89,5.4-2.25l.51-.59c.06-.23.12-.5.22-.7,0-.06,0-.15,0-.22,0-.4.08-.85.11-1.24,0-.07.01-.21,0-.27,0-.03-.15-.16-.11-.27l-.16.11c-.09.34-.32.6-.54.86-.12.15-.16.16-.27.27-1.37,1.31-4.19,2.15-6.07,2.31-1.09.09-1.24-.64-2.01-.88s-2.61-.15-3.42-.08c-1.24.11-1.44,1.13-2.7,1.08-1.96-.08-5.3-1.11-6.6-2.64l-.81-.97Z"/>
                  <path class="cls-33" d="M118.97,300.45c.55-.1,1.1-.17,1.64-.3,0,0,4.76-.96,4.79-3.48l-.51.59c-1.48,1.35-3.46,1.92-5.4,2.25-4.19.7-11.29.76-14.82-1.9-.57-.43-.86-.87-1.28-1.41-.08-.11-.11-.07-.23-.07.09.49.41,1.48.7,1.89,1.59,2.2,6.95,2.78,9.48,2.8.11,0,.22,0,.32,0,.58,0,1.25-.03,1.83-.05.07,0,.14,0,.22,0,.92-.05,2.03-.26,2.91-.22"/>
                  <path class="cls-19" d="M106.69,277.82s-.03.04,0,.05v-.05Z"/>
                  <path class="cls-27" d="M111.29,283.58c-.26.04-.72.14-.97.22-.52.15-1.05.46-1.56.59-.01.18-.24.18-.35.32-.07.09-.11.26-.14.38.08.06,0,.15.11.14.17-.01.39-.02.55-.04.43-.07,1.16-.43,1.66-.55,1.88-.47,3.98-.44,5.88-.06.81.16,1.82.61,2.56.68.26.02.47-.01.72-.05-.03-.37-.14-.53-.43-.75s-1.1-.55-1.45-.65c-.25-.07-.69-.11-.97-.16-1.84-.32-3.76-.37-5.6-.05Z"/>
                  <path class="cls-27" d="M111.56,280.83c-.23.04-.77.15-.97.22-.31.1-1.1.46-1.4.65s-.44.25-.54.59c.13-.04.11.12.2.15.33.11,1.41-.38,1.82-.48,2.43-.63,4.56-.42,6.94.23.33.09.89.37,1.27.41.25.03.43-.08.66.01.05-.42-.32-.63-.54-.92-.43-.12-.94-.46-1.4-.59-.32-.09-.79-.15-1.13-.22-1.59-.28-3.3-.34-4.9-.05Z"/>
                  <path class="cls-50" d="M119.75,285.2c-.25.03-.46.07-.72.05-.73-.07-1.75-.52-2.56-.68-1.9-.37-4-.41-5.88.06-.5.13-1.22.48-1.66.55-.16.03-.38.03-.55.04-.11,0-.03-.08-.11-.14-.03.16-.04.29.04.47.25.55.84.3,1.25.18.18-.05.36-.11.54-.16.36-.11.58-.18.97-.27,2-.46,3.97-.44,5.98,0,.39.09.68.22,1.02.32.1.03.27.02.38.05.4.12.72.38,1.1.05.2-.17.21-.31.19-.54Z"/>
                  <path class="cls-50" d="M119.54,282.61c-.23-.09-.41.02-.66-.01-.38-.05-.94-.32-1.27-.41-2.38-.65-4.52-.86-6.94-.23-.41.11-1.49.6-1.82.48-.08-.03-.06-.19-.2-.15-.05.18-.08.22-.03.43.17.68.82.49,1.32.32.13-.04.31-.16.48-.22.37-.12.59-.18.97-.27,1.86-.44,3.52-.44,5.39,0,.36.08.68.21,1.02.32.14.05.26.12.38.16.51.18,1.26.33,1.35-.43Z"/>
                  <path class="cls-50" d="M109.08,279.76c-.05.26-.08.33.11.57.34.43.77.17,1.18.03.11-.04.21-.03.27-.05.16-.05.87-.24.92-.27,1.08-.66,3.69-.36,4.96-.05.47.11.65.2,1.02.38.01,0,.17.02.27.05.28.1.57.2.88.15.24-.04.46-.34.47-.58-.7.13-1.29-.23-1.94-.41-2.25-.61-4.14-.81-6.42-.17-.57.16-1.09.51-1.71.36Z"/>
                  <path class="cls-40" d="M106.44,289.56s-.04,0-.05,0c.02.16-.12.13-.16.16-.13.11-.16.18-.32.27.02.16-.32.26-.38.32-.07.07-.14.39-.32.38-.1.13-.34.37-.38.43-.09.14-.28.43-.38.59-.05.08-.07.15-.11.22-.05.1-.18.34-.22.43-.05.12-.07.32-.11.43.21,0,.21.15.32.24.82.72,1.35,1.04,2.25,1.58.83.49,2.27.89,3.27,1.1.54.11,1.38.31,1.93.31.03,0,.26-.04.27-.05.04-.04-.1-.07.11-.11,1.18-.21,3.4-.35,4.55-.1.23.05.51.23.73.26.34.05,1.52-.13,1.9-.22.05-.01.02-.1.12-.11.18-.02.39.03.58,0,.44-.09,1.52-.52,1.98-.72.51-.22,1.87-1.06,2.16-1.51.1-.16-.05-.3.27-.25-.01-.04,0-.15,0-.22-.15.03-.1-.08-.13-.16-.8-2.1-3.04-3.79-4.98-4.77-2.57-1.3-7.41-1.42-10.03-.23-1.06.48-1.88,1.18-2.84,1.71Z"/>
                  <path class="cls-42" d="M109.86,287.9c1.11.77,2.85,1.14,4.52,1.15,1.72,0,3.27-.35,4.79-.71-.59.33-1.3.6-2.09.8-.79.2-1.69.32-2.63.32-1.82,0-3.95-.58-4.59-1.57h0Z"/>
                  <path class="cls-24" d="M104.02,292.79c-.03.1-.12.18-.15.36-.06.42.24.83.5,1.14.98,1.2,3.08,1.92,4.55,2.24.4.09,1.67.34,1.99.21l.86-.73c-.54,0-1.39-.2-1.93-.31-1-.21-2.44-.6-3.27-1.1-.9-.54-1.43-.86-2.25-1.58-.11-.09-.11-.25-.32-.24Z"/>
                  <path class="cls-24" d="M124.44,293.23c-.31-.05-.16.09-.27.25-.29.45-1.65,1.29-2.16,1.51-.46.19-1.53.62-1.98.72-.19.04-.4-.02-.58,0-.1.01-.07.1-.12.11-.37.09-1.56.27-1.9.22.1.23.6.61.84.64.4.06,1.53-.19,1.96-.29,1.09-.26,2.17-.65,3.12-1.24.22-.14.9-.58,1.03-.75.08-.1.08-.22.12-.28.05-.07.18-.05.2-.21.01-.13-.11-.4-.16-.54-.03-.08-.11-.12-.11-.13Z"/>
                  <path class="cls-24" d="M112.15,295.87c-.2.04-.07.07-.11.11.11.01.12,0,.11-.11Z"/>
                  <path class="cls-13" d="M111.08,285.31c-.04.51-.11,1.04-.32,1.51,2.16-.65,4.5-.64,6.65.05l-.35-1.56c-2.01-.44-3.98-.46-5.98,0Z"/>
                  <path class="cls-13" d="M111.4,282.56c-.03.34-.15.67-.11,1.02,1.84-.32,3.77-.27,5.6.05l-.11-1.08c-1.86-.44-3.53-.44-5.39,0Z"/>
                  <path class="cls-13" d="M116.52,279.97c-1.27-.3-3.88-.61-4.96.05.14.24,0,.55,0,.81,1.6-.29,3.31-.23,4.9.05-.06-.16.1-.14.11-.24.03-.23-.08-.45-.06-.68Z"/>
                </g>
                <path class="cls-48" d="M79.88,246.37v25.91s-.2,2.29-8.66,2.69c-3.83.18-6.56-.21-8.39-.69-2.23-.59-3.15-1.3-3.15-1.3l-1.96-26.85-.23-3.09s10.57-8.37,11.17-8.46h.02c.25.2,11.2,11.24,11.2,11.8Z"/>
                <path class="cls-47" d="M79.88,246.37v25.91s-.2,2.29-8.66,2.69c-3.83.18-6.56-.21-8.39-.69,4.22-1.69,12.24-5.04,12.61-6.33.5-1.76.32-12.82-2.65-15.39-2.38-2.06-11.55-5.25-15.07-6.43l-.23-3.09s10.57-8.37,11.17-8.46h.02c.25.2,11.2,11.24,11.2,11.8Z"/>
                <path class="cls-7" d="M57.49,243.03l2.19,29.94s3.08,2.39,11.54,1.99,8.66-2.69,8.66-2.69v-25.91c0-.56-10.95-11.6-11.19-11.8-.25-.2-11.19,8.46-11.19,8.46Z"/>
                <path class="cls-48" d="M123.27,273.76s-1.02,3.03-6.37,3.43c-.24.02-.49.03-.75.04-6.01.15-12.32-2.31-12.32-2.31l-5.93-27.68,4.78-8.97,16.86,4.76.51,4.16,3.22,26.57Z"/>
                <path class="cls-47" d="M106.85,271.4s4.37,2.96,10.05,5.79c-.24.02-.49.03-.75.04-6.01.15-12.32-2.31-12.32-2.31l-5.93-27.68,4.78-8.97,16.86,4.76.51,4.16c-4.12,1.64-17.05,6.42-17.05,6.42l3.85,17.79Z"/>
                <path class="cls-7" d="M102.68,238.27l-4.77,8.97,5.93,27.68s6.31,2.46,12.32,2.31c6.01-.15,7.11-3.46,7.11-3.46l-3.73-30.73-16.86-4.76Z"/>
                <g>
                  <path class="cls-48" d="M124.98,241.48s-12.35,6.59-36.58,5.66c-24.23-.93-37.41-6.12-37.41-6.12,2.88-6.96,4.27-44.01,6.5-59.88.02-.12.03-.23.05-.35.39-2.75.87-5.77,1.4-8.88.14-.82.28-1.65.43-2.48.39-2.19.79-4.42,1.2-6.61,2.25-12.03,4.69-23.27,5.18-24.85.74-2.41,1.67-12.44,1.67-12.44l12.16-5.66,23.21-1.02,18.1,9.28-10.77,6.31s5.5,6.52,6.76,19.41c.31,3.17.36,6.73.02,10.67-.29,3.25-.26,7.47-.03,12.28,1.21,24.72,8.11,64.69,8.11,64.69Z"/>
                  <path class="cls-47" d="M109.45,135.4s-6.19,3.74-11.32,11.43-1.67,7.03-1.67,7.03l7.71-4.38,5.27-14.07Z"/>
                  <path class="cls-47" d="M116.9,164.52c-.29,3.25-.26,7.47-.03,12.28-3.18,4.13-8.12,8.88-14.01,8.81-10.38-.14-21.47-8.54-21.47-8.54l-23.86,3.72c.39-2.75.87-5.77,1.4-8.88l2.44-1.75-2.01-.74c.39-2.19.79-4.42,1.2-6.61l5.65-6.56,8.83,2.26,17.24,7.11,19.06-9.37,5.54-2.41c.31,3.17.36,6.73.02,10.67Z"/>
                  <path class="cls-7" d="M65.75,137.97c-.74,2.41-6.03,27.29-8.26,43.17-2.23,15.88-3.62,52.92-6.5,59.88,0,0,13.18,5.2,37.41,6.13s36.58-5.66,36.58-5.66c0,0-9.84-57-8.08-76.96s-6.78-30.08-6.78-30.08l10.77-6.31-18.1-9.28-23.21,1.02-12.16,5.66"/>
                </g>
                <path class="cls-35" d="M70.91,148.35l-.45,1.14-2.1,5.35-14.51.57-.68.03c1.47-8.23,7.7-9.92,11.38-9.99,3.67-.07,6.36,2.89,6.36,2.89Z"/>
                <path class="cls-17" d="M70.47,149.49l-2.1,5.35-14.51.57c.03-.08.08-.15.15-.23,2.39-2.74,9.62-3.87,9.62-3.87,3.34-2.66,5.97-3.18,5.97-3.18l.87,1.35Z"/>
                <path class="cls-7" d="M70.91,148.34s-2.68-2.97-6.35-2.89-9.91,1.77-11.38,9.99l15.19-.6,2.54-6.5Z"/>
                <path class="cls-17" d="M79.91,114.22s2.96-2.81,10.1-3.34c7.14-.53,10.41,1.92,10.41,1.92,0,0-.63,5.4-.69,5.57s-12.28,7.46-12.28,7.46l-3.12,1.5-1.39-2.14s-3.3-6.81-3.03-10.97Z"/>
                <path class="cls-7" d="M79.91,114.22s2.96-2.81,10.1-3.34c7.14-.53,10.41,1.92,10.41,1.92,0,0-.63,5.4-.69,5.57s-12.28,7.46-12.28,7.46l-3.12,1.5-1.39-2.14s-3.3-6.81-3.03-10.97Z"/>
                <path class="cls-48" d="M121.31,157.08c-.32.77-.65,1.54-.99,2.3-5.2,11.68-11.68,16.94-11.68,16.94-.08.06-.17.11-.25.16-1.37.84-8.08,4.43-11.77-3.54-.06-.13-.12-.26-.17-.4-3.26-7.43-.83-13.05-.05-14.54.13-.26.22-.39.22-.39,4.66-11,13.5-23.18,13.5-23.18,6.34-7.59,10.77-6.31,10.77-6.31,7.16,6.93,4.97,18,.41,28.95Z"/>
                <path class="cls-7" d="M110.13,134.44s-8.84,12.19-13.5,23.19c0,0-4.12,6.41,0,15.32,4.12,8.91,12.01,3.37,12.01,3.37,0,0,6.48-5.26,11.68-16.94,5.2-11.68,8.24-23.84.58-31.25"/>
                <g>
                  <path class="cls-15" d="M110.13,149.52c-.09-.02-.19-.03-.28-.05,0,0,.51.4,1.11,1.18.46.58.97,1.38,1.35,2.38.88,2.32-.65,3.08-2.52,2.41,0,0,.82,2.49-.36,3.08-1.18.59-1.82,0-1.82,0,0,0-.23,2.17-2.58,1.59-2.35-.59-5-2.52-7.93-1.56,0,0-4.76.2-4.93.09-.18-.12-2.82-2.76-2.82-2.76l1.78-2.85s.54-.66,1.45-1.64c2.19-2.35,6.52-6.51,10.63-7.68,4.53-1.28,8.39,1.25,10.04,3.08.47.52.76.97.84,1.27.34,1.29-2.05,1.72-3.95,1.45Z"/>
                  <path class="cls-17" d="M112.31,153.03c.88,2.32-.65,3.08-2.52,2.41,0,0,.82,2.49-.36,3.08-1.18.59-1.82,0-1.82,0,0,0-.23,2.17-2.58,1.59-2.35-.59-5-2.52-7.93-1.56,0,0-4.76.2-4.93.09-.18-.12-2.82-2.76-2.82-2.76l1.78-2.85s.54-.66,1.45-1.64l.72-.08s.54,3.24,3.61,4.5c3.07,1.25,6.14,1.53,7.68,2.25,1.53.72,1.94-.67,1.94-.67,0,0-2.92-2.72-5.55-3.34,0,0,1.83-.62,4.21.57,2.38,1.19,3.21,2.38,3.73,2.38s.76-1.56.76-1.56c0,0-2.03-4.04-6.82-5.17,0,0,1.66-.48,3.49.53,1.83,1.01,3.47,2.87,4.33,3.05.85.17,1.19-.54,1.26-.56.05-.02-.19-1.32-.98-2.64.46.58.97,1.38,1.35,2.38Z"/>
                  <path class="cls-17" d="M110.13,149.52c-.41-.44-.9-.84-1.48-1.13-2.68-1.35-3.79-1.54-3.86-1.54-.07,0,1.96-.52,3.86.29,1.9.81,2.25,1.23,3.04,1.02.55-.15,1.21-.91,1.56-1.36.47.52.76.97.84,1.27.34,1.29-2.05,1.72-3.95,1.45Z"/>
                  <path class="cls-7" d="M91.12,153.03s6.27-7.67,12.08-9.32c5.82-1.65,10.52,3,10.87,4.35s-2.29,1.76-4.23,1.41c0,0,1.59,1.24,2.47,3.56s-.65,3.09-2.53,2.41c0,0,.82,2.5-.35,3.08-1.18.59-1.82,0-1.82,0,0,0-.24,2.17-2.59,1.59-2.35-.59-4.99-2.52-7.93-1.56,0,0-4.76.2-4.94.09s-2.82-2.76-2.82-2.76l1.78-2.85Z"/>
                  <path class="cls-7" d="M109.85,149.48s-2.35-2.76-5.7-2.64"/>
                  <path class="cls-7" d="M109.79,155.44s-2.88-4.79-7.58-5.26"/>
                  <path class="cls-7" d="M107.61,158.52s-3.17-3.82-6.87-4.52"/>
                </g>
                <path class="cls-48" d="M82.94,125.19l.45-6.33s-3.03-1.87-3.48-4.64l-.65,7.36s.39,1.87,3.68,3.61Z"/>
                <path class="cls-48" d="M91.88,164.89s-2.75,1.24-6.86,2.81c-6.12,2.34-15.27,5.43-22.83,6.29-12.64,1.44-14.88-1.87-14.88-1.87h0c-.03-.09-.51-1.55-.79-3.6-.44-3.23-.38-7.96,2.74-11.2,0,0,1.32-1.27,5.6-2.37,2.03-.52,4.74-.99,8.29-1.27,2.32-.18,4.94-.42,7.63-.67.12-.01.25-.02.37-.04,9.96-.94,20.73-2.17,20.73-2.17,0,0-3.06,6.32,0,14.08Z"/>
                <path class="cls-47" d="M85.02,167.7c-6.12,2.34-15.27,5.43-22.83,6.29-12.64,1.44-14.88-1.87-14.88-1.87h0c-.11-.1-1.84-1.68-2.9-4.47.69.34,1.4.63,2.11.88,3.65,1.28,7.5,1.45,10.73,1.24,4.33-.28,7.52-1.27,7.52-1.27-1.02-.55-1.41-2.93-1.72-5.26-.26-1.99-.48-3.95-1-4.71-1.12-1.67-7.18-3.57-7.18-3.57,2.03-.52,4.74-.99,8.29-1.27,2.32-.18,4.94-.42,7.63-.67l.19.19,14.05,14.49Z"/>
                <path class="cls-7" d="M82.95,125.17s-1.4,6.99-2.9,17.03c-1.5,10.05-1.48,13.24-1.48,13.24l5.16.37s.65-16.84,3.74-30l-4.52-.65Z"/>
                <path class="cls-48" d="M82.95,125.17s-1.4,6.99-2.9,17.03c-1.5,10.05-1.48,13.24-1.48,13.24l5.16.37s.65-16.84,3.74-30l-4.52-.65Z"/>
                <path class="cls-7" d="M82.95,125.17s-1.4,6.99-2.9,17.03c-1.5,10.05-1.48,13.24-1.48,13.24l5.16.37s.65-16.84,3.74-30l-4.52-.65Z"/>
                <path class="cls-41" d="M82.95,125.17s-1.4,6.99-2.9,17.03c-1.5,10.05-1.48,13.24-1.48,13.24l5.16.37s.65-16.84,3.74-30l-4.52-.65Z"/>
                <path class="cls-7" d="M82.94,125.19l.45-6.33s-3.03-1.87-3.48-4.64l-.65,7.36s.39,1.87,3.68,3.61Z"/>
                <path class="cls-48" d="M87.46,125.83l.52-6.97s5.86-1.03,9.02-2.26c3.16-1.23,3.42-3.81,3.42-3.81,0,0,1.55.58,1.81,1.42s.32,5.48.32,5.48c0,0-4.19,5.74-15.1,6.13Z"/>
                <path class="cls-7" d="M87.46,125.83l.52-6.97s5.86-1.03,9.02-2.26c3.16-1.23,3.42-3.81,3.42-3.81,0,0,1.55.58,1.81,1.42s.32,5.48.32,5.48c0,0-4.19,5.74-15.1,6.13Z"/>
                <path class="cls-7" d="M49.26,157.32s2.87-2.78,13.89-3.64c11.01-.86,28.73-2.87,28.73-2.87,0,0-3.06,6.32,0,14.08,0,0-17.05,7.66-29.69,9.1-12.64,1.44-14.88-1.86-14.88-1.86"/>
                <path class="cls-48" d="M108.64,176.32c-.08.06-.17.11-.25.16-5.02,3.28-9.39,4.22-19.65-.73-10.43-5.02-24.65-13.84-24.65-13.84,0,0,.21-2.82,1.15-6.09.34-1.17.77-2.4,1.32-3.57,2.08-4.45,6.25-5.78,6.25-5.78,0,0,7.21,4.27,15.93,7.39,3.14,1.13,5.69,2.66,7.66,4.15,3.52,2.67,5.23,5.23,5.23,5.23l5.09,9.5,1.92,3.58Z"/>
                <path class="cls-47" d="M121.31,157.08c-.32.77-.65,1.54-.99,2.3-5.2,11.68-11.68,16.94-11.68,16.94-.08.06-.17.11-.25.16-5.02,3.28-9.39,4.22-19.65-.73-10.43-5.02-24.65-13.84-24.65-13.84,0,0,.21-2.82,1.15-6.09,4.49,2.56,21.73,12.58,31.21,16.73,2.32,1.02,4.18,1.69,5.27,1.8,1.42.15,3.11-.41,5-1.61,4.08-2.57,9.12-8.07,14.58-15.67Z"/>
                <path class="cls-7" d="M101.64,163.25s-4.17-6.26-12.89-9.38c-8.72-3.13-15.92-7.39-15.92-7.39,0,0-4.17,1.33-6.26,5.78s-2.47,9.66-2.47,9.66c0,0,14.22,8.82,24.65,13.84,10.43,5.02,14.77,3.97,19.9.56"/>
                <g>
                  <g>
                    <path class="cls-29" d="M50.71,47.31c-3.67,6.65-3.02,24.88-3.02,24.88-6.45-6.77-7-17.47-4.91-26.58,2.09,1.04,4.92,1.62,7.93,1.7Z"/>
                    <path class="cls-3" d="M46.9,91.93c0,13.21,12.64,27.37,33.57,25.45,9.96-.91,22.61-4.19,29.98-11.62,2.34-2.35,6.01-6.24,7.24-8.81,21.27,8.09,27.94-14.97,18.01-21.47,0-22.14-24.06-48.1-46.19-48.1-11.03,0-31.11,4.45-39.67,21.57-1.28,3.71-2.69,6.6-1.98,23.14.17,3.91.49,10.29-.69,14.02-.53,1.68-.28,4.04-.28,5.83Z"/>
                    <path class="cls-25" d="M46.93,94.22c1.29,12.54,13.67,25.09,33.46,23.27,9.96-.91,22.61-4.19,29.98-11.62,2.34-2.35,6.02-6.24,7.24-8.81,17.4,6.62,25.04-7.62,21.8-16.57-.72-1.99-10-6.88-16.72,4.13-.92,1.51-3.68,7.08-3.03,9.76-2.19-1.6-4.34-.9-5.25.38-1.95,2.73-5.12,6.99-6.48,8.4-7.14,7.43-19.39,10.71-29.04,11.62-17.78,1.68-29.38-9-31.96-20.56Z"/>
                    <path class="cls-25" d="M50.07,48.14c1.89,1.05,4.18,1.46,6.96.86,6.13-1.33,11.75-2.86,17.1-.04,6.34,3.34,9.4,4.73,16.89,3.66,3.71-.53,10.7-1.82,12.34-3.56-2.76,9.51-.45,15.07,8.99,21.96-7.07-6.74-9.1-16.11-6.33-25.62-.59,2.02-8.65,3.75-12.35,4.28-7.49,1.08-13.2-.32-19.54-3.66-5.35-2.82-13.38.53-19.54,1.72-1.66.32-3.16.44-4.52.4Z"/>
                    <g>
                      <path class="cls-42" d="M87.38,116.42c-11.51,3.14-27.24,1.07-35.07-8.71-4.01-4.95-6.31-11.37-5.96-17.77.22-4.21,1.36-8.3,1.48-12.5-.29-6.28-1.01-12.58-.19-18.87.54-4.12,1.05-8.5,3.33-12.07-3.04,5.53-3.02,12.21-3.23,18.37-.15,4.22.69,8.38.74,12.58-.2,6.26-2.43,12.45-.89,18.68,3.61,18.19,23.51,24.04,39.79,20.27h0Z"/>
                      <path class="cls-29" d="M53.55,30.27c-1.49-.82-3.82-3.17-3.75-3.27.98-1.41,1.28-3.15,1.84-4.74.01-.04.02-.07.03-.1.02-.04.05-.09.08-.16.2-.41.39-.83.59-1.25.31-.65.62-1.29.94-1.93,1.25-2.55,2.52-5.08,4.07-7.46,6.73,1.7,14.23,1.14,21.18-.12,10.17-1.84,20.41-4.94,30.65-3.53,10.24,1.41,20.63,9.19,20.61,19.52,4.1.88,7.08,3.95,9.47,7.39,2.04,2.94,3.54,6.25,4.43,9.71.93,3.58,1.21,7.33.78,11-.83,7.23-3.44,15.38-8.85,20.25-.67-.45-1.41-.83-2.22-1.12-.81-.29-1.68-.5-2.62-.62-5.07-.65-8.94,2.61-12.02,6.89-1.19,1.65-2.95,4.44-4.88,3.78-1.56-.53-1.86-3.19-1.87-4.83-.01-2.88.64-5.91,1.32-9.08-9.69-6.97-10.02-16.46-7.23-26.07-.59,2.02-8.65,3.75-12.35,4.28-7.49,1.08-13.2-.32-19.54-3.66-5.35-2.82-13.38.53-19.54,1.72-14.91,2.88-19.71-8.82-16.19-15.05,1.63-2.9,3.84-.66,15.06-1.57Z"/>
                      <path class="cls-42" d="M38.5,31.84c1.13,7.07,1.28,17.94,16.19,15.05,6.16-1.19,14.19-4.54,19.54-1.72,6.34,3.34,12.05,4.73,19.54,3.66,3.71-.53,11.77-2.26,12.35-4.28-2.79,9.61-2.46,19.1,7.23,26.07-.69,3.17-1.33,6.19-1.32,9.08,0,1.65.31,4.3,1.87,4.83,1.93.66,3.68-2.13,4.88-3.78,3.08-4.29,6.95-7.54,12.02-6.89.94.12,1.81.33,2.62.62.81.29,1.55.67,2.22,1.12,5.4-4.87,8.02-13.02,8.85-20.25.42-3.68.14-7.42-.78-11-4.11,23.69-27.28,21.31-27.28,21.31-14.37-12.04-1.47-32.98,4.83-36.01,6.3-3.03,3.86-2.94,3.86-2.94-8.57,1.76-12.46,7.03-17.4,13.62-6.05,8.07-28.49,4.54-30.26,2.77-1.76-1.77,3.53-2.52,0-3.53-3.53-1.01-5.25.03-20.76,4.29-15.51,4.26-18.21-12-18.21-12Z"/>
                      <path class="cls-42" d="M49.81,27c.65-.93,1-2.01,1.33-3.1,1.41,1.17,3.03,2.14,4.9,2.8,9.27,3.28,19.05,0,24.91-2.83,6.57-3.17,17.13-3.47,22.49-.87,5.43,2.63-6.55-1.33-20.17,3.71-13.61,5.04-21.75,6.49-29.71,3.57-1.49-.82-2.29-1.35-3.46-2.49.08-.1-.36-.68-.29-.78Z"/>
                      <path class="cls-7" d="M57.61,11.42c12.86,3.04,25.31-1.79,38.32-3.65,10.96-1.67,22.67.19,30.1,8.92,2.6,2.97,3.34,6.69,3.9,10.4,1.49.37,2.6,1.11,3.9,1.86.37.37.74.56,1.3.93,1.49,1.3,2.97,2.6,3.9,4.46l.56.56c2.6,4.27,4.46,8.55,4.83,13.38.93,8.17-.56,15.98-5.2,23.22-.37.37-.56.74-.93,1.3-.93.93-1.67,1.86-2.66,2.79"/>
                      <path class="cls-7" d="M100.03,112.68c3.14-1.25,6.25-3.23,8.54-5.16.2-.17.52-.43.71-.61,3.34-3.16,5.97-6.43,8.38-10.15,6.32,3.72,15.05,2.6,19.69-3.53,3.72-4.83,4.09-11.52,0-16.16-2.6-2.97-6.87-4.09-10.59-2.79-4.83,1.67-7.43,5.95-10.78,9.85-.74.74-2.42.74-3.16-.37-.37-.56-.74-1.3-.74-1.86-.19-3.72.19-7.43,1.11-10.96.19-.37-.19-.93-.56-1.11-8.92-5.02-9.47-16.72-6.53-25.28-.08.26-.16.52-.23.78.08-.26.16-.52.23-.78.03.2.03.39-.16.57-3.34,2.23-6.87,2.79-10.59,3.53-6.13.93-12.26,1.3-17.84-2.04-.37-.19-.56,0-.93-.19-1.86-.93-3.9-1.86-5.95-2.23-1.11-.19-2.23-.37-3.53-.19-.93.19-1.67.19-2.6.56-7.43,1.67-14.68,4.64-21.92,1.11-2.23-1.11-5.28-6.82-4.99-11.27.41-6.13,7.59-4.52,11.3-4.15,1.49.19,3.16.19,4.62.02-.09-.05-.95.08,0,0-.09-.05-1-.55-.99-.31,0,.27.84.32.99.31"/>
                    </g>
                    <g>
                      <path class="cls-29" d="M62.17,55.42c.97-2.01-3.73-4.38-7.95-2.79-4.21,1.59-4.06,5.53-3.98,5.83s2.32-2.4,5.1-2.64c4.17-.35,5.98,1.35,6.82-.4Z"/>
                      <path class="cls-29" d="M80.23,56.33c-.92-2.23,3.55-6.67,12.9-2.46,5.61,2.52,5.6,7.94,5.42,8.21s-2.71-2.97-6.54-3.95c-5.73-1.46-10.99.13-11.78-1.8Z"/>
                      <path class="cls-38" d="M56.42,68.74c-9.88-.24-8.29,18.4-1.32,20.06,7.09,1.69,9.54-4.34,9.01-9.21-.67-6.11-3.57-10.75-7.69-10.85Z"/>
                      <path class="cls-38" d="M87.99,68.12c-11.57-.28-9.66,19.06-1.47,20.68,6.65,1.32,11.16-4.44,10.51-9.47-.81-6.31-4.22-11.1-9.05-11.22Z"/>
                      <g>
                        <ellipse class="cls-42" cx="90.83" cy="79.56" rx="6.09" ry="4.33" transform="translate(5.61 165.1) rotate(-86.32)"/>
                        <ellipse class="cls-19" cx="92.81" cy="76.92" rx="1.28" ry=".81" transform="translate(-7.11 144.34) rotate(-73.66)"/>
                      </g>
                      <g>
                        <ellipse class="cls-42" cx="59.87" cy="79.56" rx="4.33" ry="6.09"/>
                        <ellipse class="cls-19" cx="61.28" cy="77" rx="1.28" ry=".81" transform="translate(-27.28 119.92) rotate(-77.34)"/>
                      </g>
                      <path class="cls-29" d="M57.6,68.13c-2.71-.7-5.73.56-7,2.86-.54.93-.85,1.95-.96,2.99-.03.31.43.41.56.13.39-.88.85-1.73,1.47-2.47,1.27-1.6,3.44-2.44,5.53-2.02,1.92.42,3.39,1.76,4.67,3.17.15.17.44.02.37-.19-.42-1.29-1.58-3.68-4.63-4.46Z"/>
                      <path class="cls-29" d="M89.56,67.48c-.61-.14-1.27-.18-1.88-.13-1.19.07-2.39.26-3.49.74-1.68.68-2.9,2.15-3.4,3.76v.02c-.1.3.33.49.51.23.3-.43.63-.83.99-1.19.7-.72,1.53-1.22,2.47-1.52.93-.3,1.96-.41,3.01-.47.49-.03.95,0,1.42.09,4.21,1.02,6.26,5.54,7.51,9.28.07.2.38.15.37-.05-.02-2.64-.77-9.22-7.51-10.76Z"/>
                      <path class="cls-25" d="M67.56,87.2s-.33,4.35,2.3,4.93c.48.11.73-.46,1.3-.46s1.18.37,1.18,1.34c0,1.61-3.13,2.34-5.24-.77-1.46-2.15-.24-4.32.47-5.04Z"/>
                      <path class="cls-42" d="M65.22,87.78c-.92,2.44.82,5.25,3.29,6.31.17.07.33.14.51.19.4.12.67-.37.33-.6-1.57-1.07-2.52-2.77-2.44-4.59.02-1.64,1.18-2.72,2.77-3.31,1.03-.4,2.1-.45,3.24-.37.34.02.47-.42.15-.55h-.02c-1.83-.78-6.35-.98-7.82,2.92Z"/>
                      <g>
                        <path class="cls-16" d="M63.06,103.04c.68.83,1.33,1.56,1.99,2.19,1.82,1.72,3.72,2.63,6.49,2.58,1.4-.03,2.76-.36,4.03-.98,1.43-.7,2.67-1.79,3.64-2.92.39-.45.74-.92,1.04-1.36.02-.03,2.4-3.56,1.64-4.58-.32-.42-.68-.35-.86-.31-.6.14-1.32.35-2.33.62-.6.16-1.28.34-1.99.49-3.06.66-6.01,1.01-9.01,1.06-1.33.02-2.73,0-4.27-.09-.37-.02-.66-.03-.9-.03-.36,0-.95-.01-1.13.37-.18.37.31,1.33,1.65,2.96Z"/>
                        <path class="cls-31" d="M65.04,105.14s0,.03,0,.09c1.82,1.72,3.72,2.63,6.49,2.58,1.4-.03,2.76-.36,4.03-.98,1.43-.7,2.67-1.79,3.64-2.92-1.15-1.11-4.62-1.58-6.05-1.27-2.05.43-8.44,2.21-8.12,2.51Z"/>
                      </g>
                    </g>
                  </g>
                  <g>
                    <path class="cls-48" d="M52.14,10.23c.17-.33,9.1-10.66,26.53-9.63,19.38,1.14,50.05,10.01,56.18,22.59,6.72,13.79-19.39-3.86-22.9-4.57-3.44-.7-52.75-5.29-55.48-4.75-2.7.53-8.93.83-8.81.62s4.47-4.26,4.47-4.26Z"/>
                    <path class="cls-7" d="M52.14,10.23c.17-.33,9.1-10.66,26.53-9.63,19.38,1.14,50.05,10.01,56.18,22.59,6.72,13.79-19.39-3.86-22.9-4.57-3.44-.7-52.75-5.29-55.48-4.75-2.7.53-8.93.83-8.81.62s4.47-4.26,4.47-4.26Z"/>
                    <path class="cls-48" d="M41.56,52.34s-2.95-.41-4.18-3.22c-1.2-2.75-1.01-12.55,1.56-14.13,0,0-1.73-.44-.76-6.16.94-5.56,4.47-16.33,10.75-19.01,6.41-2.73,26.25-1.8,29.62-1.41,3.44.4,20.86,1.07,43.34,11.69,13.62,6.44,25.62,13.77,26.64,22.96,1.07,9.63-2.32,14.97-4.01,15.75-1.69.78-4.33-1.23-4.33-1.23,0,0,3.22,3.58,2.87,5.82-.35,2.26-6.57,12.2-6.57,12.2,0,0-11.45-8.33-16.79-13-5.12-4.47-29.39-20.04-46.67-20.74-15.88-.64-27.33,2.11-31.47,10.47Z"/>
                    <path class="cls-47" d="M36.77,46.06c-.07,4.66,3.05,5.88,4.29,6.18.31.07.5.09.5.09.76-3.05,8.52-12.56,33.98-10.15,28.41,2.69,60.92,33.43,60.92,33.43l5.18-9.98,1.56-2.46c-.04-.13-2.84-4.53-2.68-5.85-.19-.4,3.57,2.36,4.47,1.11,4.54-6.23,3.04-17.62,1.89-20.23-.84,6.95-.67,10.64-6.78,16.01-2.58-1.37-3.6-2.01-6.63-2.84-3.73-1.03-3.7,1.2-.95,3.68,1.58,1.43,1.82,2.71,1.82,2.71,0,0-5,5.11-6,4.37-13.76-10.19-28.76-24.52-53.62-26.87-20.52-2.29-37.89,5.17-37.97,10.8Z"/>
                    <path class="cls-7" d="M41.56,52.34s-2.95-.41-4.18-3.22c-1.2-2.75-1.01-12.55,1.56-14.13,0,0-1.73-.44-.76-6.16.94-5.56,4.47-16.33,10.75-19.01,6.41-2.73,26.25-1.8,29.62-1.41,3.44.4,20.71.99,43.34,11.69,13.62,6.44,25.62,13.77,26.64,22.96,1.07,9.63-2.32,14.97-4.01,15.75-1.69.78-4.33-1.23-4.33-1.23,0,0,3.22,3.58,2.87,5.82-.35,2.26-6.57,12.2-6.57,12.2,0,0-12.45-9.22-17.75-13.85-5.08-4.44-28.43-19.19-45.71-19.89-15.88-.64-27.33,2.11-31.47,10.47Z"/>
                    <path class="cls-7" d="M38.87,35.04s1.43-1.24,2.51-1.29"/>
                    <path class="cls-47" d="M121.12,26.88c1.94.72,3.86,1.52,5.76,2.38.71.32,1.44-.62.81-1.05-.02-.01-.03-.02-.05-.04-20.42-13.9-46.35-18.33-74.01-11.81-.94.22-1.04,1.84-.1,1.65,26.07-5.26,48.64,1.94,67.58,8.86Z"/>
                    <path class="cls-47" d="M73.64,30.74c11.78,1.05,23.43,5.55,34.43,12.29,3.32,2.03,6.62,4.27,9.85,6.64.83.6,1.66,1.23,2.5,1.87.34.26.83-.18.56-.5l-.02-.02c-2-2.32-4.14-4.55-6.37-6.57-13.87-12.8-31.96-19.04-49.05-17.29-5.33.53-10.57,1.76-15.51,3.79-.01,0-.03.01-.04.02-.5.21-.4.99.11.88,4.51-.99,12.47-2.1,23.54-1.11Z"/>
                  </g>
                </g>
              </g>
            </g>
          </g>
        </g>
      </g>
    </g>
  </g>
</svg>