<?xml version="1.0" encoding="UTF-8"?>
<svg xmlns="http://www.w3.org/2000/svg" xmlns:xlink="http://www.w3.org/1999/xlink" viewBox="0 0 410.52 336.09">
  <defs>
    <style>
      .cls-1 {
        fill: #ca8869;
      }

      .cls-2 {
        fill: #221f1f;
      }

      .cls-3 {
        fill: #ff6d3a;
      }

      .cls-4 {
        fill: #e29f7a;
      }

      .cls-5 {
        fill: #fff;
      }

      .cls-6 {
        stroke: #27190f;
        stroke-linecap: round;
        stroke-miterlimit: 10;
        stroke-width: .8px;
      }

      .cls-6, .cls-7 {
        fill: none;
      }

      .cls-8 {
        fill: #d48054;
      }

      .cls-9 {
        fill: url(#radial-gradient-5);
      }

      .cls-10 {
        fill: url(#radial-gradient);
      }

      .cls-11 {
        fill: url(#radial-gradient-3);
      }

      .cls-12 {
        fill: #8f5423;
      }

      .cls-13 {
        fill: #6d2137;
      }

      .cls-14 {
        fill: #231f20;
      }

      .cls-15 {
        fill: #291610;
      }

      .cls-16 {
        isolation: isolate;
      }

      .cls-17 {
        fill: #f9f2f7;
      }

      .cls-18 {
        fill: #729eef;
      }

      .cls-19 {
        fill: url(#radial-gradient-8);
      }

      .cls-20 {
        fill: url(#radial-gradient-2);
      }

      .cls-21 {
        fill: #542b17;
      }

      .cls-22 {
        fill: #ec2756;
      }

      .cls-23 {
        fill: url(#radial-gradient-4);
      }

      .cls-24, .cls-25 {
        fill: #e4e4e3;
      }

      .cls-24, .cls-26, .cls-27 {
        mix-blend-mode: multiply;
      }

      .cls-28 {
        fill: #271910;
      }

      .cls-29 {
        fill: #ffe649;
      }

      .cls-30 {
        fill: url(#radial-gradient-6);
      }

      .cls-26 {
        fill: #cacac9;
        opacity: .6;
      }

      .cls-31 {
        fill: url(#radial-gradient-7);
      }

      .cls-27 {
        fill: #b2b1b2;
        opacity: .4;
      }

      .cls-32 {
        fill: #351a10;
      }

      .cls-33 {
        clip-path: url(#clippath);
      }
    </style>
    <clipPath id="clippath">
      <rect class="cls-7" width="371.45" height="295.25" rx="20" ry="20"/>
    </clipPath>
    <radialGradient id="radial-gradient" cx="-2258.54" cy="-2137.57" fx="-2258.54" fy="-2137.57" r="66.03" gradientTransform="translate(-1484.62 2710.27) rotate(167.44) scale(1 -1)" gradientUnits="userSpaceOnUse">
      <stop offset="0" stop-color="#eeb28c"/>
      <stop offset="1" stop-color="#ecbc8a"/>
    </radialGradient>
    <radialGradient id="radial-gradient-2" cx="255.24" cy="194.22" fx="255.24" fy="194.22" r="12.63" gradientTransform="matrix(1,0,0,1,0,0)" xlink:href="#radial-gradient"/>
    <radialGradient id="radial-gradient-3" cx="267.22" cy="207.02" fx="267.22" fy="207.02" r="22.45" gradientTransform="matrix(1,0,0,1,0,0)" xlink:href="#radial-gradient"/>
    <radialGradient id="radial-gradient-4" cx="241.99" cy="269.35" fx="241.99" fy="269.35" r="22.95" gradientTransform="matrix(1,0,0,1,0,0)" xlink:href="#radial-gradient"/>
    <radialGradient id="radial-gradient-5" cx="320.54" cy="262.13" fx="320.54" fy="262.13" r="16.02" gradientTransform="matrix(1,0,0,1,0,0)" xlink:href="#radial-gradient"/>
    <radialGradient id="radial-gradient-6" cx="294.57" cy="274.12" fx="294.57" fy="274.12" r="25.73" gradientTransform="matrix(1,0,0,1,0,0)" xlink:href="#radial-gradient"/>
    <radialGradient id="radial-gradient-7" cx="256.05" cy="277.39" fx="256.05" fy="277.39" r="14.71" gradientTransform="matrix(1,0,0,1,0,0)" xlink:href="#radial-gradient"/>
    <radialGradient id="radial-gradient-8" cx="248.31" cy="254.22" fx="248.31" fy="254.22" r="28.91" gradientTransform="matrix(1,0,0,1,0,0)" xlink:href="#radial-gradient"/>
  </defs>
  <g class="cls-16">
    <g id="Layer_2" data-name="Layer 2">
      <g id="Layer_1-2" data-name="Layer 1">
        <g>
          <rect class="cls-3" y="45.25" width="371.45" height="250" rx="20" ry="20"/>
          <g>
            <circle class="cls-3" cx="371.45" cy="225.31" r="39.08"/>
            <path class="cls-5" d="M362.28,220.61l-4.41-5.67,8.86-8.42,12.42-1.26-1.71,37.89-11.02-1.44-.14-24.48-4,3.38Z"/>
          </g>
          <g class="cls-33">
            <g>
              <g>
                <path class="cls-12" d="M204.79,242.32c0-.07,0-.14,0-.22,0-.32.03-.63.11-.94,0-.05.02-.09.03-.14.71-2.71,4.07-5.25,9.48-7.46,12-4.91,34.02-8.2,59.2-8.2,25.18,0,47.2,3.29,59.2,8.2,5.4,2.21,8.77,4.74,9.48,7.46,0,.05.02.09.03.14.08.31.11.62.11.94,0,.07,0,.14,0,.22h0c0,.08,0,.14,0,.21v47.48c0,4.95-4.24,8.96-9.47,8.96h-118.68c-5.23,0-9.47-4.01-9.47-8.96v-47.48c0-.07,0-.13,0-.2h0Z"/>
                <path class="cls-21" d="M207.33,247.58c0-.07,0-.14,0-.21,0-.3.03-.61.11-.9,0-.04.02-.09.03-.13.68-2.61,3.92-5.05,9.13-7.18,11.55-4.72,32.76-7.89,57.01-7.89,24.25,0,45.46,3.17,57.01,7.89,5.2,2.12,8.44,4.57,9.13,7.18,0,.05.02.09.03.13.07.3.11.6.11.9,0,.07,0,.14,0,.21h0c0,.08,0,.14,0,.2v45.73c0,4.76-4.08,8.63-9.12,8.63h-114.29c-5.04,0-9.12-3.87-9.12-8.63v-45.73c0-.07,0-.13,0-.19h0Z"/>
              </g>
              <g>
                <path class="cls-26" d="M210.96,132.67c-.02-.34-.03-.68-.04-1.02.11.38.23.78.35,1.18-.1-.05-.21-.11-.31-.16ZM262.34,192s.04,0,.07,0c-.14.29-.3.58-.48.86.13-.24.27-.53.42-.87Z"/>
                <g>
                  <path class="cls-4" d="M257.9,180.68s5.64,13.28-2.99,24.56l-5.31,3.65s12.61,23.57,25.23,24.56c12.61,1,25.56-24.56,25.56-24.56,0,0-16.26-8.3-11.95-29.54,0,0-22.24-1.66-30.54,1.33Z"/>
                  <path class="cls-1" d="M289.62,196.47c-1.77-4.38-2.62-10.01-1.18-17.09,0,0-22.24-1.66-30.54,1.33,0,0,2.26,5.34,1.73,12.12,9.51,3.37,19.75,4.3,29.99,3.65Z"/>
                  <path class="cls-6" d="M257.9,180.68s5.64,13.28-2.99,24.56l-5.31,3.65s12.61,23.57,25.23,24.56c12.61,1,25.56-24.56,25.56-24.56,0,0-16.26-8.3-11.95-29.54,0,0-22.24-1.66-30.54,1.33Z"/>
                  <g>
                    <path class="cls-2" d="M304.87,83.63c7.5,7.98,13.2,33.72,13.2,33.72,6.53-11.79,3.42-26.95-2.79-38.94-2.53,2.21-6.25,4.04-10.41,5.22Z"/>
                    <path class="cls-10" d="M326.12,143.67c4.78,18.48-7.69,42.82-37.51,47.67-14.19,2.31-32.98,2.28-45.92-5.47-4.1-2.45-10.63-6.57-13.26-9.72-26.66,18.97-44.29-10.88-32.83-23.55-8.01-30.96,16.07-75.94,46.87-83.9,15.34-3.97,44.89-4.96,62.99,15.9,3.12,4.73,6.13,8.27,11.13,31.65,1.18,5.53,3.04,14.57,6.03,19.36,1.35,2.16,1.85,5.55,2.5,8.06Z"/>
                    <path class="cls-4" d="M305.71,83.66c-2.25,2.15-5.29,3.54-9.37,3.7-9.01.35-17.38.22-23.81,6.09-7.61,6.95-11.37,10-22.18,11.19-5.35.59-15.55,1.3-18.46-.54,7.29,12.31,6.09,20.92-4.57,33.95,7.39-11.97,6.83-25.8-.46-38.11,1.55,2.62,13.39,2.14,18.74,1.55,10.81-1.19,18.25-5.2,25.87-12.14,6.43-5.87,18.81-4.08,27.81-4.62,2.42-.15,4.55-.51,6.43-1.06Z"/>
                    <path class="cls-4" d="M327.09,147.89c2.74,18-9.95,40.01-38.14,44.59-14.19,2.31-32.97,2.28-45.92-5.46-4.1-2.45-10.63-6.57-13.26-9.72-21.82,15.52-37.59-1.64-36.32-15.34.28-3.04,11.42-13.22,24.76-.24,1.83,1.78,7.69,8.58,7.74,12.56,2.46-3.02,5.71-2.83,7.44-1.36,3.7,3.12,9.65,7.93,12.05,9.42,12.62,7.82,30.85,8,44.6,5.81,25.34-4.04,37.62-23.15,37.03-40.26Z"/>
                    <g>
                      <path class="cls-6" d="M278.84,193.49c13.37.02,25.83-4.74,35.89-12.76,10.06-8.02,14.5-22.41,12.09-35.1-1.64-8.63-7.29-16.35-8.42-25.05-2.08-16-8.76-33.47-14.18-37.95"/>
                      <path class="cls-2" d="M325.05,52.83c.99,10.29-4.09,30.32-25.87,31.65-9,.55-21.38-1.25-27.81,4.62-7.61,6.95-15.05,10.95-25.87,12.14-5.35.59-17.19,1.07-18.74-1.55,7.36,12.44,10.33,25.83-.62,39.07,2.1,4.19,4.1,8.18,5.12,12.22.59,2.31,1.12,6.12-.85,7.43-2.45,1.62-5.9-1.65-8.15-3.54-5.84-4.89-12.4-8.05-19.21-5.31-1.26.51-2.4,1.11-3.42,1.81-1.02.7-1.92,1.49-2.68,2.36-9.28-4.87-15.86-15.33-19.64-25.14-1.92-4.99-2.88-10.33-2.89-15.67-.01-5.16.87-10.33,2.65-15.17,2.08-5.67,5.12-11.04,10.5-13.75-3.76-14.45,7.89-29.06,21.62-34.72,13.73-5.66,29.1-5.02,43.92-6.1,14.82-1.08,30.73-4.67,40.22-16.13,1.38-1.67,3.06-3.69,5.21-3.37,1.11.16,1.96.92,2.63,1.86.34.47.64.99.89,1.51,3.28,6.67,3.13,23.85-7.32,33.76,15.94-2.77,29.3-18.49,30.31-7.99Z"/>
                      <path class="cls-2" d="M325.05,52.83c.99,10.29-4.09,30.32-25.87,31.65-9,.55-21.38-1.25-27.81,4.62-7.61,6.95-15.05,10.95-25.87,12.14-5.35.59-17.19,1.07-18.74-1.55,7.36,12.44,10.33,25.83-.62,39.07,2.1,4.19,4.1,8.18,5.12,12.22.59,2.31,1.12,6.12-.85,7.43-2.45,1.62-5.9-1.65-8.15-3.54-5.84-4.89-12.4-8.05-19.21-5.31-1.26.51-2.4,1.11-3.42,1.81-1.02.7-1.92,1.49-2.68,2.36-9.28-4.87-15.86-15.33-19.64-25.14-1.92-4.99-2.88-10.33-2.89-15.67,14.29,31.65,45.66,19.99,45.66,19.99,15.64-22.01-9.88-46.66-19.75-48.62-9.86-1.96-6.44-2.72-6.44-2.72,12.57-.62,19.87,5.35,29.13,12.78,11.34,9.11,41.28-3.9,43.1-7.01,1.82-3.11-5.82-2.26-1.28-4.94,4.54-2.68,7.32-1.85,30.43-1.47,23.12.38,29.78-28.11,29.78-28.11Z"/>
                      <path class="cls-2" d="M294.75,60.82c-10.02,6.95-21.86,7.85-42.63,5.7-20.77-2.15-36,7.7-29.4,2.07,6.52-5.55,21.32-8.94,31.6-6.87,9.19,1.85,23.98,2.92,35.69-5,11.11-7.51,12.39-22.62,11.17-31.17.34.47.64.99.89,1.51,3.28,6.67,3.13,23.85-7.32,33.76Z"/>
                      <path class="cls-6" d="M259.89,192.81c-12.93-1.66-21.5-8.38-30.31-16-5.57,5.33-13.91,7.73-21.34,5.7-7.43-2.04-13.56-8.65-14.58-16.32-1.02-7.67,2.26-13.76,9.4-16.63,6.81-2.74,13.37.43,19.21,5.31,2.25,1.89,5.71,5.15,8.15,3.54,1.98-1.31,1.44-5.12.85-7.43-1.03-4.04-3.02-8.03-5.12-12.22,10.95-13.24,7.99-26.63.62-39.07,1.55,2.62,13.39,2.14,18.74,1.55,10.81-1.19,18.25-5.2,25.86-12.14,6.43-5.87,18.81-4.08,27.81-4.62,21.78-1.33,26.86-21.35,25.87-31.64-1.01-10.51-14.37,5.22-30.31,7.99,10.44-9.9,10.6-27.09,7.31-33.76-.75-1.52-1.85-3.12-3.52-3.37-2.14-.32-3.82,1.69-5.21,3.37-9.49,11.46-25.41,15.05-40.22,16.13-14.82,1.08-30.18.44-43.92,6.1-13.73,5.66-25.38,20.27-21.62,34.72h0c-5.38,2.71-8.42,8.07-10.5,13.75-3.62,9.85-3.53,21.03.24,30.85,3.77,9.81,10.35,20.27,19.64,25.14"/>
                    </g>
                  </g>
                  <path class="cls-22" d="M336.53,329.32c-.01.11-.03.22-.05.34-.67,3.39-4.03,4.62-4.03,4.62,0,0-2.07-2.84-5.77-2.61,0,0-.02,0-.03,0-.13,0-.27.01-.41.03-3.98.5-36.34,4.71-52.94,3.87h0c-.29,0-.6,0-.9,0-17.21.16-44.69-2.56-48.17-3.87-1.31-.5-1.31,1.86-1.31,1.86,0,0-6.65.24-7.15-3.41-.49-3.65.04-4.36,2.34-13.52.85-3.39,6.29-68.74,8.95-87.5,2.66-18.76,8.55-25.08,10.7-25.24,2.16-.17,11.87-3.97,11.87-3.97,3.62,6.95,21.13,20.38,25.54,23.7,3.79-3.31,18.89-16.74,22.5-23.7,0,0,12.89,3.8,15.05,3.97,2.16.16,8.05,6.49,10.7,25.24,1.5,10.58,3.9,36.01,5.83,56.79.1,1.1.2,2.18.3,3.25.03.4.07.79.11,1.19.05.58.1,1.15.16,1.71.08.86.16,1.71.23,2.54.03.35.06.71.1,1.06.05.52.09,1.03.14,1.54.04.51.09,1.01.14,1.5.03.4.07.8.11,1.19.02.21.04.42.06.63.03.36.06.71.1,1.06.02.26.04.51.07.77.04.4.07.79.11,1.17.02.19.04.38.05.57.02.19.03.38.05.56,0,.08.01.16.02.25.02.21.04.42.06.63,0,.07,0,.14.02.22.01.18.03.35.05.53.01.18.03.35.05.52.03.34.06.68.1,1.01.03.33.06.65.09.97.01.15.03.31.04.46.12,1.23.23,2.34.33,3.3,0,.12.02.24.03.35.05.46.09.89.13,1.28.02.19.04.38.06.55.06.54.11,1,.16,1.34.01.09.02.18.04.26,0,.02,0,.05,0,.07,0,.04,0,.09.02.13,0,.08.02.15.03.2,1.22,5.97,4.77,8.89,4.27,12.55Z"/>
                  <path class="cls-6" d="M336.53,329.32c-.01.11-.03.22-.05.34-.67,3.39-4.03,4.62-4.03,4.62,0,0-2.07-2.84-5.77-2.61,0,0-.02,0-.03,0-.13,0-.27.01-.41.03-3.98.5-36.34,4.71-52.94,3.87h0c-.29,0-.6,0-.9,0-17.21.16-44.69-2.56-48.17-3.87-1.31-.5-1.31,1.86-1.31,1.86,0,0-6.65.24-7.15-3.41-.49-3.65.04-4.36,2.34-13.52.85-3.39,6.29-68.74,8.95-87.5,2.66-18.76,8.55-25.08,10.7-25.24,2.16-.17,11.87-3.97,11.87-3.97,3.62,6.95,21.13,20.38,25.54,23.7,3.79-3.31,18.89-16.74,22.5-23.7,0,0,12.89,3.8,15.05,3.97,2.16.16,8.05,6.49,10.7,25.24,1.5,10.58,3.9,36.01,5.83,56.79.1,1.1.2,2.18.3,3.25.03.4.07.79.11,1.19.05.58.1,1.15.16,1.71.08.86.16,1.71.23,2.54.03.35.06.71.1,1.06.05.52.09,1.03.14,1.54.04.51.09,1.01.14,1.5.03.4.07.8.11,1.19.02.21.04.42.06.63.03.36.06.71.1,1.06.02.26.04.51.07.77.04.4.07.79.11,1.17.02.19.04.38.05.57.02.19.03.38.05.56,0,.08.01.16.02.25.02.21.04.42.06.63,0,.07,0,.14.02.22.01.18.03.35.05.53.01.18.03.35.05.52.03.34.06.68.1,1.01.03.33.06.65.09.97.01.15.03.31.04.46.12,1.23.23,2.34.33,3.3,0,.12.02.24.03.35.05.46.09.89.13,1.28.02.19.04.38.06.55.06.54.11,1,.16,1.34.01.09.02.18.04.26,0,.02,0,.05,0,.07,0,.04,0,.09.02.13,0,.08.02.15.03.2,1.22,5.97,4.77,8.89,4.27,12.55Z"/>
                  <g>
                    <path class="cls-14" d="M307.13,310.99c.02.16-2.18.46-5.69,1.16-.44.09-.9.18-1.37.28-.48.1-.97.22-1.48.34-1.03.22-2.11.51-3.25.8-2.27.62-4.75,1.38-7.31,2.3-2.55.93-4.94,1.94-7.09,2.92-1.06.51-2.08.98-3.01,1.46-.47.24-.92.46-1.35.69-.43.23-.84.45-1.23.66-3.14,1.71-5.01,2.89-5.11,2.75-.07-.1,1.67-1.5,4.74-3.39.39-.23.79-.48,1.21-.73.42-.25.88-.49,1.34-.75.92-.53,1.94-1.03,3-1.57,2.15-1.04,4.56-2.09,7.14-3.03,2.59-.93,5.11-1.67,7.43-2.25,1.16-.27,2.26-.53,3.31-.72.52-.1,1.02-.2,1.51-.28.49-.08.95-.15,1.4-.22,3.57-.52,5.8-.55,5.81-.43Z"/>
                    <path class="cls-14" d="M304.61,276.42c0,.07-1.02.14-2.87.21-.46.02-.98.03-1.54.05-.56,0-1.17-.03-1.83-.05-1.31-.06-2.82-.06-4.46-.26-.82-.08-1.69-.17-2.59-.26-.9-.1-1.82-.28-2.79-.42-.48-.08-.97-.16-1.47-.24-.25-.04-.5-.08-.75-.13-.25-.05-.5-.11-.76-.17-1.01-.22-2.06-.45-3.13-.69-4.25-1.07-8.86-2.55-13.51-4.57-4.63-2.06-8.83-4.46-12.5-6.87-.9-.63-1.77-1.24-2.62-1.84-.21-.15-.42-.3-.63-.44-.21-.15-.4-.31-.6-.47-.4-.31-.78-.62-1.17-.92-.76-.61-1.52-1.17-2.19-1.77-.67-.6-1.32-1.18-1.94-1.73-1.26-1.08-2.28-2.19-3.21-3.11-.46-.47-.89-.9-1.27-1.32-.37-.43-.7-.82-1-1.17-1.2-1.41-1.83-2.21-1.78-2.26.05-.05.79.66,2.08,1.98.32.33.68.7,1.06,1.1.4.39.85.8,1.33,1.25.96.88,2,1.94,3.28,2.98.63.53,1.28,1.09,1.96,1.67.69.58,1.45,1.11,2.21,1.71.38.29.77.59,1.17.89.2.15.39.31.6.45.21.14.42.29.63.43.85.58,1.72,1.17,2.62,1.78,3.65,2.34,7.82,4.68,12.39,6.72,4.59,1.99,9.13,3.48,13.32,4.59,1.06.25,2.08.49,3.08.72.25.06.5.12.74.18.25.05.5.09.74.14.49.09.97.17,1.45.26.95.16,1.86.36,2.75.48.89.11,1.74.22,2.56.32,1.63.25,3.11.3,4.41.41.65.05,1.26.11,1.82.13.56.01,1.07.03,1.53.04,1.84.06,2.86.12,2.86.19Z"/>
                    <path class="cls-14" d="M311.78,287.75c.05.05-.87.94-2.57,2.49-.43.39-.9.82-1.42,1.29-.53.46-1.13.92-1.77,1.44-1.29,1.01-2.71,2.23-4.42,3.38-.84.6-1.72,1.22-2.64,1.87-.45.34-.95.62-1.44.94-.5.31-1,.63-1.52.95-.51.32-1.04.65-1.57.98-.27.16-.53.34-.81.5-.28.15-.56.31-.84.47-1.13.62-2.3,1.27-3.49,1.93-4.85,2.5-10.35,4.93-16.33,6.92-6,1.94-11.87,3.25-17.26,4.12-1.35.18-2.67.35-3.95.52-.32.04-.64.08-.95.12-.32.04-.63.05-.94.08-.63.05-1.24.09-1.85.14-.6.05-1.2.09-1.78.13-.58.04-1.16.1-1.72.1-1.13.02-2.21.04-3.24.06-2.06.08-3.93-.05-5.56-.1-.82-.04-1.58-.06-2.28-.11-.7-.07-1.33-.14-1.91-.2-2.29-.24-3.55-.41-3.54-.48,0-.07,1.28-.04,3.57.08.57.03,1.21.07,1.91.1.7.02,1.46.01,2.27.02,1.63,0,3.48.08,5.53-.05,1.02-.04,2.09-.09,3.21-.13.56,0,1.13-.08,1.7-.13.58-.05,1.17-.11,1.77-.16.6-.05,1.21-.11,1.83-.17.31-.03.62-.05.94-.09.31-.04.63-.09.94-.14,1.27-.18,2.57-.37,3.91-.56,5.33-.91,11.14-2.24,17.08-4.16,5.92-1.98,11.38-4.35,16.22-6.79,1.19-.64,2.35-1.26,3.48-1.87.28-.15.56-.3.84-.45.28-.15.54-.32.81-.48.53-.32,1.06-.64,1.57-.95.52-.31,1.02-.62,1.52-.92.49-.31,1-.58,1.45-.9.93-.63,1.81-1.23,2.66-1.8,1.73-1.11,3.17-2.28,4.48-3.24.65-.49,1.27-.93,1.81-1.36.54-.44,1.03-.85,1.47-1.21,1.77-1.45,2.78-2.24,2.83-2.18Z"/>
                  </g>
                  <path class="cls-27" d="M256.89,264.83c2.38,1.45,4.85,2.2,7.37,2.51-.55-9.15-1.88-17.88-1.88-19.41,0-2.54-1.34-9.64.2-14.91,4.58-2.26,7.39-4.97,8.66-9.2-6.85-6.79-13.12-14.04-21.71-18.42-.06.22-.12.44-.16.66-.9,4.57-1.73,9.57-1.9,14.15-.01,0-.02,0-.03,0,0,0-3.97,22.95-5.3,28.05-.12.46-.24.91-.36,1.35,3.5,6.18,9.03,11.26,15.11,15.21Z"/>
                  <path class="cls-27" d="M329.08,284.22c-.53.94-1.34,1.82-2.5,2.61-10.4,7.03-31.02,4.86-46.53,2.11-4.63-.82-7.84-1.37-10.09-1.75-2.6,2.42-6.36,6.51-11.33,7.36-.82.14-1.62.3-2.4.47-2.16,1.11-4.74,1.49-7.97,1.32-.61,0-1.23-.05-1.85-.15-.32-.03-.64-.07-.97-.11-2.25-.29-3.97-1.16-5.3-2.4-5.66-3.84-10.74-14.17-14.3-23.18-.54-1.39-1.05-2.73-1.53-4.03.53.07,1.06.18,1.62.37,23.46,8.48,47.91,12.98,72.87,11.98,10.98-.5,19.96-4.99,24.95-14.47.88-1.77,1.86-3.49,2.94-5.14.8,8.2,1.62,16.92,2.38,25.02Z"/>
                  <path class="cls-24" d="M258.63,209.57c-.24-.42-.48-.85-.72-1.27-2.98-2.55-5.24-5.68-6.08-9.85-.89,1.94-2.03,4.13-2.94,4.92-1.66,1.45-3.9,19.63-1.08,32.29.24,1.08,1.59,1.45,2.36.65l2.93-3.07c4.65-4.87,9.07-10.18,12.17-10.4,3.1-.22,12.39,3.54,12.39,3.54,0,0-15.71-11.06-19.03-16.82Z"/>
                  <path class="cls-25" d="M252.32,192.96s-3.46,6.27-4.43,8.41c-.58,1.28-2.42,19.39-1.08,32.29.11,1.1,1.59,1.45,2.36.65l2.93-3.07c4.65-4.87,9.07-10.18,12.17-10.4,2-.14,6.6,1.38,9.59,2.47.43.16.74-.42.37-.69-4.54-3.36-14.1-10.72-16.6-15.06-3.32-5.75-5.97-11.29-5.31-14.6Z"/>
                  <path class="cls-13" d="M304.23,255.52s3.03,2.44,12.1,3.12c6.67.5,13.18,1.6,15.18,1.62,2,.02,4.39.46,7.01-1.23,0,0,.25-3.12-6.08-5.49-6.33-2.37-24.35-6.95-28.2,1.98Z"/>
                  <path class="cls-6" d="M304.23,255.52s3.03,2.44,12.1,3.12c6.67.5,13.18,1.6,15.18,1.62,2,.02,4.39.46,7.01-1.23,0,0,.25-3.12-6.08-5.49-6.33-2.37-24.35-6.95-28.2,1.98Z"/>
                  <path class="cls-13" d="M214.89,260.07s3.44,1.74,12.2-.02c8.76-1.76,19.16-3.21,18.89-7.94,0,0-5.68-2.95-15.64-.53-9.96,2.42-14.51,5.83-15.45,8.49Z"/>
                  <path class="cls-6" d="M214.89,260.07s3.44,1.74,12.2-.02c8.76-1.76,19.16-3.21,18.89-7.94,0,0-5.68-2.95-15.64-.53-9.96,2.42-14.51,5.83-15.45,8.49Z"/>
                  <path class="cls-20" d="M258.68,178.67s-.89.59-1.18,2.81c-.3,2.22,0,6.96-4.44,9.92-4.44,2.96-6.68,12.04-6.37,17.5s14.52-13.5,16.15-16.31c1.63-2.81,1.93-15.4-4.15-13.92Z"/>
                  <path class="cls-4" d="M260.3,178.63c4.35,5.57-3.96,11.42-7.79,14.83-4.69,4.11-5.14,10.15-4.13,16.08,3.89-2.25,13.15-14.71,14.44-16.94,1.47-2.53,1.85-13-2.53-13.97Z"/>
                  <path class="cls-6" d="M258.68,178.67s-.89.59-1.18,2.81c-.3,2.22,0,6.96-4.44,9.92-4.44,2.96-6.68,12.04-6.37,17.5s14.52-13.5,16.15-16.31c1.63-2.81,1.93-15.4-4.15-13.92Z"/>
                  <path class="cls-4" d="M268.2,221.14s-.49,3.11,2.86,4.04c3.36.93,8-3.01,9.83-7.6,1.84-4.59-5.19-3.81-7.36-2.92-2.17.89-3.92,3.03-5.33,6.48Z"/>
                  <path class="cls-11" d="M263.71,187.12s-14.37,7.4-15.85,14.96c-1.48,7.55-2.81,16.29-1.18,22.36,1.63,6.07,8.29,7.4,13.48,5.04,5.18-2.37,8.29-5.18,9.63-9.77,0,0,6.66,1.34,9.92-1.11,3.26-2.45.74-5.18.74-5.18,0,0,5.33-3.34.15-8.23,0,0,4.85-5.37-7.95-11.69,1.39-.84,2.92-2.03,4.51-2.38,1.3-.29,2.51-.43,3.81-.78,1.43-.39,2.99-.46,4.38-.95,1.38-.49,2.76-.94,3.11-2.56.3-1.43-.77-2.39-2.08-2.68-3.41-.74-7.26-1.04-12.29-.15-5.04.89-10.37,3.11-10.37,3.11Z"/>
                  <path class="cls-6" d="M263.71,187.12s-14.37,7.4-15.85,14.96c-1.48,7.55-2.81,16.29-1.18,22.36,1.63,6.07,8.29,7.4,13.48,5.04,5.18-2.37,8.29-5.18,9.63-9.77,0,0,6.66,1.34,9.92-1.11,3.26-2.45.74-5.18.74-5.18,0,0,5.33-3.34.15-8.23,0,0,4.85-5.37-7.95-11.69,1.39-.84,2.92-2.03,4.51-2.38,1.3-.29,2.51-.43,3.81-.78,1.43-.39,2.99-.46,4.38-.95,1.38-.49,2.76-.94,3.11-2.56.3-1.43-.77-2.39-2.08-2.68-3.41-.74-7.26-1.04-12.29-.15-5.04.89-10.37,3.11-10.37,3.11Z"/>
                  <path class="cls-4" d="M261.32,228.91c4.49-2.26,7.23-4.98,8.46-9.21,0,0,.1.02.28.05-.59-.56-1.38-1.05-1.97-1.35-1.07,4.28-3.59,7.75-6.77,10.51Z"/>
                  <path class="cls-4" d="M287.91,184.95c-3.32,5.75-12.38,4.12-18.04,7.17,1.04.52,2.09.91,3.16,1.13,1.28-.81,2.67-1.81,4.11-2.14,1.3-.29,2.51-.43,3.81-.78,1.43-.39,2.99-.46,4.38-.95,1.38-.49,2.76-.94,3.11-2.56.16-.77-.08-1.41-.54-1.88Z"/>
                  <path class="cls-23" d="M264.47,278.11c-4.07,10.84-15.52,18.54-25.81,11.56-5.67-3.84-10.75-14.17-14.31-23.19-3.17-8.03-5.15-15.01-5.27-15.46,0-.01,0-.02,0-.02l26.06-4.65s0,0,.02.02c0,0,.02.01.03.03.04.04.12.11.23.21.05.05.11.11.18.17.31.3.78.75,1.36,1.33l.29.29c.78.78,1.74,1.76,2.79,2.89,6.56,7,17.08,19.72,14.43,26.79Z"/>
                  <path class="cls-4" d="M250.04,251.32c-7.26,0-14.25.89-19.37,6.69-2.49,2.59-4.58,5.43-6.31,8.47-3.17-8.03-5.15-15.01-5.27-15.46,0-.01,0-.02,0-.02l26.06-4.65s0,0,.02.02c0,0,.01.01.03.03.04.04.12.11.23.21.05.05.11.11.18.17.31.3.78.75,1.36,1.33l.29.29c.78.78,1.74,1.76,2.79,2.89Z"/>
                  <path class="cls-6" d="M264.47,278.11c-4.07,10.84-15.52,18.54-25.81,11.56-5.67-3.84-10.75-14.17-14.31-23.19-3.17-8.03-5.15-15.01-5.27-15.46,0-.01,0-.02,0-.02l26.06-4.65s0,0,.02.02c0,0,.02.01.03.03.04.04.12.11.23.21.05.05.11.11.18.17.31.3.78.75,1.36,1.33l.29.29c.78.78,1.74,1.76,2.79,2.89,6.56,7,17.08,19.72,14.43,26.79Z"/>
                  <path class="cls-9" d="M307.77,250.42l-.98,15,19.7,14.5c.55.41,1.34.19,1.6-.44,1.49-3.55,5.61-14.51,6.2-28.55.62-15.01-26.52-.52-26.52-.52Z"/>
                  <path class="cls-4" d="M332.73,263.89c.76-3.86,1.36-8.24,1.56-12.96.62-15.01-26.52-.52-26.52-.52l-.22,3.41c10.15-1.11,18.61,3.22,25.18,10.07Z"/>
                  <path class="cls-6" d="M326.49,279.92c.55.41,1.34.19,1.6-.44,1.49-3.55,5.61-14.51,6.2-28.55.62-15.01-26.52-.52-26.52-.52l-.98,15"/>
                  <path class="cls-30" d="M317.97,261.42s-7.08-2.04-16.46.7c-9.38,2.74-22.14,6.52-28.27,5.55-6.12-.97-10.55-4.65-12.04-.14-1.49,4.51,1.1,14.07,1.65,14.51.55.44.18.15,15.7,2.89,15.51,2.75,36.14,4.92,46.53-2.11,10.39-7.03-7.11-21.41-7.11-21.41Z"/>
                  <path class="cls-6" d="M317.97,261.42s-7.08-2.04-16.46.7c-9.38,2.74-22.14,6.52-28.27,5.55-6.12-.97-10.55-4.65-12.04-.14-1.49,4.51,1.1,14.07,1.65,14.51.55.44.18.15,15.7,2.89,15.51,2.75,36.14,4.92,46.53-2.11"/>
                  <path class="cls-31" d="M267.22,266.01s-11.1-5.09-16.1-2.01c-5,3.07-7.85,5.9-8.67,7.5-.82,1.6-1.84,2.88-1.25,5.15.59,2.27.1,2.33.31,5.64.21,3.32-.25,3.7,3.17,7.32,3.42,3.62,7.5,1.77,12.47.92,4.97-.84,8.73-4.94,11.33-7.35,2.6-2.41,4.77-12.68-1.25-17.18Z"/>
                  <path class="cls-4" d="M262.55,264.28c-3.64-1.11-8.55-2.06-11.43-.28-5,3.07-7.85,5.9-8.67,7.5-.82,1.6-1.84,2.88-1.25,5.15.59,2.27.1,2.33.31,5.64.21,3.32-.25,3.7,3.17,7.32,3.42,3.62,7.5,1.77,12.47.92,3.63-.62,6.61-2.97,8.97-5.13-.43-.5-.85-1.04-1.24-1.61-3.98-5.75-.13-13.06-2.32-19.52Z"/>
                  <path class="cls-6" d="M267.22,266.01s-11.1-5.09-16.1-2.01c-5,3.07-7.85,5.9-8.67,7.5-.82,1.6-1.84,2.88-1.25,5.15.59,2.27.1,2.33.31,5.64.21,3.32-.25,3.7,3.17,7.32,3.42,3.62,7.5,1.77,12.47.92,4.97-.84,8.73-4.94,11.33-7.35"/>
                  <path class="cls-22" d="M236.33,204.67c-.63-.84-8.74,1.66-16.07,11.33-5.03,6.63-5.63,21.31-6.71,36.38-.56,7.86,1.61,7.41,1.61,7.41,0,0,2.17-5.59,15.91-7.44,13.75-1.85,14.44-.08,14.44-.08,0,0,1.83-32.97-9.19-47.6Z"/>
                  <path class="cls-6" d="M236.33,204.67c-.63-.84-8.74,1.66-16.07,11.33-5.03,6.63-5.63,21.31-6.71,36.38-.56,7.86,1.61,7.41,1.61,7.41,0,0,2.17-5.59,15.91-7.44,13.75-1.85,14.44-.08,14.44-.08"/>
                  <path class="cls-27" d="M244.43,228.46c-.39,1.61-.99,3.2-1.96,4.75-5.28,7.84-11.18,14.19-17.59,20.4,1.75-.5,3.8-.94,6.21-1.27,13.75-1.85,14.44-.08,14.44-.08,0,0,.63-11.43-1.09-23.81Z"/>
                  <path class="cls-14" d="M245.5,248.82c-.16,0-.11-2.21-.22-5.76-.03-.89-.06-1.86-.12-2.9-.04-1.04-.14-2.15-.23-3.32-.21-2.33-.5-4.89-.92-7.56-.44-2.67-.96-5.19-1.49-7.47-.28-1.14-.54-2.22-.82-3.22-.26-1.01-.54-1.94-.79-2.79-1.01-3.4-1.75-5.48-1.6-5.54.12-.05,1.1,1.94,2.3,5.31.3.84.62,1.77.92,2.78.32,1,.61,2.09.92,3.23.59,2.29,1.15,4.84,1.59,7.54.43,2.7.69,5.29.85,7.66.06,1.18.13,2.31.13,3.36.03,1.05.02,2.03,0,2.93-.09,3.58-.4,5.78-.52,5.77Z"/>
                  <path class="cls-22" d="M313.93,204.43s-5.24,11.27-5.78,19.08c-.54,7.8-1.82,21.44-2.69,24.1-1.43,4.37-1.91,5.02-1.29,7.53,0,0,4.13-4.96,18.64-3.07,10.11,1.32,14.16,4.62,15.65,6.58-.09-.11.43-1.76.45-1.97.13-1.34-.21-2.56-.48-3.87-.64-3.1-1.24-6.21-1.79-9.33-.79-4.45-1.49-8.92-2.11-13.41-.46-3.37-.88-6.35-2.28-9.46-2.42-5.36-6.15-10.69-11.2-13.86-2.14-1.34-4.56-2.24-7.1-2.31Z"/>
                  <path class="cls-6" d="M308.14,223.51c-.54,7.8-1.82,21.44-2.69,24.1-1.43,4.37-1.91,5.02-1.29,7.53,0,0,4.13-4.96,18.64-3.07,10.11,1.32,14.16,4.62,15.65,6.58-.09-.11.43-1.76.45-1.97.13-1.34-.21-2.56-.48-3.87-.64-3.1-1.24-6.21-1.79-9.33-.79-4.45-1.49-8.92-2.11-13.41-.46-3.37-.88-6.35-2.28-9.46-2.42-5.36-6.15-10.69-11.2-13.86-2.14-1.34-4.56-2.24-7.1-2.31"/>
                  <path class="cls-27" d="M338.42,252.8c-.64-3.1-1.24-6.21-1.79-9.33-.63-3.56-1.21-7.13-1.73-10.71-.47,2.92-1.18,5.8-2.09,8.74-1.8,5.4-6.88,8.29-11.9,10.35.61.06,1.24.13,1.89.21,10.11,1.32,14.16,4.62,15.65,6.58-.09-.11.43-1.76.45-1.97.13-1.34-.21-2.56-.48-3.87Z"/>
                  <path class="cls-14" d="M249.46,198.65c-.08-.04.43-1.27,1.7-3,1.26-1.72,3.38-3.86,6.15-5.62,1.37-.88,2.75-1.62,4.04-2.19,1.28-.59,2.48-1.02,3.49-1.36,2.03-.65,3.32-.88,3.35-.78.04.12-1.2.56-3.15,1.33-.97.41-2.12.88-3.36,1.5-1.25.6-2.57,1.34-3.91,2.2-2.68,1.71-4.79,3.7-6.14,5.29-1.36,1.58-2.04,2.7-2.16,2.63Z"/>
                  <path class="cls-14" d="M281.01,205.6c-.13.18-2.26-1.11-4.71-2.99-2.46-1.88-4.12-3.79-3.95-3.95.17-.16,2.04,1.44,4.46,3.29,2.42,1.86,4.34,3.46,4.2,3.65Z"/>
                  <path class="cls-14" d="M280.92,214.64c-.13.03-.3-.56-.86-1.3-.55-.75-1.53-1.61-2.78-2.37-1.25-.76-2.46-1.44-3.22-2.11-.78-.65-1.11-1.21-1.02-1.28.09-.08.55.3,1.37.8.81.51,2.01,1.09,3.32,1.88,1.31.8,2.36,1.83,2.83,2.76.49.93.46,1.6.36,1.61Z"/>
                  <path class="cls-14" d="M275.65,218.98c.06.08-.26.46-.97.82-.35.18-.8.34-1.31.44-.52.09-1.1.13-1.7.06-.6-.07-1.16-.24-1.64-.45-.48-.21-.88-.48-1.18-.73-.6-.51-.83-.96-.75-1.02.09-.09.46.19,1.09.54.62.34,1.53.71,2.58.83.53.06,1.03.05,1.49,0,.46-.05.87-.13,1.21-.23.68-.19,1.11-.38,1.18-.27Z"/>
                  <path class="cls-14" d="M261.97,228.36c-.03-.13.61-.37,1.56-.88.47-.26,1.01-.6,1.56-1.04.55-.44,1.11-.98,1.64-1.59,1.06-1.25,1.78-2.57,2.27-3.54.49-.98.78-1.6.9-1.56.1.03,0,.73-.36,1.8-.37,1.06-1.04,2.51-2.18,3.85-.57.67-1.2,1.23-1.82,1.67-.63.43-1.24.75-1.77.96-1.07.41-1.79.45-1.81.35Z"/>
                  <path class="cls-14" d="M273.1,222.55c-.11-.04-.14-.24-.2-.5-.06-.26-.17-.57-.37-.91-.39-.68-.96-1.09-.88-1.31.04-.1.27-.13.6,0,.32.13.73.42,1,.89.28.47.34,1.01.24,1.36-.1.36-.29.51-.39.47Z"/>
                  <path class="cls-14" d="M276.17,195.66c-.04.1-.7-.05-1.66-.54-.96-.48-2.16-1.35-3.46-2.24-1.3-.89-2.55-1.54-3.52-1.85-.96-.32-1.61-.37-1.61-.49,0-.1.67-.27,1.76-.08,1.09.18,2.5.8,3.84,1.73,1.34.92,2.45,1.84,3.3,2.43.84.6,1.4.93,1.35,1.05Z"/>
                  <path class="cls-19" d="M245.93,216.23s-3.97,22.95-5.3,28.05c-4.48,17.07-7.58,23.95-6.92,30.09.66,6.14,1.27,16.54,10.23,17.7,8.96,1.16,13.53-.82,17.2-8.63,4.29-9.13-.28-36.68-.28-39.5s-1.66-11.29.83-16.6c2.49-5.31-7.98-12.45-15.77-11.12Z"/>
                  <path class="cls-6" d="M245.93,216.23s-3.97,22.95-5.3,28.05c-4.48,17.07-7.58,23.95-6.92,30.09"/>
                  <path class="cls-6" d="M243.95,292.07c8.96,1.16,13.53-.82,17.2-8.63,4.29-9.13-.28-36.68-.28-39.5s-1.66-11.29.83-16.6"/>
                  <path class="cls-14" d="M235.1,279.13s-.1-.13-.23-.4c-.12-.28-.31-.68-.47-1.23-.36-1.08-.74-2.72-.79-4.78-.07-2.06.27-4.5.84-7.13.29-1.32.62-2.69.97-4.1.35-1.41.71-2.89,1.11-4.38,1.63-5.96,3.11-11.36,4.18-15.29.52-1.95.94-3.53,1.23-4.64.29-1.1.48-1.7.53-1.69.06.01-.02.64-.22,1.76-.2,1.12-.52,2.73-.98,4.71-.89,3.96-2.35,9.38-3.94,15.36-1.49,5.99-3.16,11.39-3.14,15.4-.03,2,.26,3.61.52,4.7.11.55.25.97.31,1.26.07.29.09.45.07.46Z"/>
                  <path class="cls-14" d="M261.16,283.66c-.13-.03.22-1.72.65-4.47.21-1.37.42-3.01.6-4.84.17-1.83.3-3.84.34-5.95.04-2.12-.02-4.13-.11-5.96-.11-1.83-.25-3.48-.41-4.86-.31-2.76-.6-4.46-.47-4.49.1-.02.59,1.64,1.05,4.41.24,1.38.44,3.04.6,4.89.14,1.85.21,3.89.18,6.03-.05,2.14-.2,4.18-.41,6.02-.23,1.84-.5,3.49-.79,4.86-.57,2.74-1.13,4.39-1.23,4.36Z"/>
                  <path class="cls-14" d="M255.12,189.54c-.12-.06.44-1.17.89-3.1.23-.96.44-2.12.59-3.42.08-.65.12-1.33.2-2.07.09-.73.22-1.56.77-2.3.13-.18.29-.34.47-.48.18-.15.4-.26.61-.34.43-.15.88-.16,1.28-.11.81.12,1.51.49,2.06.96.55.46.96,1,1.27,1.55.15.28.28.56.37.85.09.29.13.55.17.81.15,1.02.16,1.84.15,2.4-.01.57-.06.88-.12.88-.06,0-.12-.31-.2-.86-.09-.55-.19-1.36-.41-2.31-.11-.49-.26-.95-.56-1.42-.29-.46-.68-.92-1.16-1.3-.47-.38-1.06-.66-1.68-.74-.31-.04-.62-.02-.89.08-.13.05-.26.12-.37.21-.12.09-.23.21-.32.33-.38.51-.53,1.21-.62,1.9-.08.69-.15,1.41-.25,2.07-.19,1.33-.47,2.51-.78,3.48-.62,1.95-1.38,3-1.46,2.94Z"/>
                  <path class="cls-14" d="M274.69,192.17s.33-.33,1.06-.74c.72-.41,1.82-.92,3.26-1.31.72-.2,1.52-.36,2.4-.47.88-.11,1.82-.1,2.75-.19.46-.05.93-.13,1.36-.28.43-.15.86-.39,1.24-.69.38-.29.72-.66.91-1.06.09-.21.13-.38.13-.63,0-.23-.03-.47-.11-.69-.14-.44-.45-.82-.83-1.08-.36-.26-.85-.38-1.34-.47-.49-.09-1-.14-1.5-.18-.51-.04-1-.08-1.48-.13-1.92-.16-3.65-.23-5.1-.19-2.91.07-4.67.52-4.7.39-.01-.05.41-.23,1.21-.44.8-.21,1.98-.42,3.46-.54,1.48-.12,3.24-.11,5.19.01.48.03.98.06,1.49.1.51.03,1.04.08,1.58.17.54.1,1.13.22,1.67.59.52.35.95.88,1.15,1.5.1.31.15.64.15.95,0,.16-.01.32-.05.49-.04.17-.09.33-.16.48-.28.59-.71,1.01-1.17,1.36-.46.34-.95.61-1.48.79-.53.17-1.05.25-1.55.29-1.01.08-1.91.04-2.75.12-.84.07-1.62.19-2.32.35-1.41.31-2.51.72-3.26,1.03-.75.31-1.17.5-1.2.45Z"/>
                  <path class="cls-14" d="M230.11,225.37c.15-.05.56.91,1.3,2.38.37.74.84,1.6,1.4,2.53.57.92,1.23,1.92,1.99,2.91.77.99,1.56,1.89,2.3,2.67.76.78,1.47,1.46,2.09,2,1.23,1.1,2.05,1.73,1.97,1.87-.07.11-1.04-.31-2.43-1.29-.7-.49-1.48-1.13-2.3-1.9-.81-.78-1.66-1.69-2.45-2.72-.79-1.03-1.45-2.08-2-3.07-.53-.99-.95-1.92-1.24-2.71-.59-1.6-.75-2.64-.62-2.68Z"/>
                  <path class="cls-14" d="M313.1,233.13c.13.01.17.98-.21,2.49-.37,1.5-1.22,3.48-2.46,5.46-1.23,1.98-2.51,3.64-3.44,4.83-.94,1.19-1.58,1.88-1.7,1.8-.12-.08.31-.92,1.09-2.22.78-1.3,1.96-3.02,3.15-4.96,1.2-1.93,2.11-3.76,2.64-5.14.54-1.38.76-2.29.91-2.26Z"/>
                  <path class="cls-14" d="M306,246.85c-.14,0-.24-2.06-.2-5.39.04-3.33.23-7.94.86-13,.32-2.53.74-4.93,1.2-7.1.25-1.08.47-2.11.74-3.06.13-.48.25-.94.38-1.38.14-.44.27-.86.39-1.26,1.03-3.2,1.97-5.07,2.08-5.02.16.06-.52,2.01-1.35,5.22-.1.4-.21.82-.32,1.26-.11.44-.2.9-.31,1.37-.23.95-.42,1.97-.64,3.04-.4,2.15-.79,4.53-1.1,7.04-.62,5.02-.93,9.59-1.16,12.91-.23,3.31-.41,5.37-.56,5.37Z"/>
                  <path class="cls-14" d="M316.87,218.5c.05.12-.6.42-1.56,1.05-.12.08-.24.16-.37.25-.13.09-.26.19-.39.3-.28.2-.55.44-.84.69-.57.52-1.16,1.15-1.72,1.88-.55.74-1.02,1.52-1.42,2.27-.19.38-.37.74-.52,1.1-.08.18-.16.34-.22.52-.07.17-.13.33-.19.49-.47,1.26-.7,2.12-.79,2.05-.07-.05,0-1.03.39-2.41.05-.17.1-.35.16-.54.06-.19.13-.37.2-.56.13-.39.31-.77.48-1.18.38-.8.85-1.61,1.42-2.38.58-.75,1.2-1.38,1.8-1.88.31-.24.6-.47.9-.64.15-.09.28-.19.42-.26.14-.07.28-.14.41-.21,1.05-.51,1.8-.62,1.84-.53Z"/>
                  <g>
                    <path class="cls-32" d="M289.99,106.86c-1.53,3.17,5.39,7.14,11.73,4.76,6.34-2.38,6.27-8.68,6.16-9.16-.11-.49-3.55,3.75-7.71,4.02-6.23.4-8.85-2.38-10.18.38Z"/>
                    <path class="cls-32" d="M263.26,110.23c2.81,1.44,2.64,9.49-9.67,13.05-7.38,2.14-12.16-3.2-12.24-3.62s5.12.7,9.49-1.5c6.55-3.29,9.97-9.18,12.41-7.93Z"/>
                    <path class="cls-17" d="M301.01,118.39c13.16-3.3,17,23.96,8.19,28.42-8.96,4.54-14.18-3.38-15.02-10.54-1.05-8.98,1.34-16.51,6.83-17.88Z"/>
                    <path class="cls-17" d="M258.51,126.93c15.41-3.86,19.05,24.49,8.59,29.28-8.49,3.88-16.38-3.05-17.12-10.46-.93-9.31,2.1-17.2,8.53-18.82Z"/>
                    <g>
                      <ellipse class="cls-15" cx="261.87" cy="137.11" rx="10.54" ry="6.99" transform="translate(118.24 395.47) rotate(-88.57)"/>
                      <ellipse class="cls-5" cx="258.97" cy="131.6" rx="1.81" ry="1.31" transform="translate(120.92 387.19) rotate(-88.57)"/>
                    </g>
                    <g>
                      <ellipse class="cls-15" cx="302.57" cy="128.65" rx="10.54" ry="6.99" transform="translate(166.39 427.91) rotate(-88.57)"/>
                      <ellipse class="cls-5" cx="299.67" cy="123.14" rx="1.81" ry="1.31" transform="translate(169.07 419.63) rotate(-88.57)"/>
                    </g>
                    <path class="cls-32" d="M299.24,117.86c3.41-1.82,7.85-.9,10.29,2.02,1.02,1.18,1.77,2.55,2.25,4.01.14.43-.45.72-.7.35-.8-1.16-1.7-2.23-2.76-3.12-2.21-1.92-5.39-2.48-8.05-1.25-2.44,1.18-3.98,3.55-5.24,5.94-.15.29-.58.16-.56-.16.15-1.98.95-5.75,4.77-7.79Z"/>
                    <path class="cls-32" d="M256.19,126.48c.77-.38,1.64-.63,2.48-.75,1.61-.26,3.28-.33,4.91.02,2.47.48,4.57,2.22,5.76,4.39v.02c.24.4-.28.8-.61.48-.55-.52-1.11-1.01-1.7-1.41-1.17-.82-2.45-1.29-3.79-1.44-1.35-.16-2.76,0-4.18.23-.66.11-1.27.27-1.88.55-5.31,2.72-6.61,9.83-7.08,15.58-.02.3-.45.33-.52.03-.82-3.8-1.92-13.47,6.62-17.7Z"/>
                    <path class="cls-8" d="M291.99,148.25s1.83,6.16-1.5,7.77c-.61.3-1.13-.45-1.88-.27-.76.18-1.46.89-1.15,2.28.51,2.31,4.95,2.43,6.78-2.67,1.27-3.53-1.06-6.29-2.24-7.1Z"/>
                    <path class="cls-28" d="M295.31,148.37c2.01,3.23.59,7.79-2.38,10.05-.2.15-.4.29-.62.42-.49.3-1.01-.33-.63-.76,1.77-2,2.49-4.73,1.8-7.32-.55-2.36-2.45-3.55-4.77-3.93-1.51-.26-2.96-.02-4.46.43-.45.14-.76-.46-.38-.74l.02-.02c2.2-1.66,8.2-3.29,11.42,1.86Z"/>
                    <path class="cls-28" d="M276.56,173.68c7.94-3.82,14.78-5.11,23.02-1.28-6.02-6.98-17.45-5.49-23.02,1.28h0Z"/>
                  </g>
                </g>
              </g>
            </g>
          </g>
          <g>
            <path class="cls-5" d="M43.52,130.95c.66.3,1.34.64,2.03,1.02.69.38,1.32.85,1.89,1.41.56.55,1.03,1.22,1.41,2,.37.78.58,1.7.62,2.77.06,1.51-.18,2.85-.74,4.02-.56,1.16-1.34,2.14-2.35,2.94-1.01.8-2.22,1.42-3.63,1.86-1.41.44-2.92.69-4.54.75-.75.02-1.52-.02-2.3-.11-.79-.1-1.57-.24-2.34-.43-.77-.19-1.51-.42-2.24-.69-.73-.27-1.41-.55-2.05-.85l2.43-6.85c.32.13.7.29,1.15.5.45.2.93.39,1.44.56.51.17,1.04.32,1.6.45.55.13,1.1.18,1.63.16.79-.04,1.46-.18,2-.42s.81-.63.78-1.18c-.02-.36-.21-.64-.56-.83-.35-.19-.77-.38-1.26-.58-.32-.08-.74-.2-1.26-.35-.52-.15-1.08-.35-1.68-.61-.6-.26-1.2-.57-1.81-.93-.61-.36-1.16-.8-1.66-1.31-.5-.51-.92-1.1-1.25-1.78-.33-.67-.51-1.44-.53-2.32-.04-1.49.21-2.82.77-3.98.55-1.16,1.31-2.15,2.27-2.98.96-.82,2.08-1.45,3.36-1.89,1.28-.44,2.65-.69,4.1-.75,1.34-.06,2.68,0,4,.21,1.32.2,2.56.54,3.71,1.01l-1.89,7.39c-.85-.36-1.63-.67-2.34-.91s-1.53-.43-2.46-.56c-.28-.04-.65-.06-1.12-.06s-.89.05-1.33.14c-.44.1-.82.25-1.14.46-.32.21-.49.51-.51.9,0,.17.08.3.24.4.16.1.35.17.58.22.22.05.45.1.69.13s.43.06.58.08c.62.13,1.28.28,1.98.45.6.13,1.17.31,1.73.54Z"/>
            <path class="cls-5" d="M60.09,144.84h-.06c-.58.81-1.31,1.38-2.19,1.7-.89.32-1.84.48-2.86.48-.85,0-1.66-.15-2.43-.46-.77-.31-1.44-.75-2.02-1.33-.58-.58-1.04-1.27-1.38-2.08-.34-.81-.51-1.72-.51-2.72,0-.87.17-1.68.51-2.42.34-.74.8-1.38,1.39-1.92.59-.54,1.28-.97,2.08-1.28.8-.31,1.67-.46,2.61-.46s1.81.14,2.48.43c.67.29,1.24.61,1.71.98v-.96c0-.98-.32-1.63-.96-1.95-.64-.32-1.47-.48-2.5-.48-.94,0-1.81.1-2.62.29-.81.19-1.63.42-2.46.67l1.25-5.09c1.02-.3,2.09-.51,3.2-.62,1.11-.12,2.24-.18,3.39-.18,1.04,0,2.07.12,3.07.37s1.88.65,2.64,1.2,1.36,1.27,1.81,2.14c.45.88.66,1.95.64,3.23l-.35,12.1-6.43.54v-2.18ZM56.03,138.92c-.73.11-1.32.36-1.79.75-.47.39-.67.84-.61,1.33.08.49.39.86.91,1.1.52.25,1.2.3,2.03.18s1.45-.39,1.86-.8c.41-.4.56-.84.48-1.31-.06-.41-.34-.75-.82-1.04s-1.17-.36-2.06-.21Z"/>
            <path class="cls-5" d="M80.67,127.59c1.28,0,2.45.28,3.52.83s1.99,1.29,2.78,2.19c.79.91,1.4,1.94,1.84,3.09.44,1.15.66,2.33.66,3.52,0,1.6-.27,3.02-.82,4.26-.54,1.24-1.26,2.28-2.16,3.12-.9.84-1.94,1.48-3.12,1.92-1.18.44-2.42.66-3.7.66-.98,0-1.9-.17-2.77-.51s-1.67-.7-2.42-1.09v1.38h-5.06l-.19-25.79,7.39-.58-.29,8.32c.66-.36,1.3-.67,1.92-.93s1.42-.38,2.4-.38ZM80.09,140.49c.51-.15.95-.36,1.31-.62.36-.27.66-.57.88-.91s.37-.7.43-1.09c.06-.38.04-.77-.06-1.15-.11-.38-.29-.72-.54-1.01-.26-.29-.57-.52-.94-.7-.37-.18-.79-.29-1.25-.32-.46-.03-.94.03-1.46.18-.51.15-.96.36-1.33.64-.37.28-.67.59-.9.93-.22.34-.37.7-.43,1.09s-.04.77.06,1.15c.11.38.29.72.54,1.01.26.29.57.52.94.69.37.17.79.27,1.26.3s.96-.03,1.47-.18Z"/>
            <path class="cls-5" d="M96.06,127.88v3.55h.06c.55-2.37,2.15-3.55,4.8-3.55.58,0,1.12.03,1.63.1l-1.66,6.82c-.15-.02-.31-.03-.48-.03h-.64c-.9,0-1.67.29-2.32.88-.65.59-.98,1.51-.98,2.77v8.22l-6.72.58-.19-18.75,6.5-.58Z"/>
            <path class="cls-5" d="M41.4,157.61c-1.54,2.35-2.69,4.52-3.47,6.53-.78,2.01-1.33,3.73-1.65,5.18-.32,1.45-.5,3-.54,4.64.21,1.56.52,2.96.91,4.19.39,1.24.99,2.61,1.78,4.11.79,1.5,1.87,2.98,3.23,4.43l-1.57,1.12c-1.39-1.19-2.54-2.45-3.47-3.76-.93-1.31-1.65-2.55-2.18-3.71-.52-1.16-.92-2.24-1.2-3.23-.28-.99-.45-1.75-.51-2.29-.06-.53-.1-.82-.1-.86.06-1.83.3-3.55.72-5.15.42-1.6,1.12-3.47,2.11-5.62.99-2.14,2.44-4.45,4.34-6.93l1.6,1.34Z"/>
            <path class="cls-5" d="M60.49,159.51c1.25.44,2.24,1.08,2.98,1.94.74.85,1.23,1.87,1.49,3.06.26,1.18.28,2.42.06,3.71-.21,1.29-.64,2.59-1.28,3.9-.64,1.31-1.49,2.53-2.54,3.65-1.06,1.12-2.3,2.09-3.74,2.91-1.44.82-3.06,1.4-4.85,1.74l-.13,5.76-7.74-.8-.51-24.99c4.05-.47,7.96-.88,11.71-1.25,1.79-.19,3.31-.07,4.56.37ZM56.44,169.09s.01-.14.03-.35c.02-.21-.01-.47-.1-.77-.09-.3-.27-.55-.54-.75-.28-.2-.72-.3-1.33-.29s-1.42.22-2.45.62l-.32,5.12c.77-.17,1.43-.42,2-.74.57-.32,1.04-.66,1.42-1.02.38-.36.68-.71.9-1.04.21-.33.34-.59.38-.78Z"/>
            <path class="cls-5" d="M74.59,183.24h-.06c-.58.81-1.31,1.38-2.19,1.7-.89.32-1.84.48-2.86.48-.85,0-1.66-.15-2.43-.46-.77-.31-1.44-.75-2.02-1.33-.58-.58-1.04-1.27-1.38-2.08-.34-.81-.51-1.72-.51-2.72,0-.88.17-1.68.51-2.42.34-.74.8-1.38,1.39-1.92.59-.54,1.28-.97,2.08-1.28.8-.31,1.67-.46,2.61-.46s1.81.14,2.48.43c.67.29,1.24.61,1.71.98v-.96c0-.98-.32-1.63-.96-1.95-.64-.32-1.47-.48-2.5-.48-.94,0-1.81.1-2.62.29-.81.19-1.63.42-2.46.67l1.25-5.09c1.02-.3,2.09-.51,3.2-.62,1.11-.12,2.24-.18,3.39-.18,1.04,0,2.07.12,3.07.37s1.88.65,2.64,1.2c.76.56,1.36,1.27,1.81,2.14.45.88.66,1.95.64,3.23l-.35,12.1-6.43.54v-2.18ZM70.52,177.32c-.73.11-1.32.36-1.79.75-.47.4-.67.84-.61,1.33.08.49.39.86.91,1.1.52.25,1.2.3,2.03.18s1.45-.39,1.86-.8.56-.84.48-1.31c-.06-.4-.34-.75-.82-1.04-.48-.29-1.17-.36-2.06-.21Z"/>
            <path class="cls-5" d="M92.27,185.72c-.31.01-.65.02-1.01.02-2.05,0-3.64-.46-4.78-1.39s-1.71-2.44-1.71-4.53v-7.58l-1.76.03.19-5.54h1.5v-2.11l6.94-3.14v5.25l2.59-.38-.35,5.89h-2.18v5.6c0,.64.09,1.07.27,1.28.18.21.59.32,1.23.32.28,0,.5-.01.67-.03.17-.02.33-.05.48-.1l-1.12,6.34c-.34.04-.67.07-.98.08Z"/>
            <path class="cls-5" d="M95.84,159.17l7.33-.32-.38,5.63-6.98.51.03-5.82ZM95.87,167.27l7.14-.58-.35,18.46-6.78.58v-18.46Z"/>
            <path class="cls-5" d="M122.59,183.05c-1.3.94-2.64,1.62-4,2.03-1.37.42-2.93.62-4.7.62-1.45,0-2.78-.25-3.98-.75s-2.25-1.18-3.12-2.03c-.88-.85-1.56-1.85-2.05-2.99-.49-1.14-.74-2.35-.74-3.63,0-1.6.26-3.03.77-4.29s1.21-2.33,2.08-3.2c.87-.87,1.89-1.54,3.06-2,1.16-.46,2.41-.69,3.73-.69,2.13,0,3.98.54,5.55,1.63s2.74,2.54,3.5,4.35l-9.57,7.2c.23.13.54.21.93.26.38.04.74.06,1.06.06.98,0,1.81-.18,2.48-.53.67-.35,1.29-.77,1.84-1.26l3.17,5.22ZM115.74,172.55c-.3-.36-.62-.61-.98-.74s-.75-.19-1.2-.19-.82.09-1.17.27c-.35.18-.66.43-.91.74-.26.31-.45.66-.59,1.04-.14.38-.21.78-.21,1.18s.03.66.08.82c.05.16.12.33.21.5l4.77-3.62Z"/>
            <path class="cls-5" d="M130.2,168.97h.13c.7-.96,1.42-1.61,2.16-1.95.74-.34,1.54-.51,2.42-.51s1.69.16,2.37.48c.68.32,1.26.77,1.73,1.34.47.58.83,1.25,1.07,2.02s.37,1.6.37,2.5v12.38l-6.91.58.1-11.65c.02-.38-.12-.7-.43-.96-.31-.26-.68-.38-1.1-.38s-.77.12-1.1.37c-.33.25-.5.58-.5,1.01l.13,11.55-6.82-.48-.26-18.21,6.66-.54v2.46Z"/>
            <path class="cls-5" d="M157.19,184.31c-.61.31-1.23.56-1.87.75-.64.19-1.29.33-1.95.4-.66.07-1.3.11-1.92.11-1.45,0-2.79-.25-4.02-.74-1.23-.49-2.29-1.17-3.2-2.03s-1.62-1.88-2.13-3.04c-.51-1.16-.77-2.42-.77-3.76,0-1.56.27-2.96.8-4.21.53-1.25,1.27-2.3,2.22-3.17s2.07-1.53,3.38-1.98c1.3-.46,2.71-.69,4.22-.69s2.83.25,3.95.74c1.12.49,2.06.99,2.83,1.5l-4.22,5.54c-.3-.23-.65-.43-1.04-.58-.4-.15-.79-.26-1.2-.32-.41-.06-.8-.08-1.17-.06-.37.02-.68.1-.91.22-.41.21-.75.46-1.04.75s-.51.6-.67.94c-.16.34-.24.71-.22,1.1.01.39.12.79.34,1.2.43.85,1.03,1.38,1.82,1.57.79.19,1.62.08,2.5-.35l1.63-.83,4.35,5.76c-.53.47-1.1.86-1.71,1.17Z"/>
            <path class="cls-5" d="M176.7,183.05c-1.3.94-2.64,1.62-4,2.03-1.37.42-2.93.62-4.7.62-1.45,0-2.78-.25-3.98-.75s-2.25-1.18-3.12-2.03c-.88-.85-1.56-1.85-2.05-2.99-.49-1.14-.74-2.35-.74-3.63,0-1.6.26-3.03.77-4.29s1.21-2.33,2.08-3.2c.87-.87,1.89-1.54,3.06-2,1.16-.46,2.41-.69,3.73-.69,2.13,0,3.98.54,5.55,1.63s2.74,2.54,3.5,4.35l-9.57,7.2c.23.13.54.21.93.26.38.04.74.06,1.06.06.98,0,1.81-.18,2.48-.53.67-.35,1.29-.77,1.84-1.26l3.17,5.22ZM169.85,172.55c-.3-.36-.62-.61-.98-.74s-.75-.19-1.2-.19-.82.09-1.17.27c-.35.18-.66.43-.91.74-.26.31-.45.66-.59,1.04-.14.38-.21.78-.21,1.18s.03.66.08.82c.05.16.12.33.21.5l4.77-3.62Z"/>
            <path class="cls-5" d="M178.27,186.47c1.54-2.37,2.69-4.55,3.47-6.54.78-1.99,1.33-3.72,1.65-5.17.32-1.45.5-3,.54-4.64-.21-1.56-.52-2.96-.91-4.19-.4-1.24-.99-2.61-1.78-4.11-.79-1.5-1.87-2.98-3.23-4.43l1.57-1.12c1.39,1.2,2.54,2.45,3.47,3.76.93,1.31,1.65,2.55,2.18,3.71.52,1.16.92,2.24,1.2,3.23.28.99.45,1.75.51,2.29.06.53.1.82.1.86-.06,1.83-.3,3.55-.72,5.14-.42,1.59-1.12,3.46-2.11,5.62-.99,2.15-2.44,4.47-4.34,6.94l-1.6-1.34Z"/>
            <path d="M34.52,220.61c-.12-.08-.19-.2-.22-.34l-3.86-12.73c-.07-.22-.1-.38-.1-.48,0-.18.06-.33.18-.45.12-.12.27-.18.45-.18.15,0,.29.04.4.13.11.08.2.2.25.34l3.32,10.96,3.55-10.98c.11-.29.33-.44.65-.44.14,0,.27.04.39.13.12.08.19.2.22.34l3.02,10.98,3.99-11.05c.06-.14.14-.25.25-.33.11-.08.24-.12.38-.12.18,0,.34.06.46.19s.19.27.19.42c0,.07-.01.18-.04.32l-4.68,13c-.04.13-.12.23-.23.3-.11.08-.24.12-.38.12-.34,0-.55-.16-.65-.48l-2.98-10.86-3.51,10.88c-.1.31-.31.46-.65.46-.14,0-.27-.04-.39-.13Z"/>
            <path d="M55.7,220.71c-.11-.13-.17-.3-.17-.49v-.59c-.38.34-.83.61-1.37.81-.53.2-1.06.3-1.6.3-.76,0-1.44-.19-2.04-.57s-1.07-.91-1.42-1.61c-.34-.69-.51-1.48-.51-2.36,0-.95.2-1.89.6-2.8s.98-1.67,1.74-2.26c.76-.59,1.66-.88,2.7-.88.64,0,1.21.08,1.7.25.49.17.99.37,1.49.61v9.09c0,.2-.06.36-.19.49-.13.13-.28.2-.46.2-.21,0-.37-.07-.48-.2ZM54.2,219.11c.55-.26.97-.54,1.26-.83l.08-6.36c-.22-.1-.51-.19-.87-.28s-.69-.14-1-.14c-.69,0-1.32.2-1.89.61-.57.41-1.03.96-1.35,1.67-.33.71-.49,1.5-.49,2.38,0,1.02.24,1.83.73,2.44.49.6,1.12.9,1.89.9.55,0,1.09-.13,1.64-.39Z"/>
            <path d="M61.16,220.54c-.14-.13-.21-.29-.21-.47l.13-9.11c0-.18.07-.34.21-.48.14-.14.3-.21.48-.21s.34.07.47.2c.13.13.2.3.2.49l-.13,9.11c0,.18-.07.34-.2.47-.13.13-.29.2-.47.2s-.34-.07-.48-.2ZM61.3,208.41c-.13-.13-.19-.28-.19-.46l.02-.86c0-.17.07-.31.21-.44.14-.13.29-.19.46-.19s.31.07.44.2c.13.13.19.28.19.45l-.02.86c0,.18-.07.33-.2.45-.13.12-.28.18-.45.18-.18,0-.34-.06-.46-.19Z"/>
            <path d="M67.28,220.57c-.13-.13-.2-.27-.2-.44v-8.57h-2.33c-.18,0-.34-.07-.46-.2-.13-.13-.19-.29-.19-.47,0-.2.07-.35.21-.47s.3-.18.48-.18h2.29v-2.88c0-.18.07-.34.2-.47.13-.13.29-.2.47-.2.2,0,.35.07.47.2.12.13.18.29.18.47v2.88h2.35c.2,0,.36.06.48.19s.19.28.19.46-.07.34-.2.47c-.13.13-.29.2-.47.2h-2.35v8.57c0,.17-.07.32-.2.44-.13.13-.28.19-.45.19-.18,0-.34-.06-.47-.19Z"/>
            <path d="M82.11,220.58c-.13-.1-.21-.24-.25-.41l-1.89-8.97-.04-.34c0-.17.06-.32.18-.44.12-.13.27-.19.45-.19.17,0,.31.05.43.16.12.11.19.24.22.41l1.47,7.39,2.58-7.48c.04-.13.13-.24.25-.34.13-.1.27-.15.42-.15s.3.06.43.17c.13.11.21.25.24.4l1.81,7.5,2.25-7.54c.04-.14.12-.26.24-.36.12-.1.25-.15.39-.15.18,0,.34.06.47.19.13.13.2.28.2.46,0,.04-.01.08-.03.13s-.03.07-.03.08l-2.9,9.11c-.13.34-.34.5-.65.5-.14,0-.27-.05-.39-.14-.12-.09-.2-.22-.24-.39l-1.87-7.37-2.69,7.41c-.06.14-.14.26-.25.35-.11.09-.23.14-.36.14-.17,0-.31-.05-.44-.16Z"/>
            <path d="M96.1,220.06c-.8-.46-1.41-1.07-1.85-1.84-.43-.77-.65-1.61-.65-2.52s.2-1.84.6-2.68.96-1.5,1.67-2.01c.71-.5,1.53-.76,2.46-.76.84,0,1.56.16,2.15.48s1.04.71,1.34,1.16c.3.45.45.85.45,1.2,0,.25-.17.48-.5.67l-6.51,3.72c.35.67.83,1.18,1.43,1.52.6.34,1.31.51,2.12.51.45,0,.92-.11,1.42-.34.5-.22.89-.49,1.19-.8.1-.14.24-.21.42-.21s.33.06.45.18c.12.12.18.27.18.45,0,.14-.06.28-.17.42-.38.43-.89.79-1.54,1.08-.65.29-1.29.43-1.92.43-1.02,0-1.93-.23-2.73-.68ZM100.05,211.86c-.42-.24-.99-.36-1.7-.36-.67,0-1.27.19-1.81.56-.53.37-.95.87-1.25,1.5-.3.63-.46,1.32-.47,2.08,0,.28.01.5.04.67l6.11-3.38c-.2-.48-.5-.83-.92-1.07Z"/>
            <path d="M105.84,220.56c-.14-.12-.21-.25-.21-.41v-13.21c0-.18.06-.33.19-.45.13-.12.29-.18.48-.18.17,0,.32.06.45.19.13.13.2.27.2.44v13.21c0,.15-.07.29-.2.41-.13.12-.28.18-.45.18s-.32-.06-.46-.18Z"/>
            <path d="M111.28,220.56c-.14-.12-.21-.25-.21-.41v-13.21c0-.18.06-.33.19-.45.13-.12.29-.18.48-.18.17,0,.32.06.45.19.13.13.2.27.2.44v13.21c0,.15-.07.29-.2.41-.13.12-.28.18-.45.18s-.32-.06-.46-.18Z"/>
            <path d="M115.69,222.51c-.11-.11-.17-.23-.17-.39,0-.06.01-.13.04-.21l.48-1.28c-.15-.21-.23-.42-.23-.63,0-.27.09-.5.27-.7.18-.2.39-.3.63-.3.21,0,.39.08.54.23.15.15.22.32.22.5s-.03.36-.09.55-.19.5-.37.94l-.19.46c-.15.41-.27.67-.36.8s-.21.19-.38.19c-.15,0-.29-.05-.4-.16Z"/>
            <path d="M129.37,220.57c-.13-.13-.2-.27-.2-.44v-8.57h-2.33c-.18,0-.34-.07-.46-.2-.13-.13-.19-.29-.19-.47,0-.2.07-.35.21-.47s.3-.18.48-.18h2.29v-2.88c0-.18.07-.34.2-.47.13-.13.29-.2.47-.2.2,0,.35.07.47.2.12.13.18.29.18.47v2.88h2.35c.2,0,.36.06.48.19s.19.28.19.46-.07.34-.2.47c-.13.13-.29.2-.47.2h-2.35v8.57c0,.17-.07.32-.2.44-.13.13-.28.19-.45.19-.18,0-.34-.06-.47-.19Z"/>
            <path d="M135.7,220.55c-.14-.13-.21-.27-.21-.42v-9.24c0-.18.07-.33.2-.45.13-.12.29-.18.47-.18.2,0,.36.06.48.18s.19.27.19.45v1.79c.39-.69.88-1.27,1.46-1.75.58-.48,1.26-.72,2.05-.72.62,0,1.06.17,1.33.51.27.34.41.75.41,1.23v.67c0,.18-.06.33-.19.45s-.28.18-.46.18c-.21,0-.36-.06-.46-.19-.1-.13-.15-.28-.15-.46v-.48c0-.41-.24-.61-.71-.61-.83,0-1.68.59-2.56,1.76-.21.28-.38.63-.51,1.05-.13.42-.2.81-.2,1.18l-.02,4.64c0,.15-.07.29-.2.42-.13.13-.28.19-.45.19s-.32-.06-.46-.19Z"/>
            <path d="M145.2,224.61c-.13-.13-.19-.29-.19-.47,0-.1.03-.2.08-.29l2.04-4.45-4.07-8.13c-.06-.14-.08-.26-.08-.36,0-.2.07-.36.2-.48.13-.13.29-.19.47-.19.14,0,.27.04.38.13.11.08.2.19.25.31l3.57,7.16,3.3-7.2c.14-.28.35-.42.63-.42.18,0,.34.06.46.19.13.13.19.28.19.46,0,.13-.02.22-.06.29l-6.07,13.23c-.15.28-.36.42-.63.42-.18,0-.34-.07-.46-.2Z"/>
            <path d="M38.08,245.91c-.11-.13-.17-.3-.17-.49v-.59c-.38.34-.83.61-1.37.81-.53.2-1.06.3-1.6.3-.76,0-1.44-.19-2.04-.57s-1.07-.91-1.42-1.61c-.34-.69-.51-1.48-.51-2.36,0-.95.2-1.89.6-2.8s.98-1.67,1.74-2.26c.76-.59,1.66-.88,2.7-.88.64,0,1.21.08,1.7.25.49.17.99.37,1.49.61v9.09c0,.2-.06.36-.19.49s-.28.2-.46.2c-.21,0-.37-.07-.48-.2ZM36.59,244.31c.55-.26.97-.54,1.26-.83l.08-6.36c-.22-.1-.51-.19-.87-.28-.36-.09-.69-.14-1-.14-.69,0-1.32.2-1.89.61-.57.41-1.03.96-1.35,1.67-.33.71-.49,1.5-.49,2.38,0,1.02.24,1.83.73,2.44.49.6,1.12.9,1.89.9.55,0,1.09-.13,1.64-.39Z"/>
            <path d="M44.08,249.45c-.15-.03-.28-.1-.38-.22-.1-.12-.15-.26-.15-.41,0-.18.07-.34.2-.46.13-.13.29-.19.47-.19.07,0,.23.03.48.08.63.14,1.27.21,1.91.21,1.04,0,1.79-.26,2.26-.79.47-.52.72-1.27.77-2.24l.04-1.05c-.36.49-.79.86-1.28,1.12-.49.26-1.02.4-1.58.41-.78,0-1.49-.22-2.13-.65-.64-.43-1.14-1.03-1.5-1.79-.36-.76-.55-1.61-.55-2.55s.22-1.83.66-2.68c.44-.85,1.04-1.53,1.8-2.04.76-.51,1.6-.77,2.52-.77.71,0,1.46.21,2.25.63,0-.57.22-.86.65-.86.18,0,.34.06.47.19.13.13.2.29.2.48l-.23,9.6c-.03,1.43-.44,2.5-1.23,3.21-.79.71-1.82,1.07-3.1,1.07-.78,0-1.64-.11-2.56-.32ZM48.86,243.63c.61-.69.91-1.79.91-3.3v-2.96c-.22-.18-.53-.33-.91-.45-.39-.12-.77-.18-1.14-.18-.7,0-1.34.19-1.93.56-.59.37-1.06.88-1.41,1.52-.35.64-.52,1.36-.52,2.14,0,.56.1,1.13.3,1.7s.52,1.05.95,1.43c.43.38.95.57,1.56.57.85,0,1.59-.34,2.19-1.03Z"/>
            <path d="M61.72,245.91c-.11-.13-.17-.3-.17-.49v-.59c-.38.34-.83.61-1.37.81-.53.2-1.06.3-1.6.3-.76,0-1.44-.19-2.04-.57s-1.07-.91-1.42-1.61c-.34-.69-.51-1.48-.51-2.36,0-.95.2-1.89.6-2.8s.98-1.67,1.74-2.26c.76-.59,1.66-.88,2.7-.88.64,0,1.21.08,1.7.25.49.17.99.37,1.49.61v9.09c0,.2-.06.36-.19.49s-.28.2-.46.2c-.21,0-.37-.07-.48-.2ZM60.23,244.31c.55-.26.97-.54,1.26-.83l.08-6.36c-.22-.1-.51-.19-.87-.28-.36-.09-.69-.14-1-.14-.69,0-1.32.2-1.89.61-.57.41-1.03.96-1.35,1.67-.33.71-.49,1.5-.49,2.38,0,1.02.24,1.83.73,2.44.49.6,1.12.9,1.89.9.55,0,1.09-.13,1.64-.39Z"/>
            <path d="M67.18,245.74c-.14-.13-.21-.29-.21-.47l.13-9.11c0-.18.07-.34.21-.48.14-.14.3-.21.48-.21s.34.07.47.2c.13.13.2.3.2.49l-.13,9.11c0,.18-.07.34-.2.47-.13.13-.29.2-.47.2s-.34-.07-.48-.2ZM67.33,233.61c-.13-.13-.19-.28-.19-.46l.02-.86c0-.17.07-.32.21-.44.14-.13.29-.19.46-.19s.31.07.44.2.19.28.19.45l-.02.86c0,.18-.07.33-.2.45-.13.12-.28.18-.45.18-.18,0-.34-.06-.46-.19Z"/>
            <path d="M72.78,245.75c-.13-.13-.2-.27-.2-.42v-9.26c0-.18.07-.33.2-.45.13-.12.29-.18.47-.18s.34.06.46.18.19.27.19.45v3.32c.41-1.26.97-2.23,1.69-2.91s1.54-1.02,2.45-1.02c.77,0,1.38.2,1.83.59s.77,1.01.97,1.86c.2.85.29,1.98.29,3.41s0,2.32-.02,2.75v1.2c0,.18-.06.34-.18.47s-.27.2-.45.2c-.17,0-.31-.07-.44-.2-.13-.13-.19-.28-.19-.45v-1.18c-.01-.43-.02-1.34-.02-2.71,0-1.3-.07-2.29-.2-2.96-.13-.67-.34-1.13-.61-1.38-.27-.25-.66-.37-1.17-.37-.48,0-.95.17-1.41.52-.46.35-.87.85-1.22,1.49-.46.84-.79,1.63-1,2.37-.2.74-.31,1.5-.33,2.29l-.02,1.87c0,.2-.06.36-.18.49-.12.13-.27.2-.45.2s-.34-.06-.47-.19Z"/>
            <path d="M84.21,247.71c-.11-.1-.17-.23-.17-.39,0-.06.01-.13.04-.21l.48-1.28c-.15-.21-.23-.42-.23-.63,0-.27.09-.5.27-.7.18-.2.39-.3.63-.3.21,0,.39.08.54.23s.22.32.22.5-.03.36-.09.55c-.06.18-.19.5-.37.95l-.19.46c-.15.41-.27.67-.36.8s-.21.19-.38.19c-.15,0-.29-.05-.4-.16Z"/>
            <path d="M103.6,245.91c-.11-.13-.17-.3-.17-.49v-.59c-.38.34-.83.61-1.37.81-.53.2-1.06.3-1.6.3-.76,0-1.44-.19-2.04-.57s-1.07-.91-1.42-1.61c-.34-.69-.51-1.48-.51-2.36,0-.95.2-1.89.6-2.8s.98-1.67,1.74-2.26c.76-.59,1.66-.88,2.7-.88.64,0,1.21.08,1.7.25.49.17.99.37,1.49.61v9.09c0,.2-.06.36-.19.49s-.28.2-.46.2c-.21,0-.37-.07-.48-.2ZM102.1,244.31c.55-.26.97-.54,1.26-.83l.08-6.36c-.22-.1-.51-.19-.87-.28-.36-.09-.69-.14-1-.14-.69,0-1.32.2-1.89.61-.57.41-1.03.96-1.35,1.67-.33.71-.49,1.5-.49,2.38,0,1.02.24,1.83.73,2.44.49.6,1.12.9,1.89.9.55,0,1.09-.13,1.64-.39Z"/>
            <path d="M109.05,245.75c-.13-.13-.2-.27-.2-.42v-9.26c0-.18.07-.33.2-.45.13-.12.29-.18.47-.18s.34.06.46.18.19.27.19.45v3.32c.41-1.26.97-2.23,1.69-2.91s1.54-1.02,2.45-1.02c.77,0,1.38.2,1.83.59s.77,1.01.97,1.86c.2.85.29,1.98.29,3.41s0,2.32-.02,2.75v1.2c0,.18-.06.34-.18.47s-.27.2-.45.2c-.17,0-.31-.07-.44-.2-.13-.13-.19-.28-.19-.45v-1.18c-.01-.43-.02-1.34-.02-2.71,0-1.3-.07-2.29-.2-2.96-.13-.67-.34-1.13-.61-1.38-.27-.25-.66-.37-1.17-.37-.48,0-.95.17-1.41.52-.46.35-.87.85-1.22,1.49-.46.84-.79,1.63-1,2.37-.2.74-.31,1.5-.33,2.29l-.02,1.87c0,.2-.06.36-.18.49-.12.13-.27.2-.45.2s-.34-.06-.47-.19Z"/>
            <path d="M122.42,245.37c-.55-.38-.99-.93-1.31-1.65-.32-.72-.48-1.56-.48-2.53,0-1.79.4-3.19,1.2-4.2.8-1.01,1.9-1.51,3.3-1.51.94,0,1.87.25,2.79.74l.1-4.18c0-.18.07-.34.21-.47s.3-.2.48-.2c.17,0,.32.07.45.21.13.14.2.3.2.48l-.31,13.25c0,.18-.07.33-.2.45-.13.12-.29.18-.47.18-.2,0-.36-.07-.48-.22-.13-.15-.18-.32-.17-.51l.02-.86c-1.09,1.06-2.25,1.6-3.46,1.6-.69,0-1.31-.19-1.86-.57ZM126.07,244.3c.53-.27.95-.58,1.25-.96.3-.37.46-.7.47-.98l.1-4.85c-.31-.18-.71-.36-1.21-.52s-1-.25-1.5-.25c-1.08,0-1.89.38-2.44,1.15-.55.77-.82,1.85-.82,3.23,0,1.12.21,2,.64,2.62.43.63,1,.95,1.73.95.64,0,1.23-.13,1.76-.4Z"/>
            <path d="M141.49,245.75c-.13-.13-.2-.27-.2-.42v-8.67h-1.47c-.15,0-.29-.06-.42-.19s-.19-.27-.19-.44c0-.15.06-.29.18-.42.12-.13.25-.19.39-.19h1.53c0-.98.15-1.76.44-2.33s.75-.98,1.35-1.23,1.42-.37,2.43-.37c.59,0,.88.2.88.61,0,.18-.06.34-.17.46-.11.13-.27.19-.46.19-.87,0-1.52.06-1.94.19-.43.13-.73.38-.92.75s-.29.95-.3,1.73l2.77.02c.14,0,.28.06.41.18.13.12.2.26.2.41,0,.17-.06.32-.18.44-.12.13-.26.19-.43.19h-2.77v8.67c0,.15-.07.29-.2.42-.13.13-.28.19-.45.19-.18,0-.34-.06-.47-.19Z"/>
            <path d="M148.03,245.74c-.14-.13-.21-.29-.21-.47l.13-9.11c0-.18.07-.34.21-.48.14-.14.3-.21.48-.21s.34.07.47.2c.13.13.2.3.2.49l-.13,9.11c0,.18-.07.34-.2.47-.13.13-.29.2-.47.2s-.34-.07-.48-.2ZM148.18,233.61c-.13-.13-.19-.28-.19-.46l.02-.86c0-.17.07-.32.21-.44.14-.13.29-.19.46-.19s.31.07.44.2.19.28.19.45l-.02.86c0,.18-.07.33-.2.45-.13.12-.28.18-.45.18-.18,0-.34-.06-.46-.19Z"/>
            <path d="M153.63,245.75c-.13-.13-.2-.27-.2-.42v-9.26c0-.18.07-.33.2-.45.13-.12.29-.18.47-.18s.34.06.46.18.19.27.19.45v3.32c.41-1.26.97-2.23,1.69-2.91s1.54-1.02,2.45-1.02c.77,0,1.38.2,1.83.59s.77,1.01.97,1.86c.2.85.29,1.98.29,3.41s0,2.32-.02,2.75v1.2c0,.18-.06.34-.18.47s-.27.2-.45.2c-.17,0-.31-.07-.44-.2-.13-.13-.19-.28-.19-.45v-1.18c-.01-.43-.02-1.34-.02-2.71,0-1.3-.07-2.29-.2-2.96-.13-.67-.34-1.13-.61-1.38-.27-.25-.66-.37-1.17-.37-.48,0-.95.17-1.41.52-.46.35-.87.85-1.22,1.49-.46.84-.79,1.63-1,2.37-.2.74-.31,1.5-.33,2.29l-.02,1.87c0,.2-.06.36-.18.49-.12.13-.27.2-.45.2s-.34-.06-.47-.19Z"/>
            <path d="M166.09,245.74c-.14-.13-.21-.29-.21-.47l.13-9.11c0-.18.07-.34.21-.48.14-.14.3-.21.48-.21s.34.07.47.2c.13.13.2.3.2.49l-.13,9.11c0,.18-.07.34-.2.47-.13.13-.29.2-.47.2s-.34-.07-.48-.2ZM166.24,233.61c-.13-.13-.19-.28-.19-.46l.02-.86c0-.17.07-.32.21-.44.14-.13.29-.19.46-.19s.31.07.44.2.19.28.19.45l-.02.86c0,.18-.07.33-.2.45-.13.12-.28.18-.45.18-.18,0-.34-.06-.46-.19Z"/>
            <path d="M172.11,245.49c-.58-.33-1.02-.71-1.32-1.16-.3-.44-.45-.82-.45-1.12,0-.18.06-.33.18-.45.12-.12.27-.18.45-.18.31,0,.5.15.59.44.2.56.52.99.99,1.3.46.31,1.03.46,1.7.46s1.22-.18,1.66-.55c.43-.36.65-.8.65-1.3,0-.29-.07-.54-.2-.75-.13-.2-.37-.4-.71-.58-.34-.18-.84-.37-1.5-.57-1.13-.35-1.95-.76-2.46-1.22s-.76-1.07-.76-1.83.31-1.37.93-1.84c.62-.47,1.52-.7,2.68-.7,1.05,0,1.86.21,2.43.64s.85,1.01.85,1.75c0,.34-.06.59-.17.77-.11.18-.27.26-.48.26-.18,0-.34-.06-.46-.18-.13-.12-.19-.25-.19-.41,0-.07.01-.15.03-.23s.03-.16.03-.23c0-.38-.17-.68-.5-.89s-.85-.33-1.53-.33c-.76,0-1.34.12-1.75.37-.41.25-.62.59-.62,1.04s.18.78.54,1.03c.36.25.98.53,1.86.82.84.28,1.49.55,1.94.8.45.25.78.55.99.89s.3.78.3,1.31-.15,1.01-.45,1.49c-.3.48-.72.87-1.27,1.17-.55.3-1.18.45-1.89.45-.8,0-1.49-.16-2.07-.49Z"/>
            <path d="M181.26,245.76c-.13-.13-.2-.28-.2-.45v-13.12c0-.18.07-.34.2-.47.13-.13.29-.2.47-.2.2,0,.35.07.47.2.12.13.18.29.18.47v6.45c.42-.87,1-1.62,1.75-2.27.75-.64,1.52-.97,2.3-.97,1.04,0,1.76.57,2.18,1.72.42,1.15.63,2.95.63,5.4,0,1.39-.02,2.32-.06,2.79-.01.18-.08.33-.19.45-.11.12-.26.18-.44.18-.17,0-.32-.06-.45-.19-.13-.13-.2-.27-.2-.44,0-.21,0-.41.02-.59l.02-2.06c0-2.37-.15-3.95-.46-4.76-.31-.8-.69-1.21-1.15-1.21-.52,0-1.03.21-1.53.64-.5.43-.94.9-1.31,1.43-.37.52-.63.96-.79,1.29-.21.42-.31,1.02-.31,1.81v3.4c0,.21-.06.38-.19.5s-.28.19-.46.19-.34-.07-.47-.2Z"/>
            <path d="M32.27,270.69c-.58-.33-1.02-.71-1.32-1.16-.3-.44-.45-.82-.45-1.12,0-.18.06-.33.18-.45.12-.12.27-.18.45-.18.31,0,.5.15.59.44.2.56.52.99.99,1.3.46.31,1.03.46,1.7.46s1.22-.18,1.66-.55c.43-.36.65-.8.65-1.3,0-.29-.07-.54-.2-.75-.13-.2-.37-.4-.71-.58-.34-.18-.84-.37-1.5-.57-1.13-.35-1.95-.76-2.46-1.22s-.76-1.07-.76-1.83.31-1.37.93-1.84c.62-.47,1.52-.7,2.68-.7,1.05,0,1.86.21,2.43.64s.85,1.01.85,1.75c0,.34-.06.59-.17.77-.11.18-.27.26-.48.26-.18,0-.34-.06-.46-.18-.13-.12-.19-.25-.19-.41,0-.07.01-.15.03-.23s.03-.16.03-.23c0-.38-.17-.68-.5-.89s-.85-.33-1.53-.33c-.76,0-1.34.12-1.75.37-.41.25-.62.59-.62,1.04s.18.78.54,1.03c.36.25.98.53,1.86.82.84.28,1.49.55,1.94.8.45.25.78.55.99.89s.3.78.3,1.31-.15,1.01-.45,1.49c-.3.48-.72.87-1.27,1.17-.55.3-1.18.45-1.89.45-.8,0-1.49-.16-2.07-.49Z"/>
            <path d="M41.95,270.97c-.13-.13-.2-.27-.2-.44v-8.57h-2.33c-.18,0-.34-.07-.46-.2s-.19-.29-.19-.47c0-.2.07-.35.21-.47s.3-.18.48-.18h2.29v-2.88c0-.18.07-.34.2-.47.13-.13.29-.2.47-.2.2,0,.35.07.47.2.12.13.18.29.18.47v2.88h2.35c.2,0,.36.06.48.19s.19.28.19.46-.07.34-.2.47c-.13.13-.29.2-.47.2h-2.35v8.57c0,.17-.07.31-.2.44-.13.13-.28.19-.45.19-.18,0-.34-.06-.47-.19Z"/>
            <path d="M48.28,270.95c-.14-.13-.21-.27-.21-.42v-9.24c0-.18.07-.33.2-.45.13-.12.29-.18.47-.18.2,0,.36.06.48.18s.19.27.19.45v1.79c.39-.69.88-1.27,1.46-1.75.58-.48,1.26-.72,2.05-.72.62,0,1.06.17,1.33.51.27.34.41.75.41,1.23v.67c0,.18-.06.33-.19.45s-.28.18-.46.18c-.21,0-.36-.06-.46-.19-.1-.13-.15-.28-.15-.46v-.48c0-.41-.24-.61-.71-.61-.83,0-1.68.59-2.56,1.76-.21.28-.38.63-.51,1.05-.13.42-.2.81-.2,1.18l-.02,4.64c0,.15-.07.29-.2.42-.13.13-.28.19-.45.19s-.32-.06-.46-.19Z"/>
            <path d="M58.31,270.5c-.65-.43-1.16-1.01-1.53-1.74-.37-.74-.56-1.55-.56-2.45,0-.95.21-1.86.64-2.73.43-.87,1.02-1.57,1.77-2.11.76-.54,1.59-.81,2.5-.81.78,0,1.5.21,2.15.64.65.43,1.16,1.01,1.53,1.74.37.74.56,1.54.56,2.43,0,1.01-.22,1.95-.67,2.81-.45.87-1.05,1.56-1.8,2.08-.75.52-1.56.78-2.43.78-.8,0-1.52-.21-2.17-.64ZM62.27,269.33c.53-.41.96-.95,1.28-1.62.32-.67.48-1.39.48-2.14,0-.66-.13-1.27-.4-1.84-.27-.57-.63-1.02-1.08-1.37-.46-.34-.96-.51-1.52-.51-.62,0-1.19.21-1.71.62s-.94.96-1.26,1.64c-.32.68-.47,1.4-.47,2.15s.14,1.37.41,1.92c.27.55.64.98,1.1,1.29.46.31.95.46,1.47.46.6,0,1.17-.2,1.7-.61Z"/>
            <path d="M69.04,270.95c-.13-.13-.2-.27-.2-.42v-9.26c0-.18.07-.33.2-.45.13-.12.29-.18.47-.18s.34.06.46.18.19.27.19.45v3.32c.41-1.26.97-2.23,1.69-2.91s1.54-1.02,2.45-1.02c.77,0,1.38.2,1.83.59s.77,1.01.97,1.86c.2.85.29,1.98.29,3.41s0,2.32-.02,2.75v1.2c0,.18-.06.34-.18.47s-.27.2-.45.2c-.17,0-.31-.07-.44-.2-.13-.13-.19-.28-.19-.45v-1.18c-.01-.43-.02-1.34-.02-2.71,0-1.3-.07-2.29-.2-2.96-.13-.67-.34-1.13-.61-1.38-.27-.25-.66-.37-1.17-.37-.48,0-.95.17-1.41.52-.46.35-.87.85-1.22,1.49-.46.84-.79,1.63-1,2.37-.2.74-.31,1.5-.33,2.29l-.02,1.87c0,.2-.06.36-.18.49-.12.13-.27.2-.45.2s-.34-.06-.47-.19Z"/>
            <path d="M82.05,274.65c-.15-.03-.28-.1-.38-.22-.1-.12-.15-.26-.15-.41,0-.18.07-.34.2-.46.13-.13.29-.19.47-.19.07,0,.23.03.48.08.63.14,1.27.21,1.91.21,1.04,0,1.79-.26,2.26-.79.47-.52.72-1.27.77-2.24l.04-1.05c-.36.49-.79.86-1.28,1.12-.49.26-1.02.4-1.58.41-.78,0-1.49-.22-2.13-.65-.64-.43-1.14-1.03-1.5-1.79-.36-.76-.55-1.61-.55-2.55s.22-1.83.66-2.68c.44-.85,1.04-1.53,1.8-2.04.76-.51,1.6-.77,2.52-.77.71,0,1.46.21,2.25.63,0-.57.22-.86.65-.86.18,0,.34.06.47.19.13.13.2.29.2.48l-.23,9.6c-.03,1.43-.44,2.5-1.23,3.21-.79.71-1.82,1.07-3.1,1.07-.78,0-1.64-.11-2.56-.32ZM86.83,268.83c.61-.69.91-1.79.91-3.3v-2.96c-.22-.18-.53-.33-.91-.45-.39-.12-.77-.18-1.14-.18-.7,0-1.34.19-1.93.56-.59.37-1.06.88-1.41,1.52-.35.64-.52,1.36-.52,2.14,0,.56.1,1.13.3,1.7s.52,1.05.95,1.43c.43.38.95.57,1.56.57.85,0,1.59-.34,2.19-1.03Z"/>
            <path d="M92.55,270.89c-.14-.17-.21-.37-.21-.61,0-.27.09-.5.27-.7.18-.2.39-.3.63-.3.21,0,.39.08.54.24s.22.35.22.58c0,.29-.09.54-.27.75-.18.2-.39.3-.63.3-.22,0-.41-.08-.55-.25Z"/>
          </g>
          <g>
            <path class="cls-29" d="M54.68,71.53h4.97v4.97h-4.97v-4.97Z"/>
            <path class="cls-18" d="M349.2,119.81h4.97v4.97h-4.97v-4.97Z"/>
            <path class="cls-29" d="M134.98,117.21h4.97v4.97h-4.97v-4.97Z"/>
            <circle class="cls-29" cx="87.05" cy="96.18" r="6.22"/>
            <circle class="cls-29" cx="343.03" cy="86.45" r="6.22"/>
            <circle class="cls-18" cx="26.88" cy="99.25" r="6.22"/>
            <path class="cls-29" d="M347.42,169.41l8.04,4.4-8.04,4.4-4.4,8.04-4.4-8.04-8.04-4.4,8.04-4.4,4.4-8.04,4.4,8.04Z"/>
            <path class="cls-18" d="M123.44,69.63l8.04,4.4-8.04,4.4-4.4,8.04-4.4-8.04-8.04-4.4,8.04-4.4,4.4-8.04,4.4,8.04Z"/>
          </g>
        </g>
      </g>
    </g>
  </g>
</svg>