<?xml version="1.0" encoding="UTF-8"?>
<svg xmlns="http://www.w3.org/2000/svg" xmlns:xlink="http://www.w3.org/1999/xlink" viewBox="0 0 392.45 446.43">
  <defs>
    <style>
      .cls-1 {
        fill: #c2dd8a;
      }

      .cls-2, .cls-3, .cls-4, .cls-5, .cls-6, .cls-7, .cls-8, .cls-9, .cls-10, .cls-11, .cls-12, .cls-13 {
        fill-rule: evenodd;
      }

      .cls-2, .cls-14 {
        fill: #ea453c;
      }

      .cls-3 {
        fill: #5c5f58;
      }

      .cls-15 {
        fill: #f7946b;
      }

      .cls-16 {
        fill: #579943;
      }

      .cls-17 {
        fill: #221f1f;
      }

      .cls-18 {
        fill: #00804f;
      }

      .cls-19 {
        fill: #ff6d3a;
      }

      .cls-20 {
        fill: #6d2e1d;
      }

      .cls-21 {
        fill: #91c84a;
      }

      .cls-4 {
        fill: #ec8560;
      }

      .cls-22 {
        fill: #e29f7a;
      }

      .cls-23 {
        stroke: #281c13;
        stroke-linecap: round;
        stroke-linejoin: round;
        stroke-width: .8px;
      }

      .cls-23, .cls-24 {
        fill: none;
      }

      .cls-25 {
        fill: #e7b985;
      }

      .cls-26 {
        fill: #fff;
      }

      .cls-5 {
        fill: #e36332;
      }

      .cls-27 {
        fill: #b2d56f;
      }

      .cls-28 {
        fill: #281c13;
      }

      .cls-29 {
        fill: #36b14a;
      }

      .cls-30 {
        fill: #b88155;
      }

      .cls-31 {
        fill: #f9be49;
      }

      .cls-32 {
        fill: #d48054;
      }

      .cls-33 {
        fill: #6294ce;
      }

      .cls-34 {
        fill: url(#radial-gradient-5);
      }

      .cls-35 {
        fill: #f7975e;
      }

      .cls-36 {
        mix-blend-mode: multiply;
        opacity: .3;
      }

      .cls-36, .cls-37 {
        fill: #455b4c;
      }

      .cls-6 {
        fill: #e9e9e9;
      }

      .cls-38 {
        fill: url(#radial-gradient);
      }

      .cls-39 {
        fill: url(#radial-gradient-3);
      }

      .cls-40 {
        fill: #68a342;
      }

      .cls-41 {
        clip-path: url(#clippath-1);
      }

      .cls-7 {
        fill: #dcdcdc;
      }

      .cls-8 {
        fill: #f05148;
      }

      .cls-42 {
        fill: #f9b556;
      }

      .cls-43 {
        fill: #f8b294;
      }

      .cls-44 {
        fill: #d29049;
      }

      .cls-45 {
        fill: #291610;
      }

      .cls-46 {
        isolation: isolate;
      }

      .cls-47 {
        fill: #cf9f6d;
      }

      .cls-48 {
        fill: #f9f2f7;
      }

      .cls-49 {
        fill: #1c658d;
      }

      .cls-50 {
        fill: #729eef;
      }

      .cls-51 {
        clip-path: url(#clippath-3);
      }

      .cls-52 {
        fill: #009147;
      }

      .cls-53 {
        fill: #fdc270;
      }

      .cls-54 {
        fill: url(#radial-gradient-2);
      }

      .cls-55 {
        fill: #894b3a;
      }

      .cls-56 {
        fill: #d8d3cb;
      }

      .cls-9 {
        fill: #648038;
      }

      .cls-57 {
        fill: url(#radial-gradient-4);
      }

      .cls-58 {
        fill: #e6e7e8;
      }

      .cls-59 {
        fill: #f29873;
      }

      .cls-60 {
        fill: #f36b26;
      }

      .cls-61 {
        fill: #e9c189;
      }

      .cls-62 {
        fill: #271910;
      }

      .cls-63 {
        fill: #ffe649;
      }

      .cls-64 {
        fill: #d05546;
      }

      .cls-65 {
        fill: #e9b379;
      }

      .cls-66 {
        fill: #1c5e82;
      }

      .cls-67 {
        clip-path: url(#clippath-2);
      }

      .cls-68 {
        fill: url(#radial-gradient-6);
      }

      .cls-14, .cls-69 {
        clip-rule: evenodd;
      }

      .cls-10 {
        fill: #009bc9;
      }

      .cls-70 {
        fill: #351a10;
      }

      .cls-11 {
        fill: #de352a;
      }

      .cls-71 {
        clip-path: url(#clippath);
      }

      .cls-69, .cls-12 {
        fill: #38c0f0;
      }

      .cls-72 {
        fill: #a0c158;
      }

      .cls-13 {
        fill: #0a6f42;
      }

      .cls-73 {
        fill: #ddab7a;
      }
    </style>
    <clipPath id="clippath">
      <rect class="cls-24" width="392.45" height="280" rx="20" ry="20"/>
    </clipPath>
    <radialGradient id="radial-gradient" cx="9943.4" cy="364.51" fx="9943.4" fy="364.51" r="42.01" gradientTransform="translate(10161.44) rotate(-180) scale(1 -1)" gradientUnits="userSpaceOnUse">
      <stop offset="0" stop-color="#eeb28c"/>
      <stop offset="1" stop-color="#ecbc8a"/>
    </radialGradient>
    <radialGradient id="radial-gradient-2" cx="9895.98" cy="367.41" fx="9895.98" fy="367.41" r="42.28" xlink:href="#radial-gradient"/>
    <radialGradient id="radial-gradient-3" cx="9917.96" cy="142.8" fx="9917.96" fy="142.8" r="14.13" xlink:href="#radial-gradient"/>
    <clipPath id="clippath-1">
      <polygon class="cls-69" points="367.92 129.38 349.94 123.58 348.64 127.77 366.63 133.57 367.92 129.38 367.92 129.38"/>
    </clipPath>
    <clipPath id="clippath-2">
      <path class="cls-14" d="M326.5,160.37c-1.98-.35-3.32-1.72-5.69-1.37-6.94,1.01-10.42,4.39-11.43,9.33-1.33,6.52,4.49,12.46,12.65,13.89,8.16,1.43,15.6-2.2,16.93-8.72,1.02-4.98-1.83-10.2-7.1-12.61-2.67-1.22-3.44-.17-5.36-.51h0Z"/>
    </clipPath>
    <clipPath id="clippath-3">
      <path class="cls-14" d="M307.76,157.19c-1.64-1.03-2.31-2.74-4.56-3.3-6.58-1.63-10.97.12-13.74,4.16-3.66,5.34-.71,12.77,6.04,17.02,6.75,4.25,14.77,3.72,18.43-1.62,2.8-4.08,2.23-9.77-1.57-13.86-1.92-2.07-3.01-1.41-4.59-2.41h0Z"/>
    </clipPath>
    <radialGradient id="radial-gradient-4" cx="9932.79" cy="209.9" fx="9932.79" fy="209.9" r="21.92" xlink:href="#radial-gradient"/>
    <radialGradient id="radial-gradient-5" cx="9880.3" cy="245.24" fx="9880.3" fy="245.24" r="40.43" xlink:href="#radial-gradient"/>
    <radialGradient id="radial-gradient-6" cx="7650.16" cy="-1378.61" fx="7650.16" fy="-1378.61" r="54.86" gradientTransform="translate(7995.96 -291.47) rotate(166.94) scale(1 -1)" xlink:href="#radial-gradient"/>
  </defs>
  <g class="cls-46">
    <g id="Layer_2" data-name="Layer 2">
      <g id="Layer_1-2" data-name="Layer 1">
        <g>
          <rect class="cls-50" y="30" width="371.45" height="250" rx="20" ry="20"/>
          <g>
            <path class="cls-19" d="M57.42,50.91h4.97v4.97h-4.97v-4.97Z"/>
            <path class="cls-31" d="M330.44,90.88h4.97v4.97h-4.97v-4.97Z"/>
            <path class="cls-63" d="M137.72,96.59h4.97v4.97h-4.97v-4.97Z"/>
            <circle class="cls-19" cx="89.79" cy="75.56" r="6.22"/>
            <circle class="cls-63" cx="306.93" cy="50.91" r="6.22"/>
            <circle class="cls-31" cx="29.62" cy="78.63" r="6.22"/>
            <path class="cls-19" d="M347.27,58.11l8.04,4.4-8.04,4.4-4.4,8.04-4.4-8.04-8.04-4.4,8.04-4.4,4.4-8.04,4.4,8.04Z"/>
            <path class="cls-31" d="M126.18,49l8.04,4.4-8.04,4.4-4.4,8.04-4.4-8.04-8.04-4.4,8.04-4.4,4.4-8.04,4.4,8.04Z"/>
          </g>
          <g class="cls-71">
            <g>
              <g>
                <g>
                  <path class="cls-43" d="M223.07,420.97h-.2c.08.02.14.02.2,0Z"/>
                  <path class="cls-38" d="M200,389.06c.18,1.61.35,3.15.49,4.63,1.96,19.63,1.22,27.28,1.22,27.28h21.16c-1.2-.25-4.89-4.68.2-28.07,4.87-22.85,5.77-35.51,7.1-42.54.3-1.6.63-2.91,1.02-3.98.61-1.7,1.13-3.5,1.58-5.36.63-2.59,1.13-5.3,1.54-8.08,1.14-7.76,1.57-15.99,2.18-23.26,0-.1.02-.19.02-.29-.56.03-24.69-1.35-25.23-1.35-.28,0-.54.08-.79.22-3.54,2.03-4.32,17.69-4.25,23.32-.02.21-.04.41-.07.62-.29,2.6-.69,5.35-1.15,8.21-2.52,15.64-6.83,34.5-5.02,48.65Z"/>
                  <path class="cls-23" d="M200,389.06c.18,1.61.35,3.15.49,4.63,1.96,19.63,1.22,27.28,1.22,27.28h21.16c-1.2-.25-4.89-4.68.2-28.07,4.87-22.85,5.77-35.51,7.1-42.54.3-1.6.63-2.91,1.02-3.98.61-1.7,1.13-3.5,1.58-5.36.63-2.59,1.13-5.3,1.54-8.08,1.14-7.76,1.57-15.99,2.18-23.26,0-.1.02-.19.02-.29-.56.03-24.69-1.35-25.23-1.35-.28,0-.54.08-.79.22-3.54,2.03-4.32,17.69-4.25,23.32-.02.21-.04.41-.07.62-.29,2.6-.69,5.35-1.15,8.21-2.52,15.64-6.83,34.5-5.02,48.65Z"/>
                  <path class="cls-56" d="M201.88,420.97s.48-10.14-1.48-29.77c4.38,1.31,14.13,3.48,22.83.71-5.5,26.71,0,29.06,0,29.06h-21.35Z"/>
                  <path class="cls-23" d="M201.88,420.97s.48-10.14-1.48-29.77c4.38,1.31,14.13,3.48,22.83.71-5.5,26.71,0,29.06,0,29.06h-21.35Z"/>
                  <g>
                    <path class="cls-49" d="M224.86,441.89c-1.95,4.25-18.93,6.65-24.33,0-1.2-1.47-1.86-3.16-2.2-4.93-.92-4.88.67-10.39.52-13.84-.13-2.98-.28-7.45.94-10.22.38-.88,1.02-1.76,1.81-2.74.36-.44.75-.91,1.16-1.4,3.14-3.71,7.39-4.17,11.09-3.53,4.21.73,7.69,2.87,7.93,3.25.73,1.16,3.63,9.63,1.95,14.65-1.11,3.34.61,8.65,1.32,13.09.36,2.24.46,4.25-.2,5.68Z"/>
                    <path class="cls-66" d="M224.86,441.89c-1.95,4.25-18.93,6.65-24.33,0-1.2-1.47-1.86-3.16-2.2-4.93-.92-4.88.67-10.39.52-13.84-.13-2.98-.28-7.45.94-10.22.38-.88,1.02-1.76,1.81-2.74.36,10.06,2.11,28.33,10.15,25.7,11.02-3.61,7.48-16.39,7.21-20.43-.13-1.98-2.61-6.3-5.1-10.2,4.21.73,7.69,2.87,7.93,3.25.73,1.16,3.63,9.63,1.95,14.65-1.11,3.34.61,8.65,1.32,13.09.36,2.24.46,4.25-.2,5.68Z"/>
                    <path class="cls-58" d="M225.3,440.11c-.06.66-.2,1.26-.44,1.78-2.18,4.69-19.48,6.63-24.37.09-.42-.56-.82-1.09-1.12-1.69-.53-1.02-.83-2.22-1.04-3.33,1.2,1.52,3.07,3.51,4.62,3.51,2.51,0,10.26-2.18,15.03-.36,4.41,1.68,6.58-.16,7.07-3.89.23,1.42.35,2.75.24,3.9Z"/>
                    <path class="cls-23" d="M224.86,441.89c-1.95,4.25-18.93,6.65-24.33,0-1.2-1.47-1.86-3.16-2.2-4.93-.92-4.88.67-10.39.52-13.84-.13-2.98-.28-7.45.94-10.22.38-.88,1.02-1.76,1.81-2.74.36-.44.75-.91,1.16-1.4,3.14-3.71,7.39-4.17,11.09-3.53,4.21.73,7.69,2.87,7.93,3.25.73,1.16,3.63,9.63,1.95,14.65-1.11,3.34.61,8.65,1.32,13.09.36,2.24.46,4.25-.2,5.68Z"/>
                    <path class="cls-56" d="M204.44,426.43c.35,0,.7-.11,1.01-.32.29-.21,7.08-4.9,12.64-.1.73.63,1.83.55,2.46-.18.63-.73.55-1.83-.18-2.46-3.19-2.76-7.16-3.64-11.48-2.54-3.14.8-5.38,2.38-5.47,2.45-.78.56-.96,1.65-.4,2.44.34.48.88.73,1.42.73Z"/>
                    <path class="cls-56" d="M204.44,421.22c.35,0,.7-.11,1.01-.32.29-.21,7.08-4.9,12.64-.1.73.63,1.83.55,2.46-.18.63-.73.55-1.83-.18-2.46-3.19-2.76-7.16-3.64-11.48-2.54-3.14.8-5.38,2.38-5.47,2.45-.78.56-.96,1.65-.4,2.44.34.48.88.73,1.42.73Z"/>
                  </g>
                </g>
                <g>
                  <g>
                    <path class="cls-54" d="M247.42,314.27s.12.57.34,1.58c.87,4.12,3.23,15.53,4.69,24.72.04.24.07.48.11.71.26,1.66.43,3.22.47,4.63.01.44.01.86,0,1.27-.32,10.07-.03,24.09,4.96,43.7.33,1.27.66,2.56,1.03,3.87,5.98,21.66.84,26.31.84,26.31l23.64,3.34s-1.37-22.63-1.84-34.12c-.05-1.22-.1-2.57-.15-4.03-.41-12.24-1.23-30.04-1.11-38.37,0-.63-.04-1.95-.08-3.19-.03-.97-.06-1.89-.05-2.4,0-.65.03-1.29.08-1.93.42-6.5,2.3-12.81-1.02-21.62-1.2-3.2-2.26-5.68-3.16-7.58-.13-.27-.25-.52-.37-.77-6.96.58-12.25.99-12.55.94-.01,0-.03,0-.04,0,0,0-.02,0-.03,0-.72-.02-4.58.73-8.32,1.48-2.78.56-5.5,1.11-6.78,1.34-.31.06-.54.1-.66.11Z"/>
                    <path class="cls-23" d="M247.42,314.27s.12.57.34,1.58c.87,4.12,3.23,15.53,4.69,24.72.04.24.07.48.11.71.26,1.66.43,3.22.47,4.63.01.44.01.86,0,1.27-.32,10.07-.03,24.09,4.96,43.7.33,1.27.66,2.56,1.03,3.87,5.98,21.66.84,26.31.84,26.31l23.64,3.34s-1.37-22.63-1.84-34.12c-.05-1.22-.1-2.57-.15-4.03-.41-12.24-1.23-30.04-1.11-38.37,0-.63-.04-1.95-.08-3.19-.03-.97-.06-1.89-.05-2.4,0-.65.03-1.29.08-1.93.42-6.5,2.3-12.81-1.02-21.62-1.2-3.2-2.26-5.68-3.16-7.58-.13-.27-.25-.52-.37-.77-6.96.58-12.25.99-12.55.94-.01,0-.03,0-.04,0,0,0-.02,0-.03,0-.72-.02-4.58.73-8.32,1.48-2.78.56-5.5,1.11-6.78,1.34-.31.06-.54.1-.66.11Z"/>
                    <path class="cls-56" d="M259.18,394.77c-.36-1.32-.7-2.61-1.03-3.87,5.58.05,15.02-.59,23.52-4.62.05,1.46.1,2.81.15,4.03.47,11.49,1.84,34.12,1.84,34.12l-23.64-3.34s5.15-4.65-.84-26.31Z"/>
                    <path class="cls-23" d="M259.18,394.77c-.36-1.32-.7-2.61-1.03-3.87,5.58.05,15.02-.59,23.52-4.62.05,1.46.1,2.81.15,4.03.47,11.49,1.84,34.12,1.84,34.12l-23.64-3.34s5.15-4.65-.84-26.31Z"/>
                  </g>
                  <g>
                    <path class="cls-49" d="M304.36,436.2c-5.59.45-13.57-.77-19.91-1.89-13.46-2.38-17.58,1.73-22.71-1.26-1.17-.68-1.82-2.24-2.13-4.26-1.03-6.78,1.66-19.96,1.66-19.96,5.28.53,9.3.36,12.39-.17,7.47-1.28,7.76-3.59,9.07-4.32,1.03-.58,1.11,4.43,8.01,9.72,3.67,2.81,9.62,2.74,14.5,4.24,2.35.72,4.46,1.81,5.94,3.76.7.92,1.21,1.82,1.56,2.7,2.39,6.04-2.88,11-8.37,11.44Z"/>
                    <path class="cls-66" d="M304.36,436.2c-5.59.45-13.57-.77-19.91-1.89-13.46-2.38-17.58,1.73-22.71-1.26-1.17-.68-1.82-2.24-2.13-4.26-1.03-6.78,1.66-19.96,1.66-19.96,5.28.53,9.3.36,12.39-.17-2.86,6.02-6.6,16.94,3.46,17.6,13.93.91,22.4,3.53,28.23-.34,2.43-1.61,1.36-4.64-.12-7.63,2.35.72,4.46,1.81,5.94,3.76.7.92,1.21,1.82,1.56,2.7,2.39,6.04-2.88,11-8.37,11.44Z"/>
                    <path class="cls-58" d="M304.93,436.3c-5.59.45-14.74-.67-21.07-1.79-13.46-2.38-17.15,1.75-22.27-1.24-.76-.44-1.3-1.47-1.66-2.54-.2-.58-.26-1.75-.37-2.45,2.29.82,5.77,2.23,10.54,2.18,3.33-.04,7-.25,10.74.03,6.21.47,11.15,2.43,17.92,2.67,8.43.3,11.44-.69,12.11-4.12.29-1.48.74-3.41,1.84-4.43.18.46.45.99.55,1.44,1.17,5.41-3.25,9.85-8.32,10.25Z"/>
                    <path class="cls-23" d="M304.36,436.2c-5.59.45-13.57-.77-19.91-1.89-13.46-2.38-17.58,1.73-22.71-1.26-1.17-.68-1.82-2.24-2.13-4.26-1.03-6.78,1.66-19.96,1.66-19.96,5.28.53,9.3.36,12.39-.17,7.47-1.28,7.76-3.59,9.07-4.32,1.03-.58,1.11,4.43,8.01,9.72,3.67,2.81,9.62,2.74,14.5,4.24,2.35.72,4.46,1.81,5.94,3.76.7.92,1.21,1.82,1.56,2.7,2.39,6.04-2.88,11-8.37,11.44Z"/>
                    <path class="cls-56" d="M289.98,424.25c.79,0,1.5-.54,1.7-1.34.18-.76.98-2.22,2.31-3.6,1.29-1.35,2.27-1.77,2.56-1.77h0c.83.45,1.87.15,2.34-.67.48-.84.19-1.9-.64-2.38-.7-.4-1.88-.73-3.51-.03-2.9,1.25-5.85,5.13-6.46,7.64-.23.94.35,1.88,1.29,2.11.14.03.28.05.41.05Z"/>
                    <path class="cls-56" d="M283.86,422.74c.79,0,1.5-.54,1.7-1.34.16-.68.93-2.06,2.21-3.47,1.17-1.29,2.1-1.86,2.51-1.99.68.46,1.61.39,2.21-.2.69-.68.69-1.78.01-2.47-.46-.46-1.46-1.16-3.09-.71-2.88.8-6.58,5.28-7.25,8.03-.23.94.35,1.88,1.29,2.11.14.03.27.05.41.05Z"/>
                  </g>
                </g>
              </g>
              <g>
                <path class="cls-37" d="M285.53,367.38c-1.94.19-3.8.8-5.71,1.18-2.5.2-4.99.41-7.49.7-2.59.3-5.19.54-7.8.65-4.8.21-9.6-.05-14.4-.14-1.55-.03-3.11-.02-4.66.01v-.13s-.03-1.12-.03-1.12l-2.07-79.11c-.1-1.08-1.05-1.19-1.35-.28-.04.13-.06.26-.07.39l-5.47,77.09-.03.97v.15s-.03.94-.03.94l-.02.66c-1.88.07-3.76.14-5.65.2-4.89.15-9.7-.25-14.56-.71-2.37-.22-4.73-.46-7.1-.71-2-.2-4.01-.3-6.01-.51-2.15-.4-4.18-1.11-6.26-1.81-.65-.22-1.31-.41-1.98-.59l5.23-97.37.03-1.31.03-1.25.03-1.31.02-.92c0-.06,0-.12.01-.18l3.12-23.58c.14-1.04,1.18-1.7,2.17-1.38,4,1.27,13.95,4.19,26.55,6.3.46.08.93.15,1.4.23.02,0,.05,0,.07.01.45.07.91.14,1.36.21,3.81.58,7.82,1.07,11.96,1.42,3.54.29,7.09.36,10.5.28.5-.01.99-.03,1.48-.05,10.52-.38,19.4-2.08,21.74-2.58.27-.06.53.13.55.41.05.62.18,1.64.36,2.92.01.1.03.2.04.31.79,5.49,2.43,15.27,2.61,19.01,0,.07,0,.13,0,.2.01.39.03.78.04,1.19.21,6.16.36,14.37.28,23.03-.07,7.09,1.01,65.51,1.05,76.56Z"/>
                <path class="cls-36" d="M228.45,279.59c4.74.94,22.75,4.1,30.49-.26,8.95-5.05-11.74,10.68-9.31,27.07,1.52,10.24.99,59.38,2.54,63.41-.68-.02-1.36-.03-2.04-.05-1.59-.03-3.17-.02-4.76.01l-2.6-80.37s0-.02,0-.03c-.11-1.14-.6-1.16-.81-.05,0,.02,0,.04,0,.06l-5.47,79.96c-1.91.07-3.82.15-5.74.2-.27,0-.54.01-.81.02,1.77-9.07,4.91-77.65,3.48-81.48-1.22-3.25-3.93-6.42-5.3-7.89-.24-.26,0-.68.34-.61Z"/>
                <path class="cls-36" d="M246.87,266.81c-20.58.07-37.66-4.65-39.84-3.23-7.3,4.73-7.25,88.81-5.15,103.8-1.71-.41-3.36-.98-5.06-1.55-.65-.22-1.31-.41-1.98-.59l5.36-102.24s0-.03,0-.04l3.34-25.21c.03-.23.26-.37.48-.3,2.96.99,21.21,6.86,42.84,8.66,15.11,1.26,30.53-1.66,33.72-2.35.27-.06.53.13.55.41.05.62.18,1.64.36,2.92,0,0,0,0,0,0,.02.18,1.85,11.16,1.7,11.26-7.01,4.58-21.11,8.41-36.32,8.46Z"/>
                <path class="cls-23" d="M285.53,367.38c-1.94.19-3.8.8-5.71,1.18-2.5.2-4.99.41-7.49.7-2.59.3-5.19.54-7.8.65-4.8.21-9.6-.05-14.4-.14-1.55-.03-3.11-.02-4.66.01v-.13s-.03-1.12-.03-1.12l-2.07-79.11c-.1-1.08-1.05-1.19-1.35-.28-.04.13-.06.26-.07.39l-5.47,77.09-.03.97v.15s-.03.94-.03.94l-.02.66c-1.88.07-3.76.14-5.65.2-4.89.15-9.7-.25-14.56-.71-2.37-.22-4.73-.46-7.1-.71-2-.2-4.01-.3-6.01-.51-2.15-.4-4.18-1.11-6.26-1.81-.65-.22-1.31-.41-1.98-.59l5.23-97.37.03-1.31.03-1.25.03-1.31.02-.92c0-.06,0-.12.01-.18l3.12-23.58c.14-1.04,1.18-1.7,2.17-1.38,4,1.27,13.95,4.19,26.55,6.3.46.08.93.15,1.4.23.02,0,.05,0,.07.01.45.07.91.14,1.36.21,3.81.58,7.82,1.07,11.96,1.42,3.54.29,7.09.36,10.5.28.5-.01.99-.03,1.48-.05,10.52-.38,19.4-2.08,21.74-2.58.27-.06.53.13.55.41.05.62.18,1.64.36,2.92.01.1.03.2.04.31.79,5.49,2.43,15.27,2.61,19.01,0,.07,0,.13,0,.2.01.39.03.78.04,1.19.21,6.16.36,14.37.28,23.03-.07,7.09,1.01,65.51,1.05,76.56Z"/>
              </g>
              <g>
                <path class="cls-59" d="M277.83,188.26s19.04,23.6,28.19,26.96c9.76,3.59,49.99,1.14,49.99,1.14l-4.87-14.92-28.96-4.13-22.02-18.1-22.33,9.04Z"/>
                <path class="cls-33" d="M274.28,185.61c.01.95.03,1.87.05,2.77l11.5,12.38c7.04.71,23.93-11.04,25-18.2-5.04-6.03-27.45-32.1-36.62-34.27-.64-.15-1.08,2.52-1.15,4.57-.2,6.19,1.13,17.36,1.18,29.11,0,1.24.02,2.46.04,3.64Z"/>
                <path class="cls-29" d="M201.34,157.68c4.53-7.76,18.55-11.07,26.13-11,7.53.07,21.19-3.03,41.19.15,15.39,2.44,14.98,8.54,14.98,8.54,0,0-.29,25.42-1.64,39.86-.51,5.42-.4,16.21-.43,25.56-.05,15.24,5.77,32.02.79,33.69-4.52,1.52-22.1,5.69-41.01,5.35-21.9-.39-45.31.02-44.69-8.81.44-6.34,3.91-22.53,4.71-31.5.86-9.6-.22-19.3-.57-26.16-.93-18.65-3.83-28.17.55-35.69Z"/>
                <path class="cls-23" d="M201.34,157.68c4.53-7.76,18.55-11.07,26.13-11,7.53.07,21.19-3.03,41.19.15,15.39,2.44,14.98,8.54,14.98,8.54,0,0-.29,25.42-1.64,39.86-.51,5.42-.4,16.21-.43,25.56-.05,15.24,5.77,32.02.79,33.69-4.52,1.52-22.1,5.69-41.01,5.35-21.9-.39-45.31.02-44.69-8.81.44-6.34,3.91-22.53,4.71-31.5.86-9.6-.22-19.3-.57-26.16-.93-18.65-3.83-28.17.55-35.69Z"/>
              </g>
              <g>
                <path class="cls-39" d="M246.46,154.73c-3.92.21-7.42-.12-10.3-.78-7.14-1.64-10.56-5.31-7.59-7.89,4.17-3.63,5.55-13.6,5.55-13.6,0,0,19.13-4.03,19.5.57.26,3.19.46,5.74,1.44,8.23.5,1.27,1.21,2.53,2.23,3.85.31.4.64.8,1.01,1.21,3.41,3.82-.75,7.83-11.84,8.42Z"/>
                <path class="cls-22" d="M258.26,146.29c-2.58,1.03-3.87,2.6-8.66,2-9.53-1.21-14.36,2.96-13.45,5.65-7.14-1.64-10.56-5.31-7.59-7.89,4.17-3.63,5.55-13.6,5.55-13.6,0,0,19.13-4.03,19.5.57.26,3.19.46,5.74,1.44,8.23.5,1.27,2.18,3.72,3.2,5.04Z"/>
                <path class="cls-23" d="M246.46,154.73c-3.92.21-7.42-.12-10.3-.78-7.14-1.64-10.56-5.31-7.59-7.89,4.17-3.63,5.55-13.6,5.55-13.6,0,0,19.13-4.03,19.5.57.26,3.19.46,5.74,1.44,8.23.5,1.27,1.21,2.53,2.23,3.85.31.4.64.8,1.01,1.21,3.41,3.82-.75,7.83-11.84,8.42Z"/>
              </g>
              <g>
                <g>
                  <polygon class="cls-6" points="356.59 142.26 339.4 136.72 321.92 193.22 339.1 198.76 356.59 142.26 356.59 142.26"/>
                  <g>
                    <polygon class="cls-12" points="367.92 129.38 349.94 123.58 348.64 127.77 366.63 133.57 367.92 129.38 367.92 129.38"/>
                    <g class="cls-41">
                      <path class="cls-26" d="M368.05,132.39c.26,0,.5-.17.59-.43.1-.32-.07-.67-.4-.77l-21.1-6.78c-.32-.1-.67.07-.77.4-.1.32.07.67.4.77l21.1,6.78c.06.02.13.03.19.03Z"/>
                    </g>
                  </g>
                  <polygon class="cls-7" points="369.95 146.58 356.59 142.26 339.1 198.76 352.47 203.08 369.95 146.58 369.95 146.58"/>
                  <polygon class="cls-10" points="366.63 133.57 369.95 146.58 356.59 142.26 366.63 133.57 366.63 133.57"/>
                  <polygon class="cls-12" points="366.63 133.57 348.64 127.76 339.4 136.72 356.59 142.26 366.63 133.57 366.63 133.57"/>
                </g>
                <g>
                  <path class="cls-53" d="M313.16,172.42c3.63.99,6.98,2.05,10.55,2.34,3.25.27,8.53,2.9,11.61,1.97.49-1.95.94-3.86,1.36-5.75,1.21-5.48,2.17-10.81,3.33-16.53.98-4.83,4.02-17.86-2.15-20.06-1.37-2.75.7-8.84.7-8.84-2.51-.46-5.53-1.28-8.04-1.61-.1.4-.2.83-.28,1.26-.4,1.97-.72,4.13-1.86,5.59-1.41,1.79-2.74,1.49-4.55,2.69-3.59,2.4-4.19,6.96-5.1,11.47-1.9,9.36-3.08,18.31-5.56,27.45Z"/>
                  <path class="cls-42" d="M333.1,171.08l3.58-.1c1.21-5.48,2.17-10.81,3.33-16.53.98-4.83,4.02-17.86-2.15-20.06-1.37-2.75.7-8.84.7-8.84-2.51-.46-5.53-1.28-8.04-1.61-.1.4-.2.83-.28,1.26,1.54.39,3.83,1.03,4.28,1.43.7.61,1.73,3.3,1.26,5.98-.47,2.68,1.92,5.28,2.08,8.01.15,2.72-1.78,17.62-1.78,17.62l-2.98,12.84Z"/>
                  <path class="cls-55" d="M338.6,125.91c-2.86-.37-5.67-1.09-8.47-1.76.42-1.72.73-3.29,1.09-4.95.06-.27.32-.45.59-.41,2.33.33,4.37.76,7.2,1.43.26.06.44.31.4.58-.14,1.11-.5,3.87-.81,5.11Z"/>
                </g>
                <g>
                  <path class="cls-60" d="M338.7,159.2c1.6-2.58,9.55-.31,12.15,1.01,4.48,2.28,5.95,4.84,5.42,9.23-1.17,9.52-7.51,12.88-16.59,11.78-7.94-.96-14.16-3.08-13.97-12.21.22-10.5,6.66-12.96,15.96-11.39l-2.96,1.59Z"/>
                  <path class="cls-18" d="M340.09,157.8c2.15,4.97,8.47-1.2,11.7-4.02-2.26-2.71-8.63.33-11.54,3.33l-.17.69Z"/>
                  <path class="cls-18" d="M340.96,160.69c2.9-4.52-6.56-5.91-11.12-6.81-.87,3.31,5.92,6.52,10.41,7.07l.71-.27Z"/>
                  <path class="cls-18" d="M341.12,158.33c.99-4.81-2.69-8.04-4.88-10.54-1.65,5.85,3.04,9.78,6.41,12.43l-1.53-1.89Z"/>
                </g>
                <g>
                  <path class="cls-44" d="M308.24,162.28c1.15-4.05,1.85-8.41,2.48-12.05.69-3.96.71-7.03,1.32-10.8,1.64-10.24,3.46-15.19,3.82-23.54.17-3.89,1.95-20.43-7.05-18.79-8.63,1.58-9.56,13.16-10.87,18.81-3.22,13.9-7.7,31.51-10.85,43.65-2.63,10.12-5.03,17.98-3.08,27.93,3.2,1.24,9.73,4.03,13.26,3.06,4.03-1.1,4.39-5.91,5.29-8.41,2.34-6.5,3.64-12.97,5.65-19.17l.02-.69Z"/>
                  <path class="cls-65" d="M302.55,110.26c1.96.6,11.92,2.06,12.57,1.08-2.61-.86-.53-.18-4.61-.56-1.92-.18-7.74-1.43-9.36-1.09.37.62,3.3.76,4.25.8l-2.84-.23Z"/>
                  <path class="cls-65" d="M300.62,120.89c1.96.6,11.92,2.06,12.57,1.08-2.61-.86-.53-.18-4.61-.56-1.92-.18-7.74-1.43-9.36-1.09.37.62,3.3.76,4.25.8l-2.84-.23Z"/>
                </g>
                <g>
                  <path class="cls-40" d="M325.93,172.48c.88-.02-8.63,4.08-3.06,1.55,3.9-3.92,5.88-14.9,2.15-18.52-1.44.54-2.01-5.41-3.43-4.55-2.15-2.44-.58-4.91-1.37-6.94-1.09-2.8-3.3-4.91-3.73-8-7.1,1.86-4.69-6.99-10.87-6.2-.05-.9-4.33,1.51-4.53.62-9.13.49-4.41,6.86-2.84,13.52.68,2.9,2.43,11.41,4.11,14.62.25.48,3.38,4.72,3.64,5.05,1.1,1.39,2.35,3.99,3.75,5.04,3.25,1.1,2.72,4.33,6.07,6.17,2.83,1.56,8.34.06,11.57-.13l-1.46-2.23Z"/>
                  <path class="cls-16" d="M310.77,177.26c1.02-2.47,4.21-.83,6.64-1.17.28-4.8,3.26-8.46,1.97-13.27-.38-.06-3.83-5.23-4.21-5.31,1.99-5.66-4.58-11.71-8.86-13.11-6.86-2.25-8.16,3.03-9.35,9.73-3.02,17.04,4.17,19.18,14.57,24.64l-.75-1.5Z"/>
                  <path class="cls-21" d="M293.66,145.78c-3.32-1.12-7.24.51-9.76,2.22-2.42,1.64-3.55,6.75-6.59,7.23.44,3.18.63,6.07-1.22,7.68-.68,1.61.26,1.24-.97,2.33.4,4.69-2.69,9.81,1.71,12.4.13-.52-.23-1.26-.06-1.89-.01,0,1.59-.27,1.47-.08-.47,8.51,4.94,3.96,6.68,9.21,1.57.3,3.73.18,5.27-.3-.18-5.14.75-8.29.94-12.71-4.06-.91-4.63-8.8-1.07-10.04.03-1.71-.09-2.28-.73-3.66-.17-1.02.94-.57,1.05-1.35-1.29-.84-1.08-1.3-1.65-2.25,2.98-.12,4.1-4.51,4.42-7.98l.5-.79Z"/>
                  <path class="cls-1" d="M288.82,142.99c-1.05-.1-2.23.1-3.23.31.02,1.06-.22,2.62,0,3.63-.82.33-1.62.07-2.44.38-.93,2.86-1.04-2.75-3.02.42-1.23-5.55-6.03-.62-6.35,3.78-.83.2-1.64.15-2.46.38-3.99,4.26-1.9,7.13-1.11,10.9.18.85,9.78,12.01,10.2,12.42,5.58,5.41.69,5.14,5.28,3.79.19.71-4.42-.04-4.17.65,3.21.69,6.26,1.01,9.28,1.8.57-2.08,1.19-2.59,1.78-4.01-1.23-5.37-2.84-12.11-9.09-11.04-.4-4.16-2.26-10.54,2.56-10.98-.05-4.23,2.31-6.24,4.87-8.82.14-.71-.17-1.55,0-2.19l-2.09-1.42Z"/>
                  <path class="cls-27" d="M299.83,139.99c-.34-2.06-.64-3.45-2.16-4.11-.64,1.32-1.64,1.41-2.24,2.24-.32-.64-.3-1.29-.64-1.92-3.14-.24-5.17,2.23-3.59,6.41-.93.03-2.05,1.15-2.98,1.18.54,1.37.46,3.6,1.04,4.94-.25.53-1.01.29-1.39.67.04.55-2.04,5.44-2.23,5.92-4.78,4.33-7.98,1.88-4.35,11.66.42.27,1.06-.26,1.51-.25-.15.99.28,3.24.08,4.46.91-.43,2.29-.26,3.17-.76-.58,2.02-1.61,4.61-2.27,6.73,1.44.52,2.89,1.01,4.38,1.62.52-1.71.73-.51,1.76-1.72,1.56,3.49,4.74,2.53,7.34,3.77,1.49-3.67,2.95-7.45,4.14-11.47-.68-.64-1.34-2.01-1.74-2.43,1.1,0,2.42-1.23,3.52-1.37-1.95-5.51-2.73-14.91,1.55-17.02-1.59-2.3.6-3.45.2-7.39-.64.29-5.77-.3-6.15-.8l1.07-.34Z"/>
                  <path class="cls-72" d="M300.71,171.55c5.94-.96,6.22,4.56,7.16-8.68-3.91-1.93-.3-5.12-1.64-9.7-2.61-3.24-5.64-3.48-7.58-2.15-4.46,8.95-2.18-.55-9.3,7.15-3.99,3.93-3.16,13.57-3.29,12.25-.67-6.64,10.62,10.83,15.46,11.15.05-.44.1-.87.16-1.31.98-.22,2.27.04,3.22-.33l-4.17-8.38Z"/>
                </g>
                <g>
                  <path class="cls-9" d="M382.6,136.44l2.05,1.15c-2.38,5.75-5.94,11.01-10.6,15.8l-2.05-1.15c4.92-4.15,8.64-9.27,10.6-15.8h0Z"/>
                  <path class="cls-9" d="M377.22,137.49l2.23.54c-.73,6.04-2.7,11.92-5.84,17.66l-2.23-.54c3.55-5.2,5.71-11,5.84-17.66h0Z"/>
                  <path class="cls-9" d="M389.21,142.38l-1.81-1.63c-5.44,3.55-10.03,8.07-13.8,13.51l1.81,1.63c3.02-5.53,7.4-10.17,13.8-13.51h0Z"/>
                  <path class="cls-5" d="M343.09,201.64c2.27,3.17,14.21-8.62,24.63-22.42.27-.36.54-.72.81-1.08.18-.24.36-.48.54-.72,1.44-1.96,2.84-3.83,4.16-5.63.27-.38.55-.75.81-1.12,7.55-10.42,11.76-18.06,3.28-23.74-4.36-2.91-7.84-2.24-11.08.71-.35.31-.69.65-1.03,1.02-.39.41-.77.86-1.15,1.33-.31.38-.62.79-.92,1.21-.36.49-.72,1-1.07,1.54-.26.39-.52.79-.78,1.21-1.5,2.37-3.01,5.09-4.61,8.04-.22.4-.43.8-.65,1.21-.14.25-.27.5-.41.75h0c-.22.4-.43.8-.65,1.21-.45.83-.9,1.67-1.37,2.52-.73,1.33-1.42,2.65-2.09,3.97-.22.42-.43.85-.64,1.27-.2.4-.4.81-.59,1.21-.21.42-.41.85-.6,1.27-5.79,12.33-8.67,23.33-6.57,26.24Z"/>
                  <path class="cls-4" d="M365.21,148.66c1.2.76,2.33,1.61,3.39,2.53,1.95,1.7,3.66,3.67,5.1,5.9.14.22.42.29.65.15s.29-.43.15-.65c-1.41-2.38-3.1-4.49-5.05-6.34-1-.95-2.07-1.82-3.21-2.62-.35.31-.69.65-1.03,1.02Z"/>
                  <path class="cls-4" d="M366.33,164.91c1.85,1.62,3.6,3.31,5.27,5.09.55.59,1.1,1.19,1.63,1.8.27-.38.55-.75.81-1.12-.51-.53-1.02-1.05-1.55-1.56-1.76-1.72-3.61-3.36-5.56-4.93-.2-.17-.5-.14-.66.06-.17.2-.14.49.06.66Z"/>
                  <path class="cls-4" d="M361.27,153.95c.45.36.89.72,1.33,1.1.86.74,1.69,1.5,2.5,2.3.18.19.47.2.66.02.19-.18.2-.47.02-.66-.75-.89-1.52-1.74-2.33-2.57-.46-.47-.93-.94-1.41-1.39-.26.39-.52.79-.78,1.21Z"/>
                  <path class="cls-4" d="M356.01,163.2c.73.56,1.46,1.13,2.17,1.71,1.21.99,2.39,2.01,3.51,3.09.18.18.48.18.67,0,.18-.18.18-.48,0-.66-1.09-1.16-2.23-2.26-3.4-3.33-.75-.69-1.52-1.36-2.3-2.02-.22.4-.43.8-.65,1.21Z"/>
                  <path class="cls-4" d="M362.01,174.16c1.55,1.23,3.04,2.53,4.49,3.88.41.39.82.78,1.23,1.18.27-.36.54-.72.81-1.08-.4-.35-.8-.7-1.2-1.04-1.53-1.29-3.11-2.53-4.75-3.69-.21-.16-.5-.11-.66.09-.16.21-.11.5.09.66Z"/>
                  <path class="cls-4" d="M350.85,172.92c.59.47,1.16.96,1.71,1.47,1.45,1.34,2.79,2.79,4.02,4.35.16.21.45.25.66.1.21-.15.25-.45.1-.66-1.17-1.67-2.48-3.24-3.9-4.69-.62-.64-1.27-1.25-1.95-1.84-.22.42-.43.85-.64,1.27Z"/>
                  <path class="cls-4" d="M349.66,175.4s.1.1.14.14c.81.82,1.59,1.66,2.33,2.54.16.21.45.25.66.09.2-.16.24-.45.09-.66-.67-.96-1.39-1.89-2.14-2.81-.16-.19-.31-.38-.47-.57-.21.42-.41.85-.6,1.27Z"/>
                  <path class="cls-4" d="M363.13,151.21c.25.22.5.44.74.67.36.34.71.68,1.05,1.04.16.2.46.24.66.08.2-.16.24-.45.08-.66-.27-.44-.55-.86-.85-1.28-.25-.36-.5-.71-.77-1.06-.31.38-.62.79-.92,1.21Z"/>
                  <path class="cls-4" d="M354.95,165.16s.09.09.13.13c.7.7,1.36,1.43,1.97,2.22.15.21.44.27.65.12.21-.15.27-.44.12-.65-.55-.89-1.16-1.72-1.81-2.52-.14-.17-.27-.33-.41-.5-.22.4-.43.8-.65,1.21Z"/>
                </g>
                <g>
                  <g>
                    <path class="cls-2" d="M326.5,160.37c-1.98-.35-3.32-1.72-5.69-1.37-6.94,1.01-10.42,4.39-11.43,9.33-1.33,6.52,4.49,12.46,12.65,13.89,8.16,1.43,15.6-2.2,16.93-8.72,1.02-4.98-1.83-10.2-7.1-12.61-2.67-1.22-3.44-.17-5.36-.51h0Z"/>
                    <g class="cls-67">
                      <path class="cls-11" d="M332.41,156.75c7.02,8.52,2.3,22.34-13.6,28.82,12.52-.94,20.89-4.26,25.64-11.03l-12.04-17.79h0Z"/>
                    </g>
                  </g>
                  <path class="cls-8" d="M333.55,164.67c-.99-.21-2.04.71-2.36,2.06-.32,1.35.23,2.61,1.21,2.82.99.21,2.04-.71,2.36-2.06.32-1.35-.23-2.61-1.21-2.82h0Z"/>
                  <path class="cls-3" d="M325.44,165.65s4.8,2.97,5.18,2.77c.38-.2-2.92-3.97-2.92-3.97.1.08,6.07-2.09,5.22-2.19-.73-.09-5.95.22-5.95.22-.14.04,1.25-4.87,1.21-4.95-.42-.8-3.38,4.27-3.38,4.27-.09.08-3.92-3.91-3.99-3.9-1.14.16,1.94,4.58,1.94,4.58,0,0-4.59,1.08-5.65,1.16-.79.06,6.05,1.27,6.05,1.27,0,0-1.08,4.31-.59,5.27.17.34,2.88-4.54,2.88-4.54h0Z"/>
                  <g>
                    <path class="cls-2" d="M307.76,157.19c-1.64-1.03-2.31-2.74-4.56-3.3-6.58-1.63-10.97.12-13.74,4.16-3.66,5.34-.71,12.77,6.04,17.02,6.75,4.25,14.77,3.72,18.43-1.62,2.8-4.08,2.23-9.77-1.57-13.86-1.92-2.07-3.01-1.41-4.59-2.41h0Z"/>
                    <g class="cls-51">
                      <path class="cls-11" d="M314.41,156.11c3.05,10.17-6.4,20.8-23.06,20.79,11.54,3.72,20.28,3.81,27.09-.5l-4.03-20.29h0Z"/>
                    </g>
                  </g>
                  <path class="cls-13" d="M304.82,161.52s3.16,4.41,3.58,4.36c.41-.04-1.1-4.61-1.1-4.61.06.11,6.21.35,5.49-.05-.62-.34-5.4-1.97-5.4-1.97-.14-.01,2.96-3.89,2.95-3.98-.08-.86-4.64,2.58-4.64,2.58-.11.03-2.02-4.92-2.09-4.94-1.08-.27,0,4.8,0,4.8,0,0-4.51-.71-5.49-1.02-.73-.23,4.93,3.35,4.93,3.35,0,0-2.59,3.46-2.52,4.5.03.36,4.29-3.01,4.29-3.01h0Z"/>
                  <path class="cls-8" d="M311.16,162.2c-.99-.21-2.04.71-2.36,2.06-.32,1.35.23,2.61,1.21,2.82.99.21,2.04-.72,2.36-2.06.32-1.35-.23-2.61-1.21-2.82h0Z"/>
                </g>
                <g>
                  <path class="cls-25" d="M262.87,241.82c.02,3.37.47,6.88,1.78,11.04,1.67,5.31,9.28,6.78,17.96,8.67,10.97,2.39,30.77,6.18,41.62,6.98,10.88.8,18.58,1.37,23.03-9.35,4.84-11.63,6.57-21.33,9.76-33.59,3.88-14.91,7.46-25.17,12.15-44.7-11.32-2.14-18.98-3.65-26.65-5.12-5.51-1.05-11.03-2.08-17.92-3.3-4.68-.83-9.99-1.74-16.37-2.81-5.05-.85-37.93-7.46-38.16-5.72-2.25,16.61-2.93,27.61-3.21,31.45-.62,8.57-1.36,14.96-2.02,22.46-.2,2.3-.39,4.7-.57,7.3-.45,6.56-1.45,11.47-1.42,16.7Z"/>
                  <path class="cls-73" d="M262.87,241.82c.02,3.37.47,6.88,1.78,11.04,1.67,5.31,9.28,6.78,17.96,8.67,10.97,2.39,30.77,6.18,41.62,6.98,2.45.18,4.74.35,6.87.38,7.32.11,12.72-1.42,16.17-9.73,4.84-11.63,6.57-21.33,9.76-33.59,3.88-14.91,7.46-25.17,12.15-44.7-1.56-.3-2.98-.57-4.29-.82-8.23-1.6-12.21-2.51-18.83-3.77-5.51-1.05-8.03-1.44-14.91-2.66.9,14.05-5.09,50.28-24.12,55.82-16.74,4.87-33.76-5.33-42.17-11.61-.2,2.3-.39,4.7-.57,7.3-.45,6.56-1.45,11.47-1.42,16.7Z"/>
                  <path class="cls-47" d="M262.87,241.82c.02,3.37.47,6.88,1.78,11.04,1.67,5.31,9.28,6.78,17.96,8.67,10.97,2.39,30.77,6.18,41.62,6.98,10.88.8,18.58,1.37,23.03-9.35,4.84-11.63,6.57-21.33,9.76-33.59,3.88-14.91,7.46-25.17,12.15-44.7-3.03-.65-7.74-1.49-15.41-2.95.11,12.95-6.72,50.74-14.37,65.14-8.59,16.15-57.67,6.69-76.53-1.23Z"/>
                  <path class="cls-30" d="M331.1,268.88c7.32.11,12.72-1.42,16.17-9.73,4.84-11.63,6.57-21.33,9.76-33.59,3.88-14.91,7.46-25.17,12.15-44.7-.66-.14-1.78-.34-2.16-.42-1.5,7.27-6.71,21.64-8.22,28.46-2.06,9.23-10.75,50.79-22.38,58.17-1.37.87-4.15,1.14-5.32,1.81Z"/>
                  <path class="cls-61" d="M317.03,178.93c-9.11-4.66-29.56-3.41-35.78,6.1-4.47,6.83-12.25,19.25-6.81,29.89,2.13,4.17,7.94,4.4,11.7,5.55,27.02,8.22,39.2-37.3,30.9-41.54Z"/>
                </g>
              </g>
              <g>
                <g>
                  <g>
                    <path class="cls-57" d="M249.54,216.65c1.73,1.92-9.66,18.1-14.44,15.76-2.23-1.09-11.63-12.44-16.59-19.59-.74-1.07-1.48-2.15-2.2-3.21-4.76-7.01-8.74-13.32-8.74-13.32l23.59-9.13s4.11,7.32,9.41,13.95c.07.09.15.19.22.28,4.72,5.85,5.66,11.85,8.75,15.26Z"/>
                    <path class="cls-22" d="M240.57,201.11c-.48.38-.99.75-1.53,1.1-8.22,5.37-17.4,6.94-22.73,7.39-4.76-7.01-8.74-13.32-8.74-13.32l23.59-9.13s4.11,7.32,9.41,13.95Z"/>
                    <path class="cls-23" d="M249.54,216.65c1.73,1.92-9.66,18.1-14.44,15.76-2.23-1.09-11.63-12.44-16.59-19.59-.74-1.07-1.48-2.15-2.2-3.21-4.76-7.01-8.74-13.32-8.74-13.32l23.59-9.13s4.11,7.32,9.41,13.95c.07.09.15.19.22.28,4.72,5.85,5.66,11.85,8.75,15.26Z"/>
                  </g>
                  <g>
                    <path class="cls-34" d="M231.72,228.98c2.98,4.39,10.97,8.14,17.64,11.67,6.62,3.5,19.14,7.18,25.71,8.5.67.13,3.74,1.01,4.17,1.16,7.27,2.64,10.92,7.68,13.6,9.83,2.67,2.15,6.31,6.71,7.39,8.45,1.09,1.75,4.77,5.57,9.2,5.4,1.73-.07,2.28-.64,2.29-1.31.04-.98-.56-1.87-1.09-2.28-.04-.04-.08-.07-.14-.1-.53-.34-1.52-.48-2.45-.5-.91-.01-3.19-3.75-3.9-5.16-.56-1.15.46-1.41.9-1.48.1-.01.17-.01.17-.01,0,0,3.43,5.34,9.22,6.06,4.95.62,5.43-1.19,4.85-2.36-.08-.21-.22-.39-.36-.55-.52-.55-1.97-.85-2.64-1.48-.69-.63-5.73-3.5-7.51-5.53-.97-1.11-.66-1.33-.35-1.36.15-.03.32.01.32.01,0,0,8.56,6.66,12.93,8.18,3.51,1.24,3.92-1.02,3.61-2.52-.07-.36-.17-.67-.29-.9-.55-.99-2.18-2.1-3.36-3.11-1.19-1.02-8.84-5.39-10.03-6.59-.42-.42-.52-.66-.46-.77.11-.21.69-.07.69-.07,0,0,10.55,7.99,15.09,10.07,3.96,1.82,3.94-1.04,3.41-2.84-.08-.27-.18-.52-.27-.71-.71-1.55-11.48-8.94-13.34-10.46-1.59-1.29-7.64-6.2-9.4-7.64,3.54-.52,7.67-1.79,7.48-3.3-.28-2.45-1.86-3.4-7.22-3.71-5.36-.31-7.96.91-7.96.91,0,0,0,.03.01.06-.6,0-1.2.13-1.9.31-.2.06-.39.11-.59.18-2.34.73-6.31,1.55-10.16.7-.53-.11-1.06-.25-1.58-.45-4.29-1.52-13.81-6.74-20.94-10.25-3.04-1.5-8.16-6.64-14.91-8.39-6.98-1.79-17.96,12.13-17.82,12.34Z"/>
                    <path class="cls-35" d="M279.25,249.63c7.26,2.64,10.92,7.68,13.59,9.84,2.67,2.15,6.32,6.71,7.39,8.45,1.08,1.74,4.76,5.57,9.2,5.39,1.73-.07,2.27-.64,2.29-1.31-.41-.01-1.81.73-2.26.73-5.94.09-5.56-2.94-12.34-10.13-6.78-7.2-4.64-5.76-10.55-12.2-1.61-1.75-4.21-1.42-7.33-.76Z"/>
                    <path class="cls-35" d="M310.14,270.39c-.57.46-1.47.83-2.69.17-2.2-1.18-5.26-5.84-5.26-7.85,0-2.01,1.41-1.41,2.29.29.02.05.05.09.07.15-.42.06-1.45.33-.89,1.48.71,1.42,2.99,5.15,3.9,5.18.91.03,1.91.17,2.45.5.04.03.09.06.13.09Z"/>
                    <path class="cls-15" d="M330.31,259.41c-3.1-1.78-21.55-16.16-23.48-17.96-1.97-1.85-.97-1.58-.97-1.58,0,0,1.3.56,1.14.49.19.16,7.85,6.38,9.69,7.88,1.86,1.52,12.64,8.91,13.35,10.46.09.2.19.45.27.72Z"/>
                    <path class="cls-35" d="M318.74,267.39c-4.09-1.69-7.8-3.85-11.68-7.84-1.95-2.01-.27-1.94.81-1.07-.31.03-.61.26.35,1.36,1.78,2.03,6.82,4.9,7.5,5.53.68.63,2.13.93,2.65,1.49.14.15.27.34.37.54Z"/>
                    <path class="cls-35" d="M324.78,264.2c-1.06-.99-3.14-2.8-5.39-4.17-3.24-1.98-10.07-7.13-10.07-7.13,0,0,.77-1.03,1.99-.12,0,0-.58-.14-.68.07-.06.12.03.35.46.78,1.19,1.19,8.84,5.57,10.02,6.58,1.18,1.01,2.81,2.12,3.36,3.12.12.21.23.53.3.88Z"/>
                    <path class="cls-15" d="M297.72,235.49c-.8.42-1.7.89-2.71,1.41-3.48,1.78-6.2.75-8.03-.53,3.85.85,7.82.02,10.15-.71.19-.06.39-.12.59-.17Z"/>
                    <path class="cls-23" d="M231.72,228.98c2.98,4.39,10.97,8.14,17.64,11.67,6.62,3.5,19.14,7.18,25.71,8.5.67.13,3.74,1.01,4.17,1.16,7.27,2.64,10.92,7.68,13.6,9.83,2.67,2.15,6.31,6.71,7.39,8.45,1.09,1.75,4.77,5.57,9.2,5.4,1.73-.07,2.28-.64,2.29-1.31.04-.98-.56-1.87-1.09-2.28-.04-.04-.08-.07-.14-.1-.53-.34-1.52-.48-2.45-.5-.91-.01-3.19-3.75-3.9-5.16-.56-1.15.46-1.41.9-1.48.1-.01.17-.01.17-.01,0,0,3.43,5.34,9.22,6.06,4.95.62,5.43-1.19,4.85-2.36-.08-.21-.22-.39-.36-.55-.52-.55-1.97-.85-2.64-1.48-.69-.63-5.73-3.5-7.51-5.53-.97-1.11-.66-1.33-.35-1.36.15-.03.32.01.32.01,0,0,8.56,6.66,12.93,8.18,3.51,1.24,3.92-1.02,3.61-2.52-.07-.36-.17-.67-.29-.9-.55-.99-2.18-2.1-3.36-3.11-1.19-1.02-8.84-5.39-10.03-6.59-.42-.42-.52-.66-.46-.77.11-.21.69-.07.69-.07,0,0,10.55,7.99,15.09,10.07,3.96,1.82,3.94-1.04,3.41-2.84-.08-.27-.18-.52-.27-.71-.71-1.55-11.48-8.94-13.34-10.46-1.59-1.29-7.64-6.2-9.4-7.64,3.54-.52,7.67-1.79,7.48-3.3-.28-2.45-1.86-3.4-7.22-3.71-5.36-.31-7.96.91-7.96.91,0,0,0,.03.01.06-.6,0-1.2.13-1.9.31-.2.06-.39.11-.59.18-2.34.73-6.31,1.55-10.16.7-.53-.11-1.06-.25-1.58-.45-4.29-1.52-13.81-6.74-20.94-10.25-3.04-1.5-8.16-6.64-14.91-8.39"/>
                  </g>
                </g>
                <path class="cls-52" d="M240.3,196.61c-2.45,3.95-27.96,10.24-32.06,8.02-4.29-7.77-14.4-37.59-4.71-45.64,3.25-2.7,9.88-4.33,14.96-1.09,4.46,2.85,8.94,6.93,12.53,14.37.53,1.1,11.39,20.95,9.29,24.33Z"/>
                <path class="cls-23" d="M231.01,172.27c.53,1.1,11.39,20.95,9.29,24.33-2.45,3.95-27.96,10.24-32.06,8.02-4.29-7.77-14.4-37.59-4.71-45.64"/>
              </g>
              <g>
                <path class="cls-17" d="M273.1,52.39c6.29,6.57,11.21,27.92,11.21,27.92,5.34-9.84,2.65-22.42-2.6-32.33-2.08,1.85-5.17,3.4-8.61,4.42Z"/>
                <path class="cls-68" d="M291.48,103.05c4.1,15.32-6.08,35.63-30.82,39.87-11.77,2.02-27.38,2.13-38.19-4.21-3.43-2.01-8.87-5.38-11.09-7.98-22.02,15.95-36.88-8.72-27.44-19.33-6.87-25.67,12.81-63.2,38.33-70.04,12.72-3.41,37.26-4.45,52.44,12.75,2.63,3.91,5.15,6.82,9.47,26.21,1.02,4.58,2.63,12.08,5.15,16.04,1.13,1.78,1.58,4.6,2.13,6.68Z"/>
                <path class="cls-22" d="M274.09,53.15c-1.85,1.8-4.37,2.98-7.76,3.14-7.48.36-14.44.31-19.73,5.23-6.27,5.83-9.37,8.39-18.35,9.46-4.44.53-12.91,1.2-15.34-.32,6.14,10.17,5.21,17.34-3.55,28.24,6.05-10,5.49-21.49-.66-31.66,1.31,2.16,11.14,1.68,15.58,1.15,8.97-1.07,15.13-4.45,21.4-10.28,5.3-4.92,15.59-3.52,23.07-4.04,2.01-.14,3.78-.46,5.34-.93Z"/>
                <path class="cls-22" d="M292.02,105.61c2.4,14.94-7.98,33.31-31.36,37.32-11.77,2.02-27.38,2.13-38.19-4.21-3.43-2.01-8.88-5.38-11.08-7.98-18.01,13.05-31.24-1.1-30.28-12.48.21-2.53,9.39-11.06,20.57-.38,1.53,1.46,6.45,7.07,6.52,10.38,2.02-2.53,4.72-2.39,6.18-1.18,3.1,2.56,8.07,6.52,10.08,7.74,10.54,6.41,25.69,6.42,37.1,4.5,21.03-3.54,31.09-19.51,30.48-33.71Z"/>
                <g>
                  <path class="cls-23" d="M252.27,143.84c11.11-.08,21.43-4.12,29.73-10.86,8.3-6.74,11.88-18.72,9.79-29.25-1.42-7.15-6.17-13.53-7.17-20.75-1.84-13.28-7.51-27.75-12.06-31.43"/>
                  <path class="cls-17" d="M289.65,26.65c.9,8.55-3.18,25.21-21.27,26.48-7.47.52-17.77-.88-23.07,4.04-6.27,5.83-12.43,9.21-21.4,10.28-4.44.53-14.27,1.01-15.58-1.15,6.21,10.28,8.77,21.38-.24,32.46,1.78,3.47,3.46,6.77,4.35,10.12.5,1.91.98,5.08-.66,6.18-2.02,1.36-4.91-1.33-6.8-2.88-4.88-4.02-10.36-6.6-16-4.28-1.04.43-1.99.94-2.83,1.53-.84.59-1.58,1.25-2.21,1.98-7.75-3.98-13.29-12.62-16.49-20.75-1.63-4.13-2.47-8.56-2.52-13-.05-4.29.65-8.59,2.1-12.62,1.69-4.73,4.18-9.21,8.62-11.5-3.23-11.98,6.34-24.2,17.71-29,11.37-4.8,24.14-4.38,36.44-5.38,12.3-1,25.5-4.1,33.3-13.69,1.14-1.4,2.52-3.08,4.3-2.83.92.13,1.64.75,2.2,1.53.29.39.54.82.75,1.25,2.78,5.52,2.77,19.8-5.83,28.1,13.22-2.41,24.2-15.57,25.12-6.85Z"/>
                  <path class="cls-17" d="M289.65,26.65c.9,8.55-3.18,25.21-21.27,26.48-7.47.52-17.77-.88-23.07,4.04-6.27,5.83-12.43,9.21-21.4,10.28-4.44.53-14.27,1.01-15.58-1.15,6.21,10.28,8.77,21.38-.24,32.46,1.78,3.47,3.46,6.77,4.35,10.12.5,1.91.98,5.08-.66,6.18-2.02,1.36-4.91-1.33-6.8-2.88-4.88-4.02-10.36-6.6-16-4.28-1.04.43-1.99.94-2.83,1.53-.84.59-1.58,1.25-2.21,1.98-7.75-3.98-13.29-12.62-16.49-20.75-1.63-4.13-2.47-8.56-2.52-13,12.1,26.19,38.08,16.28,38.08,16.28,12.84-18.4-8.55-38.69-16.76-40.25-8.21-1.56-5.37-2.22-5.37-2.22,10.43-.6,16.55,4.3,24.29,10.41,9.48,7.48,34.27-3.54,35.75-6.13,1.49-2.59-4.86-1.83-1.1-4.09,3.76-2.26,6.07-1.59,25.27-1.44,19.21.15,24.54-23.56,24.54-23.56Z"/>
                  <path class="cls-17" d="M264.52,33.51c-8.28,5.85-18.1,6.68-35.37,5.04-17.27-1.64-29.85,6.65-24.41,1.93,5.37-4.66,17.64-7.58,26.2-5.93,7.65,1.47,19.94,2.25,29.61-4.41,9.17-6.32,10.13-18.88,9.05-25.97.29.39.54.82.75,1.25,2.78,5.52,2.77,19.8-5.83,28.1Z"/>
                  <path class="cls-23" d="M236.51,143.41c-10.75-1.28-17.93-6.81-25.3-13.08-4.58,4.47-11.5,6.53-17.69,4.89-6.19-1.64-11.32-7.09-12.23-13.45-.9-6.36,1.78-11.45,7.69-13.88,5.64-2.32,11.11.26,16,4.28,1.89,1.55,4.78,4.24,6.8,2.88,1.63-1.1,1.16-4.27.66-6.18-.88-3.35-2.57-6.65-4.35-10.11,9-11.08,6.45-22.18.24-32.46,1.31,2.16,11.14,1.68,15.58,1.15,8.97-1.07,15.13-4.45,21.4-10.27,5.3-4.92,15.6-3.52,23.07-4.04,18.09-1.26,22.16-17.93,21.27-26.47-.92-8.72-11.9,4.44-25.12,6.85,8.61-8.3,8.61-22.58,5.83-28.1-.63-1.26-1.56-2.58-2.95-2.77-1.78-.25-3.16,1.44-4.3,2.83-7.81,9.59-21,12.69-33.3,13.69-12.3,1-25.07.58-36.44,5.38-11.37,4.8-20.94,17.02-17.71,29h0c-4.45,2.29-6.93,6.77-8.63,11.5-2.94,8.21-2.78,17.5.42,25.62,3.21,8.12,8.75,16.77,16.49,20.75"/>
                </g>
                <path class="cls-28" d="M281.18,48.61c4.96,9.45,7.75,21.39,2.48,31.31-.45.85.84,1.61,1.3.76,5.54-10.43,2.74-22.87-2.48-32.83-.45-.86-1.74-.1-1.3.76h0Z"/>
              </g>
              <g>
                <path class="cls-70" d="M263.64,69.54c-1.57-2.22,3.19-6.12,8.33-5.12,5.13,1,5.88,5.81,5.86,6.19s-3.18-2.41-6.38-2.08c-4.8.49-6.44,2.94-7.8,1.01Z"/>
                <path class="cls-70" d="M243.43,74.6c.51-2.9-5.57-7.31-15.16-.16-5.75,4.28-4.47,10.85-4.2,11.14.27.29,2.36-4.2,6.46-6.21,6.14-3.02,12.45-2.24,12.9-4.76Z"/>
                <path class="cls-48" d="M270.94,81.05c10.23-2.26,12.6,18.87,5.71,22.12-7.02,3.31-10.87-2.92-11.36-8.46-.62-6.96,1.39-12.72,5.66-13.66Z"/>
                <path class="cls-48" d="M237.94,86.73c11.98-2.65,14.17,19.32,5.99,22.79-6.64,2.81-12.58-2.71-12.99-8.45-.52-7.21,2-13.24,7-14.34Z"/>
                <g>
                  <ellipse class="cls-45" cx="276.12" cy="95.35" rx="8.47" ry="4.59" transform="translate(153.29 360.39) rotate(-84.19)"/>
                  <ellipse class="cls-26" cx="274.72" cy="91.04" rx="1.45" ry=".86" transform="translate(156.33 355.13) rotate(-84.19)"/>
                </g>
                <g>
                  <ellipse class="cls-45" cx="243.62" cy="100.26" rx="9.23" ry="5.4" transform="translate(131.94 338.86) rotate(-87.29)"/>
                  <ellipse class="cls-26" cx="241.63" cy="95.56" rx="1.58" ry="1.01" transform="translate(134.75 332.39) rotate(-87.29)"/>
                </g>
                <path class="cls-70" d="M269.58,80.61c2.67-1.33,6.08-.52,7.9,1.78.77.93,1.31,2.01,1.65,3.14.1.34-.36.55-.55.25-.59-.91-1.26-1.76-2.06-2.47-1.66-1.53-4.11-2.03-6.19-1.14-1.91.86-3.15,2.65-4.17,4.48-.12.22-.45.11-.43-.14.16-1.52.86-4.42,3.85-5.91Z"/>
                <path class="cls-70" d="M236.16,86.32c.6-.28,1.28-.45,1.93-.52,1.25-.16,2.54-.19,3.79.12,1.89.43,3.48,1.82,4.35,3.51v.02c.18.31-.23.61-.48.36-.41-.42-.83-.8-1.28-1.13-.89-.66-1.86-1.05-2.9-1.2-1.04-.15-2.13-.07-3.23.09-.52.07-.99.18-1.46.39-4.16,1.98-5.32,7.45-5.81,11.87-.03.23-.36.24-.4.01-.55-2.95-1.19-10.44,5.5-13.52Z"/>
                <g>
                  <path class="cls-20" d="M270.75,120.61c-.25,1.59-1.03,3.42-2.6,5.2-.1.12-.21.23-.31.35-4.78,5.25-9.84,6.66-15.47,1.96-1.83-1.52-3.42-3.61-4.45-5.58-.42-.8-.75-1.58-.96-2.3-.53-1.8-.37-3.19.12-3.85.61-.82,1.88-1.89,4.34-1.41,5.83,1.12,10.31,1.88,15.67,1.15,3.14-.43,4.09,1.72,3.65,4.48Z"/>
                  <path class="cls-64" d="M267.84,126.16c-4.78,5.25-9.84,6.66-15.47,1.96-1.83-1.52-3.42-3.61-4.45-5.58.81-2.47,12.06-.46,14.72.38,2.69.85,5,2.44,5.2,3.24Z"/>
                </g>
                <path class="cls-32" d="M263.32,103.91s1.28,4.8-1.33,5.97c-.48.21-.86-.37-1.45-.25-.59.12-1.15.65-.94,1.74.35,1.79,3.77,1.98,5.29-1.92,1.06-2.7-.68-4.88-1.58-5.53Z"/>
                <path class="cls-62" d="M265.89,104.08c1.48,2.53.28,6.03-2.06,7.71-.16.11-.32.22-.49.31-.38.22-.77-.28-.47-.6,1.41-1.51,2.03-3.6,1.55-5.61-.37-1.83-1.82-2.8-3.6-3.14-1.16-.23-2.29-.08-3.45.24-.35.1-.58-.37-.28-.58h.02c1.73-1.24,6.41-2.37,8.78,1.67Z"/>
              </g>
            </g>
          </g>
          <g>
            <circle class="cls-50" cx="196.22" cy="280" r="39.08"/>
            <path class="cls-26" d="M202.67,276.74c1.98,1.17,3.42,2.48,4.32,3.94.9,1.46,1.44,2.88,1.62,4.27.18,1.4.15,2.71-.09,3.94-.24,1.23-.51,2.18-.81,2.86-.3.67-.47,1.04-.5,1.1-.81,1.17-1.66,2.11-2.54,2.81-.89.71-2.04,1.33-3.46,1.89-1.43.55-3.15.79-5.17.72-2.02-.08-4.38-.58-7.06-1.53-2.69-.95-5.72-2.56-9.11-4.84l6.62-9.45c2.16,1.56,3.92,2.59,5.26,3.08,1.35.5,2.4.72,3.15.67.75-.04,1.4-.35,1.94-.92,0-.03.06-.2.18-.52.12-.32.15-.71.09-1.19s-.31-.93-.74-1.35c-.44-.42-1.19-.74-2.27-.97-1.08-.23-2.58-.25-4.5-.07l.5-7.69c2.04.18,3.49.13,4.34-.16.85-.28,1.38-.64,1.58-1.08.19-.43.11-1.03-.25-1.78-.63-.6-1.33-.94-2.09-1.01-.76-.08-1.8.08-3.1.45-1.3.38-2.93,1.24-4.88,2.59l-4.41-8.19c2.94-2.07,5.67-3.46,8.19-4.16,2.52-.7,4.73-.99,6.62-.85,1.89.13,3.52.49,4.88,1.08,1.36.58,2.37,1.14,3.02,1.67.64.53,1,.82,1.06.88.03.03.25.31.67.83.42.53.85,1.27,1.28,2.23.43.96.67,2.03.72,3.2s-.3,2.42-1.04,3.74c-.74,1.32-2.06,2.59-3.98,3.83Z"/>
          </g>
          <g>
            <path class="cls-26" d="M44.25,103.83l16.16,24.58-10.05,3.81-2.69-4.48-6.72.22-1.31,4.8-9.63-3.14,14.24-25.79ZM42.62,122.87l3.81-.67-1.6-4.35-2.21,5.02Z"/>
            <path class="cls-26" d="M78.07,131.54l-6.27.42v-1.82h-.06c-.51.68-1.21,1.18-2.1,1.49-.89.31-1.78.46-2.67.46-1.09,0-2.14-.22-3.15-.66-1.01-.44-1.92-1.07-2.7-1.89-.79-.82-1.42-1.83-1.89-3.02-.47-1.19-.7-2.55-.7-4.06,0-1.37.2-2.65.59-3.86.39-1.21.96-2.26,1.71-3.17.75-.91,1.67-1.62,2.77-2.14,1.1-.52,2.35-.78,3.76-.78.7,0,1.39.09,2.05.27.66.18,1.24.49,1.73.91l-.29-7.62,7.36-.58-.13,26.05ZM69.21,125.21c.47-.17.86-.4,1.18-.69s.57-.61.75-.96c.18-.35.28-.72.3-1.1.02-.38-.03-.76-.16-1.12-.13-.34-.33-.65-.59-.93-.27-.28-.58-.5-.94-.66s-.76-.25-1.2-.27c-.44-.02-.89.05-1.36.22-.49.17-.9.41-1.22.7s-.57.62-.75.98c-.18.35-.28.73-.3,1.12-.02.39.03.76.16,1.1.13.36.33.68.59.94s.58.48.94.64c.36.16.76.25,1.2.26.44.01.9-.07,1.39-.24Z"/>
            <path class="cls-26" d="M91.23,129.59h-.06c-.58.81-1.31,1.38-2.19,1.7-.89.32-1.84.48-2.86.48-.85,0-1.66-.15-2.43-.46-.77-.31-1.44-.75-2.02-1.33-.58-.58-1.04-1.27-1.38-2.08-.34-.81-.51-1.72-.51-2.72,0-.87.17-1.68.51-2.42.34-.74.8-1.38,1.39-1.92.59-.54,1.28-.97,2.08-1.28.8-.31,1.67-.46,2.61-.46s1.81.14,2.48.43c.67.29,1.24.61,1.71.98v-.96c0-.98-.32-1.63-.96-1.95-.64-.32-1.47-.48-2.5-.48-.94,0-1.81.1-2.62.29-.81.19-1.63.42-2.46.67l1.25-5.09c1.02-.3,2.09-.51,3.2-.62,1.11-.12,2.24-.18,3.39-.18,1.04,0,2.07.12,3.07.37s1.88.65,2.64,1.2,1.36,1.27,1.81,2.14c.45.88.66,1.95.64,3.23l-.35,12.1-6.43.54v-2.18ZM87.16,123.67c-.73.11-1.32.36-1.79.75-.47.39-.67.84-.61,1.33.08.49.39.86.91,1.1.52.25,1.2.3,2.03.18s1.45-.39,1.86-.8c.41-.4.56-.84.48-1.31-.06-.41-.34-.75-.82-1.04s-1.17-.36-2.06-.21Z"/>
            <path class="cls-26" d="M111.8,112.34c1.28,0,2.45.28,3.52.83s1.99,1.29,2.78,2.19c.79.91,1.4,1.94,1.84,3.09.44,1.15.66,2.33.66,3.52,0,1.6-.27,3.02-.82,4.26-.54,1.24-1.26,2.28-2.16,3.12-.9.84-1.94,1.48-3.12,1.92-1.18.44-2.42.66-3.7.66-.98,0-1.9-.17-2.77-.51s-1.67-.7-2.42-1.09v1.38h-5.06l-.19-25.79,7.39-.58-.29,8.32c.66-.36,1.3-.67,1.92-.93s1.42-.38,2.4-.38ZM111.23,125.24c.51-.15.95-.36,1.31-.62.36-.27.66-.57.88-.91s.37-.7.43-1.09c.06-.38.04-.77-.06-1.15-.11-.38-.29-.72-.54-1.01-.26-.29-.57-.52-.94-.7-.37-.18-.79-.29-1.25-.32-.46-.03-.94.03-1.46.18-.51.15-.96.36-1.33.64-.37.28-.67.59-.9.93-.22.34-.37.7-.43,1.09s-.04.77.06,1.15c.11.38.29.72.54,1.01.26.29.57.52.94.69.37.17.79.27,1.26.3s.96-.03,1.47-.18Z"/>
            <path class="cls-26" d="M43,142.36c-1.54,2.35-2.69,4.52-3.47,6.53-.78,2.01-1.33,3.73-1.65,5.18-.32,1.45-.5,3-.54,4.64.21,1.56.52,2.96.91,4.19.39,1.24.99,2.61,1.78,4.11.79,1.5,1.87,2.98,3.23,4.43l-1.57,1.12c-1.39-1.19-2.54-2.45-3.47-3.76-.93-1.31-1.65-2.55-2.18-3.71-.52-1.16-.92-2.24-1.2-3.23-.28-.99-.45-1.75-.51-2.29-.06-.53-.1-.82-.1-.86.06-1.83.3-3.55.72-5.15.42-1.6,1.12-3.47,2.11-5.62.99-2.14,2.44-4.45,4.34-6.93l1.6,1.34Z"/>
            <path class="cls-26" d="M51.29,142.49l7.84,9.89,7.55-7.81,7.84,21.57-7.71,6.3-3.49-10.4-4.35,7.62-5.25-8.06-3.1,9.47-7.46-4.83,8.13-23.74Z"/>
            <path class="cls-26" d="M83.96,167.99h-.06c-.58.81-1.31,1.38-2.19,1.7-.89.32-1.84.48-2.86.48-.85,0-1.66-.15-2.43-.46-.77-.31-1.44-.75-2.02-1.33-.58-.58-1.04-1.27-1.38-2.08-.34-.81-.51-1.72-.51-2.72,0-.88.17-1.68.51-2.42.34-.74.8-1.38,1.39-1.92.59-.54,1.28-.97,2.08-1.28.8-.31,1.67-.46,2.61-.46s1.81.14,2.48.43c.67.29,1.24.61,1.71.98v-.96c0-.98-.32-1.63-.96-1.95-.64-.32-1.47-.48-2.5-.48-.94,0-1.81.1-2.62.29-.81.19-1.63.42-2.46.67l1.25-5.09c1.02-.3,2.09-.51,3.2-.62,1.11-.12,2.24-.18,3.39-.18,1.04,0,2.07.12,3.07.37s1.88.65,2.64,1.2c.76.56,1.36,1.27,1.81,2.14.45.88.66,1.95.64,3.23l-.35,12.1-6.43.54v-2.18ZM79.9,162.07c-.73.11-1.32.36-1.79.75-.47.4-.67.84-.61,1.33.08.49.39.86.91,1.1.52.25,1.2.3,2.03.18s1.45-.39,1.86-.8.56-.84.48-1.31c-.06-.4-.34-.75-.82-1.04-.48-.29-1.17-.36-2.06-.21Z"/>
            <path class="cls-26" d="M99.64,153.72h.13c.7-.96,1.42-1.61,2.16-1.95.74-.34,1.54-.51,2.42-.51s1.69.16,2.37.48c.68.32,1.26.77,1.73,1.34.47.58.83,1.25,1.07,2.02s.37,1.6.37,2.5v12.38l-6.91.58.1-11.65c.02-.38-.12-.7-.43-.96-.31-.26-.68-.38-1.1-.38s-.77.12-1.1.37c-.33.25-.5.58-.5,1.01l.13,11.55-6.82-.48-.26-18.21,6.66-.54v2.46Z"/>
            <path class="cls-26" d="M118.55,153.72h.13c.7-.96,1.42-1.61,2.16-1.95.74-.34,1.54-.51,2.42-.51s1.69.16,2.37.48c.68.32,1.26.77,1.73,1.34.47.58.83,1.25,1.07,2.02s.37,1.6.37,2.5v12.38l-6.91.58.1-11.65c.02-.38-.12-.7-.43-.96-.31-.26-.68-.38-1.1-.38s-.77.12-1.1.37c-.33.25-.5.58-.5,1.01l.13,11.55-6.82-.48-.26-18.21,6.66-.54v2.46Z"/>
            <path class="cls-26" d="M148.15,167.8c-1.3.94-2.64,1.62-4,2.03-1.37.42-2.93.62-4.7.62-1.45,0-2.78-.25-3.98-.75s-2.25-1.18-3.12-2.03c-.88-.85-1.56-1.85-2.05-2.99-.49-1.14-.74-2.35-.74-3.63,0-1.6.26-3.03.77-4.29s1.21-2.33,2.08-3.2c.87-.87,1.89-1.54,3.06-2,1.16-.46,2.41-.69,3.73-.69,2.13,0,3.98.54,5.55,1.63s2.74,2.54,3.5,4.35l-9.57,7.2c.23.13.54.21.93.26.38.04.74.06,1.06.06.98,0,1.81-.18,2.48-.53.67-.35,1.29-.77,1.84-1.26l3.17,5.22ZM141.31,157.3c-.3-.36-.62-.61-.98-.74s-.75-.19-1.2-.19-.82.09-1.17.27c-.35.18-.66.43-.91.74-.26.31-.45.66-.59,1.04-.14.38-.21.78-.21,1.18s.03.66.08.82c.05.16.12.33.21.5l4.77-3.62Z"/>
            <path class="cls-26" d="M155.58,151.03v3.55h.06c.55-2.37,2.15-3.55,4.8-3.55.58,0,1.12.03,1.63.1l-1.66,6.82c-.15-.02-.31-.03-.48-.03h-.64c-.9,0-1.67.29-2.32.88-.65.59-.98,1.51-.98,2.77v8.22l-6.72.58-.19-18.75,6.5-.58Z"/>
            <path class="cls-26" d="M163.79,164.25c.59.11,1.22.16,1.9.16.3,0,.61,0,.94-.02.33-.01.63-.04.9-.1.27-.05.49-.14.67-.27.18-.13.27-.32.27-.58,0-.32-.17-.56-.5-.72s-.74-.31-1.22-.46-1.01-.33-1.58-.53c-.58-.2-1.1-.5-1.58-.9s-.89-.92-1.22-1.58c-.33-.66-.5-1.53-.5-2.59,0-.7.14-1.4.42-2.08.28-.68.73-1.3,1.34-1.86.62-.55,1.42-1,2.4-1.34.98-.34,2.16-.51,3.55-.51.53,0,1.07.02,1.6.06.53.04,1.04.1,1.52.18.48.08.92.15,1.33.22.4.08.75.14,1.02.21v5.63c-.53-.13-1.06-.23-1.57-.32-.51-.08-1.07-.13-1.66-.13-.13,0-.33,0-.61.02s-.55.04-.83.1c-.28.05-.52.14-.74.27-.21.13-.32.3-.32.51,0,.34.17.6.51.77.34.17.76.33,1.26.48.5.15,1.05.33,1.65.54.6.21,1.15.52,1.65.91.5.39.92.92,1.26,1.58.34.66.51,1.53.51,2.59,0,1.15-.25,2.11-.75,2.88-.5.77-1.16,1.38-1.98,1.84-.82.46-1.77.78-2.83.98-1.07.19-2.18.29-3.33.29-.9,0-1.78-.05-2.64-.16-.86-.11-1.73-.28-2.61-.51v-5.98c.58.17,1.16.31,1.74.42Z"/>
            <path class="cls-26" d="M177.37,171.22c1.54-2.37,2.69-4.55,3.47-6.54.78-1.99,1.33-3.72,1.65-5.17.32-1.45.5-3,.54-4.64-.21-1.56-.52-2.96-.91-4.19-.4-1.24-.99-2.61-1.78-4.11-.79-1.5-1.87-2.98-3.23-4.43l1.57-1.12c1.39,1.2,2.54,2.45,3.47,3.76.93,1.31,1.65,2.55,2.18,3.71.52,1.16.92,2.24,1.2,3.23.28.99.45,1.75.51,2.29.06.53.1.82.1.86-.06,1.83-.3,3.55-.72,5.14-.42,1.59-1.12,3.46-2.11,5.62-.99,2.15-2.44,4.47-4.34,6.94l-1.6-1.34Z"/>
            <path d="M36.12,205.37c-.12-.08-.19-.2-.22-.34l-3.86-12.73c-.07-.22-.1-.38-.1-.48,0-.18.06-.33.18-.45.12-.12.27-.18.45-.18.15,0,.29.04.4.13.11.08.2.2.25.34l3.32,10.96,3.55-10.98c.11-.29.33-.44.65-.44.14,0,.27.04.39.13.12.08.19.2.22.34l3.02,10.98,3.99-11.05c.06-.14.14-.25.25-.33.11-.08.24-.12.38-.12.18,0,.34.06.46.19s.19.27.19.42c0,.07-.01.18-.04.32l-4.68,13c-.04.13-.12.23-.23.3-.11.08-.24.12-.38.12-.34,0-.55-.16-.65-.48l-2.98-10.86-3.51,10.88c-.1.31-.31.46-.65.46-.14,0-.27-.04-.39-.13Z"/>
            <path d="M57.29,205.46c-.11-.13-.17-.3-.17-.49v-.59c-.38.34-.83.61-1.37.81-.53.2-1.06.3-1.6.3-.76,0-1.44-.19-2.04-.57s-1.07-.91-1.42-1.61c-.34-.69-.51-1.48-.51-2.36,0-.95.2-1.89.6-2.8s.98-1.67,1.74-2.26c.76-.59,1.66-.88,2.7-.88.64,0,1.21.08,1.7.25.49.17.99.37,1.49.61v9.09c0,.2-.06.36-.19.49-.13.13-.28.2-.46.2-.21,0-.37-.07-.48-.2ZM55.8,203.87c.55-.26.97-.54,1.26-.83l.08-6.36c-.22-.1-.51-.19-.87-.28s-.69-.14-1-.14c-.69,0-1.32.2-1.89.61-.57.41-1.03.96-1.35,1.67-.33.71-.49,1.5-.49,2.38,0,1.02.24,1.83.73,2.44.49.6,1.12.9,1.89.9.55,0,1.09-.13,1.64-.39Z"/>
            <path d="M62.75,205.29c-.14-.13-.21-.29-.21-.47l.13-9.11c0-.18.07-.34.21-.48.14-.14.3-.21.48-.21s.34.07.47.2c.13.13.2.3.2.49l-.13,9.11c0,.18-.07.34-.2.47-.13.13-.29.2-.47.2s-.34-.07-.48-.2ZM62.9,193.17c-.13-.13-.19-.28-.19-.46l.02-.86c0-.17.07-.31.21-.44.14-.13.29-.19.46-.19s.31.07.44.2c.13.13.19.28.19.45l-.02.86c0,.18-.07.33-.2.45-.13.12-.28.18-.45.18-.18,0-.34-.06-.46-.19Z"/>
            <path d="M68.87,205.33c-.13-.13-.2-.27-.2-.44v-8.57h-2.33c-.18,0-.34-.07-.46-.2-.13-.13-.19-.29-.19-.47,0-.2.07-.35.21-.47s.3-.18.48-.18h2.29v-2.88c0-.18.07-.34.2-.47.13-.13.29-.2.47-.2.2,0,.35.07.47.2.12.13.18.29.18.47v2.88h2.35c.2,0,.36.06.48.19s.19.28.19.46-.07.34-.2.47c-.13.13-.29.2-.47.2h-2.35v8.57c0,.17-.07.32-.2.44-.13.13-.28.19-.45.19-.18,0-.34-.06-.47-.19Z"/>
            <path d="M83.71,205.34c-.13-.1-.21-.24-.25-.41l-1.89-8.97-.04-.34c0-.17.06-.32.18-.44.12-.13.27-.19.45-.19.17,0,.31.05.43.16.12.11.19.24.22.41l1.47,7.39,2.58-7.48c.04-.13.13-.24.25-.34.13-.1.27-.15.42-.15s.3.06.43.17c.13.11.21.25.24.4l1.81,7.5,2.25-7.54c.04-.14.12-.26.24-.36.12-.1.25-.15.39-.15.18,0,.34.06.47.19.13.13.2.28.2.46,0,.04-.01.08-.03.13s-.03.07-.03.08l-2.9,9.11c-.13.34-.34.5-.65.5-.14,0-.27-.05-.39-.14-.12-.09-.2-.22-.24-.39l-1.87-7.37-2.69,7.41c-.06.14-.14.26-.25.35-.11.09-.23.14-.36.14-.17,0-.31-.05-.44-.16Z"/>
            <path d="M97.7,204.81c-.8-.46-1.41-1.07-1.85-1.84-.43-.77-.65-1.61-.65-2.52s.2-1.84.6-2.68.96-1.5,1.67-2.01c.71-.5,1.53-.76,2.46-.76.84,0,1.56.16,2.15.48s1.04.71,1.34,1.16c.3.45.45.85.45,1.2,0,.25-.17.48-.5.67l-6.51,3.72c.35.67.83,1.18,1.43,1.52.6.34,1.31.51,2.12.51.45,0,.92-.11,1.42-.34.5-.22.89-.49,1.19-.8.1-.14.24-.21.42-.21s.33.06.45.18c.12.12.18.27.18.45,0,.14-.06.28-.17.42-.38.43-.89.79-1.54,1.08-.65.29-1.29.43-1.92.43-1.02,0-1.93-.23-2.73-.68ZM101.64,196.61c-.42-.24-.99-.36-1.7-.36-.67,0-1.27.19-1.81.56-.53.37-.95.87-1.25,1.5-.3.63-.46,1.32-.47,2.08,0,.28.01.5.04.67l6.11-3.38c-.2-.48-.5-.83-.92-1.07Z"/>
            <path d="M107.44,205.31c-.14-.12-.21-.25-.21-.41v-13.21c0-.18.06-.33.19-.45.13-.12.29-.18.48-.18.17,0,.32.06.45.19.13.13.2.27.2.44v13.21c0,.15-.07.29-.2.41-.13.12-.28.18-.45.18s-.32-.06-.46-.18Z"/>
            <path d="M112.88,205.31c-.14-.12-.21-.25-.21-.41v-13.21c0-.18.06-.33.19-.45.13-.12.29-.18.48-.18.17,0,.32.06.45.19.13.13.2.27.2.44v13.21c0,.15-.07.29-.2.41-.13.12-.28.18-.45.18s-.32-.06-.46-.18Z"/>
            <path d="M117.29,207.27c-.11-.11-.17-.23-.17-.39,0-.06.01-.13.04-.21l.48-1.28c-.15-.21-.23-.42-.23-.63,0-.27.09-.5.27-.7.18-.2.39-.3.63-.3.21,0,.39.08.54.23.15.15.22.32.22.5s-.03.36-.09.55-.19.5-.37.94l-.19.46c-.15.41-.27.67-.36.8s-.21.19-.38.19c-.15,0-.29-.05-.4-.16Z"/>
            <path d="M130.97,205.33c-.13-.13-.2-.27-.2-.44v-8.57h-2.33c-.18,0-.34-.07-.46-.2-.13-.13-.19-.29-.19-.47,0-.2.07-.35.21-.47s.3-.18.48-.18h2.29v-2.88c0-.18.07-.34.2-.47.13-.13.29-.2.47-.2.2,0,.35.07.47.2.12.13.18.29.18.47v2.88h2.35c.2,0,.36.06.48.19s.19.28.19.46-.07.34-.2.47c-.13.13-.29.2-.47.2h-2.35v8.57c0,.17-.07.32-.2.44-.13.13-.28.19-.45.19-.18,0-.34-.06-.47-.19Z"/>
            <path d="M137.3,205.3c-.14-.13-.21-.27-.21-.42v-9.24c0-.18.07-.33.2-.45.13-.12.29-.18.47-.18.2,0,.36.06.48.18s.19.27.19.45v1.79c.39-.69.88-1.27,1.46-1.75.58-.48,1.26-.72,2.05-.72.62,0,1.06.17,1.33.51.27.34.41.75.41,1.23v.67c0,.18-.06.33-.19.45s-.28.18-.46.18c-.21,0-.36-.06-.46-.19-.1-.13-.15-.28-.15-.46v-.48c0-.41-.24-.61-.71-.61-.83,0-1.68.59-2.56,1.76-.21.28-.38.63-.51,1.05-.13.42-.2.81-.2,1.18l-.02,4.64c0,.15-.07.29-.2.42-.13.13-.28.19-.45.19s-.32-.06-.46-.19Z"/>
            <path d="M146.79,209.37c-.13-.13-.19-.29-.19-.47,0-.1.03-.2.08-.29l2.04-4.45-4.07-8.13c-.06-.14-.08-.26-.08-.36,0-.2.07-.36.2-.48.13-.13.29-.19.47-.19.14,0,.27.04.38.13.11.08.2.19.25.31l3.57,7.16,3.3-7.2c.14-.28.35-.42.63-.42.18,0,.34.06.46.19.13.13.19.28.19.46,0,.13-.02.22-.06.29l-6.07,13.23c-.15.28-.36.42-.63.42-.18,0-.34-.07-.46-.2Z"/>
            <path d="M39.67,230.66c-.11-.13-.17-.3-.17-.49v-.59c-.38.34-.83.61-1.37.81-.53.2-1.06.3-1.6.3-.76,0-1.44-.19-2.04-.57s-1.07-.91-1.42-1.61c-.34-.69-.51-1.48-.51-2.36,0-.95.2-1.89.6-2.8s.98-1.67,1.74-2.26c.76-.59,1.66-.88,2.7-.88.64,0,1.21.08,1.7.25.49.17.99.37,1.49.61v9.09c0,.2-.06.36-.19.49s-.28.2-.46.2c-.21,0-.37-.07-.48-.2ZM38.18,229.07c.55-.26.97-.54,1.26-.83l.08-6.36c-.22-.1-.51-.19-.87-.28-.36-.09-.69-.14-1-.14-.69,0-1.32.2-1.89.61-.57.41-1.03.96-1.35,1.67-.33.71-.49,1.5-.49,2.38,0,1.02.24,1.83.73,2.44.49.6,1.12.9,1.89.9.55,0,1.09-.13,1.64-.39Z"/>
            <path d="M45.68,234.2c-.15-.03-.28-.1-.38-.22-.1-.12-.15-.26-.15-.41,0-.18.07-.34.2-.46.13-.13.29-.19.47-.19.07,0,.23.03.48.08.63.14,1.27.21,1.91.21,1.04,0,1.79-.26,2.26-.79.47-.52.72-1.27.77-2.24l.04-1.05c-.36.49-.79.86-1.28,1.12-.49.26-1.02.4-1.58.41-.78,0-1.49-.22-2.13-.65-.64-.43-1.14-1.03-1.5-1.79-.36-.76-.55-1.61-.55-2.55s.22-1.83.66-2.68c.44-.85,1.04-1.53,1.8-2.04.76-.51,1.6-.77,2.52-.77.71,0,1.46.21,2.25.63,0-.57.22-.86.65-.86.18,0,.34.06.47.19.13.13.2.29.2.48l-.23,9.6c-.03,1.43-.44,2.5-1.23,3.21-.79.71-1.82,1.07-3.1,1.07-.78,0-1.64-.11-2.56-.32ZM50.46,228.38c.61-.69.91-1.79.91-3.3v-2.96c-.22-.18-.53-.33-.91-.45-.39-.12-.77-.18-1.14-.18-.7,0-1.34.19-1.93.56-.59.37-1.06.88-1.41,1.52-.35.64-.52,1.36-.52,2.14,0,.56.1,1.13.3,1.7s.52,1.05.95,1.43c.43.38.95.57,1.56.57.85,0,1.59-.34,2.19-1.03Z"/>
            <path d="M63.32,230.66c-.11-.13-.17-.3-.17-.49v-.59c-.38.34-.83.61-1.37.81-.53.2-1.06.3-1.6.3-.76,0-1.44-.19-2.04-.57s-1.07-.91-1.42-1.61c-.34-.69-.51-1.48-.51-2.36,0-.95.2-1.89.6-2.8s.98-1.67,1.74-2.26c.76-.59,1.66-.88,2.7-.88.64,0,1.21.08,1.7.25.49.17.99.37,1.49.61v9.09c0,.2-.06.36-.19.49s-.28.2-.46.2c-.21,0-.37-.07-.48-.2ZM61.83,229.07c.55-.26.97-.54,1.26-.83l.08-6.36c-.22-.1-.51-.19-.87-.28-.36-.09-.69-.14-1-.14-.69,0-1.32.2-1.89.61-.57.41-1.03.96-1.35,1.67-.33.71-.49,1.5-.49,2.38,0,1.02.24,1.83.73,2.44.49.6,1.12.9,1.89.9.55,0,1.09-.13,1.64-.39Z"/>
            <path d="M68.78,230.49c-.14-.13-.21-.29-.21-.47l.13-9.11c0-.18.07-.34.21-.48.14-.14.3-.21.48-.21s.34.07.47.2c.13.13.2.3.2.49l-.13,9.11c0,.18-.07.34-.2.47-.13.13-.29.2-.47.2s-.34-.07-.48-.2ZM68.93,218.37c-.13-.13-.19-.28-.19-.46l.02-.86c0-.17.07-.32.21-.44.14-.13.29-.19.46-.19s.31.07.44.2.19.28.19.45l-.02.86c0,.18-.07.33-.2.45-.13.12-.28.18-.45.18-.18,0-.34-.06-.46-.19Z"/>
            <path d="M74.38,230.5c-.13-.13-.2-.27-.2-.42v-9.26c0-.18.07-.33.2-.45.13-.12.29-.18.47-.18s.34.06.46.18.19.27.19.45v3.32c.41-1.26.97-2.23,1.69-2.91s1.54-1.02,2.45-1.02c.77,0,1.38.2,1.83.59s.77,1.01.97,1.86c.2.85.29,1.98.29,3.41s0,2.32-.02,2.75v1.2c0,.18-.06.34-.18.47s-.27.2-.45.2c-.17,0-.31-.07-.44-.2-.13-.13-.19-.28-.19-.45v-1.18c-.01-.43-.02-1.34-.02-2.71,0-1.3-.07-2.29-.2-2.96-.13-.67-.34-1.13-.61-1.38-.27-.25-.66-.37-1.17-.37-.48,0-.95.17-1.41.52-.46.35-.87.85-1.22,1.49-.46.84-.79,1.63-1,2.37-.2.74-.31,1.5-.33,2.29l-.02,1.87c0,.2-.06.36-.18.49-.12.13-.27.2-.45.2s-.34-.06-.47-.19Z"/>
            <path d="M85.81,232.47c-.11-.1-.17-.23-.17-.39,0-.06.01-.13.04-.21l.48-1.28c-.15-.21-.23-.42-.23-.63,0-.27.09-.5.27-.7.18-.2.39-.3.63-.3.21,0,.39.08.54.23s.22.32.22.5-.03.36-.09.55c-.06.18-.19.5-.37.95l-.19.46c-.15.41-.27.67-.36.8s-.21.19-.38.19c-.15,0-.29-.05-.4-.16Z"/>
            <path d="M105.19,230.66c-.11-.13-.17-.3-.17-.49v-.59c-.38.34-.83.61-1.37.81-.53.2-1.06.3-1.6.3-.76,0-1.44-.19-2.04-.57s-1.07-.91-1.42-1.61c-.34-.69-.51-1.48-.51-2.36,0-.95.2-1.89.6-2.8s.98-1.67,1.74-2.26c.76-.59,1.66-.88,2.7-.88.64,0,1.21.08,1.7.25.49.17.99.37,1.49.61v9.09c0,.2-.06.36-.19.49s-.28.2-.46.2c-.21,0-.37-.07-.48-.2ZM103.7,229.07c.55-.26.97-.54,1.26-.83l.08-6.36c-.22-.1-.51-.19-.87-.28-.36-.09-.69-.14-1-.14-.69,0-1.32.2-1.89.61-.57.41-1.03.96-1.35,1.67-.33.71-.49,1.5-.49,2.38,0,1.02.24,1.83.73,2.44.49.6,1.12.9,1.89.9.55,0,1.09-.13,1.64-.39Z"/>
            <path d="M110.64,230.5c-.13-.13-.2-.27-.2-.42v-9.26c0-.18.07-.33.2-.45.13-.12.29-.18.47-.18s.34.06.46.18.19.27.19.45v3.32c.41-1.26.97-2.23,1.69-2.91s1.54-1.02,2.45-1.02c.77,0,1.38.2,1.83.59s.77,1.01.97,1.86c.2.85.29,1.98.29,3.41s0,2.32-.02,2.75v1.2c0,.18-.06.34-.18.47s-.27.2-.45.2c-.17,0-.31-.07-.44-.2-.13-.13-.19-.28-.19-.45v-1.18c-.01-.43-.02-1.34-.02-2.71,0-1.3-.07-2.29-.2-2.96-.13-.67-.34-1.13-.61-1.38-.27-.25-.66-.37-1.17-.37-.48,0-.95.17-1.41.52-.46.35-.87.85-1.22,1.49-.46.84-.79,1.63-1,2.37-.2.74-.31,1.5-.33,2.29l-.02,1.87c0,.2-.06.36-.18.49-.12.13-.27.2-.45.2s-.34-.06-.47-.19Z"/>
            <path d="M124.02,230.13c-.55-.38-.99-.93-1.31-1.65-.32-.72-.48-1.56-.48-2.53,0-1.79.4-3.19,1.2-4.2.8-1.01,1.9-1.51,3.3-1.51.94,0,1.87.25,2.79.74l.1-4.18c0-.18.07-.34.21-.47s.3-.2.48-.2c.17,0,.32.07.45.21.13.14.2.3.2.48l-.31,13.25c0,.18-.07.33-.2.45-.13.12-.29.18-.47.18-.2,0-.36-.07-.48-.22-.13-.15-.18-.32-.17-.51l.02-.86c-1.09,1.06-2.25,1.6-3.46,1.6-.69,0-1.31-.19-1.86-.57ZM127.66,229.06c.53-.27.95-.58,1.25-.96.3-.37.46-.7.47-.98l.1-4.85c-.31-.18-.71-.36-1.21-.52s-1-.25-1.5-.25c-1.08,0-1.89.38-2.44,1.15-.55.77-.82,1.85-.82,3.23,0,1.12.21,2,.64,2.62.43.63,1,.95,1.73.95.64,0,1.23-.13,1.76-.4Z"/>
            <path d="M143.09,230.5c-.13-.13-.2-.27-.2-.42v-8.67h-1.47c-.15,0-.29-.06-.42-.19s-.19-.27-.19-.44c0-.15.06-.29.18-.42.12-.13.25-.19.39-.19h1.53c0-.98.15-1.76.44-2.33s.75-.98,1.35-1.23,1.42-.37,2.43-.37c.59,0,.88.2.88.61,0,.18-.06.34-.17.46-.11.13-.27.19-.46.19-.87,0-1.52.06-1.94.19-.43.13-.73.38-.92.75s-.29.95-.3,1.73l2.77.02c.14,0,.28.06.41.18.13.12.2.26.2.41,0,.17-.06.32-.18.44-.12.13-.26.19-.43.19h-2.77v8.67c0,.15-.07.29-.2.42-.13.13-.28.19-.45.19-.18,0-.34-.06-.47-.19Z"/>
            <path d="M149.63,230.49c-.14-.13-.21-.29-.21-.47l.13-9.11c0-.18.07-.34.21-.48.14-.14.3-.21.48-.21s.34.07.47.2c.13.13.2.3.2.49l-.13,9.11c0,.18-.07.34-.2.47-.13.13-.29.2-.47.2s-.34-.07-.48-.2ZM149.78,218.37c-.13-.13-.19-.28-.19-.46l.02-.86c0-.17.07-.32.21-.44.14-.13.29-.19.46-.19s.31.07.44.2.19.28.19.45l-.02.86c0,.18-.07.33-.2.45-.13.12-.28.18-.45.18-.18,0-.34-.06-.46-.19Z"/>
            <path d="M155.23,230.5c-.13-.13-.2-.27-.2-.42v-9.26c0-.18.07-.33.2-.45.13-.12.29-.18.47-.18s.34.06.46.18.19.27.19.45v3.32c.41-1.26.97-2.23,1.69-2.91s1.54-1.02,2.45-1.02c.77,0,1.38.2,1.83.59s.77,1.01.97,1.86c.2.85.29,1.98.29,3.41s0,2.32-.02,2.75v1.2c0,.18-.06.34-.18.47s-.27.2-.45.2c-.17,0-.31-.07-.44-.2-.13-.13-.19-.28-.19-.45v-1.18c-.01-.43-.02-1.34-.02-2.71,0-1.3-.07-2.29-.2-2.96-.13-.67-.34-1.13-.61-1.38-.27-.25-.66-.37-1.17-.37-.48,0-.95.17-1.41.52-.46.35-.87.85-1.22,1.49-.46.84-.79,1.63-1,2.37-.2.74-.31,1.5-.33,2.29l-.02,1.87c0,.2-.06.36-.18.49-.12.13-.27.2-.45.2s-.34-.06-.47-.19Z"/>
            <path d="M167.69,230.49c-.14-.13-.21-.29-.21-.47l.13-9.11c0-.18.07-.34.21-.48.14-.14.3-.21.48-.21s.34.07.47.2c.13.13.2.3.2.49l-.13,9.11c0,.18-.07.34-.2.47-.13.13-.29.2-.47.2s-.34-.07-.48-.2ZM167.84,218.37c-.13-.13-.19-.28-.19-.46l.02-.86c0-.17.07-.32.21-.44.14-.13.29-.19.46-.19s.31.07.44.2.19.28.19.45l-.02.86c0,.18-.07.33-.2.45-.13.12-.28.18-.45.18-.18,0-.34-.06-.46-.19Z"/>
            <path d="M173.71,230.24c-.58-.33-1.02-.71-1.32-1.16-.3-.44-.45-.82-.45-1.12,0-.18.06-.33.18-.45.12-.12.27-.18.45-.18.31,0,.5.15.59.44.2.56.52.99.99,1.3.46.31,1.03.46,1.7.46s1.22-.18,1.66-.55c.43-.36.65-.8.65-1.3,0-.29-.07-.54-.2-.75-.13-.2-.37-.4-.71-.58-.34-.18-.84-.37-1.5-.57-1.13-.35-1.95-.76-2.46-1.22s-.76-1.07-.76-1.83.31-1.37.93-1.84c.62-.47,1.52-.7,2.68-.7,1.05,0,1.86.21,2.43.64s.85,1.01.85,1.75c0,.34-.06.59-.17.77-.11.18-.27.26-.48.26-.18,0-.34-.06-.46-.18-.13-.12-.19-.25-.19-.41,0-.07.01-.15.03-.23s.03-.16.03-.23c0-.38-.17-.68-.5-.89s-.85-.33-1.53-.33c-.76,0-1.34.12-1.75.37-.41.25-.62.59-.62,1.04s.18.78.54,1.03c.36.25.98.53,1.86.82.84.28,1.49.55,1.94.8.45.25.78.55.99.89s.3.78.3,1.31-.15,1.01-.45,1.49c-.3.48-.72.87-1.27,1.17-.55.3-1.18.45-1.89.45-.8,0-1.49-.16-2.07-.49Z"/>
            <path d="M182.86,230.51c-.13-.13-.2-.28-.2-.45v-13.12c0-.18.07-.34.2-.47.13-.13.29-.2.47-.2.2,0,.35.07.47.2.12.13.18.29.18.47v6.45c.42-.87,1-1.62,1.75-2.27.75-.64,1.52-.97,2.3-.97,1.04,0,1.76.57,2.18,1.72.42,1.15.63,2.95.63,5.4,0,1.39-.02,2.32-.06,2.79-.01.18-.08.33-.19.45-.11.12-.26.18-.44.18-.17,0-.32-.06-.45-.19-.13-.13-.2-.27-.2-.44,0-.21,0-.41.02-.59l.02-2.06c0-2.37-.15-3.95-.46-4.76-.31-.8-.69-1.21-1.15-1.21-.52,0-1.03.21-1.53.64-.5.43-.94.9-1.31,1.43-.37.52-.63.96-.79,1.29-.21.42-.31,1.02-.31,1.81v3.4c0,.21-.06.38-.19.5s-.28.19-.46.19-.34-.07-.47-.2Z"/>
            <path d="M33.87,255.44c-.58-.33-1.02-.71-1.32-1.16-.3-.44-.45-.82-.45-1.12,0-.18.06-.33.18-.45.12-.12.27-.18.45-.18.31,0,.5.15.59.44.2.56.52.99.99,1.3.46.31,1.03.46,1.7.46s1.22-.18,1.66-.55c.43-.36.65-.8.65-1.3,0-.29-.07-.54-.2-.75-.13-.2-.37-.4-.71-.58-.34-.18-.84-.37-1.5-.57-1.13-.35-1.95-.76-2.46-1.22s-.76-1.07-.76-1.83.31-1.37.93-1.84c.62-.47,1.52-.7,2.68-.7,1.05,0,1.86.21,2.43.64s.85,1.01.85,1.75c0,.34-.06.59-.17.77-.11.18-.27.26-.48.26-.18,0-.34-.06-.46-.18-.13-.12-.19-.25-.19-.41,0-.07.01-.15.03-.23s.03-.16.03-.23c0-.38-.17-.68-.5-.89s-.85-.33-1.53-.33c-.76,0-1.34.12-1.75.37-.41.25-.62.59-.62,1.04s.18.78.54,1.03c.36.25.98.53,1.86.82.84.28,1.49.55,1.94.8.45.25.78.55.99.89s.3.78.3,1.31-.15,1.01-.45,1.49c-.3.48-.72.87-1.27,1.17-.55.3-1.18.45-1.89.45-.8,0-1.49-.16-2.07-.49Z"/>
            <path d="M43.55,255.72c-.13-.13-.2-.27-.2-.44v-8.57h-2.33c-.18,0-.34-.07-.46-.2s-.19-.29-.19-.47c0-.2.07-.35.21-.47s.3-.18.48-.18h2.29v-2.88c0-.18.07-.34.2-.47.13-.13.29-.2.47-.2.2,0,.35.07.47.2.12.13.18.29.18.47v2.88h2.35c.2,0,.36.06.48.19s.19.28.19.46-.07.34-.2.47c-.13.13-.29.2-.47.2h-2.35v8.57c0,.17-.07.31-.2.44-.13.13-.28.19-.45.19-.18,0-.34-.06-.47-.19Z"/>
            <path d="M49.88,255.7c-.14-.13-.21-.27-.21-.42v-9.24c0-.18.07-.33.2-.45.13-.12.29-.18.47-.18.2,0,.36.06.48.18s.19.27.19.45v1.79c.39-.69.88-1.27,1.46-1.75.58-.48,1.26-.72,2.05-.72.62,0,1.06.17,1.33.51.27.34.41.75.41,1.23v.67c0,.18-.06.33-.19.45s-.28.18-.46.18c-.21,0-.36-.06-.46-.19-.1-.13-.15-.28-.15-.46v-.48c0-.41-.24-.61-.71-.61-.83,0-1.68.59-2.56,1.76-.21.28-.38.63-.51,1.05-.13.42-.2.81-.2,1.18l-.02,4.64c0,.15-.07.29-.2.42-.13.13-.28.19-.45.19s-.32-.06-.46-.19Z"/>
            <path d="M59.91,255.25c-.65-.43-1.16-1.01-1.53-1.74-.37-.74-.56-1.55-.56-2.45,0-.95.21-1.86.64-2.73.43-.87,1.02-1.57,1.77-2.11.76-.54,1.59-.81,2.5-.81.78,0,1.5.21,2.15.64.65.43,1.16,1.01,1.53,1.74.37.74.56,1.54.56,2.43,0,1.01-.22,1.95-.67,2.81-.45.87-1.05,1.56-1.8,2.08-.75.52-1.56.78-2.43.78-.8,0-1.52-.21-2.17-.64ZM63.87,254.09c.53-.41.96-.95,1.28-1.62.32-.67.48-1.39.48-2.14,0-.66-.13-1.27-.4-1.84-.27-.57-.63-1.02-1.08-1.37-.46-.34-.96-.51-1.52-.51-.62,0-1.19.21-1.71.62s-.94.96-1.26,1.64c-.32.68-.47,1.4-.47,2.15s.14,1.37.41,1.92c.27.55.64.98,1.1,1.29.46.31.95.46,1.47.46.6,0,1.17-.2,1.7-.61Z"/>
            <path d="M70.64,255.7c-.13-.13-.2-.27-.2-.42v-9.26c0-.18.07-.33.2-.45.13-.12.29-.18.47-.18s.34.06.46.18.19.27.19.45v3.32c.41-1.26.97-2.23,1.69-2.91s1.54-1.02,2.45-1.02c.77,0,1.38.2,1.83.59s.77,1.01.97,1.86c.2.85.29,1.98.29,3.41s0,2.32-.02,2.75v1.2c0,.18-.06.34-.18.47s-.27.2-.45.2c-.17,0-.31-.07-.44-.2-.13-.13-.19-.28-.19-.45v-1.18c-.01-.43-.02-1.34-.02-2.71,0-1.3-.07-2.29-.2-2.96-.13-.67-.34-1.13-.61-1.38-.27-.25-.66-.37-1.17-.37-.48,0-.95.17-1.41.52-.46.35-.87.85-1.22,1.49-.46.84-.79,1.63-1,2.37-.2.74-.31,1.5-.33,2.29l-.02,1.87c0,.2-.06.36-.18.49-.12.13-.27.2-.45.2s-.34-.06-.47-.19Z"/>
            <path d="M83.65,259.4c-.15-.03-.28-.1-.38-.22-.1-.12-.15-.26-.15-.41,0-.18.07-.34.2-.46.13-.13.29-.19.47-.19.07,0,.23.03.48.08.63.14,1.27.21,1.91.21,1.04,0,1.79-.26,2.26-.79.47-.52.72-1.27.77-2.24l.04-1.05c-.36.49-.79.86-1.28,1.12-.49.26-1.02.4-1.58.41-.78,0-1.49-.22-2.13-.65-.64-.43-1.14-1.03-1.5-1.79-.36-.76-.55-1.61-.55-2.55s.22-1.83.66-2.68c.44-.85,1.04-1.53,1.8-2.04.76-.51,1.6-.77,2.52-.77.71,0,1.46.21,2.25.63,0-.57.22-.86.65-.86.18,0,.34.06.47.19.13.13.2.29.2.48l-.23,9.6c-.03,1.43-.44,2.5-1.23,3.21-.79.71-1.82,1.07-3.1,1.07-.78,0-1.64-.11-2.56-.32ZM88.43,253.58c.61-.69.91-1.79.91-3.3v-2.96c-.22-.18-.53-.33-.91-.45-.39-.12-.77-.18-1.14-.18-.7,0-1.34.19-1.93.56-.59.37-1.06.88-1.41,1.52-.35.64-.52,1.36-.52,2.14,0,.56.1,1.13.3,1.7s.52,1.05.95,1.43c.43.38.95.57,1.56.57.85,0,1.59-.34,2.19-1.03Z"/>
            <path d="M94.15,255.64c-.14-.17-.21-.37-.21-.61,0-.27.09-.5.27-.7.18-.2.39-.3.63-.3.21,0,.39.08.54.24s.22.35.22.58c0,.29-.09.54-.27.75-.18.2-.39.3-.63.3-.22,0-.41-.08-.55-.25Z"/>
          </g>
        </g>
      </g>
    </g>
  </g>
</svg>