<?xml version="1.0" encoding="UTF-8"?>
<svg xmlns="http://www.w3.org/2000/svg" xmlns:xlink="http://www.w3.org/1999/xlink" viewBox="0 0 395.14 638.04">
  <defs>
    <style>
      .cls-1 {
        fill: #7b2d18;
        stroke: #291610;
        stroke-width: 1.79px;
      }

      .cls-1, .cls-2, .cls-3, .cls-4, .cls-5, .cls-6 {
        stroke-linecap: round;
        stroke-linejoin: round;
      }

      .cls-7 {
        fill: #8ed7b2;
      }

      .cls-8, .cls-9, .cls-10, .cls-11 {
        fill-rule: evenodd;
      }

      .cls-8, .cls-12 {
        fill: #291610;
      }

      .cls-13 {
        fill: #ff6d3a;
      }

      .cls-14 {
        fill: url(#linear-gradient-2);
      }

      .cls-15 {
        opacity: .3;
      }

      .cls-15, .cls-16, .cls-17 {
        mix-blend-mode: multiply;
      }

      .cls-18 {
        fill: #e29f7a;
      }

      .cls-19, .cls-9 {
        fill: #fff;
      }

      .cls-2 {
        stroke: #211e1f;
      }

      .cls-2, .cls-20, .cls-3, .cls-5, .cls-6 {
        fill: none;
      }

      .cls-2, .cls-4, .cls-6 {
        stroke-width: .8px;
      }

      .cls-21 {
        fill: #e2a07a;
      }

      .cls-22, .cls-17 {
        fill: #e4563d;
      }

      .cls-23 {
        fill: url(#radial-gradient-5);
      }

      .cls-24 {
        fill: url(#radial-gradient);
      }

      .cls-25 {
        fill: url(#radial-gradient-3);
      }

      .cls-26 {
        fill: #cfd1d2;
      }

      .cls-27 {
        fill: #f0a37e;
      }

      .cls-28 {
        fill: url(#linear-gradient-3);
      }

      .cls-29 {
        fill: #231f20;
      }

      .cls-30 {
        isolation: isolate;
      }

      .cls-10, .cls-31 {
        fill: #271910;
      }

      .cls-3 {
        stroke: #27190f;
        stroke-width: .87px;
      }

      .cls-32 {
        fill: #729eef;
      }

      .cls-33 {
        fill: #e3a48b;
      }

      .cls-34 {
        fill: #aa1f23;
      }

      .cls-34, .cls-17 {
        opacity: .5;
      }

      .cls-35 {
        fill: url(#radial-gradient-8);
      }

      .cls-36 {
        fill: url(#radial-gradient-2);
      }

      .cls-4 {
        fill: #527f63;
      }

      .cls-4, .cls-5, .cls-6 {
        stroke: #271910;
      }

      .cls-37 {
        fill: url(#radial-gradient-4);
      }

      .cls-38 {
        fill: #ecb98a;
      }

      .cls-39 {
        fill: #fab016;
      }

      .cls-40, .cls-16 {
        fill: #a5d6d3;
      }

      .cls-41 {
        fill: #ffe649;
      }

      .cls-42 {
        fill: #d6c127;
      }

      .cls-43 {
        fill: #27190f;
      }

      .cls-44 {
        fill: #e4e4e3;
      }

      .cls-45 {
        fill: #d28a5f;
      }

      .cls-46 {
        fill: url(#radial-gradient-6);
      }

      .cls-5 {
        stroke-width: .92px;
      }

      .cls-47 {
        fill: url(#radial-gradient-7);
      }

      .cls-48 {
        fill: #281b12;
      }

      .cls-11 {
        fill: #221f1f;
      }

      .cls-49 {
        opacity: .1;
      }

      .cls-50 {
        fill: url(#linear-gradient);
      }

      .cls-51 {
        clip-path: url(#clippath);
      }

      .cls-52 {
        fill: #d58055;
      }

      .cls-53 {
        fill: #de543d;
      }
    </style>
    <clipPath id="clippath">
      <rect class="cls-20" x="124.51" y="15.14" width="270.64" height="333.93"/>
    </clipPath>
    <linearGradient id="linear-gradient" x1="11792.7" y1="195.44" x2="11595.14" y2="616.87" gradientTransform="translate(11960.9) rotate(-180) scale(1 -1)" gradientUnits="userSpaceOnUse">
      <stop offset="0" stop-color="#353642"/>
      <stop offset=".23" stop-color="#2d2d37"/>
      <stop offset=".65" stop-color="#222128"/>
      <stop offset="1" stop-color="#1f1e23"/>
    </linearGradient>
    <linearGradient id="linear-gradient-2" x1="11688.6" y1="212.55" x2="11742.28" y2="212.55" xlink:href="#linear-gradient"/>
    <radialGradient id="radial-gradient" cx="-3235.5" cy="154.5" fx="-3235.5" fy="154.5" r="18.87" gradientTransform="translate(3506.19)" gradientUnits="userSpaceOnUse">
      <stop offset="0" stop-color="#eeb28c"/>
      <stop offset="1" stop-color="#ecbc8a"/>
    </radialGradient>
    <radialGradient id="radial-gradient-2" cx="16837.17" cy="-659.2" fx="16837.17" fy="-659.2" r="45.93" gradientTransform="translate(16880.24 -120.71) rotate(176.93) scale(.99 -1.03) skewX(.34)" xlink:href="#radial-gradient"/>
    <radialGradient id="radial-gradient-3" cx="746.54" cy="-610.54" fx="746.54" fy="-610.54" r="27.4" gradientTransform="translate(-416.57 1021.49) rotate(-10.19)" xlink:href="#radial-gradient"/>
    <linearGradient id="linear-gradient-3" x1="761.87" y1="-641.57" x2="898.03" y2="-641.57" gradientTransform="translate(-416.57 1021.49) rotate(-10.19)" xlink:href="#linear-gradient"/>
    <radialGradient id="radial-gradient-4" cx="6204.83" cy="-404.87" fx="6204.83" fy="-404.87" r="13.94" gradientTransform="translate(6408.33 -166.82) rotate(172.01) scale(1 -1)" gradientUnits="userSpaceOnUse">
      <stop offset="0" stop-color="#efb38d"/>
      <stop offset="1" stop-color="#eebe8c"/>
    </radialGradient>
    <radialGradient id="radial-gradient-5" cx="7001.28" cy="1235.69" fx="7001.28" fy="1235.69" r="5.11" gradientTransform="translate(7329.59 645.67) rotate(-167.07) scale(1 -1)" xlink:href="#radial-gradient-4"/>
    <radialGradient id="radial-gradient-6" cx="6180.33" cy="-406.28" fx="6180.33" fy="-406.28" r="9.45" xlink:href="#radial-gradient-4"/>
    <radialGradient id="radial-gradient-7" cx="1234.31" cy="739.01" fx="1234.31" fy="739.01" r="44.16" gradientTransform="translate(-928.15 -629.59) rotate(5.58)" xlink:href="#radial-gradient-4"/>
    <radialGradient id="radial-gradient-8" cx="192.48" cy="144.41" fx="192.48" fy="144.41" r="19.46" gradientTransform="matrix(1,0,0,1,0,0)" xlink:href="#radial-gradient"/>
  </defs>
  <g class="cls-30">
    <g id="Layer_2" data-name="Layer 2">
      <g id="Layer_1-2" data-name="Layer 1">
        <g>
          <rect class="cls-7" y="39.08" width="371.45" height="310" rx="20" ry="20"/>
          <g>
            <circle class="cls-7" cx="70.5" cy="39.08" r="39.08"/>
            <path class="cls-19" d="M82.31,25.1c1.23,2.19,1.67,4.24,1.31,6.14-.36,1.91-1.21,3.68-2.56,5.33-1.35,1.65-3.02,3.19-5,4.61-1.98,1.43-3.98,2.77-5.98,4.03l12.19-1.39-.27,11.38-26.69,1.35-.04-6.88c-.21-.75-.11-1.58.31-2.47.42-.9,1.04-1.84,1.85-2.81s1.75-1.96,2.83-2.97c1.08-1,2.19-2,3.33-2.99,1.14-.99,2.24-1.94,3.31-2.86,1.06-.92,1.99-1.75,2.77-2.52.78-.77,1.36-1.45,1.73-2.05.38-.6.44-1.06.2-1.4-.36-.48-1.05-.58-2.07-.31-1.02.27-2.15.74-3.4,1.42-1.25.68-2.51,1.46-3.78,2.36-1.28.9-2.35,1.74-3.22,2.52l-6.03-8.68c2.79-2.64,5.4-4.63,7.83-5.96,2.43-1.33,4.63-2.18,6.59-2.54,1.96-.36,3.75-.38,5.35-.05,1.6.33,2.98.86,4.14,1.58,1.15.72,2.14,1.48,2.95,2.27.81.8,1.4,1.47,1.75,2.03.36.56.55.85.58.88Z"/>
          </g>
          <g>
            <path class="cls-13" d="M54.82,80.18h4.97v4.97h-4.97v-4.97Z"/>
            <path class="cls-32" d="M183,109.69h4.97v4.97h-4.97v-4.97Z"/>
            <path class="cls-41" d="M135.12,125.86h4.97v4.97h-4.97v-4.97Z"/>
            <circle class="cls-13" cx="87.18" cy="104.82" r="6.22"/>
            <circle class="cls-41" cx="176.82" cy="76.33" r="6.22"/>
            <circle class="cls-32" cx="27.01" cy="107.9" r="6.22"/>
            <path class="cls-41" d="M355.23,138.49l8.04,4.4-8.04,4.4-4.4,8.04-4.4-8.04-8.04-4.4,8.04-4.4,4.4-8.04,4.4,8.04Z"/>
            <path class="cls-32" d="M123.57,78.27l8.04,4.4-8.04,4.4-4.4,8.04-4.4-8.04-8.04-4.4,8.04-4.4,4.4-8.04,4.4,8.04Z"/>
          </g>
          <g class="cls-51">
            <g>
              <path class="cls-39" d="M191.81,163.79s-10.88,6.38-13.65,9.53c-2.77,3.14-12.43,27.42-13.49,44.41-1.06,16.99,16.51,24.55,29.51,7.87,13.01-16.68,13.13-74.5-2.38-61.82Z"/>
              <g>
                <g>
                  <path class="cls-49" d="M219.73,353.82c2.13-14.11,13.35-33.41,20.21-52.6l41.43-2.58,34.08-3.22c13.64,24.84,20.22,40.21,25.63,56.83-9.88,6.53-36.51,13.89-61.4,13.5-24.56-.39-44.19-4.94-59.94-11.93Z"/>
                  <path class="cls-50" d="M203.91,629.16c13.28,11.59,92.96,11.03,116.41,2.99,3.2-1.1,5.36-2.33,6.15-3.71,2.58.32,5.38.28,8.18-.02,9-.96,18.05-4.56,20.46-7.65,0,0-5.1-172.06-5.1-231.2-1.6-32.19-8.94-47.16-8.94-47.16-8.05-21.64-9.79-42.45-13.65-53.56-1.77-5.12-6.03-42.68-5.15-47.01,1.98-9.65,4.34-15.66,6.13-28.43,2.07-14.75-3.96-38.64-7.84-50.48-8.52-2.56-36.73-9.63-49.41-11.56l-4.25.24c-12.37,3.42-34.9,14.26-42.43,17.45-2.46,12.23-10.64,37.63-10.57,50.86.07,12.92,7.35,20.79,10.89,27.7,2.01,3.94,1.26,37.93.74,46.38-.79,12.93-4.91,36.73-7.07,56.21,0,0-20.92,178.12-14.55,278.96Z"/>
                  <path class="cls-14" d="M268.76,219.66s-10.05,5.98-22.3,6.72-26.42-8.95-26.42-8.95l-1.42-18.43,2-.32s34.75,4.63,35.59,4.74c.84.11,13.48-2.71,15.58-.62s-3.04,16.85-3.04,16.85Z"/>
                  <path class="cls-24" d="M269.29,173.88c-9.64-.57-17.2-5.57-16.87-11.16l1.63-27.66,34.93,2.05-1.63,27.66c-.33,5.6-8.41,9.68-18.06,9.11Z"/>
                </g>
                <path class="cls-40" d="M272.49,268.06c-.13.51,32.34-2.46,32.34-2.46,0,0-5.33-35.13-6.22-52.83-.43-8.65,2.49-16.14,5.6-21.55.16-.27.33-.53.49-.79,3.12-5.19,6.28-8.27,6.39-8.39,0,0-4.2-4.9-6.6-5.76-.38-.14-.72-.18-.99-.07-1.94.78-5.94,3.62-7.36,5.83-1.42,2.22-12.15,9.03-12.66,10.61-.12.34-.63,2.53-1.37,5.76-2.65,11.59-8.13,36.45-8.13,36.45,0,0-.55,13.25-.98,23.01-.26,5.58-.47,10-.51,10.2Z"/>
                <path class="cls-16" d="M273,257.87s16.3-2.02,22.33-1.88c6.04.13,4.49-.01,4.49-.01,0,0-2.43-21.06-3.33-28.05-.63-4.88-.88-22.6,7.71-36.7.16-.27.33-.53.49-.79,3.68-5.76,8.89-10.85,16.22-14.12,25.42-11.32-7.74-8.63-7.74-8.63l-8.69,8.6-22.38,22.13c-2.65,11.59-8.13,36.45-8.13,36.45,0,0-.55,13.25-.98,23.01Z"/>
                <path class="cls-2" d="M311.1,182.04c-.23.23-13.36,13.03-12.48,30.73.88,17.7,6.22,52.84,6.22,52.84,0,0-32.47,2.97-32.34,2.45s1.49-33.2,1.49-33.2c0,0,8.97-40.64,9.49-42.22s11.24-8.39,12.66-10.6c1.42-2.21,5.43-5.06,7.36-5.83s7.59,5.83,7.59,5.83Z"/>
                <path class="cls-40" d="M263.06,254.88c.13-.39,14.86-5.94,32.95-4.64,0,0-5.3-29.07.38-49.87,5.68-20.8,40.19-30.17,40.19-30.17,0,0-4.56-9.45-8.37-10.82-.15-.06-.3-.1-.44-.13-3.87-.75-20.56,3.03-35.08,22-14.51,18.98-13.2,21.14-24.13,28.53,0,0-.56,4.5-1.32,10.68-1.63,13.2-4.19,34-4.19,34.42Z"/>
                <path class="cls-16" d="M267.25,220.46c.29-.09.47-.14.47-.14,0,0,10.59-5.87,20.99-24.61,10.4-18.73,20.84-31.27,39.52-36.33-.15-.06-.3-.1-.44-.13-3.87-.75-20.56,3.03-35.08,22-14.51,18.98-13.2,21.14-24.13,28.53,0,0-.56,4.5-1.32,10.68Z"/>
                <path class="cls-2" d="M336.59,170.2s-4.93-10.2-8.8-10.95c-3.88-.74-20.56,3.03-35.08,22.01-14.52,18.98-13.2,21.14-24.13,28.52,0,0-5.63,45.49-5.5,45.1s14.86-5.94,32.94-4.65c0,0-5.3-29.07.39-49.86,5.68-20.8,40.2-30.16,40.2-30.16Z"/>
                <g>
                  <path class="cls-36" d="M226.16,98.12c1.29,26.82,23.21,41.4,48.97,40.02,25.76-1.38,45.6-18.2,44.32-45.02-1.29-26.82-23.21-47.44-48.97-46.06-25.76,1.38-45.6,24.24-44.32,51.07Z"/>
                  <path class="cls-18" d="M263.24,123.55c-.04,1.12-2.38,3.31-4.27,3.29-2.21-.02-3.79-2.93-3.69-4.05.04-.45,1.8.02,3.99.23,2.2.21,3.99-.07,3.97.53Z"/>
                  <path class="cls-18" d="M281.29,131.06s6.12-6.67,9.57-14.47c3.46-7.8,1.8-24.2.93-27.77-.87-3.58-10.63-18.46-10.63-18.46l-20.89-7.8s20.29-13.73,23.72-12.1c3.43,1.63,19.58,8.19,21.56,9.53,1.98,1.34,12.69,21.43,14.02,23.71,1.33,2.28,1.86,24.18.72,25.87-1.14,1.69-6.39,15.22-8.46,15.68-2.08.47-21.09,10.36-21.09,10.36l-9.56-3.29.11-1.27Z"/>
                  <path class="cls-4" d="M300.13,78.77s-49.56-38.58-71.52,3.14c0,0,7.08-27.04,27.19-31.65,27.77-6.38,44.34,28.51,44.34,28.51Z"/>
                  <path class="cls-33" d="M288.9,139.38l1.18,23.11c.25,4.97-6.48,9.35-15.04,9.78-8.56.43-15.71-3.25-15.96-8.22l-1.18-23.11,31.01-1.57Z"/>
                  <path class="cls-40" d="M212.7,264.95h-.01s.02.24.01,0Z"/>
                  <path class="cls-40" d="M210.84,240.42c1.52,19.97,1.81,23.89,1.86,24.52l16.99-1.49s-3.64-19.75-4.01-43.05c-.08-5.73.02-11.67.43-17.59.16-2.33.25-4.42.25-6.25.05-21.76-10.01-10.44-10.01-10.44l-1.38,4.45s-.48,1.69-1.12,4.74c0,.02-.01.05-.01.07-1.69,7.99-4.52,25.1-2.99,45.06Z"/>
                  <path class="cls-16" d="M213.83,195.33v.04c.01.97.46,21.37,11.84,25.04-.08-5.73.02-11.67.43-17.59.16-2.33.25-4.42.25-6.25l-11.29-3.8-1.21,2.54v.03Z"/>
                  <path class="cls-2" d="M214.96,190.55s-6.24,22.19-4.12,49.87c2.11,27.68,1.84,24.53,1.84,24.53l17-1.49s-5.66-30.65-3.59-60.66c2.07-30-9.77-16.69-9.77-16.69l-1.37,4.44Z"/>
                  <path class="cls-40" d="M215.46,182.74c-.64,5.57-2.61,21.69,10.4,29.58,3.13,1.89,7.1,3.27,12.14,3.88,25.98,3.14,40.18-10.88,53.66-33.3,13.48-22.41,36.94-23.37,36.94-23.37,0,0,.46-1.96-.23-5.82-.69-3.85-4.15-25.08.24-34.75,1.96-4.3,4.45-11.9,5.68-21.77,1.54-12.38,1.1-28.31-4.94-45.66-10.89-31.17-46.36-34.26-48.41-34.33-26.18-1.09-49.26,10.15-57.71,29.3-8.42,19.15-7.08,46.41,3.17,67.73,10.26,21.31,2.67,43.73-2.56,45.18-5.15,1.43-7.68,17.14-8.39,23.31ZM257.71,136.32c-8.49-2.34-24.04-11.77-26.08-36.38-2.04-24.63,30.11-50.1,30.11-50.1,0,0,36.86,14.28,36.87,48.85,0,36.93-32.43,39.94-40.89,37.63Z"/>
                  <path class="cls-16" d="M225.86,212.32c3.13,1.89,7.1,3.27,12.14,3.88,25.98,3.14,40.18-10.88,53.66-33.3,13.48-22.41,36.94-23.37,36.94-23.37,0,0,.46-1.96-.23-5.82-.69-3.85-4.15-25.08.24-34.75,1.96-4.3,4.45-11.9,5.68-21.77-.7.51-4.88,15.01-11.89,18.56,0,0,8.08-17.72,2.04-43.6,0,0,3.29,50.37-34.12,64.81-35.96,13.88-48.37.66-49.28-.37,1.01,1.57,13.5,19.57,53.12,5.22,41.37-15,28.98,16.11,25.98,16.27-3,.14-22.6,6.27-26.43,14.41-3.85,8.13-21.96,46.52-63.42,40.41-1.63-.26-3.1-.45-4.43-.59Z"/>
                  <path class="cls-2" d="M215.46,182.74c-.64,5.57-2.61,21.69,10.4,29.58,3.13,1.89,7.1,3.27,12.14,3.88,25.98,3.14,40.18-10.88,53.66-33.3,13.48-22.41,36.94-23.37,36.94-23.37,0,0,.46-1.96-.23-5.82-.69-3.85-4.15-25.08.24-34.75,1.96-4.3,4.45-11.9,5.68-21.77,1.54-12.38,1.1-28.31-4.94-45.66-10.89-31.17-46.36-34.26-48.41-34.33-26.18-1.09-49.26,10.15-57.71,29.3-8.42,19.15-7.08,46.41,3.17,67.73,10.26,21.31,2.67,43.73-2.56,45.18-5.15,1.43-7.68,17.14-8.39,23.31ZM257.71,136.32c-8.49-2.34-24.04-11.77-26.08-36.38-2.04-24.63,30.11-50.1,30.11-50.1,0,0,36.86,14.28,36.87,48.85,0,36.93-32.43,39.94-40.89,37.63Z"/>
                  <path class="cls-2" d="M231.63,99.94c-2.04-24.63,30.11-50.1,30.11-50.1,0,0,36.29,14.28,36.86,48.85.62,36.93-32.43,39.94-40.89,37.63-8.49-2.34-24.04-11.77-26.08-36.38Z"/>
                  <path class="cls-16" d="M259.9,29.56s17.75-3.48,32.72,7.37c14.97,10.86,14.87,18.05,14.87,18.05,0,0-11.85-22.06-47.59-25.42Z"/>
                  <path class="cls-16" d="M302.35,111.6s6.18-19.02-2-44.07c0,0,16.18,17.8,2,44.07Z"/>
                  <path class="cls-16" d="M226.79,101.95s-3.2-19.68,8.73-43.32c0,0-18.73,15.35-8.73,43.32Z"/>
                  <path class="cls-16" d="M270.66,186.03s-15.89,20.69-34.95,16.11c-19.06-4.58-12.26-27.6-12.26-27.6,0,0-2.15,22.59,14.56,22.04,16.71-.55,32.65-10.55,32.65-10.55Z"/>
                  <path class="cls-16" d="M232.26,148.85c-.36.71-7.01,32.59,6.79,39.42,13.8,6.83,45.98-25.14,45.98-25.14,0,0-30.66,24.87-44.09,18.52-13.43-6.35-8.68-32.8-8.68-32.8Z"/>
                  <g>
                    <g>
                      <path class="cls-18" d="M258.16,101.59s.16,3.53,2.1,3.76c.36.04.48-.44.89-.49.41-.05.89.19.97.97.15,1.29-2.04,2.16-3.85-.15-1.25-1.6-.57-3.46-.12-4.1Z"/>
                      <path class="cls-31" d="M256.52,102.26c-.44,2.04,1.07,4.15,2.94,4.78.13.04.25.08.38.11.3.06.45-.36.18-.51-1.23-.72-2.07-2-2.18-3.47-.14-1.32.6-2.29,1.7-2.91.71-.41,1.48-.55,2.3-.59.25-.01.3-.38.06-.46h-.01c-1.39-.46-4.67-.22-5.37,3.05Z"/>
                      <g>
                        <g>
                          <path class="cls-9" d="M272.57,97.95c7.44,1.77,11.5,1.58,17.74-4.07-2.07-6.16-4.25-12.11-11.67-11.54-6.76.52-8.87,6.29-8.24,13.84.1,1.23,1.25,1.56,2.17,1.78Z"/>
                          <g>
                            <path class="cls-8" d="M277.12,87.89c-2.9-.09-5.33,2.29-5.41,5.31s2.2,5.54,5.1,5.63,5.33-2.29,5.41-5.31c.08-3.02-2.2-5.54-5.1-5.63Z"/>
                            <path class="cls-9" d="M279.53,89.56c-.73-.02-1.35.64-1.37,1.47-.02.84.55,1.53,1.29,1.55s1.35-.64,1.37-1.47c.02-.84-.55-1.53-1.29-1.55Z"/>
                          </g>
                        </g>
                        <path class="cls-11" d="M270.29,93.96c1.88-7.67,3.51-9.56,6.76-10.35,7-1.7,11.09,4.85,12.66,10.79.54,1.14,6.67-1.52,6.79-5.9-1.05,1.57-4.25,3.78-5.2,2.02-6.9-12.77-21.76-13.04-21.01,3.44Z"/>
                      </g>
                      <g>
                        <path class="cls-9" d="M250.87,97.94c-6.4,1.74-9.9,1.53-15.29-4.15,1.76-6.15,3.61-12.09,10-11.49,5.83.54,7.67,6.33,7.15,13.87-.08,1.23-1.07,1.56-1.86,1.77Z"/>
                        <g>
                          <path class="cls-8" d="M243.82,87.89c-2.65-.08-4.86,2.3-4.95,5.33s1.99,5.54,4.64,5.62c2.65.08,4.86-2.3,4.95-5.33.08-3.02-1.99-5.54-4.64-5.62Z"/>
                          <path class="cls-9" d="M245.77,89.54c-.73-.02-1.35.64-1.37,1.47-.02.84.55,1.53,1.29,1.55.73.02,1.35-.64,1.37-1.47s-.55-1.53-1.29-1.55Z"/>
                        </g>
                        <path class="cls-11" d="M252.82,93.96c-1.65-7.68-3.06-9.58-5.87-10.38-6.04-1.73-9.53,4.8-10.86,10.74-.46,1.13-3.85-.62-3.97-5,.91,1.57,1.78,2.87,2.59,1.12,5.89-12.74,18.69-12.94,18.11,3.53Z"/>
                      </g>
                    </g>
                    <path class="cls-10" d="M273.39,113.13c.54-.31,1.22-.08,1.51.5.29.58.09,1.3-.46,1.61-.36.2-.37-.01-.42-.35l-1.82,1.08c-7.01,4.67-16.65,5.88-22.3-1.59,7.36,5.06,12.72,4.72,20.68,1.38,1.27-.53,1.99-1.06,3.03-1.8-.31-.36-.64-.58-.22-.82Z"/>
                    <path class="cls-12" d="M251.99,75.99c2.13-2.19-5.11-6.34-10.31-3.77-5.2,2.58-4.9,6.99-4.77,7.41.13.42,2.74-3.58,6.24-4.13,7.13-1.12,6.87,2.52,8.85.49Z"/>
                    <path class="cls-12" d="M270.39,74.64c-.9-2.53,5.15-5.43,13.03-3.68,6.69,1.48,9.83,8.44,9.65,8.86-.17.42-4.89-4.28-9.88-4.93-7.47-.97-11.82,2.5-12.8-.25Z"/>
                    <g class="cls-15">
                      <path class="cls-38" d="M285.24,80.65c-3.33-2.07-7.46-2.97-11.1-1.2,3.16-2.9,8.44-1.89,11.1,1.2h0Z"/>
                    </g>
                    <g class="cls-15">
                      <path class="cls-38" d="M238.61,80.65c2.66-3.09,7.95-4.1,11.1-1.2-3.65-1.77-7.78-.87-11.1,1.2h0Z"/>
                    </g>
                  </g>
                </g>
              </g>
              <g>
                <g>
                  <g>
                    <g>
                      <g>
                        <path class="cls-44" d="M196.48,364.19c.06-.1.11-.22.17-.34,1.53,1.13,3.28,1.99,5.11,2.23-.74-.47-.84-.55-.3-.23.33.2.67.38,1,.56,0,0,0,0,.03.02,0,0-.02-.01-.03-.02.02.01,1.09.6,1.35.74,1.04.59,2.05,1.37,3.23,1.66.52.12,1.04.2,1.55.23-.15.75-.19,1.23-.19,1.23.29.72.86,1.53,1.57,2.33,1.75,2.02,4.36,4.11,5.83,5.13,2.06,1.45,3.71,2.55,4.79,3.85,1.07,1.29,1.37,3.16-.05,3.18.25.82-.28,2.19-1.29,1.91.04,1.03-1.01,1.47-1.58.86.11.71-1.29,1.7-2.05.64.18.98-.67,1.66-2.35,1.51-1.67-.15-2.7-1.15-3.35-1.8-.64-.65-.8-1.17-1.63-1.31-.83-.13-4.06-1.17-5.93-2.52-1.85-1.34-2.95-3.15-4.88-4.05-1.92-.88-4.93-2.05-5.78-4.65-.95-2.87.89-5.42,1.6-7.27,0,0,2.15-2.04,3.18-3.9Z"/>
                        <path class="cls-26" d="M220.53,384.76c.25.81-.29,2.18-1.3,1.9.04,1.04-1,1.48-1.57.87.11.7-1.29,1.7-2.05.63.17.98-.67,1.66-2.35,1.51-1.67-.15-2.71-1.14-3.35-1.79-.64-.65-.81-1.18-1.63-1.31-.83-.13-4.06-1.17-5.92-2.52-1.86-1.35-2.95-3.15-4.88-4.04-1.93-.89-4.93-2.06-5.79-4.65-.46-1.41-.26-2.74.15-3.95.6,3.85,2.28,4.5,4.58,5.32,3.1,1.1,4.98,3.11,6.3,4.45,1.32,1.34,3.83,2.85,5.73,3.26,1.9.41,3.29,3.23,4.5,3.54,1.21.31,1.78-.48,1.38-1.66,2.15,1.47,2.43-.04,2.11-.91,1.27.93,2.22-.1,1.49-1.11,1.36.76,1.88-.1,1.15-1.29,1.32.41,1.66-.47,1.61-1.26.97,1.28,1.18,3-.17,3.03Z"/>
                        <path class="cls-26" d="M207.04,368.81c.52.12,1.04.2,1.55.23-.15.75-.19,1.23-.19,1.23.29.72.86,1.53,1.57,2.33l-.09.11s-2.54-1.16-3.83-2.36c-.43-.41-.66-1.22-.68-2.26.54.31,1.09.58,1.68.73Z"/>
                        <path class="cls-5" d="M196.48,364.19c-2.6,4.05-8.7,10.32-2.68,13.87,3.22,1.24,5.61,4.62,8.83,5.86,3.76,1.45,6.88,4.54,10.76,5.67.99.29,2.04-.38,2.23-1.4,0,0,0-.01,0-.02.91.78,1.69.4,2.05-.64.1,0,.21,0,.33-.02,1.18-.17,2.14-1.05,2.53-2.17.56-1.6.91-3.1.41-4.23-4.54-4.21-11.8-4.54-12.4-11.83"/>
                      </g>
                      <g>
                        <path class="cls-22" d="M189.61,367.82c.98.74,2.41,1.38,4.17,1.87,4.15,1.15,10.12,1.45,16.33.08,1.2-1.77,2.15-3.48,2.9-5.16,3.16-7.03,2.86-13.51,2.22-21.61,1.29-3.65-.63-7.66-4.29-8.95-3.65-1.28-8.73,6.52-9.34,6.62-2.06,10.58-4.69,20.48-11.98,27.15Z"/>
                        <path class="cls-17" d="M189.61,367.82c.98.74,2.41,1.38,4.17,1.87,1.11-.77,2.42-1.61,3.92-2.45,3.77-2.11,12.24-2.55,15.31-2.63,3.16-7.03,2.86-13.51,2.22-21.61,1.29-3.65-.63-7.66-4.29-8.95-3.65-1.28-8.73,6.52-9.34,6.62-2.06,10.58-4.69,20.48-11.98,27.15Z"/>
                        <path class="cls-5" d="M201.59,340.67c-2.05,10.58-4.69,20.47-11.98,27.15,3.31,2.48,11.67,3.89,20.5,1.95,6.18-9.2,5.91-16.74,5.11-26.77"/>
                      </g>
                    </g>
                    <g>
                      <g>
                        <path class="cls-44" d="M231.48,366.07c.03-.11.07-.24.1-.37,1.73.78,3.63,1.25,5.47,1.09-.82-.3-.93-.36-.34-.16.36.12.73.23,1.1.33,0,0,0,0,.03,0,0,0-.02,0-.03,0,.02,0,1.19.35,1.48.43,1.14.35,2.3.9,3.51.93.53.01,1.05-.03,1.56-.11.01.77.08,1.24.08,1.24.44.64,1.17,1.31,2.03,1.94,2.14,1.6,5.14,3.08,6.79,3.77,2.32.97,4.17,1.7,5.5,2.73,1.32,1.03,2.01,2.79.63,3.12.42.75.19,2.2-.85,2.14.26,1-.67,1.66-1.36,1.18.26.67-.9,1.93-1.86,1.06.39.92-.3,1.77-1.97,1.98-1.67.22-2.88-.54-3.66-1.04-.76-.5-1.04-.98-1.87-.94-.84.05-4.22-.28-6.33-1.19-2.1-.91-3.55-2.45-5.63-2.91-2.07-.45-5.25-.95-6.65-3.31-1.54-2.6-.29-5.48,0-7.44,0,0,1.66-2.45,2.28-4.49Z"/>
                        <path class="cls-26" d="M259.38,381.03c.42.74.18,2.2-.86,2.13.26,1.01-.66,1.66-1.35,1.19.25.66-.9,1.93-1.87,1.06.38.92-.3,1.77-1.97,1.98-1.67.21-2.89-.54-3.65-1.03-.76-.5-1.04-.98-1.88-.93-.84.05-4.22-.28-6.33-1.2-2.11-.92-3.56-2.44-5.63-2.9-2.08-.46-5.26-.96-6.65-3.31-.75-1.28-.84-2.62-.69-3.89,1.41,3.63,3.19,3.91,5.61,4.22,3.27.42,5.53,1.98,7.11,3,1.58,1.03,4.35,1.97,6.29,1.96,1.95,0,3.9,2.46,5.15,2.5,1.25.04,1.64-.85,1-1.92,2.41.98,2.37-.55,1.87-1.34,1.44.64,2.15-.57,1.22-1.41,1.49.45,1.81-.5.85-1.51,1.37.11,1.52-.81,1.3-1.58,1.22,1.04,1.8,2.68.48,2.99Z"/>
                        <path class="cls-26" d="M242.79,368.33c.53.01,1.05-.03,1.56-.11.01.77.08,1.24.08,1.24.44.64,1.17,1.31,2.03,1.94l-.06.12s-2.73-.59-4.25-1.49c-.51-.31-.9-1.05-1.15-2.06.59.19,1.19.34,1.8.35Z"/>
                        <path class="cls-5" d="M231.48,366.07c-1.67,4.51-6.29,11.94.35,14.12,3.41.52,6.47,3.31,9.88,3.84,3.98.61,7.69,2.96,11.72,3.24,1.03.07,1.91-.8,1.88-1.84,0,0,0-.01,0-.02,1.06.57,1.74.03,1.86-1.06.1-.02.2-.05.32-.09,1.11-.42,1.87-1.48,2.01-2.66.21-1.68.23-3.23-.5-4.22-5.33-3.14-12.49-1.91-14.64-8.91"/>
                      </g>
                      <g>
                        <path class="cls-22" d="M225.54,371.09c1.11.51,2.65.83,4.48.94,4.3.24,10.2-.75,15.97-3.41.79-1.98,1.36-3.86,1.73-5.66,1.58-7.54-.09-13.81-2.45-21.59.48-3.84-2.26-7.35-6.1-7.83-3.84-.47-7.14,8.23-7.71,8.46.25,10.78-.2,21-5.91,29.09Z"/>
                        <path class="cls-17" d="M225.54,371.09c1.11.51,2.65.83,4.48.94.92-.99,2.02-2.09,3.3-3.23,3.23-2.87,11.41-5.11,14.39-5.84,1.58-7.54-.09-13.81-2.45-21.59.48-3.84-2.26-7.35-6.1-7.83-3.84-.47-7.14,8.23-7.71,8.46.25,10.78-.2,21-5.91,29.09Z"/>
                        <path class="cls-5" d="M231.45,342.01c.26,10.77-.2,21-5.9,29.08,3.76,1.72,12.23,1.31,20.44-2.47,4.07-10.31,2.19-17.61-.73-27.25"/>
                      </g>
                    </g>
                  </g>
                  <path class="cls-45" d="M207.91,251.87s.11,8.32-3.09,12.67c0,0-.62,14.8,9.97,14.88,10.59.07,13.46-8.25,12.46-13.99l-2.15-1.6s-.34-3.34.47-11.07c0,0-11.43-14.73-17.66-.89Z"/>
                  <path class="cls-6" d="M207.91,251.87s.11,8.32-3.09,12.67c0,0-.62,14.8,9.97,14.88,10.59.07,13.46-8.25,12.46-13.99l-2.15-1.6s-.34-3.34.47-11.07c0,0-11.43-14.73-17.66-.89Z"/>
                  <path class="cls-22" d="M252.61,362.47s0,0,0,0c-.25-.08-11.83-3.75-30.22-.35-16.8,3.1-25.99,4.2-33.84-1.89,0,0,6.23-8.7,8.01-29.71.49-5.77,1.27-11.79,1.17-17.57-.14-8.53-1.35-16.19-1.47-19.07-.24-5.78.96-10.89,1.97-14.95.5-2,.95-3.74,1.17-5.19,0-.03,0-.05.01-.08.01-.07.02-.13.03-.2,0-.05,0-.09.02-.14,0-.05.01-.1.02-.16.01-.07,0-.14,0-.21,0-.03-.01-.06-.02-.09,0,0,0,0,0-.02,0-.02,0-.03-.02-.05-.02-.06-.05-.11-.08-.15-.04-.07-.09-.13-.12-.2-.12-.2-.24-.41-.34-.62-.4-.86-.63-1.82-.63-2.83,0-1.83.74-3.5,1.95-4.69,1.2-1.2,2.86-1.95,4.69-1.95.15,0,.29,0,.44.02.05,0,.1-.01.15-.02.29-.02.57-.08.84-.17.4-.13.77-.31,1.11-.51.1-.05.19-.11.27-.17.24-.15.44-.3.63-.43.05-.03.1-.07.15-.11.12-.09.23-.16.31-.21.03-.02.07-.04.1-.05.02,0,.03-.02.04-.02.01,0,.02-.01.04-.01.05-.02.09-.02.12,0,0,0,.01,0,.01.01.02.02.03.05.03.09.07.98.56,2.29,1.66,3.22.04.03.07.07.12.09.03.03.07.06.11.09.05.04.1.07.15.11.04.03.08.06.12.09,2.29,1.56,3.73,1.84,8.74,1.94.13,0,.26,0,.39,0,.65.01,1.23,0,1.75-.02.12,0,.23-.01.35-.02.12,0,.23-.02.34-.02.22-.02.43-.04.62-.07,3.85-.53,2.99-2.36,2.65-2.89-.02-.03-.04-.07-.06-.09-.02-.02-.03-.04-.04-.05,0,0,0,0,0,0,.15-.36.54-.55.91-.44,0,0,.02,0,.03,0,1.01.31.24.22,2.22.8h0c.15.06.3.12.45.19.23.11.46.24.67.39.02.01.04.03.06.04.09.06.17.13.26.2,0,0,0,0,.01,0,1.4,1.15,2.41,3.14,3.03,5.87,0,0,0,0,0,.01.02.09.04.19.06.28.02.09.04.19.06.29,0,.02,0,.03.01.05.8,3.74,1.93,8.66,2.29,16.61.15,3.34.17,6.07.53,8.52,2.01,13.44,1.65,22.6,10.11,34.19,6.02,8.05,8.16,20.39,5.86,32.3Z"/>
                  <path class="cls-34" d="M252.61,362.47c-.25-.08-11.83-3.75-30.22-.35-16.8,3.1-25.99,4.2-33.84-1.89,0,0,6.23-8.7,8.01-29.71.49-5.77,1.27-11.79,1.17-17.57-.14-8.53-1.35-16.19-1.47-19.07-.24-5.78.96-10.89,1.97-14.95-.25,3.98.07,10.58,2.2,21.22,4.47,22.33-1.01,54.41-1.01,54.41,0,0-1.1,9.49,21.85-1.88,19.67-9.75,31.19,9.6,31.34,9.79Z"/>
                  <path class="cls-34" d="M232.31,318.79c4.61,2.77,22.24,14.65,19.69,42.82,0,0,4.6-16.6-5.31-32.47-3.77-6.04-10.43-9.54-13.81-11.2-.54-.27-1.08.54-.56.85Z"/>
                  <path class="cls-6" d="M233.82,270.86c-.55-2.05-1.12-4.35-2.66-6.07-1.34-1.15-2.88-2.11-4.79-2.11-.38.77.38,1.15,0,1.92-.38,1.53-2.11,1.53-3.26,1.73-3.83.38-7.67,0-11.31-1.53-1.34-.77-2.49-2.11-2.49-3.83,0-.19-.19-.19-.38-.19-1.15.58-1.92,1.53-3.26,1.53-2.68-.19-5.56,1.15-6.71,3.64-1.15,2.3-.77,4.79.58,6.9-1.15,6.71-3.87,13.23-3.26,19.94.88,9.71,1.93,20.43,1.2,29.63-.81,10.16-3.61,31.56-8.91,37.81,0,0,5.19,5.77,19.33,4.22,14.14-1.56,26.52-6.51,44.73-1.97,0,0,2.14-10.19-.51-21.04-1.74-7.12-7.47-13.96-10.51-20.35-2.68-5.61-3.79-15.84-4.96-25.4-.42-3.45-.59-10.06-.59-10.06"/>
                </g>
                <g>
                  <path class="cls-42" d="M207.49,254.84s-1.45.57-.84,2.73c.51,1.84,3.9,5.46,17.22,5.47,7.92,0,5.07-4.42,5.07-4.42,0,0,3.12-.11,3.09,3.05-.03,3.26-1.8,6.65-10.75,6.31-7.07-.27-11.98-2-15.93-4.76-3.81-2.66-1.62-9.33,2.16-8.39Z"/>
                  <path class="cls-6" d="M207.49,254.84s-1.45.57-.84,2.73c.51,1.84,3.9,5.46,17.22,5.47,7.92,0,5.07-4.42,5.07-4.42,0,0,3.12-.11,3.09,3.05-.03,3.26-1.8,6.65-10.75,6.31-7.07-.27-11.98-2-15.93-4.76-3.81-2.66-1.62-9.33,2.16-8.39Z"/>
                </g>
              </g>
              <g>
                <path class="cls-25" d="M237.34,287.27s-12.88-.23-15.62-.58-8.35-4.86-13.3-6.65c-4.95-1.79-12.73-2.99-15.21-5.07-2.49-2.07-10.46-9.82-10.46-9.82,0,0-2.14,2.09-1.85,4.15.29,2.06.71,3.94.71,3.94,0,0-1.25,2.99-.55,5.54.7,2.55,1.91,4.29,1.91,4.29,0,0-.63,2.39.19,4.68.82,2.29,1.94,3.55,1.94,3.55,0,0-.83,3.97.58,6.4,1.41,2.43,7.09,7.83,8.73,9.24,1.64,1.41,3.63,3,13.74,3.22,10.11.21,14.49-1.63,16.83-1.32s12.41,3.05,12.41,3.05l-.04-24.61Z"/>
                <path class="cls-2" d="M237.34,287.27s-12.88-.23-15.62-.58-8.35-4.86-13.3-6.65c-4.95-1.79-12.73-2.99-15.21-5.07-2.49-2.07-10.46-9.82-10.46-9.82,0,0-2.14,2.09-1.85,4.15.29,2.06.71,3.94.71,3.94,0,0-1.25,2.99-.55,5.54.7,2.55,1.91,4.29,1.91,4.29,0,0-.63,2.39.19,4.68.82,2.29,1.94,3.55,1.94,3.55,0,0-.83,3.97.58,6.4,1.41,2.43,7.09,7.83,8.73,9.24,1.64,1.41,3.63,3,13.74,3.22,10.11.21,14.49-1.63,16.83-1.32s12.41,3.05,12.41,3.05l-.04-24.61Z"/>
                <path class="cls-28" d="M345.42,185.45c1.38,16.47-9.38,65.96-10.56,72.61-1.29,7.3-4.21,14.54-6.62,21.52-2.61,7.52-4.87,18.9-11.26,24.14-16.19,13.3-35.38,11.87-55.16,11.24-5.99-.19-26.37-.19-29.82.14-1.12.11-1.99-.94-1.69-2.03.57-2.04,1.32-5.32,1.59-9.33.46-6.86-1.53-18.87-.05-19.14.75-.14,9.12-1.68,19.66-3.46,2-.34,4.12-2.03,10.01-2.72,19.08-2.24,17.29-1.3,18.31-3.18,1.02-1.88,9.66-85.78,25.74-101.89,1.28-1.28,2.55-2.43,3.81-3.47,13.67-11.29,34.38-2.58,36,15.08.01.16.03.33.04.49Z"/>
                <path class="cls-29" d="M306.44,280.92c-.11.02-.23,0-.33-.07-10.84-6.98-27.07-4.34-27.23-4.31-.25.04-.48-.13-.53-.37-.04-.25.12-.48.37-.53h0c.17-.03,16.75-2.72,27.88,4.44.21.14.27.42.14.63-.07.11-.18.18-.3.2Z"/>
                <path class="cls-29" d="M280.9,269.71s-.09,0-.13,0c-.25-.03-.43-.25-.4-.51,3.57-31.42,8.76-53.83,12.5-67.1,4.05-14.39,7.3-21.45,7.33-21.52.11-.23.38-.33.61-.22.23.11.33.38.22.61-.03.07-3.26,7.08-7.29,21.42-3.72,13.23-8.9,35.58-12.46,66.92-.02.21-.18.36-.37.4Z"/>
                <path class="cls-2" d="M181.59,273.24s4.9,6.51,13.7,10.46c8.8,3.94,9.2,3.84,9.2,3.84"/>
                <path class="cls-2" d="M182.88,282.93s4.9,6.51,13.7,10.46c8.8,3.94,9.2,3.84,9.2,3.84"/>
                <path class="cls-2" d="M184.86,290.97s4.9,6.51,13.7,10.46c8.8,3.94,5.78,1.89,5.78,1.89"/>
              </g>
              <g>
                <g>
                  <path class="cls-37" d="M194.42,289.17s6.2-2.19,11.41-.59c5.21,1.61,13.46.96,17.28-.09,0,0,2.4,4.75,2.87,8.14,0,0-11.88,4.52-15.9,5.59-4.02,1.07-15.53,2.38-19.24-.86-3.71-3.24,3.58-12.2,3.58-12.2Z"/>
                  <path class="cls-27" d="M221.69,296.47c-.95.87-2.04,1.51-3.18,2.1-1.4.72-2.83,1.38-4.29,1.97-1.95.8-3.94,1.49-5.96,2.09.7-.13,1.32-.27,1.82-.4,4.02-1.07,15.9-5.59,15.9-5.59-.21-1.46-.77-3.18-1.34-4.66-.65,1.68-1.59,3.23-2.96,4.48Z"/>
                  <path class="cls-23" d="M235.26,280.82c.1-.55-.33-1.05-.88-1.03-.54.03-1.21.19-1.81.69-1.28,1.08-3.96,3.16-5.08,3.52-1.12.36-4.01,2.46-4.35,3.03s6.52,1.6,8.94,1.26c2.13-.3,2.69-4.92,3.18-7.48Z"/>
                  <path class="cls-3" d="M235.26,280.82c.1-.55-.33-1.05-.88-1.03-.54.03-1.21.19-1.81.69-1.28,1.08-3.96,3.16-5.08,3.52-1.12.36-4.01,2.46-4.35,3.03s6.52,1.6,8.94,1.26c2.13-.3,2.69-4.92,3.18-7.48Z"/>
                  <g>
                    <path class="cls-46" d="M221.89,288.63s4.55-4.33,7.11-5.37c2.57-1.04,4.77-1.28,5.98-1.38,1.21-.1,4.43.45,5.06.75.82.39,1.68,2.1-.28,2.65,0,0,2.4-.03,2.34,1.47-.06,1.5-1.57,1.16-2.35,1.34-.82.19-5.03.34-5.41,1.25,0,0,5.86-.3,7.1.34,1.24.64,1.04.95.77,1.6-.27.65-1.82,1.31-2.98,1.28-2.04-.05-3.53.91-3.53.91,0,0,4.72.05,5.85-.1,1.13-.16,1.1,1.07.17,1.67-.93.61-3.12,1.46-5.22,1.95-2.1.5-8.58,1.69-12.47.06-3.89-1.63-3.72-6.2-2.13-8.42Z"/>
                    <path class="cls-27" d="M241.65,286.49c-.68.8-1.76.8-2.72.72-.59-.05-1.14-.08-1.72.04-.58.12-1.15.29-1.7.52-.41.18-.87.39-1.11.79-.05.08-.08.16-.12.24,1.03-.67,4.41-.8,5.14-.97.79-.19,2.29.16,2.35-1.34,0-.05,0-.1,0-.15-.04.05-.07.11-.12.16Z"/>
                    <path class="cls-43" d="M236.77,284.61c-1.28.05-3.15.23-3.86,1.39,2.22-.78,4.62-.97,6.93-.38.72-.33.9-.85.8-1.34-.2.18-.45.32-.75.4-1.04.27-2.07-.12-3.12-.08Z"/>
                    <path class="cls-27" d="M241.64,290.84c-.63.54-1.55.61-2.34.67-.9.07-1.87.06-2.7.47-.4.19-.71.48-.89.88-.03.07-.06.13-.08.2.51-.27,1.73-.8,3.26-.76,1.16.03,2.71-.63,2.98-1.28.13-.31.24-.54.19-.76-.1.21-.23.41-.43.58Z"/>
                    <path class="cls-27" d="M240.43,294.95c-.87.41-1.81.67-2.77.84-2.89.95-5.99,1.14-9,.91-1.67-.13-3.34-.3-4.96-.78-.75-.22-1.52-.49-2.22-.87.51.71,1.23,1.32,2.22,1.73,3.89,1.63,10.37.44,12.47-.06,2.1-.5,4.29-1.35,5.22-1.95.41-.27.64-.66.68-.99-.46.5-1.03.87-1.64,1.16Z"/>
                    <path class="cls-3" d="M221.89,288.63s4.55-4.33,7.11-5.37c2.57-1.04,4.77-1.28,5.98-1.38,1.21-.1,4.43.45,5.06.75.82.39,1.68,2.1-.28,2.65,0,0,2.4-.03,2.34,1.47-.06,1.5-1.57,1.16-2.35,1.34-.82.19-5.03.34-5.41,1.25,0,0,5.86-.3,7.1.34,1.24.64,1.04.95.77,1.6-.27.65-1.82,1.31-2.98,1.28-2.04-.05-3.53.91-3.53.91,0,0,4.72.05,5.85-.1,1.13-.16,1.1,1.07.17,1.67-.93.61-3.12,1.46-5.22,1.95-2.1.5-8.58,1.69-12.47.06-3.89-1.63-3.72-6.2-2.13-8.42Z"/>
                  </g>
                  <path class="cls-48" d="M209.22,289.59c-.04.09-.85-.21-2.18-.55-.33-.08-.7-.17-1.1-.25-.39-.09-.82-.15-1.27-.22-.9-.12-1.89-.2-2.94-.2-1.05.01-2.04.1-2.94.23-.45.08-.87.14-1.27.23-.4.08-.76.17-1.1.26-1.33.35-2.14.67-2.18.58-.03-.07.71-.53,2.05-1,.33-.12.7-.24,1.1-.34.4-.12.84-.2,1.29-.3.92-.16,1.95-.27,3.03-.28,1.08,0,2.11.1,3.03.25.46.09.9.17,1.3.28.4.1.77.22,1.11.33,1.34.46,2.09.92,2.06.98Z"/>
                  <path class="cls-22" d="M195.03,305.05c3.9.34,16.05-.73,25.46-4.38l4.17-1.12s0-.77-.06-1.97c-.1-2.29-.42-6.11-1.37-8.8-.16-.44-.34-.85-.52-1.22,0,0-6.14,1.22-8.66,1.22-2.54,0-7.54-.79-7.54-.79l.28-4.16.56-8.45s.04-4.6-1-5.5c-1.37-1.18-7.6-5.63-7.65-5.74-.86-2.04-7.53-3.68-11.05,4.52,0,0-.51,15.47-.95,23.5h0c-.05.9-.06,1.73-.03,2.47.37,7.41,4.47,10.08,8.36,10.42Z"/>
                  <path class="cls-34" d="M195.03,305.05c3.9.34,16.05-.73,25.46-4.38l4.17-1.12s0-.77-.06-1.97c-18.63,5.47-25.61,5.9-31.08,5.05-5.38-.84-6.78-10.12-6.83-10.46-.05.89-.06,1.72-.03,2.46.37,7.41,4.47,10.08,8.36,10.42Z"/>
                  <path class="cls-3" d="M187.65,268.66s-.51,15.47-.95,23.5h0c-.05.9-.06,1.73-.03,2.47.37,7.41,4.47,10.08,8.36,10.42,3.9.34,16.05-.73,25.46-4.38l4.17-1.12s0-.77-.06-1.97c-.1-2.29-.42-6.11-1.37-8.8-.16-.44-.34-.85-.52-1.22,0,0-6.14,1.22-8.66,1.22-2.54,0-7.54-.79-7.54-.79l.28-4.16.56-8.45"/>
                </g>
                <path class="cls-34" d="M196.64,288.1c.41-.06,9.31.83,12.58,1.49,2.56.52,10.55-.38,14.01-.8-.16-.44-.34-.85-.52-1.22,0,0-6.14,1.22-8.66,1.22-2.54,0-7.54-.79-7.54-.79l.28-4.16.56-8.45s-.43-6.5-2.67-7.49c-.26-.12.52,2.58.73,5.82.08,1.14.07,2.35-.07,3.52-.55,4.48-1.97,9.09-2.74,9.32-.73.22-5.71,1.51-5.95,1.54Z"/>
                <path class="cls-43" d="M222.71,287.57c-3.09,1.01-6.33,1.87-9.62,1.78-4.32-.22-8.53-1.46-12.86-1.36-1.08,0-2.17.05-3.25.03,1.07-.18,2.15-.31,3.22-.46,4.34-.5,8.65.62,12.94.97,3.2.2,6.41-.46,9.57-.96h0Z"/>
                <path class="cls-43" d="M186.71,294.63c1.67,14.13,13.93,10.28,23.92,8.4,4.75-.88,9.34-2.82,14.08-3.48-4.55,1.56-9.06,3.5-13.9,4.36-5.02.99-10.15,1.29-15.26,1.36-5.96.24-9.47-5.41-8.84-10.64h0Z"/>
              </g>
              <path class="cls-34" d="M231.58,267.06s-.07.18-.23.55c-.4.9-1.37,2.92-3.25,6.11-2.66,4.49-6.22,9.51-21.51-1.12-6.25-4.36-10.85-6.25-14.09-6.96-1.27-.27-2.33-.37-3.2-.37.7-1.16,1.52-2.38,2.4-3.32,3.1.18,7.12,2.19,12.07,4.6,3.82,1.86,6.01,3.16,12.89,7.59,8.77,5.65,11.58-6.79,14.89-9.44-.13.87.04,2.36.04,2.36Z"/>
              <g>
                <g>
                  <path class="cls-47" d="M237.3,254.06h0c-.32.09-.64.18-.96.26,0,0,0,0,0,0-4.66,1.23-9.66,1.72-14.63,1.24-26.08-2.55-33.45-15.03-34.27-17.55-2.36.73-4.5.95-6.42.78-12.34-1.1-15.45-18.43-7.29-22.47.79-.39,1.68-.65,2.67-.77,3.9-39.91,26.95-48.48,45.94-46.63,2.09.2,5.35.84,9.09,2.06.14.05.28.09.41.14,13.19,4.41,31.96,16.04,27.1,41.57-1.73,9.07.89,11.1.2,21.03-.62,8.8-10.01,16.94-21.83,20.35Z"/>
                  <path class="cls-21" d="M237.3,254.06h0c-.32.09-.64.18-.96.26,17.02-7.43,22.22-17.57,20.63-27.48-1.59-9.91.09-13.13.81-20.52,2.27-23.26-26.53-35.04-26.53-35.04,0,0,.21-.06.59-.17,13.19,4.41,31.96,16.04,27.1,41.57-1.73,9.07.89,11.1.2,21.03-.62,8.8-10.01,16.94-21.83,20.35Z"/>
                  <path class="cls-21" d="M237.3,254.06c-4.93,1.42-10.28,2.02-15.59,1.5-26.08-2.55-33.45-15.03-34.27-17.55-2.36.73-4.5.95-6.42.78-2.96-3.56-5.1-6.71-6.07-8.83-1.34-2.93-1.79-7.81-1.22-13.64.79-.39,1.68-.65,2.67-.77,3.9-39.91,26.95-48.48,45.94-46.63,2.09.2,5.35.84,9.09,2.06-.11.19-.18.3-.18.3,0,0-9.48.11-19.38,6.21-9.89,6.1-22.59,21.13-19.99,49.74,2.52,27.73,44.93,26.86,45.42,26.83Z"/>
                  <path class="cls-1" d="M195.3,190.76s40.72-26.07,61.64,1.28c0,0-7.41-17.8-24.92-20.63-24.19-3.91-36.72,19.35-36.72,19.35Z"/>
                  <path class="cls-6" d="M259.13,233.71c-.87,12.47-19.38,23.61-37.43,21.85-26.08-2.55-33.45-15.03-34.27-17.55-18.99,5.84-23.99-20.96-11.04-22.46,3.9-39.91,26.95-48.48,45.94-46.63,9.46.92,42.91,10.65,36.6,43.76-1.73,9.07.89,11.1.2,21.03Z"/>
                </g>
                <g>
                  <path class="cls-53" d="M187.29,269.05s.02-.05.05-.09h0s-.03.06-.05.09Z"/>
                  <path class="cls-53" d="M262.99,207.08c-3.86,10.68-3.3,20.45-3.3,20.45,0,0,1.45,13.07-9.23,20.01,5-3.86,8.3-8.73,8.66-13.83.7-9.92-1.93-11.95-.2-21.03.82-4.32.97-8.24.58-11.8,0,0,0-.01,0-.02-1.75-15.97-14.29-24.56-24.8-28.71h-.02s-.09-.04-.14-.06c-.07-.03-.14-.05-.21-.08-7.58-2.81-33.68-1.41-43.46,29.76-2.58,8.22-3.64,15.33-3.42,21.57.33,9.52,3.61,16.98,8.93,23.21.74.86,1.52,1.7,2.33,2.52,2.86,1.59,6.36,3.07,10.64,4.27h0c3.55.99,7.64,1.76,12.33,2.22.87.08,1.74.14,2.6.17.18,0,.35.01.53.01,3.24.05,6.47-.29,9.57-.95-1.81.56-3.39.9-6.33,1.82-.96.3-.45.77.51,1.52.67.52,3.3,1.34,4.05,2.15,1.21,1.32.55,2.19-.15,2.65-.1.07-.19.12-.28.17-.52.28-.2.45.26.71.86.49,2.18,1.29-.97,3.7-.04.04-.08.07-.13.11-3.11,2.58-7.49,13.32-15.73,8.23-6.55-4.06-8.64-5.25-12.27-6.95-5.02-2.35-7.35-3.54-10.85-3.26-.21.02-.43.04-.65.07-.31.03-.63.08-.96.14-2.2.39-2.53,1.32-3.55,3.12,0-.02.02-.04.02-.05.26-.52.97-2.03,1.94-3.65.7-1.16,1.52-2.38,2.4-3.32.71-.76,1.46-1.34,2.2-1.55,0,0-.02-.04-.04-.12-.08-.29-.27-1.03-.2-1.79,0-.02,0-.04,0-.05.08-.78.45-1.58,1.47-1.93.02-.01.05-.02.07-.03.29-.1.53-.17.72-.23h0c.26-.08.43-.12.55-.15-.96-.39-7.03-2.94-13.14-6.79-13.3-8.37-30.44-26.71-20.94-69.11,7.22-32.2,36.05-37.02,44.47-38.06,8.43-1.03,33.96,3,47.37,18.7,9.12,10.67,9.31,23.78,9.31,23.78l-.11,1.15s3.42,10.64-.45,21.33Z"/>
                  <path class="cls-34" d="M232.45,263.81c-.03.35-.08.63-.08.63-1.5-.7-6.29,1.62-8.05,3.67-.74.86-1.49,1.97-1.02,1.05,2.44-4.9,7.21-6.03,8.83-6.72.23-.1.32.14.34.49-.1.07-.19.12-.28.17-.52.28-.2.45.26.71Z"/>
                  <path class="cls-34" d="M207.38,261.73c1.37,1.51,1.14,2.34.66,1.9-3.82-3.52-7.59-5.95-11.45-6.89-.31-.88-11.69-4.5-21.43-13.76-8.21-7.81-15.03-19.88-15.35-35.21,0,0,5.03,29.17,30.4,40.9,2.41,1.11,6.83,2.89,9.75,4.6.46.27,1.3.78,1.68,1.14.2.19-.04.51-.28.37-1.48-.84-3.9-1.94-6.37-1.9-1.04.02-.9.9.97,1.7,3.72,1.59,6.66,1.89,11.44,7.15Z"/>
                  <path class="cls-34" d="M259.5,200.87c-1.75-15.97-14.29-24.56-24.8-28.71h-.02s-.09-.04-.14-.06c-.07-.03-.14-.06-.21-.08-7.57-2.81-33.68-1.41-43.46,29.76-2.58,8.22-3.63,15.33-3.42,21.56,0,0-6.31-9.48-.81-27.97,4.04-13.59,13.55-33.27,40.23-29.19,7.58,1.16,30.61,6.42,32.63,34.69Z"/>
                  <path class="cls-34" d="M166.7,184.84c2.06-6.84,6.36-13.04,11.62-17.86.37-.34.91.14.62.55l-.02.03c-1.4,1.92-2.8,3.97-3.99,6.03-6.96,11.57-9.15,24.97-7.75,38.2.1.94-1.27,1.18-1.51.27-1.46-5.62-2.74-14.75,1.02-27.21Z"/>
                  <path class="cls-34" d="M212.88,147.86c6.51-.98,13.1.52,18.61,4.02,1.97,1.25,4.2,2.85,6.26,4.67.4.36-.07.99-.52.69-2.01-1.29-4.19-2.62-6.32-3.7-5.97-3.03-14.36-4.54-21.38-2.81-5.2,1.42-9.86,4.29-14.07,7.69-.56.46-1.28-.32-.78-.85,3.58-3.74,9.61-8.41,18.2-9.71Z"/>
                  <path class="cls-34" d="M185.87,246.4s-4.72-3.2-7.42-9.13c-5.35-11.71-9.02-33.31,3.85-56.6.32-.57.11-1.29-.45-1.62h0c-.55-.31-1.24-.15-1.59.38-3.28,4.92-18.47,29.36-6.33,58.4,0,0,5.3,9.12,11.94,8.57Z"/>
                  <path class="cls-34" d="M264.92,201.19c-.6,3.53-1.73,6.93-2.81,10.31-1.03,3.36-1.8,6.77-2.08,10.29-.21,2.28-.38,4.59-.81,6.85-.01,0-.02,0-.03.01-.53-8.51-2.54-10.71,1.04-22.36,4.81-15.69-1.12-27.64-1.12-27.64.09-.11.18-.2.27-.29.02,0,.04.03.05.05.53.63,1.08,1.33,1.6,2.07,4.25,6.1,5.22,13.52,3.89,20.73Z"/>
                  <path class="cls-34" d="M260.04,171.17c-2.09-2.96-5.64-5.19-9.71-6.57-.28-.1-.61.24-.37.39h.02c1.14.69,2.3,1.43,3.32,2.21,5.9,4.36,8.73,10.52,9.08,17.28.03.48.98.34,1.06-.15.44-3.03.41-7.75-3.4-13.15Z"/>
                  <path class="cls-34" d="M202.04,263.82s-1.92-1.15-5.03-.68c-1.34.2-3.33,1.33-5.16,2.56-.31.03-.63.08-.96.14-2.2.39-2.53,1.32-3.55,3.12,0-.02.02-.04.02-.05.54-1.23,3.8-7.89,6.54-8.52,0,0-.02-.04-.04-.12-.1-.29-.3-1.02-.2-1.79,0-.02,0-.04,0-.05.1-.66.42-1.34,1.22-1.79.08-.05.17-.09.25-.13.02-.01.05-.02.07-.03.24-.1.48-.17.72-.23h0c1.28-.26,2.54.08,2.54.08,0,0-1.15.17-2.14,1.3-.45.52-.35,2.05.55,2.27,1.78.44,2.37,1.35,5.16,3.93Z"/>
                  <path class="cls-34" d="M201.77,267.91c.07-.7,9.22,2.57,13.84,5.79s8.88.09,11.44-3.89c0,0-1.69,4.03-3.96,6.12s-6.23.28-11.08-2.74c-3.95-2.46-10.23-5.28-10.23-5.28Z"/>
                  <path class="cls-34" d="M228.57,258.12c-.54.06-.86.1-.86.1-2.4-1.98-12.62,0-22.86-3.69-9.15-3.29-21.32-10.41-23.81-31.35-.88-7.36-.52-7.86-.21-7.83.79.08,1.64,8.56,5.16,17.08,2.73,6.61,7.35,11.98,11.28,15.04,3.57,2.78,6.96,4.24,12.09,5.88,0,0,0,0,0,0,4.34,1.39,9.29,2.25,14.93,2.39.17,0,.35,0,.53.01,3.25.06,6.47-.28,9.58-.95-1.81.56-3.4.9-6.34,1.82-.96.3-.45.77.51,1.51Z"/>
                  <path class="cls-6" d="M263,207.07c-3.87,10.69-3.31,20.45-3.31,20.45,0,0,1.45,13.07-9.23,20.02,5.01-3.86,8.3-8.73,8.66-13.83.69-9.93-1.93-11.96-.2-21.03.82-4.32.97-8.24.58-11.8,0,0,0-.01,0-.02-1.75-15.97-14.29-24.56-24.8-28.71h-.02s-.09-.04-.14-.06c-.07-.03-.14-.06-.21-.08-7.57-2.81-33.68-1.41-43.46,29.76-2.58,8.22-3.63,15.33-3.42,21.56.33,9.52,3.61,16.99,8.93,23.21.74.86,1.51,1.7,2.33,2.52h0c2.85,1.59,6.36,3.08,10.65,4.27,0,0,0,0,0,0,3.55.99,7.64,1.76,12.33,2.22.87.08,1.74.14,2.61.17.18,0,.35.01.53.01,3.25.06,6.47-.28,9.58-.95-1.81.56-3.4.9-6.34,1.82-.96.3-.45.77.51,1.51.67.52,3.3,1.33,4.05,2.15,1.37,1.49.33,2.41-.42,2.81-1.52.8,4.09.73-.72,4.41-3.13,2.39-7.51,13.51-15.86,8.34-6.56-4.06-8.64-5.25-12.28-6.95-5.75-2.7-7.96-3.86-12.46-3.05-2.24.4-2.54,1.35-3.6,3.21.36-.68,3.56-7.79,6.61-8.66,0,0-1.12-3.15,1.29-3.92,2.15-.69,1.43-.34,1.43-.34,0,0-6.61-2.65-13.27-6.83-13.3-8.37-30.44-26.71-20.94-69.11,7.22-32.2,36.05-37.03,44.48-38.06,8.43-1.04,33.95,3,47.36,18.7,9.12,10.68,9.31,23.78,9.31,23.78l-.11,1.15s3.42,10.65-.45,21.33Z"/>
                  <path class="cls-43" d="M265.04,201.62c-.6,3.53-1.73,6.93-2.81,10.31-1.03,3.36-1.1,7.15-1.38,10.66-.21,2.28-.38,4.59-.81,6.85-.01.06-.02.13-.04.19,0-.06,0-.12,0-.18.06-1.12.11-2.24.12-3.36.02-2.83-.3-6,.18-8.77.44-2.93,1.01-5.87,1.85-8.7,2.32-7.69,4.06-16.33.67-23.87-.82-1.84-1.78-3.63-2.92-5.3-.13-.2.1-.4.27-.29.02,0,.04.03.05.05.53.63,1.08,1.33,1.6,2.07,4.25,6.1,4.53,13.14,3.2,20.35Z"/>
                  <path class="cls-34" d="M207.36,259.12c-.28-.19-.03-.62.28-.48,3.95,1.82,6.62,3.63,10.18,6.22,3.23,2.35,4.21-4.89,9.14-4.21.28.04.34.41.08.53-.68.31-1.67.9-2.72,2.02-1.12,1.19-2,3.13-3.44,5.53-1.57,2.63-3.99-2.29-8.45-5.84-1.72-1.37-3.62-2.75-5.07-3.77Z"/>
                </g>
                <g>
                  <g>
                    <path class="cls-43" d="M243.18,201.23c-1.71-2.11,4.88-5.29,9.24-2.61,4.36,2.68,3.81,6.59,3.67,6.96s-2.15-3.39-5.16-4.14c-6.14-1.51-6.16,1.75-7.75-.21Z"/>
                    <path class="cls-43" d="M223.55,198.48c.95-2.19-4.13-5.21-11.11-4.22-5.93.84-9.13,6.82-9.01,7.21s4.55-3.46,8.94-3.68c6.58-.33,10.14,3.09,11.18.7Z"/>
                    <path class="cls-52" d="M235.98,226.38s-1.13,3.86-3.79,3.27c-.49-.11-.54-.7-1.07-.93-.54-.23-1.24-.17-1.56.66-.53,1.37,2.18,3.3,5.2,1.51,2.09-1.24,1.66-3.6,1.22-4.51Z"/>
                    <path class="cls-43" d="M238,227.84c.06,2.46-2.51,4.15-5.18,4.04-.18,0-.36-.02-.54-.05-.41-.06-.51-.59-.11-.64,1.84-.26,3.29-1.33,3.82-2.91.53-1.41-.22-2.81-1.52-3.98-.85-.77-1.84-1.25-2.93-1.66-.33-.12-.3-.55.04-.53h.02c1.98.09,6.32,1.8,6.42,5.73Z"/>
                  </g>
                  <g>
                    <path class="cls-43" d="M251.82,213.64c1.09.83,1.53,2.08,1.87,3.28.27.92.34,2.07.35,3.06,0,.21.67.42.98-.45.39-1.09.66-1.87.52-2.94-.19-1.57-.88-3.25-2.19-4.38-5.62-4.84-12.63,1.95-13.66,5.58-.04.14.24.28.37.07,1.34-2.14,6.44-8.28,11.76-4.23Z"/>
                    <path class="cls-43" d="M253.5,214.02c.81.9,2.75.37,3.61-.62-1.15.14-2.48.57-3.23-.61-.14-.21-.66.71-.87.73l.49.5Z"/>
                    <path class="cls-43" d="M254.72,215.77c.49,1.23,2.5,1.49,3.53.07-2.11.53-2.85-.47-3.19-1.14-.12-.23-.46.44-.64.37l.3.69Z"/>
                  </g>
                  <path class="cls-43" d="M211.13,207.47c-1.81.62-2.99,1.92-4.08,3.23-.85,1.04-1.57,2.44-2.12,3.68-.12.27-.63.16-.61-.13.12-1.39.44-3.58.88-4.96.6-1.9,1.9-3.57,4.15-4.41,8.29-3.1,14.06,5.65,14.11,9.41,0,.15-.31.25-.39.01-.76-2.38-4.23-9.48-11.94-6.84Z"/>
                  <path class="cls-43" d="M205.87,210.06c-1.33,1.24-4.41.98-5.74-.1,1.92-.03,4.42-.51,5.69-2.07.23-.28.51,1.5.82,1.49l-.77.68Z"/>
                  <path class="cls-43" d="M205.25,212.01c-.96,1.58-4.35,2.25-5.89.56,3.51.37,4.87-.97,5.51-1.82.22-.28.65.48.94.38l-.57.88Z"/>
                  <path class="cls-31" d="M236.87,239.31c-6.64.47-11.8-.53-16.52-5.51,2.28,6.58,10.72,8.72,16.52,5.51h0Z"/>
                </g>
              </g>
              <g>
                <path class="cls-35" d="M170.33,160.75s.95-8.37,2.22-10.84c1.28-2.47,4.39-9.08,5.61-10.36,1.22-1.28,1.95-1.78,1.95-1.78,0,0,1.72-4.34,3.34-5s2.89-1,2.89-1c0,0,1.78-2,3.56-2.61,1.78-.61,4.12,0,4.12,0,0,0,4.61-.97,6.11-1.07,1.5-.1,5.17,1.01,6.45,1.51,1.28.5,6.39,9.84,6.62,10.34.22.5,1.95,13.56,1.28,14.12-.67.56-1.95-1.11-2.72-2.45l-.78-1.33s.44,4.56.11,5.06c-.33.5-.89.67-1.5.22-.61-.44-2-1.95-2-1.95,0,0-.39,2.28-1.72,2.11-1.33-.17-2.89-1.28-2.89-1.28,0,0,.39,1.56-1.11,1.67-1.5.11-2.46-.54-3.34-1.13-.88-.59-7.39-5.54-8.56-5.99-1.17-.44-5.34-.5-5.34-.5,0,0-5.5,4.06-8.84,7.51-3.34,3.45-5.45,4.74-5.45,4.74Z"/>
                <path class="cls-2" d="M170.33,160.75s.95-8.37,2.22-10.84c1.28-2.47,4.39-9.08,5.61-10.36,1.22-1.28,1.95-1.78,1.95-1.78,0,0,1.72-4.34,3.34-5s2.89-1,2.89-1c0,0,1.78-2,3.56-2.61,1.78-.61,4.12,0,4.12,0,0,0,4.61-.97,6.11-1.07,1.5-.1,5.17,1.01,6.45,1.51,1.28.5,6.39,9.84,6.62,10.34.22.5,1.95,13.56,1.28,14.12-.67.56-1.95-1.11-2.72-2.45l-.78-1.33s.44,4.56.11,5.06c-.33.5-.89.67-1.5.22-.61-.44-2-1.95-2-1.95,0,0-.39,2.28-1.72,2.11-1.33-.17-2.89-1.28-2.89-1.28,0,0,.39,1.56-1.11,1.67-1.5.11-2.46-.54-3.34-1.13-.88-.59-7.39-5.54-8.56-5.99-1.17-.44-5.34-.5-5.34-.5,0,0-5.5,4.06-8.84,7.51-3.34,3.45-5.45,4.74-5.45,4.74Z"/>
                <g>
                  <path class="cls-31" d="M202.97,154.9c-.15,0-.3-.08-.39-.22-5.24-8.42-13.68-11.34-13.77-11.37-.24-.08-.37-.34-.29-.58.08-.24.34-.37.58-.29.36.12,8.83,3.04,14.25,11.75.13.21.07.5-.15.63-.08.05-.16.07-.24.07Z"/>
                  <path class="cls-31" d="M207.58,154.07c-.19,0-.37-.12-.43-.31-2.92-8.61-11.98-15.56-12.07-15.63-.2-.15-.24-.44-.09-.64.15-.2.44-.24.64-.09.38.29,9.37,7.19,12.39,16.06.08.24-.05.5-.29.58-.05.02-.1.02-.15.02Z"/>
                  <path class="cls-31" d="M211.02,151.23c-.21,0-.4-.14-.45-.36-2.29-10.08-8.28-15.26-8.34-15.31-.19-.16-.22-.45-.05-.64.16-.19.45-.22.64-.05.26.22,6.29,5.44,8.65,15.81.06.25-.1.49-.34.55-.03,0-.07.01-.1.01Z"/>
                </g>
              </g>
            </g>
          </g>
          <g>
            <path class="cls-19" d="M43.32,154.65c.66.3,1.34.64,2.03,1.02.69.38,1.32.85,1.89,1.41.56.55,1.03,1.22,1.41,2,.37.78.58,1.7.62,2.77.06,1.51-.18,2.85-.74,4.02-.56,1.16-1.34,2.14-2.35,2.94-1.01.8-2.22,1.42-3.63,1.86-1.41.44-2.92.69-4.54.75-.75.02-1.52-.02-2.3-.11-.79-.1-1.57-.24-2.34-.43-.77-.19-1.51-.42-2.24-.69-.73-.27-1.41-.55-2.05-.85l2.43-6.85c.32.13.7.29,1.15.5.45.2.93.39,1.44.56.51.17,1.04.32,1.6.45.55.13,1.1.18,1.63.16.79-.04,1.46-.18,2-.42s.81-.63.78-1.18c-.02-.36-.21-.64-.56-.83-.35-.19-.77-.38-1.26-.58-.32-.08-.74-.2-1.26-.35-.52-.15-1.08-.35-1.68-.61-.6-.26-1.2-.57-1.81-.93-.61-.36-1.16-.8-1.66-1.31-.5-.51-.92-1.1-1.25-1.78-.33-.67-.51-1.44-.53-2.32-.04-1.49.21-2.82.77-3.98.55-1.16,1.31-2.15,2.27-2.98.96-.82,2.08-1.45,3.36-1.89,1.28-.44,2.65-.69,4.1-.75,1.34-.06,2.68,0,4,.21,1.32.2,2.56.54,3.71,1.01l-1.89,7.39c-.85-.36-1.63-.67-2.34-.91s-1.53-.43-2.46-.56c-.28-.04-.65-.06-1.12-.06s-.89.05-1.33.14c-.44.1-.82.25-1.14.46-.32.21-.49.51-.51.9,0,.17.08.3.24.4.16.1.35.17.58.22.22.05.45.1.69.13s.43.06.58.08c.62.13,1.28.28,1.98.45.6.13,1.17.31,1.73.54Z"/>
            <path class="cls-19" d="M56.67,153.63h.06c.53-.7,1.15-1.21,1.86-1.52s1.49-.46,2.37-.46,1.69.16,2.38.48c.69.32,1.27.77,1.74,1.34.47.58.83,1.25,1.07,2.03.25.78.36,1.62.34,2.51l-.19,12.38-6.75.58v-11.68c0-.36-.13-.67-.38-.93-.26-.26-.6-.38-1.02-.38s-.75.12-1.04.37c-.29.25-.43.58-.43,1.01v11.65l-6.72-.58-.22-25.22,7.17-.58-.22,8.99Z"/>
            <path class="cls-19" d="M79.1,167.9h-.06c-.43,1.17-1.09,2-2,2.5-.91.49-1.97.74-3.18.74-1.6,0-2.9-.47-3.89-1.42-.99-.95-1.49-2.33-1.49-4.14v-13.44l7.14-.58-.19,11.84c-.02.51.09.88.34,1.1.24.22.62.34,1.14.34.43,0,.77-.11,1.04-.32.27-.21.39-.58.37-1.09l-.19-11.3,7.36-.58-.48,19.04-5.89.26v-2.94Z"/>
            <path class="cls-19" d="M87.35,145.28l7.26-.58-.64,13.5h.06l3.04-6.5,7.07.58-4.16,8.06,4.8,7.39-6.66,3.3-4.16-8.03h-.06l.26,7.46-6.66.58-.16-25.76Z"/>
            <path class="cls-19" d="M112.28,151.58v3.55h.06c.55-2.37,2.15-3.55,4.8-3.55.58,0,1.12.03,1.63.1l-1.66,6.82c-.15-.02-.31-.03-.48-.03h-.64c-.9,0-1.67.29-2.32.88-.65.59-.98,1.51-.98,2.77v8.22l-6.72.58-.19-18.75,6.5-.58Z"/>
            <path class="cls-19" d="M41.21,181.31c-1.54,2.35-2.69,4.52-3.47,6.53-.78,2.01-1.33,3.73-1.65,5.18-.32,1.45-.5,3-.54,4.64.21,1.56.52,2.96.91,4.19.39,1.24.99,2.61,1.78,4.11.79,1.5,1.87,2.98,3.23,4.43l-1.57,1.12c-1.39-1.19-2.54-2.45-3.47-3.76-.93-1.31-1.65-2.55-2.18-3.71-.52-1.16-.92-2.24-1.2-3.23-.28-.99-.45-1.75-.51-2.29-.06-.53-.1-.82-.1-.86.06-1.83.3-3.55.72-5.15.42-1.6,1.12-3.47,2.11-5.62.99-2.14,2.44-4.45,4.34-6.93l1.6,1.34Z"/>
            <path class="cls-19" d="M61.53,193.25c-.3-.73-.77-1.25-1.42-1.58s-1.38-.5-2.19-.5-1.61.17-2.46.51c-.85.34-1.63.82-2.34,1.44-.7.62-1.29,1.38-1.74,2.27-.46.9-.69,1.91-.69,3.04-.02,1.05.14,1.88.5,2.51.35.63.8,1.08,1.34,1.36.54.28,1.15.4,1.81.37.66-.03,1.31-.19,1.95-.48.64-.29,1.22-.67,1.74-1.15.52-.48.91-1.03,1.17-1.65l-4.54.86.51-5.15,13.95-1.76c.19,1.34.13,2.67-.18,3.98-.31,1.31-.74,2.51-1.28,3.6s-1.12,2.06-1.71,2.93c-.6.86-1.09,1.52-1.49,1.97-.4.45-.61.69-.66.74-.77.77-1.7,1.44-2.8,2.02s-2.28,1.01-3.54,1.31c-1.26.3-2.56.43-3.9.4-1.34-.03-2.62-.27-3.84-.7-1.22-.44-2.34-1.1-3.38-2-1.04-.9-1.87-2.06-2.51-3.49-.73-1.6-1.14-3.19-1.25-4.78-.11-1.59.02-3.12.38-4.61.36-1.48.94-2.88,1.74-4.21.8-1.32,1.76-2.51,2.88-3.57,1.12-1.06,2.37-1.96,3.76-2.7,1.39-.75,2.85-1.28,4.38-1.6.04,0,.27-.03.69-.08.42-.05,1.02-.06,1.81-.02s1.67.2,2.66.46c.98.27,2.05.71,3.2,1.34,1.15.63,2.29,1.5,3.42,2.61l-5.98,6.3Z"/>
            <path class="cls-19" d="M76.19,189.98v3.55h.06c.55-2.37,2.15-3.55,4.8-3.55.58,0,1.12.03,1.63.1l-1.66,6.82c-.15-.02-.31-.03-.48-.03h-.64c-.9,0-1.67.29-2.32.88-.65.59-.98,1.51-.98,2.77v8.22l-6.72.58-.19-18.75,6.5-.58Z"/>
            <path class="cls-19" d="M93.37,206.94h-.06c-.58.81-1.31,1.38-2.19,1.7-.89.32-1.84.48-2.86.48-.85,0-1.66-.15-2.43-.46-.77-.31-1.44-.75-2.02-1.33-.58-.58-1.04-1.27-1.38-2.08-.34-.81-.51-1.72-.51-2.72,0-.88.17-1.68.51-2.42.34-.74.8-1.38,1.39-1.92.59-.54,1.28-.97,2.08-1.28.8-.31,1.67-.46,2.61-.46s1.81.14,2.48.43c.67.29,1.24.61,1.71.98v-.96c0-.98-.32-1.63-.96-1.95-.64-.32-1.47-.48-2.5-.48-.94,0-1.81.1-2.62.29-.81.19-1.63.42-2.46.67l1.25-5.09c1.02-.3,2.09-.51,3.2-.62,1.11-.12,2.24-.18,3.39-.18,1.04,0,2.07.12,3.07.37s1.88.65,2.64,1.2c.76.56,1.36,1.27,1.81,2.14.45.88.66,1.95.64,3.23l-.35,12.1-6.43.54v-2.18ZM89.31,201.02c-.73.11-1.32.36-1.79.75-.47.4-.67.84-.61,1.33.08.49.39.86.91,1.1.52.25,1.2.3,2.03.18s1.45-.39,1.86-.8.56-.84.48-1.31c-.06-.4-.34-.75-.82-1.04-.48-.29-1.17-.36-2.06-.21Z"/>
            <path class="cls-19" d="M111.05,209.42c-.31.01-.65.02-1.01.02-2.05,0-3.64-.46-4.78-1.39s-1.71-2.44-1.71-4.53v-7.58l-1.76.03.19-5.54h1.5v-2.11l6.94-3.14v5.25l2.59-.38-.35,5.89h-2.18v5.6c0,.64.09,1.07.27,1.28.18.21.59.32,1.23.32.28,0,.5-.01.67-.03.17-.02.33-.05.48-.1l-1.12,6.34c-.34.04-.67.07-.98.08Z"/>
            <path class="cls-19" d="M114.62,182.88l7.33-.32-.38,5.63-6.98.51.03-5.82ZM114.65,190.97l7.14-.58-.35,18.46-6.78.58v-18.46Z"/>
            <path class="cls-19" d="M132.68,209.42c-.31.01-.65.02-1.01.02-2.05,0-3.64-.46-4.78-1.39s-1.71-2.44-1.71-4.53v-7.58l-1.76.03.19-5.54h1.5v-2.11l6.94-3.14v5.25l2.59-.38-.35,5.89h-2.18v5.6c0,.64.09,1.07.27,1.28.18.21.59.32,1.23.32.28,0,.5-.01.67-.03.17-.02.33-.05.48-.1l-1.12,6.34c-.34.04-.67.07-.98.08Z"/>
            <path class="cls-19" d="M146.58,206.3h-.06c-.43,1.17-1.09,2.01-2,2.5-.91.49-1.97.74-3.18.74-1.6,0-2.9-.47-3.89-1.42-.99-.95-1.49-2.33-1.49-4.14v-13.44l7.14-.58-.19,11.84c-.02.51.09.88.34,1.1.24.22.62.34,1.14.34.43,0,.77-.11,1.04-.32.27-.21.39-.58.37-1.09l-.19-11.3,7.36-.58-.48,19.04-5.89.26v-2.94Z"/>
            <path class="cls-19" d="M173.18,208.89l-6.27.42v-1.82h-.06c-.51.68-1.21,1.18-2.1,1.49-.89.31-1.78.46-2.67.46-1.09,0-2.14-.22-3.15-.66-1.01-.44-1.92-1.07-2.7-1.89-.79-.82-1.42-1.83-1.89-3.02-.47-1.19-.7-2.55-.7-4.06,0-1.36.2-2.65.59-3.86s.96-2.26,1.71-3.17c.75-.91,1.67-1.62,2.77-2.14,1.1-.52,2.35-.78,3.76-.78.7,0,1.39.09,2.05.27.66.18,1.24.49,1.73.91l-.29-7.62,7.36-.58-.13,26.05ZM164.31,202.56c.47-.17.86-.4,1.18-.69s.57-.61.75-.96c.18-.35.28-.72.3-1.1.02-.38-.03-.76-.16-1.12-.13-.34-.33-.65-.59-.93-.27-.28-.58-.5-.94-.66-.36-.16-.76-.25-1.2-.27-.44-.02-.89.05-1.36.22-.49.17-.9.41-1.22.7s-.57.62-.75.98c-.18.35-.28.72-.3,1.12-.02.4.03.76.16,1.1.13.36.33.68.59.94s.58.48.94.64c.36.16.76.25,1.2.26.44.01.9-.07,1.39-.24Z"/>
            <path class="cls-19" d="M193.4,206.75c-1.3.94-2.64,1.62-4,2.03-1.37.42-2.93.62-4.7.62-1.45,0-2.78-.25-3.98-.75s-2.25-1.18-3.12-2.03c-.88-.85-1.56-1.85-2.05-2.99-.49-1.14-.74-2.35-.74-3.63,0-1.6.26-3.03.77-4.29s1.21-2.33,2.08-3.2c.87-.87,1.89-1.54,3.06-2,1.16-.46,2.41-.69,3.73-.69,2.13,0,3.98.54,5.55,1.63s2.74,2.54,3.5,4.35l-9.57,7.2c.23.13.54.21.93.26.38.04.74.06,1.06.06.98,0,1.81-.18,2.48-.53.67-.35,1.29-.77,1.84-1.26l3.17,5.22ZM186.55,196.25c-.3-.36-.62-.61-.98-.74s-.75-.19-1.2-.19-.82.09-1.17.27c-.35.18-.66.43-.91.74-.26.31-.45.66-.59,1.04-.14.38-.21.78-.21,1.18s.03.66.08.82c.05.16.12.33.21.5l4.77-3.62Z"/>
            <path class="cls-19" d="M194.97,210.17c1.54-2.37,2.69-4.55,3.47-6.54.78-1.99,1.33-3.72,1.65-5.17.32-1.45.5-3,.54-4.64-.21-1.56-.52-2.96-.91-4.19-.4-1.24-.99-2.61-1.78-4.11-.79-1.5-1.87-2.98-3.23-4.43l1.57-1.12c1.39,1.2,2.54,2.45,3.47,3.76.93,1.31,1.65,2.55,2.18,3.71.52,1.16.92,2.24,1.2,3.23.28.99.45,1.75.51,2.29.06.53.1.82.1.86-.06,1.83-.3,3.55-.72,5.14-.42,1.59-1.12,3.46-2.11,5.62-.99,2.15-2.44,4.47-4.34,6.94l-1.6-1.34Z"/>
            <path d="M31.76,244.24c-.13-.13-.2-.29-.2-.47l.02-12.98c0-.17.06-.32.19-.45s.28-.2.46-.2c.22,0,.41.09.57.27l7.75,11.26v-10.88c0-.18.07-.34.2-.47.13-.13.29-.2.47-.2s.34.07.47.2c.13.13.2.29.2.47v12.98c0,.18-.06.34-.19.47-.13.13-.29.2-.48.2-.08,0-.18-.03-.29-.08-.11-.06-.2-.13-.25-.21l-7.75-11.21-.02,10.84c0,.18-.07.34-.2.47-.13.13-.29.2-.47.2s-.34-.07-.47-.2Z"/>
            <path d="M47.53,243.8c-.65-.43-1.16-1.01-1.53-1.74-.37-.74-.56-1.55-.56-2.45,0-.95.21-1.86.64-2.73.43-.87,1.02-1.57,1.77-2.11.76-.54,1.59-.81,2.5-.81.78,0,1.5.21,2.15.64.65.43,1.16,1.01,1.53,1.74s.56,1.54.56,2.43c0,1.01-.22,1.95-.67,2.81-.45.87-1.05,1.56-1.8,2.08-.75.52-1.56.78-2.43.78-.8,0-1.52-.21-2.17-.64ZM51.49,242.64c.53-.41.96-.94,1.28-1.62.32-.67.48-1.39.48-2.14,0-.66-.13-1.27-.4-1.84-.27-.57-.63-1.02-1.08-1.37s-.96-.51-1.52-.51c-.62,0-1.19.21-1.71.62-.52.41-.94.96-1.26,1.64-.32.68-.47,1.4-.47,2.15s.14,1.37.41,1.92c.27.55.64.98,1.1,1.29.46.31.95.46,1.47.46.6,0,1.17-.2,1.7-.61Z"/>
            <path d="M58.6,244.28c-.13-.13-.2-.27-.2-.44v-8.57h-2.33c-.18,0-.34-.07-.46-.2-.13-.13-.19-.29-.19-.47,0-.2.07-.35.21-.47s.3-.18.48-.18h2.29v-2.88c0-.18.07-.34.2-.47.13-.13.29-.2.47-.2.2,0,.35.07.47.2.12.13.18.29.18.47v2.88h2.35c.2,0,.36.06.48.19s.19.28.19.46-.07.34-.2.47c-.13.13-.29.2-.47.2h-2.35v8.57c0,.17-.07.32-.2.44-.13.13-.28.19-.45.19-.18,0-.34-.06-.47-.19Z"/>
            <path d="M64.93,244.24c-.14-.13-.21-.29-.21-.47l.13-9.11c0-.18.07-.34.21-.48.14-.14.3-.21.48-.21s.34.07.47.2c.13.13.2.3.2.49l-.13,9.11c0,.18-.07.34-.2.47-.13.13-.29.2-.47.2s-.34-.07-.48-.2ZM65.08,232.12c-.13-.13-.19-.28-.19-.46l.02-.86c0-.17.07-.31.21-.44.14-.13.29-.19.46-.19s.31.07.44.2c.13.13.19.28.19.45l-.02.86c0,.18-.07.33-.2.45-.13.12-.28.18-.45.18-.18,0-.34-.06-.46-.19Z"/>
            <path d="M71.95,243.85c-.71-.4-1.27-.95-1.68-1.65-.41-.7-.62-1.47-.62-2.31,0-.95.22-1.89.66-2.8s1.03-1.67,1.75-2.25,1.48-.87,2.27-.87c.73,0,1.33.12,1.8.36s.92.61,1.35,1.11c.11.11.17.26.17.44s-.06.34-.18.46c-.12.13-.27.19-.45.19-.2,0-.36-.08-.48-.23-.31-.36-.62-.64-.94-.83-.32-.19-.73-.28-1.22-.28-.56,0-1.11.22-1.64.67-.53.45-.97,1.03-1.3,1.75-.34.72-.5,1.47-.5,2.24,0,.7.16,1.31.49,1.82.33.51.75.9,1.26,1.17.51.27,1.03.4,1.54.4,1.2,0,2.14-.48,2.81-1.45.18-.25.38-.38.59-.38.18,0,.34.06.46.19s.19.27.19.44c0,.14-.07.3-.21.48-.36.53-.89.99-1.58,1.37-.69.38-1.44.57-2.27.57s-1.57-.2-2.28-.6Z"/>
            <path d="M83.12,243.76c-.8-.46-1.41-1.07-1.85-1.84-.43-.77-.65-1.61-.65-2.52s.2-1.84.6-2.68.96-1.5,1.67-2.01c.71-.5,1.53-.76,2.46-.76.84,0,1.56.16,2.15.48s1.04.71,1.34,1.16c.3.45.45.85.45,1.2,0,.25-.17.48-.5.67l-6.51,3.72c.35.67.83,1.18,1.43,1.52.6.34,1.31.51,2.12.51.45,0,.92-.11,1.42-.34.5-.22.89-.49,1.19-.8.1-.14.24-.21.42-.21s.33.06.45.18c.12.12.18.27.18.45,0,.14-.06.28-.17.42-.38.43-.89.79-1.54,1.08-.65.29-1.29.43-1.92.43-1.02,0-1.93-.23-2.73-.68ZM87.06,235.56c-.42-.24-.99-.36-1.7-.36-.67,0-1.27.19-1.81.56-.53.37-.95.87-1.25,1.5-.3.63-.46,1.32-.47,2.08,0,.28.01.5.04.67l6.11-3.38c-.2-.48-.5-.83-.92-1.07Z"/>
            <path d="M31.66,269.47c-.13-.12-.2-.26-.2-.43v-13.23c0-.17.07-.31.2-.42.13-.11.29-.17.47-.17.17,0,.31.06.44.17s.19.25.19.42v5.15c.45-.52.99-.92,1.64-1.2.64-.28,1.32-.42,2.02-.42,1.11,0,1.99.42,2.67,1.25.67.83,1.01,1.96,1.01,3.37,0,1.67-.38,3.01-1.14,4.02-.76,1.01-1.91,1.52-3.43,1.52-.48,0-.97-.06-1.47-.18-.5-.12-.94-.25-1.3-.41v.17c0,.14-.06.27-.19.39-.13.12-.27.18-.44.18s-.32-.06-.45-.18ZM38.83,263.95c0-1.04-.22-1.84-.66-2.43s-1.03-.87-1.77-.87c-.67,0-1.28.13-1.84.38s-.99.59-1.31,1.03c-.32.43-.48.91-.48,1.43v4.22c.27.11.64.23,1.12.35s.97.18,1.46.18c2.32,0,3.49-1.43,3.49-4.28Z"/>
            <path d="M43.74,269.47c-.14-.12-.21-.25-.21-.41v-13.21c0-.18.06-.33.19-.45s.29-.18.48-.18c.17,0,.32.06.45.19.13.13.2.27.2.44v13.21c0,.15-.07.29-.2.41-.13.12-.28.18-.45.18s-.32-.06-.46-.18Z"/>
            <path d="M50.8,268.96c-.8-.45-1.41-1.07-1.85-1.84-.43-.77-.65-1.61-.65-2.52s.2-1.84.6-2.68.96-1.5,1.67-2.01c.71-.5,1.53-.76,2.46-.76.84,0,1.56.16,2.15.48.6.32,1.04.71,1.34,1.16.3.45.45.85.45,1.2,0,.25-.17.48-.5.67l-6.51,3.72c.35.67.83,1.18,1.43,1.52.6.34,1.31.51,2.12.51.45,0,.92-.11,1.42-.34s.89-.49,1.19-.8c.1-.14.24-.21.42-.21s.33.06.45.18c.12.12.18.27.18.45,0,.14-.06.28-.17.42-.38.43-.89.79-1.54,1.08-.65.29-1.29.43-1.92.43-1.02,0-1.93-.23-2.73-.68ZM54.75,260.76c-.42-.24-.99-.36-1.7-.36-.67,0-1.27.19-1.81.56-.53.37-.95.87-1.25,1.5-.3.63-.46,1.32-.47,2.08,0,.28.01.5.04.67l6.11-3.38c-.2-.48-.5-.83-.92-1.07Z"/>
            <path d="M60.95,269.19c-.58-.33-1.02-.71-1.32-1.16-.3-.44-.45-.82-.45-1.12,0-.18.06-.33.18-.45.12-.12.27-.18.45-.18.31,0,.5.15.59.44.2.56.52.99.99,1.3.46.31,1.03.46,1.7.46s1.22-.18,1.66-.55c.43-.36.65-.8.65-1.3,0-.29-.07-.54-.2-.75-.13-.2-.37-.4-.71-.58-.34-.18-.84-.37-1.5-.57-1.13-.35-1.95-.76-2.46-1.22s-.76-1.07-.76-1.83.31-1.37.93-1.84c.62-.47,1.52-.7,2.68-.7,1.05,0,1.86.21,2.43.64s.85,1.01.85,1.75c0,.34-.06.59-.17.77-.11.18-.27.26-.48.26-.18,0-.34-.06-.46-.18-.13-.12-.19-.25-.19-.41,0-.07.01-.15.03-.23s.03-.16.03-.23c0-.38-.17-.68-.5-.89s-.85-.33-1.53-.33c-.76,0-1.34.12-1.75.37-.41.25-.62.59-.62,1.04s.18.78.54,1.03c.36.25.98.53,1.86.82.84.28,1.49.55,1.94.8.45.25.78.55.99.89s.3.78.3,1.31-.15,1.01-.45,1.49c-.3.48-.72.87-1.27,1.17-.55.3-1.18.45-1.89.45-.8,0-1.49-.16-2.07-.49Z"/>
            <path d="M70.53,269.19c-.58-.33-1.02-.71-1.32-1.16-.3-.44-.45-.82-.45-1.12,0-.18.06-.33.18-.45.12-.12.27-.18.45-.18.31,0,.5.15.59.44.2.56.52.99.99,1.3.46.31,1.03.46,1.7.46s1.22-.18,1.66-.55c.43-.36.65-.8.65-1.3,0-.29-.07-.54-.2-.75-.13-.2-.37-.4-.71-.58-.34-.18-.84-.37-1.5-.57-1.13-.35-1.95-.76-2.46-1.22s-.76-1.07-.76-1.83.31-1.37.93-1.84c.62-.47,1.52-.7,2.68-.7,1.05,0,1.86.21,2.43.64s.85,1.01.85,1.75c0,.34-.06.59-.17.77-.11.18-.27.26-.48.26-.18,0-.34-.06-.46-.18-.13-.12-.19-.25-.19-.41,0-.07.01-.15.03-.23s.03-.16.03-.23c0-.38-.17-.68-.5-.89s-.85-.33-1.53-.33c-.76,0-1.34.12-1.75.37-.41.25-.62.59-.62,1.04s.18.78.54,1.03c.36.25.98.53,1.86.82.84.28,1.49.55,1.94.8.45.25.78.55.99.89s.3.78.3,1.31-.15,1.01-.45,1.49c-.3.48-.72.87-1.27,1.17-.55.3-1.18.45-1.89.45-.8,0-1.49-.16-2.07-.49Z"/>
            <path d="M79.69,269.44c-.14-.13-.21-.29-.21-.47l.13-9.11c0-.18.07-.34.21-.48.14-.14.3-.21.48-.21s.34.07.47.2c.13.13.2.3.2.49l-.13,9.11c0,.18-.07.34-.2.47-.13.13-.29.2-.47.2s-.34-.07-.48-.2ZM79.84,257.32c-.13-.13-.19-.28-.19-.46l.02-.86c0-.17.07-.32.21-.44.14-.13.29-.19.46-.19s.31.07.44.2.19.28.19.45l-.02.86c0,.18-.07.33-.2.45-.13.12-.28.18-.45.18-.18,0-.34-.06-.46-.19Z"/>
            <path d="M85.29,269.46c-.13-.13-.2-.27-.2-.42v-9.26c0-.18.07-.33.2-.45.13-.12.29-.18.47-.18s.34.06.46.18.19.27.19.45v3.32c.41-1.26.97-2.23,1.69-2.91s1.54-1.02,2.45-1.02c.77,0,1.38.2,1.83.59s.77,1.01.97,1.86c.2.85.29,1.98.29,3.41s0,2.32-.02,2.75v1.2c0,.18-.06.34-.18.47s-.27.2-.45.2c-.17,0-.31-.07-.44-.2-.13-.13-.19-.28-.19-.45v-1.18c-.01-.43-.02-1.34-.02-2.71,0-1.3-.07-2.29-.2-2.96-.13-.67-.34-1.13-.61-1.38-.27-.25-.66-.37-1.17-.37-.48,0-.95.17-1.41.52-.46.35-.87.85-1.22,1.49-.46.84-.79,1.63-1,2.37-.2.74-.31,1.5-.33,2.29l-.02,1.87c0,.2-.06.36-.18.49-.12.13-.27.2-.45.2s-.34-.06-.47-.19Z"/>
            <path d="M98.3,273.15c-.15-.03-.28-.1-.38-.22-.1-.12-.15-.26-.15-.41,0-.18.07-.34.2-.46.13-.13.29-.19.47-.19.07,0,.23.03.48.08.63.14,1.27.21,1.91.21,1.04,0,1.79-.26,2.26-.79.47-.52.72-1.27.77-2.24l.04-1.05c-.36.49-.79.86-1.28,1.12-.49.26-1.02.4-1.58.41-.78,0-1.49-.22-2.13-.65-.64-.43-1.14-1.03-1.5-1.79-.36-.76-.55-1.61-.55-2.55s.22-1.83.66-2.68c.44-.85,1.04-1.53,1.8-2.04.76-.51,1.6-.77,2.52-.77.71,0,1.46.21,2.25.63,0-.57.22-.86.65-.86.18,0,.34.06.47.19.13.13.2.29.2.48l-.23,9.6c-.03,1.43-.44,2.5-1.23,3.21-.79.71-1.82,1.07-3.1,1.07-.78,0-1.64-.11-2.56-.32ZM103.08,267.33c.61-.69.91-1.79.91-3.3v-2.96c-.22-.18-.53-.33-.91-.45-.39-.12-.77-.18-1.14-.18-.7,0-1.34.19-1.93.56-.59.37-1.06.88-1.41,1.52-.35.64-.52,1.36-.52,2.14,0,.56.1,1.13.3,1.7s.52,1.05.95,1.43c.43.38.95.57,1.56.57.85,0,1.59-.34,2.19-1.03Z"/>
            <path d="M110.13,269.19c-.58-.33-1.02-.71-1.32-1.16-.3-.44-.45-.82-.45-1.12,0-.18.06-.33.18-.45.12-.12.27-.18.45-.18.31,0,.5.15.59.44.2.56.52.99.99,1.3.46.31,1.03.46,1.7.46s1.22-.18,1.66-.55c.43-.36.65-.8.65-1.3,0-.29-.07-.54-.2-.75-.13-.2-.37-.4-.71-.58-.34-.18-.84-.37-1.5-.57-1.13-.35-1.95-.76-2.46-1.22s-.76-1.07-.76-1.83.31-1.37.93-1.84c.62-.47,1.52-.7,2.68-.7,1.05,0,1.86.21,2.43.64s.85,1.01.85,1.75c0,.34-.06.59-.17.77-.11.18-.27.26-.48.26-.18,0-.34-.06-.46-.18-.13-.12-.19-.25-.19-.41,0-.07.01-.15.03-.23s.03-.16.03-.23c0-.38-.17-.68-.5-.89s-.85-.33-1.53-.33c-.76,0-1.34.12-1.75.37-.41.25-.62.59-.62,1.04s.18.78.54,1.03c.36.25.98.53,1.86.82.84.28,1.49.55,1.94.8.45.25.78.55.99.89s.3.78.3,1.31-.15,1.01-.45,1.49c-.3.48-.72.87-1.27,1.17-.55.3-1.18.45-1.89.45-.8,0-1.49-.16-2.07-.49Z"/>
            <path d="M118.27,271.42c-.11-.1-.17-.23-.17-.39,0-.06.01-.13.04-.21l.48-1.28c-.15-.21-.23-.42-.23-.63,0-.27.09-.5.27-.7.18-.2.39-.3.63-.3.21,0,.39.08.54.23s.22.32.22.5-.03.36-.09.55c-.06.18-.19.5-.37.95l-.19.46c-.15.41-.27.67-.36.8s-.21.19-.38.19c-.15,0-.29-.05-.4-.16ZM119.35,261.99c-.13-.16-.2-.37-.2-.62s.09-.48.27-.69c.18-.21.39-.31.63-.31.21,0,.38.08.52.23.14.15.21.35.21.59,0,.29-.09.54-.27.75-.18.2-.39.3-.63.3-.22,0-.4-.08-.54-.24Z"/>
            <path d="M132.58,269.19c-.58-.33-1.02-.71-1.32-1.16-.3-.44-.45-.82-.45-1.12,0-.18.06-.33.18-.45.12-.12.27-.18.45-.18.31,0,.5.15.59.44.2.56.52.99.99,1.3.46.31,1.03.46,1.7.46s1.22-.18,1.66-.55c.43-.36.65-.8.65-1.3,0-.29-.07-.54-.2-.75-.13-.2-.37-.4-.71-.58-.34-.18-.84-.37-1.5-.57-1.13-.35-1.95-.76-2.46-1.22s-.76-1.07-.76-1.83.31-1.37.93-1.84c.62-.47,1.52-.7,2.68-.7,1.05,0,1.86.21,2.43.64s.85,1.01.85,1.75c0,.34-.06.59-.17.77-.11.18-.27.26-.48.26-.18,0-.34-.06-.46-.18-.13-.12-.19-.25-.19-.41,0-.07.01-.15.03-.23s.03-.16.03-.23c0-.38-.17-.68-.5-.89s-.85-.33-1.53-.33c-.76,0-1.34.12-1.75.37-.41.25-.62.59-.62,1.04s.18.78.54,1.03c.36.25.98.53,1.86.82.84.28,1.49.55,1.94.8.45.25.78.55.99.89s.3.78.3,1.31-.15,1.01-.45,1.49c-.3.48-.72.87-1.27,1.17-.55.3-1.18.45-1.89.45-.8,0-1.49-.16-2.07-.49Z"/>
            <path d="M147.9,269.61c-.11-.13-.17-.3-.17-.49v-.59c-.38.34-.83.61-1.37.81-.53.2-1.06.3-1.6.3-.76,0-1.44-.19-2.04-.57s-1.07-.91-1.42-1.61c-.34-.69-.51-1.48-.51-2.36,0-.95.2-1.89.6-2.8s.98-1.67,1.74-2.26c.76-.59,1.66-.88,2.7-.88.64,0,1.21.08,1.7.25.49.17.99.37,1.49.61v9.09c0,.2-.06.36-.19.49s-.28.2-.46.2c-.21,0-.37-.07-.48-.2ZM146.41,268.02c.55-.26.97-.54,1.26-.83l.08-6.36c-.22-.1-.51-.19-.87-.28-.36-.09-.69-.14-1-.14-.69,0-1.32.2-1.89.61-.57.41-1.03.96-1.35,1.67-.33.71-.49,1.5-.49,2.38,0,1.02.24,1.83.73,2.44.49.6,1.12.9,1.89.9.55,0,1.09-.13,1.64-.39Z"/>
            <path d="M153.68,273.52c-.13-.13-.19-.29-.19-.47,0-.1.03-.2.08-.29l2.04-4.45-4.07-8.13c-.06-.14-.08-.26-.08-.36,0-.2.07-.36.2-.48.13-.13.29-.19.47-.19.14,0,.27.04.38.13.11.08.2.19.25.32l3.57,7.16,3.3-7.2c.14-.28.35-.42.63-.42.18,0,.34.06.46.19.13.13.19.28.19.46,0,.13-.02.22-.06.29l-6.07,13.23c-.15.28-.36.42-.63.42-.18,0-.34-.07-.46-.2Z"/>
            <path d="M40.35,294.74c-.12-.08-.2-.2-.24-.34l-1.72-5-5.23,1.15-1.53,3.86c-.04.13-.12.23-.23.3-.11.08-.24.12-.38.12-.18,0-.33-.06-.45-.19-.12-.13-.18-.29-.18-.48,0-.08.03-.2.08-.36l1.16-2.96c-.13.04-.25.06-.38.06-.17-.01-.31-.08-.42-.2-.11-.12-.17-.27-.17-.45,0-.15.05-.29.15-.42s.22-.2.36-.23l1.05-.23,3.36-8.59c.06-.13.15-.23.27-.3.13-.08.25-.12.38-.12.14,0,.27.04.38.12.11.08.2.19.25.33l4.43,12.89c.08.25.13.42.13.5,0,.17-.06.32-.19.45-.13.13-.29.2-.48.2-.14,0-.27-.04-.39-.13ZM37.92,288.14l-1.79-5.23-2.42,6.13,4.2-.9Z"/>
            <path d="M44.71,294.67c-.14-.12-.21-.25-.21-.41v-13.21c0-.18.06-.33.19-.45s.29-.18.48-.18c.17,0,.32.06.45.19.13.13.2.27.2.44v13.21c0,.15-.07.29-.2.41-.13.12-.28.18-.45.18s-.32-.06-.46-.18Z"/>
            <path d="M50.14,294.67c-.13-.13-.2-.28-.2-.45v-13.12c0-.18.07-.34.2-.47.13-.13.29-.2.47-.2.2,0,.35.07.47.2.12.13.18.29.18.47v6.45c.42-.87,1-1.62,1.75-2.27.75-.64,1.52-.97,2.3-.97,1.04,0,1.76.57,2.18,1.72.42,1.15.63,2.95.63,5.4,0,1.39-.02,2.32-.06,2.79-.01.18-.08.33-.19.45-.11.12-.26.18-.44.18-.17,0-.32-.06-.45-.19-.13-.13-.2-.27-.2-.44,0-.21,0-.41.02-.59l.02-2.06c0-2.37-.15-3.95-.46-4.76-.31-.8-.69-1.21-1.15-1.21-.52,0-1.03.21-1.53.64-.5.43-.94.9-1.31,1.43-.37.52-.63.96-.79,1.29-.21.42-.31,1.02-.31,1.81v3.4c0,.21-.06.38-.19.5s-.28.19-.46.19-.34-.07-.47-.2Z"/>
            <path d="M68.46,294.81c-.11-.13-.17-.3-.17-.49v-.59c-.38.34-.83.61-1.37.81-.53.2-1.06.3-1.6.3-.76,0-1.44-.19-2.04-.57s-1.07-.91-1.42-1.61c-.34-.69-.51-1.48-.51-2.36,0-.95.2-1.89.6-2.8s.98-1.67,1.74-2.26c.76-.59,1.66-.88,2.7-.88.64,0,1.21.08,1.7.25.49.17.99.37,1.49.61v9.09c0,.2-.06.36-.19.49s-.28.2-.46.2c-.21,0-.37-.07-.48-.2ZM66.97,293.22c.55-.26.97-.54,1.26-.83l.08-6.36c-.22-.1-.51-.19-.87-.28-.36-.09-.69-.14-1-.14-.69,0-1.32.2-1.89.61-.57.41-1.03.96-1.35,1.67-.33.71-.49,1.5-.49,2.38,0,1.02.24,1.83.73,2.44.49.6,1.12.9,1.89.9.55,0,1.09-.13,1.64-.39Z"/>
            <path d="M73.91,294.66c-.13-.13-.2-.27-.2-.44v-9.2c0-.17.07-.32.2-.45.13-.13.29-.2.47-.2s.34.07.46.2.19.28.19.45v2.42c.46-.91,1.06-1.65,1.8-2.21.74-.57,1.46-.85,2.17-.85.6,0,1.14.18,1.63.54.48.36.82.97,1,1.84.5-.81,1.07-1.41,1.7-1.8.63-.38,1.25-.58,1.87-.58.85,0,1.54.31,2.05.94.51.63.77,1.61.77,2.94v5.96c0,.17-.07.32-.2.44-.13.13-.29.19-.47.19s-.34-.06-.46-.19-.19-.27-.19-.44v-6.11c0-.87-.14-1.5-.42-1.9-.28-.4-.69-.6-1.24-.6-.42,0-.89.16-1.4.48-.51.32-.95.78-1.31,1.37-.36.59-.55,1.26-.55,2.02v4.75c0,.17-.06.32-.19.44s-.28.19-.46.19-.34-.06-.47-.19c-.13-.13-.2-.27-.2-.44v-6.11c0-.88-.13-1.52-.38-1.91-.25-.39-.67-.59-1.24-.59-.48,0-.97.2-1.47.6-.5.4-.97.89-1.39,1.46-.38.53-.63,1.03-.76,1.49s-.19,1.11-.19,1.93v3.13c0,.17-.06.32-.19.44s-.28.19-.46.19-.34-.06-.47-.19Z"/>
            <path d="M93.04,294.28c-.55-.38-.99-.93-1.31-1.65-.32-.72-.48-1.56-.48-2.53,0-1.79.4-3.19,1.2-4.2.8-1.01,1.9-1.51,3.3-1.51.94,0,1.87.25,2.79.74l.1-4.18c0-.18.07-.34.21-.47s.3-.2.48-.2c.17,0,.32.07.45.21.13.14.2.3.2.48l-.31,13.25c0,.18-.07.33-.2.45-.13.12-.29.18-.47.18-.2,0-.36-.07-.48-.22-.13-.15-.18-.32-.17-.51l.02-.86c-1.09,1.06-2.25,1.6-3.46,1.6-.69,0-1.31-.19-1.86-.57ZM96.68,293.21c.53-.27.95-.58,1.25-.96.3-.37.46-.7.47-.98l.1-4.85c-.31-.18-.71-.36-1.21-.52s-1-.25-1.5-.25c-1.08,0-1.89.38-2.44,1.15-.55.77-.82,1.85-.82,3.23,0,1.12.21,2,.64,2.62.43.63,1,.95,1.73.95.64,0,1.23-.13,1.76-.4Z"/>
            <path d="M104.88,294.38c-.46-.35-.79-.94-1-1.79-.21-.84-.31-2.01-.31-3.51,0-1.61.08-2.93.25-3.97.04-.28.12-.48.22-.6s.26-.18.45-.18c.17,0,.31.06.43.17.12.11.18.27.18.46,0,.21-.02.48-.06.82-.13,1.01-.19,2.28-.19,3.8s.15,2.53.44,3.17c.29.64.78.97,1.47.97.63,0,1.26-.17,1.9-.49.64-.33,1.09-.65,1.35-.96.17-.2.25-.51.25-.95l.08-6.41c0-.17.06-.31.19-.42.13-.11.27-.17.44-.17s.31.06.44.17c.13.11.19.25.19.42v9.26c0,.17-.07.32-.21.45-.14.13-.3.2-.48.2-.22,0-.4-.07-.54-.21-.13-.14-.2-.31-.2-.52v-.8c-.31.41-.78.77-1.42,1.1-.64.33-1.31.49-2.03.49-.78,0-1.4-.18-1.86-.53Z"/>
            <path d="M115.67,294.67c-.14-.12-.21-.25-.21-.41v-13.21c0-.18.06-.33.19-.45s.29-.18.48-.18c.17,0,.32.06.45.19.13.13.2.27.2.44v13.21c0,.15-.07.29-.2.41-.13.12-.28.18-.45.18s-.32-.06-.46-.18Z"/>
            <path d="M121.1,294.64c-.14-.13-.21-.29-.21-.47l.13-9.11c0-.18.07-.34.21-.48.14-.14.3-.21.48-.21s.34.07.47.2c.13.13.2.3.2.49l-.13,9.11c0,.18-.07.34-.2.47-.13.13-.29.2-.47.2s-.34-.07-.48-.2ZM121.25,282.52c-.13-.13-.19-.28-.19-.46l.02-.86c0-.17.07-.32.21-.44.14-.13.29-.19.46-.19s.31.07.44.2.19.28.19.45l-.02.86c0,.18-.07.33-.2.45-.13.12-.28.18-.45.18-.18,0-.34-.06-.46-.19Z"/>
            <path d="M126.71,294.67c-.14-.12-.21-.25-.21-.41v-13.21c0-.18.06-.33.19-.45s.29-.18.48-.18c.17,0,.32.06.45.19.13.13.2.27.2.44v13.21c0,.15-.07.29-.2.41-.13.12-.28.18-.45.18s-.32-.06-.46-.18Z"/>
            <path d="M132.15,294.67c-.14-.12-.21-.25-.21-.41v-13.21c0-.18.06-.33.19-.45s.29-.18.48-.18c.17,0,.32.06.45.19.13.13.2.27.2.44v13.21c0,.15-.07.29-.2.41-.13.12-.28.18-.45.18s-.32-.06-.46-.18Z"/>
            <path d="M143.8,294.81c-.11-.13-.17-.3-.17-.49v-.59c-.38.34-.83.61-1.37.81-.53.2-1.06.3-1.6.3-.76,0-1.44-.19-2.04-.57s-1.07-.91-1.42-1.61c-.34-.69-.51-1.48-.51-2.36,0-.95.2-1.89.6-2.8s.98-1.67,1.74-2.26c.76-.59,1.66-.88,2.7-.88.64,0,1.21.08,1.7.25.49.17.99.37,1.49.61v9.09c0,.2-.06.36-.19.49s-.28.2-.46.2c-.21,0-.37-.07-.48-.2ZM142.31,293.22c.55-.26.97-.54,1.26-.83l.08-6.36c-.22-.1-.51-.19-.87-.28-.36-.09-.69-.14-1-.14-.69,0-1.32.2-1.89.61-.57.41-1.03.96-1.35,1.67-.33.71-.49,1.5-.49,2.38,0,1.02.24,1.83.73,2.44.49.6,1.12.9,1.89.9.55,0,1.09-.13,1.64-.39Z"/>
            <path d="M149.25,294.67c-.13-.13-.2-.28-.2-.45v-13.12c0-.18.07-.34.2-.47.13-.13.29-.2.47-.2.2,0,.35.07.47.2.12.13.18.29.18.47v6.45c.42-.87,1-1.62,1.75-2.27.75-.64,1.52-.97,2.3-.97,1.04,0,1.76.57,2.18,1.72.42,1.15.63,2.95.63,5.4,0,1.39-.02,2.32-.06,2.79-.01.18-.08.33-.19.45-.11.12-.26.18-.44.18-.17,0-.32-.06-.45-.19-.13-.13-.2-.27-.2-.44,0-.21,0-.41.02-.59l.02-2.06c0-2.37-.15-3.95-.46-4.76-.31-.8-.69-1.21-1.15-1.21-.52,0-1.03.21-1.53.64-.5.43-.94.9-1.31,1.43-.37.52-.63.96-.79,1.29-.21.42-.31,1.02-.31,1.81v3.4c0,.21-.06.38-.19.5s-.28.19-.46.19-.34-.07-.47-.2Z"/>
            <path d="M160.44,294.59c-.14-.17-.21-.37-.21-.61,0-.27.09-.5.27-.7.18-.2.39-.3.63-.3.21,0,.39.08.54.24s.22.35.22.58c0,.29-.09.54-.27.75-.18.2-.39.3-.63.3-.22,0-.41-.08-.55-.25Z"/>
          </g>
        </g>
      </g>
    </g>
  </g>
</svg>