<?xml version="1.0" encoding="UTF-8"?>
<svg xmlns="http://www.w3.org/2000/svg" xmlns:xlink="http://www.w3.org/1999/xlink" viewBox="0 0 387.45 373.27">
  <defs>
    <style>
      .cls-1, .cls-2, .cls-3, .cls-4, .cls-5, .cls-6, .cls-7 {
        fill-rule: evenodd;
      }

      .cls-1, .cls-8 {
        stroke: #281c13;
      }

      .cls-1, .cls-8, .cls-9, .cls-10, .cls-11, .cls-12 {
        stroke-linecap: round;
        stroke-linejoin: round;
      }

      .cls-1, .cls-8, .cls-9, .cls-12 {
        stroke-width: .8px;
      }

      .cls-1, .cls-8, .cls-13, .cls-12 {
        fill: none;
      }

      .cls-14, .cls-15, .cls-16, .cls-17 {
        mix-blend-mode: multiply;
      }

      .cls-14, .cls-18 {
        fill: #545ea8;
      }

      .cls-19 {
        fill: #f7aa93;
      }

      .cls-20 {
        fill: #ec9221;
      }

      .cls-21 {
        fill: #ff6d3a;
      }

      .cls-22 {
        fill: #2faada;
      }

      .cls-2 {
        fill: url(#radial-gradient-9);
      }

      .cls-3, .cls-23 {
        fill: #ea7c69;
      }

      .cls-24 {
        fill: #6d2e1d;
      }

      .cls-25 {
        fill: #c6d6d4;
      }

      .cls-26 {
        fill: #e29f7a;
      }

      .cls-27 {
        fill: #fff;
      }

      .cls-28 {
        fill: #281c13;
      }

      .cls-9 {
        fill: #7b2d18;
      }

      .cls-9, .cls-10 {
        stroke: #27190f;
      }

      .cls-29 {
        fill: #e2a07a;
      }

      .cls-30 {
        fill: #f9be49;
      }

      .cls-15 {
        opacity: .5;
      }

      .cls-15, .cls-31 {
        fill: #009147;
      }

      .cls-32 {
        fill: #b0bfbd;
      }

      .cls-33 {
        fill: url(#radial-gradient);
      }

      .cls-34 {
        fill: url(#radial-gradient-3);
      }

      .cls-35 {
        fill: #291610;
      }

      .cls-36 {
        isolation: isolate;
      }

      .cls-10 {
        stroke-width: 1.1px;
      }

      .cls-10, .cls-37, .cls-16 {
        fill: #545da8;
      }

      .cls-38 {
        fill: #f9f2f7;
      }

      .cls-11 {
        stroke: #000;
        stroke-width: 1.03px;
      }

      .cls-11, .cls-17, .cls-39 {
        fill: #455b4c;
      }

      .cls-40 {
        fill: url(#radial-gradient-2);
      }

      .cls-4 {
        fill: url(#radial-gradient-8);
      }

      .cls-41 {
        fill: #9acb4e;
      }

      .cls-42 {
        fill: url(#radial-gradient-4);
      }

      .cls-16 {
        opacity: .7;
      }

      .cls-17 {
        opacity: .4;
      }

      .cls-5 {
        fill: url(#radial-gradient-7);
      }

      .cls-43 {
        fill: #0188a8;
      }

      .cls-44 {
        fill: #271910;
      }

      .cls-45 {
        fill: #ffe649;
      }

      .cls-46 {
        fill: #d05546;
      }

      .cls-47 {
        fill: #fccfa3;
      }

      .cls-48 {
        fill: #f5b119;
      }

      .cls-49 {
        fill: #a53f23;
      }

      .cls-12 {
        stroke: #281b12;
      }

      .cls-50 {
        opacity: .1;
      }

      .cls-51 {
        fill: #edf6f9;
      }

      .cls-52 {
        clip-path: url(#clippath);
      }

      .cls-6 {
        fill: url(#radial-gradient-6);
      }

      .cls-7 {
        fill: url(#radial-gradient-5);
      }
    </style>
    <clipPath id="clippath">
      <rect class="cls-13" y="39.08" width="387.45" height="310" rx="20" ry="20"/>
    </clipPath>
    <radialGradient id="radial-gradient" cx="3889.4" cy="8915.93" fx="3889.4" fy="8915.93" r="8.15" gradientTransform="translate(7777.66 -5884.32) rotate(74.15)" gradientUnits="userSpaceOnUse">
      <stop offset="0" stop-color="#eeb28c"/>
      <stop offset="1" stop-color="#ecbc8a"/>
    </radialGradient>
    <radialGradient id="radial-gradient-2" cx="24016.78" cy="232.35" fx="24016.78" fy="232.35" r="40.79" gradientTransform="translate(24337.22) rotate(-180) scale(1 -1)" xlink:href="#radial-gradient"/>
    <radialGradient id="radial-gradient-3" cx="12068.44" cy="10234.45" fx="12068.44" fy="10234.45" r="6.42" gradientTransform="translate(10779.32 12158.61) rotate(-91.13) scale(1 -1)" xlink:href="#radial-gradient"/>
    <radialGradient id="radial-gradient-4" cx="8973.76" cy="3149.19" fx="8973.76" fy="3149.19" r="43.16" gradientTransform="translate(-9298.68 390.47) rotate(-20.44)" gradientUnits="userSpaceOnUse">
      <stop offset="0" stop-color="#efb38d"/>
      <stop offset="1" stop-color="#eebe8c"/>
    </radialGradient>
    <radialGradient id="radial-gradient-5" cx="1944.37" cy="-2681.3" fx="1944.37" fy="-2681.3" r="3.87" gradientTransform="translate(1262.55 -2864.94) rotate(53.58) scale(1 -1)" xlink:href="#radial-gradient"/>
    <radialGradient id="radial-gradient-6" cx="1941.33" cy="-2679.46" fx="1941.33" fy="-2679.46" r="4.59" gradientTransform="translate(1262.55 -2864.94) rotate(53.58) scale(1 -1)" xlink:href="#radial-gradient"/>
    <radialGradient id="radial-gradient-7" cx="1938.26" cy="-2676.71" fx="1938.26" fy="-2676.71" r="4.15" gradientTransform="translate(1262.55 -2864.94) rotate(53.58) scale(1 -1)" xlink:href="#radial-gradient"/>
    <radialGradient id="radial-gradient-8" cx="1934.19" cy="-2677.35" fx="1934.19" fy="-2677.35" r="4.77" gradientTransform="translate(1262.55 -2864.94) rotate(53.58) scale(1 -1)" xlink:href="#radial-gradient"/>
    <radialGradient id="radial-gradient-9" cx="1936.32" cy="-2685.15" fx="1936.32" fy="-2685.15" r="8.1" gradientTransform="translate(1262.55 -2864.94) rotate(53.58) scale(1 -1)" xlink:href="#radial-gradient"/>
  </defs>
  <g class="cls-36">
    <g id="Layer_2" data-name="Layer 2">
      <g id="Layer_1-2" data-name="Layer 1">
        <g>
          <rect class="cls-41" y="39.08" width="371.45" height="310" rx="20" ry="20"/>
          <g>
            <circle class="cls-41" cx="118.48" cy="39.08" r="39.08"/>
            <path class="cls-27" d="M117.98,18.67l11.02,3.42-16.83,15.84h4.59l.14-2.61h10.35l-.45,2.65,4-.72-.63,10.44-4,.04-.5,8.23-11.48.5.81-8.64-11.16.85-.95-14.98,15.08-15.03Z"/>
          </g>
          <g class="cls-52">
            <g>
              <g>
                <g>
                  <g>
                    <path class="cls-33" d="M268.8,286.36s-5.31-4.24-6.82-2.63c.16.94.28,1.92,1,3.39-1.75.76-7.02.06-7,1.78.03,2.38,5.87,1.33,6.12,2.22.25.88-6.77.45-6.34,3,.32,1.9,6.58-.04,6.75.76.2.98-5.81.46-5.23,2.48.57,2.01,6.07.3,6.38.86-12.11,2.75,1.78,5.1,8.67-.48,0,0-4.66-2.56-3.52-11.37Z"/>
                    <path class="cls-26" d="M270.65,298.8c.58-.32,1.14-.68,1.67-1.07,0,0-4.66-2.56-3.52-11.37,0,0-.6-.53-1.45-1.17-1.29,4.4.58,10.54,3.3,13.6Z"/>
                    <path class="cls-8" d="M268.8,286.36s-5.31-4.24-6.82-2.63c.16.94.28,1.92,1,3.39-1.75.76-7.02.06-7,1.78.03,2.38,5.87,1.33,6.12,2.22.25.88-6.77.45-6.34,3,.32,1.9,6.58-.04,6.75.76.2.98-5.81.46-5.23,2.48.57,2.01,6.07.3,6.38.86-12.11,2.75,1.78,5.1,8.67-.48,0,0-4.66-2.56-3.52-11.37Z"/>
                  </g>
                  <g>
                    <path class="cls-39" d="M268.3,300.84c1.76.17,19.84,4.72,25.81,1.93,6.69-2.13,12.11-13.54,20.66-27.08,1.78-2.82.94-6.54-1.88-8.32-2.82-1.78-6.54-.94-8.32,1.88-7.78,12.31-13.71,17.69-16.44,18.56-3.37,1.07-8.58-.08-17.41-3.85,0,0-5.81,3.59-2.43,16.87Z"/>
                    <path class="cls-8" d="M268.3,300.84c1.76.17,19.84,4.72,25.81,1.93,6.69-2.13,12.11-13.54,20.66-27.08,1.78-2.82.94-6.54-1.88-8.32-2.82-1.78-6.54-.94-8.32,1.88-7.78,12.31-13.71,17.69-16.44,18.56-3.37,1.07-8.58-.08-17.41-3.85,0,0-5.81,3.59-2.43,16.87Z"/>
                  </g>
                  <path class="cls-47" d="M339.66,308.24s.02,0,.03.01c0,0-.01,0-.03-.01Z"/>
                  <path class="cls-39" d="M352.01,300.06c-.52-8.22,1.09-21.08,1.18-27.56-1.37-2.31-3.97-4.8-7.07-7.09-6.68,5.18-15.82,4.12-23.79,4.22-4.93-.44-5.99-2.11-9.58-5.49-1.02,1.04-1.91,2.14-2.75,3.38-.12,10.88-5.08,72.91-10.25,86.1,2.3,9.43,19.83,15.53,26.86,14.13,5.58.02,9.44,1.05,15.95-1.83,6.56-3.75,11.59-3.46,11.93-7.25-1.58-4.05-2.27-53.62-2.49-58.6Z"/>
                  <path class="cls-17" d="M352.01,300.06s0,0,0,0c-.14-3.32-.09-6.67.07-9.98,0,0,0,0,0,0,.02-.48.05-.96.07-1.43-1.64.2-3.26.25-4.88.19.01.73,0,1.48,0,2.22-12.81-2.8-4.89-11.04-15.12,4.04-8.49-1.76-14.15-3.33-17.49-4.75-1.91,1.28-5.5,8.07-5.9,11.65,12.16,7.91,22.41,11.52,30.19,9.39-2.34,6.33-6.04,5.92-9.15,5.45-3.85-.59-2.38-1.51-3.16-1.83,1.26,5.19,11.85,5.56,13.12-3.93,2.59-1.01,4.89-3.3,7.04-5.49-.34,4.47-1.7,57.1-5.71,60.72,1.02-.22,1.97-.56,2.87-1.07,7.75-4.14,9.5-2.44,10.54-6.57-1.57-4.05-2.27-53.61-2.49-58.6Z"/>
                  <path class="cls-12" d="M352.01,300.06c-.52-8.22,1.09-21.08,1.18-27.56-1.37-2.31-3.97-4.8-7.07-7.09-6.68,5.18-15.82,4.12-23.79,4.22-4.93-.44-5.99-2.11-9.58-5.49-1.02,1.04-1.91,2.14-2.75,3.38-.12,10.88-5.08,72.91-10.25,86.1,2.3,9.43,19.83,15.53,26.86,14.13,5.58.02,9.44,1.05,15.95-1.83,6.56-3.75,11.59-3.46,11.93-7.25-1.58-4.05-2.27-53.62-2.49-58.6Z"/>
                  <g>
                    <g>
                      <path class="cls-40" d="M309.8,257.34c18.52,8.64,46.9-4.07,47.19-10.26,13.62,7.56,25.66-15.72,12.14-19.62,4.41-61.39-77.36-60.34-75.48-10.02.78,8.48-1.81,10.11-2.06,19.28-.22,8.13,7.67,16.44,18.21,20.62Z"/>
                      <path class="cls-26" d="M309.8,257.34c.29.11.57.22.86.33-26.31-14.55-13.04-27.08-15.37-45.96,0-21.55,27.48-29.77,27.48-29.77,0,0-.18-.08-.53-.21-12.5,2.86-30.76,11.85-28.59,35.71.77,8.48-1.81,10.11-2.07,19.28-.22,8.13,7.67,16.44,18.21,20.62Z"/>
                      <path class="cls-26" d="M309.81,257.34c18.53,8.64,46.89-4.07,47.19-10.26,2.1.88,4.05,1.27,5.82,1.29,7.02-7.12,8.49-9.41,8.7-19.96-.69-.43-1.48-.75-2.38-.95-.99-41.14-23.09-49.75-46.5-45.82.08.19.14.29.14.29,18.81,3.21,37.7,20.84,31.11,54.86-4.79,25.22-43.64,20.62-44.08,20.55Z"/>
                      <path class="cls-11" d="M354.02,203.03s-35.02-27.57-56.67-4.35c15.08-27.34,48.99-16.86,56.67,4.35Z"/>
                      <path class="cls-8" d="M291.6,236.72c2.72,30.49,58.54,27.15,65.4,10.37,16.9,7.06,23.89-17.08,12.15-19.62,5.17-59.33-76.33-62.24-75.48-10.02.78,8.48-1.81,10.11-2.06,19.28Z"/>
                    </g>
                    <g>
                      <path class="cls-31" d="M290.44,211.93c5.67,20.59-6.04,23.18,7.88,38.25-11.71-9.68-3.87-21.13-4.64-32.74-.37-4.04-.15-7.65.52-10.88,8.74-30.63,51.63-37.39,62.89,6.97,3.75,16.63,1.31,32.65-11.43,42.69h0c-2.76,1.21-6.12,2.25-10.15,2.96-6.81,1.2-16.06,1.55-23.1-.92,1.61.68,1.73,1.29,4.34,2.41.85.36.34.74-.6,1.34-1.38.53-10.42.29-6.63,3.77.82,1.08-3.66.51.26,4.11,2.66,2.48,9.84,13.36,17.97,9.37,9.88-3.99,22-12.89,27.92-3.48-.26-.65-2.14-7.62-4.86-8.69.23-.41-1.49-4.06-3.73-4.25,22.74-8,42.56-19.04,38.07-66.58-8.82-45.18-54.12-48.68-82.53-26-9.84,9.98-10.66,20.63-10.67,22.04,0,0-4.1,9.46-1.5,19.61Z"/>
                      <path class="cls-15" d="M308.66,266.71c2.96-.03,11.83,3.62,12.52,5.49-1.93-4.5-10.59-6.32-12.38-7.13.71.98,1.6.89-.14,1.64Z"/>
                      <path class="cls-15" d="M341.28,269.46c-.25.19-.08.73.19.59,3.26-1.72,10.06-3.09,12.6,2.67.78,1.77,2.11,1.25,2.7,2.94,0,0-1.11.14-1.11.14-.19-.65-2.28-7.83-4.86-8.69-.12-1.76-2.92-5.08-5.57-4.21.72-.13,5.27,1.79,2.38,3.54-1.68.24-3.53.9-6.33,3.03Z"/>
                      <path class="cls-15" d="M341.16,273.24c0-.65-8.69,1.53-13.22,4.07s-8.16-.71-10.14-4.59c1.91,6.19,4.48,9.54,13.5,4.45,3.85-1.9,9.86-3.93,9.86-3.93Z"/>
                      <path class="cls-15" d="M316.14,262.02c.49.11.78.17.78.17,2.38-1.6,12.89.96,22.61-1.5,10.99-1.25,25.95-15.67,25.55-33.8-7.84,25.71-23.16,38.53-52.68,31.39,1.61.68,1.73,1.29,4.34,2.41.86.36.34.75-.6,1.34Z"/>
                      <path class="cls-15" d="M289.2,206.36c1.31,8.58,3.13,16.94,2.78,25.69,0,0,.02,0,.02.01,5.46-17.83-4.73-30.24,4.56-45.87-.07-.1-.15-.2-.23-.29-5.62,5.21-7.82,12.95-7.13,20.46Z"/>
                      <path class="cls-15" d="M336.57,267.06c-1.39,1.26-1.26,2.05-.78,1.68,3.82-2.89,7.5-4.78,11.13-5.29,13.93-4.05,36.49-18.02,38.14-41.64-2.73,10.09-12.86,30.71-42.55,39.04-.42,1.01,4.54-1.54,6.24-.8,3,1.28-9.15,2.7-12.18,7.01Z"/>
                      <path class="cls-8" d="M290.44,211.93c5.68,20.59-6.04,23.18,7.88,38.25-11.69-9.68-3.88-21.13-4.64-32.74-2.97-17.78,12.37-32.37,26-35.05,29.24-7.92,56.27,49.04,25.98,73.83h0c-9.49,3.94-22.75,5.41-33.26,2.05,1.61.68,1.73,1.29,4.34,2.41.86.36.34.75-.6,1.34-1.38.54-10.46.28-6.63,3.78,1.33.87-3.82.3.26,4.11,2.66,2.47,9.84,13.36,17.97,9.37,9.88-3.98,22.01-12.89,27.92-3.48-.27-.65-2.14-7.62-4.86-8.69-.02-1.41-1.92-4.2-3.85-4.21,22.39-7.72,42.89-19.17,38.19-66.62-8.81-45.18-54.12-48.68-82.53-26-9.84,9.98-10.66,20.64-10.68,22.05,0,0-4.09,9.46-1.5,19.61Z"/>
                      <path class="cls-15" d="M294.2,206.55c15.82-44.94,70.38-23.35,64.09,27.08,9.46-11.65,3.88-59.71-31.05-55.98-7.06.38-28.66,3.14-33.05,28.9Z"/>
                      <path class="cls-15" d="M296.37,179.25c1.04-2.83,15.9-7.99,6.54-3.04-5.81,3.47-8.95,8.87-9.88,15.04-2.65.79-.04-8.74,3.34-12Z"/>
                      <path class="cls-44" d="M291.43,192.47c1.24-2,2.62-3.91,4.18-5.65-1.35,1.91-2.49,3.94-3.48,6.03l-.7-.38h0Z"/>
                      <path class="cls-15" d="M380.79,200.16c.41-5.97-15.77-28.28-6.54-11.07,5.35,11.24,6.16,23.73,3.69,35.74-.18.86,1.06,1.2,1.36.38,1.84-5.02,3.83-13.29,1.5-25.06Z"/>
                      <path class="cls-15" d="M336.83,264.67c-.31-1.54-8.48,3.49-10.11,4.33-3.17,1.87-3.43-4.86-8.01-4.68-.81.6,1.58,1.27,2.2,2.58,5.23,11.79,3.59,3.6,15.92-2.23Z"/>
                      <path class="cls-15" d="M341.72,162.09c-10.94-5.04-35.38,12.36-17.05,3.6,10.77-4.58,24.21-1.29,32.09,7.65,4.35.16-10.24-11.22-15.04-11.25Z"/>
                      <path class="cls-15" d="M357.68,254.92c14.31-10.76,19.55-33.32,9.17-59.99-.57-1.24,1.36-2.19,1.99-.96,2.57,4.8,14.32,28.59.58,54.15,0,0-5.68,7.89-11.73,6.8Z"/>
                    </g>
                  </g>
                </g>
                <g>
                  <g>
                    <path class="cls-34" d="M313.74,291.46s-.51-.77-1.47-1.91c-.99-1.16-2.65-1.8-2.97-1.37-.4,1.19-.12,2.36-.79,2.71-2.55.28-4.64-2.05-5.28-.51-.67,1.6,4.37,2.88,4.4,3.43.03.55-4.83-1.76-5.36-.35-.65,1.71,4.56,2.74,4.52,3.22-.04.43-4.09-1.13-4.43.09-.4,1.43,3.87,1.95,3.9,2.46.03.5-3.59-1.21-3.6.25-.01,1.17,5.69,3.33,10.05,2.31,0,0-2.28-3.51,1.04-10.31Z"/>
                    <path class="cls-8" d="M313.74,291.46s-.51-.77-1.47-1.91c-.99-1.16-2.65-1.8-2.97-1.37-.4,1.19-.12,2.36-.79,2.71-2.55.28-4.64-2.05-5.28-.51-.67,1.6,4.37,2.88,4.4,3.43.03.55-4.83-1.76-5.36-.35-.65,1.71,4.56,2.74,4.52,3.22-.04.43-4.09-1.13-4.43.09-.4,1.43,3.87,1.95,3.9,2.46.03.5-3.59-1.21-3.6.25-.01,1.17,5.69,3.33,10.05,2.31,0,0-2.28-3.51,1.04-10.31Z"/>
                  </g>
                  <path class="cls-39" d="M308.73,301.47c14.43,8.98,24.11,9.19,27.09,8.93,2.35-.2,5.12-1.82,7.32-4.09,0,0,0,0,0,0,3.32-3.15,11.48-11.16,14.16-14.46,1.29-1.58,1.46-6.83,1.21-8.88-.24-1.92-1.3-8.24-5.33-10.48-3.06.03-10.47,5.81-11.21,6.88-2.93,4.29-8.13,12.98-10.29,16.32-4.9-.86-11.04-2.19-17.73-5.08-.89.81-3.3,7-5.23,10.85Z"/>
                  <path class="cls-12" d="M341.9,279.34c-2.93,4.29-8.13,12.98-10.29,16.32-4.9-.86-11.04-2.19-17.73-5.08-.89.81-3.3,7-5.23,10.85,14.43,8.98,24.11,9.19,27.09,8.93,2.35-.2,5.12-1.82,7.32-4.09,0,0,0,0,0,0,3.32-3.15,11.48-11.16,14.16-14.46,1.29-1.58,1.46-6.83,1.21-8.88-.24-1.92-1.3-8.24-5.33-10.48"/>
                  <path class="cls-16" d="M331.24,296.25s3.07.56,4.4,3.66c0,0,.78-4.57-4.4-3.66Z"/>
                </g>
                <g>
                  <g>
                    <path class="cls-24" d="M312.36,246.86c.78.85,1.52,1.6,2.27,2.24,2.06,1.74,4.16,2.62,7.14,2.4,1.51-.11,2.95-.55,4.28-1.3,1.49-.84,2.77-2.09,3.75-3.36.4-.51.74-1.03,1.04-1.53.02-.04,2.38-3.98,1.49-5.03-.37-.43-.75-.34-.94-.29-.63.18-1.41.46-2.47.81-.64.21-1.36.44-2.11.65-3.26.89-6.41,1.44-9.64,1.68-1.43.11-2.94.16-4.61.15-.4,0-.71,0-.97.03-.39.03-1.02.04-1.19.47-.17.41.42,1.42,1.95,3.09Z"/>
                    <path class="cls-46" d="M314.63,249s0,.03,0,.09c2.06,1.74,4.16,2.62,7.14,2.4,1.51-.11,2.95-.55,4.28-1.3,1.49-.84,2.77-2.09,3.75-3.36-1.31-1.12-5.07-1.43-6.59-1.01-2.18.59-8.95,2.88-8.59,3.19Z"/>
                  </g>
                  <g>
                    <path class="cls-35" d="M313.31,203.98c1.85-1.4-3.32-5.22-7.57-3.84-4.25,1.37-4.45,4.67-4.4,4.99s2.45-2.37,5.2-2.42c5.59-.09,5.04,2.57,6.76,1.27Z"/>
                    <path class="cls-35" d="M330.83,205.37c-.45-1.96,4.49-3.48,10.39-1.39,5,1.78,6.74,7.25,6.57,7.54s-3.35-3.67-7.12-4.66c-5.65-1.49-9.34.64-9.83-1.5Z"/>
                    <path class="cls-38" d="M306.05,211.09c-9.15-.89-9,17.77-2.65,19.88,6.47,2.15,9.17-3.69,9.01-8.57-.19-6.13-2.55-10.93-6.37-11.31Z"/>
                    <g>
                      <ellipse class="cls-35" cx="303.07" cy="221.38" rx="7.61" ry="4.45" transform="translate(60.71 507.95) rotate(-85.93)"/>
                      <ellipse class="cls-27" cx="305.89" cy="219.32" rx="1.3" ry=".84" transform="translate(65.39 508.85) rotate(-85.93)"/>
                    </g>
                    <g>
                      <path class="cls-35" d="M302.58,212.83c-1.13.67-1.76,1.95-2.3,3.2-.42.95-.71,2.21-.91,3.31-.04.23-.68.31-.78-.72-.13-1.3-.21-2.22.12-3.37.47-1.69,1.42-3.39,2.8-4.34,5.93-4.06,10.78,5.06,10.98,9.31,0,.16-.26.26-.34-.01-.76-2.67-4.06-10.63-9.57-7.38Z"/>
                      <path class="cls-35" d="M301.2,213.39c-.88.59-2.51-.21-3.09-1.2,1,.34,2.1.95,2.97.1.16-.15.46.71.64.77l-.52.32Z"/>
                      <path class="cls-35" d="M300.49,214.32c-.65.93-2.48.77-3.15-.61,1.78.84,2.61.15,3.03-.34.14-.17.33.45.5.43l-.39.52Z"/>
                    </g>
                    <path class="cls-26" d="M314.31,232.74s.31,3.35,2.73,3.37c.44,0,.59-.47,1.09-.56.51-.09,1.1.09,1.24.83.22,1.22-2.47,2.28-4.78.27-1.6-1.39-.81-3.24-.28-3.9Z"/>
                    <path class="cls-35" d="M312.3,233.55c-.48,2,1.45,3.85,3.8,4.25.16.03.32.05.48.06.37.03.54-.39.21-.5-1.55-.55-2.63-1.69-2.81-3.08-.21-1.25.68-2.25,2.01-2.96.87-.47,1.81-.68,2.84-.81.31-.04.36-.39.06-.44h-.02c-1.73-.29-5.8.29-6.57,3.48Z"/>
                    <g>
                      <g>
                        <path class="cls-38" d="M338.29,213.71c-10.98-3.96-14.78,14.91-7.22,19.24,6.13,3.51,11.53-1.06,12.52-5.87,1.24-6.04-.55-11.65-5.29-13.36Z"/>
                        <path class="cls-35" d="M339.77,215.36c1.48,1.1,2.27,2.81,2.97,4.51.55,1.34.91,3.05,1.15,4.56.05.32.53.32.56,0,.17-1.57.31-4.06.2-5.69-.15-2.24-.98-4.38-2.8-5.83-6.72-5.34-13.54,3.02-14.33,7.17-.03.16.23.35.34.1,1.14-2.46,5.6-9.51,11.91-4.82Z"/>
                        <path class="cls-35" d="M344.03,219.13c.96,1.29,3.74,1.65,5.11,1-1.69-.39-3.83-1.26-4.68-2.8-.15-.27-.72,1.15-.99,1.08l.56.71Z"/>
                        <path class="cls-35" d="M344.24,220.71c.57,1.5,3.46,2.7,5.12,1.58-3.18-.36-4.15-1.72-4.57-2.56-.14-.28-.66.28-.9.14l.35.84Z"/>
                      </g>
                      <g>
                        <ellipse class="cls-35" cx="331.77" cy="224.08" rx="7.89" ry="4.62" transform="translate(84.68 539.09) rotate(-85.93)"/>
                        <ellipse class="cls-27" cx="334.69" cy="221.94" rx="1.35" ry=".87" transform="translate(89.53 540.01) rotate(-85.93)"/>
                      </g>
                    </g>
                  </g>
                </g>
              </g>
              <g>
                <g>
                  <path class="cls-37" d="M235.96,269.03c-.15,5.55-.02,22.88-.9,25.62,4.18.18,11.82-4.09,11.97-4.69-1.85-6.33-6.82-26.66-7.84-27.84-3.46-.09-3.08,1.37-3.23,6.92Z"/>
                  <path class="cls-12" d="M235.96,269.03c-.15,5.55-.02,22.88-.9,25.62,4.18.18,11.82-4.09,11.97-4.69-1.85-6.33-6.82-26.66-7.84-27.84-3.46-.09-3.08,1.37-3.23,6.92Z"/>
                  <path class="cls-37" d="M269.5,296.34c-18.55,13.45-27.28,14.55-32.78,13.47-.04,0-.08-.02-.12-.03-2.92-.64-7.11-4.09-9.27-7.57-1.56-2.51-2.7-5.8-3.09-9.95,1.73-.19,5.58.75,6.39.56,6.24-1.49,22.83-2.92,31.17-9.51.41.3,2,2.82,3.64,5.6,0,0,.03.04.07.12,1.73,2.92,3.49,6.1,3.99,7.31Z"/>
                  <path class="cls-16" d="M269.5,296.34c-18.55,13.45-27.28,14.55-32.78,13.47-.04,0-.08-.02-.12-.03-.17-.58-.29-1.07-.29-1.07,0,0,4.2-.25,8.77-1.28,4.58-1.02,20.34-9.27,21.55-11.81,1.08-2.28-.75-5.9-1.13-6.6,1.73,2.92,3.49,6.1,3.99,7.31Z"/>
                  <path class="cls-12" d="M269.5,296.34c-1.01-2.37-6.85-12.4-7.7-13.03-8.34,6.59-24.93,8.03-31.18,9.51-.8.19-4.65-.74-6.38-.56.39,4.14,1.53,7.44,3.09,9.95,2.19,3.54,6.47,7.02,9.39,7.6,5.5,1.08,14.24-.03,32.79-13.48Z"/>
                  <path class="cls-50" d="M171.51,354.48c-1.9,3,12.29,5.72,14.45,6.8,13.75,6.87,31.56,10.9,37.93,11.7,11.27,1.42,14.17-2.63,21.86-5.46,7.35-2.71,12.48-3.04,14.77-6,2.48-3.21-16.25-3.69-26.86-3.69-9.44,0-44.55-7.88-53.9-6.79-1.17.14-7.01,1.53-8.24,3.46Z"/>
                  <g>
                    <path class="cls-32" d="M172.51,350.77c-.46,1.9,1.04,4.47,3.92,5.16,2.88.69,8.03-1.59,8.49-3.48.46-1.9-1.56-2.7-4.44-3.39-2.88-.69-7.51-.19-7.97,1.71Z"/>
                    <path class="cls-12" d="M172.51,350.77c-.46,1.9,1.04,4.47,3.92,5.16,2.88.69,8.03-1.59,8.49-3.48.46-1.9-1.56-2.7-4.44-3.39-2.88-.69-7.51-.19-7.97,1.71Z"/>
                    <path class="cls-25" d="M176.42,356.02c1.11.55,13.87,3.01,16.88,4.43-.2-2.39,17.76-10.34,16.97-13.91-1.61-3.56-13.97-3.71-19.3-5.59,0,0-8.03-2.29-15.75,7.72-1.88,2.44-.81,6.35,1.2,7.35Z"/>
                    <path class="cls-12" d="M176.42,356.02c1.11.55,13.87,3.01,16.88,4.43-.2-2.39,17.76-10.34,16.97-13.91-1.61-3.56-13.97-3.71-19.3-5.59,0,0-8.03-2.29-15.75,7.72-1.88,2.44-.81,6.35,1.2,7.35Z"/>
                    <path class="cls-37" d="M194.46,343.94c-.29-.17-5.75,3.56-6,16.66,6.81,3.17,28.93,9.22,35.6,10.66.43-1.03,3.68-15.51,3.68-15.51-4.47-2.57-31.11-10.57-33.28-11.82Z"/>
                    <path class="cls-12" d="M194.46,343.94c-.29-.17-5.75,3.56-6,16.66,6.81,3.17,28.93,9.22,35.6,10.66.43-1.03,3.68-15.51,3.68-15.51-4.47-2.57-31.11-10.57-33.28-11.82Z"/>
                    <path class="cls-16" d="M222.72,370.88c-3.77-.75-29.75-12.38-33.92-15.58.32-2.03.77-4.23,2.83-7.29,3.44.2,27.06,9.1,31.89,10.34.58,3.08-.38,11.12-.8,12.52Z"/>
                  </g>
                  <g>
                    <path class="cls-37" d="M261.48,353.99c-.14.66-.32,1.32-.52,1.95-.76,2.37-1.86,4.4-3.03,5.31-5.15,3.99-12.85,3.44-19.74,7.62t-.02,0c-.63-.18-1.74-.74-3.15-1.55h0c-1.36-.79-3.01-1.81-4.81-2.97-7.18-4.59-16.57-11.17-18.63-12.46-3.07-1.92-7.24-10.92-10.25-19.7-1.4-4.1-2.55-8.15-3.21-11.4-.4-1.95-.62-3.61-.62-4.83,5.75.67,28.77-.47,32.76,1.28,2.39,1.93,4.8,3.77,7.18,5.57,7.49,5.68,14.73,10.98,20.57,17.33,1.62,1.77,3.51,5.97,3.8,7.55.35,1.84.18,4.13-.32,6.31Z"/>
                    <path class="cls-12" d="M230.25,317.23c9.92,7.98,20.06,14.53,27.75,22.9,1.62,1.77,3.51,5.96,3.8,7.54.83,4.51-1.38,11.63-3.88,13.56-5.16,3.99-12.86,3.44-19.74,7.63-3.69-1.05-23.5-15.03-26.61-16.98-5.37-3.35-14.08-28.34-14.07-35.93,5.76.66,28.77-.47,32.76,1.28Z"/>
                    <path class="cls-37" d="M241.59,362.91c-.16,1.98-.64,3.62-1.52,4.45-.58.54-1.21,1.04-1.9,1.49-3.35,2.2-8.06,3.31-14.06,2.5-4.2-1.21-27.38-13.69-30.83-15.86-5.36-3.37-11.42-10.44-13.13-14.94-1.4-3.7-2.16-10.14-.95-19.83v-.03c.03-.19.05-.4.08-.59.44.05.96.1,1.56.14h.05c4.03.3,11.16.41,17.23.52,4.54.07,8.48.14,10.09.25.13,0,2.61,3.12,2.71,3.21,2.9,2.66,5.63,4.87,8.27,6.94,5.96,4.68,11.47,8.63,17.58,15.29,1.81,1.97,2.92,4.45,3.41,5.86.33.95.62,1.99.85,3.08.53,2.5.76,5.23.57,7.51Z"/>
                    <path class="cls-12" d="M240.07,367.36c-3.36,3.15-8.72,4.97-15.96,4-4.2-1.21-27.38-13.7-30.82-15.86-5.36-3.37-11.42-10.44-13.13-14.93-1.44-3.78-2.19-10.41-.87-20.44,5.69.67,24.81.61,28.93.91.12,0,2.62,3.13,2.71,3.21"/>
                  </g>
                  <path class="cls-37" d="M237.43,322.8s-.03.04-.04.07c-1.93.8-6.52,5.52-15.32,7.67-.91.22-1.87.44-2.88.64-4.97,1.02-11,1.71-17.86,1-5.73-.59-12.04-2.15-18.81-5.3-.39-.19-.78-.37-1.18-.57-.8-.39-1.6-.8-2.41-1.24.1-1.41.19-2.87.28-4.34v-.03c.29-4.89.53-10.08.77-15.38,0-.03,0-.05,0-.08v-.05c.06-1.35.12-2.72.18-4.08.41-8.94.85-18.1,1.55-26.66.52-6.39,2.89-11.87,4.66-16.17,5.65-3.07,19.77-7.91,34.71-5.86,13.13,1.8,18.46,8.51,18.47,10.91.06,24.49-4.98,41.43-3.44,55.67.11.96,3.56.52,1.31,3.79Z"/>
                  <path class="cls-16" d="M260.95,355.93c-.76,2.37-1.86,4.4-3.03,5.31-5.15,3.99-12.85,3.44-19.74,7.62t-.02,0c-3.35,2.2-8.06,3.31-14.06,2.5-4.2-1.21-27.38-13.69-30.83-15.86-5.36-3.37-11.42-10.44-13.13-14.94-1.4-3.7-2.16-10.14-.95-19.83v-.03c.36-6.18.66-12.82.96-19.59h0s.14,9.77.72,19.14c.13,2.07.27,4.13.45,6.05.37,4.21.87,7.79,1.51,9.61,2.25,6.42,12.5,18.22,28.64,26.16,11.87,5.85,19.38,6.03,23.52,5.21,0,0,0,0,0,0,1.49-.3,2.54-.74,3.21-1.07,1.51-.79,2.68-2.26,3.37-3.32.47-.69.71-1.2.71-1.2,0,0-1.02-7.81-.64-5.99.38,1.83,1.43,6.32,4.34,6.37,2.9.05,11.32-2.2,11.93-2.89.28-.33,1.64-1.79,3.02-3.27Z"/>
                  <path class="cls-12" d="M178.92,325.08c1.06-15.2,1.43-34.03,2.78-50.62.52-6.39,2.9-11.87,4.66-16.17,5.66-3.08,19.77-7.91,34.71-5.86,13.13,1.8,18.46,8.51,18.47,10.9.07,24.49-4.97,41.43-3.43,55.67.1.96,3.61.51,1.27,3.86"/>
                  <g>
                    <path class="cls-16" d="M225.78,318.62c-1.11.44.98,1.77-4.5,2.6-4.41.67-9.68,1.25-13.01-7.75,1.69.57,3.42.88,5.23,1.02,6.13.47,24.09-4.43,37.71-14.38-.56-5.1-5.67-14.75-8.4-16.56-4.74,2.02-12.79,4.24-24.87,6.76l-8.18-12.25c-1-1.5-4.59,3.36-9.1,5.68-5.89,3.02-16.29-3.01-19.04-3.59-.24,1.76-.51,6.19-.65,7.34,4.19,4.82,13.96,15.98,20.07,21.57,2.06,1.88,4.05,3.15,6.07,3.99.95,4.17,2.93,8.73,7.05,10.21,8.2,2.96,12.73-5.07,11.62-4.63Z"/>
                    <path class="cls-37" d="M250.09,299.8c-20.53,12.77-34.3,13.07-38.54,12.71-3.34-.29-7.28-2.59-10.42-5.82,0,0,0,0,0,0-4.73-4.49-16.33-15.88-20.15-20.57-1.84-2.25-2.08-9.72-1.71-12.63.34-2.73,1.84-11.72,7.59-14.9,4.35.04,14.9,8.27,15.94,9.79,4.17,6.1,11.56,18.46,14.63,23.22,6.96-1.22,15.7-3.12,25.22-7.23,1.26,1.15,4.69,9.96,7.44,15.43Z"/>
                    <path class="cls-12" d="M202.9,268.31c4.17,6.1,11.56,18.46,14.63,23.22,6.96-1.22,15.7-3.12,25.22-7.23,1.26,1.15,4.69,9.96,7.44,15.43-20.53,12.77-34.3,13.07-38.54,12.71-3.34-.29-7.28-2.59-10.42-5.82,0,0,0,0,0,0-4.73-4.49-16.33-15.88-20.15-20.57-1.84-2.25-2.08-9.72-1.71-12.63.34-2.73,1.84-11.72,7.59-14.9"/>
                    <path class="cls-16" d="M218.07,292.37s-4.36.8-6.26,5.21c0,0-1.11-6.5,6.26-5.21Z"/>
                  </g>
                  <g>
                    <path class="cls-16" d="M230.26,257.52s-.52,1.92-2.43,6c-1.92,4.08-4.58,8.7-19.26,1.14-14.68-7.56-25.94-2.88-25.94-2.88,2.4-5.58,14.32-4.86,22.82-1.99,3.58,1.21,5.66,2.1,12.24,5.2,8.37,3.95,9.62-6.9,12.3-9.47-.03.75.27,2.01.27,2.01Z"/>
                    <g>
                      <g>
                        <path class="cls-42" d="M235.43,242.29h0c-.29.12-.58.24-.87.35,0,0,0,0,0,0-4.23,1.65-8.87,2.64-13.57,2.71-24.7.39-32.92-10.51-33.96-12.79-2.13.93-4.12,1.37-5.93,1.41-11.67.28-16.42-15.62-9.22-20.26.69-.45,1.5-.79,2.42-1-.6-37.79,20.08-48.27,38.06-48.55,1.98-.03,5.1.21,8.73.96.13.03.27.06.4.08,12.82,2.72,31.64,11.62,29.8,36.05-.65,8.68,2.01,10.3,2.42,19.67.36,8.31-7.57,16.92-18.28,21.38Z"/>
                        <path class="cls-29" d="M235.43,242.29h0c-.29.12-.58.24-.87.35,15.15-8.77,18.94-18.81,16.4-27.93-2.54-9.11-1.31-12.3-1.42-19.3-.35-22.02-28.57-29.99-28.57-29.99,0,0,.19-.08.54-.22,12.82,2.72,31.64,11.62,29.8,36.05-.65,8.68,2.01,10.3,2.42,19.67.36,8.31-7.57,16.92-18.28,21.38Z"/>
                        <path class="cls-29" d="M235.43,242.29c-4.46,1.86-9.41,2.99-14.44,3.07-24.7.39-32.92-10.51-33.96-12.79-2.13.93-4.12,1.37-5.93,1.41-3.15-3.02-5.49-5.74-6.63-7.62-1.57-2.6-2.51-7.12-2.59-12.64.69-.45,1.5-.79,2.42-1-.6-37.79,20.08-48.27,38.06-48.55,1.98-.03,5.1.21,8.73.96-.08.19-.13.3-.13.3,0,0-8.87,1.11-17.48,7.87-8.61,6.76-18.91,22.19-13.43,48.71,5.31,25.7,44.94,20.38,45.39,20.29Z"/>
                        <path class="cls-10" d="M189.36,187.48s35.35-28.74,57.86-5.36c0,0-8.84-15.88-25.53-16.67-23.06-1.08-32.33,22.03-32.33,22.03Z"/>
                        <path class="cls-9" d="M189.36,187.48s35.35-28.74,57.86-5.36c0,0-8.84-15.88-25.53-16.67-23.06-1.08-32.33,22.03-32.33,22.03Z"/>
                        <path class="cls-12" d="M253.71,220.91c.51,11.77-15.64,24.17-32.72,24.44-24.7.39-32.92-10.51-33.95-12.79-17.16,7.49-24.69-17.08-12.73-19.86-.6-37.79,20.08-48.27,38.06-48.55,8.96-.14,41.32,5.41,38.93,37.09-.65,8.68,2.02,10.3,2.42,19.67Z"/>
                      </g>
                      <g>
                        <path class="cls-18" d="M254.5,195.56c-2.48,10.42-.92,19.5-.92,19.5,0,0,2.75,12.09-6.52,19.73,4.28-4.15,6.85-9.06,6.64-13.87-.41-9.37-3.08-10.99-2.42-19.67.31-4.13.03-7.82-.71-11.11,0,0,0-.01,0-.01-3.34-14.76-16-21.48-26.28-24.25h-.02s-.09-.03-.13-.04c-.07-.02-.14-.04-.21-.05-7.39-1.83-31.69,2.26-37.53,32.49-1.54,7.97-1.77,14.74-.91,20.56,1.32,8.88,5.19,15.52,10.83,20.78.78.73,1.6,1.43,2.45,2.11h0c2.84,1.18,6.28,2.2,10.43,2.86,0,0,0,0,0,0,3.43.54,7.34.84,11.78.77.82-.01,1.64-.05,2.46-.12.16-.01.33-.03.49-.05,3.05-.29,6.03-.95,8.87-1.91-1.63.72-3.09,1.2-5.74,2.38-.87.39-.34.77.64,1.36.68.41,1.57.93,2.36,1.61,1.44,1.25.57,2.22-.1,2.68-1.34.91,3.91.25-.2,4.21-2.68,2.57-3.93,13.42-12.3,9.47-6.57-3.1-8.65-4-12.23-5.2-5.67-1.91-11.75-2.87-15.87-1.63-2.05.61-6.15,1.77-6.95,3.63.26-.67,5.7-7.94,9.44-8.87,0,0-1.56-2.33.98-3.66,1.89-.98,4.73-.69,4.73-.69,0,0-6.48-1.78-13.15-4.99-13.35-6.42-31.35-21.78-26.96-62.49,3.34-30.92,29.82-38.51,37.6-40.38,7.78-1.87,32.11-.8,46.34,12.47,9.68,9.03,11.25,21.28,11.25,21.28l.02,1.08s4.34,9.6,1.85,20.02Z"/>
                        <path class="cls-14" d="M255.67,189.84c-.19,3.37-.88,6.67-1.54,9.95-.61,3.25-.97,6.53-.85,9.85.05,2.16.13,4.34-.03,6.5,0,0-.02,0-.02.02-1.4-7.91-3.52-9.76-1.41-21.05,2.84-15.2-3.99-25.76-3.99-25.76.07-.11.15-.21.23-.3.02,0,.04.02.05.04.56.53,1.15,1.13,1.72,1.77,4.63,5.26,6.33,12.1,5.85,18.99Z"/>
                        <path class="cls-14" d="M250.56,190.12c-3.34-14.76-16-21.48-26.28-24.25h-.02s-.09-.03-.13-.04c-.07-.02-.14-.04-.21-.05-7.39-1.83-31.69,2.26-37.53,32.49-1.54,7.97-1.77,14.74-.91,20.56,0,0-6.91-8.2-3.74-26.1,2.34-13.15,9.15-32.6,34.57-31.62,7.23.28,29.35,2.75,34.25,29.01Z"/>
                        <path class="cls-14" d="M247.91,162.25c-2.27-2.55-5.83-4.27-9.79-5.12-.28-.06-.54.29-.3.4h.02c1.14.52,2.31,1.09,3.35,1.72,5.99,3.46,9.29,8.92,10.34,15.21.07.45.96.22.97-.26.09-2.88-.44-7.3-4.58-11.96Z"/>
                        <path class="cls-14" d="M229.82,250.71c-1.44.82-4.13,2.36-5.89,7.2-.33.92.24-.21.84-1.09,1.43-2.11,4.01-4.76,5.49-4.27,0,0,.12-2.16-.44-1.84Z"/>
                        <path class="cls-14" d="M227.69,247.02c-.5.12-.79.18-.79.18-2.46-1.59-11.82,1.34-21.8-1.02-8.92-2.11-21.07-7.48-25.63-26.83-1.6-6.8-1.32-7.31-1.03-7.31.75-.01,2.45,7.85,6.65,15.44,3.26,5.9,8.86,11,12.86,13.44,3.64,2.22,6.26,2.68,11.24,3.67,0,0,0,0,0,0,4.21.84,8.94,1.12,14.24.65.16-.01.33-.03.49-.05,3.05-.29,6.03-.95,8.87-1.91-1.63.72-3.09,1.2-5.74,2.38-.87.39-.34.77.64,1.36Z"/>
                        <path class="cls-14" d="M203.63,259.04c-.01-.66,8.91,1.43,13.57,3.95,4.48,2.42,8.33-.86,10.3-4.86,0,0-1.15,3.95-3.06,6.15-1.89,2.18-5.51,1.35-10.67-1.38-3.87-2.05-10.14-3.86-10.14-3.86Z"/>
                        <path class="cls-14" d="M203.4,255.18c.37.19.13.74-.26.6-4.77-1.69-14.88-3.13-18.48,2.82-1.1,1.83-1.45,1.47-2.27,3.2,0,0,0-.02.01-.03.26-.67,5.7-7.94,9.44-8.87,0,0-1.56-2.33.98-3.66,1.89-.98,4.73-.69,4.73-.69,0,0-3.31.44-4.46,1.61-.52.54-.17,1.96,1.07,2.07,2.44.21,5.15.84,9.25,2.95Z"/>
                        <path class="cls-14" d="M208.23,252.65c1.44,1.27,1.32,2.07.82,1.71-3.95-2.89-7.74-4.77-11.46-5.23-.39-.79-11.43-2.97-21.53-10.61-8.52-6.44-16.19-17.02-18.12-31.34,0,0,7.82,26.78,32.81,35.07,2.37.79,6.7,1.98,9.61,3.27.46.2,1.3.59,1.69.89.21.16.02.48-.22.38-1.47-.63-3.86-1.4-6.17-1.1-.98.13-.75.94,1.09,1.49,3.65,1.09,6.44,1.06,11.47,5.48Z"/>
                        <path class="cls-12" d="M254.5,195.56c-2.48,10.42-.92,19.5-.92,19.5,0,0,2.75,12.09-6.52,19.73,4.28-4.15,6.85-9.06,6.64-13.87-.41-9.37-3.08-10.99-2.42-19.67,1.71-22.7-14.42-31.98-26.99-35.37h-.02s-.09-.03-.13-.04c-.07-.02-.14-.04-.21-.05-7.39-1.83-31.69,2.26-37.53,32.49-4.22,21.84,1.4,34.68,12.37,43.45h0c5.19,2.16,12.4,3.79,22.21,3.63,4.06-.06,8.07-.81,11.82-2.08-1.63.72-3.09,1.2-5.74,2.38-1.47.65,1.07,1.3,3,2.97,1.44,1.25.57,2.22-.1,2.68-1.34.91,3.91.25-.2,4.21-2.68,2.57-3.93,13.42-12.3,9.47-6.57-3.1-8.65-4-12.23-5.2-8.51-2.87-20.45-3.59-22.83,2.02.18-.47,5.65-7.95,9.45-8.9,0,0-1.56-2.33.98-3.66,1.89-.98,4.73-.69,4.73-.69,0,0-6.48-1.78-13.15-4.99-13.35-6.42-31.35-21.78-26.96-62.49,3.34-30.92,29.82-38.51,37.6-40.38,7.78-1.87,32.11-.8,46.34,12.47,9.68,9.03,11.25,21.28,11.25,21.28l.02,1.08s4.34,9.6,1.85,20.02Z"/>
                        <path class="cls-14" d="M255.67,189.84c-.19,3.37-.88,6.67-1.54,9.95-.61,3.25-.97,6.53-.85,9.85.05,2.16.13,4.34-.03,6.5,0,.06,0,.12-.01.18,0-.06,0-.11-.01-.17-.06-1.06-.14-2.11-.24-3.16-.28-2.65-.92-5.59-.76-8.23.1-2.79.32-5.61.81-8.34,1.35-7.45,2.07-15.72-1.91-22.43-.96-1.64-2.05-3.21-3.29-4.65-.15-.17.05-.39.23-.3.02,0,.04.02.05.04.56.53,1.15,1.13,1.72,1.77,4.63,5.26,6.33,12.1,5.85,18.99Z"/>
                        <path class="cls-14" d="M161.96,184.98c1.2-6.62,4.57-12.88,8.98-17.96.31-.35.87.04.64.45l-.02.03c-1.1,1.95-2.2,4.01-3.1,6.07-5.29,11.57-5.91,24.35-3.19,36.59.19.87-1.06,1.24-1.38.41-1.97-5.1-4.13-13.52-1.93-25.59Z"/>
                        <path class="cls-14" d="M207.93,250.21c-.28-.15-.09-.58.21-.48,3.89,1.28,6.59,2.69,10.19,4.74,3.27,1.86,3.43-5.02,8.11-4.91.26,0,.36.35.13.49-.6.36-1.47,1.02-2.34,2.18-.92,1.23-1.54,3.14-2.63,5.54-1.19,2.63-3.98-1.72-8.53-4.57-1.75-1.1-3.68-2.19-5.15-2.99Z"/>
                        <path class="cls-14" d="M201.27,145.43c5.99-1.61,12.32-.91,17.85,1.78,1.98.96,4.24,2.22,6.36,3.7.42.29.04.93-.42.71-2.02-.99-4.2-2.01-6.31-2.79-5.91-2.2-13.93-2.72-20.32-.36-4.72,1.88-8.78,5.06-12.36,8.7-.48.49-1.24-.17-.82-.71,2.95-3.88,8.1-8.9,16.01-11.03Z"/>
                        <path class="cls-14" d="M186.45,240.58s-4.76-2.5-7.92-7.76c-6.25-10.4-11.99-30.24-2.41-53.41.24-.57-.03-1.22-.6-1.47h0c-.55-.23-1.18,0-1.45.52-2.55,4.95-14.18,29.46.28,55.36,0,0,5.93,7.97,12.1,6.76Z"/>
                      </g>
                    </g>
                    <g>
                      <g>
                        <path class="cls-24" d="M233.79,231.99c-.8.89-1.57,1.66-2.34,2.32-2.13,1.81-4.29,2.72-7.38,2.51-1.56-.11-3.06-.56-4.44-1.33-1.55-.86-2.87-2.15-3.89-3.47-.41-.53-.77-1.06-1.08-1.58-.02-.04-2.47-4.11-1.56-5.19.38-.45.78-.35.97-.3.66.19,1.46.47,2.56.83.66.21,1.41.45,2.19.66,3.37.91,6.64,1.46,9.98,1.7,1.48.1,3.04.15,4.76.14.42,0,.74,0,1,.02.4.03,1.05.04,1.24.48.18.42-.43,1.47-2,3.21Z"/>
                        <path class="cls-46" d="M231.46,234.21s0,.03,0,.1c-2.13,1.81-4.29,2.72-7.38,2.51-1.56-.11-3.06-.56-4.44-1.33-1.55-.86-2.87-2.15-3.89-3.47,1.35-1.17,5.24-1.49,6.82-1.07,2.25.6,9.27,2.95,8.9,3.26Z"/>
                      </g>
                      <g>
                        <path class="cls-35" d="M232.67,187.64c-1.92-1.44,3.41-5.41,7.81-4,4.4,1.41,4.62,4.81,4.56,5.15s-2.55-2.44-5.39-2.48c-5.79-.08-5.21,2.67-6.99,1.33Z"/>
                        <path class="cls-35" d="M214.55,189.14c.46-2.03-4.66-3.59-10.75-1.4-5.17,1.86-6.95,7.52-6.77,7.82s3.45-3.8,7.35-4.84c5.84-1.56,9.67.63,10.16-1.58Z"/>
                        <path class="cls-38" d="M240.2,194.97c9.46-.96,9.37,18.35,2.81,20.55-6.68,2.24-9.5-3.78-9.35-8.83.18-6.34,2.6-11.32,6.55-11.72Z"/>
                        <g>
                          <ellipse class="cls-35" cx="243.32" cy="205.6" rx="4.61" ry="7.87" transform="translate(-14.63 18.69) rotate(-4.27)"/>
                          <ellipse class="cls-27" cx="240.4" cy="203.48" rx=".87" ry="1.35" transform="translate(-14.48 18.47) rotate(-4.27)"/>
                        </g>
                        <g>
                          <path class="cls-35" d="M243.8,196.76c1.17.69,1.83,2.01,2.39,3.3.43.98.74,2.29.95,3.42.05.24.7.32.8-.75.13-1.34.21-2.3-.14-3.49-.5-1.74-1.48-3.5-2.91-4.48-6.15-4.18-11.13,5.27-11.32,9.66,0,.17.27.27.35-.01.78-2.77,4.16-11.01,9.87-7.66Z"/>
                          <path class="cls-35" d="M245.22,197.34c.91.61,2.59-.23,3.2-1.25-1.03.35-2.17.99-3.07.12-.16-.16-.47.74-.66.8l.54.33Z"/>
                          <path class="cls-35" d="M245.96,198.29c.67.96,2.57.79,3.25-.64-1.83.87-2.7.16-3.14-.34-.15-.17-.34.47-.52.45l.4.54Z"/>
                        </g>
                        <path class="cls-26" d="M231.73,217.39s-.31,3.47-2.81,3.49c-.46,0-.61-.48-1.13-.57s-1.14.1-1.28.86c-.23,1.26,2.56,2.35,4.95.26,1.65-1.45.83-3.35.27-4.03Z"/>
                        <path class="cls-35" d="M233.81,218.23c.51,2.06-1.49,3.99-3.91,4.41-.16.03-.33.05-.49.07-.38.03-.56-.4-.22-.52,1.6-.58,2.71-1.76,2.89-3.2.22-1.29-.71-2.33-2.09-3.05-.9-.48-1.88-.7-2.94-.83-.32-.04-.37-.4-.06-.46h.02c1.79-.31,6,.28,6.81,3.58Z"/>
                        <g>
                          <g>
                            <path class="cls-38" d="M206.86,197.79c11.35-4.14,15.34,15.37,7.54,19.87-6.33,3.65-11.93-1.06-12.97-6.03-1.3-6.24.52-12.05,5.43-13.84Z"/>
                            <path class="cls-35" d="M205.34,199.51c-1.52,1.14-2.34,2.91-3.06,4.68-.57,1.39-.93,3.16-1.17,4.72-.05.34-.54.33-.58,0-.18-1.62-.34-4.2-.23-5.88.15-2.32,1-4.53,2.87-6.04,6.93-5.54,14.02,3.07,14.85,7.36.03.17-.23.36-.35.11-1.19-2.54-5.83-9.82-12.33-4.94Z"/>
                            <path class="cls-35" d="M200.95,203.42c-.99,1.33-3.86,1.72-5.29,1.06,1.75-.41,3.96-1.32,4.84-2.91.15-.28.75,1.19,1.03,1.12l-.58.74Z"/>
                            <path class="cls-35" d="M200.73,205.05c-.58,1.55-3.57,2.8-5.29,1.66,3.29-.38,4.28-1.8,4.72-2.66.14-.29.68.29.93.14l-.36.87Z"/>
                          </g>
                          <g>
                            <ellipse class="cls-35" cx="213.64" cy="208.49" rx="4.77" ry="8.16" transform="translate(-14.93 16.49) rotate(-4.27)"/>
                            <ellipse class="cls-27" cx="210.62" cy="206.3" rx=".9" ry="1.4" transform="translate(-14.78 16.26) rotate(-4.27)"/>
                          </g>
                        </g>
                      </g>
                    </g>
                  </g>
                  <path class="cls-16" d="M210.96,333.1s8.1-.22,10.93,1.16,13.76,12.54,13.65,12.39-10.18-12.39-10.18-12.71,5.45-5.1,5.11-5.03-5.4,3.48-6.49,3.55c-1.09.07-11.79.07-13.03.65Z"/>
                </g>
                <g>
                  <path class="cls-23" d="M228.37,286.51c-1.52-.48-1.55-2.14-.28-2.83,1.24-.7,2.58-.89,3.07-1.1-1.47-.63-1.11-3.44,1.05-2.27.9.49,1.84.92,2.65,1.54,3,.54,3.29,5.95-.51,7.38-.79.3-1.61.34-2.37.19-.07.43-.35.83-.78.96-.65.21-1.36-.08-1.61-.73-.12-.32-.15-.61,0-.98-1.38.52-2.23-1.4-1.2-2.16Z"/>
                  <path class="cls-49" d="M240.04,251.26s-11.35,10.5-12.88,11.91c-1.53,1.4-.52,3.29.4,4.38,2.16,2.54,6.2,4.17,6.39,4.3.2.13,2.07-2.31,2.07-2.31l-.85,2.86s3.82,1.04,5.9,1.14c2.08.1,1.95-2.06,2.11-2.91s2.56-12.88,2.56-12.88l-5.71-6.48Z"/>
                  <path class="cls-19" d="M283.48,275.96c-5.37,0-10.74-.7-15.62-1.49-1.33-.21-2.23-1.47-2.02-2.79.21-1.33,1.47-2.23,2.79-2.02,7.5,1.21,16.2,2.22,23.86.54,1.31-.29,2.61.54,2.9,1.86.29,1.31-.54,2.61-1.86,2.9-3.27.72-6.67,1-10.06,1Z"/>
                  <polygon class="cls-22" points="273.16 269.71 271.84 276.65 266.25 268.79 273.16 269.71"/>
                  <path class="cls-23" d="M232.05,285.98c.26,1.12,1.26,1.88,2.37,1.88.19,0,.37-.01.57-.07,2.19-.52,4.35-1.23,6.46-2.1,4.36-1.78,8.53-4.19,12.36-6.68,1.41-.93,2.79-1.85,4.11-2.78,1.1-.77,1.37-2.29.61-3.38-.77-1.11-2.29-1.37-3.4-.61-1.71,1.19-3.5,2.39-5.37,3.57-3.28,2.06-6.77,4.01-10.38,5.46-1.82.73-3.66,1.35-5.53,1.78-1.31.3-2.13,1.61-1.81,2.92Z"/>
                  <path class="cls-19" d="M268.9,334.45c-1.31,0-2.52-.85-2.92-2.17l-9.9-32.79c-.49-1.61.43-3.31,2.04-3.8,1.61-.49,3.31.43,3.8,2.04l9.9,32.79c.49,1.61-.43,3.31-2.04,3.8-.29.09-.59.13-.88.13Z"/>
                  <path class="cls-19" d="M287.32,329.16c-1.19,0-2.32-.7-2.81-1.86l-13.32-31.56c-.65-1.55.07-3.34,1.62-3.99,1.55-.66,3.34.07,3.99,1.62l13.32,31.56c.65,1.55-.07,3.34-1.62,3.99-.39.16-.79.24-1.18.24Z"/>
                  <g>
                    <path class="cls-22" d="M268.78,320.46c-1.77,1-3.78,1.77-5.76,2.01l2.96,9.81c.4,1.32,1.61,2.17,2.92,2.17.29,0,.59-.04.88-.13,1.61-.49,2.52-2.19,2.04-3.8l-3.04-10.06Z"/>
                    <path class="cls-23" d="M266.9,314.24l-4.99-16.51c-.49-1.61-2.19-2.52-3.8-2.04-1.61.49-2.52,2.19-2.04,3.8l5.47,18.12c1.43-1.72,3.24-3.02,5.35-3.37Z"/>
                  </g>
                  <g>
                    <path class="cls-23" d="M283.34,308.84l-6.53-15.47c-.65-1.55-2.44-2.28-3.99-1.62-1.55.65-2.28,2.44-1.62,3.99l7.68,18.21c.87-2.07,2.39-3.79,4.46-5.1Z"/>
                    <path class="cls-22" d="M290.13,324.92l-4.21-9.97c-1.71,1.18-3.72,2.18-5.62,2.36l4.21,9.98c.49,1.16,1.62,1.86,2.81,1.86.39,0,.8-.08,1.18-.24,1.55-.65,2.28-2.44,1.62-3.99Z"/>
                  </g>
                  <path class="cls-22" d="M273.13,284.13c0,.08-.01.16-.03.24-4.36,1.19-10.58,2.9-14.8,4.05-.28-.3-.51-.63-.72-.98-2.26-9.46-1.78-7.41-2.4-10.68-.5-2.45-1.52-4.18.09-5.43h0c.13-.1.27-.2.43-.29.18-.1.59-.27,1.1-.46.1-.04.21-.08.32-.12,2.68-.96,2.54-.85,7.06-1.77,3.76-.27,6.52,1.45,7.2,4.75l.55,2.89.69,4.5.15.99.16,1.01.11.72v.06s.09.54.09.54Z"/>
                  <path class="cls-49" d="M270.26,226.13c6.82,8.3,5.07,21.01-3.91,28.38-8.98,7.37-22.04,9.24-28.72.82-7.67-9.67-7.64-23.81,1.33-31.18,8.98-7.37,24.47-6.32,31.29,1.98Z"/>
                  <path class="cls-49" d="M276.22,227.32c6.82,8.3,5.07,21.01-3.91,28.38-8.98,7.37-21.78,6.62-28.6-1.68-6.82-8.3-5.07-21.01,3.91-28.38,8.98-7.37,21.78-6.62,28.6,1.68Z"/>
                  <path class="cls-49" d="M267.48,254.17s7.79,9.98,9.09,11.61c1.62,2.03,4.18,1.46,5.87.02,4.12-3.48,5.15-7.87,5.21-10.7.05-2.57-1.66-3.43-3.16-3.69-.86-.15-12.71-1.82-12.71-1.82l-4.29,4.57Z"/>
                  <path class="cls-23" d="M262.16,272.42c-.66.14-1.19.11-1.62-.06-1.83-.71-2.02-3.8-2.62-6.62-.76-3.56,4.62-4.71,5.38-1.15l.76,3.54.22,1.02c.32,1.49-.63,2.95-2.12,3.27Z"/>
                  <path class="cls-19" d="M262.16,272.42c-.66.14-1.19.11-1.62-.06-.02-.1-.04-.19-.06-.29-.55-2.58,1.61-4.09,3.58-3.94l.22,1.02c.32,1.49-.63,2.95-2.12,3.27Z"/>
                  <path class="cls-19" d="M279.44,248.46c0,11.02-8.77,19.8-19.79,19.8-11.02,0-20.13-8.77-20.13-19.8s8.94-19.96,19.96-19.96c11.02,0,19.96,8.94,19.96,19.96Z"/>
                  <path class="cls-23" d="M274.18,261.96c-3.64,3.97-8.88,6.46-14.7,6.46-11.02,0-19.96-8.94-19.96-19.96,0-9.31,6.37-17.12,14.98-19.34-6.48,3.05-11.02,10.12-11.02,18.36,0,11.02,8.14,19.96,18.18,19.96,4.84,0,9.25-2.08,12.51-5.48Z"/>
                  <path class="cls-49" d="M277.59,234.55c-2.22-5.04-11.92-11.02-17.52-11.52-1.04,9.43,10.4,18.06,19.68,20.06.98-3.67-.55-4.89-2.16-8.54Z"/>
                  <path class="cls-49" d="M236.72,238.53c-.33,2-.61,8.79-.64,10.69,9.65,6.03,29.29-10.04,25.82-25.27-12.06-5-21.36.28-25.18,14.59Z"/>
                  <path class="cls-23" d="M242.27,251.48c1.43,2.15,1.15,4.83-.62,5.99-1.77,1.16-4.36.35-5.78-1.8-1.43-2.15-1.15-4.83.62-5.99,1.77-1.16,4.36-.35,5.78,1.8Z"/>
                  <path class="cls-22" d="M267.92,285.78c-9.31,2.55-7.49,2.05-9.63,2.64-.28-.3-.51-.63-.72-.98-.25-1.06.04.17-1.87-7.9l-4.11-5.72,3.67-2.49h0c.13-.1.27-.2.43-.29.18-.1.59-.27,1.1-.46.1-.04.21-.08.32-.12,1.41-.51,1.16-.44,1.66-.6-1,3.53-1.41,11.92,9.15,15.92Z"/>
                  <path class="cls-22" d="M291.66,294.72c-.54,3.7-2.98,9.52-9.63,13.77-.84.54-1.73,1.05-2.71,1.53h0c-5.01,2.46-11.48,3.63-14.72,3.63-14.5.69-22.16-7.98-20.65-10.03.35-.47,1.84-2.41,2.09-2.72,4.75-6.13,10.7-13.52,11.35-14.25,3.39.58,11.23-.85,15.05-2.73h0c.22-.11.42-.22.6-.32.96.46,2.07.97,3.25,1.48.56.25,1.15.5,1.74.75,1,.42,2.01.85,3.02,1.26,1.14.47,2.28.92,3.35,1.35,2.65,1.07,4.96,1.97,6.13,2.45,0,0,0,0,.01,0,.34.14.58.24.72.31.44.22.69,1.58.4,3.54Z"/>
                  <path class="cls-43" d="M260.41,286.53s-1.44,4.12-3.14,9.01c-.42,1.22-.86,2.48-1.3,3.74-2.08,5.97-4.13,11.86-4.26,12.24-5.55-2.32-8.78-6.5-7.75-7.9.35-.48,1.84-2.41,2.09-2.72,3.24-4.18,7.04-8.95,9.33-11.79.02-.03.04-.05.05-.07.16-.2.31-.38.46-.56.08-.11.17-.21.25-.31.38-.47.7-.85.93-1.12.07-.09.14-.17.21-.26.05-.05.09-.11.13-.15l-1.68-7.1,2.72-1.4,1.98,8.38Z"/>
                  <g>
                    <path class="cls-48" d="M274.34,332.83c-.03-.27-.08-.54-.17-.8-.72-2.25-3.13-3.49-5.39-2.77-2.26.72-3.5,3.13-2.78,5.38.08.27.2.52.33.75l8.01-2.56Z"/>
                    <rect class="cls-51" x="266.43" y="334.05" width="8.49" height="2.02" transform="translate(-89.18 98.35) rotate(-17.73)"/>
                  </g>
                  <path class="cls-20" d="M289.54,328.97l-5.03,1.57s-1.11-3.42-1.25-3.8c-.13-.38-.34-.87.31-1.08s3.66-2.54,3.66-2.54l2.3,5.85Z"/>
                  <g>
                    <path class="cls-48" d="M294.76,325.37c-.03-.27-.08-.54-.17-.8-.72-2.25-3.13-3.49-5.39-2.77-2.26.72-3.5,3.13-2.78,5.38.08.27.17.57.3.81l8.04-2.62Z"/>
                    <polygon class="cls-51" points="295.46 327.27 284.57 330.82 283.95 328.9 294.84 325.35 295.46 327.27"/>
                  </g>
                </g>
                <g>
                  <path class="cls-7" d="M255.79,294.09c2.24.02,3.91-.22,6.09-.75.44-.11,2.29-.66,2.26-1.88-.03-1.1-1.8-.96-2.17-.94-2.52.11-4.76.21-7.26-.09"/>
                  <path class="cls-28" d="M255.79,294.54c1.65.02,3.28-.14,4.89-.47,1.04-.21,2.17-.42,3.04-1.08.47-.36.82-.83.86-1.44.03-.54-.28-1.02-.76-1.25-.43-.2-.92-.26-1.4-.26-.58,0-1.16.04-1.74.07-2,.08-3.99.09-5.98-.15-.24-.03-.45.23-.45.45,0,.27.21.42.45.45,1.63.19,3.27.22,4.9.18.79-.02,1.58-.05,2.37-.09.3-.01.68-.02.93.01-.02,0,.09.01.12.02.04,0,.09.02.13.03.05.01.1.03.15.04.09.03.01,0,.09.04.04.02.07.04.11.06.02.01.03.02.05.03-.06-.05,0,0,0,0,.02.02.08.09.03.03.02.03.08.14.05.07.06.15.04.31-.02.45-.07.17-.19.3-.36.45-.28.24-.7.44-1.05.56-.46.16-.94.26-1.42.36-1.66.36-3.33.54-5.03.52-.58,0-.58.89,0,.9h0Z"/>
                  <path class="cls-6" d="M254.26,290.99c.71.08,6.53-.35,9.82-2.56.39-.26,1.04-.84.62-1.66-.34-.66-1.26-.7-2-.62-2.83.33-5.67,1.47-8.43.76"/>
                  <path class="cls-28" d="M254.26,291.44c.29.03.6,0,.9-.02.56-.04,1.13-.1,1.69-.18,1.49-.2,2.97-.51,4.4-.99.77-.26,1.54-.57,2.26-.95.62-.33,1.33-.72,1.64-1.38.4-.86-.1-1.8-.95-2.11s-1.85-.08-2.71.07c-2.33.4-4.73,1.19-7.1.6-.56-.14-.8.73-.24.87,2,.49,4.03.1,6-.3.93-.19,1.88-.42,2.83-.48.5-.03,1.51.02,1.41.78-.07.56-.85.9-1.28,1.13-.64.35-1.31.62-2,.86-1.35.46-2.74.77-4.15.98-.57.08-1.15.15-1.74.19-.31.02-.64.05-.96.02-.24-.02-.45.22-.45.45s.21.43.45.45h0Z"/>
                  <path class="cls-5" d="M255.67,288.22c1.34-.34,8.69-4.49,8.47-6.37-.44-3.63-6.64,2.08-9.29,2.44"/>
                  <path class="cls-28" d="M255.79,288.65c.52-.14,1.01-.4,1.49-.64.75-.38,1.48-.79,2.19-1.22.8-.49,1.59-1,2.35-1.56.67-.5,1.35-1.03,1.91-1.65.4-.44.84-.99.86-1.61s-.29-1.34-.86-1.61c-.6-.29-1.3-.16-1.91.05-.8.27-1.55.67-2.29,1.08-.8.44-1.58.91-2.37,1.35-.36.2-.72.39-1.1.57-.09.04-.18.08-.27.12-.03.01-.11.05-.04.02-.05.02-.1.04-.14.06-.15.06-.31.11-.46.16-.14.04-.28.07-.42.09-.24.03-.37.34-.31.55.07.26.31.35.55.31.67-.09,1.31-.41,1.9-.71.76-.38,1.49-.81,2.22-1.24s1.48-.85,2.25-1.21c.21-.1.24-.11.44-.19.16-.06.32-.12.48-.16.15-.04.29-.07.44-.1.09-.02-.02,0,0,0,.03,0,.06,0,.09,0,.07,0,.14,0,.21,0,.03,0,.06,0,.08,0,.09,0-.03,0-.01,0,.06.01.12.03.18.04.12.03-.05-.04.06.02.02.01.05.03.08.04.08.04,0,0,0,0,.04.04.07.07.11.11,0,0-.04-.07,0,0,.02.03.03.06.05.08.01.03.03.05.04.08,0,.02-.02-.08,0,0,.02.08.05.15.07.23,0,.04.01.07.02.11.02.09,0,0,0,.04,0,.05,0,.09,0,.14,0,.02.03-.11,0-.03,0,.03-.01.05-.02.08-.01.05-.03.1-.05.15,0,.02.05-.09,0,0-.02.03-.03.06-.04.09-.03.06-.06.11-.1.17-.04.06-.08.11-.12.17-.02.03-.06.08-.01.02-.03.03-.05.06-.08.1-.47.56-1.07,1.07-1.62,1.5-.68.52-1.45,1.04-2.2,1.51-.71.44-1.44.87-2.18,1.26-.3.16-.6.31-.9.45-.12.06-.25.11-.37.17-.06.02-.06.02,0,0-.02,0-.05.02-.07.03-.05.02-.1.04-.16.06-.08.03-.15.05-.23.07-.56.15-.32,1.02.24.87h0Z"/>
                  <path class="cls-4" d="M252.58,286.51c1.84-.58,8.49-6.42,8.87-7.16.23-.46.43-1,.25-1.48-.22-.62-.98-.91-1.64-.82-.66.09-1.23.47-1.79.82-2.37,1.51-4.86,2.84-7.44,3.96"/>
                  <path class="cls-28" d="M252.7,286.94c.47-.15.9-.42,1.31-.68.59-.38,1.15-.79,1.71-1.22,1.28-.98,2.52-2.01,3.73-3.08.5-.44.99-.88,1.46-1.35.3-.29.61-.58.85-.92.54-.74.68-1.94-.05-2.6-.94-.85-2.21-.5-3.19.08-1.27.76-2.51,1.55-3.81,2.26s-2.71,1.39-4.11,2c-.22.1-.27.42-.16.62.13.23.39.26.62.16,2.31-1.01,4.56-2.18,6.71-3.5.51-.32,1.01-.67,1.55-.95.43-.22.93-.38,1.41-.22.39.13.64.43.59.85-.03.25-.13.51-.25.73-.03.04-.12.17-.02.04-.62.75-1.38,1.4-2.11,2.05-1.11.99-2.26,1.96-3.44,2.87-.58.45-1.18.89-1.79,1.3-.24.16-.49.32-.75.46-.1.05-.2.11-.3.15-.04.02-.17.07-.05.02-.05.02-.09.04-.14.05-.55.18-.31,1.05.24.87h0Z"/>
                  <path class="cls-2" d="M253.68,294.45c-2.67.1-4.8-.25-5.85-.86-.83-.48-2.52-4.39-3.13-6.72l-.42-1.37c-.09-2.3.85-3.89,1.39-5.69.17-.56,2.23-.13,2.46-1.05.62.88.11-1.57.63-.86,0,0,2.1,1.28,2.74,1.55,1.82.77,2.79.94,2.79.94l3.58,13.68s-1.52.28-4.19.39Z"/>
                  <path class="cls-1" d="M259.31,293.86s-2.96.5-5.63.6c-2.67.1-4.8-.25-5.85-.86-.83-.48-2.64-4.27-3.25-6.6l-.3-1.49c-.09-2.3.85-3.89,1.39-5.69.17-.56,2.23-.13,2.46-1.05.62.88.11-1.57.63-.86,0,0,2.1,1.28,2.74,1.55,1.82.77,2.79.94,2.79.94"/>
                </g>
                <path class="cls-3" d="M239.39,281.27l2.06,4.42c4.36-1.78,8.53-4.19,12.36-6.68-.89-.7-3.08-2.43-4.05-3.2-3.28,2.06-6.77,4.01-10.38,5.46Z"/>
              </g>
            </g>
          </g>
          <g>
            <path class="cls-27" d="M43.55,66.95l16.16,24.58-10.05,3.81-2.69-4.48-6.72.22-1.31,4.8-9.63-3.14,14.24-25.79ZM41.92,85.99l3.81-.67-1.6-4.35-2.21,5.02Z"/>
            <path class="cls-27" d="M79.04,83.5c0-.4-.15-.74-.45-.99-.3-.26-.69-.38-1.18-.38s-.92.16-1.22.48c-.3.32-.45.65-.45.99l.19,10.94-6.94.58.13-11.55c.02-.43-.13-.77-.45-1.04-.32-.27-.74-.4-1.25-.4-.41,0-.78.13-1.14.38-.35.26-.52.62-.5,1.09l.32,11.55-6.72-.58-.38-18.21,6.53-.58v2.94h.06c.68-.92,1.46-1.64,2.32-2.16.86-.52,1.9-.78,3.12-.78,1,0,1.84.15,2.51.46.67.31,1.29.79,1.84,1.46.55-.58,1.18-1.04,1.89-1.39s1.48-.53,2.34-.53c.96,0,1.81.17,2.54.5.74.33,1.35.79,1.86,1.39.5.6.89,1.3,1.15,2.1.27.8.41,1.66.43,2.58l.19,12.19-6.94.58.19-11.62Z"/>
            <path class="cls-27" d="M97.79,92.71h-.06c-.58.81-1.31,1.38-2.19,1.7-.89.32-1.84.48-2.86.48-.85,0-1.66-.15-2.43-.46-.77-.31-1.44-.75-2.02-1.33-.58-.58-1.04-1.27-1.38-2.08-.34-.81-.51-1.72-.51-2.72,0-.87.17-1.68.51-2.42.34-.74.8-1.38,1.39-1.92.59-.54,1.28-.97,2.08-1.28.8-.31,1.67-.46,2.61-.46s1.81.14,2.48.43c.67.29,1.24.61,1.71.98v-.96c0-.98-.32-1.63-.96-1.95-.64-.32-1.47-.48-2.5-.48-.94,0-1.81.1-2.62.29-.81.19-1.63.42-2.46.67l1.25-5.09c1.02-.3,2.09-.51,3.2-.62,1.11-.12,2.24-.18,3.39-.18,1.04,0,2.07.12,3.07.37s1.88.65,2.64,1.2c.76.56,1.36,1.27,1.81,2.14.45.88.66,1.95.64,3.23l-.35,12.1-6.43.54v-2.18ZM93.73,86.79c-.73.11-1.32.36-1.79.75-.47.4-.67.84-.61,1.33.08.49.39.86.91,1.1.52.25,1.2.3,2.03.18s1.45-.39,1.86-.8c.41-.4.56-.84.48-1.31-.06-.4-.34-.75-.82-1.04-.48-.29-1.17-.36-2.06-.21Z"/>
            <path class="cls-27" d="M113.47,78.44h.13c.7-.96,1.42-1.61,2.16-1.95.74-.34,1.54-.51,2.42-.51s1.69.16,2.37.48c.68.32,1.26.77,1.73,1.34.47.58.83,1.25,1.07,2.02.25.77.37,1.6.37,2.5v12.38l-6.91.58.1-11.65c.02-.38-.12-.7-.43-.96-.31-.26-.68-.38-1.1-.38s-.77.12-1.1.37c-.33.25-.5.58-.5,1.01l.13,11.55-6.82-.48-.26-18.21,6.66-.54v2.46Z"/>
            <path class="cls-27" d="M136,92.71h-.06c-.58.81-1.31,1.38-2.19,1.7-.89.32-1.84.48-2.86.48-.85,0-1.66-.15-2.43-.46-.77-.31-1.44-.75-2.02-1.33-.58-.58-1.04-1.27-1.38-2.08-.34-.81-.51-1.72-.51-2.72,0-.87.17-1.68.51-2.42.34-.74.8-1.38,1.39-1.92.59-.54,1.28-.97,2.08-1.28.8-.31,1.67-.46,2.61-.46s1.81.14,2.48.43c.67.29,1.24.61,1.71.98v-.96c0-.98-.32-1.63-.96-1.95-.64-.32-1.47-.48-2.5-.48-.94,0-1.81.1-2.62.29-.81.19-1.63.42-2.46.67l1.25-5.09c1.02-.3,2.09-.51,3.2-.62,1.11-.12,2.24-.18,3.39-.18,1.04,0,2.07.12,3.07.37s1.88.65,2.64,1.2c.76.56,1.36,1.27,1.81,2.14.45.88.66,1.95.64,3.23l-.35,12.1-6.43.54v-2.18ZM131.93,86.79c-.73.11-1.32.36-1.79.75-.47.4-.67.84-.61,1.33.08.49.39.86.91,1.1.52.25,1.2.3,2.03.18s1.45-.39,1.86-.8c.41-.4.56-.84.48-1.31-.06-.4-.34-.75-.82-1.04-.48-.29-1.17-.36-2.06-.21Z"/>
            <path class="cls-27" d="M152.06,77.8h.06c.53-.7,1.15-1.21,1.86-1.52.7-.31,1.49-.46,2.37-.46s1.69.16,2.38.48c.69.32,1.27.77,1.74,1.34.47.58.83,1.25,1.07,2.03s.36,1.62.34,2.51l-.19,12.38-6.75.58v-11.68c0-.36-.13-.67-.38-.93-.26-.26-.6-.38-1.02-.38s-.75.12-1.04.37c-.29.25-.43.58-.43,1.01v11.65l-6.72-.58-.22-25.22,7.17-.58-.22,8.99Z"/>
            <path class="cls-27" d="M42.3,105.48c-1.54,2.35-2.69,4.52-3.47,6.53s-1.33,3.73-1.65,5.18c-.32,1.45-.5,3-.54,4.64.21,1.56.52,2.96.91,4.19.39,1.24.99,2.61,1.78,4.11.79,1.5,1.87,2.98,3.23,4.43l-1.57,1.12c-1.39-1.19-2.54-2.45-3.47-3.76-.93-1.31-1.65-2.55-2.18-3.71-.52-1.16-.92-2.24-1.2-3.23-.28-.99-.45-1.75-.51-2.29-.06-.53-.1-.82-.1-.86.06-1.83.3-3.55.72-5.15.42-1.6,1.12-3.47,2.11-5.62s2.44-4.45,4.34-6.93l1.6,1.34Z"/>
            <path class="cls-27" d="M60.41,114.25l-3.84.45v18.02l-9.09,1.12.48-18.27-4.22.42.22-7.87,17.28-1.47-.83,7.62Z"/>
            <path class="cls-27" d="M67.87,114.15v3.55h.06c.55-2.37,2.15-3.55,4.8-3.55.58,0,1.12.03,1.63.1l-1.66,6.82c-.15-.02-.31-.03-.48-.03h-.64c-.9,0-1.67.29-2.32.88-.65.59-.98,1.51-.98,2.77v8.22l-6.72.58-.19-18.75,6.5-.58Z"/>
            <path class="cls-27" d="M85.47,130.47h-.06c-.43,1.17-1.09,2.01-2,2.5-.91.49-1.97.74-3.18.74-1.6,0-2.9-.47-3.89-1.42-.99-.95-1.49-2.33-1.49-4.14v-13.44l7.14-.58-.19,11.84c-.02.51.09.88.34,1.1.24.22.62.34,1.14.34.43,0,.77-.11,1.04-.32.27-.21.39-.58.37-1.09l-.19-11.3,7.36-.58-.48,19.04-5.89.26v-2.94Z"/>
            <path class="cls-27" d="M94.99,127.37c.59.11,1.22.16,1.9.16.3,0,.61,0,.94-.02.33-.01.63-.04.9-.1.27-.05.49-.14.67-.27.18-.13.27-.32.27-.58,0-.32-.17-.56-.5-.72s-.74-.31-1.22-.46-1.01-.33-1.58-.53c-.58-.2-1.1-.5-1.58-.9-.48-.39-.89-.92-1.22-1.58-.33-.66-.5-1.52-.5-2.59,0-.7.14-1.4.42-2.08.28-.68.73-1.3,1.34-1.86.62-.55,1.42-1,2.4-1.34.98-.34,2.16-.51,3.55-.51.53,0,1.07.02,1.6.06.53.04,1.04.1,1.52.18.48.08.92.15,1.33.22.4.08.75.14,1.02.21v5.63c-.53-.13-1.06-.23-1.57-.32-.51-.08-1.07-.13-1.66-.13-.13,0-.33,0-.61.02s-.55.04-.83.1c-.28.05-.52.14-.74.27-.21.13-.32.3-.32.51,0,.34.17.6.51.77.34.17.76.33,1.26.48.5.15,1.05.33,1.65.54.6.21,1.15.52,1.65.91.5.4.92.92,1.26,1.58.34.66.51,1.53.51,2.59,0,1.15-.25,2.11-.75,2.88-.5.77-1.16,1.38-1.98,1.84-.82.46-1.77.78-2.83.98-1.07.19-2.18.29-3.33.29-.9,0-1.78-.05-2.64-.16-.86-.11-1.73-.28-2.61-.51v-5.98c.58.17,1.16.31,1.74.42Z"/>
            <path class="cls-27" d="M116.62,133.59c-.31.01-.65.02-1.01.02-2.05,0-3.64-.46-4.78-1.39-1.14-.93-1.71-2.44-1.71-4.53v-7.58l-1.76.03.19-5.54h1.5v-2.11l6.94-3.14v5.25l2.59-.38-.35,5.89h-2.18v5.6c0,.64.09,1.07.27,1.28.18.21.59.32,1.23.32.28,0,.5-.01.67-.03.17-.02.33-.05.48-.1l-1.12,6.34c-.34.04-.67.07-.98.08Z"/>
            <path class="cls-27" d="M127.23,122.82l1.82-8.29,5.02-.38,1.89,8.77h.06l1.89-9.06,6.98.58-4.93,18.46-6.62.51-1.79-8.93h-.06l-1.82,8.42-6.56.54-4.99-19.01,7.17-.58,1.89,8.96h.06Z"/>
            <path class="cls-27" d="M164.09,122.28c.21,1.47.14,2.84-.21,4.11-.35,1.27-.92,2.39-1.7,3.36-.78.97-1.75,1.77-2.91,2.4-1.16.63-2.46,1.04-3.89,1.23-1.43.19-2.79.15-4.1-.13-1.3-.28-2.46-.77-3.49-1.49-1.02-.71-1.88-1.63-2.56-2.75-.68-1.12-1.12-2.42-1.31-3.89-.21-1.47-.14-2.84.21-4.11.35-1.27.92-2.39,1.7-3.38.78-.98,1.75-1.79,2.91-2.42,1.16-.63,2.46-1.04,3.89-1.23,1.43-.19,2.79-.15,4.08.13,1.29.28,2.45.77,3.47,1.49,1.02.72,1.88,1.64,2.56,2.77.68,1.13,1.13,2.43,1.34,3.9ZM150.65,125c.36.83.94,1.38,1.73,1.63.79.26,1.69.17,2.69-.26.98-.43,1.66-1.01,2.03-1.74.37-.74.39-1.52.05-2.35-.36-.81-.94-1.35-1.73-1.62-.79-.27-1.68-.19-2.66.24-1,.43-1.69,1.01-2.06,1.76-.37.75-.39,1.53-.05,2.34Z"/>
            <path class="cls-27" d="M171.26,114.15v3.55h.06c.55-2.37,2.15-3.55,4.8-3.55.58,0,1.12.03,1.63.1l-1.66,6.82c-.15-.02-.31-.03-.48-.03h-.64c-.9,0-1.67.29-2.32.88-.65.59-.98,1.51-.98,2.77v8.22l-6.72.58-.19-18.75,6.5-.58Z"/>
            <path class="cls-27" d="M186.83,133.59c-.31.01-.65.02-1.01.02-2.05,0-3.64-.46-4.78-1.39-1.14-.93-1.71-2.44-1.71-4.53v-7.58l-1.76.03.19-5.54h1.5v-2.11l6.94-3.14v5.25l2.59-.38-.35,5.89h-2.18v5.6c0,.64.09,1.07.27,1.28.18.21.59.32,1.23.32.28,0,.5-.01.67-.03.17-.02.33-.05.48-.1l-1.12,6.34c-.34.04-.67.07-.98.08Z"/>
            <path class="cls-27" d="M197.08,116.2h.06c.53-.7,1.15-1.21,1.86-1.52.7-.31,1.49-.46,2.37-.46s1.69.16,2.38.48c.69.32,1.27.77,1.74,1.34.47.58.83,1.25,1.07,2.03s.36,1.62.34,2.51l-.19,12.38-6.75.58v-11.68c0-.36-.13-.67-.38-.93-.26-.26-.6-.38-1.02-.38s-.75.12-1.04.37c-.29.25-.43.58-.43,1.01v11.65l-6.72-.58-.22-25.22,7.17-.58-.22,8.99Z"/>
            <path class="cls-27" d="M209.18,107.05l7.33-.32-.38,5.63-6.98.51.03-5.82ZM209.21,115.14l7.14-.58-.35,18.46-6.78.58v-18.46Z"/>
            <path class="cls-27" d="M225.24,116.84h.13c.7-.96,1.42-1.61,2.16-1.95.74-.34,1.54-.51,2.42-.51s1.69.16,2.37.48c.68.32,1.26.77,1.73,1.34.47.58.83,1.25,1.07,2.02.25.77.37,1.6.37,2.5v12.38l-6.91.58.1-11.65c.02-.38-.12-.7-.43-.96-.31-.26-.68-.38-1.1-.38s-.77.12-1.1.37c-.33.25-.5.58-.5,1.01l.13,11.55-6.82-.48-.26-18.21,6.66-.54v2.46Z"/>
            <path class="cls-27" d="M254.84,130.92c-1.3.94-2.64,1.62-4,2.03-1.37.42-2.93.62-4.7.62-1.45,0-2.78-.25-3.98-.75s-2.25-1.18-3.12-2.03c-.88-.85-1.56-1.85-2.05-2.99-.49-1.14-.74-2.35-.74-3.63,0-1.6.26-3.03.77-4.29.51-1.26,1.21-2.32,2.08-3.2s1.89-1.54,3.06-2c1.16-.46,2.41-.69,3.73-.69,2.13,0,3.98.54,5.55,1.63s2.74,2.54,3.5,4.35l-9.57,7.2c.23.13.54.21.93.26.38.04.74.06,1.06.06.98,0,1.81-.18,2.48-.53s1.29-.77,1.84-1.26l3.17,5.22ZM247.99,120.42c-.3-.36-.62-.61-.98-.74s-.75-.19-1.2-.19-.82.09-1.17.27c-.35.18-.66.43-.91.74-.26.31-.45.66-.59,1.04-.14.38-.21.78-.21,1.18s.03.66.08.82c.05.16.12.33.21.5l4.77-3.62Z"/>
            <path class="cls-27" d="M257.1,127.37c.59.11,1.22.16,1.9.16.3,0,.61,0,.94-.02.33-.01.63-.04.9-.1.27-.05.49-.14.67-.27.18-.13.27-.32.27-.58,0-.32-.17-.56-.5-.72s-.74-.31-1.22-.46-1.01-.33-1.58-.53c-.58-.2-1.1-.5-1.58-.9-.48-.39-.89-.92-1.22-1.58-.33-.66-.5-1.52-.5-2.59,0-.7.14-1.4.42-2.08.28-.68.73-1.3,1.34-1.86.62-.55,1.42-1,2.4-1.34.98-.34,2.16-.51,3.55-.51.53,0,1.07.02,1.6.06.53.04,1.04.1,1.52.18.48.08.92.15,1.33.22.4.08.75.14,1.02.21v5.63c-.53-.13-1.06-.23-1.57-.32-.51-.08-1.07-.13-1.66-.13-.13,0-.33,0-.61.02s-.55.04-.83.1c-.28.05-.52.14-.74.27-.21.13-.32.3-.32.51,0,.34.17.6.51.77.34.17.76.33,1.26.48.5.15,1.05.33,1.65.54.6.21,1.15.52,1.65.91.5.4.92.92,1.26,1.58.34.66.51,1.53.51,2.59,0,1.15-.25,2.11-.75,2.88-.5.77-1.16,1.38-1.98,1.84-.82.46-1.77.78-2.83.98-1.07.19-2.18.29-3.33.29-.9,0-1.78-.05-2.64-.16-.86-.11-1.73-.28-2.61-.51v-5.98c.58.17,1.16.31,1.74.42Z"/>
            <path class="cls-27" d="M271.37,127.37c.59.11,1.22.16,1.9.16.3,0,.61,0,.94-.02.33-.01.63-.04.9-.1.27-.05.49-.14.67-.27.18-.13.27-.32.27-.58,0-.32-.17-.56-.5-.72s-.74-.31-1.22-.46-1.01-.33-1.58-.53c-.58-.2-1.1-.5-1.58-.9-.48-.39-.89-.92-1.22-1.58-.33-.66-.5-1.52-.5-2.59,0-.7.14-1.4.42-2.08.28-.68.73-1.3,1.34-1.86.62-.55,1.42-1,2.4-1.34.98-.34,2.16-.51,3.55-.51.53,0,1.07.02,1.6.06.53.04,1.04.1,1.52.18.48.08.92.15,1.33.22.4.08.75.14,1.02.21v5.63c-.53-.13-1.06-.23-1.57-.32-.51-.08-1.07-.13-1.66-.13-.13,0-.33,0-.61.02s-.55.04-.83.1c-.28.05-.52.14-.74.27-.21.13-.32.3-.32.51,0,.34.17.6.51.77.34.17.76.33,1.26.48.5.15,1.05.33,1.65.54.6.21,1.15.52,1.65.91.5.4.92.92,1.26,1.58.34.66.51,1.53.51,2.59,0,1.15-.25,2.11-.75,2.88-.5.77-1.16,1.38-1.98,1.84-.82.46-1.77.78-2.83.98-1.07.19-2.18.29-3.33.29-.9,0-1.78-.05-2.64-.16-.86-.11-1.73-.28-2.61-.51v-5.98c.58.17,1.16.31,1.74.42Z"/>
            <path class="cls-27" d="M284.95,134.34c1.54-2.37,2.69-4.55,3.47-6.54.78-1.99,1.33-3.72,1.65-5.17s.5-3,.54-4.64c-.21-1.56-.52-2.95-.91-4.19-.4-1.24-.99-2.61-1.78-4.11-.79-1.5-1.87-2.98-3.23-4.43l1.57-1.12c1.39,1.19,2.54,2.45,3.47,3.76.93,1.31,1.65,2.55,2.18,3.71.52,1.16.92,2.24,1.2,3.23.28.99.45,1.76.51,2.29.06.53.1.82.1.86-.06,1.83-.3,3.55-.72,5.14-.42,1.59-1.12,3.46-2.11,5.62-.99,2.15-2.44,4.47-4.34,6.94l-1.6-1.34Z"/>
          </g>
          <g>
            <path d="M41.2,167.01l-7.22-5.65v5.1c0,.18-.07.34-.2.47-.13.13-.29.2-.47.2s-.34-.07-.46-.2-.19-.29-.19-.47v-12.98c0-.18.06-.34.19-.46s.28-.19.46-.19.34.06.47.19c.13.13.2.28.2.46v5.31l6.78-5.82c.14-.11.29-.17.44-.17.17,0,.31.07.44.21.13.14.19.29.19.46,0,.2-.07.36-.21.48l-7.16,6.13,7.56,5.88c.15.13.23.29.23.5,0,.18-.06.34-.19.47-.13.13-.28.2-.46.2-.15,0-.29-.05-.4-.15Z"/>
            <path d="M46.97,166.45c-.8-.45-1.41-1.07-1.85-1.84-.43-.77-.65-1.61-.65-2.52s.2-1.84.6-2.68.96-1.5,1.67-2.01c.71-.5,1.53-.76,2.46-.76.84,0,1.56.16,2.15.48.6.32,1.04.71,1.34,1.16.3.45.45.85.45,1.2,0,.25-.17.48-.5.67l-6.51,3.72c.35.67.83,1.18,1.43,1.52.6.34,1.31.51,2.12.51.45,0,.92-.11,1.42-.34s.89-.49,1.19-.8c.1-.14.24-.21.42-.21s.33.06.45.18c.12.12.18.27.18.45,0,.14-.06.28-.17.42-.38.43-.89.79-1.54,1.08-.65.29-1.29.43-1.92.43-1.02,0-1.93-.23-2.73-.68ZM50.92,158.25c-.42-.24-.99-.36-1.7-.36-.67,0-1.27.19-1.81.56-.53.37-.95.87-1.25,1.5-.3.63-.46,1.32-.47,2.08,0,.28.01.5.04.67l6.11-3.38c-.2-.48-.5-.83-.92-1.07Z"/>
            <path d="M58.34,166.45c-.8-.45-1.41-1.07-1.85-1.84-.43-.77-.65-1.61-.65-2.52s.2-1.84.6-2.68.96-1.5,1.67-2.01c.71-.5,1.53-.76,2.46-.76.84,0,1.56.16,2.15.48.6.32,1.04.71,1.34,1.16.3.45.45.85.45,1.2,0,.25-.17.48-.5.67l-6.51,3.72c.35.67.83,1.18,1.43,1.52.6.34,1.31.51,2.12.51.45,0,.92-.11,1.42-.34s.89-.49,1.19-.8c.1-.14.24-.21.42-.21s.33.06.45.18c.12.12.18.27.18.45,0,.14-.06.28-.17.42-.38.43-.89.79-1.54,1.08-.65.29-1.29.43-1.92.43-1.02,0-1.93-.23-2.73-.68ZM62.28,158.25c-.42-.24-.99-.36-1.7-.36-.67,0-1.27.19-1.81.56-.53.37-.95.87-1.25,1.5-.3.63-.46,1.32-.47,2.08,0,.28.01.5.04.67l6.11-3.38c-.2-.48-.5-.83-.92-1.07Z"/>
            <path d="M68.07,170.97c-.13-.13-.2-.28-.2-.45v-13.21c0-.2.07-.36.2-.48.13-.13.29-.19.47-.19s.34.07.46.2c.13.13.19.29.19.47v.86c.85-1.02,2.13-1.53,3.82-1.53.7,0,1.31.22,1.83.67.52.45.91,1.03,1.18,1.74.27.71.4,1.48.4,2.29,0,1.5-.35,2.81-1.05,3.94s-1.89,1.69-3.57,1.69c-.8,0-1.67-.2-2.6-.59v4.14c0,.17-.07.32-.2.45-.13.13-.28.2-.45.2-.18,0-.34-.07-.47-.2ZM74.43,164.5c.52-.76.79-1.82.79-3.16,0-.53-.08-1.07-.23-1.61s-.41-.99-.77-1.37c-.36-.37-.82-.56-1.38-.56-.92,0-1.69.19-2.31.58-.62.38-1.06.78-1.34,1.19v5.4c.99.45,1.9.67,2.73.67,1.15,0,1.98-.38,2.51-1.14Z"/>
            <path d="M32.75,196.17c-.13-.13-.2-.28-.2-.45v-13.21c0-.2.07-.36.2-.48.13-.13.29-.19.47-.19s.34.07.46.2c.13.13.19.29.19.47v.86c.85-1.02,2.13-1.53,3.82-1.53.7,0,1.31.22,1.83.67.52.45.91,1.03,1.18,1.74.27.71.4,1.48.4,2.29,0,1.5-.35,2.81-1.05,3.94s-1.89,1.69-3.57,1.69c-.8,0-1.67-.2-2.6-.59v4.14c0,.17-.07.32-.2.45-.13.13-.28.2-.45.2-.18,0-.34-.07-.47-.2ZM39.11,189.7c.52-.76.79-1.82.79-3.16,0-.53-.08-1.07-.23-1.61s-.41-.99-.77-1.37c-.36-.37-.82-.56-1.38-.56-.92,0-1.69.19-2.31.58-.62.38-1.06.78-1.34,1.19v5.4c.99.45,1.9.67,2.73.67,1.15,0,1.98-.38,2.51-1.14Z"/>
            <path d="M44.75,192.14c-.14-.13-.21-.27-.21-.42v-9.24c0-.18.07-.33.2-.45.13-.12.29-.18.47-.18.2,0,.36.06.48.18s.19.27.19.45v1.79c.39-.69.88-1.27,1.46-1.75.58-.48,1.26-.72,2.05-.72.62,0,1.06.17,1.33.51.27.34.41.75.41,1.23v.67c0,.18-.06.33-.19.45s-.28.18-.46.18c-.21,0-.36-.06-.46-.19-.1-.13-.15-.28-.15-.46v-.48c0-.41-.24-.61-.71-.61-.83,0-1.68.59-2.56,1.76-.21.28-.38.63-.51,1.05-.13.42-.2.81-.2,1.18l-.02,4.64c0,.15-.07.29-.2.42-.13.13-.28.19-.45.19s-.32-.06-.46-.19Z"/>
            <path d="M54.78,191.69c-.65-.43-1.16-1.01-1.53-1.74-.37-.74-.56-1.55-.56-2.45,0-.95.21-1.86.64-2.73.43-.87,1.02-1.57,1.77-2.11.76-.54,1.59-.81,2.5-.81.78,0,1.5.21,2.15.64.65.43,1.16,1.01,1.53,1.74.37.74.56,1.54.56,2.43,0,1.01-.22,1.95-.67,2.81-.45.87-1.05,1.56-1.8,2.08-.75.52-1.56.78-2.43.78-.8,0-1.52-.21-2.17-.64ZM58.73,190.53c.53-.41.96-.95,1.28-1.62.32-.67.48-1.39.48-2.14,0-.66-.13-1.27-.4-1.84-.27-.57-.63-1.02-1.08-1.37-.46-.34-.96-.51-1.52-.51-.62,0-1.19.21-1.71.62s-.94.96-1.26,1.64c-.32.68-.47,1.4-.47,2.15s.14,1.37.41,1.92c.27.55.64.98,1.1,1.29.46.31.95.46,1.47.46.6,0,1.17-.2,1.7-.61Z"/>
            <path d="M65.51,192.14c-.13-.13-.2-.27-.2-.44v-9.2c0-.17.07-.32.2-.45.13-.13.29-.2.47-.2s.34.07.46.2.19.28.19.45v2.42c.46-.91,1.06-1.65,1.8-2.21.74-.57,1.46-.85,2.17-.85.6,0,1.14.18,1.63.54.48.36.82.97,1,1.84.5-.81,1.07-1.41,1.7-1.8.63-.38,1.25-.58,1.87-.58.85,0,1.54.31,2.05.94.51.63.77,1.61.77,2.94v5.96c0,.17-.07.32-.2.44-.13.13-.29.19-.47.19s-.34-.06-.46-.19-.19-.27-.19-.44v-6.11c0-.87-.14-1.5-.42-1.9-.28-.4-.69-.6-1.24-.6-.42,0-.89.16-1.4.48-.51.32-.95.78-1.31,1.37-.36.59-.55,1.26-.55,2.02v4.75c0,.17-.06.32-.19.44s-.28.19-.46.19-.34-.06-.47-.19c-.13-.13-.2-.27-.2-.44v-6.11c0-.88-.13-1.52-.38-1.91-.25-.39-.67-.59-1.24-.59-.48,0-.97.2-1.47.6-.5.4-.97.89-1.39,1.46-.38.53-.63,1.03-.76,1.49s-.19,1.11-.19,1.93v3.13c0,.17-.06.32-.19.44s-.28.19-.46.19-.34-.06-.47-.19Z"/>
            <path d="M83.72,192.13c-.14-.13-.21-.29-.21-.47l.13-9.11c0-.18.07-.34.21-.48.14-.14.3-.21.48-.21s.34.07.47.2c.13.13.2.3.2.49l-.13,9.11c0,.18-.07.34-.2.47-.13.13-.29.2-.47.2s-.34-.07-.48-.2ZM83.87,180.01c-.13-.13-.19-.28-.19-.46l.02-.86c0-.17.07-.32.21-.44.14-.13.29-.19.46-.19s.31.07.44.2.19.28.19.45l-.02.86c0,.18-.07.33-.2.45-.13.12-.28.18-.45.18-.18,0-.34-.06-.46-.19Z"/>
            <path d="M89.74,191.88c-.58-.33-1.02-.71-1.32-1.16-.3-.44-.45-.82-.45-1.12,0-.18.06-.33.18-.45.12-.12.27-.18.45-.18.31,0,.5.15.59.44.2.56.52.99.99,1.3.46.31,1.03.46,1.7.46s1.22-.18,1.66-.55c.43-.36.65-.8.65-1.3,0-.29-.07-.54-.2-.75-.13-.2-.37-.4-.71-.58-.34-.18-.84-.37-1.5-.57-1.13-.35-1.95-.76-2.46-1.22s-.76-1.07-.76-1.83.31-1.37.93-1.84c.62-.47,1.52-.7,2.68-.7,1.05,0,1.86.21,2.43.64s.85,1.01.85,1.75c0,.34-.06.59-.17.77-.11.18-.27.26-.48.26-.18,0-.34-.06-.46-.18-.13-.12-.19-.25-.19-.41,0-.07.01-.15.03-.23s.03-.16.03-.23c0-.38-.17-.68-.5-.89s-.85-.33-1.53-.33c-.76,0-1.34.12-1.75.37-.41.25-.62.59-.62,1.04s.18.78.54,1.03c.36.25.98.53,1.86.82.84.28,1.49.55,1.94.8.45.25.78.55.99.89s.3.78.3,1.31-.15,1.01-.45,1.49c-.3.48-.72.87-1.27,1.17-.55.3-1.18.45-1.89.45-.8,0-1.49-.16-2.07-.49Z"/>
            <path d="M100.46,191.65c-.8-.45-1.41-1.07-1.85-1.84-.43-.77-.65-1.61-.65-2.52s.2-1.84.6-2.68.96-1.5,1.67-2.01c.71-.5,1.53-.76,2.46-.76.84,0,1.56.16,2.15.48.6.32,1.04.71,1.34,1.16.3.45.45.85.45,1.2,0,.25-.17.48-.5.67l-6.51,3.72c.35.67.83,1.18,1.43,1.52.6.34,1.31.51,2.12.51.45,0,.92-.11,1.42-.34s.89-.49,1.19-.8c.1-.14.24-.21.42-.21s.33.06.45.18c.12.12.18.27.18.45,0,.14-.06.28-.17.42-.38.43-.89.79-1.54,1.08-.65.29-1.29.43-1.92.43-1.02,0-1.93-.23-2.73-.68ZM104.41,183.45c-.42-.24-.99-.36-1.7-.36-.67,0-1.27.19-1.81.56-.53.37-.95.87-1.25,1.5-.3.63-.46,1.32-.47,2.08,0,.28.01.5.04.67l6.11-3.38c-.2-.48-.5-.83-.92-1.07Z"/>
            <path d="M110.61,191.88c-.58-.33-1.02-.71-1.32-1.16-.3-.44-.45-.82-.45-1.12,0-.18.06-.33.18-.45.12-.12.27-.18.45-.18.31,0,.5.15.59.44.2.56.52.99.99,1.3.46.31,1.03.46,1.7.46s1.22-.18,1.66-.55c.43-.36.65-.8.65-1.3,0-.29-.07-.54-.2-.75-.13-.2-.37-.4-.71-.58-.34-.18-.84-.37-1.5-.57-1.13-.35-1.95-.76-2.46-1.22s-.76-1.07-.76-1.83.31-1.37.93-1.84c.62-.47,1.52-.7,2.68-.7,1.05,0,1.86.21,2.43.64s.85,1.01.85,1.75c0,.34-.06.59-.17.77-.11.18-.27.26-.48.26-.18,0-.34-.06-.46-.18-.13-.12-.19-.25-.19-.41,0-.07.01-.15.03-.23s.03-.16.03-.23c0-.38-.17-.68-.5-.89s-.85-.33-1.53-.33c-.76,0-1.34.12-1.75.37-.41.25-.62.59-.62,1.04s.18.78.54,1.03c.36.25.98.53,1.86.82.84.28,1.49.55,1.94.8.45.25.78.55.99.89s.3.78.3,1.31-.15,1.01-.45,1.49c-.3.48-.72.87-1.27,1.17-.55.3-1.18.45-1.89.45-.8,0-1.49-.16-2.07-.49Z"/>
            <path d="M118.75,194.11c-.11-.1-.17-.23-.17-.39,0-.06.01-.13.04-.21l.48-1.28c-.15-.21-.23-.42-.23-.63,0-.27.09-.5.27-.7.18-.2.39-.3.63-.3.21,0,.39.08.54.23s.22.32.22.5-.03.36-.09.55c-.06.18-.19.5-.37.95l-.19.46c-.15.41-.27.67-.36.8s-.21.19-.38.19c-.15,0-.29-.05-.4-.16ZM119.83,184.68c-.13-.16-.2-.37-.2-.62s.09-.48.27-.69c.18-.21.39-.31.63-.31.21,0,.38.08.52.23.14.15.21.35.21.59,0,.29-.09.54-.27.75-.18.2-.39.3-.63.3-.22,0-.4-.08-.54-.24Z"/>
            <path d="M33.27,217.36c-.13-.13-.2-.27-.2-.44v-8.57h-2.33c-.18,0-.34-.07-.46-.2s-.19-.29-.19-.47c0-.2.07-.35.21-.47s.3-.18.48-.18h2.29v-2.88c0-.18.07-.34.2-.47.13-.13.29-.2.47-.2.2,0,.35.07.47.2.12.13.18.29.18.47v2.88h2.35c.2,0,.36.06.48.19s.19.28.19.46-.07.34-.2.47c-.13.13-.29.2-.47.2h-2.35v8.57c0,.17-.07.31-.2.44-.13.13-.28.19-.45.19-.18,0-.34-.06-.47-.19Z"/>
            <path d="M45.21,217.5c-.11-.13-.17-.3-.17-.49v-.59c-.38.34-.83.61-1.37.81-.53.2-1.06.3-1.6.3-.76,0-1.44-.19-2.04-.57s-1.07-.91-1.42-1.61c-.34-.69-.51-1.48-.51-2.36,0-.95.2-1.89.6-2.8s.98-1.67,1.74-2.26c.76-.59,1.66-.88,2.7-.88.64,0,1.21.08,1.7.25.49.17.99.37,1.49.61v9.09c0,.2-.06.36-.19.49s-.28.2-.46.2c-.21,0-.37-.07-.48-.2ZM43.72,215.91c.55-.26.97-.54,1.26-.83l.08-6.36c-.22-.1-.51-.19-.87-.28-.36-.09-.69-.14-1-.14-.69,0-1.32.2-1.89.61-.57.41-1.03.96-1.35,1.67-.33.71-.49,1.5-.49,2.38,0,1.02.24,1.83.73,2.44.49.6,1.12.9,1.89.9.55,0,1.09-.13,1.64-.39Z"/>
            <path d="M50.68,217.33c-.13-.13-.2-.28-.2-.45l-.04-13.15c0-.18.06-.33.19-.45s.28-.18.46-.18.34.07.47.2c.13.13.2.29.2.47l.02,8.25c.63-.43,1.47-1.15,2.52-2.16,1.05-1.01,1.94-1.98,2.67-2.92.13-.2.3-.29.52-.29.18,0,.34.06.46.19.13.13.19.27.19.44,0,.1-.05.23-.15.4-.42.55-.97,1.18-1.65,1.89s-1.26,1.29-1.75,1.72c.34.46,1.16,1.5,2.46,3.11l1.58,1.95c.13.15.19.29.19.42,0,.18-.06.34-.18.48s-.28.21-.47.21c-.22,0-.4-.08-.53-.23-1.04-1.4-2.38-3.13-4.03-5.19-.59.48-1.19.9-1.81,1.26v3.57c0,.17-.07.32-.2.45-.13.13-.29.2-.47.2-.17,0-.32-.07-.45-.2Z"/>
            <path d="M62.85,216.85c-.8-.45-1.41-1.07-1.85-1.84-.43-.77-.65-1.61-.65-2.52s.2-1.84.6-2.68.96-1.5,1.67-2.01c.71-.5,1.53-.76,2.46-.76.84,0,1.56.16,2.15.48.6.32,1.04.71,1.34,1.16.3.45.45.85.45,1.2,0,.25-.17.48-.5.67l-6.51,3.72c.35.67.83,1.18,1.43,1.52.6.34,1.31.51,2.12.51.45,0,.92-.11,1.42-.34s.89-.49,1.19-.8c.1-.14.24-.21.42-.21s.33.06.45.18c.12.12.18.27.18.45,0,.14-.06.28-.17.42-.38.43-.89.79-1.54,1.08-.65.29-1.29.43-1.92.43-1.02,0-1.93-.23-2.73-.68ZM66.8,208.65c-.42-.24-.99-.36-1.7-.36-.67,0-1.27.19-1.81.56-.53.37-.95.87-1.25,1.5-.3.63-.46,1.32-.47,2.08,0,.28.01.5.04.67l6.11-3.38c-.2-.48-.5-.83-.92-1.07Z"/>
            <path d="M32.76,242.54c-.14-.13-.21-.27-.21-.42v-9.24c0-.18.07-.33.2-.45.13-.12.29-.18.47-.18.2,0,.36.06.48.18s.19.27.19.45v1.79c.39-.69.88-1.27,1.46-1.75.58-.48,1.26-.72,2.05-.72.62,0,1.06.17,1.33.51.27.34.41.75.41,1.23v.67c0,.18-.06.33-.19.45s-.28.18-.46.18c-.21,0-.36-.06-.46-.19-.1-.13-.15-.28-.15-.46v-.48c0-.41-.24-.61-.71-.61-.83,0-1.68.59-2.56,1.76-.21.28-.38.63-.51,1.05-.13.42-.2.81-.2,1.18l-.02,4.64c0,.15-.07.29-.2.42-.13.13-.28.19-.45.19s-.32-.06-.46-.19Z"/>
            <path d="M43.15,242.05c-.8-.46-1.41-1.07-1.85-1.84-.43-.77-.65-1.61-.65-2.52s.2-1.84.6-2.68.96-1.5,1.67-2.01c.71-.5,1.53-.76,2.46-.76.84,0,1.56.16,2.15.48s1.04.71,1.34,1.16c.3.45.45.85.45,1.2,0,.25-.17.48-.5.67l-6.51,3.72c.35.67.83,1.18,1.43,1.52.6.34,1.31.51,2.12.51.45,0,.92-.11,1.42-.34.5-.22.89-.49,1.19-.8.1-.14.24-.21.42-.21s.33.06.45.18c.12.12.18.27.18.45,0,.14-.06.28-.17.42-.38.43-.89.79-1.54,1.08-.65.29-1.29.43-1.92.43-1.02,0-1.93-.23-2.73-.68ZM47.1,233.85c-.42-.24-.99-.36-1.7-.36-.67,0-1.27.19-1.81.56-.53.37-.95.87-1.25,1.5-.3.63-.46,1.32-.47,2.08,0,.28.01.5.04.67l6.11-3.38c-.2-.48-.5-.83-.92-1.07Z"/>
            <path d="M53.31,242.28c-.58-.33-1.02-.71-1.32-1.15-.3-.44-.45-.82-.45-1.12,0-.18.06-.33.18-.45.12-.12.27-.18.45-.18.31,0,.5.15.59.44.2.56.52.99.99,1.3s1.03.46,1.7.46,1.22-.18,1.66-.55.65-.8.65-1.3c0-.29-.07-.54-.2-.75-.13-.2-.37-.4-.71-.58-.34-.18-.84-.37-1.5-.57-1.13-.35-1.95-.76-2.46-1.22s-.76-1.07-.76-1.83.31-1.37.93-1.84,1.52-.7,2.68-.7c1.05,0,1.86.21,2.43.64.57.43.85,1.01.85,1.75,0,.34-.06.59-.17.77-.11.17-.27.26-.48.26-.18,0-.34-.06-.46-.18s-.19-.26-.19-.41c0-.07.01-.15.03-.23s.03-.16.03-.23c0-.38-.17-.67-.5-.89-.34-.22-.85-.33-1.53-.33-.76,0-1.34.12-1.75.37-.41.25-.62.59-.62,1.04s.18.78.54,1.03c.36.25.98.53,1.86.82.84.28,1.49.55,1.94.8.45.25.78.55.99.89.2.34.3.78.3,1.31s-.15,1.02-.45,1.49c-.3.48-.72.86-1.27,1.17-.55.3-1.18.45-1.89.45-.8,0-1.49-.17-2.07-.49Z"/>
            <path d="M62.46,246.56c-.13-.13-.2-.28-.2-.45v-13.21c0-.2.07-.36.2-.48.13-.13.29-.19.47-.19s.34.07.46.2.19.29.19.47v.86c.85-1.02,2.13-1.53,3.82-1.53.7,0,1.31.22,1.83.67s.91,1.03,1.18,1.74c.27.71.4,1.48.4,2.29,0,1.5-.35,2.81-1.05,3.94s-1.89,1.69-3.57,1.69c-.8,0-1.67-.2-2.6-.59v4.14c0,.17-.07.32-.2.45-.13.13-.28.2-.45.2-.18,0-.34-.07-.47-.2ZM68.83,240.1c.52-.76.79-1.82.79-3.16,0-.53-.08-1.07-.23-1.61s-.41-.99-.77-1.37c-.36-.37-.82-.56-1.38-.56-.92,0-1.69.19-2.31.58-.62.39-1.06.78-1.34,1.19v5.4c.99.45,1.9.67,2.73.67,1.15,0,1.98-.38,2.51-1.14Z"/>
            <path d="M75.67,242.09c-.65-.43-1.16-1.01-1.53-1.74-.37-.74-.56-1.55-.56-2.45,0-.95.21-1.86.64-2.73.43-.87,1.02-1.57,1.77-2.11.76-.54,1.59-.81,2.5-.81.78,0,1.5.21,2.15.64.65.43,1.16,1.01,1.53,1.74s.56,1.54.56,2.43c0,1.01-.22,1.95-.67,2.81-.45.87-1.05,1.56-1.8,2.08-.75.52-1.56.78-2.43.78-.8,0-1.52-.21-2.17-.64ZM79.63,240.93c.53-.41.96-.94,1.28-1.62.32-.67.48-1.39.48-2.14,0-.66-.13-1.27-.4-1.84-.27-.57-.63-1.02-1.08-1.37s-.96-.51-1.52-.51c-.62,0-1.19.21-1.71.62-.52.41-.94.96-1.26,1.64-.32.68-.47,1.4-.47,2.15s.14,1.37.41,1.92c.27.55.64.98,1.1,1.29.46.31.95.46,1.47.46.6,0,1.17-.2,1.7-.61Z"/>
            <path d="M86.4,242.54c-.13-.13-.2-.27-.2-.42v-9.26c0-.18.07-.33.2-.45.13-.12.29-.18.47-.18s.34.06.46.18.19.27.19.45v3.32c.41-1.26.97-2.23,1.69-2.91.72-.68,1.54-1.02,2.45-1.02.77,0,1.38.2,1.83.59.45.39.77,1.01.97,1.86.2.85.29,1.99.29,3.41s0,2.32-.02,2.75v1.2c0,.18-.06.34-.18.47-.12.13-.27.2-.45.2-.17,0-.31-.07-.44-.2-.13-.13-.19-.28-.19-.45v-1.18c-.01-.43-.02-1.34-.02-2.71s-.07-2.29-.2-2.96c-.13-.67-.34-1.13-.61-1.38-.27-.24-.66-.37-1.17-.37-.48,0-.95.17-1.41.53-.46.35-.87.85-1.22,1.49-.46.84-.79,1.63-1,2.37-.2.74-.31,1.51-.33,2.29l-.02,1.87c0,.2-.06.36-.18.49-.12.13-.27.2-.45.2s-.34-.06-.47-.19Z"/>
            <path d="M99.27,242.28c-.58-.33-1.02-.71-1.32-1.15-.3-.44-.45-.82-.45-1.12,0-.18.06-.33.18-.45.12-.12.27-.18.45-.18.31,0,.5.15.59.44.2.56.52.99.99,1.3s1.03.46,1.7.46,1.22-.18,1.66-.55.65-.8.65-1.3c0-.29-.07-.54-.2-.75-.13-.2-.37-.4-.71-.58-.34-.18-.84-.37-1.5-.57-1.13-.35-1.95-.76-2.46-1.22s-.76-1.07-.76-1.83.31-1.37.93-1.84,1.52-.7,2.68-.7c1.05,0,1.86.21,2.43.64.57.43.85,1.01.85,1.75,0,.34-.06.59-.17.77-.11.17-.27.26-.48.26-.18,0-.34-.06-.46-.18s-.19-.26-.19-.41c0-.07.01-.15.03-.23s.03-.16.03-.23c0-.38-.17-.67-.5-.89-.34-.22-.85-.33-1.53-.33-.76,0-1.34.12-1.75.37-.41.25-.62.59-.62,1.04s.18.78.54,1.03c.36.25.98.53,1.86.82.84.28,1.49.55,1.94.8.45.25.78.55.99.89.2.34.3.78.3,1.31s-.15,1.02-.45,1.49c-.3.48-.72.86-1.27,1.17-.55.3-1.18.45-1.89.45-.8,0-1.49-.17-2.07-.49Z"/>
            <path d="M108.44,242.53c-.14-.13-.21-.29-.21-.47l.13-9.11c0-.18.07-.34.21-.48.14-.14.3-.21.48-.21s.34.07.47.2c.13.13.2.3.2.49l-.13,9.11c0,.18-.07.34-.2.47-.13.13-.29.2-.47.2s-.34-.07-.48-.2ZM108.59,230.41c-.13-.13-.19-.28-.19-.46l.02-.86c0-.17.07-.31.21-.44.14-.13.29-.19.46-.19s.31.07.44.2c.13.13.19.28.19.45l-.02.86c0,.18-.07.33-.2.45-.13.12-.28.18-.45.18-.18,0-.34-.06-.46-.19Z"/>
            <path d="M114.04,242.55c-.13-.12-.2-.26-.2-.43v-13.23c0-.17.07-.31.2-.42.13-.11.29-.17.47-.17.17,0,.31.06.44.17.13.11.19.25.19.42v5.14c.45-.52.99-.92,1.64-1.2.64-.28,1.32-.42,2.02-.42,1.11,0,1.99.42,2.67,1.25.67.83,1.01,1.96,1.01,3.37,0,1.67-.38,3.01-1.14,4.02-.76,1.02-1.91,1.52-3.43,1.52-.48,0-.97-.06-1.47-.18-.5-.12-.94-.25-1.3-.41v.17c0,.14-.06.27-.19.39s-.27.18-.44.18-.32-.06-.45-.18ZM121.21,237.04c0-1.04-.22-1.84-.66-2.43-.44-.58-1.03-.87-1.77-.87-.67,0-1.28.13-1.84.38s-.99.6-1.31,1.03-.48.91-.48,1.43v4.22c.27.11.64.23,1.12.35.48.12.97.18,1.46.18,2.32,0,3.49-1.43,3.49-4.28Z"/>
            <path d="M126.12,242.53c-.14-.13-.21-.29-.21-.47l.13-9.11c0-.18.07-.34.21-.48.14-.14.3-.21.48-.21s.34.07.47.2c.13.13.2.3.2.49l-.13,9.11c0,.18-.07.34-.2.47-.13.13-.29.2-.47.2s-.34-.07-.48-.2ZM126.27,230.41c-.13-.13-.19-.28-.19-.46l.02-.86c0-.17.07-.31.21-.44.14-.13.29-.19.46-.19s.31.07.44.2c.13.13.19.28.19.45l-.02.86c0,.18-.07.33-.2.45-.13.12-.28.18-.45.18-.18,0-.34-.06-.46-.19Z"/>
            <path d="M131.73,242.55c-.14-.12-.21-.25-.21-.41v-13.21c0-.18.06-.33.19-.45.13-.12.29-.18.48-.18.17,0,.32.06.45.19.13.13.2.27.2.44v13.21c0,.15-.07.29-.2.41-.13.12-.28.18-.45.18s-.32-.06-.46-.18Z"/>
            <path d="M137.17,242.53c-.14-.13-.21-.29-.21-.47l.13-9.11c0-.18.07-.34.21-.48.14-.14.3-.21.48-.21s.34.07.47.2c.13.13.2.3.2.49l-.13,9.11c0,.18-.07.34-.2.47-.13.13-.29.2-.47.2s-.34-.07-.48-.2ZM137.32,230.41c-.13-.13-.19-.28-.19-.46l.02-.86c0-.17.07-.31.21-.44.14-.13.29-.19.46-.19s.31.07.44.2c.13.13.19.28.19.45l-.02.86c0,.18-.07.33-.2.45-.13.12-.28.18-.45.18-.18,0-.34-.06-.46-.19Z"/>
            <path d="M143.29,242.56c-.13-.13-.2-.27-.2-.44v-8.57h-2.33c-.18,0-.34-.07-.46-.2-.13-.13-.19-.29-.19-.47,0-.2.07-.35.21-.47s.3-.18.48-.18h2.29v-2.88c0-.18.07-.34.2-.47.13-.13.29-.2.47-.2.2,0,.35.07.47.2.12.13.18.29.18.47v2.88h2.35c.2,0,.36.06.48.19s.19.28.19.46-.07.34-.2.47c-.13.13-.29.2-.47.2h-2.35v8.57c0,.17-.07.32-.2.44-.13.13-.28.19-.45.19-.18,0-.34-.06-.47-.19Z"/>
            <path d="M149.94,246.61c-.13-.13-.19-.29-.19-.47,0-.1.03-.2.08-.29l2.04-4.45-4.07-8.13c-.06-.14-.08-.26-.08-.36,0-.2.07-.36.2-.48.13-.13.29-.19.47-.19.14,0,.27.04.38.13.11.08.2.19.25.31l3.57,7.16,3.3-7.2c.14-.28.35-.42.63-.42.18,0,.34.06.46.19.13.13.19.28.19.46,0,.13-.02.22-.06.29l-6.07,13.23c-.15.28-.36.42-.63.42-.18,0-.34-.07-.46-.2Z"/>
            <path d="M158.92,242.48c-.14-.17-.21-.37-.21-.61,0-.27.09-.5.27-.7s.39-.3.63-.3c.21,0,.39.08.54.24.15.16.22.35.22.58,0,.29-.09.54-.27.75-.18.2-.39.3-.63.3-.22,0-.41-.08-.55-.25Z"/>
          </g>
          <g>
            <path class="cls-21" d="M181.63,70.34h4.97v4.97h-4.97v-4.97Z"/>
            <path class="cls-30" d="M324.38,115.74h4.97v4.97h-4.97v-4.97Z"/>
            <path class="cls-45" d="M148.86,289.12h4.97v4.97h-4.97v-4.97Z"/>
            <circle class="cls-21" cx="100.92" cy="268.09" r="6.22"/>
            <circle class="cls-45" cx="300.87" cy="75.77" r="6.22"/>
            <circle class="cls-30" cx="40.75" cy="271.16" r="6.22"/>
            <path class="cls-21" d="M341.21,82.97l8.04,4.4-8.04,4.4-4.4,8.04-4.4-8.04-8.04-4.4,8.04-4.4,4.4-8.04,4.4,8.04Z"/>
            <path class="cls-30" d="M250.39,68.43l8.04,4.4-8.04,4.4-4.4,8.04-4.4-8.04-8.04-4.4,8.04-4.4,4.4-8.04,4.4,8.04Z"/>
            <path class="cls-45" d="M82.57,306.71l8.04,4.4-8.04,4.4-4.4,8.04-4.4-8.04-8.04-4.4,8.04-4.4,4.4-8.04,4.4,8.04Z"/>
          </g>
        </g>
      </g>
    </g>
  </g>
</svg>