<?xml version="1.0" encoding="UTF-8"?>
<svg xmlns="http://www.w3.org/2000/svg" xmlns:xlink="http://www.w3.org/1999/xlink" viewBox="0 0 371.45 320.99">
  <defs>
    <style>
      .cls-1 {
        fill: #517f63;
        stroke-width: 1.1px;
      }

      .cls-1, .cls-2, .cls-3 {
        stroke: #27190f;
      }

      .cls-1, .cls-2, .cls-3, .cls-4 {
        stroke-linecap: round;
        stroke-linejoin: round;
      }

      .cls-5, .cls-6, .cls-7, .cls-8, .cls-9, .cls-10 {
        mix-blend-mode: multiply;
      }

      .cls-5, .cls-7, .cls-10 {
        opacity: .2;
      }

      .cls-11 {
        fill: #29150e;
      }

      .cls-12 {
        fill: #ff6d3a;
      }

      .cls-13, .cls-6 {
        fill: #64bf90;
      }

      .cls-14 {
        fill: #c6d6d4;
      }

      .cls-6 {
        opacity: .5;
      }

      .cls-15 {
        fill: #fff;
      }

      .cls-16 {
        fill: #e2a07a;
      }

      .cls-17 {
        fill: #f9be49;
      }

      .cls-18, .cls-2, .cls-4 {
        fill: none;
      }

      .cls-19 {
        fill: url(#radial-gradient-5);
      }

      .cls-20 {
        fill: url(#radial-gradient);
      }

      .cls-21 {
        fill: url(#radial-gradient-3);
      }

      .cls-22 {
        fill: #f0a37e;
      }

      .cls-7 {
        fill: #127965;
      }

      .cls-23 {
        fill: #faf3f7;
      }

      .cls-24 {
        isolation: isolate;
      }

      .cls-25 {
        fill: #6d2d1d;
      }

      .cls-26, .cls-10 {
        fill: #13917c;
      }

      .cls-8 {
        fill: #4d1831;
        opacity: .1;
      }

      .cls-2, .cls-3 {
        stroke-width: .87px;
      }

      .cls-27 {
        fill: url(#radial-gradient-2);
      }

      .cls-3 {
        fill: #281b12;
      }

      .cls-9 {
        fill: #385f49;
        opacity: .26;
      }

      .cls-28 {
        fill: url(#radial-gradient-4);
      }

      .cls-29 {
        fill: #ffe649;
      }

      .cls-30 {
        fill: #d05546;
      }

      .cls-31 {
        fill: #27190f;
      }

      .cls-32 {
        fill: #b6a4ce;
      }

      .cls-4 {
        stroke: #281b12;
        stroke-width: .8px;
      }

      .cls-33 {
        clip-path: url(#clippath);
      }

      .cls-34 {
        fill: #d58055;
      }
    </style>
    <clipPath id="clippath">
      <rect class="cls-18" width="371.45" height="264.36" rx="20" ry="20"/>
    </clipPath>
    <radialGradient id="radial-gradient" cx="1441.64" cy="-4495.12" fx="1441.64" fy="-4495.12" r="6.07" gradientTransform="translate(3852.82 3457.41) rotate(-63.74) scale(1.01 1.03) skewX(2.46)" gradientUnits="userSpaceOnUse">
      <stop offset="0" stop-color="#efb38d"/>
      <stop offset="1" stop-color="#eebe8c"/>
    </radialGradient>
    <radialGradient id="radial-gradient-2" cx="-1134.11" cy="-4219.98" fx="-1134.11" fy="-4219.98" r="11.23" gradientTransform="translate(4163.74 2497.36) rotate(-42.83) scale(1.03 1.01) skewX(2.4)" xlink:href="#radial-gradient"/>
    <radialGradient id="radial-gradient-3" cx="18026.45" cy="5758.77" fx="18026.45" fy="5758.77" r="59.54" gradientTransform="translate(19099.61 -1704.81) rotate(-167.74) scale(1 -1)" xlink:href="#radial-gradient"/>
    <radialGradient id="radial-gradient-4" cx="7023.74" cy="-3149.32" fx="7023.74" fy="-3149.32" r="5.73" gradientTransform="translate(7836.58 -1217.17) rotate(144.62) scale(1.01 -1.03) skewX(2.46)" xlink:href="#radial-gradient"/>
    <radialGradient id="radial-gradient-5" cx="4560.65" cy="-4956.47" fx="4560.65" fy="-4956.47" r="10.6" gradientTransform="translate(6937.98 -757.96) rotate(123.7) scale(1.03 -1.01) skewX(2.4)" xlink:href="#radial-gradient"/>
  </defs>
  <g class="cls-24">
    <g id="Layer_2" data-name="Layer 2">
      <g id="Layer_1-2" data-name="Layer 1">
        <g>
          <rect class="cls-17" y="14.36" width="371.45" height="250" rx="20" ry="20"/>
          <g class="cls-33">
            <g>
              <ellipse class="cls-8" cx="264.23" cy="307.03" rx="79.01" ry="13.97"/>
              <g>
                <path class="cls-26" d="M230,229.29c.82,1.88,5.61,4.88,10.28-4.58,1.26-2.55,2.51-6,3.67-10.62,2.4-9.56,2.42-20.35,1.68-29.45-.94-11.63-3.12-20.48-3.12-20.48,0,0-6.08,3.41-7.97,11.14-1.88,7.73-1.37,22.35-2.31,28.68-.94,6.33-3.27,22.93-2.24,25.32Z"/>
                <path class="cls-4" d="M230,229.29c.82,1.88,5.61,4.88,10.28-4.58,1.26-2.55,2.51-6,3.67-10.62,2.4-9.56,2.42-20.35,1.68-29.45-.94-11.63-3.12-20.48-3.12-20.48,0,0-6.08,3.41-7.97,11.14-1.88,7.73-1.37,22.35-2.31,28.68-.94,6.33-3.27,22.93-2.24,25.32Z"/>
                <path class="cls-7" d="M231.75,223.56c-.04,2.81,3.91,3.04,8.53,1.16,1.26-2.55,2.51-6,3.67-10.62,2.4-9.56,2.42-20.35,1.68-29.45-3.45-3.68-5.35-1.26-5.35-1.26,0,0-.2,18.29-.89,20.57-.68,2.28-7.52,11.97-7.64,19.6Z"/>
                <g>
                  <path class="cls-26" d="M237.03,264.67c1.31,1.46,9.56,3.44,19.08,4.66.42.05.84.11,1.27.16.55.07,1.11.13,1.66.19.15.02.3.03.45.05.55.06,1.09.11,1.64.16.34.03.68.06,1.02.09.68.06,1.36.11,2.04.16.33.03.67.05,1,.07h.01c.34.02.67.04,1.01.06.34.02.67.04,1.01.05.26.01.53.03.79.03.21.01.41.02.62.02,4.77.17,9.24.02,12.71-.62,13.39-2.46,31.11-26.56,33.46-34.48,1.39-4.68.43-27.44-.58-45.23-.15-2.71-.31-5.31-.46-7.71-.02-.27-.03-.54-.05-.81-.5-8.02-.91-13.64-.91-13.64,0,0-3.54-5.19-8.54-7.53-5-2.35-22.13-4.57-22.61-4.98-.48-.41-2.11-5.1-3.5-5.69-1.39-.59-6.33,1.87-9.22,2.17-.14.01-.28.02-.44.03-.4.02-.84,0-1.32-.01-3.2-.15-7.81-1.03-8.31-.25-.6.94-.96,5.69-.96,5.69,0,0-15.98,5.69-17.66,8.86-1.69,3.17,2.23,44.15,2.23,52.06,0,3.92-1.95,14.66-3.62,24.85-.27,1.64-.53,3.27-.77,4.84-1.3,8.42-2.12,15.55-1.04,16.75Z"/>
                  <path class="cls-26" d="M238.84,243.08c3.48.82,8.07,1.07,11.72-1.58,6.84-4.97,9.85-18.83,10.74-20.45.89-1.61,12.11-.86,30.23-16.18,9.72-8.21,17.27-16.97,22.18-23.33-.5-8.02-.91-13.64-.91-13.64,0,0-3.54-5.19-8.54-7.53-5-2.35-22.13-4.57-22.61-4.98-.48-.41-2.11-5.1-3.5-5.69-1.39-.59-6.33,1.87-9.22,2.17-.14.01-.28.02-.44.03-.4.02-.84,0-1.32-.01-3.2-.15-7.81-1.03-8.31-.25-.6.94-.96,5.69-.96,5.69,0,0-15.98,5.69-17.66,8.86-1.69,3.17,2.23,44.15,2.23,52.06,0,3.92-1.95,14.66-3.62,24.85Z"/>
                  <path class="cls-4" d="M237.03,264.67c1.31,1.46,9.56,3.44,19.08,4.66.42.05.84.11,1.27.16.55.07,1.11.13,1.66.19.15.02.3.03.45.05.55.06,1.09.11,1.64.16.34.03.68.06,1.02.09.68.06,1.36.11,2.04.16.33.03.67.05,1,.07h.01c.34.02.67.04,1.01.06.34.02.67.04,1.01.05.26.01.53.03.79.03.21.01.41.02.62.02,4.77.17,9.24.02,12.71-.62,13.39-2.46,31.11-26.56,33.46-34.48,1.39-4.68.43-27.44-.58-45.23-.15-2.71-.31-5.31-.46-7.71-.02-.27-.03-.54-.05-.81-.5-8.02-.91-13.64-.91-13.64,0,0-3.54-5.19-8.54-7.53-5-2.35-22.13-4.57-22.61-4.98-.48-.41-2.11-5.1-3.5-5.69-1.39-.59-6.33,1.87-9.22,2.17-.14.01-.28.02-.44.03-.4.02-.84,0-1.32-.01-3.2-.15-7.81-1.03-8.31-.25-.6.94-.96,5.69-.96,5.69,0,0-15.98,5.69-17.66,8.86-1.69,3.17,2.23,44.15,2.23,52.06,0,3.92-1.95,14.66-3.62,24.85-.27,1.64-.53,3.27-.77,4.84-1.3,8.42-2.12,15.55-1.04,16.75Z"/>
                  <path class="cls-7" d="M246.58,228.45c1.34,4.02,11.88,8.87,23.93,4.35,12.05-4.52,16.23-23.09,17.74-32.13.04-.25.08-.49.12-.73.22-1.35.43-2.53.61-3.57.15-.83,1.37-.72,1.37.12v12.04s.42,2.66.15,6.69h0c.03.33,1.45,16.12-6.12,24.91-7.66,8.88-12.46,6.86-13.57,7.87-1.1,1.01,4.12,4.35,4.12,4.35l-18.82,16.98c.42.05.84.11,1.27.16.55.07,1.11.13,1.66.19.15.02.3.03.45.05.55.06,1.09.11,1.64.16.34.03.68.06,1.02.09.68.06,1.36.11,2.04.16.33.03.67.05,1,.07h.01c.34.02.67.04,1.01.06.34.02.67.04,1.01.05.26.01.53.03.79.03.21.01.41.02.62.02,4.77.17,9.24.02,12.71-.62,13.39-2.46,31.11-26.56,33.46-34.48,1.39-4.68.43-27.44-.58-45.23-.64-.45-1.27-.88-1.88-1.27-12.72-8.2-21-8.21-21-8.21,0,0-1.02,8.13-3.2,17.65-2.1,9.16-5.26,19.62-9.61,25.37-8.87,11.71-22.08,10.37-26.86,5.35-4.77-5.02-6.45-4.52-5.11-.5Z"/>
                  <path class="cls-10" d="M257.9,157.32s1.46,6.19,7.41,6.63h0c.42.03.86.01,1.32-.04,6.04-.75,15.02-8.53,15.02-8.53-.48-.41-2.11-5.1-3.5-5.69-1.39-.59-6.33,1.87-9.22,2.17-.14.01-.28.03-.44.03-.4.02-.84.01-1.32-.01-3.21-.15-7.81-1.03-8.31-.25-.6.94-.96,5.69-.96,5.69Z"/>
                  <path class="cls-10" d="M265.02,188.7c.03.35.27.65.65.65.33,0,.68-.3.66-.65-.23-2.87-.43-5.73-.52-8.6-.16-5.09.1-10.16.7-15.21.04-.32.08-.65.12-.97-.46.05-.9.07-1.32.04-.39,3.12-.67,6.25-.8,9.39-.2,5.12.09,10.25.5,15.36Z"/>
                  <path class="cls-32" d="M265.31,163.95c.42.03.86.01,1.32-.04.5-4.02,1.17-8.02,1.86-12.02-.4.02-.84.01-1.32-.01-.36,2.07-.71,4.15-1.03,6.23-.3,1.94-.58,3.89-.83,5.85Z"/>
                  <g class="cls-5">
                    <circle class="cls-26" cx="269.72" cy="167.71" r="1.53"/>
                    <circle class="cls-26" cx="269.16" cy="177.07" r="1.53"/>
                    <circle class="cls-26" cx="269.72" cy="186.7" r="1.53"/>
                  </g>
                  <path class="cls-7" d="M256.11,269.33c.42.05.84.11,1.27.16.55.07,1.11.13,1.66.19.15.02.3.03.45.05.55.06,1.09.11,1.64.16.34.03.68.06,1.02.09.68.06,1.36.11,2.04.16.33.03.67.05,1,.07h.01c.34.02.67.04,1.01.06.34.02.67.04,1.01.05.26.01.53.03.79.03.21.01.41.02.62.02,4.77.17,9.24.02,12.71-.62,13.39-2.46,31.11-26.56,33.46-34.48,1.39-4.68.43-27.44-.58-45.23-.15-2.71-.31-5.31-.46-7.71-11.48-8.19-25.11-12.8-27.23-10.17-1.2,1.48.17,14.66,1.62,26.05.07.58.14,1.15.22,1.72,1.08,8.33,2.13,15.28,2.13,15.28h0c.03.33,1.45,16.12-6.12,24.91-7.66,8.88-12.46,6.86-13.57,7.87-1.1,1.01,4.12,4.35,4.12,4.35l-18.82,16.98Z"/>
                </g>
                <path class="cls-7" d="M276.74,178.6s1.58,22.21-9.11,44.27c-10.69,22.06-29.11,22.21-29.11,22.21l.69-4.23,2.99-36.58-1.05-7.38s8.85-3.87,12.92-7.54c4.08-3.67,6.34-10.75,6.34-10.75l2.85,8.01,13.47-8.01Z"/>
                <g>
                  <path class="cls-14" d="M329.08,306.94c-1.38.59-17.47,2.75-21.22,4.25.12-2.79-23.18-13.16-22.37-17.31,1.84-4.09,17.56-3.57,24.23-5.48,0,0,10.08-2.24,20.46,9.97,2.53,2.97,1.39,7.51-1.11,8.58Z"/>
                  <path class="cls-4" d="M329.08,306.94c-1.38.59-17.47,2.75-21.22,4.25.12-2.79-23.18-13.16-22.37-17.31,1.84-4.09,17.56-3.57,24.23-5.48,0,0,10.08-2.24,20.46,9.97,2.53,2.97,1.39,7.51-1.11,8.58Z"/>
                  <path class="cls-26" d="M311.83,311.34c-4.87-.98-95.92,8.63-105.5-4.08-21.05-26.48,9.3-44.19,31.1-58.26h72.34c1.26,15.36.65,24.47-7.11,35.34t0,0c-.72.92-1.4,1.68-2.21,2.44h0c-.67.62-1.38,1.21-2.17,1.65-.03.01-.04.03-.06.03h0c.95.21,6.73,1.53,9.12,5.89,2.5,4.63,5.62,16.55,4.5,16.97Z"/>
                  <path class="cls-4" d="M309.76,249.01c1.26,15.36.65,24.47-7.11,35.34t0,0c-.72.92-1.4,1.68-2.21,2.44h0c-.67.62-1.38,1.21-2.17,1.65-.03.01-.04.03-.06.03h0c.95.21,6.73,1.53,9.12,5.89,2.5,4.63,5.62,16.55,4.5,16.97-4.87-.98-95.92,8.63-105.5-4.08-21.05-26.48,9.3-44.19,31.1-58.26"/>
                  <path class="cls-7" d="M312.26,310.91c-1.12.42-90.45,4.63-99.94,0-2.12-1.03-3.98-2.42-5.56-4.08,1.04.03,2.19.14,3.46.34,31.55,4.76,64.82-2.34,62.32-8.52-2.5-6.18-26.07-8.91-26.07-8.91,0,0,12.16-2.81,21.99-9.17,9.83-6.36,9.85-20.39,8.44-26.09-.45-1.83-2.02-3.23-3.94-4.29-1.2-.66-2.54-1.19-3.83-1.61h41.06c.7,8.65.77,16.64-.55,21.37-.79,2.8-1.67,5.2-2.59,7.23-.07.16-.15.32-.22.48-.26.56-.52,1.08-.78,1.58-.08.14-.15.28-.22.42-.23.42-.45.81-.67,1.19-.08.13-.15.25-.22.37-.11.18-.22.36-.33.54-.11.17-.22.34-.33.51-.11.17-.22.33-.33.48-.07.1-.15.21-.22.31-.07.1-.14.2-.22.3-.14.19-.28.38-.42.56t0,0c-.4.52-.79.97-1.16,1.38-.14.15-.27.3-.41.43-.22.23-.43.44-.64.63h0c-.14.13-.28.26-.41.37-.13.11-.26.22-.38.32-.09.08-.19.15-.27.22-.07.05-.13.1-.19.14-.06.05-.12.09-.18.13-.08.05-.14.1-.21.15-.05.03-.09.06-.14.09-.02.01-.04.03-.06.04-.08.05-.15.09-.21.13-.02,0-.03.02-.04.02-.03.02-.06.04-.08.05h0s-.04.02-.05.03c0,0,0,0-.01,0h0s0,0,.01,0c0,0,0,0,.01,0,.02,0,.04,0,.07.01,0,0,0,0,.01,0,.84.18,6.7,1.58,9.02,5.87,2.5,4.63,5.62,16.55,4.5,16.97Z"/>
                  <path class="cls-7" d="M309.64,269.95c-.79,2.8-1.67,5.2-2.59,7.23-.07.16-.15.32-.22.48-.26.56-.52,1.08-.78,1.58-.08.14-.15.28-.22.42-.23.42-.45.81-.67,1.19-.08.13-.15.25-.22.37-.11.18-.22.36-.33.54-.11.17-.22.34-.33.51-.11.17-.22.33-.33.48-.07.1-.15.21-.22.31-.07.1-.14.2-.22.3-.14.19-.29.38-.42.56t0,0c-.4.52-.79.97-1.16,1.38-.14.15-.27.29-.41.43-.22.23-.43.44-.64.63h0c-.14.13-.28.25-.41.37-.13.11-.26.22-.38.32-.09.08-.19.15-.27.22-.07.05-.13.1-.19.14-.06.05-.12.09-.18.13-.08.05-.14.1-.21.15-.05.03-.09.06-.14.09-.02.01-.04.03-.06.04-.08.05-.15.09-.21.13-.02,0-.03.02-.04.02-.03.02-.06.03-.08.05h0s-.04.02-.05.03c0,0,0,0,0,0,0,0,0,0,0,0,0,0,0,0,.01,0,.02,0,.04,0,.07.01-23.13-1.85-49.31,1.05-49.31,1.05,0,0,14.49-2.37,31.48-10.79,16.99-8.43,15.24-28.22,15.24-28.22l7.07-1.52h6.97c.7,8.65.77,16.64-.55,21.37Z"/>
                  <path class="cls-10" d="M298.21,288.48s.03,0,.1.02c-14.54,0-34.41.91-45.06,2.41-15.89,2.25-16.76.56-4.43-2.43,12.33-2.99,49.39,0,49.39,0Z"/>
                  <path class="cls-7" d="M202.52,281s5.25,4.96,18.99,6.15c13.74,1.19,16.37.66,15.62,2.4-.04.1-26.55.6-34.6-8.55Z"/>
                  <path class="cls-7" d="M249,249.01c.58.65,4.41,4.12,4.33,5.14-.08,1.03-15.99,10.01-20.4,16.18-4.41,6.17-3.66,6.27-3.16,5.99.5-.28,22.49-20.58,23.99-21.23,1.5-.65,17.06,1.12,17.82.28.76-.84-16.73-1.31-17.23-1.68-.5-.37-5.33-4.68-5.33-4.68Z"/>
                </g>
                <g>
                  <path class="cls-20" d="M249.54,273.63c-.61-.3-.78-1.07-.32-1.58.44-.49,1.12-1.01,2.07-1.21,2.04-.42,6.13-1.45,7.34-2.24,1.22-.79,5.48-2,6.31-1.9s-3.47,7.31-5.67,9.35c-1.94,1.79-6.86-1.03-9.73-2.43Z"/>
                  <path class="cls-2" d="M249.54,273.63c-.61-.3-.78-1.07-.32-1.58.44-.49,1.12-1.01,2.07-1.21,2.04-.42,5.94-1.87,7.34-2.24,1.92-.5,5.66-1.39,6.48-1.29s-3.65,6.71-5.85,8.74c-1.94,1.79-6.86-1.03-9.73-2.43Z"/>
                  <g>
                    <path class="cls-27" d="M267.46,266.69s-7.73,1.14-10.72,2.81c-2.99,1.67-4.93,3.57-5.95,4.64-1.03,1.06-2.98,4.51-3.17,5.31-.25,1.06.76,3.11,2.8,1.66,0,0-1.88,2.24-.38,3.27,1.51,1.03,2.34-.64,3.12-1.25.82-.63,4.2-4.5,5.39-4.19,0,0-4.81,5.31-5.14,6.95-.34,1.64.12,1.67.96,1.88.84.21,2.68-.77,3.55-1.89,1.52-1.96,3.6-2.67,3.6-2.67,0,0-3.59,4.49-4.61,5.44-1.03.95.19,1.81,1.5,1.37,1.31-.44,3.82-1.89,5.93-3.51,2.1-1.62,8.26-6.86,9.67-11.72,1.41-4.85-3.17-8-6.56-8.12Z"/>
                    <path class="cls-22" d="M250.14,283.77c1.31-.06,2.13-1.08,2.8-2.05.4-.59.8-1.13,1.36-1.6.56-.46,1.17-.88,1.82-1.22.49-.26,1.05-.54,1.63-.48.11.01.21.04.32.06-1.44.48-4.18,3.58-4.91,4.14-.79.61-1.62,2.28-3.12,1.25-.05-.04-.1-.08-.14-.12.08,0,.17.01.25,0Z"/>
                    <path class="cls-31" d="M252.07,277.8c1.03-1.16,2.65-2.81,4.34-2.63-2.47,1.53-4.5,3.66-5.72,6.26-.88.45-1.52.23-1.92-.22.33-.06.66-.19.97-.41,1.07-.78,1.48-2.04,2.33-2.99Z"/>
                    <path class="cls-22" d="M254.38,286.91c1.01-.2,1.79-1.02,2.46-1.72.76-.8,1.5-1.72,2.53-2.21.5-.24,1.01-.32,1.54-.19.09.02.17.04.26.07-.66.29-2.12,1.05-3.26,2.53-.86,1.12-2.7,2.1-3.55,1.89-.4-.1-.71-.16-.89-.37.28.06.58.08.9.01Z"/>
                    <path class="cls-22" d="M259.32,288.74c1.07-.52,2.05-1.23,2.96-2,3.15-2.04,5.73-4.82,7.83-7.83,1.16-1.67,2.28-3.37,3.07-5.24.37-.87.7-1.79.87-2.72.3.99.33,2.12-.03,3.35-1.41,4.85-7.57,10.1-9.67,11.72-2.1,1.62-4.62,3.07-5.93,3.51-.58.2-1.14.13-1.49-.08.84-.07,1.65-.34,2.4-.71Z"/>
                    <path class="cls-2" d="M267.46,266.69s-7.73,1.14-10.72,2.81c-2.99,1.67-4.93,3.57-5.95,4.64-1.03,1.06-2.98,4.51-3.17,5.31-.25,1.06.76,3.11,2.8,1.66,0,0-1.88,2.24-.38,3.27,1.51,1.03,2.34-.64,3.12-1.25.82-.63,4.2-4.5,5.39-4.19,0,0-4.81,5.31-5.14,6.95-.34,1.64.12,1.67.96,1.88.84.21,2.68-.77,3.55-1.89,1.52-1.96,3.6-2.67,3.6-2.67,0,0-3.59,4.49-4.61,5.44-1.03.95.19,1.81,1.5,1.37,1.31-.44,3.82-1.89,5.93-3.51,2.1-1.62,8.26-6.86,9.67-11.72,1.41-4.85-3.17-8-6.56-8.12Z"/>
                  </g>
                  <path class="cls-26" d="M266.1,268.84s0,0,0,0c1.97,1.6,4.18,3.2,5.49,4.21,2.98,2.3,3.72,3.12,6.03,2.83.18-.02.51-.16.96-.4,5.24-2.74,27.25-18.83,33.55-25.34,6.84-7.07,8.03-13.83,8.92-18.67.89-4.83.22-14.8-.45-19.71-.67-4.91-5.35-35.7-8.18-43.58-.5-1.41-1.33-2.65-2.36-3.73-1.3-1.38-2.8-2.38-4.39-3.02-.06-.02-1.12-.28-2.64-.32-3.51-.08-9.46,1.09-11.29,9.49-2.63,12.16,6.29,59.58,6.07,60.58-.22,1.01-28.23,27.48-30.68,30.38-2.45,2.9-3.33,4.81-1.03,7.27Z"/>
                  <path class="cls-7" d="M266.1,268.84s0,0,0,0c1.97,1.6,4.18,3.2,5.49,4.21,2.98,2.3,3.72,3.12,6.03,2.83.18-.02.51-.16.96-.4-.28-7.41-12-7.38-12.61-8.88-.61-1.51,3.35-5.97,9.13-11.71,5.79-5.75,22.68-22.07,22.68-22.07,0,0,.78-.19,2.86.41,2.08.6,7.4,2.94,7.96,2.86.56-.07-.52-1.6-3.31-3.05-2.79-1.45-7.55-.63-7.55-.63,0,0,.82-.59,1.49-.89.67-.3,2.42-.33,5.54.49,3.12.82,8.85,5.02,9.3,4.87.45-.15-2.53-3.2-6.62-4.76-4.09-1.56-8.18-1.04-8.18-1.04,0,0-2.68-14.58-4.69-30.34-2.01-15.77-1.78-28.34,1.34-35.33,1.2-2.69,4.06-3.86,7.12-4.28-3.51-.08-9.46,1.09-11.29,9.49-2.63,12.16,6.29,59.58,6.07,60.58-.22,1.01-28.23,27.48-30.68,30.38-2.45,2.9-3.33,4.81-1.03,7.27Z"/>
                  <path class="cls-4" d="M291.75,170.6c-2.63,12.16,6.29,59.58,6.07,60.58-.22,1.01-28.23,27.48-30.68,30.38-2.45,2.9-3.33,4.81-1.03,7.27t0,0c1.97,1.6,4.18,3.2,5.49,4.21,2.98,2.3,3.72,3.12,6.03,2.83.18-.02.51-.16.96-.4,5.24-2.74,27.25-18.83,33.55-25.34,6.84-7.07,8.03-13.83,8.92-18.67.89-4.83.22-14.8-.45-19.71-.67-4.91-5.35-35.7-8.18-43.58-.5-1.41-1.33-2.65-2.36-3.73-1.3-1.38-2.8-2.38-4.39-3.02-.06-.02-1.12-.28-2.64-.32"/>
                </g>
              </g>
              <g>
                <path class="cls-9" d="M243.52,168.62s1.08,2.52,4.5,7.72c3.42,5.19,7.96,10.98,26.52-2.23,18.55-13.21,34.85-9.03,34.85-9.03-4.37-7.16-20.51-3.82-31.55,1.76-4.65,2.35-7.32,3.98-15.68,9.51-10.65,7.04-14.5-7.53-18.66-10.52.19,1.02.02,2.79.02,2.79Z"/>
                <g>
                  <g>
                    <path class="cls-21" d="M233.47,148.83h0c.42.11.84.21,1.26.31,0,0,0,0,0,0,6.1,1.42,12.62,1.86,19.06,1.04,33.8-4.32,42.89-20.83,43.85-24.14,3.1.85,5.89,1.06,8.38.76,16-1.91,19.36-24.55,8.61-29.48-1.04-.48-2.2-.79-3.5-.9-6.61-51.72-36.9-61.96-61.5-58.82-2.71.35-6.92,1.29-11.74,3.03-.18.06-.35.13-.53.19-16.97,6.24-40.92,22.08-33.61,55.07,2.6,11.72-.73,14.46.56,27.33,1.14,11.42,13.67,21.62,29.16,25.6Z"/>
                    <path class="cls-16" d="M233.47,148.83h0c.42.11.84.21,1.26.31-22.41-9-29.56-21.97-27.87-34.91,1.68-12.94-.62-17.06-1.85-26.64-3.85-30.14,33.13-46.57,33.13-46.57,0,0-.27-.07-.78-.19-16.97,6.24-40.92,22.08-33.61,55.07,2.6,11.72-.73,14.46.56,27.33,1.14,11.42,13.67,21.62,29.16,25.6Z"/>
                    <path class="cls-16" d="M233.48,148.83c6.46,1.66,13.44,2.23,20.32,1.35,33.8-4.32,42.89-20.83,43.85-24.14,3.1.85,5.89,1.06,8.38.76,3.7-4.74,6.37-8.92,7.55-11.71,1.63-3.86,2.03-10.22,1.06-17.77-1.04-.48-2.2-.79-3.5-.9-6.61-51.72-36.9-61.96-61.5-58.82-2.71.35-6.92,1.29-11.74,3.03.15.25.24.39.24.39,0,0,12.33-.23,25.42,7.32,13.09,7.54,30.18,26.59,27.91,63.87-2.2,36.14-57.36,36.65-58,36.63Z"/>
                    <path class="cls-1" d="M285.61,64.94s-53.92-32.31-80.06,4.05c0,0,8.95-23.42,31.59-27.77,31.28-6.01,48.47,23.73,48.47,23.73Z"/>
                    <path class="cls-1" d="M285.61,64.94s-53.92-32.31-80.06,4.05c0,0,8.95-23.42,31.59-27.77,31.28-6.01,48.47,23.73,48.47,23.73Z"/>
                    <path class="cls-4" d="M204.32,123.24c1.62,16.18,26.1,29.94,49.49,26.95,33.8-4.32,42.89-20.83,43.85-24.14,24.9,6.85,30.37-28.17,13.48-29.62-6.61-51.72-36.9-61.96-61.51-58.82-12.26,1.57-55.36,15.5-45.88,58.29,2.6,11.72-.73,14.46.56,27.34Z"/>
                  </g>
                  <g>
                    <path class="cls-13" d="M198.26,88.76c5.44,13.74,5.09,26.45,5.09,26.45,0,0-1.37,17.05,12.77,25.66-6.66-4.82-11.13-11.03-11.79-17.63-1.28-12.87,2.04-15.61-.56-27.33-1.24-5.58-1.58-10.68-1.21-15.31,0,0,0-.02,0-.02,1.66-20.82,17.62-32.47,31.12-38.27h.02c.06-.03.12-.06.18-.08.09-.04.18-.08.27-.12,9.74-3.95,43.71-3.14,57.64,37,3.67,10.58,5.32,19.79,5.28,27.89-.06,12.39-4.04,22.22-10.71,30.51-.93,1.15-1.9,2.27-2.93,3.36h0c-3.65,2.17-8.15,4.24-13.67,5.96,0,0,0,0,0,0-4.58,1.42-9.85,2.59-15.93,3.37-1.12.14-2.25.25-3.38.32-.23.01-.45.03-.68.04-4.22.2-8.43-.12-12.48-.87,2.37.66,4.45,1.04,8.31,2.12,1.26.36.61.98-.6,1.99-.85.7-1.96,1.57-2.91,2.66-1.72,2-.34,3.15.66,3.64,2.01.99-5.29,1.11,1.1,5.7,4.16,2.99,8.01,17.56,18.66,10.52,8.36-5.53,11.03-7.16,15.68-9.51,7.37-3.73,15.47-6.23,21.35-5.35,2.92.44,8.75,1.21,10.2,3.59-.49-.87-9.35-9.72-14.63-10.27,0,0,1.67-3.5-2.06-4.8-2.77-.97-6.6-.02-6.6-.02,0,0,8.49-3.7,16.98-9.4,16.97-11.39,38.53-35.9,24.54-90.63-10.63-41.57-48.28-46.73-59.27-47.75-10.99-1.02-44.01,5.21-60.83,26.13-11.44,14.23-11.18,31.26-11.18,31.26l.19,1.48s-4.04,13.97,1.41,27.7Z"/>
                    <path class="cls-6" d="M195.54,81.19c.92,4.56,2.51,8.94,4.06,13.29,1.47,4.32,2.6,8.73,3.1,13.29.36,2.96.68,5.96,1.32,8.87.01,0,.02,0,.04.02.35-11.08,2.89-14.01-2.21-29.02-6.86-20.2.39-35.96.39-35.96-.12-.13-.24-.26-.37-.37-.02.01-.05.03-.07.06-.67.84-1.35,1.76-2,2.75-5.29,8.09-6.27,17.77-4.26,27.09Z"/>
                    <path class="cls-6" d="M202.56,80.57c1.66-20.82,17.62-32.47,31.12-38.27h.02c.06-.03.12-.06.18-.08.09-.04.18-.08.27-.12,9.74-3.95,43.71-3.14,57.64,37,3.67,10.58,5.32,19.79,5.28,27.89,0,0,7.83-12.56-.03-36.38-5.77-17.5-18.9-42.71-53.41-36.38-9.81,1.8-39.53,9.52-41.07,46.34Z"/>
                    <path class="cls-6" d="M200.72,41.99c2.6-3.93,7.12-6.97,12.36-8.91.37-.14.8.29.49.49h-.02c-1.46.94-2.94,1.95-4.23,3.01-7.5,5.9-10.93,14.01-11.13,22.8-.01.63-1.26.48-1.38-.16-.69-3.92-.83-10.06,3.91-17.22Z"/>
                    <path class="cls-6" d="M242.79,159.23c2.13.83,6.11,2.41,9.46,8.67.64,1.19-.37-.23-1.37-1.32-2.37-2.6-6.41-5.71-8.33-4.75,0,0-.58-2.92.24-2.6Z"/>
                    <path class="cls-6" d="M244.97,153.77c.71.06,1.12.09,1.12.09,3.05-2.66,16.4-.5,29.56-5.68,11.77-4.63,27.3-14.36,29.73-41.67.85-9.6.37-10.24-.03-10.19-1.03.13-1.8,11.19-6.04,22.39-3.3,8.7-9.94,16.76-14.93,20.88-4.53,3.75-8.02,4.88-14.63,7.21,0,0,0,0,0,0-5.59,1.97-11.98,3.28-19.32,3.68-.23.01-.45.02-.68.04-4.22.2-8.43-.12-12.48-.87,2.37.66,4.45,1.04,8.31,2.12,1.26.36.61.98-.6,1.99Z"/>
                    <path class="cls-6" d="M280.19,165.46c-.12-.91-11.88,3.7-17.76,8.06-5.64,4.18-11.54.46-15.01-4.61,0,0,2.35,5.17,5.39,7.8,3.01,2.6,7.79.76,14.29-3.98,4.89-3.56,13.09-7.26,13.09-7.26Z"/>
                    <path class="cls-6" d="M279.75,160.15c-.46.33-.03,1.04.47.77,6.19-3.24,19.71-7.2,25.78.22,1.87,2.28,2.27,1.72,3.73,3.93,0-.01-.01-.02-.02-.03-.49-.87-9.35-9.72-14.63-10.27,0,0,1.67-3.5-2.06-4.8-2.77-.97-6.6-.02-6.6-.02,0,0,4.61-.06,6.41,1.32.82.63.61,2.64-1.05,3.03-3.29.77-6.86,2.16-12.05,5.84Z"/>
                    <path class="cls-6" d="M272.66,157.64c-1.72,2.02-1.4,3.09-.79,2.5,4.83-4.72,9.63-8.03,14.62-9.39.37-1.16,15.02-6.3,27.32-18.72,10.37-10.47,18.77-26.42,18.59-46.35,0,0-5.41,38.11-37.92,54.33-3.08,1.54-8.76,4.02-12.49,6.35-.58.36-1.66,1.06-2.14,1.54-.25.25.07.66.38.47,1.89-1.15,4.99-2.67,8.21-2.72,1.36-.02,1.21,1.13-1.2,2.25-4.77,2.21-8.58,2.71-14.59,9.74Z"/>
                    <path class="cls-4" d="M198.26,88.76c5.44,13.74,5.09,26.45,5.09,26.45,0,0-1.37,17.05,12.77,25.66-6.66-4.82-11.13-11.03-11.79-17.63-1.28-12.87,2.04-15.61-.56-27.33-6.79-30.66,13.4-46.51,29.91-53.6h.02c.06-.03.12-.06.18-.08.09-.04.18-.08.27-.12,9.74-3.95,43.71-3.14,57.64,37,10.06,29,4.9,47.63-8.35,61.76h0c-6.67,3.97-16.19,7.61-29.62,9.32-5.56.71-11.18.47-16.55-.51,2.37.66,4.45,1.04,8.31,2.12,2.14.6-1.21,1.98-3.51,4.65-1.72,2-.34,3.15.66,3.64,2.01.99-5.29,1.11,1.1,5.7,4.16,2.99,8.01,17.56,18.66,10.52,8.36-5.53,11.03-7.16,15.68-9.51,11.06-5.59,27.22-8.92,31.57-1.73-.34-.6-9.28-9.75-14.65-10.3,0,0,1.67-3.5-2.06-4.8-2.77-.97-6.6-.02-6.6-.02,0,0,8.49-3.7,16.98-9.4,16.97-11.39,38.53-35.9,24.54-90.63-10.63-41.57-48.28-46.73-59.27-47.75-10.99-1.02-44.01,5.21-60.83,26.13-11.44,14.23-11.18,31.26-11.18,31.26l.19,1.48s-4.04,13.97,1.41,27.7Z"/>
                    <path class="cls-6" d="M195.54,81.19c.92,4.56,2.51,8.94,4.06,13.29,1.47,4.32,2.6,8.73,3.1,13.29.36,2.96.68,5.96,1.32,8.87.02.08.04.17.05.25,0-.08-.01-.15-.02-.23-.12-1.45-.23-2.91-.29-4.36-.14-3.67.16-7.81-.57-11.39-.69-3.79-1.53-7.6-2.75-11.23-3.31-9.91-5.91-21.06-1.8-31,.99-2.42,2.17-4.79,3.58-7,.17-.26-.15-.52-.37-.37-.02.01-.05.03-.07.06-.67.84-1.35,1.76-2,2.75-5.29,8.09-6.27,17.77-4.26,27.09Z"/>
                    <path class="cls-6" d="M322.55,56.15c-2.95-8.81-8.77-16.7-15.8-22.77-.49-.42-1.18.22-.78.74l.03.04c1.89,2.44,3.79,5.05,5.42,7.68,9.5,14.77,12.86,32.09,11.55,49.34-.09,1.23,1.69,1.49,1.97.29,1.68-7.36,2.98-19.27-2.38-35.32Z"/>
                    <path class="cls-6" d="M272.59,154.25c.35-.26.01-.81-.38-.61-5.06,2.51-8.47,4.97-12.99,8.48-4.1,3.18-5.67-6.19-12.04-5.12-.36.06-.42.55-.09.69.89.37,2.21,1.11,3.62,2.52,1.5,1.5,2.72,3.99,4.68,7.05,2.14,3.35,5.09-3.13,10.76-7.92,2.18-1.84,4.6-3.71,6.45-5.09Z"/>
                    <path class="cls-6" d="M261.1,9.86c-8.49-1.02-17,1.18-24.03,5.94-2.51,1.7-5.35,3.87-7.96,6.31-.51.48.13,1.28.71.88,2.56-1.75,5.35-3.57,8.07-5.06,7.64-4.17,18.48-6.45,27.67-4.48,6.81,1.64,12.98,5.19,18.58,9.45.75.57,1.66-.47.98-1.13-4.79-4.72-12.81-10.56-24.03-11.91Z"/>
                    <path class="cls-6" d="M300.02,136.88s6.01-4.34,9.3-12.15c6.5-15.43,10.43-43.64-7.2-73.41-.43-.73-.2-1.68.53-2.12h0c.7-.43,1.61-.24,2.08.43,4.45,6.26,25.15,37.44,10.49,75.66,0,0-6.54,12.05-15.19,11.6Z"/>
                  </g>
                </g>
                <g>
                  <g>
                    <path class="cls-25" d="M233.82,133.24c1.19,1.09,2.32,2.04,3.44,2.84,3.08,2.17,6.1,3.13,10.23,2.46,2.09-.34,4.04-1.12,5.8-2.33,1.98-1.35,3.6-3.24,4.81-5.14.49-.76.91-1.52,1.26-2.25.03-.06,2.82-5.82,1.46-7.17-.56-.56-1.09-.38-1.35-.28-.86.33-1.9.81-3.34,1.42-.86.37-1.84.78-2.86,1.16-4.42,1.64-8.74,2.78-13.21,3.51-1.98.32-4.07.58-6.39.78-.56.05-.99.1-1.34.15-.54.09-1.41.18-1.61.8-.19.59.75,1.92,3.09,4.07Z"/>
                    <path class="cls-30" d="M237.23,135.95s0,.05.02.13c3.08,2.17,6.1,3.13,10.23,2.46,2.09-.34,4.04-1.12,5.8-2.33,1.98-1.35,3.6-3.24,4.81-5.14-1.96-1.4-7.23-1.36-9.3-.61-2.96,1.08-12.11,5.1-11.56,5.48Z"/>
                  </g>
                  <g>
                    <path class="cls-11" d="M229.89,73.47c2.41-2.18-5.25-6.85-11-4.42s-5.62,7.04-5.51,7.48c.12.44,3.13-3.6,6.94-4,7.77-.81,7.33,2.96,9.56.94Z"/>
                    <path class="cls-11" d="M254.45,73.26c-.86-2.67,5.82-5.4,14.28-3.2,7.18,1.87,10.26,9.26,10.06,9.69-.2.43-5.11-4.69-10.48-5.61-8.05-1.38-12.92,2.03-13.86-.88Z"/>
                    <path class="cls-23" d="M220.67,84.25c-12.84-.13-10.35,25.82-1.26,27.98,9.26,2.2,12.3-6.25,11.5-13.02-1.02-8.51-4.88-14.9-10.24-14.95Z"/>
                    <g>
                      <path class="cls-11" d="M216.05,87.1c-1.49,1.06-2.21,2.93-2.81,4.73-.46,1.38-.71,3.16-.86,4.72-.03.33-.9.52-1.17-.91-.33-1.79-.57-3.06-.24-4.7.45-2.41,1.56-4.89,3.37-6.38,7.75-6.38,15.62,5.73,16.41,11.61.03.23-.34.39-.48.03-1.38-3.63-6.95-14.3-14.21-9.09Z"/>
                      <path class="cls-11" d="M214.2,88.05c-1.15.93-3.51.01-4.45-1.29,1.43.35,3.03,1.06,4.15-.22.2-.23.73.94.99.99l-.68.51Z"/>
                      <path class="cls-11" d="M213.32,89.42c-.79,1.37-3.36,1.37-4.45-.46,2.57.95,3.64-.11,4.17-.85.18-.25.51.59.75.54l-.48.77Z"/>
                    </g>
                    <path class="cls-34" d="M234.8,113.36s.84,4.63,4.2,4.35c.62-.05.76-.73,1.45-.91.7-.19,1.55,0,1.82,1,.46,1.67-3.16,3.48-6.62.95-2.39-1.74-1.53-4.41-.86-5.39Z"/>
                    <path class="cls-31" d="M232.1,114.74c-.43,2.84,2.49,5.18,5.8,5.45.22.02.45.03.67.03.52,0,.71-.6.23-.73-2.22-.58-3.87-2.03-4.28-3.95-.45-1.71.67-3.22,2.44-4.36,1.15-.76,2.44-1.17,3.85-1.47.43-.09.45-.59.03-.62h-.02c-2.45-.19-8.03,1.12-8.72,5.65Z"/>
                    <g>
                      <path class="cls-23" d="M265.84,83.96c-15.76-4.17-18.74,22.55-7.7,27.64,8.96,4.13,15.91-2.89,16.69-9.7.99-8.55-2.18-16.14-8.99-17.95Z"/>
                      <path class="cls-11" d="M268.1,86.08c2.19,1.35,3.5,3.63,4.68,5.91.93,1.8,1.63,4.14,2.15,6.2.11.45.77.38.78-.08.04-2.2-.06-5.69-.41-7.94-.49-3.1-1.89-5.97-4.6-7.76-10-6.6-18.47,5.85-19.06,11.72-.02.23.36.46.49.1,1.28-3.56,6.63-13.91,15.97-8.16Z"/>
                      <path class="cls-11" d="M274.48,90.8c1.49,1.67,5.4,1.84,7.24.77-2.4-.34-5.49-1.29-6.86-3.32-.24-.36-.86,1.69-1.25,1.63l.87.92Z"/>
                      <path class="cls-11" d="M274.97,92.97c.98,2.01,5.14,3.33,7.32,1.58-4.47-.11-5.98-1.89-6.67-3-.23-.37-.88.47-1.24.3l.59,1.12Z"/>
                    </g>
                    <g>
                      <ellipse class="cls-11" cx="219.24" cy="104.31" rx="5.72" ry="8.04" transform="translate(-18.62 55.64) rotate(-13.88)"/>
                      <ellipse class="cls-15" cx="215.19" cy="102.25" rx="1.07" ry="1.68" transform="translate(-18.24 54.61) rotate(-13.88)"/>
                    </g>
                    <g>
                      <ellipse class="cls-11" cx="258.09" cy="103.91" rx="5.72" ry="8.04" transform="translate(-17.39 64.94) rotate(-13.88)"/>
                      <ellipse class="cls-15" cx="254.05" cy="101.85" rx="1.07" ry="1.68" transform="translate(-17.01 63.91) rotate(-13.88)"/>
                    </g>
                  </g>
                </g>
              </g>
              <g>
                <path class="cls-26" d="M266.31,201.42c.89-2.51-.23-5.29-2.6-6.43-4.04-1.95-9.86-4.43-11.31-3.36-2.28,1.68-20.45,24.84-22.22,34.07s7.2,17.29,13.72,15.2c5.86-1.87,17.44-25.47,22.42-39.48Z"/>
                <path class="cls-3" d="M266.57,200.3s-2.36,1.7-6.63.47c-4.27-1.23-6.97-6.21-7.54-9.14,0,0,13.75-1.69,14.18,8.67Z"/>
                <path class="cls-4" d="M266.31,201.42c.89-2.51-.23-5.29-2.6-6.43-4.04-1.95-9.86-4.43-11.31-3.36-2.28,1.68-20.45,24.84-22.22,34.07s7.2,17.29,13.72,15.2c5.86-1.87,17.44-25.47,22.42-39.48Z"/>
                <path class="cls-28" d="M258.56,176.11c-.37-.53-1.11-.56-1.52-.06-.39.49-.77,1.19-.81,2.11-.09,1.97-.43,5.93-.99,7.18-.55,1.25-1.04,5.41-.83,6.16s6.29-4.33,7.86-6.68c1.38-2.07-1.98-6.24-3.72-8.7Z"/>
                <path class="cls-2" d="M258.56,176.11c-.37-.53-1.11-.56-1.52-.06-.39.49-.77,1.19-.81,2.11-.09,1.97-.85,5.81-.99,7.18-.18,1.86-.45,5.48-.24,6.23s5.7-4.4,7.27-6.75c1.38-2.07-1.98-6.24-3.72-8.7Z"/>
                <g>
                  <path class="cls-19" d="M254.77,193.84s-.09-7.37,1.02-10.4c1.11-3.03,2.59-5.12,3.43-6.24.84-1.12,3.76-3.45,4.47-3.75.95-.39,3.01.24,1.96,2.36,0,0,1.81-2.09,2.99-.84,1.19,1.25-.25,2.27-.69,3.1-.47.86-3.56,4.59-3.1,5.65,0,0,4.23-5.27,5.7-5.83,1.47-.56,1.57-.14,1.9.62.32.75-.32,2.61-1.23,3.58-1.6,1.71-1.94,3.76-1.94,3.76,0,0,3.65-4.01,4.38-5.11s1.71-.09,1.5,1.19c-.21,1.28-1.19,3.84-2.38,6.04-1.19,2.2-5.16,8.72-9.47,10.76-4.31,2.04-7.93-1.75-8.54-4.89Z"/>
                  <path class="cls-22" d="M268.09,175.15c.14,1.23-.68,2.15-1.49,2.92-.49.46-.94.91-1.28,1.5-.35.59-.64,1.22-.87,1.87-.17.5-.35,1.06-.2,1.59.03.1.07.19.11.29.24-1.41,2.71-4.43,3.13-5.19.45-.82,1.88-1.85.69-3.1-.04-.05-.09-.08-.13-.11.02.08.03.15.04.23Z"/>
                  <path class="cls-31" d="M262.82,177.84c-.93,1.14-2.22,2.89-1.8,4.43,1.05-2.53,2.73-4.74,4.97-6.26.28-.89-.01-1.45-.49-1.75,0,.32-.08.64-.24.96-.57,1.11-1.68,1.69-2.44,2.62Z"/>
                  <path class="cls-22" d="M271.65,178.63c-.04.97-.68,1.82-1.23,2.55-.63.83-1.38,1.66-1.68,2.69-.14.5-.15.99.05,1.47.03.08.07.16.1.23.17-.65.66-2.13,1.87-3.41.91-.97,1.55-2.83,1.23-3.58-.15-.36-.26-.64-.48-.78.1.25.16.53.15.84Z"/>
                  <path class="cls-22" d="M274.09,182.95c-.33,1.08-.83,2.09-1.42,3.05-1.43,3.24-3.63,6.06-6.12,8.47-1.38,1.33-2.8,2.63-4.42,3.64-.76.47-1.57.92-2.4,1.21.97.13,2.02,0,3.12-.53,4.31-2.04,8.27-8.56,9.47-10.76,1.19-2.2,2.16-4.76,2.38-6.04.09-.57-.05-1.08-.3-1.38.06.79-.07,1.59-.3,2.34Z"/>
                  <path class="cls-2" d="M254.77,193.84s-.09-7.37,1.02-10.4c1.11-3.03,2.59-5.12,3.43-6.24.84-1.12,3.76-3.45,4.47-3.75.95-.39,3.01.24,1.96,2.36,0,0,1.81-2.09,2.99-.84,1.19,1.25-.25,2.27-.69,3.1-.47.86-3.56,4.59-3.1,5.65,0,0,4.23-5.27,5.7-5.83,1.47-.56,1.57-.14,1.9.62.32.75-.32,2.61-1.23,3.58-1.6,1.71-1.94,3.76-1.94,3.76,0,0,3.65-4.01,4.38-5.11s1.71-.09,1.5,1.19c-.21,1.28-1.19,3.84-2.38,6.04-1.19,2.2-5.16,8.72-9.47,10.76-4.31,2.04-7.93-1.75-8.54-4.89Z"/>
                </g>
              </g>
            </g>
          </g>
          <g>
            <circle class="cls-17" cx="164.2" cy="264.36" r="39.08"/>
            <path class="cls-15" d="M164.56,256.91c1.8.15,3.47.58,5,1.3,1.53.72,2.82,1.71,3.87,2.97,1.05,1.26,1.63,2.79,1.75,4.59v.99c0,.6-.11,1.42-.34,2.47-.23,1.05-.61,2.18-1.15,3.38-.54,1.2-1.34,2.39-2.41,3.58-1.06,1.19-2.45,2.23-4.14,3.13s-3.82,1.58-6.37,2.03c-2.55.45-5.57.54-9.04.27l-2.03-10.53c2.34.51,4.31.7,5.92.56,1.6-.13,2.88-.45,3.82-.94.94-.5,1.68-1.06,2.21-1.69.52-.63.86-1.16,1.01-1.6.15-.43.22-.67.22-.7.12-.57,0-1.03-.34-1.37-.35-.34-.84-.6-1.48-.76-.65-.17-1.4-.25-2.25-.27-.85-.01-1.73.03-2.63.13-.9.11-1.8.28-2.7.52-.9.24-1.7.51-2.39.81l1.53-19.4,21.38-1.03.23,8.95-13.68-.13-1.12,3.2c1.62-.45,3.33-.6,5.13-.45Z"/>
          </g>
          <g>
            <path class="cls-15" d="M43.71,97.53c.66.3,1.34.64,2.03,1.02.69.38,1.32.85,1.89,1.41.56.55,1.03,1.22,1.41,2,.37.78.58,1.7.62,2.77.06,1.51-.18,2.85-.74,4.02-.56,1.16-1.34,2.14-2.35,2.94-1.01.8-2.22,1.42-3.63,1.86-1.41.44-2.92.69-4.54.75-.75.02-1.52-.02-2.3-.11-.79-.1-1.57-.24-2.34-.43-.77-.19-1.51-.42-2.24-.69-.73-.27-1.41-.55-2.05-.85l2.43-6.85c.32.13.7.29,1.15.5.45.2.93.39,1.44.56.51.17,1.04.32,1.6.45.55.13,1.1.18,1.63.16.79-.04,1.46-.18,2-.42s.81-.63.78-1.18c-.02-.36-.21-.64-.56-.83-.35-.19-.77-.38-1.26-.58-.32-.08-.74-.2-1.26-.35-.52-.15-1.08-.35-1.68-.61-.6-.26-1.2-.57-1.81-.93-.61-.36-1.16-.8-1.66-1.31-.5-.51-.92-1.1-1.25-1.78-.33-.67-.51-1.44-.53-2.32-.04-1.49.21-2.82.77-3.98.55-1.16,1.31-2.15,2.27-2.98.96-.82,2.08-1.45,3.36-1.89,1.28-.44,2.65-.69,4.1-.75,1.34-.06,2.68,0,4,.21,1.32.2,2.56.54,3.71,1.01l-1.89,7.39c-.85-.36-1.63-.67-2.34-.91s-1.53-.43-2.46-.56c-.28-.04-.65-.06-1.12-.06s-.89.05-1.33.14c-.44.1-.82.25-1.14.46-.32.21-.49.51-.51.9,0,.17.08.3.24.4.16.1.35.17.58.22.22.05.45.1.69.13s.43.06.58.08c.62.13,1.28.28,1.98.45.6.13,1.17.31,1.73.54Z"/>
            <path class="cls-15" d="M50.37,87.36l7.33-.32-.38,5.63-6.98.51.03-5.82ZM50.4,95.45l7.14-.58-.35,18.46-6.78.58v-18.46Z"/>
            <path class="cls-15" d="M78.14,113.37l-6.27.42v-1.82h-.06c-.51.68-1.21,1.18-2.1,1.49-.89.31-1.78.46-2.67.46-1.09,0-2.14-.22-3.15-.66-1.01-.44-1.92-1.07-2.7-1.89-.79-.82-1.42-1.83-1.89-3.02-.47-1.19-.7-2.55-.7-4.06,0-1.37.2-2.65.59-3.86.39-1.21.96-2.26,1.71-3.17.75-.91,1.67-1.62,2.77-2.14,1.1-.52,2.35-.78,3.76-.78.7,0,1.39.09,2.05.27.66.18,1.24.49,1.73.91l-.29-7.62,7.36-.58-.13,26.05ZM69.28,107.04c.47-.17.86-.4,1.18-.69s.57-.61.75-.96c.18-.35.28-.72.3-1.1.02-.38-.03-.76-.16-1.12-.13-.34-.33-.65-.59-.93-.27-.28-.58-.5-.94-.66s-.76-.25-1.2-.27c-.44-.02-.89.05-1.36.22-.49.17-.9.41-1.22.7s-.57.62-.75.98c-.18.35-.28.73-.3,1.12-.02.39.03.76.16,1.1.13.36.33.68.59.94s.58.48.94.64c.36.16.76.25,1.2.26.44.01.9-.07,1.39-.24Z"/>
            <path class="cls-15" d="M92.35,118.88l.19-6.37c-.6.55-1.27.93-2.03,1.12s-1.47.29-2.13.29c-1.32,0-2.52-.28-3.6-.83s-2.01-1.29-2.78-2.19c-.78-.91-1.38-1.95-1.81-3.14-.43-1.18-.64-2.42-.64-3.7,0-1.19.2-2.37.61-3.54.4-1.16.98-2.2,1.71-3.12.74-.92,1.63-1.66,2.69-2.22,1.06-.56,2.22-.85,3.5-.85,1.02,0,1.9.18,2.64.53.74.35,1.44.9,2.13,1.65v-2.18l6.66.58-.35,24.54-6.78-.58ZM92.96,102.56c-.17-.36-.41-.67-.72-.91-.31-.24-.66-.42-1.06-.53-.4-.11-.83-.14-1.3-.1-.47.04-.94.18-1.41.42-.96.45-1.61,1.07-1.94,1.87-.33.8-.33,1.56.02,2.29.34.7.92,1.18,1.74,1.42.82.25,1.71.14,2.67-.3.98-.47,1.64-1.1,1.98-1.9.34-.8.34-1.55,0-2.26Z"/>
            <path class="cls-15" d="M41.6,124.19c-1.54,2.35-2.69,4.52-3.47,6.53-.78,2.01-1.33,3.73-1.65,5.18-.32,1.45-.5,3-.54,4.64.21,1.56.52,2.96.91,4.19.39,1.24.99,2.61,1.78,4.11.79,1.5,1.87,2.98,3.23,4.43l-1.57,1.12c-1.39-1.19-2.54-2.45-3.47-3.76-.93-1.31-1.65-2.55-2.18-3.71-.52-1.16-.92-2.24-1.2-3.23-.28-.99-.45-1.75-.51-2.29-.06-.53-.1-.82-.1-.86.06-1.83.3-3.55.72-5.15.42-1.6,1.12-3.47,2.11-5.62.99-2.14,2.44-4.45,4.34-6.93l1.6,1.34Z"/>
            <path class="cls-15" d="M43.55,126.81l9.34-.9-1.12,11.74,4.74-.35.38-11.17,9.12-.45-2.59,24.7-7.42.9.42-7.04-3.36.48-.32,7.36-7.97.16-1.22-25.44Z"/>
            <path class="cls-15" d="M86.14,140.99c.21,1.47.14,2.84-.21,4.11-.35,1.27-.92,2.39-1.7,3.36-.78.97-1.75,1.77-2.91,2.4-1.16.63-2.46,1.04-3.89,1.23s-2.79.15-4.1-.13c-1.3-.28-2.46-.77-3.49-1.49-1.02-.71-1.88-1.63-2.56-2.75-.68-1.12-1.12-2.42-1.31-3.89-.21-1.47-.14-2.84.21-4.11.35-1.27.92-2.39,1.7-3.38.78-.98,1.75-1.79,2.91-2.42,1.16-.63,2.46-1.04,3.89-1.23,1.43-.19,2.79-.15,4.08.13,1.29.28,2.45.77,3.47,1.49,1.02.72,1.88,1.64,2.56,2.77s1.13,2.43,1.34,3.9ZM72.7,143.71c.36.83.94,1.38,1.73,1.63.79.26,1.69.17,2.69-.26.98-.43,1.66-1.01,2.03-1.74.37-.74.39-1.52.05-2.35-.36-.81-.94-1.35-1.73-1.62-.79-.27-1.68-.19-2.66.24-1,.43-1.69,1.01-2.06,1.76-.37.75-.39,1.53-.05,2.34Z"/>
            <path class="cls-15" d="M93.5,135.55h.13c.7-.96,1.42-1.61,2.16-1.95.74-.34,1.54-.51,2.42-.51s1.69.16,2.37.48c.68.32,1.26.77,1.73,1.34.47.58.83,1.25,1.07,2.02s.37,1.6.37,2.5v12.38l-6.91.58.1-11.65c.02-.38-.12-.7-.43-.96-.31-.26-.68-.38-1.1-.38s-.77.12-1.1.37c-.33.25-.5.58-.5,1.01l.13,11.55-6.82-.48-.26-18.21,6.66-.54v2.46Z"/>
            <path class="cls-15" d="M123.1,149.63c-1.3.94-2.64,1.62-4,2.03-1.37.42-2.93.62-4.7.62-1.45,0-2.78-.25-3.98-.75s-2.25-1.18-3.12-2.03c-.88-.85-1.56-1.85-2.05-2.99-.49-1.14-.74-2.35-.74-3.63,0-1.6.26-3.03.77-4.29s1.21-2.33,2.08-3.2c.87-.87,1.89-1.54,3.06-2,1.16-.46,2.41-.69,3.73-.69,2.13,0,3.98.54,5.55,1.63s2.74,2.54,3.5,4.35l-9.57,7.2c.23.13.54.21.93.26.38.04.74.06,1.06.06.98,0,1.81-.18,2.48-.53.67-.35,1.29-.77,1.84-1.26l3.17,5.22ZM116.26,139.13c-.3-.36-.62-.61-.98-.74s-.75-.19-1.2-.19-.82.09-1.17.27c-.35.18-.66.43-.91.74-.26.31-.45.66-.59,1.04-.14.38-.21.78-.21,1.18s.03.66.08.82c.05.16.12.33.21.5l4.77-3.62Z"/>
            <path class="cls-15" d="M125.36,146.08c.59.11,1.22.16,1.9.16.3,0,.61,0,.94-.02.33-.01.63-.04.9-.1.27-.05.49-.14.67-.27.18-.13.27-.32.27-.58,0-.32-.17-.56-.5-.72s-.74-.31-1.22-.46-1.01-.33-1.58-.53c-.58-.2-1.1-.5-1.58-.9s-.89-.92-1.22-1.58c-.33-.66-.5-1.53-.5-2.59,0-.7.14-1.4.42-2.08.28-.68.73-1.3,1.34-1.86.62-.55,1.42-1,2.4-1.34.98-.34,2.16-.51,3.55-.51.53,0,1.07.02,1.6.06.53.04,1.04.1,1.52.18.48.08.92.15,1.33.22.4.08.75.14,1.02.21v5.63c-.53-.13-1.06-.23-1.57-.32-.51-.08-1.07-.13-1.66-.13-.13,0-.33,0-.61.02s-.55.04-.83.1c-.28.05-.52.14-.74.27-.21.13-.32.3-.32.51,0,.34.17.6.51.77.34.17.76.33,1.26.48.5.15,1.05.33,1.65.54.6.21,1.15.52,1.65.91.5.39.92.92,1.26,1.58.34.66.51,1.53.51,2.59,0,1.15-.25,2.11-.75,2.88-.5.77-1.16,1.38-1.98,1.84-.82.46-1.77.78-2.83.98-1.07.19-2.18.29-3.33.29-.9,0-1.78-.05-2.64-.16-.86-.11-1.73-.28-2.61-.51v-5.98c.58.17,1.16.31,1.74.42Z"/>
            <path class="cls-15" d="M146.99,152.3c-.31.01-.65.02-1.01.02-2.05,0-3.64-.46-4.78-1.39s-1.71-2.44-1.71-4.53v-7.58l-1.76.03.19-5.54h1.5v-2.11l6.94-3.14v5.25l2.59-.38-.35,5.89h-2.18v5.6c0,.64.09,1.07.27,1.28.18.21.59.32,1.23.32.28,0,.5-.01.67-.03.17-.02.33-.05.48-.1l-1.12,6.34c-.34.04-.67.07-.98.08Z"/>
            <path class="cls-15" d="M158.02,140.22l1.57-7.04,6.59.58-6.85,24.13-7.23-.58,2.75-7.52-6.02-15.74,6.98-.86,2.14,7.04h.06Z"/>
            <path class="cls-15" d="M166.88,153.05c1.54-2.37,2.69-4.55,3.47-6.54.78-1.99,1.33-3.72,1.65-5.17.32-1.45.5-3,.54-4.64-.21-1.56-.52-2.96-.91-4.19-.4-1.24-.99-2.61-1.78-4.11-.79-1.5-1.87-2.98-3.23-4.43l1.57-1.12c1.39,1.2,2.54,2.45,3.47,3.76.93,1.31,1.65,2.55,2.18,3.71.52,1.16.92,2.24,1.2,3.23.28.99.45,1.75.51,2.29.06.53.1.82.1.86-.06,1.83-.3,3.55-.72,5.14-.42,1.59-1.12,3.46-2.11,5.62-.99,2.15-2.44,4.47-4.34,6.94l-1.6-1.34Z"/>
            <path d="M35.23,187.12c-.13-.13-.19-.29-.19-.47v-12.2h-3.97c-.18,0-.34-.06-.47-.19-.13-.13-.2-.28-.2-.46s.07-.34.2-.47c.13-.13.29-.2.47-.2h9.26c.18,0,.34.06.46.19s.19.29.19.48c0,.18-.06.34-.19.46s-.28.19-.46.19h-3.97v12.2c0,.18-.07.34-.2.47-.13.13-.29.2-.47.2s-.34-.07-.46-.2Z"/>
            <path d="M43.8,186.64c-.8-.46-1.41-1.07-1.85-1.84-.43-.77-.65-1.61-.65-2.52s.2-1.84.6-2.68.96-1.5,1.67-2.01c.71-.5,1.53-.76,2.46-.76.84,0,1.56.16,2.15.48s1.04.71,1.34,1.16c.3.45.45.85.45,1.2,0,.25-.17.48-.5.67l-6.51,3.72c.35.67.83,1.18,1.43,1.52.6.34,1.31.51,2.12.51.45,0,.92-.11,1.42-.34.5-.22.89-.49,1.19-.8.1-.14.24-.21.42-.21s.33.06.45.18c.12.12.18.27.18.45,0,.14-.06.28-.17.42-.38.43-.89.79-1.54,1.08-.65.29-1.29.43-1.92.43-1.02,0-1.93-.23-2.73-.68ZM47.74,178.44c-.42-.24-.99-.36-1.7-.36-.67,0-1.27.19-1.81.56-.53.37-.95.87-1.25,1.5-.3.63-.46,1.32-.47,2.08,0,.28.01.5.04.67l6.11-3.38c-.2-.48-.5-.83-.92-1.07Z"/>
            <path d="M53.54,187.14c-.14-.12-.21-.25-.21-.41v-13.21c0-.18.06-.33.19-.45.13-.12.29-.18.48-.18.17,0,.32.06.45.19.13.13.2.27.2.44v13.21c0,.15-.07.29-.2.41-.13.12-.28.18-.45.18s-.32-.06-.46-.18Z"/>
            <path d="M58.98,187.14c-.14-.12-.21-.25-.21-.41v-13.21c0-.18.06-.33.19-.45.13-.12.29-.18.48-.18.17,0,.32.06.45.19.13.13.2.27.2.44v13.21c0,.15-.07.29-.2.41-.13.12-.28.18-.45.18s-.32-.06-.46-.18Z"/>
            <path d="M72.79,187.16c-.13-.13-.2-.27-.2-.44v-8.57h-2.33c-.18,0-.34-.07-.46-.2-.13-.13-.19-.29-.19-.47,0-.2.07-.35.21-.47s.3-.18.48-.18h2.29v-2.88c0-.18.07-.34.2-.47.13-.13.29-.2.47-.2.2,0,.35.07.47.2.12.13.18.29.18.47v2.88h2.35c.2,0,.36.06.48.19s.19.28.19.46-.07.34-.2.47c-.13.13-.29.2-.47.2h-2.35v8.57c0,.17-.07.32-.2.44-.13.13-.28.19-.45.19-.18,0-.34-.06-.47-.19Z"/>
            <path d="M79.11,187.14c-.13-.13-.2-.28-.2-.45v-13.12c0-.18.07-.34.2-.47.13-.13.29-.2.47-.2.2,0,.35.07.47.2.12.13.18.29.18.47v6.45c.42-.87,1-1.62,1.75-2.27.75-.64,1.52-.97,2.3-.97,1.04,0,1.76.57,2.18,1.72.42,1.15.63,2.95.63,5.4,0,1.39-.02,2.32-.06,2.79-.01.18-.08.33-.19.45-.11.12-.26.18-.44.18-.17,0-.32-.06-.45-.19-.13-.13-.2-.27-.2-.44,0-.21,0-.41.02-.59l.02-2.06c0-2.37-.15-3.95-.46-4.76-.31-.8-.69-1.21-1.15-1.21-.52,0-1.03.21-1.53.64s-.94.9-1.31,1.43c-.37.53-.63.96-.79,1.29-.21.42-.31,1.02-.31,1.81v3.4c0,.21-.06.38-.19.5s-.28.19-.46.19-.34-.07-.47-.2Z"/>
            <path d="M92.83,186.64c-.8-.46-1.41-1.07-1.85-1.84-.43-.77-.65-1.61-.65-2.52s.2-1.84.6-2.68.96-1.5,1.67-2.01c.71-.5,1.53-.76,2.46-.76.84,0,1.56.16,2.15.48s1.04.71,1.34,1.16c.3.45.45.85.45,1.2,0,.25-.17.48-.5.67l-6.51,3.72c.35.67.83,1.18,1.43,1.52.6.34,1.31.51,2.12.51.45,0,.92-.11,1.42-.34.5-.22.89-.49,1.19-.8.1-.14.24-.21.42-.21s.33.06.45.18c.12.12.18.27.18.45,0,.14-.06.28-.17.42-.38.43-.89.79-1.54,1.08-.65.29-1.29.43-1.92.43-1.02,0-1.93-.23-2.73-.68ZM96.78,178.44c-.42-.24-.99-.36-1.7-.36-.67,0-1.27.19-1.81.56-.53.37-.95.87-1.25,1.5-.3.63-.46,1.32-.47,2.08,0,.28.01.5.04.67l6.11-3.38c-.2-.48-.5-.83-.92-1.07Z"/>
            <path d="M110.94,187.16c-.13-.13-.2-.27-.2-.44v-8.57h-2.33c-.18,0-.34-.07-.46-.2-.13-.13-.19-.29-.19-.47,0-.2.07-.35.21-.47s.3-.18.48-.18h2.29v-2.88c0-.18.07-.34.2-.47.13-.13.29-.2.47-.2.2,0,.35.07.47.2.12.13.18.29.18.47v2.88h2.35c.2,0,.36.06.48.19s.19.28.19.46-.07.34-.2.47c-.13.13-.29.2-.47.2h-2.35v8.57c0,.17-.07.32-.2.44-.13.13-.28.19-.45.19-.18,0-.34-.06-.47-.19Z"/>
            <path d="M117.27,187.13c-.14-.13-.21-.27-.21-.42v-9.24c0-.18.07-.33.2-.45.13-.12.29-.18.47-.18.2,0,.36.06.48.18s.19.27.19.45v1.79c.39-.69.88-1.27,1.46-1.75.58-.48,1.26-.72,2.05-.72.62,0,1.06.17,1.33.51.27.34.41.75.41,1.23v.67c0,.18-.06.33-.19.45s-.28.18-.46.18c-.21,0-.36-.06-.46-.19-.1-.13-.15-.28-.15-.46v-.48c0-.41-.24-.61-.71-.61-.83,0-1.68.59-2.56,1.76-.21.28-.38.63-.51,1.05-.13.42-.2.81-.2,1.18l-.02,4.64c0,.15-.07.29-.2.42-.13.13-.28.19-.45.19s-.32-.06-.46-.19Z"/>
            <path d="M127.24,186.86c-.46-.35-.79-.95-1-1.79s-.31-2.01-.31-3.51c0-1.61.08-2.93.25-3.97.04-.28.12-.48.22-.6s.26-.18.45-.18c.17,0,.31.06.43.17.12.11.18.27.18.46,0,.21-.02.48-.06.82-.13,1.01-.19,2.27-.19,3.8s.15,2.53.44,3.17.78.97,1.47.97c.63,0,1.26-.16,1.9-.49.64-.33,1.09-.65,1.35-.96.17-.2.25-.51.25-.94l.08-6.41c0-.17.06-.31.19-.42s.27-.17.44-.17.31.06.44.17c.13.11.19.25.19.42v9.26c0,.17-.07.32-.21.45-.14.13-.3.2-.48.2-.22,0-.4-.07-.54-.21-.13-.14-.2-.32-.2-.53v-.8c-.31.41-.78.77-1.42,1.1-.64.33-1.31.49-2.03.49-.78,0-1.4-.17-1.86-.52Z"/>
            <path d="M138.54,187.16c-.13-.13-.2-.27-.2-.44v-8.57h-2.33c-.18,0-.34-.07-.46-.2-.13-.13-.19-.29-.19-.47,0-.2.07-.35.21-.47s.3-.18.48-.18h2.29v-2.88c0-.18.07-.34.2-.47.13-.13.29-.2.47-.2.2,0,.35.07.47.2.12.13.18.29.18.47v2.88h2.35c.2,0,.36.06.48.19s.19.28.19.46-.07.34-.2.47c-.13.13-.29.2-.47.2h-2.35v8.57c0,.17-.07.32-.2.44-.13.13-.28.19-.45.19-.18,0-.34-.06-.47-.19Z"/>
            <path d="M144.86,187.14c-.13-.13-.2-.28-.2-.45v-13.12c0-.18.07-.34.2-.47.13-.13.29-.2.47-.2.2,0,.35.07.47.2.12.13.18.29.18.47v6.45c.42-.87,1-1.62,1.75-2.27.75-.64,1.52-.97,2.3-.97,1.04,0,1.76.57,2.18,1.72.42,1.15.63,2.95.63,5.4,0,1.39-.02,2.32-.06,2.79-.01.18-.08.33-.19.45-.11.12-.26.18-.44.18-.17,0-.32-.06-.45-.19-.13-.13-.2-.27-.2-.44,0-.21,0-.41.02-.59l.02-2.06c0-2.37-.15-3.95-.46-4.76-.31-.8-.69-1.21-1.15-1.21-.52,0-1.03.21-1.53.64s-.94.9-1.31,1.43c-.37.53-.63.96-.79,1.29-.21.42-.31,1.02-.31,1.81v3.4c0,.21-.06.38-.19.5s-.28.19-.46.19-.34-.07-.47-.2Z"/>
            <path d="M38.27,212.49c-.11-.13-.17-.3-.17-.49v-.59c-.38.34-.83.61-1.37.81-.53.2-1.06.3-1.6.3-.76,0-1.44-.19-2.04-.57s-1.07-.91-1.42-1.61c-.34-.69-.51-1.48-.51-2.36,0-.95.2-1.89.6-2.8s.98-1.67,1.74-2.26c.76-.59,1.66-.88,2.7-.88.64,0,1.21.08,1.7.25.49.17.99.37,1.49.61v9.09c0,.2-.06.36-.19.49s-.28.2-.46.2c-.21,0-.37-.07-.48-.2ZM36.78,210.9c.55-.26.97-.54,1.26-.83l.08-6.36c-.22-.1-.51-.19-.87-.28-.36-.09-.69-.14-1-.14-.69,0-1.32.2-1.89.61-.57.41-1.03.96-1.35,1.67-.33.71-.49,1.5-.49,2.38,0,1.02.24,1.83.73,2.44.49.6,1.12.9,1.89.9.55,0,1.09-.13,1.64-.39Z"/>
            <path d="M43.72,212.33c-.13-.13-.2-.27-.2-.42v-9.26c0-.18.07-.33.2-.45.13-.12.29-.18.47-.18s.34.06.46.18.19.27.19.45v3.32c.41-1.26.97-2.23,1.69-2.91s1.54-1.02,2.45-1.02c.77,0,1.38.2,1.83.59s.77,1.01.97,1.86c.2.85.29,1.98.29,3.41s0,2.32-.02,2.75v1.2c0,.18-.06.34-.18.47s-.27.2-.45.2c-.17,0-.31-.07-.44-.2-.13-.13-.19-.28-.19-.45v-1.18c-.01-.43-.02-1.34-.02-2.71,0-1.3-.07-2.29-.2-2.96-.13-.67-.34-1.13-.61-1.38-.27-.25-.66-.37-1.17-.37-.48,0-.95.17-1.41.52-.46.35-.87.85-1.22,1.49-.46.84-.79,1.63-1,2.37-.2.74-.31,1.5-.33,2.29l-.02,1.87c0,.2-.06.36-.18.49-.12.13-.27.2-.45.2s-.34-.06-.47-.19Z"/>
            <path d="M57.1,211.96c-.55-.38-.99-.93-1.31-1.65-.32-.72-.48-1.56-.48-2.53,0-1.79.4-3.19,1.2-4.2.8-1.01,1.9-1.51,3.3-1.51.94,0,1.87.25,2.79.74l.1-4.18c0-.18.07-.34.21-.47s.3-.2.48-.2c.17,0,.32.07.45.21.13.14.2.3.2.48l-.31,13.25c0,.18-.07.33-.2.45-.13.12-.29.18-.47.18-.2,0-.36-.07-.48-.22-.13-.15-.18-.32-.17-.51l.02-.86c-1.09,1.06-2.25,1.6-3.46,1.6-.69,0-1.31-.19-1.86-.57ZM60.74,210.88c.53-.27.95-.58,1.25-.96.3-.37.46-.7.47-.98l.1-4.85c-.31-.18-.71-.36-1.21-.52s-1-.25-1.5-.25c-1.08,0-1.89.38-2.44,1.15-.55.77-.82,1.85-.82,3.23,0,1.12.21,2,.64,2.62.43.63,1,.95,1.73.95.64,0,1.23-.13,1.76-.4Z"/>
            <path d="M76,212.33c-.13-.13-.2-.27-.2-.44v-9.2c0-.17.07-.32.2-.45.13-.13.29-.2.47-.2s.34.07.46.2.19.28.19.45v2.42c.46-.91,1.06-1.65,1.8-2.21.74-.57,1.46-.85,2.17-.85.6,0,1.14.18,1.63.54.48.36.82.97,1,1.84.5-.81,1.07-1.41,1.7-1.8.63-.38,1.25-.58,1.87-.58.85,0,1.54.31,2.05.94.51.63.77,1.61.77,2.94v5.96c0,.17-.07.32-.2.44-.13.13-.29.19-.47.19s-.34-.06-.46-.19-.19-.27-.19-.44v-6.11c0-.87-.14-1.5-.42-1.9-.28-.4-.69-.6-1.24-.6-.42,0-.89.16-1.4.48-.51.32-.95.78-1.31,1.37-.36.59-.55,1.26-.55,2.02v4.75c0,.17-.06.32-.19.44s-.28.19-.46.19-.34-.06-.47-.19c-.13-.13-.2-.27-.2-.44v-6.11c0-.88-.13-1.52-.38-1.91-.25-.39-.67-.59-1.24-.59-.48,0-.97.2-1.47.6-.5.4-.97.89-1.39,1.46-.38.53-.63,1.03-.76,1.49s-.19,1.11-.19,1.93v3.13c0,.17-.06.32-.19.44s-.28.19-.46.19-.34-.06-.47-.19Z"/>
            <path d="M100.43,212.49c-.11-.13-.17-.3-.17-.49v-.59c-.38.34-.83.61-1.37.81-.53.2-1.06.3-1.6.3-.76,0-1.44-.19-2.04-.57s-1.07-.91-1.42-1.61c-.34-.69-.51-1.48-.51-2.36,0-.95.2-1.89.6-2.8s.98-1.67,1.74-2.26c.76-.59,1.66-.88,2.7-.88.64,0,1.21.08,1.7.25.49.17.99.37,1.49.61v9.09c0,.2-.06.36-.19.49s-.28.2-.46.2c-.21,0-.37-.07-.48-.2ZM98.94,210.9c.55-.26.97-.54,1.26-.83l.08-6.36c-.22-.1-.51-.19-.87-.28-.36-.09-.69-.14-1-.14-.69,0-1.32.2-1.89.61-.57.41-1.03.96-1.35,1.67-.33.71-.49,1.5-.49,2.38,0,1.02.24,1.83.73,2.44.49.6,1.12.9,1.89.9.55,0,1.09-.13,1.64-.39Z"/>
            <path d="M105.9,212.32c-.13-.13-.2-.28-.2-.45l-.04-13.15c0-.18.06-.33.19-.45s.28-.18.46-.18.34.07.47.2c.13.13.2.29.2.47l.02,8.25c.63-.43,1.47-1.15,2.52-2.16,1.05-1.01,1.94-1.98,2.67-2.92.13-.2.3-.29.52-.29.18,0,.34.06.46.19.13.13.19.27.19.44,0,.1-.05.23-.15.4-.42.55-.97,1.18-1.65,1.89s-1.26,1.29-1.75,1.72c.34.46,1.16,1.5,2.46,3.11l1.58,1.95c.13.15.19.29.19.42,0,.18-.06.34-.18.48s-.28.21-.47.21c-.22,0-.4-.08-.53-.23-1.04-1.4-2.38-3.13-4.03-5.19-.59.48-1.19.9-1.81,1.26v3.57c0,.17-.07.32-.2.45-.13.13-.29.2-.47.2-.17,0-.32-.07-.45-.2Z"/>
            <path d="M118.07,211.84c-.8-.45-1.41-1.07-1.85-1.84-.43-.77-.65-1.61-.65-2.52s.2-1.84.6-2.68.96-1.5,1.67-2.01c.71-.5,1.53-.76,2.46-.76.84,0,1.56.16,2.15.48.6.32,1.04.71,1.34,1.16.3.45.45.85.45,1.2,0,.25-.17.48-.5.67l-6.51,3.72c.35.67.83,1.18,1.43,1.52.6.34,1.31.51,2.12.51.45,0,.92-.11,1.42-.34s.89-.49,1.19-.8c.1-.14.24-.21.42-.21s.33.06.45.18c.12.12.18.27.18.45,0,.14-.06.28-.17.42-.38.43-.89.79-1.54,1.08-.65.29-1.29.43-1.92.43-1.02,0-1.93-.23-2.73-.68ZM122.02,203.64c-.42-.24-.99-.36-1.7-.36-.67,0-1.27.19-1.81.56-.53.37-.95.87-1.25,1.5-.3.63-.46,1.32-.47,2.08,0,.28.01.5.04.67l6.11-3.38c-.2-.48-.5-.83-.92-1.07Z"/>
            <path d="M38.27,237.69c-.11-.13-.17-.3-.17-.49v-.59c-.38.34-.83.61-1.37.81-.53.2-1.06.3-1.6.3-.76,0-1.44-.19-2.04-.57s-1.07-.91-1.42-1.61c-.34-.69-.51-1.48-.51-2.36,0-.95.2-1.89.6-2.8s.98-1.67,1.74-2.26c.76-.59,1.66-.88,2.7-.88.64,0,1.21.08,1.7.25.49.17.99.37,1.49.61v9.09c0,.2-.06.36-.19.49s-.28.2-.46.2c-.21,0-.37-.07-.48-.2ZM36.78,236.1c.55-.26.97-.54,1.26-.83l.08-6.36c-.22-.1-.51-.19-.87-.28-.36-.09-.69-.14-1-.14-.69,0-1.32.2-1.89.61-.57.41-1.03.96-1.35,1.67-.33.71-.49,1.5-.49,2.38,0,1.02.24,1.83.73,2.44.49.6,1.12.9,1.89.9.55,0,1.09-.13,1.64-.39Z"/>
            <path d="M43.72,237.53c-.13-.13-.2-.27-.2-.44v-9.2c0-.17.07-.32.2-.45.13-.13.29-.2.47-.2s.34.07.46.2.19.28.19.45v2.42c.46-.91,1.06-1.65,1.8-2.21.74-.57,1.46-.85,2.17-.85.6,0,1.14.18,1.63.54.48.36.82.97,1,1.84.5-.81,1.07-1.41,1.7-1.8.63-.38,1.25-.58,1.87-.58.85,0,1.54.31,2.05.94.51.63.77,1.61.77,2.94v5.96c0,.17-.07.32-.2.44-.13.13-.29.19-.47.19s-.34-.06-.46-.19-.19-.27-.19-.44v-6.11c0-.87-.14-1.5-.42-1.9-.28-.4-.69-.6-1.24-.6-.42,0-.89.16-1.4.48-.51.32-.95.78-1.31,1.37-.36.59-.55,1.26-.55,2.02v4.75c0,.17-.06.32-.19.44s-.28.19-.46.19-.34-.06-.47-.19c-.13-.13-.2-.27-.2-.44v-6.11c0-.88-.13-1.52-.38-1.91-.25-.39-.67-.59-1.24-.59-.48,0-.97.2-1.47.6-.5.4-.97.89-1.39,1.46-.38.53-.63,1.03-.76,1.49s-.19,1.11-.19,1.93v3.13c0,.17-.06.32-.19.44s-.28.19-.46.19-.34-.06-.47-.19Z"/>
            <path d="M63.56,237.04c-.8-.45-1.41-1.07-1.85-1.84-.43-.77-.65-1.61-.65-2.52s.2-1.84.6-2.68.96-1.5,1.67-2.01c.71-.5,1.53-.76,2.46-.76.84,0,1.56.16,2.15.48.6.32,1.04.71,1.34,1.16.3.45.45.85.45,1.2,0,.25-.17.48-.5.67l-6.51,3.72c.35.67.83,1.18,1.43,1.52.6.34,1.31.51,2.12.51.45,0,.92-.11,1.42-.34s.89-.49,1.19-.8c.1-.14.24-.21.42-.21s.33.06.45.18c.12.12.18.27.18.45,0,.14-.06.28-.17.42-.38.43-.89.79-1.54,1.08-.65.29-1.29.43-1.92.43-1.02,0-1.93-.23-2.73-.68ZM67.5,228.84c-.42-.24-.99-.36-1.7-.36-.67,0-1.27.19-1.81.56-.53.37-.95.87-1.25,1.5-.3.63-.46,1.32-.47,2.08,0,.28.01.5.04.67l6.11-3.38c-.2-.48-.5-.83-.92-1.07Z"/>
            <path d="M73.29,237.53c-.13-.13-.2-.27-.2-.42v-9.26c0-.18.07-.33.2-.45.13-.12.29-.18.47-.18s.34.06.46.18.19.27.19.45v3.32c.41-1.26.97-2.23,1.69-2.91s1.54-1.02,2.45-1.02c.77,0,1.38.2,1.83.59s.77,1.01.97,1.86c.2.85.29,1.98.29,3.41s0,2.32-.02,2.75v1.2c0,.18-.06.34-.18.47s-.27.2-.45.2c-.17,0-.31-.07-.44-.2-.13-.13-.19-.28-.19-.45v-1.18c-.01-.43-.02-1.34-.02-2.71,0-1.3-.07-2.29-.2-2.96-.13-.67-.34-1.13-.61-1.38-.27-.25-.66-.37-1.17-.37-.48,0-.95.17-1.41.52-.46.35-.87.85-1.22,1.49-.46.84-.79,1.63-1,2.37-.2.74-.31,1.5-.33,2.29l-.02,1.87c0,.2-.06.36-.18.49-.12.13-.27.2-.45.2s-.34-.06-.47-.19Z"/>
            <path d="M86.67,237.16c-.55-.38-.99-.93-1.31-1.65-.32-.72-.48-1.56-.48-2.53,0-1.79.4-3.19,1.2-4.2.8-1.01,1.9-1.51,3.3-1.51.94,0,1.87.25,2.79.74l.1-4.18c0-.18.07-.34.21-.47s.3-.2.48-.2c.17,0,.32.07.45.21.13.14.2.3.2.48l-.31,13.25c0,.18-.07.33-.2.45-.13.12-.29.18-.47.18-.2,0-.36-.07-.48-.22-.13-.15-.18-.32-.17-.51l.02-.86c-1.09,1.06-2.25,1.6-3.46,1.6-.69,0-1.31-.19-1.86-.57ZM90.31,236.09c.53-.27.95-.58,1.25-.96.3-.37.46-.7.47-.98l.1-4.85c-.31-.18-.71-.36-1.21-.52s-1-.25-1.5-.25c-1.08,0-1.89.38-2.44,1.15-.55.77-.82,1.85-.82,3.23,0,1.12.21,2,.64,2.62.43.63,1,.95,1.73.95.64,0,1.23-.13,1.76-.4Z"/>
            <path d="M98.13,237.27c-.58-.33-1.02-.71-1.32-1.16-.3-.44-.45-.82-.45-1.12,0-.18.06-.33.18-.45.12-.12.27-.18.45-.18.31,0,.5.15.59.44.2.56.52.99.99,1.3.46.31,1.03.46,1.7.46s1.22-.18,1.66-.55c.43-.36.65-.8.65-1.3,0-.29-.07-.54-.2-.75-.13-.2-.37-.4-.71-.58-.34-.18-.84-.37-1.5-.57-1.13-.35-1.95-.76-2.46-1.22s-.76-1.07-.76-1.83.31-1.37.93-1.84c.62-.47,1.52-.7,2.68-.7,1.05,0,1.86.21,2.43.64s.85,1.01.85,1.75c0,.34-.06.59-.17.77-.11.18-.27.26-.48.26-.18,0-.34-.06-.46-.18-.13-.12-.19-.25-.19-.41,0-.07.01-.15.03-.23s.03-.16.03-.23c0-.38-.17-.68-.5-.89s-.85-.33-1.53-.33c-.76,0-1.34.12-1.75.37-.41.25-.62.59-.62,1.04s.18.78.54,1.03c.36.25.98.53,1.86.82.84.28,1.49.55,1.94.8.45.25.78.55.99.89s.3.78.3,1.31-.15,1.01-.45,1.49c-.3.48-.72.87-1.27,1.17-.55.3-1.18.45-1.89.45-.8,0-1.49-.16-2.07-.49Z"/>
            <path d="M106.38,237.47c-.14-.17-.21-.37-.21-.61,0-.27.09-.5.27-.7.18-.2.39-.3.63-.3.21,0,.39.08.54.24s.22.35.22.58c0,.29-.09.54-.27.75-.18.2-.39.3-.63.3-.22,0-.41-.08-.55-.25Z"/>
          </g>
          <g>
            <path class="cls-12" d="M180.15,43.72h-4.97s0,4.97,0,4.97h4.97s0-4.97,0-4.97Z"/>
            <path class="cls-15" d="M152.68,91.37h-4.97v-4.97h4.97v4.97Z"/>
            <path class="cls-29" d="M330.45,144.6h-4.97s0,4.97,0,4.97h4.97s0-4.97,0-4.97Z"/>
            <circle class="cls-12" cx="352.95" cy="117.24" r="6.22"/>
            <circle class="cls-29" cx="88.52" cy="42.46" r="6.22"/>
            <circle class="cls-15" cx="352.95" cy="64.38" r="6.22"/>
            <path class="cls-12" d="M40.06,49.65l-8.04,4.4,8.04,4.4,4.4,8.04,4.4-8.04,8.04-4.4-8.04-4.4-4.4-8.04-4.4,8.04Z"/>
            <path class="cls-15" d="M130.88,35.11l-8.04,4.4,8.04,4.4,4.4,8.04,4.4-8.04,8.04-4.4-8.04-4.4-4.4-8.04-4.4,8.04Z"/>
            <path class="cls-29" d="M338.48,216.75l-8.04,4.4,8.04,4.4,4.4,8.04,4.4-8.04,8.04-4.4-8.04-4.4-4.4-8.04-4.4,8.04Z"/>
          </g>
        </g>
      </g>
    </g>
  </g>
</svg>