<?xml version="1.0" encoding="UTF-8"?>
<svg id="Layer_2" data-name="Layer 2" xmlns="http://www.w3.org/2000/svg" xmlns:xlink="http://www.w3.org/1999/xlink" viewBox="0 0 386.68 426.52">
  <defs>
    <style>
      .cls-1 {
        fill: url(#radial-gradient-10);
      }

      .cls-2 {
        fill: #89529f;
      }

      .cls-3 {
        fill: #29150e;
      }

      .cls-4 {
        stroke-miterlimit: 10;
      }

      .cls-4, .cls-5, .cls-6, .cls-7 {
        fill: none;
      }

      .cls-4, .cls-5, .cls-7 {
        stroke: #27190f;
        stroke-width: .8px;
      }

      .cls-8 {
        fill: #ff6d3a;
      }

      .cls-9 {
        fill: #663876;
      }

      .cls-10 {
        fill: url(#radial-gradient-9);
      }

      .cls-11 {
        opacity: .7;
      }

      .cls-11, .cls-12 {
        fill: #f8a324;
      }

      .cls-13 {
        fill: #f7eede;
      }

      .cls-14 {
        fill: #351a0f;
      }

      .cls-15 {
        fill: #7e7e7e;
      }

      .cls-16 {
        fill: #fff;
      }

      .cls-17 {
        fill: #b4b6bd;
      }

      .cls-5, .cls-7 {
        stroke-linecap: round;
        stroke-linejoin: round;
      }

      .cls-18 {
        fill: #e2a07a;
      }

      .cls-19 {
        fill: #f9be49;
      }

      .cls-20 {
        fill: url(#radial-gradient-5);
      }

      .cls-21 {
        fill: url(#radial-gradient);
      }

      .cls-22 {
        fill: url(#radial-gradient-3);
      }

      .cls-7, .cls-23 {
        opacity: .1;
      }

      .cls-24 {
        fill: #fce402;
      }

      .cls-25 {
        fill: #e3e3e3;
      }

      .cls-26 {
        fill: #faf3f7;
      }

      .cls-27 {
        fill: #231f20;
      }

      .cls-28 {
        fill: #6d2d1d;
      }

      .cls-29 {
        fill: url(#radial-gradient-11);
      }

      .cls-30 {
        fill: url(#radial-gradient-8);
      }

      .cls-31 {
        fill: url(#radial-gradient-2);
      }

      .cls-32 {
        fill: #e5eaef;
      }

      .cls-33 {
        opacity: .2;
      }

      .cls-34 {
        fill: url(#radial-gradient-4);
      }

      .cls-35 {
        fill: #74bf9a;
      }

      .cls-36 {
        fill: #ffe649;
      }

      .cls-37 {
        fill: #d05546;
      }

      .cls-38 {
        fill: #27190f;
      }

      .cls-39 {
        fill: url(#radial-gradient-6);
      }

      .cls-40 {
        fill: #96b54d;
      }

      .cls-41 {
        fill: url(#radial-gradient-7);
      }

      .cls-42 {
        fill: #e1d3be;
      }

      .cls-43 {
        clip-path: url(#clippath);
      }

      .cls-44 {
        fill: #d58055;
      }
    </style>
    <clipPath id="clippath">
      <rect class="cls-6" width="386.68" height="250" rx="20" ry="20"/>
    </clipPath>
    <radialGradient id="radial-gradient" cx="174.74" cy="134.45" fx="174.74" fy="134.45" r="13.26" gradientUnits="userSpaceOnUse">
      <stop offset="0" stop-color="#efb38d"/>
      <stop offset="1" stop-color="#eebe8c"/>
    </radialGradient>
    <radialGradient id="radial-gradient-2" cx="168.96" cy="128.45" fx="168.96" fy="128.45" r="7.38" xlink:href="#radial-gradient"/>
    <radialGradient id="radial-gradient-3" cx="187.84" cy="358.1" fx="187.84" fy="358.1" r="19.52" xlink:href="#radial-gradient"/>
    <radialGradient id="radial-gradient-4" cx="116.04" cy="400.52" fx="116.04" fy="400.52" r="18.02" xlink:href="#radial-gradient"/>
    <radialGradient id="radial-gradient-5" cx="103.58" cy="202.84" fx="103.58" fy="202.84" r="11.13" xlink:href="#radial-gradient"/>
    <radialGradient id="radial-gradient-6" cx="56.18" cy="219.97" fx="56.18" fy="219.97" r="3.69" xlink:href="#radial-gradient"/>
    <radialGradient id="radial-gradient-7" cx="57.36" cy="236.14" fx="57.36" fy="236.14" r="16" xlink:href="#radial-gradient"/>
    <radialGradient id="radial-gradient-8" cx="1118.13" cy="-1019.72" fx="1118.13" fy="-1019.72" r="14.54" gradientTransform="translate(-805.6 1429.31) rotate(-13.49)" xlink:href="#radial-gradient"/>
    <radialGradient id="radial-gradient-9" cx="1217.2" cy="-1019.72" fx="1217.2" fy="-1019.72" r="14.54" gradientTransform="translate(-805.6 1429.31) rotate(-13.49)" xlink:href="#radial-gradient"/>
    <radialGradient id="radial-gradient-10" cx="1167.08" cy="-1032.19" fx="1167.08" fy="-1032.19" r="50.25" gradientTransform="translate(-805.6 1429.31) rotate(-13.49)" xlink:href="#radial-gradient"/>
    <radialGradient id="radial-gradient-11" cx="1054.08" cy="-706.5" fx="1054.08" fy="-706.5" r="9.97" gradientTransform="translate(-683.47 1054.36) rotate(-13.49)" xlink:href="#radial-gradient"/>
  </defs>
  <g id="Layer_1-2" data-name="Layer 1">
    <g>
      <g>
        <rect class="cls-40" x="15.24" width="371.45" height="250" rx="20" ry="20"/>
        <g class="cls-43">
          <g>
            <g>
              <g>
                <path class="cls-42" d="M161.56,194.94c-12.93,12.28-36.91,6.58-46.58,16.08l-4.93-10.67-16.06-34.81-19.94-43.21c2.03-3.98,4.53-7.03,7.34-9.32,19.7-16.1,54.92,5.11,54.92,5.11h0c.02.32,4.64,30.31,12.8,53.52,3.51,10,7.69,18.74,12.45,23.3Z"/>
                <path class="cls-5" d="M74.06,122.33l40.93,88.68c9.66-9.5,33.64-3.8,46.57-16.08-15.95-15.3-25.25-76.82-25.25-76.82,0,0-45.98-27.69-62.26,4.21Z"/>
              </g>
              <g>
                <path class="cls-42" d="M92.16,117.98l1.84,47.55,1.48,38.29.45,11.76c-12.92-4.07-31.69,11.88-48.79,6.81,2.33-6.69,1.87-17.39.18-28.82-3.53-23.84-12.42-50.81-12.55-51.08h0s5.73-9.2,14.68-17.41c7.55-6.94,17.39-13.18,27.99-12.61,1.31.07,2.63.25,3.96.54,3.54.76,7.15,2.35,10.77,4.98Z"/>
                <path class="cls-23" d="M136.32,118.12c.02.31,4.64,30.3,12.8,53.51-5.61,8.77-17.15,21.63-39.06,28.71-2.09.67-4.28,1.3-6.56,1.86-2.78.68-5.45,1.22-8.02,1.62-26.42,4.2-42.1-5.26-48.16-10.25-3.53-23.84-12.42-50.81-12.55-51.08h0s5.73-9.2,14.68-17.41l27.99-12.61c1.31.07,2.63.25,3.96.54,19.7-16.1,54.92,5.11,54.92,5.11h0Z"/>
                <path class="cls-5" d="M92.16,117.98l3.77,97.6c-12.92-4.08-31.7,11.88-48.8,6.81,7.27-20.87-12.37-79.91-12.37-79.91,0,0,28.41-45.54,57.39-24.5Z"/>
              </g>
              <g>
                <path class="cls-9" d="M65.49,284.19l-3.85,24.78,21.94.92s6.09-22.17,3.72-30.58c-2.37-8.41-3.78-5.65-3.78-5.65l-18.03,10.53Z"/>
                <path class="cls-5" d="M65.49,284.19l-3.85,24.78,21.94.92s6.09-22.17,3.72-30.58c-2.37-8.41-3.78-5.65-3.78-5.65l-18.03,10.53Z"/>
                <path class="cls-42" d="M171.04,352.88c-5.33,4.72-5.32,9.26-3.01,12.08,1.6,1.95,5.41.5,7.38-.65-.37-5.44-4.37-11.43-4.37-11.43Z"/>
                <path class="cls-23" d="M171.04,352.88c-5.33,4.72-5.32,9.26-3.01,12.08,1.6,1.95,5.41.5,7.38-.65-.37-5.44-4.37-11.43-4.37-11.43Z"/>
                <path class="cls-5" d="M171.04,352.88c-5.33,4.72-5.32,9.26-3.01,12.08,1.6,1.95,5.41.5,7.38-.65-.37-5.44-4.37-11.43-4.37-11.43Z"/>
                <path class="cls-42" d="M49.5,253.29c-1.47-2.9,1.74-7.84,8.3-12.86,6.56-5.02,9.31-4.7,9.31-4.7,0,0,2.69-.08,3.55,3.66.86,3.74-1.41,9.44-7.07,14.27-5.65,4.83-12.22,3.34-14.09-.36Z"/>
                <g>
                  <path class="cls-23" d="M183.9,143.37c-.59-2.16-4.95-4.56-4.95-4.56l-15.45-3.51s-3.53-.56-3.97,4.15c-.44,4.71,5.74,6.24,10.41,7.51,4.67,1.26,11.86.77,13.23.3,1.38-.47,1.07-2.61.73-3.88Z"/>
                  <path class="cls-27" d="M183.18,147.73c-1.7.47-8.64.95-13.36-.33l-.38-.1c-2.33-.63-4.98-1.35-7.01-2.5-2.47-1.4-3.57-3.16-3.36-5.4.16-1.75.75-3.03,1.75-3.81,1.26-.98,2.69-.77,2.75-.76h.03s15.51,3.53,15.51,3.53l.06.03c.19.1,4.54,2.53,5.17,4.85.64,2.38.27,4-1.03,4.44-.04.01-.09.03-.14.04ZM162.34,135.85c-.31.09-.65.23-.96.48-.78.62-1.25,1.68-1.39,3.15-.39,4.19,5.2,5.7,9.69,6.91l.38.1c4.62,1.25,11.66.76,12.96.31,1.16-.4.56-2.84.43-3.32h0c-.43-1.59-3.46-3.57-4.67-4.25l-15.36-3.49c-.07,0-.53-.05-1.07.1Z"/>
                </g>
                <g>
                  <g>
                    <path class="cls-21" d="M186.85,125.24c-2.02,9.36-5.65,11.62-7.26,15.81-1.55,4.04-.87,7.72-.87,7.72l-16.1-5.29c1.32-3.5,2.19-8.01,2.39-11.48.26-5.86,1.73-11.86,1.73-11.86l20.11,5.1Z"/>
                    <path class="cls-18" d="M186.85,125.24l-4.98-1.26c.24,2.87-.25,5.85-1.63,8.29-2.94,4.98-5.61,9.67-5.77,15.1l4.25,1.4s-.69-3.68.87-7.72c1.61-4.19,5.24-6.44,7.26-15.81Z"/>
                    <path class="cls-27" d="M179.32,149.45l-.74-.24-16.56-5.44.17-.45c1.23-3.27,2.16-7.72,2.37-11.34.26-5.83,1.73-11.88,1.74-11.94l.11-.45,20.99,5.32-.09.44c-1.34,6.23-3.42,9.41-5.09,11.96-.89,1.35-1.65,2.52-2.19,3.92-1.48,3.86-.85,7.43-.84,7.47l.14.77ZM163.22,143.18l14.95,4.91c-.12-1.31-.19-4.15.99-7.21.57-1.49,1.4-2.75,2.28-4.09,1.67-2.56,3.56-5.44,4.87-11.21l-19.21-4.87c-.34,1.5-1.4,6.48-1.61,11.31-.2,3.55-1.08,7.87-2.26,11.17Z"/>
                  </g>
                  <g>
                    <path class="cls-31" d="M165.43,135.22c-1.62-1.2-5.68-7.55-4.04-11.06,1.64-3.51,6.79-2.33,8.95-2.09,2.72.31,6.43-.02,6.57,1.23.15,1.25-2.65,3.47-5.24,4.15,2.67,1.95,2.87,5.53,2.08,7.48l-8.32.28Z"/>
                    <path class="cls-18" d="M176.91,123.3s-.01-.07-.02-.11c0-.01,0-.02-.01-.03,0-.02-.02-.04-.03-.06,0-.01-.02-.03-.02-.04-.01-.02-.02-.04-.04-.05,0-.01-.02-.03-.03-.04-.01-.02-.03-.03-.04-.05-.01-.01-.03-.02-.04-.04-.02-.01-.03-.03-.05-.04-.02-.01-.03-.02-.05-.04-.02-.01-.04-.02-.05-.03-.02-.01-.04-.02-.06-.03-.02,0-.04-.02-.06-.03-.02-.01-.05-.02-.07-.03-.02,0-.03-.01-.05-.02-.16-.06-.34-.12-.54-.16,0,0-.01,0-.02,0-.05-.01-.1-.02-.15-.03,0,0-.02,0-.03,0-.05,0-.11-.02-.16-.03,0,0-.02,0-.03,0-.06,0-.12-.02-.17-.03,0,0-.01,0-.02,0-.06,0-.13-.02-.19-.02,1.06,1.64-2.54,2.78-3.77,3.19-1.37.46-4.51.12-4.86,1.32-.49,1.68,2.53,1.78,4.34,2.89,1.81,1.1,3.14,2.86,3.07,5.17.66-1.62.63-4.36-.92-6.36-.32-.41-.7-.79-1.16-1.12,1.53-.4,3.14-1.35,4.16-2.31.06-.05.11-.11.16-.16.06-.06.11-.11.16-.17.51-.55.8-1.09.75-1.51Z"/>
                    <path class="cls-27" d="M173.75,134.93c.57-1.82.21-5.23-2.35-7.11l-.79-.58.95-.25c2.62-.69,4.99-2.81,4.89-3.65-.01-.13-.27-.3-.95-.43-.73-.14-1.71-.18-2.75-.22-.83-.04-1.69-.07-2.47-.16-.24-.03-.52-.07-.82-.11-2.37-.33-6.34-.89-7.66,1.93-1.51,3.25,2.37,9.35,3.9,10.49l-.55.75c-1.78-1.32-5.95-7.84-4.19-11.63,1.6-3.44,6.17-2.8,8.63-2.46.29.04.56.08.79.1.75.09,1.59.12,2.4.16,2.38.1,4.43.19,4.58,1.48.17,1.47-2.34,3.49-4.75,4.39.83.78,1.41,1.73,1.79,2.73.87,2.61-.66,4.57-.66,4.57Z"/>
                  </g>
                  <path class="cls-27" d="M171.78,127.9c-1.95.47-3.64-.57-3.64-.57.02,0,1.62.1,3.42-.34l.22.9Z"/>
                </g>
                <path class="cls-7" d="M168.04,364.95c1.6,1.95,5.41.5,7.38-.65-.37-5.44-4.37-11.43-4.37-11.43-5.33,4.72-5.32,9.26-3.01,12.08Z"/>
                <g>
                  <g>
                    <path class="cls-22" d="M191.77,343.2c1.13-.21,2.23-1.81,3.17-2.53.94-.72,1.88-.77,2.42-.47.53-1.33,2.02-2.12,3.02-1.29.45-.92,2.73-1.15,3.22-.4,1.41-.85,2.7-.35,3.09.93.4,1.28-.28,2.75-.28,2.75l-26.55,35.97c-2.47-1.52-3.74-5.92-3.66-8.23-2.14-1.49-3.05-5.58-2.91-8.92-2.1-4.32-4.45-6.68-4.45-6.68,0,0,3.44-5.54,9.61-9.67,6.17-4.13,12.4-4.7,12.4-4.7l.74,1.08.16,2.17Z"/>
                    <path class="cls-18" d="M168.86,354.31s2.35,2.36,4.45,6.68c-.14,3.34.76,7.43,2.91,8.92-.08,2.31,1.18,6.71,3.66,8.23l26.55-35.97s.63-1.39.31-2.63c-.43.69-1.06.65-1.48.38-.48-.31-.28-1.2-.77-1.79-.24.05-.48.15-.73.28.07.27.15.69.19,1.26-.19.6-1.41.7-1.8.31-.33-.33-.44-1.29-1.15-1.64-.22.11-.4.25-.52.41.2.35.53,1.02.49,1.57-.1.48-1.14.76-1.52.58-.48-.22-.71-1.08-1.49-1.63-.24.25-.44.56-.58.91-.1-.06-.21-.1-.34-.13,0,.02-.01.04-.02.06.85,1.98-.85,2.84-2.18,3.69-1.33.85-5.53,3.87-8.82,8.36-2.78,3.79-4.27,11.99-8.02,10.5-2.08-.82-1.54-5.09-1.78-6.43-.46-2.66-3.02-4.47-1.96-8.23,0,0-.12.1-.32.28-3.29,3.14-5.07,6.01-5.07,6.01Z"/>
                    <path class="cls-5" d="M191.77,343.2c1.13-.21,2.23-1.81,3.17-2.53.94-.72,1.88-.77,2.42-.47.53-1.33,2.02-2.12,3.02-1.29.45-.92,2.73-1.15,3.22-.4,1.41-.85,2.7-.35,3.09.93.4,1.28-.28,2.75-.28,2.75l-26.55,35.97c-2.47-1.52-3.74-5.92-3.66-8.23-2.14-1.49-3.05-5.58-2.91-8.92-2.1-4.32-4.45-6.68-4.45-6.68,0,0,3.44-5.54,9.61-9.67,6.17-4.13,12.4-4.7,12.4-4.7l.74,1.08.16,2.17Z"/>
                  </g>
                  <path class="cls-38" d="M184.52,349.61c-2.42.54-3.51-.8-3.51-.8,2.88.57,4.7-.72,4.72-.73l.54.75s-.67.48-1.75.78Z"/>
                  <path class="cls-38" d="M198.58,343.48l-.87-.33c.03-.07.64-1.76-.59-2.56l.51-.78c1.49.98,1.28,2.83.95,3.67Z"/>
                  <path class="cls-38" d="M201.46,341.7l-.91-.17c.08-.45.16-1.73-.47-2.28l.62-.7c1.14,1.01.78,3.06.76,3.15Z"/>
                  <path class="cls-38" d="M204.45,340.91l-.92-.11c.04-.39.08-1.51-.3-2.04l.76-.53c.64.91.48,2.5.46,2.68Z"/>
                  <path class="cls-38" d="M176,370.33l.42-.83c.83.42,1.56.56,1.57.56,0,0-1.04.76-1.99.27Z"/>
                  <path class="cls-38" d="M173.77,361.05l-.92-.1c.3-2.79,1.41-3.3,1.41-3.3,0,0-.2.74-.49,3.39Z"/>
                </g>
                <g>
                  <ellipse class="cls-25" cx="197.01" cy="363.02" rx="22.92" ry="9.28" transform="translate(-214.58 328.51) rotate(-56.72)"/>
                  <ellipse class="cls-5" cx="197.01" cy="363.02" rx="22.92" ry="9.28" transform="translate(-214.58 328.51) rotate(-56.72)"/>
                  <path class="cls-16" d="M184.43,382.18c-4.29-2.81-2.13-13.67,4.82-24.26,6.95-10.58,16.05-16.88,20.34-14.07.34.23.65.5.91.83-.88-2.68-3.61-4.45-7.03-3.74-3.42.71-10.7,4.67-16.74,14.18-6.04,9.52-8.32,18.96-7.34,22.46.75,2.69,3.6,5.05,6.19,5.1h0c-.41-.11-.79-.28-1.14-.51Z"/>
                  <path class="cls-5" d="M184.43,382.18c-4.29-2.81-2.13-13.67,4.82-24.26,6.95-10.58,16.05-16.88,20.34-14.07.34.23.65.5.91.83-.88-2.68-3.61-4.45-7.03-3.74-3.42.71-10.7,4.67-16.74,14.18-6.04,9.52-8.32,18.96-7.34,22.46.75,2.69,3.6,5.05,6.19,5.1h0c-.41-.11-.79-.28-1.14-.51Z"/>
                  <path class="cls-27" d="M211.59,351.79c-.08-.01-8.37-1.44-17.91,1.21-.13.04-.26.07-.39.11l-.26-.89c.13-.04.26-.08.39-.11,9.75-2.71,18.23-1.24,18.32-1.23l-.16.91Z"/>
                  <path class="cls-27" d="M209.4,359.56c-.1-.03-9.81-2.89-21.49,1.2l-.31-.88c6.26-2.19,11.92-2.41,15.56-2.2,3.96.22,6.41.96,6.51.99l-.27.89Z"/>
                  <path class="cls-27" d="M204.53,368.51c-3.54-2.17-12.32-3.34-19.74-1.61l-.21-.91c7.89-1.84,16.75-.54,20.44,1.72l-.49.79Z"/>
                  <path class="cls-27" d="M200.18,374.33c-4.38-2.31-10.42-2.62-17.44-.91l-.22-.9c7.25-1.77,13.51-1.43,18.1.99l-.43.82Z"/>
                  <path class="cls-27" d="M195.16,379.24c-2.67-1.52-7.1-1.84-12.8-.92l-.15-.92c5.91-.95,10.54-.59,13.4,1.03l-.46.81Z"/>
                  <path class="cls-24" d="M190.88,349.59c-1.41,1.59-2.81,3.43-4.15,5.54-.63.99-1.21,1.98-1.76,2.96-1.22-3.51-1.49-7.52-.36-10.57,1.01-2.73,3.75-4.93,5.97-5.16.79-.08,1.5-.51,1.9-1.19.69-1.17,1.8-2.83,2.91-3.66,1.81-1.37,8.19-3.75,11.02-.96,2.83,2.8,2.97,5.36,2.97,5.36,0,0-3.72-2.57-8.43-.11-4.71,2.46-10.08,7.79-10.08,7.79Z"/>
                  <path class="cls-5" d="M190.88,349.59c-1.41,1.59-2.81,3.43-4.15,5.54-.63.99-1.21,1.98-1.76,2.96-1.22-3.51-1.49-7.52-.36-10.57,1.01-2.73,3.75-4.93,5.97-5.16.79-.08,1.5-.51,1.9-1.19.69-1.17,1.8-2.83,2.91-3.66,1.81-1.37,8.19-3.75,11.02-.96,2.83,2.8,2.97,5.36,2.97,5.36,0,0-3.72-2.57-8.43-.11-4.71,2.46-10.08,7.79-10.08,7.79Z"/>
                </g>
                <g>
                  <g>
                    <path class="cls-42" d="M147.17,319.71c3.46,4.79,9.55,9.48,9.55,9.48-.34,2.55,2.39,17.83,4.84,24.9,2.45,7.08,5.01,9.9,6.48,10.86-1.77-3.77,2.64-11.29,9.11-16.29,5.44-4.2,10.14-6.38,13.15-6.59,1.11-.08,1.96-1.02,1.86-2.13-.69-7.78-4.77-24.85-8.25-31.66-4.01-7.85-10.14-11.01-10.14-11.01-19.55,5.72-26.2,14.2-26.6,22.43Z"/>
                    <path class="cls-5" d="M147.17,319.71c3.46,4.79,9.55,9.48,9.55,9.48-.34,2.55,2.39,17.83,4.84,24.9,2.45,7.08,5.01,9.9,6.48,10.86-1.77-3.77,2.64-11.29,9.11-16.29,5.49-4.24,10.23-6.42,13.23-6.6,1.07-.06,1.88-.98,1.79-2.04-.66-7.74-4.77-24.91-8.26-31.74-4.01-7.85-10.14-11.01-10.14-11.01-19.55,5.72-26.2,14.2-26.6,22.43Z"/>
                    <g class="cls-23">
                      <path d="M156.89,319.96c-2.67-2.23-5.42-4.99-6.9-8.6-1.83,2.73-2.69,5.55-2.82,8.34,3.46,4.79,9.55,9.48,9.55,9.48-.34,2.55,2.39,17.83,4.84,24.9,2.45,7.08,5.01,9.9,6.48,10.86-1.24-2.64.55-7.13,3.97-11.3-7.07-9.94-5.52-20.99-6.7-25.21-.87-3.11-4.11-4.88-8.42-8.48Z"/>
                    </g>
                  </g>
                  <path class="cls-27" d="M176.75,317.7c-2.95.82-4.67-.93-4.67-.93,1.81.68,4.49.34,6.37-.8,1.07-.65,2.41-1.86,2.68-3.93,0,0,.62,2.88-2.2,4.73-.67.4-1.41.71-2.19.93Z"/>
                  <path class="cls-27" d="M156.43,329.55l.58-.73c2.56,2.04,5.28,2.86,5.31,2.87,0,0-3.17.02-5.89-2.14Z"/>
                </g>
                <g>
                  <g>
                    <path class="cls-16" d="M130.44,393.94c-.46.48-.95.98-1.49,1.49.58-.39,1.11-.74,1.59-1.04,1.28,3.5-.48,5.2-5.56,13.18-5.07,7.98-11.09,16.17-18.89,15.49-3.83-.34-5.02-2.83-5.11-5.1-.44,3.65,1.35,8.35,7.02,8.14,5.97-.21,11.38-3.77,15.97-10.43,3.47-5.02,9.73-15.71,9.79-17.9.07-2.55-1.88-4.12-3.33-3.84Z"/>
                    <path class="cls-5" d="M130.44,393.94c-.46.48-.95.98-1.49,1.49.58-.39,1.11-.74,1.59-1.04,1.28,3.5-.48,5.2-5.56,13.18-5.07,7.98-11.09,16.17-18.89,15.49-3.83-.34-5.02-2.83-5.11-5.1-.44,3.65,1.35,8.35,7.02,8.14,5.97-.21,11.38-3.77,15.97-10.43,3.47-5.02,9.73-15.71,9.79-17.9.07-2.55-1.88-4.12-3.33-3.84Z"/>
                    <path class="cls-12" d="M101.07,416.56c-.39,2.51.36,6.1,5.02,6.51,7.8.68,13.82-7.5,18.89-15.49,5.07-7.98,6.83-9.68,5.56-13.18-7.69,4.85-29.47,22.16-29.47,22.16Z"/>
                    <path class="cls-5" d="M101.07,416.56c-.39,2.51.36,6.1,5.02,6.51,7.8.68,13.82-7.5,18.89-15.49,5.07-7.98,6.83-9.68,5.56-13.18-7.69,4.85-29.47,22.16-29.47,22.16Z"/>
                    <g>
                      <g>
                        <path class="cls-34" d="M107.14,387.24c1.74,3.66,2.48,5.74,2.52,9.07.04,3.33-3.15,9.36-4.79,11.98s-2.98,4.67-3.58,6.64c-.6,1.97-.03,4.23,1.58,3.58.11,1.04,1.37,2.33,2.38,1.53.45,1.2,1.84,1.2,2.2.23.21.84,2.27,1.3,2.62-.27.27,1.19,1.56,1.56,3.38.59,1.82-.97,2.52-2.59,2.93-3.63.41-1.04.34-1.72,1.22-2.27.87-.54,4.03-3.27,5.49-5.69,1.46-2.42,1.83-4.97,3.59-6.91,1.75-1.93,4.59-4.69,4.32-8.03-.3-3.69-3.6-5.71-5.29-7.45-1.69-1.74-2.73-5.91-2.84-6.73-5.94,2.62-15.72,7.35-15.72,7.35Z"/>
                        <path class="cls-18" d="M110.66,385.55c-2.09,1-3.51,1.69-3.51,1.69,1.74,3.66,2.48,5.74,2.52,9.07.01.96-.25,2.15-.66,3.41,1.14-.98,2.52-2.92,2.88-4.6.81-3.78-.06-6.45-1.23-9.56Z"/>
                        <path class="cls-18" d="M102.88,418.51c.11,1.04,1.37,2.33,2.38,1.53.45,1.2,1.84,1.2,2.2.23.21.84,2.27,1.3,2.62-.27.27,1.19,1.56,1.56,3.38.59,1.82-.97,2.52-2.59,2.93-3.63.41-1.04.34-1.72,1.22-2.27.87-.54,4.03-3.27,5.49-5.69s1.83-4.97,3.59-6.91c1.75-1.93,4.59-4.69,4.32-8.03-.15-1.81-1.02-3.22-2.07-4.39,1.16,4.64-.42,6.18-2.63,8.2-2.98,2.74-4.14,5.91-5,8.06-.85,2.15-2.96,5.05-4.92,6.43-1.96,1.37-2.17,5.23-3.39,6.16-1.22.93-2.25.31-2.36-1.22-1.72,2.69-2.77,1.13-2.83-.02-.99,1.66-2.56.95-2.22-.54-1.18,1.51-2.17.78-1.92-.91-1.29,1.09-2.1.27-2.42-.66-.48,1.91.1,3.96,1.64,3.34Z"/>
                        <path class="cls-5" d="M107.14,387.24c1.74,3.66,2.48,5.74,2.52,9.07.04,3.33-3.15,9.36-4.79,11.98s-2.98,4.67-3.58,6.64c-.6,1.97-.03,4.23,1.58,3.58.11,1.04,1.37,2.33,2.38,1.53.45,1.2,1.84,1.2,2.2.23.21.84,2.27,1.3,2.62-.27.27,1.19,1.56,1.56,3.38.59,1.82-.97,2.52-2.59,2.93-3.63.41-1.04.34-1.72,1.22-2.27.87-.54,4.03-3.27,5.49-5.69,1.46-2.42,1.83-4.97,3.59-6.91,1.75-1.93,4.59-4.69,4.32-8.03-.3-3.69-3.6-5.71-5.29-7.45-1.69-1.74-2.73-5.91-2.84-6.73-5.94,2.62-15.72,7.35-15.72,7.35Z"/>
                      </g>
                      <path class="cls-38" d="M110.53,419.93l-.91.17c-.4-3.07,2.25-4.8,2.25-4.8-.02.03-1.71,2.66-1.34,4.62Z"/>
                      <path class="cls-38" d="M107.91,420.2l-.91.16c-.48-3.32,2.09-4.95,2.09-4.95-.39.5-1.61,2.33-1.17,4.79Z"/>
                      <path class="cls-38" d="M104.82,420.19c-.51-3.61,1.61-4.76,1.61-4.76-.82,1.27-1.14,3.23-.73,4.47l-.88.3Z"/>
                      <path class="cls-38" d="M103.35,418.5l-.93.02c-.04-1.96,1.75-3.73,1.75-3.73,0,.02-.86,1.96-.82,3.71Z"/>
                    </g>
                    <g>
                      <path class="cls-24" d="M124.71,408.01c-1.8,2.81-3.71,5.62-5.78,8.05-.6.72-4.26,6.4-10.93,7-6.67.6-7.59-4.18-7.59-4.18-3.04-6.82,2.23-9.12,3.62-11.01,1.39-1.89,3.79-6.78,3.79-6.78.25-.32.61-.54,1.01-.61,0,0,6.71-1.2,9.75.49s7.98,4.15,7.98,4.15l-1.85,2.88Z"/>
                      <path class="cls-5" d="M124.71,408.01c-1.8,2.81-3.71,5.62-5.78,8.05-.6.72-4.26,6.4-10.93,7-6.67.6-7.59-4.18-7.59-4.18-3.04-6.82,2.23-9.12,3.62-11.01,1.39-1.89,3.79-6.78,3.79-6.78.25-.32.61-.54,1.01-.61,0,0,6.71-1.2,9.75.49s7.98,4.15,7.98,4.15l-1.85,2.88Z"/>
                    </g>
                  </g>
                  <g>
                    <g>
                      <path class="cls-42" d="M87.46,348.13c-.3,3.04.41,11.22,1.55,14.46,1.14,3.24,8.46,24.12,10.23,25.73,1.78,1.62,10.16.31,18.5-3.28,8.35-3.59,12.18-7.79,12.34-9.16.16-1.37-3.36-10.25-4.68-14.77-1.32-4.52-2.72-8.14-4.3-8.96,1.15-2.91,1.4-8.05,1.35-10.18-6.3,4.21-26.22,7.81-35,6.15Z"/>
                      <path class="cls-5" d="M87.46,348.13c-.3,3.04.41,11.22,1.55,14.46,1.14,3.24,8.46,24.12,10.23,25.73,1.78,1.62,10.16.31,18.5-3.28,8.35-3.59,12.18-7.79,12.34-9.16.16-1.37-3.36-10.25-4.68-14.77-1.32-4.52-2.72-8.14-4.3-8.96,1.15-2.91,1.4-8.05,1.35-10.18-6.3,4.21-26.22,7.81-35,6.15Z"/>
                      <g class="cls-23">
                        <path d="M101.33,360.48c-5.79,1.44-5.99-5.43-4.86-12.06-3.48.22-6.64.16-9-.29-.3,3.04.41,11.22,1.55,14.46,1.14,3.24,8.46,24.12,10.23,25.73,1.09.99,4.64.88,9.14-.16-3.02-2.99-4.37-7.86-5.81-12.67-2.05-6.8-3.37-13.53-1.24-15.02Z"/>
                      </g>
                    </g>
                    <path class="cls-27" d="M98.01,363.92c-.45.12-.91.2-1.37.23-2.92.32-4.12-2.63-4.12-2.63,1.39,1.52,2.98,1.76,4.07,1.7,1.81-.11,3.59-1.13,4.74-2.74,0,0-.44,2.52-3.32,3.44Z"/>
                    <path class="cls-27" d="M118.22,355.51s1.31-1.17,2.48-3.56l.83.41c-1.26,2.57-3.31,3.15-3.31,3.15Z"/>
                  </g>
                  <path class="cls-12" d="M124.81,397.63c-.92,2.54-2.24,4.9-3.71,7.16-.48.75-.86,1.61-.69,2.32.41,1.62,3.06,3.19,4.3,2,1.24-1.19,8.39-15.25,5.39-20.11-3-4.86-4.4-2.4-4.4-2.4l.86.81s.92,2.84-1.76,10.2Z"/>
                  <path class="cls-5" d="M124.81,397.63c-.92,2.54-2.24,4.9-3.71,7.16-.48.75-.86,1.61-.69,2.32.41,1.62,3.06,3.19,4.3,2,1.24-1.19,8.39-15.25,5.39-20.11-3-4.86-4.4-2.4-4.4-2.4l.86.81s.92,2.84-1.76,10.2Z"/>
                  <g>
                    <path class="cls-27" d="M109.17,408.32c-.63,1.01,1.01,1.73,1.77.73.81-1.06-1.06-1.85-1.77-.73Z"/>
                    <path class="cls-27" d="M107.09,412.27c-1.48.34-1.03,2.1.37,1.67,1.22-.38.89-1.96-.37-1.67Z"/>
                    <path class="cls-27" d="M103.18,414.55c-1.48.34-1.03,2.1.37,1.67,1.22-.38.89-1.96-.37-1.67Z"/>
                    <path class="cls-27" d="M107.5,416.33c-1.48.34-1.03,2.1.37,1.67,1.22-.38.89-1.96-.37-1.67Z"/>
                    <path class="cls-27" d="M118.46,404.75c-1.21-.44-2.2,1.2-1.05,1.63s2.22-1.2,1.05-1.63Z"/>
                    <path class="cls-27" d="M111.57,413.77c-1.23.31-1.09,1.82.13,1.71,1.5-.13,1.35-2.09-.13-1.71Z"/>
                    <path class="cls-27" d="M106.43,408.21c1.36.4,2.11-1.51.77-1.69-1.26-.17-1.91,1.35-.77,1.69Z"/>
                    <path class="cls-27" d="M113.87,411.03c-.72,1.04,1.14,1.77,1.82.64.61-1.01-1.08-1.71-1.82-.64Z"/>
                    <path class="cls-27" d="M104.99,411.33c.44-.52.14-1.23-.54-1.31-1.06-.12-1.76,1.04-1,1.57.43.31,1.17.17,1.55-.27Z"/>
                    <path class="cls-27" d="M112.8,405.5c1.15.41,2.17-1.19,1.05-1.63-1.21-.47-2.28,1.19-1.05,1.63Z"/>
                    <path class="cls-27" d="M108.33,403.7c-.67,1.12,1.28,1.71,1.86.57.55-1.06-1.24-1.61-1.86-.57Z"/>
                  </g>
                </g>
                <g>
                  <g>
                    <path class="cls-42" d="M185.31,298.54s-22.05,5.89-39.64,25.57c-17.59,19.68-36.83,32.99-60.53,32.13,0,0-.31-30.7,6.34-53.71,0,0,1.15-3.04-1.71-10.64-.22-.47-.43-.95-.62-1.43-3.24-7.69-4.47-15.37-4.47-15.37-.05-.17-15.04-32.6-15.04-32.6,0,0,1.51-16.7,3.66-20.67,2.15-3.98,13.16-11.5,17.35-13.5,7.42-1.19,28.48-7.73,28.48-7.73,4.8-1.39,7.34-1.8,9.02-1.38.94-3.44,11.99-22.51,18.15-27.52,2.16-10.9,8.67-27.36,10.41-30.86,1.74-3.5,4.16-6.28,6.78-5.53,0,0-3.59,1.67-2.01,4.72,1.53,2.94,4.46,3.62,9.72,5.01,5.77,1.53,13.6,1.64,12.69-1.66,1.71,1.61.13,6.78-.81,10.3-.95,3.52-6,22.65-10.21,30.52-4.2,7.86-18.57,34.17-30.24,44.81,3.56,7.61,8.54,18.27,10.88,31.67,0,0,24.2,12.88,31.8,37.88Z"/>
                    <path class="cls-5" d="M89.79,291.89c-3.71-8.13-5.09-16.79-5.09-16.79-.05-.17-15.04-32.6-15.04-32.6,0,0,1.5-16.7,3.66-20.67,2.15-3.97,13.16-11.5,17.35-13.5,7.42-1.19,28.48-7.73,28.48-7.73,4.8-1.39,7.34-1.8,9.02-1.38.93-3.44,11.99-22.51,18.15-27.52,2.15-10.9,8.67-27.37,10.41-30.87,1.74-3.5,4.16-6.28,6.78-5.53,0,0-3.59,1.67-2,4.72,1.53,2.94,4.46,3.62,9.72,5.02,5.77,1.53,13.6,1.64,12.68-1.66,1.71,1.6.14,6.78-.81,10.3-.95,3.52-6,22.65-10.2,30.52-4.2,7.86-18.57,34.17-30.24,44.81,3.56,7.61,8.54,18.27,10.88,31.67,0,0,24.19,12.88,31.8,37.88,0,0-22.05,5.89-39.64,25.57-17.59,19.68-36.83,32.99-60.52,32.13,0,0-.31-30.7,6.34-53.71,0,0,1.15-3.04-1.71-10.64Z"/>
                    <path class="cls-23" d="M147.17,313.07c-7.15,1.88-21.78-5.27-21.78-5.27,1.6,3.73,1.62,6.83,1.16,9.11-.57,2.82-3.4,4.57-6.2,3.89-3.02-.73-6.89-2.53-9.07-6.93-3.93-7.95-6.17-21.26-6.17-21.26h0s0,0,0,0c-.65-3.03-.61-6,.2-8.2,2.23-6.13,12.09-5.81,17.49-10.44-7.84,1.41-16.27.8-23.64-5.12-6.59-5.29-15.57-18.01-14.38-40.35-6.03,10.01-5.88,21.4-6.6,32.42,3.39,7.35,6.51,14.11,6.53,14.19,0,0,1.38,8.64,5.08,16.77v.03c2.87,7.6,1.72,10.64,1.72,10.64-6.66,23-6.34,53.71-6.34,53.71,23.7.86,42.94-12.45,60.53-32.13,17.59-19.68,39.64-25.57,39.64-25.57-13.39-1.58-30.99,12.65-38.15,14.53Z"/>
                    <g class="cls-23">
                      <path d="M172.88,184.18c4.2-7.86,9.25-27,10.2-30.52.95-3.52,2.53-8.69.81-10.3.82,2.93-5.27,3.17-10.68,2.12,3.7,6.65-2.79,23.42-7.46,34.44-4.23,9.99-18.82,34.04-31.06,36.34,1.74,1.58,7.62,12.39,7.62,12.39l.72-.03c11.6-10.87,25.69-36.67,29.84-44.44Z"/>
                    </g>
                  </g>
                  <path class="cls-27" d="M146.23,182.71s-1.12-3.83-.38-11.07l.92.09c-.74,7.16-.55,10.94-.54,10.97Z"/>
                  <path class="cls-27" d="M132.78,203.06s-1.41-2.46-4.75-3.4l.25-.89c3.72,1.05,4.5,4.3,4.5,4.3Z"/>
                  <path class="cls-27" d="M142.22,229.2c-6.53-12.7-13.64-19.11-13.71-19.18,0,0,2.74,1.21,5.67,4.91,2.56,3.23,5.78,7.84,8.86,13.84l-.83.42Z"/>
                  <g>
                    <g class="cls-23">
                      <rect class="cls-15" x="105.92" y="210.81" width="9.45" height="30.36" transform="translate(-56.52 37.92) rotate(-15.55)"/>
                    </g>
                    <rect class="cls-5" x="105.92" y="210.81" width="9.45" height="30.36" transform="translate(-56.52 37.92) rotate(-15.55)"/>
                  </g>
                  <path class="cls-27" d="M85.15,275.02l-.92.15c-2.28-13.65-2.82-26.18-1.62-38.02.56-5.1,2.15-8.66,2.15-8.66-2.58,14.33-2.45,29.55.39,46.53Z"/>
                  <path class="cls-27" d="M115.68,268.77c.07-.02.15-.04.22-.06,8.47-2.36,17.09-11.34,19.69-20.56,0,0,.39,2.5-1.69,6.42-1.41,2.53-3.21,4.97-5.32,7.16-2.14,2.23-4.49,4.09-6.91,5.5-3.11,1.87-5.99,1.55-5.99,1.55Z"/>
                  <path class="cls-27" d="M118.12,276.57c-5.76,1.6-11.21,1.77-15.65.51-4.15-.9-5.25-3.69-5.25-3.69,2.66,2.19,6.38,3.42,10.78,3.57,4.57.16,9.69-.88,14.79-2.99,8.88-3.67,16.09-10.47,18.36-17.32,0,0,.52,3.59-3.7,8.08-.72.83-1.5,1.65-2.34,2.44-3.34,3.15-7.48,5.8-11.97,7.66-1.69.7-3.37,1.28-5.03,1.74Z"/>
                </g>
                <g>
                  <g>
                    <path class="cls-20" d="M115.62,200.71c-.56-.81-2.06-4.16-3.26-8.02l-20.82,5.79c.97,3.92,1.41,7.57,1.35,8.55,2.62,1.41,13.81,5.95,13.81,5.95,0,0,7.39-9.7,8.91-12.27Z"/>
                    <path class="cls-18" d="M98.67,196.74l-6.85,1.9c.97,3.92,1.41,7.57,1.35,8.55,2.62,1.41,13.81,5.95,13.81,5.95,0,0,1.03-1.35,2.4-3.18-7.25-2.31-9.64-7.39-10.72-13.22Z"/>
                    <path class="cls-5" d="M115.62,200.71c-.56-.81-2.06-4.16-3.26-8.02l-20.82,5.79c.97,3.92,1.41,7.57,1.35,8.55,2.62,1.41,13.81,5.95,13.81,5.95,0,0,7.39-9.7,8.91-12.27Z"/>
                  </g>
                  <g>
                    <path class="cls-42" d="M90.78,199.24c-.35,3.29,1.42,6.21,4.06,7.09,2.79.93,6.46,1.12,8.73,2.49,1.63.99,2.55,2.31,3.41,4.32.1.37.3,1.07.3,1.07-2.5.7-6.63.89-10.55.21-3.93-.68-6.22-1.69-7.53-4.67-.86-1.96-1.22-9.74,1.58-10.52Z"/>
                    <path class="cls-5" d="M90.78,199.24c-.35,3.29,1.42,6.21,4.06,7.09,2.79.93,6.46,1.12,8.73,2.49,1.63.99,2.55,2.31,3.41,4.32.1.37.3,1.07.3,1.07-2.5.7-6.63.89-10.55.21-3.93-.68-6.22-1.69-7.53-4.67-.86-1.96-1.22-9.74,1.58-10.52Z"/>
                    <path class="cls-23" d="M106.77,212.65c-2.81.43-5.67.47-8.44-.5-2.86-1.06-4.27-3.57-4.67-6.38-1.96-1.25-3.17-3.75-2.88-6.53-2.8.78-2.44,8.56-1.58,10.52,1.31,2.98,3.6,3.99,7.53,4.67,3.93.68,8.05.48,10.55-.21,0,0-.19-.7-.3-1.07-.07-.17-.15-.33-.22-.49Z"/>
                  </g>
                  <g>
                    <path class="cls-42" d="M113.84,192.82c2,2.64,1.99,6.05.18,8.17-1.91,2.24-4.96,4.29-6.19,6.65-.89,1.69-.99,3.29-.69,5.46.1.37.3,1.07.3,1.07,2.5-.7,6.13-2.66,9.15-5.27,3.01-2.61,4.45-4.66,4.04-7.89-.27-2.12-3.98-8.97-6.78-8.19Z"/>
                    <path class="cls-5" d="M113.84,192.82c2,2.64,1.99,6.05.18,8.17-1.91,2.24-4.96,4.29-6.19,6.65-.89,1.69-.99,3.29-.69,5.46.1.37.3,1.07.3,1.07,2.5-.7,6.13-2.66,9.15-5.27,3.01-2.61,4.45-4.66,4.04-7.89-.27-2.12-3.98-8.97-6.78-8.19Z"/>
                    <path class="cls-23" d="M107.11,209.73c-.18,1.02-.15,2.1.03,3.37.1.37.3,1.07.3,1.07,2.5-.7,6.13-2.66,9.15-5.27,1.99-1.72,3.3-3.2,3.83-4.94-3.25,4.08-10.78,8.61-13.31,5.77Z"/>
                  </g>
                </g>
                <g class="cls-23">
                  <path d="M49.5,253.29c-1.47-2.9,1.74-7.84,8.3-12.86,6.56-5.02,9.31-4.7,9.31-4.7,0,0,2.69-.08,3.55,3.66.86,3.74-1.41,9.44-7.07,14.27-5.65,4.83-12.22,3.34-14.09-.36Z"/>
                </g>
                <path class="cls-5" d="M49.5,253.29c-1.47-2.9,1.74-7.84,8.3-12.86,6.56-5.02,9.31-4.7,9.31-4.7,0,0,2.69-.08,3.55,3.66.86,3.74-1.41,9.44-7.07,14.27-5.65,4.83-12.22,3.34-14.09-.36Z"/>
                <g>
                  <path class="cls-39" d="M52.09,218.83c1.33-1.21,2.76-2.88,5.18-1.68,1.95.96,4.19,3.88,2.27,6.06-5.36-.9-7.45-4.38-7.45-4.38Z"/>
                  <path class="cls-5" d="M52.09,218.83c1.33-1.21,2.76-2.88,5.18-1.68,1.95.96,4.19,3.88,2.27,6.06-5.36-.9-7.45-4.38-7.45-4.38Z"/>
                  <g>
                    <path class="cls-41" d="M59.87,254.39c-2.28-5.58-3.68-10.34-4.7-11.79-1.03-1.45-10.07-10.33-10.98-12.73-.91-2.4,1.42-6.61,3.19-8.91,1.77-2.3,3.27-3.41,5.05-2.97,1.78.44,1.61,1.78,1.61,1.78,2.35-.32,4.14.48,4.4,2.36,2.27-.06,3.03,1.36,2.95,2.68,1.85.03,3.75,2.54,2.65,4.66,1.96,1.47,1.87,5.75,1.64,6.66,2.13,3.09,3.89,5.62,5.05,6.23-1.51,6.72-10.86,12.03-10.86,12.03Z"/>
                    <path class="cls-18" d="M44.94,225.01c-.79,1.76-1.24,3.56-.75,4.85.91,2.4,9.95,11.28,10.98,12.73,1.03,1.45,2.43,6.21,4.7,11.79,0,0,1.46-.83,3.32-2.25-1.17-1.89-3.13-8.48-6.28-11.94-3.02-3.37-13.13-9.86-11.97-15.19Z"/>
                    <g>
                      <path class="cls-18" d="M49.52,226.05c.45-2.15,2.15-5.45,4.52-6.28,0,0,.17-1.34-1.61-1.78-.18-.04-.35-.07-.52-.08.58,1.02-1.2,2.18-2.03,3.75-.98,1.86-.67,3.93-.36,4.4Z"/>
                      <path class="cls-18" d="M56.33,219.86c.57,1.22-1.25,1.96-2.38,3.63-1.09,1.61-1.05,4.13-.69,4.86.45-2.64,2.87-5.43,5.18-6.21-.16-1.21-.95-1.97-2.11-2.28Z"/>
                      <path class="cls-18" d="M59.88,222.34c.6,1.29-1.68,2.39-2.27,3.92-.57,1.5-.32,3.49-.09,3.79.67-2.49,2.5-4.63,3.87-5.24.06-.99-.34-2.03-1.51-2.47Z"/>
                      <path class="cls-18" d="M63.57,226.01c.03,1.12-.72,2.55-1.54,2.57-.11.98,1,1.51,2.01.89.62-1.2.28-2.53-.47-3.46Z"/>
                    </g>
                    <path class="cls-5" d="M59.87,254.39c-2.28-5.58-3.68-10.34-4.7-11.79-1.03-1.45-10.07-10.33-10.98-12.73-.91-2.4,1.42-6.61,3.19-8.91,1.77-2.3,3.27-3.41,5.05-2.97,1.78.44,1.61,1.78,1.61,1.78,2.35-.32,4.14.48,4.4,2.36,2.27-.06,3.03,1.36,2.95,2.68,1.85.03,3.75,2.54,2.65,4.66,1.96,1.47,1.87,5.75,1.64,6.66,2.13,3.09,3.89,5.62,5.05,6.23-1.51,6.72-10.86,12.03-10.86,12.03Z"/>
                  </g>
                  <path class="cls-38" d="M49.52,226.05s-.29-2.16,1.51-4.31c.71-.86,1.58-1.63,2.77-2.37l.49.79c-2.53,1.58-3.49,3.28-4.77,5.89Z"/>
                  <path class="cls-38" d="M53.26,228.35s-.34-2.15,1.41-4.12c.86-.9,2-1.76,3.57-2.51l.4.84c-3.49,1.67-4.68,3.87-5.38,5.79Z"/>
                  <path class="cls-38" d="M57.52,230.05s.11-2.12,1.38-3.6c.66-.77,1.42-1.52,2.23-2.03l.5.79c-2.18,1.38-4.09,4.81-4.11,4.85Z"/>
                  <path class="cls-38" d="M63.45,230.27c-.35.1-.68.09-1,0-.9-.29-.42-1.68-.42-1.68.06.18.32.67.71.8.28.09.63,0,1.03-.29l.53.76c-.29.2-.58.34-.85.42Z"/>
                  <path class="cls-38" d="M64.84,238.43s0,0,0,.02c0-.02.24-.51.39-2.35l.93.07c-.16,2.06-1.31,2.26-1.31,2.26Z"/>
                </g>
                <path class="cls-2" d="M128.52,319.57c-.42.31-11.04,14.95-31.1,19.24-16.75,3.6-18.63,3.98-18.81,4,0,0,3-17.78,4.55-36.26,1.1-13.17,1.47-26.67-.5-34.34-4.74-18.46-6.33-19.6-6.33-19.6,0,0,3.98-2.46,8.06-1.72.78.14,1.57.39,2.34.81,4.77,2.6,22.26,23.58,26.85,41.87,4.57,18.3,15.36,25.71,14.95,26Z"/>
                <path class="cls-11" d="M86.74,254.58s8.55,5.51,18.29,27.49c9.74,21.98,7.16,20.97,11.32,29.59,4.17,8.62,5,9.77,5,9.77,0,0-10.86,8.47-18.92,11.63-8.06,3.16-17.81,5.17-17.81,5.17,0,0,1.37-12.5,2.12-20.11.75-7.61,0-28.14,0-28.14l-7.26-25.43s11.16,21.4,11.59,37.63c.43,16.23,0,29.24,0,29.24,0,0,9.62-2.53,16.8-6.4,7.18-3.88,7.9-4.88,7.9-4.88,0,0-4.88-10.2-8.19-20.83-3.3-10.63-13.41-36.88-20.85-44.72Z"/>
                <path class="cls-11" d="M93.6,307.01s-.5,9.42,2.08,11.4c2.58,1.98,9.08,4.46,9.35,4.16s.46-2.68,2.05-6.44c1.59-3.77,1.55-9.32-2.05-12.89,0,0,1.42,3.27,0,8.62-1.42,5.35-1.72,6.84-1.72,6.84,0,0-4.86-1.69-5.95-2.58-1.09-.89-3.27-3.87-3.77-9.12Z"/>
                <path class="cls-9" d="M88.26,252.79s-2.96-.48-4.56,1.12c-1.6,1.6-1.96,2.41-1.96,2.41,0,0,3.6,1.24,6.12,5.07,0,0-4.25-1.92-6.12-1.4s-1,4.08-1,4.08c0,0-11.25-5.39-11.09-5.55s2.83-4.97,2.83-4.97c0,0,11.35-5.72,15.78-.77Z"/>
                <path class="cls-5" d="M76.33,252.62s5.64-3.51,10.41-.91c4.76,2.59,22.25,23.57,26.83,41.87,4.58,18.3,15.37,25.7,14.95,26s-11.03,14.94-31.09,19.24c-20.06,4.3-18.82,4-18.82,4,0,0,8.79-52.16,4.05-70.61-4.74-18.45-6.33-19.6-6.33-19.6Z"/>
                <g>
                  <path class="cls-42" d="M81.78,266.36c-.7-3.51-1.48-5.72-2.68-8.93-1.94-5.2-4.06-10.65-5.29-13.85-1.98-5.18-3.23-8.58-6.71-7.85,2.04.82,5.37,7.83-2.88,14.37-7.86,6.23-13.56,4.8-14.73,3.19.78,4.55,7.03,17.88,10.79,24.25,3.76,6.37,8.9,11.39,15.61,9.53,6.04-1.68,8.84-6.59,8.48-12.62l-.75-3.16-1.85-4.93Z"/>
                  <path class="cls-5" d="M81.78,266.36c-.7-3.51-1.48-5.72-2.68-8.93-1.94-5.2-4.06-10.65-5.29-13.85-1.98-5.18-3.23-8.58-6.71-7.85,2.04.82,5.37,7.83-2.88,14.37-7.86,6.23-13.56,4.8-14.73,3.19.78,4.55,7.03,17.88,10.79,24.25,3.76,6.37,8.9,11.39,15.61,9.53,6.04-1.68,8.84-6.59,8.48-12.62l-.75-3.16-1.85-4.93Z"/>
                  <g class="cls-23">
                    <path d="M49.5,253.29c.78,4.55,7.03,17.88,10.79,24.25,3.76,6.37,8.9,11.39,15.61,9.53,6.04-1.68,8.84-6.59,8.48-12.62l-.75-3.16-1.85-4.93c-.12-.58-1.88-6.24-2-6.76,2.82,11.79,1.76,22.68-6.25,21.55-8.13-1.15-15.34-16.2-15.09-27.56-4.79,1.96-8.08.88-8.94-.3Z"/>
                  </g>
                </g>
                <path class="cls-12" d="M183.89,352.25s.95-1.69,1.95-1.13,2,1.31.75,3.69c-1.25,2.38-9.05,9.83-9.6,19.97l1,1.39s-1.48.24-2.92-1.58-.44-5.95,0-6.82.94-5.73,8.82-15.52Z"/>
                <path class="cls-5" d="M183.89,352.25s.95-1.69,1.95-1.13,2,1.31.75,3.69c-1.25,2.38-9.05,9.83-9.6,19.97l1,1.39s-1.48.24-2.92-1.58-.44-5.95,0-6.82.94-5.73,8.82-15.52Z"/>
                <g>
                  <path class="cls-12" d="M78.61,342.81s-4.18,2.57-4.97,10.92c0,0,3.76,1.54,9.2-.29,0,0,.32-6.95-4.23-10.63Z"/>
                  <path class="cls-5" d="M78.61,342.81s-4.18,2.57-4.97,10.92c0,0,3.76,1.54,9.2-.29,0,0,.32-6.95-4.23-10.63Z"/>
                </g>
                <g>
                  <path class="cls-12" d="M61.78,309.21s-3.46,2.13-4.12,9.04c0,0,3.11,1.28,7.62-.24,0,0,.27-5.75-3.5-8.8Z"/>
                  <path class="cls-5" d="M61.78,309.21s-3.46,2.13-4.12,9.04c0,0,3.11,1.28,7.62-.24,0,0,.27-5.75-3.5-8.8Z"/>
                </g>
                <g>
                  <path class="cls-12" d="M128.65,320.13s-3.45,3.48-2.26,11.78c0,0,4.01.61,8.87-2.45,0,0-1.32-6.83-6.62-9.34Z"/>
                  <path class="cls-5" d="M128.65,320.13s-3.45,3.48-2.26,11.78c0,0,4.01.61,8.87-2.45,0,0-1.32-6.83-6.62-9.34Z"/>
                </g>
              </g>
              <g>
                <g>
                  <path class="cls-30" d="M32.93,183.39c5.63,7.71,16.21,9.49,22.02,6.24,5.81-3.26,4.17-10.76-.24-18.59-4.4-7.83-12.06-10.49-18.49-8.29-8.63,2.96-8.59,13.39-3.3,20.64Z"/>
                  <path class="cls-18" d="M41.69,182.31c2.96,3,7.31,3.33,9.71.74,2.4-2.59,1.95-7.13-1.01-10.13-2.96-3-7.31-3.33-9.71-.74-2.4,2.59-1.95,7.13,1.01,10.13Z"/>
                </g>
                <g>
                  <path class="cls-10" d="M152.62,154.66c-1.52,9.43-10.13,15.82-16.79,15.55-6.66-.27-8.59-7.7-8.23-16.68.37-8.98,5.98-14.82,12.71-15.77,9.03-1.28,13.73,8.04,12.31,16.9Z"/>
                  <path class="cls-4" d="M32.93,183.39c5.63,7.71,16.21,9.49,22.02,6.24,5.81-3.26,4.17-10.76-.24-18.59-4.4-7.83-12.06-10.49-18.49-8.29-8.63,2.96-8.59,13.39-3.3,20.64Z"/>
                  <path class="cls-4" d="M152.62,154.66c-1.52,9.43-10.13,15.82-16.79,15.55-6.66-.27-8.59-7.7-8.23-16.68.37-8.98,5.98-14.82,12.71-15.77,9.03-1.28,13.73,8.04,12.31,16.9Z"/>
                  <path class="cls-18" d="M144.33,157.68c-1.28,4.02-5,6.29-8.32,5.07-3.32-1.22-4.97-5.47-3.7-9.49,1.27-4.02,5-6.29,8.32-5.07,3.32,1.22,4.97,5.47,3.7,9.49Z"/>
                </g>
                <path class="cls-1" d="M134.58,132.85c-8.58-39.58-30.2-35.74-58.01-28.98h-.02c-27.86,6.61-49.35,13.12-38.54,52.16,10.92,39.46,34.41,53.31,62.26,46.63,27.85-6.68,42.78-30.76,34.32-69.81Z"/>
                <path class="cls-18" d="M45,162.04s11.28-12.7,5.24-30.63c0,0,14.33.4,22.33-5.36,8-5.76,16.83-7.64,20.55-8.65,3.72-1.02,16.72-1.38,19.77-2.82,0,0,9.01,22.01,19.37,22.7,10.36.69-1.1-42.16-2.6-42.14-1.5.03-15.22-4.95-15.22-4.95,0,0-18.98,3.07-22.39,4.51-3.41,1.43-21.57,9.97-25.37,10.88-3.79.91-17.69,5.92-19.24,6.96s-10.21,4.55-12.6,7.16c-2.39,2.61-.35,9.56.65,13.45s4.28,26.32,4.28,26.32l5.23,2.56Z"/>
                <path class="cls-18" d="M134.58,132.85c8.46,39.04-6.48,63.12-34.32,69.8-27.85,6.68-51.34-7.17-62.25-46.63-.56-2.01-1.03-3.94-1.42-5.78.09.37.19.74.3,1.11,10.92,39.46,34.41,53.31,62.25,46.63,27.83-6.68,42.77-30.73,34.34-69.75.39,1.46.76,3,1.11,4.61Z"/>
                <path class="cls-4" d="M135.18,132.71c-8.58-39.58-30.2-35.74-58.01-28.98h-.02c-27.86,6.61-49.35,13.12-38.54,52.16,10.92,39.46,34.41,53.31,62.26,46.63,27.85-6.68,42.78-30.76,34.32-69.81Z"/>
                <g>
                  <path class="cls-14" d="M71.45,132.23c.77-2.35-4.15-6.56-13.4-1.52-5.55,3.02-5.12,8.57-4.92,8.84s2.54-3.26,6.39-4.55c5.76-1.94,11.26-.72,11.93-2.76Z"/>
                  <path class="cls-14" d="M95.12,126.55c-1.75-1.75.72-7.73,11.25-7.44,6.31.17,8.45,5.31,8.39,5.64-.06.33-3.75-1.75-7.76-1.16-6.01.89-10.36,4.47-11.88,2.95Z"/>
                  <path class="cls-26" d="M64.2,143.63c13.45-5.87,20.47,17.75,11.63,23.59-7.18,4.74-15.23.13-16.88-6.08-2.06-7.8-.36-15.05,5.25-17.5Z"/>
                  <g>
                    <ellipse class="cls-3" cx="70.18" cy="156.55" rx="5.49" ry="6.58" transform="translate(-34.6 20.7) rotate(-13.49)"/>
                    <ellipse class="cls-16" cx="73.47" cy="154.81" rx="1.03" ry="1.38" transform="translate(-34.1 21.42) rotate(-13.49)"/>
                  </g>
                  <path class="cls-14" d="M62.04,143.62c.64-.45,1.4-.81,2.15-1.05,1.42-.49,2.93-.83,4.45-.8,2.3,0,4.43,1.14,5.79,2.79v.02c.27.3-.14.73-.49.51-.56-.36-1.14-.68-1.73-.92-1.17-.5-2.39-.7-3.62-.6-1.24.09-2.5.45-3.76.89-.59.2-1.11.45-1.63.79-4.45,3.21-4.7,9.51-4.37,14.49.02.26-.37.36-.46.12-1.24-3.11-3.51-11.19,3.67-16.23Z"/>
                  <g>
                    <path class="cls-26" d="M107.45,133.25c-14.65.87-10.18,25.11.35,26.29,8.55.96,13.63-6.8,12.28-13.08-1.7-7.89-6.51-13.58-12.63-13.21Z"/>
                    <g>
                      <ellipse class="cls-3" cx="107.3" cy="147.64" rx="5.49" ry="6.58" transform="translate(-31.49 29.12) rotate(-13.49)"/>
                      <ellipse class="cls-16" cx="110.59" cy="145.9" rx="1.03" ry="1.38" transform="translate(-30.99 29.84) rotate(-13.49)"/>
                    </g>
                    <path class="cls-14" d="M109.37,132.27c-.78-.11-1.62-.09-2.39.04-1.49.21-2.99.59-4.33,1.31-2.05,1.04-3.43,3.03-3.89,5.11v.02c-.1.39.47.58.67.23.34-.57.7-1.12,1.12-1.61.81-.98,1.81-1.71,2.96-2.18,1.15-.48,2.43-.73,3.75-.91.62-.09,1.19-.11,1.81-.04,5.42.84,8.5,6.34,10.47,10.93.1.24.49.15.47-.11-.31-3.33-1.95-11.57-10.64-12.8Z"/>
                  </g>
                </g>
                <path class="cls-5" d="M117.33,108.42c-.3,23.06,15.31,30.42,15.31,30.42.1,12.53,6,16.56,6,16.56,2.85-1.6-.79-11-.82-12.93-.02-1.93,5.1-4.87,5.1-4.87,7.27-40.01-16.64-44.41-16.64-44.41,0,0-9.95-4.71-8.95,15.23Z"/>
                <path class="cls-14" d="M104.43,93.22c-5.56-1.13-11.08-2.65-16.74-3.2-5.86-.57-11.21.14-16.79,1.96-9.98,3.24-19.8,9.49-27.29,16.47-7.21,6.71-12.51,14.65-14.14,24.43-.66,3.97-3.92,5.84-7.4,6.01.06.35.12.7.19,1.05,1.3,6.49,4.75,14.38,11.89,23.75,0,0,5.9.3,6.76,2.03.85,1.73,1.87,11.76,5.14,11.89,0,0,3.43-6.27-2.17-17.48,0,0,10.57-13.64-.16-34.06,0,0,19.77.78,26.6-3.02,6.84-3.8,14.26-12.84,26.89-9.82,9.6,2.3,24.65-5.22,31.81-13.08-7.74-3.54-16.24-5.25-24.58-6.94Z"/>
                <path class="cls-14" d="M117.33,108.42c-.3,23.06,15.31,30.42,15.31,30.42.1,12.53,6,16.56,6,16.56,2.85-1.6-.79-11-.82-12.93-.02-1.93,5.1-4.87,5.1-4.87,7.27-40.01-16.64-44.41-16.64-44.41,0,0-9.95-4.71-8.95,15.23Z"/>
                <path class="cls-5" d="M104.43,93.22c-5.56-1.13-11.08-2.65-16.74-3.2-5.86-.57-11.21.14-16.79,1.96-9.98,3.24-19.8,9.49-27.29,16.47-7.21,6.71-12.51,14.65-14.14,24.43-.66,3.97-3.92,5.84-7.41,6.01,1.13,6.68,4.55,14.92,12.08,24.81,0,0,5.9.3,6.76,2.03.86,1.73,1.87,11.76,5.14,11.89,0,0,3.43-6.27-2.17-17.48,0,0,10.57-13.64-.16-34.06,0,0,19.77.78,26.6-3.02,6.83-3.79,14.26-12.84,26.89-9.82,9.6,2.3,24.65-5.22,31.81-13.08-7.74-3.54-16.24-5.25-24.58-6.94Z"/>
                <path class="cls-38" d="M29.4,117.79c.74.18,1.5.5,2.24.9-1.32-.49-2.15-.86-2.24-.9Z"/>
                <path class="cls-38" d="M124.07,98.17c-4.57,4.91-9.27,7.75-13.45,8.87-8.49,2.27-44.36,3.29-44.36,3.29,3.15,1.43,8.89,3.26,8.89,3.26-4.94,3.83-18.87,7.06-27.29,7.93-4.66.48-9.82-.71-13.5-1.88-.12.21-.24.42-.36.63,2.88,2.22,5.4,5.16,6.55,6.1,1.73,1.42,3.88,8.6,3.44,14.34-.44,5.74-2.78,11.01-8.96,11.11-6.18.11-12.78-11.88-12.78-11.88h0c1.3,6.49,4.75,14.39,11.89,23.76,0,0,5.9.3,6.76,2.03.85,1.73,1.87,11.76,5.14,11.89,0,0,3.43-6.27-2.17-17.48,0,0,10.57-13.64-.16-34.06,0,0,19.77.78,26.6-3.02,6.84-3.8,14.26-12.84,26.89-9.82,9.6,2.3,24.65-5.22,31.81-13.08-1.62-.74-3.26-1.41-4.94-2Z"/>
                <path class="cls-38" d="M104.43,93.22c-2.07-.42-4.13-.9-6.2-1.35-.69.17-1.4.34-2.16.5-13.58,2.96-27.4,1.76-37.57,5.16-1.02.58-2.02,1.18-3,1.8,4.6-.81,17.59-2.84,33.04-2.95,6.92-.05,12.87-.9,17.96-2.73-.69-.14-1.38-.28-2.07-.42Z"/>
                <g>
                  <path class="cls-28" d="M84.01,182.15c.63,1.72,1.88,3.58,4.02,5.24.14.11.28.21.42.32,6.45,4.82,12.39,5.3,17.65-1.16,1.71-2.09,3.03-4.76,3.75-7.18.29-.98.49-1.92.57-2.76.2-2.12-.28-3.63-.96-4.26-.86-.79-2.5-1.7-5.14-.64-6.26,2.51-11.08,4.32-17.21,4.66-3.59.2-4.19,2.8-3.1,5.78Z"/>
                  <path class="cls-37" d="M88.44,187.71c6.45,4.82,12.39,5.3,17.65-1.16,1.71-2.09,3.03-4.76,3.75-7.18-1.43-2.58-13.53,2.09-16.31,3.6-2.82,1.53-5.05,3.79-5.1,4.74Z"/>
                </g>
                <path class="cls-44" d="M88.68,161.95s-.39,5.62,2.76,6.36c.58.14.88-.6,1.56-.59.69,0,1.42.48,1.42,1.73,0,2.07-3.77,3.02-6.31-1-1.76-2.77-.29-5.58.57-6.5Z"/>
                <path class="cls-38" d="M85.87,162.69c-1.11,3.14.98,6.78,3.95,8.14.2.09.4.17.61.24.48.16.8-.47.39-.77-1.89-1.37-3.04-3.57-2.94-5.92.02-2.12,1.42-3.51,3.34-4.27,1.24-.51,2.53-.58,3.9-.48.41.03.56-.54.18-.71h-.02c-2.2-1.01-7.65-1.26-9.41,3.76Z"/>
              </g>
              <g>
                <path class="cls-13" d="M11.1,102.54c-.04-.44,2.52-16.35,21.67-26.81,21.28-11.63,59.65-23.16,74.53-14.95,16.3,9-23.1,8.99-27.29,10.6-4.1,1.58-59.36,29.53-61.89,31.85-2.5,2.29-8.9,6.67-8.91,6.4s1.89-7.09,1.89-7.09Z"/>
                <path class="cls-5" d="M11.1,102.54c-.04-.44,2.52-16.35,21.67-26.81,21.28-11.63,59.65-23.16,74.53-14.95,16.3,9-23.1,8.99-27.29,10.6-4.1,1.58-59.36,29.53-61.89,31.85-2.5,2.29-8.9,6.67-8.91,6.4s1.89-7.09,1.89-7.09Z"/>
                <path class="cls-13" d="M27.97,150.46s-3.4,1.54-6.57-.39c-3.1-1.88-9.44-11.54-7.77-14.77,0,0-2.12.71-4.91-5.49-2.71-6.03-6.15-18.82-1.28-25.56,4.96-6.87,26.58-19,30.42-20.84,3.91-1.88,22.8-12.68,53.67-17.12,18.71-2.69,36.3-3.44,43.5,4.82,7.55,8.67,7.52,16.08,6.25,17.96-1.27,1.87-5.41,1.66-5.41,1.66,0,0,5.8,1.37,6.92,3.77,1.14,2.43,1.18,16.18,1.18,16.18,0,0-17.68-.58-26.45-1.61-8.4-.99-44.46-.17-63.22,10.51-17.24,9.81-27.52,20.02-26.34,30.87Z"/>
                <path class="cls-33" d="M18.71,147.5c3.03,4.58,7.15,3.72,8.67,3.19.38-.13.59-.24.59-.24-1.23-3.47.64-17.81,29.21-32.21,31.87-16.06,86.76-7.53,86.76-7.53l-1.16-13.11v-3.42c-.12-.1-6.02-2.54-6.73-3.93-.47-.27,5.35-.05,5.48-1.86.65-9.04-8.52-19.13-11.48-20.92,3.75,7.31,6.38,10.79,3.5,20.03-3.65.36-5.15.41-8.92,1.59-4.64,1.46-3.12,3.59,1.45,4.2,2.63.35,3.73,1.44,3.73,1.44,0,0-1.88,8.26-3.44,8.19-21.36-.86-46.79-4.95-74.67,9.11-23.25,11.26-36.66,29.94-33,35.47Z"/>
                <path class="cls-33" d="M27.38,150.7c.38-.13.59-.24.59-.24-1.23-3.47.64-17.81,29.21-32.21,31.87-16.06,86.76-7.53,86.76-7.53l-1.16-13.11c-.35-.11-.54-.16-.54-.16,0,0-1.85,4.51-4.78,7.41-2.89,2.86-65.01-13.88-106.22,25.3-8.47,8.05-6.14,16.18-3.85,20.54Z"/>
                <path class="cls-5" d="M27.97,150.46s-3.4,1.54-6.57-.39c-3.1-1.88-9.44-11.54-7.77-14.77,0,0-2.12.71-4.91-5.49-2.71-6.03-6.15-18.82-1.28-25.56,4.96-6.87,26.58-19,30.42-20.84,3.91-1.88,22.59-12.65,53.67-17.12,18.71-2.69,36.3-3.44,43.5,4.82,7.55,8.67,7.52,16.08,6.25,17.96-1.27,1.87-5.41,1.66-5.41,1.66,0,0,5.8,1.37,6.92,3.77,1.14,2.43,1.18,16.18,1.18,16.18,0,0-19.32-.78-28.02-1.8-8.33-.98-42.89.02-61.65,10.7-17.24,9.81-27.52,20.02-26.34,30.87Z"/>
                <path class="cls-5" d="M13.59,135.4s.68-2.15,1.79-2.91"/>
                <path class="cls-33" d="M95.22,73.4c2.53-.57,5.1-1.06,7.69-1.47.97-.16,1.12-1.55.16-1.56-.03,0-.05,0-.08,0-30.87-.1-61.28,12.63-86.22,37.16-.85.84.13,2.48,1,1.67,24.09-22.26,52.79-30.08,77.45-35.8Z"/>
                <path class="cls-33" d="M47.54,108.36c13.17-6.72,28.51-10.01,44.64-10.68,4.86-.21,9.85-.2,14.86-.01,1.28.04,2.58.11,3.9.17.54.03.76-.72.25-.85h-.04c-3.67-.95-7.41-1.71-11.12-2.21-23.21-3.33-46.52,2.48-63.45,15.42-5.29,4.02-10.02,8.66-13.89,13.88-.01.02-.02.03-.03.05-.39.53.23,1.23.7.78,4.11-3.93,11.81-10.24,24.18-16.55Z"/>
              </g>
            </g>
            <g>
              <path class="cls-32" d="M221.4,123.63l-1.11-3.73-3.54.09c-.34.01-34.65.85-56.66,2.33l-6.22.42,1.96,6.55c4.38,14.65,5.9,33.82,7.24,50.73,1.09,13.77,2.12,26.78,4.53,36.45l.86,3.45s50.9-2.93,62.45-7.49l2.34-.92.67-2.65c5.77-22.96-10.61-78.92-12.5-85.22Z"/>
              <g>
                <path class="cls-27" d="M187.52,187.68l1.33-.13c.65.93,1.17,2.09,1.89,2.98.1.12.13.31.38.3.27-.67.81-3.12,1.23-3.55.27-.27.87-.2,1.26-.27l.5,4.58-.85.09-.4-3.64-1.43,3.67c0,.26-.58.31-.73.17l-2.23-3.35.4,3.64-.85.09-.5-4.58Z"/>
                <path class="cls-27" d="M185.64,174.16l-.5-4.58,2.45-.27c.13-.01,1.07.18,1.26.24,1.49.49,1.71,2.51.69,3.49-.96.93-2.56.97-3.9,1.11ZM186.58,173.38c3.89.16,3.45-4.25-.36-3.23l.36,3.23Z"/>
                <path class="cls-27" d="M203.41,190.5c-.1,1.53-1.74,1.97-3.39,1.8l-.08-.66c1.57.44,2.67-.15,2.57-1.51-.45.03-.56.44-.95.59-2.65,1-3.19-3.28-.47-3.29.5,0,.7.31,1.16.28l-.03-.39.83-.11c-.02,1.04.43,2.29.36,3.3ZM200.86,188c-1.12.38-.92,2.47.54,2.24,1.66-.27,1.02-2.76-.54-2.24Z"/>
                <path class="cls-27" d="M191.4,182.71c-1.28.4-1.06-.6-1.55-.92-.27-.18-1.81,0-2.13.17-.59.31-.03,1.48-1.39,1.31l1.55-4.78h1.09s2.43,4.22,2.43,4.22ZM189.51,181.14c-.36-.6-.58-1.5-1.24-1.91l-.46,2.09,1.69-.19Z"/>
                <path class="cls-27" d="M214.72,184.41l.24,2.15c1.56-1.67,3.44-.66,3.17,1.19-.18,1.2-1.83,1.8-2.93.97l.06.54-.85.09-.53-4.85.85-.09ZM216.78,186.4c-1.47-.87-2.62,2.02-.79,2.21,1.33.14,1.69-1.67.79-2.21Z"/>
                <path class="cls-27" d="M195.45,195.72l.22,2.02c.61-.49.97-.87,1.88-.6.12.04.66.35.66.39l.3,2.76-.85.09-.26-2.36c-.08-.71-1.73-.2-1.69.19l.26,2.36-1.01.11-.53-4.85,1.01-.11Z"/>
                <path class="cls-27" d="M191.7,168.59l.22,2.02c.67-.46,1.27-.95,2.16-.58.14.06.56.4.57.48l.29,2.63-.85.09-.25-2.22c-.02-.21-.62-.58-.99-.51-.29.05-.87.69-.86.85l.23,2.09-.85.09-.53-4.85.85-.09Z"/>
                <path class="cls-27" d="M201.17,167.54l.22,2.02c.67-.46,1.27-.95,2.16-.58.14.06.56.4.57.48l.29,2.63-.85.09-.25-2.22c-.02-.21-.62-.58-.99-.51-.29.05-.87.69-.86.85l.23,2.09-.85.09-.53-4.85.85-.09Z"/>
                <path class="cls-27" d="M204.91,185.49l.22,2.02c.59-.84,2.63-.97,2.74.04l.27,2.49-.85.09-.25-2.22c-.02-.21-.62-.58-.99-.51-.29.05-.87.69-.86.85l.23,2.09-.85.09-.53-4.85.85-.09Z"/>
                <path class="cls-27" d="M196.6,169.55l.27,2.49c.4.52,1.72.07,1.68-.32l-.26-2.36,1.01-.11.37,3.37-1.02.11-.14-.53c-.69,1.18-2.58.7-2.7-.45l-.23-2.09,1.01-.11Z"/>
                <polygon class="cls-27" points="186.99 160.2 187.06 160.87 185.03 161.09 185.18 162.44 187.04 162.24 187.12 162.91 185.25 163.12 185.46 165 184.45 165.11 183.94 160.53 186.99 160.2"/>
                <path class="cls-27" d="M202.92,199.8l-.85.09-.06-.54c-.8.88-2.53,1.1-2.6-.19-.06-1.12,1.4-1.12,2.43-1.42-.22-.98-1.44-.52-2.24-.16l.04-.56c.96-.61,2.91-.6,3.04.56l.25,2.22ZM201.89,198.28c-.93.04-2.03.23-1.51,1.13.98.31,1.64-.36,1.51-1.13Z"/>
                <path class="cls-27" d="M198.51,191.11l-.85.09-.06-.54c-1.64,1.83-3.98-.51-1.56-1.3.41-.13.95-.12,1.38-.32-.05-.92-1.39-.65-2.07-.18l.1-.63c.62-.43,2.69-.48,2.77.24l.29,2.63ZM197.49,189.58c-.71,0-2.1.27-1.52.99.54.67,1.98-.23,1.52-.99Z"/>
                <path class="cls-27" d="M191.21,164.37l-.85.09-.06-.54c-1.7,1.86-3.89-.54-1.55-1.29.43-.14.96-.12,1.38-.32-.08-.96-1.34-.59-2.07-.18l.1-.63c.62-.43,2.69-.48,2.77.24l.29,2.63ZM190.19,162.84c-.71,0-2.1.27-1.52.99.54.67,1.98-.23,1.52-.99Z"/>
                <path class="cls-27" d="M193.58,197.58l.08.52c-.06.07-1.76-.24-1.83.42-.05.54,2.21.31,2.2,1.37-.01.93-1.89,1.24-2.78,1.05l-.09-.66c.46.28,1.96.23,2.01-.31.06-.58-2-.29-2.18-1.25-.19-.97,1.7-1.36,2.59-1.15Z"/>
                <path class="cls-27" d="M194.23,179.15l.08.52c-.06.07-1.88-.35-1.66.52.12.5,1.86.21,2.04,1.14.2,1.05-1.82,1.38-2.78,1.18l-.08-.52c.08-.09,2.54.31,1.94-.74-3.12-.19-2.4-2.45.46-2.1Z"/>
                <rect class="cls-27" x="188.96" y="196.66" width="1.02" height="4.61" transform="translate(-20.67 21.97) rotate(-6.29)"/>
                <path class="cls-27" d="M192.87,160.78l.42,3.84c.06.53-1.16,1.4-1.92,1.23l-.05-.53c.44.07,1.14-.46,1.11-.74l-.41-3.7.85-.09Z"/>
                <path class="cls-27" d="M208.97,186.55l.85-.09.08.67c.34-.19.26-.52.77-.71.3-.11.5-.17.68.09l.07.45c-.67-.08-1.5.35-1.44.91l.22,1.95-.85.09-.37-3.37Z"/>
                <path class="cls-27" d="M205.23,168.59l.85-.09.08.67c.34-.19.26-.52.77-.71.3-.11.5-.17.68.09l.07.45c-.67-.08-1.5.35-1.44.91l.22,1.95-.85.09-.37-3.37Z"/>
                <path class="cls-27" d="M195.43,178.86l.85-.09.16.67c.25-.46.48-.83,1.19-.81l.08.67c-.49-.1-1.33.4-1.29.76l.23,2.09-.85.09-.37-3.37Z"/>
                <path class="cls-27" d="M194.22,160.63l.85-.09.16.67c.25-.46.48-.83,1.19-.81l.08.67c-.49-.1-1.33.4-1.29.76l.23,2.09-.85.09-.37-3.37Z"/>
                <rect class="cls-27" x="212.19" y="186.15" width=".85" height="3.39" transform="translate(-19.31 24.44) rotate(-6.29)"/>
                <path class="cls-27" d="M211.95,184.73c.85-.31,1.02.59.57.74-.55.19-1.17-.52-.57-.74Z"/>
                <path class="cls-27" d="M192.12,159.36c.58-.2,1.16.5.39.75-.69.23-.8-.61-.39-.75Z"/>
              </g>
              <path class="cls-4" d="M221.4,123.63l-1.11-3.73-3.54.09c-.34.01-34.65.85-56.66,2.33l-6.22.42,1.96,6.55c4.38,14.65,5.9,33.82,7.24,50.73,1.09,13.77,2.12,26.78,4.53,36.45l.86,3.45s50.9-2.93,62.45-7.49l2.34-.92.67-2.65c5.77-22.96-10.61-78.92-12.5-85.22Z"/>
              <g>
                <path class="cls-35" d="M186.06,198.16c-3.51.6-5.38.9-7.2,4.13l-2.86-1.81-1.52,1.31s5.43,3.49,5.43,3.39c0,0,1.06-4.8,6.16-7.02Z"/>
                <path class="cls-35" d="M184.66,188.14c-3.51.6-5.38.9-7.2,4.13l-2.86-1.81-1.52,1.31s5.43,3.49,5.43,3.39c0,0,1.06-4.8,6.16-7.02Z"/>
                <path class="cls-35" d="M182.45,178.98c-3.51.6-5.38.9-7.2,4.13l-2.86-1.81-1.52,1.31s5.43,3.49,5.43,3.39c0,0,1.06-4.8,6.16-7.02Z"/>
                <path class="cls-35" d="M181.23,169.57c-3.51.6-5.38.9-7.2,4.13l-2.86-1.81-1.52,1.31s5.43,3.49,5.43,3.39c0,0,1.06-4.8,6.16-7.02Z"/>
                <path class="cls-35" d="M180.27,161.14c-3.51.6-5.38.9-7.2,4.13l-2.86-1.81-1.52,1.31s5.43,3.49,5.43,3.39c0,0,1.06-4.8,6.16-7.02Z"/>
                <path class="cls-17" d="M202.07,128.24c.14.62.59,2.53.72,3.16l12.93-.65c-.18-.65-.67-2.56-.84-3.15l-12.81.64Z"/>
                <path class="cls-17" d="M163.48,130.9c.25,1.16,1.1,4.75,1.34,5.92l7.36-.51c-.34-1.21-1.26-4.8-1.57-5.91l-7.13.5Z"/>
                <g>
                  <path class="cls-17" d="M197.54,135.85c-.47-1.57.18-3.05-.56-4.6-1.1-2.27-4.7-2.72-5.75-5.23-.35-.83-.14-1.98-.9-2.64-.02,1.36.44,2.3-.22,3.66-.76,1.57-3.43,2.7-4.09,4.25-.84,2.01.15,3.47.11,5.33,0,.23-.3.45-.33.62l.2.23c.06.02.18.04.25.04.94-.03,2.36-.31,3.42-.37,2.45-.15,5.05-.4,7.49-.33.23,0,.49.1.74.12.33-.48-.23-.74-.34-1.09ZM196.7,134.52c-.64.38-1.59-.93-2.14-1.14-.74-.08-.02,1.97-1.37,1.4-.34-.14-.16-.85-.33-1.18-.17-.33-.76-.55-.81-.67-.17-.41.44-1.48-.9-1.72-.86.66-.1,1.3-.18,1.69-.06.31-.54.5-.65.75-.14.33.21,1.84-1.01,1.31-.66-.28.65-1.31-.67-1.33-.38,0-1.35,2.05-2.01,1.31-.1-.11.45-.74.5-1.02.11-.55-.3-1.07-.04-1.84.15-.46.59-.96.87-1.48.05-.04.11-.08.16-.11.02,0,.04,0,.06-.02,0,0,.02,0,.02-.01,1.21-.29,1.96-1.56,2.83-2.32,1.13,1.56,4.55,2.16,4.87,4.01.07.41-.19.84-.06,1.21.09.27,1.31.88.86,1.15Z"/>
                  <path class="cls-17" d="M197.09,137.01c.88.29.34,2.12.54,2.92-.65-.05-1.4-.33-2.05-.28-.53.04-.84.59-1.47.54s-1.12-.54-2.11-.49c-.89.04-1.75.89-1.86.89-.36-.01-.93-.43-1.61-.47-.74-.05-1.26.5-2.01.29.34-.87.12-1.78-.1-2.65l10.66-.74Z"/>
                  <g>
                    <path class="cls-17" d="M203.46,146.54c-.34,0-1.72.03-1.79-.06.56-1.09.38-3.71.15-4.97-.07-.37-.15-.5-.54-.52,3.21-2.22,1.63,1.12,2.08,1.62,3.82-2.04,2.24,1.7,3.49,3.56-.48.56-1.09.11-1.53.14l-.45-2.58c-.77-1.81-1.65-.53-1.58,1.05.03.67.79,1.2.19,1.75Z"/>
                    <path class="cls-17" d="M184.79,142.2l-.29,1.45c-.33-.81-2.37-1.37-2.34-.32.02.79,3.03,1.09,3,2.78-.04,2.04-2.67,2.18-4.19,1.64l.29-1.44c.83-.12.35.61.65.73.61.26,1.84.52,1.91-.38.08-1.01-2.8-1.26-2.93-2.75-.17-2.01,2.45-2.21,3.9-1.71Z"/>
                    <path class="cls-17" d="M200.51,146.26c-.71,1.1-1.7.28-2.32.26-.46-.01-.99.89-2.12.37-1.62-1.98,2.62-2.5,2.01-3.52-.35-.59-1.42.88-1.53.9-1.51.22-.25-1.63,1.1-1.77,3.01-.3,1.04,3.1,2.86,3.76Z"/>
                    <path class="cls-17" d="M190.31,146.56c.24.28,1.07-.09.67.78-1.27-.45-4.08,1.08-4.61-.31-.59-1.58,2.34-1.94,2.43-2.37.06-.28-.59-.63-.9-.65s-.34,1-1.35.65c-.85-.3,1.27-2.24,3.19-1.12.75.44.16,2.55.56,3.03Z"/>
                    <path class="cls-17" d="M194.73,146.6c.22.46-2.23.55-2.54.69.59-1.26.48-3.18.23-4.54-.08-.45-.61-1.04-.6-1.1.03-.12,1.84-1.25,2.06-.12.27,1.34-.57,4.33.85,5.08Z"/>
                  </g>
                  <g>
                    <path class="cls-17" d="M176.81,150.94c.08.07.23,1.09.1,1.18-3.77-2.49-3.18,4.38.03,2.11.2,1.88-3.11,1.36-3.72-.03-1.23-2.83,2.52-4.25,3.58-3.26Z"/>
                    <path class="cls-17" d="M207.33,150.41c-.46-.65-.92.96-1.47.6-1.1-.72.92-1.91,2.01-1.36.75.38.79,2.24,1.11,3.03-.89.28-2.84.92-3.33-.04-.79-1.53,2.18-1.52,1.67-2.24ZM207.62,151.97l-.86-.17-.12.58.86.17.12-.58Z"/>
                    <path class="cls-17" d="M215.08,150.76c.4,1.35.7.94,1.63.75,1.55-.32-.23,1.31-1.54,1.05-1.56-.31-1.62-2.25-.67-3.24,1.73-1.8,4.8,1.97.58,1.44Z"/>
                    <path class="cls-17" d="M181.33,152.18c1.27,1.62-1.7.85-1.81,1.97l2.08.12c.58,1.19-4.06,1.54-3.4-1.14.32-1.28,2.41-1.86,3.13-.94Z"/>
                    <path class="cls-17" d="M196.92,149.82c-.09.07-1.36-.35-1.33.64l1.15.24c-.02.5-.81.15-1,.57-.06.13.11,1.33.18,1.6.09.34,1.01.72.48,1.06-.09.06-2.01-.03-2.08-.12.56-.65.54-1.58.45-2.38-.04-.33-.96-.37.16-1.78,1.25-1.57,2.61-.28,1.99.17Z"/>
                    <path class="cls-17" d="M186.17,152.48c-.25.16-1.56-1.06-1.47,1.3.01.34.62.47.74.81-4.17.98-1.34-.32-1.96-2.15-.08-.24-1.03-.39-.29-.86.12-.07,2.64-.4,2.77-.34.35.17.41,1.12.21,1.24Z"/>
                    <path class="cls-17" d="M211.51,149.12c.11.18,1.09.17,1.42.31-1.41.51-2.12,2.79-.23,2.66-.08.96-1.32.89-1.89.38-.49-.45-.13-1.52-.35-2.03-.14-.32-.62-.38-.65-.44-.13-.24,1.29-1.37,1.7-1.76.31.12-.12.7-.01.87Z"/>
                    <path class="cls-17" d="M189.06,150.05c-.39,1.06-.01.96.98,1.1-1.48.61-1.03,1.05-1.1,2.48l1.21-.06c-.02.97-1.72,1.21-2.21.72-.16-.16-.03-1.59-.14-2.03-.11-.46-.63-.44-.58-.64.08-.33,1.53-2.1,1.83-1.58Z"/>
                    <path class="cls-17" d="M204.21,150.98c-.14.08-2.42-1.5-1.79,1.07.38,1.58,1.76.04,2.08.49.85,1.21-4.58,1.52-3.23-1.63.91-2.12,3.9-.48,2.94.07Z"/>
                    <path class="cls-17" d="M199.23,148.78c-.12.85-.05,2.98.2,3.76.17.54.78.47.67.92l-2.43.12c1.62-.97-1.15-5.34,1.56-4.8Z"/>
                    <path class="cls-17" d="M193,153.46c.02.07.94.35.08.56-.32.07-1.98.17-2.11.03,2-1.21-1.16-4.4,1.42-4.82l.61,4.23Z"/>
                  </g>
                </g>
              </g>
              <path class="cls-35" d="M222.33,200.71c.14-.04.31-.07.51-.09.19-.02.33.04.42.19.02.1,0,.18-.07.26-.06.07-.14.14-.22.19-.09.05-.17.1-.26.12-.09.03-.19.05-.19.05.11.44.22.91.36,1.43.13.51.27,1,.42,1.46.15.46.3.86.45,1.19.15.33.29.54.44.61-.08.12-.16.21-.24.28-.08.07-.18.14-.3.21-.12.07-.25.11-.4.14-.26.05-.49-.09-.7-.41-.21-.32-.41-.73-.59-1.23-.18-.5-.34-1.04-.48-1.64-.14-.59-.26-1.14-.37-1.64-.29.08-.61.18-.97.29-.36.12-.67.23-.95.33-.01.08,0,.22,0,.43.01.21.08,1.27.11,1.57.02.31.05.59.09.86.04.27.07.5.11.7.04.2.07.34.11.41-.02.11-.09.18-.22.23-.13.05-.23.08-.29.09-.25.04-.41,0-.5-.15-.09-.14-.16-.34-.2-.58-.09-.51-.15-1.04-.16-1.58-.01-.54-.02-1.07-.03-1.59-.09.04-.25.11-.47.19-.22.09-.37.17-.46.25-.12-.04-.22-.16-.29-.36-.03-.07.01-.14.11-.22.1-.07.22-.14.36-.21.14-.06.28-.12.42-.17.14-.05.24-.09.3-.11-.04-1.07-.05-2.14-.02-3.22.03-1.08.17-2.18.35-3.29.02-.12.04-.26.09-.41.04-.16.1-.31.18-.46.08-.15.17-.27.28-.37.11-.1.24-.14.39-.13-.04-.14-.08-.28-.11-.41-.04-.13-.05-.24-.05-.35,0-.11.05-.2.13-.27.08-.07.23-.13.43-.17.09-.02.19-.02.32-.02.11,0,.21.03.27.09.07.06.12.12.15.2.03.08.06.16.08.26.02.1.04.19.07.27.31,1.13.58,2.26.82,3.38.24,1.12.49,2.26.77,3.41ZM219.11,201.8c.27-.11.57-.22.91-.32.34-.1.64-.2.91-.3-.22-1.04-1.2-5.51-1.45-6.63-.09.08-.16.29-.22.63-.06.34-.1.75-.13,1.24-.03.49-.05,1.01-.06,1.58,0,.57,0,2.58,0,2.98,0,.4.01.67.03.82Z"/>
              <path class="cls-35" d="M230.88,198.69c-.86,4.57-3.26,7.86-8.61,10.45-4.28,2.08-7.99,1.18-9.69-.1-1.44-1.08-2.39-2.37-2.84-3.87-.63-2.08-.41-4.35.64-6.83.79-1.81,1.94-3.43,3.45-4.86,1.51-1.43,2.97-2.38,4.39-2.84.93-.27,1.86-.41,2.77-.42.91-.01,1.78.23,2.6.74.91.55,1.53,1.37,1.86,2.47.19.64.26,1.31.2,2,0,.25-.07.29-.22.13-.07-.08-.11-.24-.11-.48,0-.24-.04-.49-.12-.76-.28-.91-1.44-2.65-2.91-3.04-2.8-.73-7.49-.11-11,6.55-2.19,4.14-1.02,6.9-.39,8.25.62,1.34,2.22,3.04,4.9,3.54,1.95.36,4.15-.18,5.89-.79,3.13-1.1,5.28-3.06,6.77-5.34,1.93-3.01,2.34-6.36,1.23-10.03-.41-1.37-.9-2.38-1.45-3.03-.56-.65-1.01-1.04-1.37-1.17-.36-.13-.99-.47-.4-.48.59,0,1.24.19,1.96.6,1.18.66,3.32,4.78,2.47,9.3Z"/>
              <g>
                <g>
                  <path class="cls-29" d="M167.79,127.42c-1.03-.54-1.73-1.58-1.96-2.73-.63-3.05-.45-5.92.22-7.72.76-2.06,4.14-3.16,5.65-1.63.79-2.48,4.84-3.01,5.76-.08.94-2.22,4.37-1.95,5.49.79.99-.86,3.75-.67,4.84,3.37.96,3.57.55,6.26-1,7.77-1.56,1.51-3.6.78-4.04-.66-1.66,1.01-4.26,1.03-5.18-1.6-1.51,1.99-2.71,2.44-4.72,1.09-1.88,1.79-3.55,2.18-5.05,1.39Z"/>
                  <g>
                    <path class="cls-18" d="M182.94,116.05c-.54-1.32-1.62-2.07-2.7-2.24,1.69,3.18,2.71,8.73,1.1,11.09-.96,1.4-2.33,1.36-3.21,1.12,1.18,1.5,3.22,1.35,4.6.51,1.31-1.69,1.8-5.17.21-10.48Z"/>
                    <path class="cls-18" d="M177.87,124.58s.6-4.59-.4-9.24c-.37-1.21-1.24-1.85-2.19-2.03.89,4.17,1,10.03.13,12.83.74-.14,1.39-.33,1.88-.58.41-.51.59-.99.59-.99Z"/>
                    <path class="cls-18" d="M186.78,127.19c1.56-1.51,1.97-4.19,1-7.77-.53-1.96-1.45-3.01-2.37-3.48,1.17,2.61,1.5,6.76.68,8.93-.66,1.74-2.12,1.79-3.09,1.83l-.09.21c.65,1.17,2.47,1.65,3.88.28Z"/>
                    <path class="cls-18" d="M171.71,115.41c-.56-.59-1.36-.82-2.18-.78-.6,2.76.01,8.58,1.19,12.17.51,0,1.04,0,1.57-.03.27-.72.35-1.32.35-1.32-1.4-4.59-1.18-8.61-.92-10.05Z"/>
                  </g>
                  <path class="cls-5" d="M167.79,127.42c-1.03-.54-1.73-1.58-1.96-2.73-.63-3.05-.45-5.92.22-7.72.76-2.06,4.14-3.16,5.65-1.63.79-2.48,4.84-3.01,5.76-.08.94-2.22,4.37-1.95,5.49.79.99-.86,3.75-.67,4.84,3.37.96,3.57.55,6.26-1,7.77-1.56,1.51-3.6.78-4.04-.66-1.66,1.01-4.26,1.03-5.18-1.6-1.51,1.99-2.71,2.44-4.72,1.09-1.88,1.79-3.55,2.18-5.05,1.39Z"/>
                </g>
                <path class="cls-27" d="M183.12,126.78l-.78-.51c1.56-2.38,1.61-5.77.15-10.08l.88-.3c1.55,4.59,1.47,8.25-.26,10.88Z"/>
                <path class="cls-27" d="M177.98,125.11l-.86-.34c.96-2.42.48-6.12-.13-9.42l.91-.17c.63,3.43,1.12,7.29.07,9.93Z"/>
                <path class="cls-27" d="M173.27,125.87l-.87.32c-1.22-3.35-1.68-7.64-1.16-10.92l.92.14c-.49,3.14-.05,7.24,1.12,10.46Z"/>
              </g>
            </g>
          </g>
        </g>
        <g>
          <path d="M235.65,86.48c-.15-.04-.28-.13-.38-.25-.1-.13-.15-.27-.15-.42v-12.62c0-.18.07-.34.2-.46.13-.13.3-.19.49-.19,1.44,0,2.89.21,4.36.64,1.46.43,2.73,1.23,3.8,2.42,1.07,1.18,1.61,2.82,1.61,4.9,0,1.41-.32,2.6-.97,3.55s-1.52,1.66-2.62,2.11-2.36.68-3.76.68c-.77,0-1.63-.12-2.58-.36ZM242.62,84.22c1.06-.85,1.6-2.09,1.6-3.73,0-2.2-.71-3.82-2.14-4.87-1.43-1.05-3.29-1.63-5.59-1.74v11.4c.74.14,1.32.21,1.74.21,1.86,0,3.32-.42,4.39-1.27Z"/>
          <path d="M250.48,86.17c-.65-.43-1.16-1.01-1.53-1.74-.37-.74-.56-1.55-.56-2.45,0-.95.21-1.86.64-2.73.43-.87,1.02-1.57,1.77-2.11.76-.54,1.59-.81,2.5-.81.78,0,1.5.21,2.15.64.65.43,1.16,1.01,1.53,1.74.37.74.56,1.54.56,2.43,0,1.01-.22,1.95-.67,2.81-.45.87-1.05,1.56-1.8,2.08-.75.52-1.56.78-2.43.78-.8,0-1.52-.21-2.17-.64ZM254.44,85.01c.53-.41.96-.95,1.28-1.62.32-.67.48-1.39.48-2.14,0-.66-.13-1.27-.4-1.84-.27-.57-.63-1.02-1.08-1.37-.46-.34-.96-.51-1.52-.51-.62,0-1.19.21-1.71.62s-.94.96-1.26,1.64c-.32.68-.47,1.4-.47,2.15s.14,1.37.41,1.92c.27.55.64.98,1.1,1.29.46.31.95.46,1.47.46.6,0,1.17-.2,1.7-.61Z"/>
          <path d="M269.39,90.69c-.13-.13-.19-.29-.19-.47,0-.1.03-.2.08-.29l2.04-4.45-4.07-8.13c-.06-.14-.08-.26-.08-.36,0-.2.07-.36.2-.48.13-.13.29-.19.47-.19.14,0,.27.04.38.13.11.08.2.19.25.32l3.57,7.16,3.3-7.2c.14-.28.35-.42.63-.42.18,0,.34.06.46.19.13.13.19.28.19.46,0,.13-.02.22-.06.29l-6.07,13.23c-.15.28-.36.42-.63.42-.18,0-.34-.07-.46-.2Z"/>
          <path d="M280.2,86.17c-.65-.43-1.16-1.01-1.53-1.74-.37-.74-.56-1.55-.56-2.45,0-.95.21-1.86.64-2.73.43-.87,1.02-1.57,1.77-2.11.76-.54,1.59-.81,2.5-.81.78,0,1.5.21,2.15.64.65.43,1.16,1.01,1.53,1.74.37.74.56,1.54.56,2.43,0,1.01-.22,1.95-.67,2.81-.45.87-1.05,1.56-1.8,2.08-.75.52-1.56.78-2.43.78-.8,0-1.52-.21-2.17-.64ZM284.15,85.01c.53-.41.96-.95,1.28-1.62.32-.67.48-1.39.48-2.14,0-.66-.13-1.27-.4-1.84-.27-.57-.63-1.02-1.08-1.37-.46-.34-.96-.51-1.52-.51-.62,0-1.19.21-1.71.62s-.94.96-1.26,1.64c-.32.68-.47,1.4-.47,2.15s.14,1.37.41,1.92c.27.55.64.98,1.1,1.29.46.31.95.46,1.47.46.6,0,1.17-.2,1.7-.61Z"/>
          <path d="M291.73,86.35c-.46-.35-.79-.94-1-1.79-.21-.84-.31-2.01-.31-3.51,0-1.61.08-2.93.25-3.97.04-.28.12-.48.22-.6s.26-.18.45-.18c.17,0,.31.06.43.17.12.11.18.27.18.46,0,.21-.02.48-.06.82-.13,1.01-.19,2.28-.19,3.8s.15,2.53.44,3.17c.29.64.78.97,1.47.97.63,0,1.26-.17,1.9-.49.64-.33,1.09-.65,1.35-.96.17-.2.25-.51.25-.95l.08-6.41c0-.17.06-.31.19-.42.13-.11.27-.17.44-.17s.31.06.44.17c.13.11.19.25.19.42v9.26c0,.17-.07.32-.21.45-.14.13-.3.2-.48.2-.22,0-.4-.07-.54-.21-.13-.14-.2-.31-.2-.52v-.8c-.31.41-.78.77-1.42,1.1-.64.33-1.31.49-2.03.49-.78,0-1.4-.18-1.86-.53Z"/>
          <path d="M302.51,86.63c-.14-.13-.21-.27-.21-.42v-9.24c0-.18.07-.33.2-.45.13-.12.29-.18.47-.18.2,0,.36.06.48.18s.19.27.19.45v1.79c.39-.69.88-1.27,1.46-1.75.58-.48,1.26-.72,2.05-.72.62,0,1.06.17,1.33.51.27.34.41.75.41,1.23v.67c0,.18-.06.33-.19.45s-.28.18-.46.18c-.21,0-.36-.06-.46-.19-.1-.13-.15-.28-.15-.46v-.48c0-.41-.24-.61-.71-.61-.83,0-1.68.59-2.56,1.76-.21.28-.38.63-.51,1.05-.13.42-.2.81-.2,1.18l-.02,4.64c0,.15-.07.29-.2.42-.13.13-.28.19-.45.19s-.32-.06-.46-.19Z"/>
          <path d="M319.53,86.64c-.13-.12-.2-.26-.2-.43v-13.23c0-.17.07-.31.2-.42.13-.11.29-.17.47-.17.17,0,.31.06.44.17s.19.25.19.42v5.15c.45-.52.99-.92,1.64-1.2.64-.28,1.32-.42,2.02-.42,1.11,0,1.99.42,2.67,1.25.67.83,1.01,1.96,1.01,3.37,0,1.67-.38,3.01-1.14,4.02-.76,1.01-1.91,1.52-3.43,1.52-.48,0-.97-.06-1.47-.18-.5-.12-.94-.25-1.3-.41v.17c0,.14-.06.27-.19.39-.13.12-.27.18-.44.18s-.32-.06-.45-.18ZM326.7,81.12c0-1.04-.22-1.84-.66-2.43s-1.03-.87-1.77-.87c-.67,0-1.28.13-1.84.38s-.99.59-1.31,1.03c-.32.43-.48.91-.48,1.43v4.22c.27.11.64.23,1.12.35s.97.18,1.46.18c2.32,0,3.49-1.43,3.49-4.28Z"/>
          <path d="M333.23,86.13c-.8-.45-1.41-1.07-1.85-1.84-.43-.77-.65-1.61-.65-2.52s.2-1.84.6-2.68.96-1.5,1.67-2.01c.71-.5,1.53-.76,2.46-.76.84,0,1.56.16,2.15.48.6.32,1.04.71,1.34,1.16.3.45.45.85.45,1.2,0,.25-.17.48-.5.67l-6.51,3.72c.35.67.83,1.18,1.43,1.52.6.34,1.31.51,2.12.51.45,0,.92-.11,1.42-.34s.89-.49,1.19-.8c.1-.14.24-.21.42-.21s.33.06.45.18c.12.12.18.27.18.45,0,.14-.06.28-.17.42-.38.43-.89.79-1.54,1.08-.65.29-1.29.43-1.92.43-1.02,0-1.93-.23-2.73-.68ZM337.18,77.93c-.42-.24-.99-.36-1.7-.36-.67,0-1.27.19-1.81.56-.53.37-.95.87-1.25,1.5-.3.63-.46,1.32-.47,2.08,0,.28.01.5.04.67l6.11-3.38c-.2-.48-.5-.83-.92-1.07Z"/>
          <path d="M343.38,86.36c-.58-.33-1.02-.71-1.32-1.16-.3-.44-.45-.82-.45-1.12,0-.18.06-.33.18-.45.12-.12.27-.18.45-.18.31,0,.5.15.59.44.2.56.52.99.99,1.3.46.31,1.03.46,1.7.46s1.22-.18,1.66-.55c.43-.36.65-.8.65-1.3,0-.29-.07-.54-.2-.75-.13-.2-.37-.4-.71-.58-.34-.18-.84-.37-1.5-.57-1.13-.35-1.95-.76-2.46-1.22s-.76-1.07-.76-1.83.31-1.37.93-1.84c.62-.47,1.52-.7,2.68-.7,1.05,0,1.86.21,2.43.64s.85,1.01.85,1.75c0,.34-.06.59-.17.77-.11.18-.27.26-.48.26-.18,0-.34-.06-.46-.18-.13-.12-.19-.25-.19-.41,0-.07.01-.15.03-.23s.03-.16.03-.23c0-.38-.17-.68-.5-.89s-.85-.33-1.53-.33c-.76,0-1.34.12-1.75.37-.41.25-.62.59-.62,1.04s.18.78.54,1.03c.36.25.98.53,1.86.82.84.28,1.49.55,1.94.8.45.25.78.55.99.89s.3.78.3,1.31-.15,1.01-.45,1.49c-.3.48-.72.87-1.27,1.17-.55.3-1.18.45-1.89.45-.8,0-1.49-.16-2.07-.49Z"/>
          <path d="M353.07,86.65c-.13-.13-.2-.27-.2-.44v-8.57h-2.33c-.18,0-.34-.07-.46-.2s-.19-.29-.19-.47c0-.2.07-.35.21-.47s.3-.18.48-.18h2.29v-2.88c0-.18.07-.34.2-.47.13-.13.29-.2.47-.2.2,0,.35.07.47.2.12.13.18.29.18.47v2.88h2.35c.2,0,.36.06.48.19s.19.28.19.46-.07.34-.2.47c-.13.13-.29.2-.47.2h-2.35v8.57c0,.17-.07.31-.2.44-.13.13-.28.19-.45.19-.18,0-.34-.06-.47-.19Z"/>
          <path d="M231.25,107.25c-.13-.13-.19-.28-.19-.46s.06-.34.19-.46c.13-.13.28-.19.46-.19h13.9c.18,0,.34.06.46.19s.19.28.19.46-.06.34-.18.46c-.12.13-.28.19-.47.19h-13.9c-.18,0-.34-.06-.46-.19Z"/>
          <path d="M259.48,111.33c-.8-.45-1.41-1.07-1.85-1.84-.43-.77-.65-1.61-.65-2.52s.2-1.84.6-2.68.96-1.5,1.67-2.01c.71-.5,1.53-.76,2.46-.76.84,0,1.56.16,2.15.48.6.32,1.04.71,1.34,1.16.3.45.45.85.45,1.2,0,.25-.17.48-.5.67l-6.51,3.72c.35.67.83,1.18,1.43,1.52.6.34,1.31.51,2.12.51.45,0,.92-.11,1.42-.34s.89-.49,1.19-.8c.1-.14.24-.21.42-.21s.33.06.45.18c.12.12.18.27.18.45,0,.14-.06.28-.17.42-.38.43-.89.79-1.54,1.08-.65.29-1.29.43-1.92.43-1.02,0-1.93-.23-2.73-.68ZM263.43,103.13c-.42-.24-.99-.36-1.7-.36-.67,0-1.27.19-1.81.56-.53.37-.95.87-1.25,1.5-.3.63-.46,1.32-.47,2.08,0,.28.01.5.04.67l6.11-3.38c-.2-.48-.5-.83-.92-1.07Z"/>
          <path d="M271.05,111.57l-3.74-9.16c-.03-.11-.04-.19-.04-.23,0-.18.07-.34.2-.46.13-.13.3-.19.49-.19.27,0,.47.15.61.44l3.09,7.79,3.11-7.85c.06-.11.14-.21.24-.28s.23-.12.37-.12c.18,0,.34.07.47.2.13.13.2.28.2.45,0,.08-.03.18-.08.29l-3.7,9.16c-.13.28-.33.42-.61.42s-.48-.15-.61-.46Z"/>
          <path d="M280.04,111.33c-.8-.45-1.41-1.07-1.85-1.84-.43-.77-.65-1.61-.65-2.52s.2-1.84.6-2.68.96-1.5,1.67-2.01c.71-.5,1.53-.76,2.46-.76.84,0,1.56.16,2.15.48.6.32,1.04.71,1.34,1.16.3.45.45.85.45,1.2,0,.25-.17.48-.5.67l-6.51,3.72c.35.67.83,1.18,1.43,1.52.6.34,1.31.51,2.12.51.45,0,.92-.11,1.42-.34s.89-.49,1.19-.8c.1-.14.24-.21.42-.21s.33.06.45.18c.12.12.18.27.18.45,0,.14-.06.28-.17.42-.38.43-.89.79-1.54,1.08-.65.29-1.29.43-1.92.43-1.02,0-1.93-.23-2.73-.68ZM283.99,103.13c-.42-.24-.99-.36-1.7-.36-.67,0-1.27.19-1.81.56-.53.37-.95.87-1.25,1.5-.3.63-.46,1.32-.47,2.08,0,.28.01.5.04.67l6.11-3.38c-.2-.48-.5-.83-.92-1.07Z"/>
          <path d="M289.77,111.83c-.13-.13-.2-.27-.2-.42v-9.26c0-.18.07-.33.2-.45.13-.12.29-.18.47-.18s.34.06.46.18.19.27.19.45v3.32c.41-1.26.97-2.23,1.69-2.91s1.54-1.02,2.45-1.02c.77,0,1.38.2,1.83.59s.77,1.01.97,1.86c.2.85.29,1.98.29,3.41s0,2.32-.02,2.75v1.2c0,.18-.06.34-.18.47s-.27.2-.45.2c-.17,0-.31-.07-.44-.2-.13-.13-.19-.28-.19-.45v-1.18c-.01-.43-.02-1.34-.02-2.71,0-1.3-.07-2.29-.2-2.96-.13-.67-.34-1.13-.61-1.38-.27-.25-.66-.37-1.17-.37-.48,0-.95.17-1.41.52-.46.35-.87.85-1.22,1.49-.46.84-.79,1.63-1,2.37-.2.74-.31,1.5-.33,2.29l-.02,1.87c0,.2-.06.36-.18.49-.12.13-.27.2-.45.2s-.34-.06-.47-.19Z"/>
          <path d="M310.74,111.86c-.13-.11-.21-.24-.25-.41l-1.89-8.97-.04-.34c0-.17.06-.31.18-.44.12-.13.27-.19.45-.19.17,0,.31.05.43.16.12.1.19.24.22.41l1.47,7.39,2.58-7.48c.04-.13.13-.24.25-.34s.27-.15.42-.15.3.06.43.17c.13.11.21.25.24.4l1.81,7.5,2.25-7.54c.04-.14.12-.26.24-.36.12-.1.25-.15.39-.15.18,0,.34.06.47.19.13.13.2.28.2.46,0,.04-.01.08-.03.13s-.03.07-.03.08l-2.9,9.11c-.13.34-.34.5-.65.5-.14,0-.27-.04-.39-.14-.12-.09-.2-.22-.24-.39l-1.87-7.37-2.69,7.41c-.06.14-.14.25-.25.35-.11.09-.23.14-.36.14-.17,0-.31-.05-.44-.16Z"/>
          <path d="M323.48,111.84c-.13-.13-.2-.28-.2-.45v-13.12c0-.18.07-.34.2-.47.13-.13.29-.2.47-.2.2,0,.35.07.47.2.12.13.18.29.18.47v6.45c.42-.87,1-1.62,1.75-2.27.75-.64,1.52-.97,2.3-.97,1.04,0,1.76.57,2.18,1.72.42,1.15.63,2.95.63,5.4,0,1.39-.02,2.32-.06,2.79-.01.18-.08.33-.19.45-.11.12-.26.18-.44.18-.17,0-.32-.06-.45-.19-.13-.13-.2-.27-.2-.44,0-.21,0-.41.02-.59l.02-2.06c0-2.37-.15-3.95-.46-4.76-.31-.8-.69-1.21-1.15-1.21-.52,0-1.03.21-1.53.64-.5.43-.94.9-1.31,1.43-.37.52-.63.96-.79,1.29-.21.42-.31,1.02-.31,1.81v3.4c0,.21-.06.38-.19.5s-.28.19-.46.19-.34-.07-.47-.2Z"/>
          <path d="M337.2,111.33c-.8-.45-1.41-1.07-1.85-1.84-.43-.77-.65-1.61-.65-2.52s.2-1.84.6-2.68.96-1.5,1.67-2.01c.71-.5,1.53-.76,2.46-.76.84,0,1.56.16,2.15.48.6.32,1.04.71,1.34,1.16.3.45.45.85.45,1.2,0,.25-.17.48-.5.67l-6.51,3.72c.35.67.83,1.18,1.43,1.52.6.34,1.31.51,2.12.51.45,0,.92-.11,1.42-.34s.89-.49,1.19-.8c.1-.14.24-.21.42-.21s.33.06.45.18c.12.12.18.27.18.45,0,.14-.06.28-.17.42-.38.43-.89.79-1.54,1.08-.65.29-1.29.43-1.92.43-1.02,0-1.93-.23-2.73-.68ZM341.15,103.13c-.42-.24-.99-.36-1.7-.36-.67,0-1.27.19-1.81.56-.53.37-.95.87-1.25,1.5-.3.63-.46,1.32-.47,2.08,0,.28.01.5.04.67l6.11-3.38c-.2-.48-.5-.83-.92-1.07Z"/>
          <path d="M346.93,111.83c-.13-.13-.2-.27-.2-.42v-9.26c0-.18.07-.33.2-.45.13-.12.29-.18.47-.18s.34.06.46.18.19.27.19.45v3.32c.41-1.26.97-2.23,1.69-2.91s1.54-1.02,2.45-1.02c.77,0,1.38.2,1.83.59s.77,1.01.97,1.86c.2.85.29,1.98.29,3.41s0,2.32-.02,2.75v1.2c0,.18-.06.34-.18.47s-.27.2-.45.2c-.17,0-.31-.07-.44-.2-.13-.13-.19-.28-.19-.45v-1.18c-.01-.43-.02-1.34-.02-2.71,0-1.3-.07-2.29-.2-2.96-.13-.67-.34-1.13-.61-1.38-.27-.25-.66-.37-1.17-.37-.48,0-.95.17-1.41.52-.46.35-.87.85-1.22,1.49-.46.84-.79,1.63-1,2.37-.2.74-.31,1.5-.33,2.29l-.02,1.87c0,.2-.06.36-.18.49-.12.13-.27.2-.45.2s-.34-.06-.47-.19Z"/>
          <path d="M268.33,137.03c-.13-.13-.2-.27-.2-.42v-9.26c0-.18.07-.33.2-.45.13-.12.29-.18.47-.18s.34.06.46.18.19.27.19.45v3.32c.41-1.26.97-2.23,1.69-2.91s1.54-1.02,2.45-1.02c.77,0,1.38.2,1.83.59s.77,1.01.97,1.86c.2.85.29,1.98.29,3.41s0,2.32-.02,2.75v1.2c0,.18-.06.34-.18.47s-.27.2-.45.2c-.17,0-.31-.07-.44-.2-.13-.13-.19-.28-.19-.45v-1.18c-.01-.43-.02-1.34-.02-2.71,0-1.3-.07-2.29-.2-2.96-.13-.67-.34-1.13-.61-1.38-.27-.25-.66-.37-1.17-.37-.48,0-.95.17-1.41.52-.46.35-.87.85-1.22,1.49-.46.84-.79,1.63-1,2.37-.2.74-.31,1.5-.33,2.29l-.02,1.87c0,.2-.06.36-.18.49-.12.13-.27.2-.45.2s-.34-.06-.47-.19Z"/>
          <path d="M282,136.57c-.65-.43-1.16-1.01-1.53-1.74-.37-.74-.56-1.55-.56-2.45,0-.95.21-1.86.64-2.73.43-.87,1.02-1.57,1.77-2.11.76-.54,1.59-.81,2.5-.81.78,0,1.5.21,2.15.64.65.43,1.16,1.01,1.53,1.74.37.74.56,1.54.56,2.43,0,1.01-.22,1.95-.67,2.81-.45.87-1.05,1.56-1.8,2.08-.75.52-1.56.78-2.43.78-.8,0-1.52-.21-2.17-.64ZM285.96,135.41c.53-.41.96-.95,1.28-1.62.32-.67.48-1.39.48-2.14,0-.66-.13-1.27-.4-1.84-.27-.57-.63-1.02-1.08-1.37-.46-.34-.96-.51-1.52-.51-.62,0-1.19.21-1.71.62s-.94.96-1.26,1.64c-.32.68-.47,1.4-.47,2.15s.14,1.37.41,1.92c.27.55.64.98,1.1,1.29.46.31.95.46,1.47.46.6,0,1.17-.2,1.7-.61Z"/>
          <path d="M301.8,136.57c-.65-.43-1.16-1.01-1.53-1.74-.37-.74-.56-1.55-.56-2.45,0-.95.21-1.86.64-2.73.43-.87,1.02-1.57,1.77-2.11.76-.54,1.59-.81,2.5-.81.78,0,1.5.21,2.15.64.65.43,1.16,1.01,1.53,1.74.37.74.56,1.54.56,2.43,0,1.01-.22,1.95-.67,2.81-.45.87-1.05,1.56-1.8,2.08-.75.52-1.56.78-2.43.78-.8,0-1.52-.21-2.17-.64ZM305.76,135.41c.53-.41.96-.95,1.28-1.62.32-.67.48-1.39.48-2.14,0-.66-.13-1.27-.4-1.84-.27-.57-.63-1.02-1.08-1.37-.46-.34-.96-.51-1.52-.51-.62,0-1.19.21-1.71.62s-.94.96-1.26,1.64c-.32.68-.47,1.4-.47,2.15s.14,1.37.41,1.92c.27.55.64.98,1.1,1.29.46.31.95.46,1.47.46.6,0,1.17-.2,1.7-.61Z"/>
          <path d="M312.54,137.03c-.13-.13-.2-.27-.2-.42v-9.26c0-.18.07-.33.2-.45.13-.12.29-.18.47-.18s.34.06.46.18.19.27.19.45v3.32c.41-1.26.97-2.23,1.69-2.91s1.54-1.02,2.45-1.02c.77,0,1.38.2,1.83.59s.77,1.01.97,1.86c.2.85.29,1.98.29,3.41s0,2.32-.02,2.75v1.2c0,.18-.06.34-.18.47s-.27.2-.45.2c-.17,0-.31-.07-.44-.2-.13-.13-.19-.28-.19-.45v-1.18c-.01-.43-.02-1.34-.02-2.71,0-1.3-.07-2.29-.2-2.96-.13-.67-.34-1.13-.61-1.38-.27-.25-.66-.37-1.17-.37-.48,0-.95.17-1.41.52-.46.35-.87.85-1.22,1.49-.46.84-.79,1.63-1,2.37-.2.74-.31,1.5-.33,2.29l-.02,1.87c0,.2-.06.36-.18.49-.12.13-.27.2-.45.2s-.34-.06-.47-.19Z"/>
          <path d="M326.62,136.53c-.8-.45-1.41-1.07-1.85-1.84-.43-.77-.65-1.61-.65-2.52s.2-1.84.6-2.68.96-1.5,1.67-2.01c.71-.5,1.53-.76,2.46-.76.84,0,1.56.16,2.15.48.6.32,1.04.71,1.34,1.16.3.45.45.85.45,1.2,0,.25-.17.48-.5.67l-6.51,3.72c.35.67.83,1.18,1.43,1.52.6.34,1.31.51,2.12.51.45,0,.92-.11,1.42-.34s.89-.49,1.19-.8c.1-.14.24-.21.42-.21s.33.06.45.18c.12.12.18.27.18.45,0,.14-.06.28-.17.42-.38.43-.89.79-1.54,1.08-.65.29-1.29.43-1.92.43-1.02,0-1.93-.23-2.73-.68ZM330.56,128.33c-.42-.24-.99-.36-1.7-.36-.67,0-1.27.19-1.81.56-.53.37-.95.87-1.25,1.5-.3.63-.46,1.32-.47,2.08,0,.28.01.5.04.67l6.11-3.38c-.2-.48-.5-.83-.92-1.07Z"/>
          <path d="M344.21,137.02c-.14-.13-.21-.29-.21-.47l.13-9.11c0-.18.07-.34.21-.48.14-.14.3-.21.48-.21s.34.07.47.2c.13.13.2.3.2.49l-.13,9.11c0,.18-.07.34-.2.47-.13.13-.29.2-.47.2s-.34-.07-.48-.2ZM344.36,124.89c-.13-.13-.19-.28-.19-.46l.02-.86c0-.17.07-.32.21-.44.14-.13.29-.19.46-.19s.31.07.44.2.19.28.19.45l-.02.86c0,.18-.07.33-.2.45-.13.12-.28.18-.45.18-.18,0-.34-.06-.46-.19Z"/>
          <path d="M350.23,136.76c-.58-.33-1.02-.71-1.32-1.16-.3-.44-.45-.82-.45-1.12,0-.18.06-.33.18-.45.12-.12.27-.18.45-.18.31,0,.5.15.59.44.2.56.52.99.99,1.3.46.31,1.03.46,1.7.46s1.22-.18,1.66-.55c.43-.36.65-.8.65-1.3,0-.29-.07-.54-.2-.75-.13-.2-.37-.4-.71-.58-.34-.18-.84-.37-1.5-.57-1.13-.35-1.95-.76-2.46-1.22s-.76-1.07-.76-1.83.31-1.37.93-1.84c.62-.47,1.52-.7,2.68-.7,1.05,0,1.86.21,2.43.64s.85,1.01.85,1.75c0,.34-.06.59-.17.77-.11.18-.27.26-.48.26-.18,0-.34-.06-.46-.18-.13-.12-.19-.25-.19-.41,0-.07.01-.15.03-.23s.03-.16.03-.23c0-.38-.17-.68-.5-.89s-.85-.33-1.53-.33c-.76,0-1.34.12-1.75.37-.41.25-.62.59-.62,1.04s.18.78.54,1.03c.36.25.98.53,1.86.82.84.28,1.49.55,1.94.8.45.25.78.55.99.89s.3.78.3,1.31-.15,1.01-.45,1.49c-.3.48-.72.87-1.27,1.17-.55.3-1.18.45-1.89.45-.8,0-1.49-.16-2.07-.49Z"/>
          <path d="M271.97,162.26c-.13-.1-.21-.24-.25-.41l-1.89-8.97-.04-.34c0-.17.06-.32.18-.44.12-.13.27-.19.45-.19.17,0,.31.05.43.16.12.11.19.24.22.41l1.47,7.39,2.58-7.48c.04-.13.13-.24.25-.34.13-.1.27-.15.42-.15s.3.06.43.17c.13.11.21.25.24.4l1.81,7.5,2.25-7.54c.04-.14.12-.26.24-.36.12-.1.25-.15.39-.15.18,0,.34.06.47.19.13.13.2.28.2.46,0,.04-.01.08-.03.13s-.03.07-.03.08l-2.9,9.11c-.13.34-.34.5-.65.5-.14,0-.27-.05-.39-.14-.12-.09-.2-.22-.24-.39l-1.87-7.37-2.69,7.41c-.06.14-.14.26-.25.35-.11.09-.23.14-.36.14-.17,0-.31-.05-.44-.16Z"/>
          <path d="M290.56,162.38c-.11-.13-.17-.3-.17-.49v-.59c-.38.34-.83.61-1.37.81-.53.2-1.06.3-1.6.3-.76,0-1.44-.19-2.04-.57s-1.07-.91-1.42-1.61c-.34-.69-.51-1.48-.51-2.36,0-.95.2-1.89.6-2.8s.98-1.67,1.74-2.26c.76-.59,1.66-.88,2.7-.88.64,0,1.21.08,1.7.25.49.17.99.37,1.49.61v9.09c0,.2-.06.36-.19.49-.13.13-.28.2-.46.2-.21,0-.37-.07-.48-.2ZM289.07,160.79c.55-.26.97-.54,1.26-.83l.08-6.36c-.22-.1-.51-.19-.87-.28s-.69-.14-1-.14c-.69,0-1.32.2-1.89.61-.57.41-1.03.96-1.35,1.67-.33.71-.49,1.5-.49,2.38,0,1.02.24,1.83.73,2.44.49.6,1.12.9,1.89.9.55,0,1.09-.13,1.64-.39Z"/>
          <path d="M296.53,162.25c-.13-.13-.2-.27-.2-.44v-8.57h-2.33c-.18,0-.34-.07-.46-.2-.13-.13-.19-.29-.19-.47,0-.2.07-.35.21-.47s.3-.18.48-.18h2.29v-2.88c0-.18.07-.34.2-.47.13-.13.29-.2.47-.2.2,0,.35.07.47.2.12.13.18.29.18.47v2.88h2.35c.2,0,.36.06.48.19s.19.28.19.46-.07.34-.2.47c-.13.13-.29.2-.47.2h-2.35v8.57c0,.17-.07.32-.2.44-.13.13-.28.19-.45.19-.18,0-.34-.06-.47-.19Z"/>
          <path d="M303.67,161.82c-.71-.4-1.27-.95-1.68-1.65-.41-.7-.62-1.47-.62-2.31,0-.95.22-1.89.66-2.8s1.03-1.67,1.75-2.25,1.48-.87,2.27-.87c.73,0,1.33.12,1.8.36s.92.61,1.35,1.11c.11.11.17.26.17.44s-.06.34-.18.46c-.12.13-.27.19-.45.19-.2,0-.36-.08-.48-.23-.31-.36-.62-.64-.94-.83-.32-.19-.73-.28-1.22-.28-.56,0-1.11.22-1.64.67-.53.45-.97,1.03-1.3,1.75-.34.72-.5,1.47-.5,2.24,0,.7.16,1.31.49,1.82.33.51.75.9,1.26,1.17.51.27,1.03.4,1.54.4,1.2,0,2.14-.48,2.81-1.45.18-.25.38-.38.59-.38.18,0,.34.06.46.19s.19.27.19.44c0,.14-.07.3-.21.48-.36.53-.89.99-1.58,1.37-.69.38-1.44.57-2.27.57s-1.57-.2-2.28-.6Z"/>
          <path d="M313.21,162.24c-.13-.13-.2-.28-.2-.45v-13.12c0-.18.07-.34.2-.47.13-.13.29-.2.47-.2.2,0,.35.07.47.2.12.13.18.29.18.47v6.45c.42-.87,1-1.62,1.75-2.27.75-.64,1.52-.97,2.3-.97,1.04,0,1.76.57,2.18,1.72.42,1.15.63,2.95.63,5.4,0,1.39-.02,2.32-.06,2.79-.01.18-.08.33-.19.45-.11.12-.26.18-.44.18-.17,0-.32-.06-.45-.19-.13-.13-.2-.27-.2-.44,0-.21,0-.41.02-.59l.02-2.06c0-2.37-.15-3.95-.46-4.76-.31-.8-.69-1.21-1.15-1.21-.52,0-1.03.21-1.53.64s-.94.9-1.31,1.43c-.37.53-.63.96-.79,1.29-.21.42-.31,1.02-.31,1.81v3.4c0,.21-.06.38-.19.5s-.28.19-.46.19-.34-.07-.47-.2Z"/>
          <path d="M325.31,162.22c-.14-.13-.21-.29-.21-.47l.13-9.11c0-.18.07-.34.21-.48.14-.14.3-.21.48-.21s.34.07.47.2c.13.13.2.3.2.49l-.13,9.11c0,.18-.07.34-.2.47-.13.13-.29.2-.47.2s-.34-.07-.48-.2ZM325.46,150.09c-.13-.13-.19-.28-.19-.46l.02-.86c0-.17.07-.31.21-.44.14-.13.29-.19.46-.19s.31.07.44.2c.13.13.19.28.19.45l-.02.86c0,.18-.07.33-.2.45-.13.12-.28.18-.45.18-.18,0-.34-.06-.46-.19Z"/>
          <path d="M330.91,162.23c-.13-.13-.2-.27-.2-.42v-9.26c0-.18.07-.33.2-.45.13-.12.29-.18.47-.18s.34.06.46.18.19.27.19.45v3.32c.41-1.26.97-2.23,1.69-2.91.72-.68,1.54-1.02,2.45-1.02.77,0,1.38.2,1.83.59.45.39.77,1.01.97,1.86.2.85.29,1.99.29,3.41s0,2.32-.02,2.75v1.2c0,.18-.06.34-.18.47-.12.13-.27.2-.45.2-.17,0-.31-.07-.44-.2-.13-.13-.19-.28-.19-.45v-1.18c-.01-.43-.02-1.34-.02-2.71s-.07-2.29-.2-2.96c-.13-.67-.34-1.13-.61-1.38-.27-.24-.66-.37-1.17-.37-.48,0-.95.17-1.41.53-.46.35-.87.85-1.22,1.49-.46.84-.79,1.63-1,2.37-.2.74-.31,1.51-.33,2.29l-.02,1.87c0,.2-.06.36-.18.49-.12.13-.27.2-.45.2s-.34-.06-.47-.19Z"/>
          <path d="M343.92,165.92c-.15-.03-.28-.1-.38-.22-.1-.12-.15-.26-.15-.41,0-.18.07-.34.2-.46.13-.13.29-.19.47-.19.07,0,.23.03.48.08.63.14,1.27.21,1.91.21,1.04,0,1.79-.26,2.26-.79.47-.53.72-1.27.77-2.24l.04-1.05c-.36.49-.79.87-1.28,1.12-.49.26-1.02.4-1.58.41-.78,0-1.49-.22-2.13-.65-.64-.43-1.14-1.03-1.5-1.8-.36-.76-.55-1.61-.55-2.55s.22-1.83.66-2.68c.44-.85,1.04-1.53,1.8-2.04.76-.51,1.6-.77,2.52-.77.71,0,1.46.21,2.25.63,0-.57.22-.86.65-.86.18,0,.34.06.47.19.13.13.2.29.2.48l-.23,9.6c-.03,1.43-.44,2.5-1.23,3.21-.79.71-1.82,1.07-3.1,1.07-.78,0-1.64-.11-2.56-.32ZM348.7,160.1c.61-.69.91-1.79.91-3.3v-2.96c-.22-.18-.53-.33-.91-.45-.39-.12-.77-.18-1.14-.18-.7,0-1.34.19-1.93.56-.59.37-1.06.88-1.41,1.52-.35.64-.52,1.36-.52,2.14,0,.56.1,1.13.3,1.7s.52,1.05.95,1.43c.43.38.95.57,1.56.57.85,0,1.59-.34,2.19-1.03Z"/>
          <path d="M354.42,162.16c-.14-.17-.21-.37-.21-.61,0-.27.09-.5.27-.7s.39-.3.63-.3c.21,0,.39.08.54.24.15.16.22.35.22.58,0,.29-.09.54-.27.75-.18.2-.39.3-.63.3-.22,0-.41-.08-.55-.25Z"/>
        </g>
        <g>
          <path class="cls-16" d="M71.14,25.44l-1.31,25.89-8.42.96.32-25.73,9.41-1.12Z"/>
          <path class="cls-16" d="M80,34.65h.06c.53-.7,1.15-1.21,1.86-1.52.7-.31,1.49-.46,2.37-.46s1.69.16,2.38.48c.69.32,1.27.77,1.74,1.34.47.58.83,1.25,1.07,2.03.25.78.36,1.62.34,2.51l-.19,12.38-6.75.58v-11.68c0-.36-.13-.67-.38-.93-.26-.26-.6-.38-1.02-.38s-.75.12-1.04.37c-.29.25-.43.58-.43,1.01v11.65l-6.72-.58-.22-25.22,7.17-.58-.22,8.99Z"/>
          <path class="cls-16" d="M93.04,45.82c.59.11,1.22.16,1.9.16.3,0,.61,0,.94-.02.33,0,.63-.04.9-.1.27-.05.49-.14.67-.27.18-.13.27-.32.27-.58,0-.32-.17-.56-.5-.72-.33-.16-.74-.31-1.22-.46-.48-.15-1.01-.32-1.58-.53s-1.1-.5-1.58-.9c-.48-.39-.89-.92-1.22-1.58-.33-.66-.5-1.52-.5-2.59,0-.7.14-1.4.42-2.08s.72-1.3,1.34-1.86c.62-.55,1.42-1,2.4-1.34.98-.34,2.17-.51,3.55-.51.53,0,1.07.02,1.6.06.53.04,1.04.1,1.52.18.48.07.92.15,1.33.22.4.08.75.14,1.02.21v5.63c-.53-.13-1.06-.23-1.57-.32-.51-.09-1.07-.13-1.66-.13-.13,0-.33,0-.61.02s-.55.04-.83.1c-.28.05-.52.14-.74.27-.21.13-.32.3-.32.51,0,.34.17.6.51.77.34.17.76.33,1.26.48.5.15,1.05.33,1.65.54.6.21,1.15.52,1.65.91.5.39.92.92,1.26,1.58.34.66.51,1.53.51,2.59,0,1.15-.25,2.11-.75,2.88-.5.77-1.16,1.38-1.98,1.84-.82.46-1.77.78-2.83.98-1.07.19-2.18.29-3.33.29-.9,0-1.78-.05-2.64-.16-.86-.11-1.73-.28-2.61-.51v-5.98c.58.17,1.16.31,1.74.42Z"/>
          <path class="cls-16" d="M116.29,49.56h-.06c-.58.81-1.31,1.38-2.19,1.7-.89.32-1.84.48-2.86.48-.85,0-1.66-.15-2.43-.46-.77-.31-1.44-.75-2.02-1.33-.58-.58-1.03-1.27-1.38-2.08-.34-.81-.51-1.72-.51-2.72,0-.88.17-1.68.51-2.42.34-.74.81-1.38,1.39-1.92.59-.54,1.28-.97,2.08-1.28.8-.31,1.67-.46,2.61-.46s1.81.14,2.48.43,1.24.61,1.71.98v-.96c0-.98-.32-1.63-.96-1.95-.64-.32-1.47-.48-2.5-.48-.94,0-1.81.1-2.62.29-.81.19-1.63.42-2.46.67l1.25-5.09c1.02-.3,2.09-.51,3.2-.62,1.11-.12,2.24-.18,3.39-.18,1.04,0,2.07.12,3.07.37,1,.25,1.88.65,2.64,1.2.76.55,1.36,1.27,1.81,2.14.45.88.66,1.95.64,3.23l-.35,12.1-6.43.54v-2.18ZM112.23,43.64c-.72.11-1.32.36-1.79.75-.47.39-.67.84-.61,1.33.08.49.39.86.91,1.1.52.25,1.2.3,2.03.18s1.45-.39,1.86-.8.57-.84.48-1.31c-.06-.41-.34-.75-.82-1.04-.48-.29-1.17-.36-2.06-.21Z"/>
          <path class="cls-16" d="M131.97,35.29h.13c.7-.96,1.42-1.61,2.16-1.95.74-.34,1.54-.51,2.42-.51s1.69.16,2.37.48c.68.32,1.26.77,1.73,1.34.47.58.83,1.25,1.07,2.02.25.77.37,1.6.37,2.5v12.38l-6.91.58.1-11.65c.02-.38-.12-.7-.43-.96-.31-.26-.68-.38-1.1-.38s-.77.12-1.1.37c-.33.25-.5.58-.5,1.01l.13,11.55-6.82-.48-.26-18.21,6.66-.54v2.46Z"/>
          <path class="cls-16" d="M164.32,23.93c-1.54,2.35-2.69,4.52-3.47,6.53-.78,2.01-1.33,3.73-1.65,5.18-.32,1.45-.5,3-.54,4.64.21,1.56.52,2.96.91,4.19s.99,2.61,1.78,4.11,1.87,2.98,3.23,4.43l-1.57,1.12c-1.39-1.2-2.54-2.45-3.47-3.76-.93-1.31-1.65-2.55-2.18-3.71-.52-1.16-.92-2.24-1.2-3.23-.28-.99-.45-1.75-.51-2.29-.06-.53-.1-.82-.1-.86.06-1.83.3-3.55.72-5.15.42-1.6,1.12-3.47,2.11-5.62.99-2.14,2.44-4.45,4.34-6.93l1.6,1.34Z"/>
          <path class="cls-16" d="M166.98,26.97l17.66-1.31-.99,8.1-8.03.35-.03,1.54,5.82-.42-.67,5.6-5.34.42-.06,1.76,9.15-.86-.16,8.83-17.12.93-.22-24.93Z"/>
          <path class="cls-16" d="M193.6,37.98h.06l1.47-5.38,7.39.58-3.81,8.8,4.45,9.38-7.68.54-1.82-5.79h-.06l-1.86,5.79-7.55-.54,4.26-9.38-3.97-8.8,7.42-.58,1.7,5.38Z"/>
          <path class="cls-16" d="M218.26,50.64c-.61.31-1.23.56-1.87.75-.64.19-1.29.33-1.95.4s-1.3.11-1.92.11c-1.45,0-2.79-.25-4.02-.74-1.23-.49-2.29-1.17-3.2-2.03-.91-.86-1.62-1.88-2.13-3.04-.51-1.16-.77-2.42-.77-3.76,0-1.56.27-2.96.8-4.21s1.27-2.3,2.22-3.17,2.07-1.52,3.38-1.98c1.3-.46,2.71-.69,4.22-.69s2.83.25,3.95.74c1.12.49,2.06.99,2.83,1.5l-4.22,5.54c-.3-.23-.65-.43-1.04-.58s-.79-.26-1.2-.32c-.41-.06-.79-.08-1.17-.06s-.68.1-.91.22c-.41.21-.75.46-1.04.75s-.51.6-.67.94-.23.71-.22,1.1c.01.4.12.79.34,1.2.43.85,1.03,1.38,1.82,1.57.79.19,1.62.07,2.5-.35l1.63-.83,4.35,5.76c-.53.47-1.1.86-1.71,1.17Z"/>
          <path class="cls-16" d="M237.76,49.37c-1.3.94-2.63,1.62-4,2.03-1.37.42-2.93.62-4.7.62-1.45,0-2.78-.25-3.98-.75s-2.25-1.18-3.12-2.03c-.88-.85-1.56-1.85-2.05-2.99-.49-1.14-.74-2.35-.74-3.63,0-1.6.26-3.03.77-4.29.51-1.26,1.21-2.33,2.08-3.2s1.89-1.54,3.06-2c1.16-.46,2.41-.69,3.73-.69,2.13,0,3.98.54,5.55,1.63s2.74,2.54,3.5,4.35l-9.57,7.2c.24.13.54.21.93.26.38.04.74.06,1.06.06.98,0,1.81-.18,2.48-.53.67-.35,1.28-.77,1.84-1.26l3.17,5.22ZM230.91,38.88c-.3-.36-.62-.61-.98-.74s-.75-.19-1.2-.19-.82.09-1.17.27c-.35.18-.66.43-.91.74-.26.31-.45.66-.59,1.04s-.21.78-.21,1.18c0,.38.03.66.08.82.05.16.12.33.21.5l4.77-3.62Z"/>
          <path class="cls-16" d="M238.94,26.3l7.23-.58-.29,25.76-6.72.58-.22-25.76Z"/>
          <path class="cls-16" d="M248.51,26.3l7.23-.58-.29,25.76-6.72.58-.22-25.76Z"/>
          <path class="cls-16" d="M275.2,49.37c-1.3.94-2.63,1.62-4,2.03-1.37.42-2.93.62-4.7.62-1.45,0-2.78-.25-3.98-.75s-2.25-1.18-3.12-2.03c-.88-.85-1.56-1.85-2.05-2.99-.49-1.14-.74-2.35-.74-3.63,0-1.6.26-3.03.77-4.29.51-1.26,1.21-2.33,2.08-3.2s1.89-1.54,3.06-2c1.16-.46,2.41-.69,3.73-.69,2.13,0,3.98.54,5.55,1.63s2.74,2.54,3.5,4.35l-9.57,7.2c.24.13.54.21.93.26.38.04.74.06,1.06.06.98,0,1.81-.18,2.48-.53.67-.35,1.28-.77,1.84-1.26l3.17,5.22ZM268.35,38.88c-.3-.36-.62-.61-.98-.74s-.75-.19-1.2-.19-.82.09-1.17.27c-.35.18-.66.43-.91.74-.26.31-.45.66-.59,1.04s-.21.78-.21,1.18c0,.38.03.66.08.82.05.16.12.33.21.5l4.77-3.62Z"/>
          <path class="cls-16" d="M282.81,35.29h.13c.7-.96,1.42-1.61,2.16-1.95.74-.34,1.54-.51,2.42-.51s1.69.16,2.37.48c.68.32,1.26.77,1.73,1.34.47.58.83,1.25,1.07,2.02.25.77.37,1.6.37,2.5v12.38l-6.91.58.1-11.65c.02-.38-.12-.7-.43-.96-.31-.26-.68-.38-1.1-.38s-.77.12-1.1.37c-.33.25-.5.58-.5,1.01l.13,11.55-6.82-.48-.26-18.21,6.66-.54v2.46Z"/>
          <path class="cls-16" d="M309.81,50.64c-.61.31-1.23.56-1.87.75-.64.19-1.29.33-1.95.4s-1.3.11-1.92.11c-1.45,0-2.79-.25-4.02-.74-1.23-.49-2.29-1.17-3.2-2.03-.91-.86-1.62-1.88-2.13-3.04-.51-1.16-.77-2.42-.77-3.76,0-1.56.27-2.96.8-4.21s1.27-2.3,2.22-3.17,2.07-1.52,3.38-1.98c1.3-.46,2.71-.69,4.22-.69s2.83.25,3.95.74c1.12.49,2.06.99,2.83,1.5l-4.22,5.54c-.3-.23-.65-.43-1.04-.58s-.79-.26-1.2-.32c-.41-.06-.79-.08-1.17-.06s-.68.1-.91.22c-.41.21-.75.46-1.04.75s-.51.6-.67.94-.23.71-.22,1.1c.01.4.12.79.34,1.2.43.85,1.03,1.38,1.82,1.57.79.19,1.62.07,2.5-.35l1.63-.83,4.35,5.76c-.53.47-1.1.86-1.71,1.17Z"/>
          <path class="cls-16" d="M329.31,49.37c-1.3.94-2.63,1.62-4,2.03-1.37.42-2.93.62-4.7.62-1.45,0-2.78-.25-3.98-.75s-2.25-1.18-3.12-2.03c-.88-.85-1.56-1.85-2.05-2.99-.49-1.14-.74-2.35-.74-3.63,0-1.6.26-3.03.77-4.29.51-1.26,1.21-2.33,2.08-3.2s1.89-1.54,3.06-2c1.16-.46,2.41-.69,3.73-.69,2.13,0,3.98.54,5.55,1.63s2.74,2.54,3.5,4.35l-9.57,7.2c.24.13.54.21.93.26.38.04.74.06,1.06.06.98,0,1.81-.18,2.48-.53.67-.35,1.28-.77,1.84-1.26l3.17,5.22ZM322.46,38.88c-.3-.36-.62-.61-.98-.74s-.75-.19-1.2-.19-.82.09-1.17.27c-.35.18-.66.43-.91.74-.26.31-.45.66-.59,1.04s-.21.78-.21,1.18c0,.38.03.66.08.82.05.16.12.33.21.5l4.77-3.62Z"/>
          <path class="cls-16" d="M330.88,52.8c1.54-2.37,2.69-4.55,3.47-6.54.78-1.99,1.33-3.72,1.65-5.17.32-1.45.5-3,.54-4.64-.21-1.56-.52-2.96-.91-4.19-.39-1.24-.99-2.61-1.78-4.11-.79-1.5-1.87-2.98-3.23-4.43l1.57-1.12c1.39,1.2,2.54,2.45,3.47,3.76.93,1.31,1.65,2.55,2.18,3.71s.92,2.24,1.2,3.23.45,1.75.51,2.29c.06.53.1.82.1.86-.06,1.83-.3,3.55-.72,5.14-.42,1.59-1.12,3.46-2.11,5.62-.99,2.16-2.44,4.47-4.34,6.94l-1.6-1.34Z"/>
        </g>
        <g>
          <circle class="cls-40" cx="315.68" cy="250" r="39.08"/>
          <path class="cls-16" d="M326.97,230.13l-4.01,13.77,2.93-.09-1.44,8.19-3.2.13-3.69,15.3-12.38-1.44,4.23-13.5-3.6.13.5-8.01,5.62-.32,1.75-4.27-11.66,1.39-.63-9.9,25.56-1.39Z"/>
        </g>
      </g>
      <g>
        <path class="cls-8" d="M32.44,51.46h4.97v4.97h-4.97v-4.97Z"/>
        <path class="cls-19" d="M157.24,229.43h4.97v4.97h-4.97v-4.97Z"/>
        <path class="cls-36" d="M361.27,11.18h4.97v4.97h-4.97v-4.97Z"/>
        <circle class="cls-8" cx="255.87" cy="223.18" r="6.22"/>
        <circle class="cls-36" cx="323.18" cy="186.98" r="6.22"/>
        <circle class="cls-19" cx="42.21" cy="20.49" r="6.22"/>
        <path class="cls-8" d="M363.52,194.17l8.04,4.4-8.04,4.4-4.4,8.04-4.4-8.04-8.04-4.4,8.04-4.4,4.4-8.04,4.4,8.04Z"/>
        <path class="cls-19" d="M272.7,179.63l8.04,4.4-8.04,4.4-4.4,8.04-4.4-8.04-8.04-4.4,8.04-4.4,4.4-8.04,4.4,8.04Z"/>
        <path class="cls-36" d="M185.3,77.78l8.04,4.4-8.04,4.4-4.4,8.04-4.4-8.04-8.04-4.4,8.04-4.4,4.4-8.04,4.4,8.04Z"/>
      </g>
    </g>
  </g>
</svg>